<?xml version="1.0" encoding="UTF-8"?>
<svg id="_Слой_2" data-name="Слой 2" xmlns="http://www.w3.org/2000/svg" viewBox="0 0 191.07 191.07">
  <defs>
    <style>
      .cls-1 {
        fill: #f4f5f5;
      }

      .cls-1, .cls-2 {
        stroke-width: 0px;
      }

      .cls-2 {
        fill: #1a7170;
      }
    </style>
  </defs>
  <g id="pop_up_wall_5">
    <g>
      <circle class="cls-2" cx="95.53" cy="95.53" r="95.53"/>
      <g>
        <path class="cls-1" d="m95.53,46.22c16.06,0,17.96.06,24.31.35,5.86.27,9.05,1.25,11.17,2.07,2.81,1.09,4.81,2.39,6.92,4.5,2.1,2.1,3.41,4.11,4.5,6.92.82,2.12,1.8,5.3,2.07,11.17.29,6.34.35,8.25.35,24.31s-.06,17.96-.35,24.31c-.27,5.86-1.25,9.05-2.07,11.17-1.09,2.81-2.39,4.81-4.5,6.92-2.1,2.1-4.11,3.41-6.92,4.5-2.12.82-5.3,1.8-11.17,2.07-6.34.29-8.24.35-24.31.35s-17.96-.06-24.31-.35c-5.86-.27-9.05-1.25-11.17-2.07-2.81-1.09-4.81-2.39-6.92-4.5-2.1-2.1-3.41-4.11-4.5-6.92-.82-2.12-1.8-5.3-2.07-11.17-.29-6.34-.35-8.25-.35-24.31s.06-17.96.35-24.31c.27-5.86,1.25-9.05,2.07-11.17,1.09-2.81,2.39-4.81,4.5-6.92s4.11-3.41,6.92-4.5c2.12-.82,5.3-1.8,11.17-2.07,6.34-.29,8.25-.35,24.31-.35m0-10.84c-16.34,0-18.38.07-24.8.36-6.4.29-10.77,1.31-14.6,2.8-3.96,1.54-7.31,3.59-10.65,6.94-3.34,3.34-5.4,6.7-6.94,10.65-1.49,3.83-2.5,8.2-2.8,14.6-.29,6.42-.36,8.46-.36,24.8s.07,18.38.36,24.8c.29,6.4,1.31,10.77,2.8,14.6,1.54,3.96,3.59,7.31,6.94,10.65,3.34,3.34,6.7,5.4,10.65,6.94,3.83,1.49,8.2,2.5,14.6,2.8,6.42.29,8.46.36,24.8.36s18.38-.07,24.8-.36c6.4-.29,10.77-1.31,14.6-2.8,3.96-1.54,7.31-3.59,10.65-6.94,3.34-3.34,5.4-6.7,6.94-10.65,1.49-3.83,2.5-8.2,2.8-14.6.29-6.42.36-8.46.36-24.8s-.07-18.38-.36-24.8c-.29-6.4-1.31-10.77-2.8-14.6-1.54-3.96-3.59-7.31-6.94-10.65-3.34-3.34-6.7-5.4-10.65-6.94-3.83-1.49-8.2-2.5-14.6-2.8-6.42-.29-8.46-.36-24.8-.36h0Z"/>
        <path class="cls-1" d="m95.53,64.65c-17.06,0-30.89,13.83-30.89,30.89s13.83,30.89,30.89,30.89,30.89-13.83,30.89-30.89-13.83-30.89-30.89-30.89Zm0,50.94c-11.07,0-20.05-8.98-20.05-20.05s8.98-20.05,20.05-20.05,20.05,8.98,20.05,20.05-8.98,20.05-20.05,20.05Z"/>
        <circle class="cls-1" cx="127.64" cy="63.43" r="7.22" transform="translate(-14.56 53.68) rotate(-22.5)"/>
      </g>
    </g>
  </g>
</svg>