<?xml version="1.0" encoding="UTF-8"?>
<svg id="_Слой_2" data-name="Слой 2" xmlns="http://www.w3.org/2000/svg" viewBox="0 0 191.07 191.07">
  <defs>
    <style>
      .cls-1 {
        fill: #f4f5f5;
      }

      .cls-1, .cls-2 {
        stroke-width: 0px;
      }

      .cls-2 {
        fill: #1a7170;
      }
    </style>
  </defs>
  <g id="pop_up_wall_5">
    <g>
      <path class="cls-2" d="m191.07,95.53C191.07,42.77,148.3,0,95.53,0S0,42.77,0,95.53c0,47.68,34.94,87.21,80.61,94.37v-66.76h-24.26v-27.62h24.26v-21.05c0-23.94,14.26-37.17,36.08-37.17,10.45,0,21.39,1.87,21.39,1.87v23.51h-12.05c-11.87,0-15.57,7.36-15.57,14.92v17.92h26.5l-4.24,27.62h-22.26v66.76c45.67-7.17,80.61-46.69,80.61-94.37Z"/>
      <path class="cls-1" d="m132.72,123.15l4.24-27.62h-26.5v-17.92c0-7.56,3.7-14.92,15.57-14.92h12.05v-23.51s-10.93-1.87-21.39-1.87c-21.82,0-36.08,13.23-36.08,37.17v21.05h-24.26v27.62h24.26v66.76c4.86.76,9.85,1.16,14.93,1.16s10.06-.4,14.93-1.16v-66.76h22.26Z"/>
    </g>
  </g>
</svg>