<?xml version="1.0" encoding="UTF-8"?>
<svg id="_Слой_2" data-name="Слой 2" xmlns="http://www.w3.org/2000/svg" viewBox="0 0 191.07 191.07">
  <defs>
    <style>
      .cls-1 {
        fill: #f4f5f5;
      }

      .cls-1, .cls-2 {
        stroke-width: 0px;
      }

      .cls-2 {
        fill: #1a7170;
      }
    </style>
  </defs>
  <g id="pop_up_wall_5">
    <g>
      <circle class="cls-2" cx="95.53" cy="95.53" r="95.53"/>
      <path class="cls-1" d="m156.56,64.88c-1.46-5.48-5.78-9.8-11.26-11.26-9.93-2.66-49.77-2.66-49.77-2.66,0,0-39.83,0-49.77,2.66-5.48,1.47-9.8,5.78-11.26,11.26-2.66,9.93-2.66,30.66-2.66,30.66,0,0,0,20.73,2.66,30.66,1.46,5.48,5.78,9.8,11.26,11.26,9.93,2.66,49.77,2.66,49.77,2.66,0,0,39.83,0,49.77-2.66,5.48-1.47,9.8-5.78,11.26-11.26,2.66-9.93,2.66-30.66,2.66-30.66,0,0,0-20.73-2.66-30.66Zm-73.77,49.77v-38.21l33.09,19.11-33.09,19.11Z"/>
    </g>
  </g>
</svg>