<svg width="146" height="100" viewBox="0 0 146 100" fill="none" xmlns="http://www.w3.org/2000/svg">
<path d="M48.4064 16.4457H52.5649V4.5358H48.4064V16.4457Z" fill="#231F20"/>
<path d="M50.4389 9.45245C53.0491 9.45245 55.1651 7.33645 55.1651 4.72623C55.1651 2.116 53.0491 0 50.4389 0C47.8286 0 45.7126 2.116 45.7126 4.72623C45.7126 7.33645 47.8286 9.45245 50.4389 9.45245Z" fill="#286666"/>
<path d="M22.3901 43.1001C22.3478 42.4743 22.3196 41.845 22.3196 41.2086C22.3196 25.6531 34.9293 13.0416 50.4865 13.0416C66.042 13.0416 78.6535 25.6514 78.6535 41.2086C78.6535 41.845 78.6253 42.4743 78.583 43.1001C78.6834 43.6854 78.7469 44.283 78.7469 44.8983V76.085C78.7469 81.8813 74.0489 86.5793 68.2526 86.5793H32.7187C26.9224 86.5793 22.2244 81.8813 22.2244 76.085V44.8983C22.2244 44.2848 22.2878 43.6854 22.3883 43.1001H22.3901Z" fill="#6384B6"/>
<path d="M35.3665 44.99L65.603 44.99C67.3282 44.99 68.7268 43.5914 68.7268 41.8662V30.7232C68.7268 28.9979 67.3282 27.5994 65.603 27.5994L35.3665 27.5994C33.6412 27.5994 32.2427 28.9979 32.2427 30.7232V41.8662C32.2427 43.5914 33.6412 44.99 35.3665 44.99Z" fill="#87D2DA"/>
<path d="M7.21726 27.8112L3.59424 29.8527L17.4215 54.3921L21.0445 52.3506L7.21726 27.8112Z" fill="#231F20"/>
<path d="M83.6261 70.4791L87.699 69.6393L84.7839 55.5007L80.7109 56.3404L83.6261 70.4791Z" fill="#231F20"/>
<path d="M99.6178 64.2203L97.3816 60.7141L85.2104 68.477L87.4467 71.9831L99.6178 64.2203Z" fill="#231F20"/>
<path d="M4.72623 32.6394C7.33645 32.6394 9.45245 30.5234 9.45245 27.9132C9.45245 25.303 7.33645 23.187 4.72623 23.187C2.116 23.187 0 25.303 0 27.9132C0 30.5234 2.116 32.6394 4.72623 32.6394Z" fill="#286666"/>
<path d="M19.8146 60.8696C23.6779 60.8696 26.8096 57.7378 26.8096 53.8746C26.8096 50.0114 23.6779 46.8796 19.8146 46.8796C15.9514 46.8796 12.8196 50.0114 12.8196 53.8746C12.8196 57.7378 15.9514 60.8696 19.8146 60.8696Z" fill="#286666"/>
<path d="M81.6293 60.8696C85.4925 60.8696 88.6243 57.7378 88.6243 53.8746C88.6243 50.0114 85.4925 46.8796 81.6293 46.8796C77.7661 46.8796 74.6343 50.0114 74.6343 53.8746C74.6343 57.7378 77.7661 60.8696 81.6293 60.8696Z" fill="#286666"/>
<path d="M64.249 88.6578C63.2477 95.0799 57.7088 100 51.0046 100C44.3005 100 38.7616 95.0799 37.7603 88.6578H64.249Z" fill="#286666"/>
<path d="M29.4558 63.8931C30.0818 63.8931 30.5893 63.3856 30.5893 62.7596C30.5893 62.1335 30.0818 61.626 29.4558 61.626C28.8298 61.626 28.3223 62.1335 28.3223 62.7596C28.3223 63.3856 28.8298 63.8931 29.4558 63.8931Z" fill="#87D2DA"/>
<path d="M33.803 63.8931C34.429 63.8931 34.9365 63.3856 34.9365 62.7596C34.9365 62.1335 34.429 61.626 33.803 61.626C33.1769 61.626 32.6694 62.1335 32.6694 62.7596C32.6694 63.3856 33.1769 63.8931 33.803 63.8931Z" fill="#87D2DA"/>
<path d="M38.1518 63.8931C38.7779 63.8931 39.2853 63.3856 39.2853 62.7596C39.2853 62.1335 38.7779 61.626 38.1518 61.626C37.5258 61.626 37.0183 62.1335 37.0183 62.7596C37.0183 63.3856 37.5258 63.8931 38.1518 63.8931Z" fill="#87D2DA"/>
<path d="M39.7807 36.5211C41.3463 36.5211 42.6154 35.252 42.6154 33.6864C42.6154 32.1209 41.3463 30.8517 39.7807 30.8517C38.2152 30.8517 36.946 32.1209 36.946 33.6864C36.946 35.252 38.2152 36.5211 39.7807 36.5211Z" fill="#231F20"/>
<path d="M60.5754 36.5211C62.1409 36.5211 63.4101 35.252 63.4101 33.6864C63.4101 32.1209 62.1409 30.8517 60.5754 30.8517C59.0098 30.8517 57.7407 32.1209 57.7407 33.6864C57.7407 35.252 59.0098 36.5211 60.5754 36.5211Z" fill="#231F20"/>
<path d="M86.4402 74.0595C88.2618 74.0595 89.7385 72.5828 89.7385 70.7612C89.7385 68.9396 88.2618 67.4629 86.4402 67.4629C84.6185 67.4629 83.1418 68.9396 83.1418 70.7612C83.1418 72.5828 84.6185 74.0595 86.4402 74.0595Z" fill="#286666"/>
<path d="M12.6572 44.1755C14.4788 44.1755 15.9555 42.6988 15.9555 40.8772C15.9555 39.0556 14.4788 37.5789 12.6572 37.5789C10.8356 37.5789 9.35889 39.0556 9.35889 40.8772C9.35889 42.6988 10.8356 44.1755 12.6572 44.1755Z" fill="#286666"/>
<path d="M99.1081 66.5514C101.718 66.5514 103.834 64.4354 103.834 61.8252C103.834 59.215 101.718 57.099 99.1081 57.099C96.4978 57.099 94.3818 59.215 94.3818 61.8252C94.3818 64.4354 96.4978 66.5514 99.1081 66.5514Z" fill="#286666"/>
</svg>
