<svg width="146" height="102" viewBox="0 0 146 102" fill="none" xmlns="http://www.w3.org/2000/svg">
<path d="M90.1954 69.7713C93.133 67.0528 92.798 61.8321 89.6697 60.0361C90.5356 57.4928 89.0925 54.3645 86.6008 52.9756C85.4232 52.3186 86.7425 51.9681 86.9564 50.7081C87.1496 49.5691 87.2218 48.3632 87.0646 47.2113C86.7966 45.2633 85.9205 43.5059 84.4105 42.2278C83.6787 41.6068 82.8026 41.1197 81.8904 40.8208C81.1946 40.5941 79.9681 40.6894 79.5583 40.1148C79.0945 39.4603 79.043 38.025 78.7415 37.2571C78.3524 36.2599 77.8448 35.291 77.2289 34.4123C75.085 31.3639 70.6168 30.2198 66.9887 31.0341C66.9011 30.6141 66.4166 28.4676 64.3655 27.1586C61.6701 25.4373 58.7326 26.7386 58.5264 26.8339C58.2172 26.5685 57.305 25.8547 55.9393 25.7594C54.9344 25.6898 54.1562 25.9836 53.7774 26.1588C52.8884 26.0609 52.1978 25.6486 51.3681 25.11C50.1286 24.3035 48.9175 23.5227 47.4075 23.6412C46.6293 23.2625 45.8021 22.979 44.8539 22.9069C42.1766 22.7033 39.7106 23.8371 37.4327 25.1023C35.6031 26.1176 34.1421 26.2619 32.0832 25.9166C30.8515 25.7104 29.6404 25.5558 28.3881 25.5893C26.105 25.6512 23.7369 26.2954 22.0285 27.8775C21.6188 28.2563 21.3302 28.7098 20.9565 29.1144C20.0933 30.0472 19.5238 30.1451 18.3282 30.0343C17.1532 29.9235 16.0503 29.8514 14.8804 30.0833C12.8757 30.4827 10.956 31.4799 9.48717 32.8946C8.76567 33.6367 7.83028 34.7653 7.10362 36.3243C6.41819 37.7905 6.41562 38.5713 5.73018 40.0736C4.92364 41.8413 4.25367 42.5756 3.31829 43.6605C0.409073 47.0387 -0.456734 51.6924 1.6176 55.7612C2.06596 56.6399 3.2513 57.6835 3.38014 58.6472C3.45744 59.2321 3.20749 60.0206 3.20749 60.6313C3.20749 61.2189 3.24614 61.7986 3.33891 62.3784C3.68935 64.5146 4.63504 66.5683 6.08836 68.1762C9.04138 71.4488 12.4763 73.0103 18.774 70.4722C19.243 75.7366 22.3094 78.0635 25.9324 80.0141C30.5191 82.4853 35.4743 81.6272 40.4424 82.0601C43.6351 82.3384 46.2763 83.6629 48.1058 85.8222C48.2063 85.9871 48.3017 86.1546 48.3918 86.3247C48.9871 87.4482 49.4277 88.7134 50.2136 89.7209C50.3348 90.11 50.4481 90.5069 50.5357 90.9217C50.7574 91.9628 50.8707 93.0424 50.8372 94.1067C50.8037 95.1941 50.4249 96.3794 50.7264 97.4488C51.3114 99.518 54.2232 99.9045 56.0269 100.139C58.444 100.453 60.3302 99.92 61.1599 97.4359C61.6315 96.029 61.0027 94.3025 61.08 92.7925C64.1052 93.4908 68.3467 93.3104 71.2739 92.5606C74.6908 91.6845 77.904 90.2183 79.5867 87.0488C79.6717 86.8865 79.8598 86.4845 79.8495 86.3479C79.9887 85.9562 81.1147 84.4153 81.1663 83.9798C83.573 83.6654 84.6913 83.6345 86.5595 82.006C88.085 80.6789 89.6569 77.6821 89.4533 75.6902C91.3679 74.894 91.1385 74.7059 91.5147 72.6212C91.8059 71.0056 91.4606 70.431 90.198 69.7713H90.1954Z" fill="#A2DDC0"/>
<path d="M80.218 84.5518C79.0867 87.1725 77.1979 89.4323 74.7989 90.981C72.2324 92.6379 69.1789 93.38 66.1357 93.1635C64.3268 93.0347 62.5462 92.5554 60.9177 91.7592C60.3405 91.4757 59.8483 92.29 60.41 92.6301C60.3714 92.607 60.325 92.5631 60.3069 92.5219C60.3069 92.5245 60.3353 92.5631 60.3327 92.5657C60.3327 92.5657 60.3224 92.5245 60.3508 92.6198C60.3843 92.7384 60.4074 92.8698 60.4229 92.978C60.4719 93.3645 60.477 93.7588 60.477 94.1505C60.4796 94.9879 60.4384 95.828 60.3585 96.6628C60.2168 98.1626 59.3613 100.35 57.3952 100.121C55.8955 99.9457 54.0865 99.7267 52.5868 99.1881C51.8911 98.9382 51.6334 98.1754 51.502 97.4668C51.3139 96.4541 51.368 95.4105 51.3216 94.3849C51.2701 93.2847 51.0072 92.2204 50.6877 91.1691C50.3141 89.94 49.8296 88.7366 49.2318 87.6002C48.0929 85.4331 46.4231 83.3279 44.2302 82.1554C43.2433 81.6272 42.1585 81.3849 41.0427 81.3901C39.7801 81.3927 38.5252 81.6014 37.2574 81.6143C34.5363 81.64 31.7971 81.3025 29.1688 80.5913C26.7517 79.9368 24.3347 78.9653 22.5026 77.2079C21.0364 75.8036 20.0984 73.9947 19.6629 72.0208C19.5573 71.5441 19.48 71.0597 19.4284 70.5727C19.3615 69.9336 18.3513 69.9284 18.4209 70.5727C18.6477 72.6908 19.2816 74.7677 20.5545 76.4993C22.0568 78.5427 24.1981 79.8956 26.543 80.7949C29.2074 81.8179 32.0677 82.3538 34.9099 82.5471C36.2859 82.6424 37.6671 82.6476 39.0431 82.5445C40.2774 82.4517 41.4962 82.2585 42.7125 82.6089C43.9004 82.9517 44.9337 83.7427 45.8072 84.5957C46.771 85.5362 47.5569 86.6365 48.2063 87.8115C49.3761 89.9348 50.2677 92.406 50.3321 94.8462C50.3785 96.5752 50.2033 99.317 52.1642 100.098C53.0094 100.435 53.9397 100.585 54.8312 100.739C55.6687 100.886 56.5087 101.013 57.3514 101.118C59.5597 101.394 60.995 99.2835 61.2887 97.3174C61.4073 96.5289 61.4485 95.7223 61.4717 94.9261C61.4974 94.117 61.5361 93.2434 61.3454 92.4472C61.281 92.1766 61.165 91.9061 60.9151 91.7566C60.745 92.0478 60.5749 92.3364 60.4074 92.6276C63.4687 94.1273 66.9706 94.5731 70.3101 93.8902C73.3611 93.2666 76.1672 91.6406 78.2776 89.3576C79.4475 88.0924 80.4035 86.6391 81.0889 85.0595C81.344 84.4694 80.4756 83.9566 80.218 84.5518Z" fill="#1E4D4C"/>
<path d="M41.718 82.0756C47.1963 80.4625 52.8859 81.1299 58.4312 82.0008C60.9925 82.4028 63.5667 82.7404 66.1178 83.2119C68.5065 83.6526 70.8875 84.1551 73.3019 84.4462C75.9174 84.7632 78.6385 84.8405 81.187 84.07C81.8054 83.8819 81.5426 82.9105 80.919 83.0986C78.6797 83.7763 76.3091 83.7505 74.0028 83.5186C71.5729 83.2712 69.1816 82.7662 66.7826 82.3152C64.2599 81.8411 61.714 81.5087 59.1784 81.1067C56.4264 80.6712 53.6615 80.2512 50.876 80.1146C47.7013 79.9574 44.5087 80.2048 41.45 81.1067C40.829 81.2896 41.0944 82.2611 41.718 82.0781V82.0756Z" fill="#1E4D4C"/>
<path d="M47.7658 80.9006C47.941 82.6966 49.1701 84.2376 50.9069 84.7632C50.8064 84.5158 50.7059 84.2711 50.6054 84.0237C49.3531 86.4613 50.5462 89.4736 53.1822 90.3059C53.4863 90.4013 53.7981 90.4502 54.1125 90.4837C54.3856 90.5147 54.6922 90.5147 54.9216 90.6899C55.1818 90.8883 55.3519 91.2156 55.5941 91.4397C55.8028 91.633 56.0348 91.8108 56.2796 91.9602C57.3361 92.6122 58.6554 92.79 59.8459 92.4421C60.4669 92.2592 60.2015 91.2877 59.5779 91.4707C58.5935 91.7593 57.5396 91.5943 56.6867 91.0249C56.2229 90.7156 55.9626 90.2338 55.5374 89.8962C55.1045 89.5509 54.584 89.538 54.0583 89.471C51.7341 89.1721 50.4122 86.6082 51.479 84.5313C51.6284 84.2376 51.5022 83.8897 51.1775 83.7918C49.8994 83.4052 48.9073 82.2405 48.7759 80.9006C48.714 80.2615 47.7065 80.2538 47.7684 80.9006H47.7658Z" fill="#1E4D4C"/>
<path d="M19.5909 69.4931C19.4002 66.0943 19.9542 62.0358 23.2783 60.2552C23.9895 59.8739 24.7265 59.727 25.5253 59.678C25.9427 59.6523 26.3499 59.6007 26.7312 59.4178C27.1255 59.2271 27.4476 58.9127 27.7748 58.6293C28.9499 57.614 30.4058 56.9724 31.9261 56.6889C33.4413 56.408 35.0363 56.5214 36.4974 57.0136C37.291 57.2816 37.9507 57.7557 38.7083 58.0881C39.5509 58.4566 40.2827 58.1757 40.9372 57.5934C42.3055 56.3771 43.6531 55.2176 45.3203 54.4136C46.887 53.6586 48.6315 53.2798 50.3709 53.4602C51.2934 53.5555 52.2107 53.8261 53.0224 54.2796C53.8547 54.7434 54.6097 55.5242 55.5812 54.8697C55.9729 54.6069 56.3053 54.241 56.666 53.9343C57.05 53.6096 57.4468 53.3004 57.872 53.0324C58.7094 52.5068 59.6603 52.1409 60.6549 52.3779C60.9796 52.4552 61.2837 52.2259 61.2914 51.8935C61.3455 49.9995 62.8014 48.3555 64.6464 48.0051C65.2829 47.884 65.0123 46.9125 64.3784 47.0336C62.0902 47.4691 60.3483 49.5795 60.2839 51.8935C60.4952 51.7311 60.709 51.5688 60.9203 51.409C59.0522 50.9633 57.3798 52.0172 56.0064 53.1767C55.6946 53.4396 55.406 53.7668 55.0736 54.0013C54.6355 54.308 54.2413 53.8519 53.8728 53.6148C53.1487 53.151 52.3293 52.8237 51.4918 52.633C47.8095 51.7956 44.2407 53.4396 41.4654 55.7664C41.1201 56.055 40.7877 56.3565 40.4579 56.6657C40.177 56.9286 39.842 57.2996 39.4195 57.2636C38.9994 57.2275 38.5949 56.8667 38.2341 56.6735C37.8734 56.4802 37.4972 56.3127 37.1132 56.1658C35.5852 55.5783 33.8973 55.4134 32.2817 55.6221C30.6995 55.8257 29.1509 56.3823 27.8418 57.3074C27.1435 57.8021 26.5663 58.5829 25.6696 58.6628C24.8012 58.7401 24.0179 58.8199 23.2087 59.1755C21.5364 59.9074 20.2299 61.371 19.5007 63.0253C18.6066 65.0558 18.4648 67.3028 18.5885 69.4931C18.6246 70.1373 19.6321 70.1424 19.5961 69.4931H19.5909Z" fill="#1E4D4C"/>
<path d="M24.0024 67.0142C27.4604 70.2146 33.0289 70.7197 36.9869 68.1429C36.8581 68.1609 36.7292 68.1764 36.5978 68.1944C39.6436 68.6428 42.9316 68.5603 45.8769 67.5837C48.1136 66.8416 50.3889 65.3857 50.9403 62.9403C50.6337 62.9815 50.327 63.0202 50.0204 63.0614C52.2442 66.0737 56.5938 65.9938 59.9411 65.548C63.309 65.0997 66.5249 63.8525 69.1223 61.6287C70.8075 60.1857 72.1552 58.3845 73.1962 56.4313C73.5003 55.8592 72.6319 55.349 72.3253 55.9236C70.6735 59.0261 68.2281 61.5823 65.0252 63.082C62.286 64.3653 59.1037 64.8806 56.0914 64.7363C54.2051 64.6461 52.0715 64.1565 50.8888 62.5512C50.6517 62.2317 50.0719 62.211 49.9689 62.6723C49.5952 64.3266 48.2759 65.4243 46.8071 66.133C45.0214 66.9936 42.9574 67.3131 40.9938 67.4136C39.8858 67.4703 38.7752 67.442 37.6723 67.326C37.3837 67.2951 37.0874 67.2281 36.7962 67.2152C36.5385 67.2049 36.3814 67.3415 36.1701 67.4677C35.7964 67.6945 35.4073 67.8955 35.0028 68.063C33.418 68.7226 31.6452 68.9262 29.9471 68.7072C28.0093 68.4547 26.1488 67.6352 24.711 66.3056C24.2369 65.865 23.5205 66.5762 23.9998 67.0168L24.0024 67.0142Z" fill="#1E4D4C"/>
<path d="M27.9166 70.6422C26.7003 71.6214 26.4092 73.5308 27.2286 74.8476C27.3729 75.0795 27.6795 75.1671 27.9166 75.028C28.1459 74.894 28.2413 74.5719 28.097 74.3399C28.0532 74.2704 28.0145 74.2008 27.9759 74.1286C27.9604 74.1003 27.9475 74.0694 27.9346 74.041C27.9707 74.1183 27.9269 74.0204 27.9218 74.005C27.8676 73.8607 27.8264 73.7138 27.7981 73.5643C27.7981 73.5669 27.7775 73.4303 27.7852 73.487C27.7929 73.5489 27.78 73.42 27.7775 73.4097C27.7697 73.3298 27.7671 73.2474 27.7671 73.1675C27.7671 73.0953 27.7697 73.0206 27.7749 72.9485C27.7775 72.9072 27.7826 72.8686 27.7878 72.8274C27.7775 72.9021 27.7878 72.8274 27.7955 72.7939C27.8213 72.6418 27.8599 72.4924 27.9114 72.3481C27.9218 72.3171 27.9346 72.2862 27.9449 72.2579C27.9965 72.1136 27.9243 72.3017 27.9604 72.2218C27.9939 72.1497 28.03 72.0775 28.0686 72.0053C28.1047 71.9409 28.1434 71.8817 28.182 71.8198C28.182 71.8224 28.2567 71.7142 28.2284 71.7528C28.1975 71.7966 28.2722 71.6987 28.2799 71.691C28.3856 71.5673 28.5015 71.4565 28.6278 71.356C28.8391 71.1859 28.8056 70.8226 28.6278 70.6448C28.4191 70.4361 28.1279 70.4747 27.9166 70.6448V70.6422Z" fill="#1E4D4C"/>
<path d="M37.84 76.3138C38.4275 76.5045 38.966 76.2545 39.5252 76.0948C40.2158 75.8989 40.8626 76.2056 41.4887 76.4787C42.7797 77.0405 44.0398 77.3574 45.4544 77.1538C46.8305 76.9554 47.954 76.2958 49.0001 75.4119C49.5078 74.9842 50.0205 74.5178 50.6467 74.2678C51.1904 74.0488 51.7805 74.0204 52.3577 74.0797C53.5791 74.2034 54.7335 74.6981 55.9318 74.9326C57.2459 75.1903 58.4184 75.0718 59.6114 74.4482C60.2737 74.1029 60.9024 73.737 61.6548 73.6313C62.3944 73.5283 63.152 73.6313 63.8735 73.7988C65.167 74.0977 66.3936 74.6956 67.7103 74.8837C69.0013 75.0692 70.3232 74.9816 71.5988 74.7342C72.8382 74.4946 74.106 74.0797 75.1393 73.3376C75.6624 72.9639 75.1599 72.0878 74.6317 72.4666C72.8691 73.7318 70.3748 74.1235 68.2541 73.938C67.012 73.8297 65.8525 73.2835 64.6594 72.9562C63.2731 72.5774 61.7682 72.3816 60.3974 72.9304C59.7403 73.1933 59.1553 73.6107 58.4957 73.8581C57.9442 74.0668 57.3645 74.1029 56.7821 74.0462C55.5787 73.9302 54.4398 73.4484 53.2622 73.2062C52.0743 72.9614 50.8632 72.9588 49.7783 73.5695C48.6213 74.2214 47.7968 75.3191 46.5419 75.8242C45.1092 76.3988 43.5966 76.2932 42.1948 75.6902C41.5068 75.3939 40.7647 74.9996 39.9968 74.997C39.6644 74.997 39.3345 75.0872 39.0202 75.1903C38.7238 75.2857 38.4146 75.4351 38.1028 75.3346C37.4844 75.1336 37.2215 76.1051 37.8348 76.3061L37.84 76.3138Z" fill="#1E4D4C"/>
<path d="M15.8649 49.5511C18.5139 50.0407 20.5289 47.969 21.9591 46.0235C22.696 45.0211 23.3995 43.9723 24.3581 43.1632C25.3347 42.3386 26.5793 41.9315 27.8393 41.813C29.3262 41.6738 30.8259 41.8542 32.2998 42.0475C32.5729 42.0835 32.7997 41.7898 32.8023 41.545C32.8048 41.2435 32.5678 41.076 32.2998 41.0425C29.8157 40.7178 27.0972 40.4318 24.7987 41.6584C22.5491 42.8592 21.5725 45.2942 19.8358 47.0259C18.8746 47.9844 17.5527 48.8425 16.1329 48.5822C15.499 48.4637 15.2284 49.4352 15.8649 49.5537V49.5511Z" fill="#1E4D4C"/>
<path d="M33.7015 31.1889C34.959 30.6194 36.4767 31.2559 36.9328 32.5597C37.4276 33.9718 36.4278 35.304 35.6779 36.4224C34.2195 38.5946 32.5059 40.8905 32.8048 43.658C32.9491 44.9902 33.5134 46.191 34.6137 46.9899C35.1394 47.3712 35.6419 46.4977 35.1213 46.1189C34.1499 45.4128 33.7763 44.1811 33.7788 43.0241C33.784 41.6327 34.3432 40.37 35.0492 39.195C36.3866 36.9686 39.4092 34.0337 37.4096 31.3332C36.4252 30.0035 34.6704 29.6453 33.1913 30.3153C32.6012 30.5833 33.114 31.4517 33.699 31.1863L33.7015 31.1889Z" fill="#1E4D4C"/>
<path d="M44.7072 27.826C46.1682 28.8387 47.0675 30.5729 47.0881 32.3457C47.0959 32.9925 48.1034 32.9951 48.0957 32.3457C48.0699 30.2018 46.9748 28.1765 45.2174 26.9576C44.9932 26.803 44.6582 26.9164 44.5294 27.138C44.3825 27.388 44.4856 27.6714 44.7098 27.826H44.7072Z" fill="#1E4D4C"/>
<path d="M50.9921 30.7996C48.6807 30.5368 46.7481 32.74 46.0704 34.7344C45.8977 35.2472 45.7895 35.8089 45.8436 36.3501C45.8694 36.6206 46.0549 36.8526 46.3461 36.8526C46.5986 36.8526 46.8769 36.6206 46.8486 36.3501C46.8357 36.2212 46.8305 36.0924 46.8383 35.9636C46.8408 35.8966 46.846 35.827 46.8537 35.76C46.8666 35.6492 46.846 35.7883 46.864 35.6853C46.913 35.4044 46.9903 35.1312 47.0882 34.8658C47.2815 34.3427 47.6062 33.7836 47.9772 33.3275C48.7399 32.3947 49.7861 31.6732 50.9869 31.8097C51.2575 31.8407 51.4894 31.5572 51.4894 31.3073C51.4894 31.0084 51.2575 30.8357 50.9869 30.8048L50.9921 30.7996Z" fill="#1E4D4C"/>
<path d="M46.0727 34.9174C44.2947 35.5694 43.0011 37.0098 42.3002 38.744C41.4602 40.8235 41.6251 43.1684 42.1353 45.3045C42.2848 45.9359 43.2562 45.6679 43.1068 45.0366C42.6558 43.14 42.5038 41.1069 43.1841 39.2439C43.7226 37.7674 44.8435 36.4377 46.3407 35.8889C46.9436 35.6673 46.6834 34.6932 46.0727 34.9174Z" fill="#1E4D4C"/>
<path d="M13.5588 39.3391C13.8139 37.9193 14.3499 36.5484 15.2904 35.4404C16.133 34.4483 17.2075 33.7036 18.3929 33.178C19.689 32.6033 21.1681 32.2374 22.5879 32.2581C23.5207 32.2709 24.4381 32.4462 25.3142 32.7683C25.7162 32.9177 26.1027 33.1599 26.5459 33.129C26.9608 33.1007 27.2365 32.8275 27.4632 32.5054C28.4476 31.114 30.205 31.0933 31.7639 31.1346C32.4133 31.1526 32.4133 30.1451 31.7639 30.127C30.2951 30.0884 28.628 30.127 27.4143 31.0701C27.1282 31.2918 26.8963 31.5546 26.6902 31.8535C26.5665 32.0339 26.5433 32.1189 26.3372 32.1009C26.0872 32.0777 25.7497 31.8561 25.5126 31.771C24.6262 31.4515 23.6805 31.284 22.7399 31.2531C19.8977 31.1629 16.7308 32.3817 14.7931 34.487C13.6155 35.7651 12.894 37.3679 12.5873 39.0711C12.4739 39.705 13.4454 39.9782 13.5588 39.3391Z" fill="#1E4D4C"/>
<path d="M51.6388 31.1167C51.9094 29.5397 52.9762 28.3544 54.396 27.6793C55.5143 27.1485 57.0475 26.865 58.2148 27.3752C58.8023 27.6329 59.3177 26.7645 58.7225 26.5042C57.2021 25.8394 55.4319 26.0971 53.9631 26.7722C52.2985 27.5375 50.9817 29.0141 50.6674 30.8462C50.5591 31.4801 51.528 31.7532 51.6388 31.1142V31.1167Z" fill="#1E4D4C"/>
<path d="M43.5242 46.7244C44.7302 46.745 45.9207 47.3635 46.5881 48.3762C47.3044 49.4661 47.3946 50.9117 46.8174 52.0816C46.5314 52.6614 47.3998 53.1716 47.6884 52.5892C48.4228 51.105 48.3815 49.2652 47.459 47.8659C46.5932 46.5518 45.0961 45.7401 43.5268 45.7143C42.8775 45.704 42.8775 46.7115 43.5268 46.7218L43.5242 46.7244Z" fill="#1E4D4C"/>
<path d="M35.4718 48.054C37.0514 48.8141 37.3993 50.8189 36.1572 52.066C35.6135 52.6123 34.9693 53.1122 34.8199 53.9162C34.6782 54.6867 34.9461 55.5009 35.5491 56.006C36.0439 56.4209 36.7602 55.7097 36.2603 55.2948C35.6316 54.7691 35.6754 53.9858 36.2114 53.4137C36.8169 52.7695 37.4379 52.2696 37.7446 51.4038C38.3243 49.7727 37.523 47.9277 35.9769 47.183C35.3945 46.9021 34.8843 47.7705 35.4692 48.054H35.4718Z" fill="#1E4D4C"/>
<path d="M23.6519 50.1824C24.2884 50.4916 24.9506 50.8214 25.4325 51.3548C25.9788 51.9629 25.8345 52.7154 25.9375 53.4678C26.1462 54.9675 27.0997 56.3203 28.437 57.0315C29.0091 57.3356 29.5193 56.4672 28.9447 56.1606C28.2953 55.8153 27.7645 55.3102 27.396 54.6712C27.0043 53.9935 26.9167 53.3055 26.8858 52.5376C26.8523 51.7465 26.5817 51.0636 26.0123 50.5045C25.484 49.9865 24.8192 49.6335 24.1621 49.3114C23.5823 49.028 23.0695 49.8963 23.6545 50.1824H23.6519Z" fill="#1E4D4C"/>
<path d="M13.5689 48.9637C10.907 48.5333 8.04937 48.7266 5.90288 50.5278C4.10427 52.0404 3.34411 54.5759 4.42122 56.7379C4.97523 57.8485 5.97246 58.485 7.09595 58.9308C8.16275 59.3534 9.49238 59.6651 10.1366 60.7139C10.4948 61.2937 10.3427 61.8915 10.2474 62.5254C10.1572 63.131 10.1701 63.7314 10.3041 64.3292C10.5721 65.5248 11.2936 66.6148 12.1851 67.4394C12.9891 68.1841 13.9966 68.8257 15.0196 69.2303C16.1019 69.6606 17.3027 69.6915 18.4494 69.6941C19.0987 69.6941 19.0987 68.6891 18.4494 68.6866C17.5114 68.6866 16.5528 68.6737 15.6484 68.3876C14.8753 68.1454 14.1641 67.6816 13.507 67.2229C12.6155 66.5993 11.8399 65.6975 11.4559 64.6719C11.2704 64.1771 11.1725 63.6566 11.1931 63.1284C11.2163 62.5099 11.4327 61.9121 11.3709 61.2911C11.2601 60.2192 10.4716 59.4023 9.57741 58.8844C8.5673 58.2969 7.37424 58.1088 6.38732 57.4749C4.55779 56.2998 4.57583 53.6844 5.79723 52.0868C7.54173 49.8063 10.6648 49.5151 13.3009 49.9403C13.9348 50.0433 14.2079 49.0719 13.5689 48.9688V48.9637Z" fill="#1E4D4C"/>
<path d="M8.60603 49.2445C8.14221 47.0259 7.77887 44.4336 9.0982 42.4263C10.1933 40.7617 12.3759 39.9165 14.3059 40.3623C14.9373 40.5066 15.2052 39.5377 14.5739 39.3908C12.2548 38.8548 9.76302 39.8005 8.36381 41.7203C6.73011 43.9595 7.10375 46.9718 7.63457 49.5125C7.76599 50.1464 8.73745 49.8784 8.60603 49.2445Z" fill="#1E4D4C"/>
<path d="M66.2259 31.4284C67.0067 34.4819 65.5894 37.7545 63.1724 39.6716C61.9072 40.674 60.3534 41.0734 58.9696 41.8619C57.5086 42.6968 56.4701 44.1347 56.6505 45.8792C56.8515 47.8169 58.4749 49.2728 60.4126 49.3372C61.062 49.3578 61.0594 48.3503 60.4126 48.3297C58.7763 48.2756 57.5111 46.8712 57.6503 45.2401C57.792 43.5523 59.3149 42.7432 60.6986 42.1376C62.0953 41.5269 63.3966 40.9059 64.5098 39.834C65.5997 38.7826 66.4372 37.4762 66.9448 36.0512C67.504 34.4845 67.6071 32.7761 67.1948 31.163C67.035 30.5343 66.0636 30.8022 66.2233 31.431L66.2259 31.4284Z" fill="#1E4D4C"/>
<path d="M66.4243 37.5534C69.7226 36.046 73.776 37.2854 75.6313 40.3982C76.5074 41.867 76.8243 43.5342 76.6233 45.2246C76.412 46.9923 75.8451 48.7265 75.1906 50.3756C74.5387 52.0222 73.7528 53.6198 72.8664 55.153C72.5417 55.7148 73.4101 56.2224 73.7373 55.6607C75.5565 52.5195 77.1619 48.979 77.618 45.3509C78.0947 41.5552 75.9843 37.7802 72.3561 36.4274C70.2741 35.6517 67.9343 35.7651 65.9193 36.685C65.3292 36.953 65.842 37.8214 66.4269 37.556L66.4243 37.5534Z" fill="#1E4D4C"/>
<path d="M75.7063 72.9665C78.9865 70.869 80.6795 66.7461 79.824 62.9479C79.6617 63.1592 79.4993 63.373 79.3396 63.5843C81.2026 63.5534 83.0244 62.7958 84.336 61.4636C85.6965 60.0824 86.382 58.1705 86.5211 56.261C86.7788 52.7334 84.9647 48.8476 81.3778 47.7988C79.5174 47.2551 77.4843 47.554 75.9562 48.7728C75.4486 49.1774 76.1675 49.886 76.6674 49.484C77.8012 48.5796 79.3627 48.3605 80.7516 48.6775C82.2333 49.015 83.4728 49.9375 84.2948 51.2079C85.9929 53.8363 86.0238 57.7375 84.0628 60.2474C82.9342 61.6929 81.1614 62.5433 79.337 62.5742C78.9994 62.5794 78.7778 62.8912 78.8525 63.2107C79.605 66.558 78.0872 70.2454 75.196 72.0929C74.6523 72.4408 75.1574 73.3144 75.7037 72.9639L75.7063 72.9665Z" fill="#1E4D4C"/>
<path d="M79.7492 64.0379C81.5479 64.4862 83.1042 65.6638 84.0525 67.2563C85.109 69.0317 85.3383 71.1988 84.8436 73.1881C84.6864 73.8168 85.6579 74.0848 85.8151 73.4561C86.3742 71.2091 86.1165 68.7534 84.9209 66.7461C83.8438 64.9372 82.0632 63.5766 80.0172 63.0664C79.3885 62.9092 79.1205 63.8807 79.7492 64.0379Z" fill="#1E4D4C"/>
<path d="M85.2816 69.5961C86.655 70.2119 88.1392 70.4052 89.6261 70.163C89.894 70.1192 90.0435 69.7868 89.9791 69.5445C89.9018 69.2585 89.6286 69.1477 89.3606 69.1915C88.1676 69.3874 86.8972 69.2199 85.7918 68.7251C85.5444 68.6143 85.2506 68.653 85.1038 68.9055C84.9775 69.1219 85.0342 69.4827 85.2841 69.5935L85.2816 69.5961Z" fill="#1E4D4C"/>
<path d="M73.4952 84.1422C76.8296 84.2246 79.1564 81.0861 79.0147 77.9218C78.8034 78.0841 78.5895 78.2464 78.3782 78.4062C82.2383 79.7513 86.7503 78.6897 89.6234 75.7933C90.0795 75.3321 89.3683 74.6209 88.9122 75.0821C86.2736 77.7414 82.179 78.6665 78.6462 77.4373C78.3447 77.3317 77.9943 77.61 78.0098 77.9218C78.1257 80.545 76.2988 83.2042 73.4978 83.1347C72.8484 83.1192 72.8484 84.1267 73.4978 84.1422H73.4952Z" fill="#1E4D4C"/>
<path d="M33.8691 73.3943C34.9024 74.8759 36.4691 75.9505 38.2445 76.3241C38.5099 76.3808 38.7882 76.2468 38.863 75.9711C38.9325 75.7211 38.7779 75.4068 38.5099 75.3527C36.9974 75.0357 35.6213 74.1596 34.7375 72.8867C34.5829 72.6625 34.2969 72.562 34.0495 72.7063C33.8279 72.8351 33.7119 73.1701 33.8691 73.3943Z" fill="#1E4D4C"/>
<path d="M36.0104 75.0537C34.6086 76.1824 34.0134 78.182 34.5261 79.9007C34.7117 80.5191 35.6831 80.2563 35.4976 79.6327C35.0802 78.2412 35.5698 76.6926 36.7216 75.7649C36.9329 75.5949 36.8994 75.2315 36.7216 75.0537C36.5129 74.845 36.2217 74.8837 36.0104 75.0537Z" fill="#1E4D4C"/>
<path d="M27.5971 69.0525C27.3498 69.6993 27.2518 70.4156 27.3137 71.1062C27.3266 71.2428 27.3626 71.3639 27.4606 71.4618C27.5482 71.5494 27.6925 71.6139 27.8162 71.6087C28.0687 71.5984 28.3444 71.3871 28.3186 71.1062C28.3032 70.9413 28.298 70.7764 28.3006 70.6089C28.3006 70.5368 28.3058 70.4672 28.3109 70.395C28.3135 70.3486 28.3186 70.2997 28.3238 70.2533C28.3289 70.2172 28.3573 70.1142 28.3238 70.2456C28.3599 70.0961 28.3753 69.9415 28.414 69.7921C28.4552 69.6323 28.5067 69.4725 28.566 69.3179C28.6614 69.0706 28.4629 68.7536 28.213 68.6995C27.9244 68.6351 27.6951 68.7871 27.5946 69.0525H27.5971Z" fill="#1E4D4C"/>
<path d="M4.06063 58.0675C1.12307 60.7654 2.72327 65.3032 4.83367 67.965C6.84616 70.5058 9.97183 72.4023 13.2753 72.4152C15.3728 72.4255 17.3054 71.6138 18.9417 70.3383C19.4519 69.9414 18.7356 69.2328 18.2305 69.6271C16.9447 70.6295 15.396 71.3046 13.7572 71.3948C12.2961 71.4772 10.8376 71.1345 9.52604 70.4929C6.92862 69.2174 4.76925 66.8879 3.84933 64.1282C3.24378 62.3141 3.2747 60.1547 4.77441 58.7761C5.25369 58.3355 4.53991 57.6269 4.0632 58.0649L4.06063 58.0675Z" fill="#1E4D4C"/>
<path d="M4.01412 58.454C2.04544 56.4157 0.932254 53.6199 0.996674 50.7828C1.05852 48.0282 2.25931 45.32 4.23572 43.4054C4.72532 42.9339 5.27418 42.5087 5.63751 41.9212C6.03434 41.277 6.07299 40.5194 6.23017 39.7979C6.51362 38.4811 7.02898 37.2262 7.74534 36.0847C9.227 33.7192 11.541 31.9695 14.2209 31.1939C15.6175 30.7894 17.0734 30.6451 18.5216 30.7765C19.2663 30.8435 20.0213 31.0367 20.7376 30.7301C21.3586 30.4647 21.7709 29.9236 22.2296 29.4546C23.9947 27.6482 26.4787 26.5866 28.9911 26.4449C30.2641 26.3727 31.537 26.5299 32.7481 26.9396C33.4593 27.1793 34.1293 27.4395 34.8637 27.1277C35.4615 26.8752 35.9047 26.3753 36.3943 25.9656C38.229 24.4221 40.5997 23.5279 42.9755 23.3115C45.3899 23.0924 47.8791 23.5176 50.0308 24.6514C50.5693 24.9349 51.0873 25.2595 51.5717 25.6254C52.0716 26.0016 52.5226 26.5119 53.1358 26.7051C53.7723 26.9061 54.383 26.6227 55.004 26.5119C55.5245 26.4191 56.0631 26.3804 56.5913 26.4139C56.9753 26.4397 57.5422 26.499 57.787 26.8443C58.158 27.3699 59.0316 26.8675 58.6579 26.3366C57.9983 25.4064 56.7124 25.3368 55.6714 25.4193C55.0478 25.4682 54.4732 25.6357 53.8625 25.7465C53.19 25.8702 52.6643 25.1951 52.1773 24.824C50.1467 23.2754 47.6395 22.4379 45.1039 22.273C42.5864 22.1107 40.0096 22.6338 37.7832 23.8242C37.2292 24.1206 36.7009 24.4581 36.201 24.8395C35.6857 25.2312 35.2373 25.7491 34.6885 26.0893C34.0133 26.5067 33.2867 26.0326 32.6064 25.8367C31.9699 25.6538 31.3154 25.5378 30.6583 25.4708C28.0223 25.208 25.2599 25.9218 23.0825 27.4318C22.5233 27.8183 21.9951 28.2538 21.521 28.7408C21.0288 29.2433 20.6139 29.8823 19.8435 29.9004C19.0807 29.9184 18.3128 29.7277 17.5449 29.7226C16.8002 29.7174 16.0555 29.787 15.3186 29.9107C12.448 30.3951 9.76813 31.9154 7.90768 34.1598C7.00322 35.2498 6.28944 36.4687 5.78181 37.7906C5.53186 38.4373 5.34117 39.1073 5.20976 39.7876C5.05773 40.5761 4.98042 41.2744 4.40064 41.8748C3.90589 42.3876 3.35188 42.8359 2.8829 43.3771C2.4165 43.9156 1.9939 44.4954 1.63057 45.1113C0.893601 46.3584 0.378239 47.7525 0.146326 49.1826C-0.3175 52.0532 0.331857 55.0552 1.94494 57.48C2.34692 58.0829 2.80302 58.6472 3.3055 59.1703C3.75644 59.6367 4.46764 58.9255 4.0167 58.4591L4.01412 58.454Z" fill="#1E4D4C"/>
<path d="M16.9135 40.4446C19.0136 40.54 21.0777 41.3053 22.7217 42.622C22.933 42.7921 23.2267 42.8282 23.4329 42.622C23.6081 42.4468 23.6467 42.0809 23.4329 41.9108C21.5698 40.4163 19.3022 39.5479 16.9135 39.4397C16.2642 39.4113 16.2668 40.4189 16.9135 40.4472V40.4446Z" fill="#1E4D4C"/>
<path d="M19.1347 37.2958C18.9312 38.3497 19.0652 39.4113 19.5213 40.3828C19.6321 40.6224 19.9954 40.7023 20.2093 40.5632C20.4566 40.4034 20.5108 40.1303 20.3896 39.8752C20.3819 39.8597 20.3072 39.6871 20.3433 39.7772C20.3252 39.7334 20.3072 39.6896 20.2917 39.6433C20.2531 39.5402 20.2196 39.432 20.1887 39.3263C20.1577 39.2181 20.132 39.1099 20.1088 39.0016C20.0985 38.9552 20.0907 38.9089 20.083 38.8599C20.0778 38.829 20.0727 38.7981 20.0675 38.7646C20.0727 38.8109 20.0753 38.8161 20.0675 38.78C20.0469 38.5661 20.0315 38.3523 20.0392 38.1384C20.0418 38.0276 20.0521 37.9168 20.0624 37.806C20.0778 37.6514 20.0444 37.9039 20.0701 37.7519C20.0804 37.69 20.0907 37.6256 20.1036 37.5638C20.1526 37.3061 20.0315 37.0072 19.7506 36.9453C19.5006 36.8886 19.1837 37.0201 19.1322 37.2984L19.1347 37.2958Z" fill="#1E4D4C"/>
<path d="M83.8643 61.8992C85.2867 61.7497 86.7246 62.2006 87.7733 63.1798C88.2475 63.623 88.9612 62.9118 88.4845 62.4686C87.2554 61.3194 85.5444 60.7164 83.8643 60.8916C83.5937 60.92 83.3618 61.1029 83.3618 61.3941C83.3618 61.6441 83.5937 61.9275 83.8643 61.8966V61.8992Z" fill="#1E4D4C"/>
<path d="M87.5775 62.4687C88.2603 61.6725 89.0153 60.9432 89.8322 60.2887C90.0383 60.1238 90.0177 59.7476 89.8322 59.5775C89.6131 59.3765 89.34 59.4023 89.121 59.5775C88.3041 60.232 87.5465 60.9613 86.8663 61.7575C86.6936 61.9585 86.655 62.2754 86.8663 62.4687C87.0544 62.6414 87.3945 62.6826 87.5775 62.4687Z" fill="#1E4D4C"/>
<path d="M37.1802 25.5841C39.4246 24.8059 41.8236 25.4836 43.7639 26.7231C44.3128 27.0735 44.8178 26.2026 44.2715 25.8521C42.1225 24.4761 39.3936 23.752 36.9122 24.6101C36.304 24.8214 36.5643 25.7954 37.1802 25.5816V25.5841Z" fill="#1E4D4C"/>
<path d="M60.1937 45.4205C60.0159 46.9151 60.2839 48.4251 60.9178 49.7856C61.0312 50.033 61.3868 50.0948 61.6058 49.966C61.8583 49.8191 61.9022 49.5254 61.7862 49.278C61.227 48.0746 61.0441 46.7321 61.2013 45.4205C61.2348 45.1499 60.9462 44.918 60.6988 44.918C60.3999 44.918 60.2272 45.1499 60.1963 45.4205H60.1937Z" fill="#1E4D4C"/>
<path d="M58.5961 27.2541C61.544 25.4168 65.7055 27.7488 66.1874 31.0446C66.2802 31.6836 67.2516 31.4131 67.1589 30.7766C66.5842 26.8366 61.5414 24.2315 58.0885 26.3831C57.5396 26.7258 58.0447 27.5968 58.5961 27.2541Z" fill="#1E4D4C"/>
<path d="M66.8032 31.5522C69.0322 30.9234 71.4698 31.1708 73.5261 32.2402C75.5721 33.3044 77.1234 35.1546 77.8603 37.3371C78.2752 38.5663 78.4272 39.8495 78.3113 41.1405C78.2778 41.5012 78.6566 41.6687 78.9477 41.6249C81.5168 41.2436 84.1503 42.6969 85.5083 44.8485C87.0698 47.3223 87.0235 50.4788 85.9592 53.1278C85.8819 53.3185 86.0082 53.6097 86.1912 53.6973C88.4587 54.7873 89.7034 57.5006 89.005 59.928C88.9226 60.2166 89.1622 60.6006 89.4895 60.5645C91.5612 60.3454 91.7468 63.3371 91.8318 64.7441C91.9323 66.3752 91.6334 68.5526 89.8502 69.1968C89.4328 69.3488 89.3632 69.8642 89.7291 70.1167C90.6516 70.7506 91.1721 71.9591 90.9351 73.0646C90.7006 74.1546 89.8322 75.0075 88.7602 75.2781C88.4716 75.3502 88.2629 75.7548 88.4587 76.0176C89.8373 77.8652 87.9125 79.9498 86.5545 81.1171C84.9878 82.4622 82.8877 83.5805 80.7747 83.06C80.146 82.9054 79.878 83.8769 80.5067 84.0315C83.0449 84.6576 85.5057 83.3744 87.3739 81.7381C88.2861 80.9367 89.1622 80.0142 89.626 78.8753C90.0667 77.793 90.0461 76.4711 89.3297 75.51C89.2292 75.7573 89.1287 76.0021 89.0282 76.2495C90.4584 75.8888 91.6617 74.6828 91.9297 73.214C92.2106 71.6731 91.5174 70.1244 90.2367 69.2458C90.1955 69.5524 90.1569 69.859 90.1156 70.1657C92.4193 69.3334 92.9862 66.772 92.8264 64.5817C92.7414 63.4144 92.6461 62.126 92.074 61.0798C91.569 60.1599 90.5717 59.441 89.4869 59.5569C89.6492 59.7682 89.8116 59.9821 89.9713 60.1934C90.7856 57.3641 89.3581 54.1044 86.6936 52.8237C86.7709 53.0144 86.8482 53.2025 86.9255 53.3932C87.8609 51.0612 88.0387 48.3478 87.1626 45.9694C86.3458 43.7456 84.6502 41.9676 82.4445 41.0838C81.2411 40.5994 79.9527 40.4602 78.672 40.6509C78.8833 40.8132 79.0972 40.9756 79.3085 41.1353C79.5327 38.6204 78.7596 36.0564 77.2239 34.0594C75.6649 32.0315 73.338 30.6915 70.8076 30.3179C69.3749 30.1066 67.9216 30.1813 66.5275 30.5756C65.9039 30.7508 66.1693 31.7222 66.7955 31.547L66.8032 31.5522Z" fill="#1E4D4C"/>
<path d="M84.6759 41.7151C84.5007 42.3644 83.7792 42.6865 83.1865 42.4701L81.3982 41.7718L82.5294 35.8064L79.7465 41.2177L75.9817 39.9087L77.9788 31.4929L74.062 39.2413L67.5813 36.9145L69.8902 27.7153L65.9142 36.2445L61.5903 34.701L62.1623 29.1634L59.7633 34.0053L53.2182 31.6217L55.7203 21.6598L50.8836 30.6167L43.8309 28.1739L45.4208 20.2271L41.9421 27.5787L40.4836 27.0401L38.9247 26.3882L40.8109 19.6627L37.4816 25.878L35.7629 25.2982C35.1702 25.0818 34.8224 24.3731 35.1084 23.7624C38.5124 16.4134 40.5867 9.63379 40.5867 9.63379C40.816 8.99989 41.4834 8.66233 42.0761 8.87878L88.6287 25.8239C89.2214 26.0403 89.5126 26.7283 89.2832 27.3597C89.2832 27.3597 87.6057 30.8873 84.6759 41.7125V41.7151Z" fill="#E6E7E8" stroke="#1E4D4C" stroke-miterlimit="10"/>
<path d="M90.863 22.9352L50.9482 8.40718C51.2574 7.91243 51.7058 7.29142 52.301 6.73741C53.8214 5.31759 55.5684 4.99291 57.635 5.74534L87.9254 16.7715C89.0567 17.1838 90.3064 16.6014 90.7161 15.4702C91.1258 14.339 90.5461 13.0918 89.4123 12.6795L59.1219 1.65336C55.5221 0.341769 52.0434 1.01947 49.3274 3.55505C48.0493 4.74811 47.2273 6.07775 46.7944 6.89459L42.2231 5.22998C41.4939 4.96456 40.6642 5.41035 40.3678 6.22205L39.4144 8.84009C39.1181 9.65436 39.4685 10.5279 40.1952 10.7933L88.8351 28.496C89.5617 28.7614 90.394 28.3156 90.6904 27.5013L91.6438 24.8833C91.9401 24.0716 91.5897 23.1955 90.863 22.9301V22.9352Z" fill="#6083B3" stroke="#1E4D4C" stroke-miterlimit="10"/>
<path d="M40.8369 28.0297C41.9011 28.0684 42.8752 28.759 43.223 29.8309C43.6663 31.1992 42.9164 32.668 41.5481 33.1112C40.3628 33.4951 39.1027 32.9849 38.4998 31.9542" fill="white"/>
<path d="M40.8369 28.0297C41.9011 28.0684 42.8752 28.759 43.223 29.8309C43.6663 31.1992 42.9164 32.668 41.5481 33.1112C40.3628 33.4951 39.1027 32.9849 38.4998 31.9542" stroke="#1E4D4C" stroke-miterlimit="10"/>
<path d="M28.1823 31.266C30.0556 33.3919 33.0782 34.3247 35.9436 33.3945C39.7934 32.1473 41.9038 28.0115 40.6566 24.1618C39.4094 20.312 35.2736 18.2016 31.4239 19.4488C28.5585 20.379 26.6568 22.9069 26.3862 25.7259" fill="white"/>
<path d="M28.1823 31.266C30.0556 33.3919 33.0782 34.3247 35.9436 33.3945C39.7934 32.1473 41.9038 28.0115 40.6566 24.1618C39.4094 20.312 35.2736 18.2016 31.4239 19.4488C28.5585 20.379 26.6568 22.9069 26.3862 25.7259" stroke="#1E4D4C" stroke-miterlimit="10"/>
<path d="M26.7134 28.6816C27.0329 29.6659 27.5405 30.5369 28.1821 31.2661C27.7312 31.9541 27.0535 32.4953 26.2109 32.7684C24.2499 33.4049 22.1447 32.3303 21.5082 30.3668C20.8717 28.4059 21.9463 26.3006 23.9098 25.6641C24.7524 25.391 25.6208 25.4322 26.3861 25.726C26.2933 26.6949 26.3938 27.6972 26.7108 28.6816H26.7134Z" fill="white" stroke="#1E4D4C" stroke-miterlimit="10"/>
<path d="M28.7644 15.1859C29.1244 13.661 28.1799 12.133 26.6549 11.773C25.13 11.4131 23.602 12.3576 23.242 13.8825C22.8821 15.4075 23.8266 16.9355 25.3515 17.2954C26.8765 17.6554 28.4045 16.7109 28.7644 15.1859Z" fill="white" stroke="#1E4D4C" stroke-miterlimit="10"/>
<path d="M75.8451 42.4495C77.412 42.4495 78.6822 41.1793 78.6822 39.6124C78.6822 38.0455 77.412 36.7753 75.8451 36.7753C74.2783 36.7753 73.0081 38.0455 73.0081 39.6124C73.0081 41.1793 74.2783 42.4495 75.8451 42.4495Z" fill="white" stroke="#1E4D4C" stroke-miterlimit="10"/>
<path d="M89.9945 36.7598C90.5965 36.7598 91.0845 36.2718 91.0845 35.6698C91.0845 35.0678 90.5965 34.5798 89.9945 34.5798C89.3925 34.5798 88.9045 35.0678 88.9045 35.6698C88.9045 36.2718 89.3925 36.7598 89.9945 36.7598Z" fill="white" stroke="#1E4D4C" stroke-miterlimit="10"/>
<path d="M85.5191 45.4823C86.5433 45.0581 87.0297 43.8839 86.6054 42.8596C86.1812 41.8354 85.0069 41.349 83.9827 41.7733C82.9585 42.1975 82.4721 43.3717 82.8963 44.396C83.3206 45.4202 84.4948 45.9066 85.5191 45.4823Z" fill="white" stroke="#1E4D4C" stroke-miterlimit="10"/>
<path d="M91.3706 45.6343C92.4792 45.6343 93.378 44.7356 93.378 43.627C93.378 42.5183 92.4792 41.6196 91.3706 41.6196C90.262 41.6196 89.3633 42.5183 89.3633 43.627C89.3633 44.7356 90.262 45.6343 91.3706 45.6343Z" fill="white" stroke="#1E4D4C" stroke-miterlimit="10"/>
<path d="M18.3998 17.6402C18.6841 16.9539 18.3582 16.1671 17.6719 15.8828C16.9855 15.5985 16.1987 15.9244 15.9144 16.6107C15.6301 17.2971 15.956 18.0839 16.6424 18.3682C17.3287 18.6525 18.1155 18.3266 18.3998 17.6402Z" fill="white" stroke="#1E4D4C" stroke-miterlimit="10"/>
<path d="M50.4689 38.8599C50 38.7182 49.6083 38.3523 49.4485 37.8498C49.1934 37.0407 49.6444 36.1775 50.4535 35.9224C51.242 35.675 52.0846 36.095 52.3603 36.868" fill="white"/>
<path d="M50.4689 38.8599C50 38.7182 49.6083 38.3523 49.4485 37.8498C49.1934 37.0407 49.6444 36.1775 50.4535 35.9224C51.242 35.675 52.0846 36.095 52.3603 36.868" stroke="#1E4D4C" stroke-miterlimit="10"/>
<path d="M53.3342 42.4082C54.8997 42.3434 56.1163 41.0217 56.0515 39.4562C55.9867 37.8907 54.6651 36.6741 53.0995 36.7389C51.534 36.8037 50.3174 38.1253 50.3822 39.6908C50.447 41.2564 51.7686 42.473 53.3342 42.4082Z" fill="white" stroke="#1E4D4C" stroke-miterlimit="10"/>
<path d="M70.2246 44.6529C71.2488 44.2286 71.7352 43.0544 71.311 42.0302C70.8867 41.0059 69.7125 40.5196 68.6883 40.9438C67.664 41.3681 67.1777 42.5423 67.6019 43.5665C68.0262 44.5907 69.2004 45.0771 70.2246 44.6529Z" fill="white" stroke="#1E4D4C" stroke-miterlimit="10"/>
</svg>
