<svg width="182" height="182" viewBox="0 0 182 182" fill="none" xmlns="http://www.w3.org/2000/svg">
<circle cx="91" cy="91" r="91" fill="#FCB716"/>
<path d="M105.185 86.5021C103.877 87.4814 102.197 87.9251 100.047 87.8607C98.6439 87.8174 97.2314 87.5791 95.8466 87.1511C92.676 86.1709 89.3245 86.1709 86.1538 87.1511C84.7691 87.5791 83.3559 87.8174 81.9535 87.8607C81.8157 87.8646 81.6794 87.8669 81.5452 87.8669C79.5901 87.8669 78.0398 87.4186 76.8155 86.5021C74.576 84.8249 73.4618 81.2897 74.2246 78.2776C74.9064 75.5857 76.7433 73.7496 78.5197 71.9741C78.7596 71.7341 79.0083 71.4864 79.2461 71.2433C81.048 69.4009 82.6938 67.3241 84.1377 65.072C84.3207 64.7871 84.5044 64.4922 84.6824 64.2067C85.3657 63.1116 86.0723 61.9797 86.9401 61.0199L86.9729 60.9837C88.0353 59.821 89.4653 59.1807 91.0003 59.1807C91.7682 59.1807 92.5091 59.3403 93.1916 59.6464C93.8735 59.9516 94.497 60.4024 95.0278 60.9837L95.0606 61.02C95.9284 61.9797 96.635 63.1117 97.3183 64.2075C97.4962 64.4923 97.68 64.7872 97.863 65.072C99.3068 67.3251 100.953 69.401 102.755 71.2434C102.992 71.4864 103.241 71.7342 103.481 71.9741C105.257 73.7497 107.094 75.5857 107.776 78.2777C108.539 81.2896 107.424 84.8248 105.185 86.5021Z" fill="white"/>
<path d="M113.816 62.7589C112.85 64.8867 111.52 66.3555 109.97 67.0037C109.355 67.2618 108.717 67.3899 108.068 67.3899C107.194 67.3899 106.301 67.1563 105.423 66.6921C103.912 65.8944 103.018 64.6996 102.765 63.1404C102.516 61.5986 102.889 59.7616 103.905 57.5244C104.933 55.2581 106.207 53.4912 107.589 52.4151C109.16 51.1918 110.761 50.9519 112.217 51.7205C113.676 52.4914 114.635 54.0914 114.917 56.2264C115.187 58.2781 114.796 60.5987 113.816 62.7589Z" fill="white"/>
<path d="M104.29 50.4494C104.068 53.0163 103.241 55.0608 101.899 56.3627C100.81 57.42 99.4276 57.9675 97.8707 57.9675C97.6417 57.9675 97.4099 57.9558 97.1743 57.9321C95.3593 57.7497 94.0285 56.9103 93.219 55.4369C92.4162 53.9745 92.1398 51.9512 92.3731 49.2498C92.4912 47.8803 92.7173 46.613 93.0411 45.4786C93.3648 44.3442 93.7871 43.3436 94.2983 42.509C95.4548 40.6186 96.9891 39.7132 98.7349 39.8886C100.487 40.0648 102.029 41.2904 103.075 43.3397C104.084 45.3156 104.515 47.8408 104.29 50.4494Z" fill="white"/>
<path d="M78.0963 57.5252C79.1114 59.7617 79.4841 61.5986 79.2346 63.1404C78.9823 64.6996 78.0883 65.8944 76.5773 66.6921C75.6994 67.1563 74.8061 67.3899 73.9325 67.3899C73.2835 67.3899 72.6454 67.2617 72.0299 67.0037C70.4804 66.3555 69.1502 64.8868 68.184 62.7589C67.204 60.5987 66.8131 58.278 67.0836 56.2264C67.3651 54.0914 68.324 52.4913 69.7832 51.7205C71.2394 50.9519 72.8401 51.1918 74.4108 52.4151C75.7934 53.4913 77.0674 55.2581 78.0963 57.5252Z" fill="white"/>
<path d="M89.627 49.2499C89.6803 49.8659 89.7072 50.4464 89.7072 50.9939C89.7072 52.8449 89.4009 54.3081 88.7811 55.437C87.9717 56.9104 86.6409 57.7497 84.8258 57.9322C84.5903 57.9558 84.3584 57.9676 84.1294 57.9676C82.5725 57.9676 81.1906 57.4201 80.1012 56.3628C78.7587 55.0609 77.9325 53.0164 77.71 50.4495C77.4847 47.8409 77.9157 45.3157 78.9249 43.3397C79.9714 41.2905 81.5129 40.0648 83.2652 39.8886C85.011 39.7132 86.5452 40.6186 87.7019 42.509C88.7243 44.1791 89.39 46.5108 89.627 49.2499Z" fill="white"/>
<path d="M54.887 113.643V105.211H50.807L50.756 106.945C50.722 107.681 50.671 108.378 50.603 109.036C50.5464 109.693 50.4557 110.294 50.331 110.838C50.2064 111.37 50.042 111.824 49.838 112.198C49.6454 112.572 49.4017 112.838 49.107 112.997L46.166 112.623C46.574 112.634 46.9084 112.492 47.169 112.198C47.441 111.903 47.6564 111.489 47.815 110.957C47.9737 110.413 48.087 109.778 48.155 109.053C48.2344 108.327 48.291 107.54 48.325 106.69L48.461 102.967H57.607V113.643H54.887ZM45.775 117.332L45.792 112.623H59.273V117.332H56.723V114.867H48.325V117.332H45.775ZM66.8219 115.071C65.8813 115.071 65.0086 114.918 64.2039 114.612C63.4106 114.306 62.7193 113.875 62.1299 113.32C61.5519 112.764 61.0986 112.113 60.7699 111.365C60.4526 110.617 60.2939 109.801 60.2939 108.917C60.2939 108.033 60.4526 107.217 60.7699 106.469C61.0986 105.721 61.5576 105.069 62.1469 104.514C62.7363 103.958 63.4276 103.528 64.2209 103.222C65.0143 102.916 65.8756 102.763 66.8049 102.763C67.7456 102.763 68.6069 102.916 69.3889 103.222C70.1823 103.528 70.8679 103.958 71.4459 104.514C72.0353 105.069 72.4943 105.721 72.8229 106.469C73.1516 107.205 73.3159 108.021 73.3159 108.917C73.3159 109.801 73.1516 110.622 72.8229 111.382C72.4943 112.13 72.0353 112.781 71.4459 113.337C70.8679 113.881 70.1823 114.306 69.3889 114.612C68.6069 114.918 67.7513 115.071 66.8219 115.071ZM66.8049 112.725C67.3376 112.725 67.8249 112.634 68.2669 112.453C68.7203 112.271 69.1169 112.011 69.4569 111.671C69.7969 111.331 70.0576 110.928 70.2389 110.464C70.4316 109.999 70.5279 109.483 70.5279 108.917C70.5279 108.35 70.4316 107.834 70.2389 107.37C70.0576 106.905 69.7969 106.503 69.4569 106.163C69.1283 105.823 68.7373 105.562 68.2839 105.381C67.8306 105.199 67.3376 105.109 66.8049 105.109C66.2723 105.109 65.7793 105.199 65.3259 105.381C64.8839 105.562 64.4929 105.823 64.1529 106.163C63.8129 106.503 63.5466 106.905 63.3539 107.37C63.1726 107.834 63.0819 108.35 63.0819 108.917C63.0819 109.472 63.1726 109.988 63.3539 110.464C63.5466 110.928 63.8073 111.331 64.1359 111.671C64.4759 112.011 64.8726 112.271 65.3259 112.453C65.7793 112.634 66.2723 112.725 66.8049 112.725ZM80.2519 114.867V102.967H82.5299L87.596 111.365H86.3889L91.37 102.967H93.648L93.665 114.867H91.0809L91.064 106.928H91.5569L87.5619 113.609H86.3379L82.2579 106.928H82.8359V114.867H80.2519ZM95.2781 114.867L100.582 102.967H103.302L108.623 114.867H105.733L101.381 104.361H102.469L98.1001 114.867H95.2781ZM97.9301 112.317L98.6611 110.226H104.781L105.529 112.317H97.9301ZM110.201 114.867V102.967H121.047V114.867H118.31V104.582L118.939 105.211H112.309L112.938 104.582V114.867H110.201ZM123.997 114.867V102.967H126.734V110.719L132.412 102.967H134.996V114.867H132.276V107.132L126.598 114.867H123.997ZM38.5931 137.054C38.3891 137.054 38.1738 137.037 37.9471 137.003C37.7318 136.969 37.4938 136.923 37.2331 136.867L37.4031 134.538C37.5618 134.583 37.7261 134.606 37.8961 134.606C38.3608 134.606 38.7235 134.419 38.9841 134.045C39.2448 133.659 39.4318 133.11 39.5451 132.396C39.6585 131.682 39.7321 130.815 39.7661 129.795L39.9361 124.967H49.0821V136.867H46.3621V126.582L46.9911 127.211H41.7381L42.2991 126.548L42.1971 129.693C42.1631 130.86 42.0838 131.897 41.9591 132.804C41.8345 133.71 41.6418 134.481 41.3811 135.116C41.1205 135.75 40.7635 136.232 40.3101 136.561C39.8568 136.889 39.2845 137.054 38.5931 137.054ZM50.7112 136.867L56.0152 124.967H58.7352L64.0562 136.867H61.1662L56.8142 126.361H57.9022L53.5332 136.867H50.7112ZM53.3632 134.317L54.0942 132.226H60.2142L60.9622 134.317H53.3632ZM65.6343 136.867V124.967H75.2393V127.16H68.3713V129.608H71.6693C73.1086 129.608 74.2023 129.908 74.9503 130.509C75.7096 131.109 76.0893 131.982 76.0893 133.127C76.0893 134.305 75.6699 135.223 74.8313 135.881C73.9926 136.538 72.8083 136.867 71.2783 136.867H65.6343ZM68.3713 134.827H71.1253C71.8279 134.827 72.3663 134.691 72.7403 134.419C73.1143 134.135 73.3013 133.727 73.3013 133.195C73.3013 132.152 72.5759 131.631 71.1253 131.631H68.3713V134.827ZM78.1851 136.867V124.967H80.9221V136.867H78.1851ZM83.8794 136.867V124.967H89.0304C90.0957 124.967 91.0137 125.142 91.7844 125.494C92.5551 125.834 93.1501 126.327 93.5694 126.973C93.9887 127.619 94.1984 128.389 94.1984 129.285C94.1984 130.169 93.9887 130.934 93.5694 131.58C93.1501 132.226 92.5551 132.724 91.7844 133.076C91.0137 133.416 90.0957 133.586 89.0304 133.586H85.4094L86.6334 132.345V136.867H83.8794ZM86.6334 132.651L85.4094 131.342H88.8774C89.7274 131.342 90.3621 131.16 90.7814 130.798C91.2007 130.435 91.4104 129.931 91.4104 129.285C91.4104 128.627 91.2007 128.117 90.7814 127.755C90.3621 127.392 89.7274 127.211 88.8774 127.211H85.4094L86.6334 125.902V132.651ZM96.0151 136.867V124.967H98.7521V132.719L104.43 124.967H107.014V136.867H104.294V129.132L98.6161 136.867H96.0151ZM118.137 124.967H120.891V136.867H118.137V124.967ZM112.731 136.867H109.977V124.967H112.731V136.867ZM118.341 131.988H112.527V129.659H118.341V131.988ZM126.44 136.867V126.582L127.069 127.211H122.649V124.967H132.968V127.211H128.548L129.16 126.582V136.867H126.44ZM134.59 134.623C135.247 134.815 135.797 134.872 136.239 134.793C136.692 134.702 137.095 134.385 137.446 133.841L138.024 132.974L138.279 132.685L142.223 124.967H144.926L139.86 134.385C139.407 135.235 138.868 135.886 138.245 136.34C137.633 136.793 136.959 137.048 136.222 137.105C135.485 137.173 134.72 137.042 133.927 136.714L134.59 134.623ZM138.228 134.98L132.856 124.967H135.797L139.741 132.957L138.228 134.98Z" fill="white"/>
</svg>
