<svg width="247" height="301" viewBox="0 0 247 301" fill="none" xmlns="http://www.w3.org/2000/svg">
<path d="M141.46 206.335C141.46 206.335 143.907 208.611 147.881 211.085C149.223 211.927 150.749 212.782 152.407 213.584C160.209 217.045 167.945 218.518 175.682 215.795C177.155 215.269 178.642 214.598 180.116 213.756C182.208 212.361 183.721 210.716 184.826 208.901C186.826 205.624 187.51 201.756 187.839 197.691C188.063 194.73 188.115 191.665 188.365 188.639C188.641 185.034 189.194 181.481 190.641 178.231C192.102 175.324 195.167 172.811 198.496 172.271C198.93 172.192 199.364 172.153 199.812 172.153C202.114 172.153 204.456 173.14 206.43 175.6C207.167 176.547 207.864 177.587 208.548 178.692C210.324 181.573 211.943 184.928 213.627 188.323C214.535 190.165 215.456 192.02 216.416 193.809H216.429C221.574 203.282 228.047 211.111 240.638 207.177C247.217 204.546 249.848 195.336 241.954 191.389C234.283 188.836 229.099 183.797 224.731 177.929C223.679 176.508 222.666 175.034 221.679 173.521C220.982 172.469 220.297 171.39 219.613 170.311C218.113 167.929 216.627 165.535 215.074 163.206C213.982 161.588 212.877 160.009 211.693 158.496C210.574 157.088 209.324 155.864 207.982 154.864C206.39 153.654 204.654 152.773 202.838 152.259C199.036 151.18 194.838 151.746 190.641 154.549C185.971 157.943 183.497 162.298 181.931 167.087C181.366 168.811 180.918 170.587 180.524 172.39C179.734 176.074 179.182 179.889 178.366 183.613C177.826 186.113 177.155 188.586 176.208 190.954C175.234 193.428 173.971 195.783 172.221 197.967C166.959 203.23 160.38 204.546 153.828 201.217C152.328 200.677 150.907 200.046 149.657 199.388C146.078 197.546 143.697 195.586 143.697 195.586L142.684 200.427L142.25 202.533L141.46 206.335Z" fill="#191A1A"/>
<path d="M116.817 204.756C116.817 204.756 100.686 233.201 97.3313 249.319C93.9762 265.436 93.7526 280.672 93.7526 280.672L70.6882 278.212C70.6882 278.212 77.4115 222.228 90.8449 206.545L116.817 204.756Z" fill="#204E4D"/>
<path d="M191.839 232.754C191.839 232.754 175.261 241.714 162.499 235.662C149.736 229.609 145.921 201.624 145.921 201.624C145.921 201.624 138.303 198.717 137.408 198.717C136.513 198.717 121.054 203.637 121.054 203.637C121.054 203.637 136.277 254.924 155.986 258.055C175.695 261.186 194.51 252.911 194.51 252.911L191.826 232.754H191.839Z" fill="#204E4D"/>
<path d="M120.514 41.8318C120.514 41.8318 151.091 0.294922 159.143 0.294922C159.143 0.294922 162.906 0.479121 163.919 5.8472C163.919 5.8472 157.854 5.83405 154.999 10.5311C152.144 15.2282 131.816 46.0815 131.816 46.0815L120.501 41.8318H120.514Z" fill="#191A1A"/>
<path d="M134.187 43.6097C133.926 44.1107 133.722 44.5086 133.579 44.7873C139.776 47.6537 146.712 54.2575 152.111 60.1488C154.891 63.1823 157.281 66.0463 158.976 68.1518C159.812 69.1903 160.48 70.0447 160.942 70.6445C161.005 70.1761 161.085 69.5766 161.18 68.861C161.427 66.9747 161.771 64.2818 162.155 61.0565C162.921 54.6051 163.845 46.0268 164.475 37.5137C165.105 28.9946 165.44 20.5631 165.033 14.396C164.829 11.3043 164.442 8.82696 163.835 7.19884C163.53 6.38277 163.189 5.82989 162.831 5.51174C162.497 5.21425 162.143 5.11407 161.721 5.20438C160.67 5.42929 159.418 6.1809 158.009 7.40321C156.612 8.61661 155.106 10.2533 153.549 12.1781C150.436 16.0268 147.153 20.9816 144.155 25.8877C141.159 30.791 138.455 35.6333 136.5 39.2506C135.522 41.0589 134.732 42.5605 134.187 43.6097Z" fill="white" stroke="#ECECEC"/>
<path d="M137.737 35.7007C137.737 35.7007 146.828 29.7405 149.696 32.7667C152.552 35.7928 150.71 40.3188 150.71 40.3188C150.71 40.3188 157.591 38.8058 156.762 44.687C155.92 50.5682 145.618 54.4232 145.618 54.4232L131.842 46.1342L137.75 35.6875L137.737 35.7007Z" fill="#499390"/>
<path d="M42.5848 94.8547C42.9269 101.17 44.2294 107.407 46.5056 113.169C56.3208 137.905 74.8723 137.826 100.805 137.352C126.737 136.865 157.696 132.115 163.748 101.196C163.906 100.367 164.051 99.5386 164.169 98.7228H164.182C168.524 69.4221 146.118 54.5677 146.118 54.5677C139.329 48.3313 129.987 43.8316 119.501 41.3449C116.843 40.7133 114.107 40.2134 111.33 39.8581C108.949 39.5424 106.528 39.3187 104.081 39.2134C100.897 39.0687 97.6734 39.095 94.4499 39.3055C92.5816 39.4239 90.7265 39.6081 88.8714 39.845H88.753C87.082 40.0686 85.4242 40.3449 83.7664 40.6607H83.7138H83.7006C78.5825 41.6475 73.5302 43.1079 68.6752 45.0683C50.6106 52.3837 41.4401 74.0007 42.5848 94.8415V94.8547Z" fill="#191A1A"/>
<path d="M43.1204 95.4397C47.132 96.0226 53.4735 96.7603 60.0254 96.7729C66.8988 96.7861 74.0913 96.0028 79.0559 93.3354C79.056 93.3354 79.0561 93.3353 79.0562 93.3352L78.8195 92.8948C81.8737 91.2569 84.3861 89.7484 86.6137 88.4109C93.5122 84.269 97.6784 81.7675 106.739 82.1455L43.1204 95.4397ZM43.1204 95.4397C43.5088 101.496 44.7891 107.463 46.9708 112.986C51.8295 125.23 58.8166 131.278 67.7684 134.24C76.7774 137.221 87.8046 137.09 100.796 136.853C113.749 136.609 127.889 135.301 139.532 130.228C151.146 125.169 160.268 116.373 163.257 101.102C163.364 100.541 163.465 99.9822 163.555 99.4281C160.265 100.353 152.218 101.946 142.568 99.0843C137.086 97.4644 131.804 94.2245 126.66 91.0692C125.859 90.5782 125.062 90.0894 124.268 89.609C118.327 86.0141 112.566 82.8955 106.718 82.645" fill="white" stroke="#ECECEC"/>
<path d="M104.502 87.9739C104.502 87.9739 103.608 90.7763 104.621 93.684" stroke="#010101" stroke-width="1.5" stroke-linecap="round" stroke-linejoin="round"/>
<path d="M84.3452 40.3316C84.3452 40.3316 53.6103 6.39952 42.5189 8.08363C42.5189 8.08363 39.0981 9.2546 38.7692 12.0571C38.7692 12.0571 39.6639 8.35992 45.2688 13.1754C50.8737 17.9909 72.3855 43.8577 72.3855 43.8577L84.3584 40.3316H84.3452Z" fill="#191A1A"/>
<path d="M71.5508 43.5596C71.3707 43.2873 71.1184 42.9081 70.8016 42.4375C70.1117 41.4126 69.116 39.9542 67.8938 38.2217C65.4487 34.7557 62.1 30.1973 58.4813 25.8194C54.858 21.4359 50.9831 17.2572 47.4857 14.5334C45.7351 13.17 44.1079 12.1941 42.6765 11.7278C41.2504 11.2631 40.082 11.3217 39.1612 11.9235C38.2404 12.5254 37.5965 13.7517 37.2484 15.5969C36.9032 17.4271 36.8681 19.7681 37.0739 22.4567C37.485 27.8299 38.8483 34.4833 40.4908 40.9826C42.132 47.4768 44.0463 53.7955 45.551 58.4922C46.3031 60.8401 46.9526 62.7816 47.4139 64.1358C47.5242 64.4597 47.6238 64.75 47.7114 65.0042C50.7042 58.1336 56.5655 52.8224 61.7558 49.19C64.5119 47.2611 67.0943 45.7949 68.988 44.8107C69.9352 44.3184 70.7109 43.9462 71.251 43.6967C71.3608 43.6459 71.4609 43.6002 71.5508 43.5596Z" fill="white" stroke="#ECECEC"/>
<path d="M70.5698 44.5813C70.5698 44.5813 60.3205 31.2532 55.9523 34.1082C51.5842 36.9633 56.6233 41.1604 56.6233 41.1604C56.6233 41.1604 50.7421 36.2923 48.9001 42.0025C47.0581 47.7126 56.0971 54.4096 56.0971 54.4096C56.0971 54.4096 64.9386 47.239 70.5698 44.5813Z" fill="#499390"/>
<path d="M115.817 96.4867C115.817 96.4867 119.317 99.5129 116.712 101.868C114.107 104.223 108.962 100.894 103.831 100.973C98.6997 101.052 92.4896 102.407 91.9896 98.8682C91.4896 95.3421 99.2128 92.8159 104.081 92.9869C108.949 93.158 114.383 95.3947 115.804 96.4867H115.817Z" fill="#010101"/>
<path d="M105.002 88.6972C105.002 88.6972 117.238 88.513 115.251 81.9213C113.264 75.3296 106.488 79.4609 103.331 79.2899C100.173 79.1188 96.7654 77.3031 93.3051 80.1319C89.8448 82.9607 95.3181 88.9735 105.002 88.6972Z" fill="#204E4D"/>
<path d="M76.3192 87.9736C70.1936 87.9736 65.2278 83.0078 65.2278 76.8822C65.2278 70.7566 70.1936 65.7908 76.3192 65.7908C82.4448 65.7908 87.4106 70.7566 87.4106 76.8822C87.4106 83.0078 82.4448 87.9736 76.3192 87.9736Z" fill="#ECECEC"/>
<path d="M73.0835 84.5C68.4039 84.5 64.6103 80.7065 64.6103 76.0269C64.6103 71.3473 68.4039 67.5537 73.0835 67.5537C77.7631 67.5537 81.5566 71.3473 81.5566 76.0269C81.5566 80.7065 77.7631 84.5 73.0835 84.5Z" fill="#010101"/>
<path d="M75.7708 73.2277C74.117 72.9867 72.97 71.4623 73.2088 69.8229C73.4477 68.1834 74.982 67.0498 76.6358 67.2907C78.2897 67.5317 79.4367 69.0561 79.1978 70.6955C78.959 72.335 77.4246 73.4686 75.7708 73.2277Z" fill="#ECECEC"/>
<path d="M130.289 85.9604C124.164 85.9604 119.198 80.9946 119.198 74.869C119.198 68.7434 124.164 63.7776 130.289 63.7776C136.415 63.7776 141.381 68.7434 141.381 74.869C141.381 80.9946 136.415 85.9604 130.289 85.9604Z" fill="#ECECEC"/>
<path d="M127.145 82.5528C122.473 82.5528 118.685 78.7651 118.685 74.0928C118.685 69.4205 122.473 65.6328 127.145 65.6328C131.817 65.6328 135.605 69.4205 135.605 74.0928C135.605 78.7651 131.817 82.5528 127.145 82.5528Z" fill="#010101"/>
<path d="M129.743 71.215C128.089 70.974 126.942 69.4496 127.181 67.8102C127.42 66.1708 128.954 65.0371 130.608 65.278C132.262 65.519 133.409 67.0434 133.17 68.6828C132.931 70.3223 131.397 71.4559 129.743 71.215Z" fill="#ECECEC"/>
<path d="M177.734 90.7766L159.38 90.6582" stroke="#010101" stroke-width="1.28" stroke-linecap="round" stroke-linejoin="round"/>
<path d="M176.051 98.9464L158.631 97.0386" stroke="#010101" stroke-width="1.28" stroke-linecap="round" stroke-linejoin="round"/>
<path d="M171.471 107.682C171.353 107.117 157.248 102.459 157.248 102.459" stroke="#010101" stroke-width="1.28" stroke-linecap="round" stroke-linejoin="round"/>
<path d="M53.5049 89.8813L36.9796 89.6445" stroke="#010101" stroke-width="1.28" stroke-linecap="round" stroke-linejoin="round"/>
<path d="M54.1758 97.6575L36.3085 98.2759" stroke="#010101" stroke-width="1.28" stroke-linecap="round" stroke-linejoin="round"/>
<path d="M53.1104 103.314C53.1104 103.314 37.6639 104.998 36.8219 105.327" stroke="#010101" stroke-width="1.28" stroke-linecap="round" stroke-linejoin="round"/>
<path d="M115.146 54.3575C118.87 54.2128 119.423 44.7265 119.501 41.3451C116.844 40.7136 114.107 40.2136 111.331 39.8584C111.278 44.0423 111.515 54.4891 115.146 54.3575Z" fill="#ECECEC"/>
<path d="M94.4494 39.3055C95.0151 43.2263 97.3966 57.3965 102.462 56.9623C107.409 56.5413 104.975 43.3579 104.08 39.2134C100.896 39.0687 97.6729 39.095 94.4494 39.3055Z" fill="#ECECEC"/>
<path d="M83.7142 40.6741L81.8064 41.3451C81.8064 41.3451 87.5955 53.7654 91.1216 53.6075C94.1214 53.4628 90.1217 42.9503 88.8718 39.8452L83.7142 40.6741Z" fill="#ECECEC"/>
<path d="M116.659 61.1858L115.896 64.8829" stroke="#ECECEC" stroke-width="2" stroke-miterlimit="10" stroke-linecap="round"/>
<path d="M109.936 61.9351L108.922 65.8559" stroke="#ECECEC" stroke-width="2" stroke-miterlimit="10" stroke-linecap="round"/>
<path d="M101.37 63.7905L100.949 67.6455" stroke="#ECECEC" stroke-width="2" stroke-miterlimit="10" stroke-linecap="round"/>
<path d="M105.738 70.6721L105.817 73.2772" stroke="#ECECEC" stroke-width="2" stroke-miterlimit="10" stroke-linecap="round"/>
<path d="M98.4231 71.2644L99.0151 74.1984" stroke="#ECECEC" stroke-width="2" stroke-miterlimit="10" stroke-linecap="round"/>
<path d="M92.8845 61.1855L93.7266 64.8827" stroke="#ECECEC" stroke-width="2" stroke-miterlimit="10" stroke-linecap="round"/>
<path d="M89.7793 67.0537L91.7134 70.9219" stroke="#ECECEC" stroke-width="2" stroke-miterlimit="10" stroke-linecap="round"/>
<path d="M115.028 69.7251L114.028 73.0275" stroke="#ECECEC" stroke-width="2" stroke-miterlimit="10" stroke-linecap="round"/>
<path d="M28.4679 137.576C28.4679 137.576 36.4148 153.93 46.0458 150.785C55.6768 147.641 63.3473 139.576 63.3473 139.576C63.3473 139.576 71.0179 142.496 81.0962 144.062C91.1745 145.628 95.99 146.746 96.8847 154.364C97.7794 161.982 101.358 183.481 92.8586 197.138C84.346 210.795 71.5837 208.558 68.005 200.045C64.4262 191.533 68.2286 166.232 68.2286 166.232C68.2286 166.232 51.427 182.139 36.6516 177.652C21.8763 173.179 13.5873 150.549 13.5873 150.549C13.5873 150.549 26.6917 141.589 28.4811 137.562L28.4679 137.576Z" fill="#8BCFDA"/>
<path d="M115.922 156.166C115.922 156.166 116.37 197.822 133.395 201.848C150.42 205.874 154.894 194.006 153.775 187.967C152.657 181.928 148.394 152.811 148.394 152.811L145.486 137.141C145.486 137.141 123.764 141.615 115.922 156.179V156.166Z" fill="#8BCFDA"/>
<path d="M126.987 171.771C127.869 175.231 129.856 179.139 130.211 179.81C130.25 179.876 130.263 179.915 130.263 179.915C134.684 182.178 143.697 183.533 152.88 182.546C162.788 181.494 172.906 177.731 177.682 169.455C177.971 168.968 178.234 168.468 178.484 167.942C178.997 166.85 179.418 165.692 179.747 164.455C183.905 148.851 166.038 138.431 156.512 134.063C153.183 132.536 150.867 131.76 150.867 131.76C150.867 131.76 139.723 131.55 138.816 139.089V139.128C138.789 139.352 138.776 139.589 138.763 139.825C138.658 143.549 143.131 147.68 148.078 151.088C154.144 155.285 160.946 158.416 160.946 158.416C157.314 158.166 153.288 158.482 149.328 159.114C138.855 160.811 128.75 164.811 127.119 166.916C126.356 167.916 126.487 169.771 126.987 171.771Z" fill="#8BCFDA"/>
<path d="M130.711 200.73C130.711 200.73 102.265 210.361 85.477 204.756C85.477 204.756 97.792 197.585 97.792 174.074C97.792 150.562 93.7659 136.892 93.7659 136.892L117.949 135.997C117.949 135.997 108.765 180.113 130.711 200.717V200.73Z" fill="#FAB61D"/>
<path d="M191.681 231.635C191.681 231.635 204.614 227.096 209.482 227.096C214.35 227.096 219.218 270.593 215.363 275.303C211.495 280.001 199.917 273.119 199.404 266.738C198.904 260.357 200.246 253.857 194.536 252.91L191.681 231.635Z" fill="#010101"/>
<path d="M92.9099 280.172C92.9099 280.172 94.0809 297.644 91.7389 299.315C89.3838 300.999 76.1215 298.815 68.3983 299.315C60.6751 299.815 41.0184 301.157 39.8474 297.973C38.6764 294.789 41.6894 285.882 52.4388 285.211C63.1881 284.54 70.7402 285.211 70.7402 285.211L71.5823 278.33L92.9099 280.172Z" fill="#010101"/>
<path d="M126.171 167.469C126.171 167.469 118.948 163.443 113.408 165.364C107.869 167.285 105.291 172.087 105.264 175.613C105.238 179.218 107.448 180.902 107.448 180.902C107.448 180.902 110.053 185.77 113.08 186.441C116.106 187.112 118.619 187.112 118.619 184.257C118.619 181.402 130.263 179.889 130.263 179.889C130.263 179.889 125.5 169.482 126.171 167.456V167.469Z" fill="#191A1A"/>
<path d="M28.8093 137.576C29.0724 136.879 24.1122 128.169 20.2967 127.84C16.4811 127.511 16.1522 128.511 16.1522 128.511C16.1522 128.511 11.784 123.919 8.08691 125.261C4.38977 126.603 4.06082 130.182 1.81096 132.656C-0.425735 135.116 -0.64938 141.05 1.46891 144.747C3.60035 148.444 13.5603 150.576 13.5603 150.576C13.5603 150.576 27.6646 140.497 28.7829 137.59L28.8093 137.576Z" fill="#191A1A"/>
<path d="M154.42 120.472C154.42 120.472 167.88 123.695 164.972 130.629C162.065 137.563 125.554 135.326 115.923 156.154C115.923 156.154 109.871 141.339 117.936 135.747C117.936 135.747 134.448 136.273 154.407 120.458L154.42 120.472Z" fill="#204E4D"/>
<path d="M95.7656 155.943C95.7656 155.943 94.4236 147.431 83.2269 144.97C72.0303 142.51 55.8997 141.839 53.663 125.708C53.663 125.708 64.8597 138.471 93.7526 136.905C93.7526 136.905 98.897 142.05 95.7656 155.943Z" fill="#204E4D"/>
</svg>
