<svg width="237" height="303" viewBox="0 0 237 303" fill="none" xmlns="http://www.w3.org/2000/svg">
<path d="M17.1602 286.955L23.1044 278.318L13.2635 281.808L17.9686 276.502C18.3703 276.206 18.7769 275.905 19.1787 275.609C19.2223 275.575 19.261 275.541 19.2997 275.512C19.6918 275.206 20.0742 274.89 20.4566 274.579C22.2186 273.123 23.8741 271.555 25.4327 269.885C25.7909 269.501 26.1249 269.108 26.4686 268.715C24.8906 270.54 26.2024 269.088 26.5122 268.676C26.9478 268.093 27.3738 267.506 27.7949 266.913V266.85C28.0321 266.515 28.2742 266.176 28.5065 265.836C29.9538 263.763 31.3237 261.641 32.6646 259.5C35.1768 255.485 37.7424 251.451 39.9013 247.236C40.1723 246.702 40.4337 246.173 40.6999 245.649C40.9565 245.139 41.8278 243.955 42.157 243.522C42.6168 242.867 43.0525 242.197 43.493 241.527C44.7902 239.522 46.0246 237.488 47.4671 235.575C47.9124 234.997 48.3578 234.42 48.8031 233.837C48.0141 234.818 47.8592 234.895 48.3335 234.075C48.5998 233.541 48.866 233.012 49.1274 232.473C49.2194 232.293 49.3065 232.118 49.3936 231.939C48.7014 233.638 48.8515 233.298 49.8438 230.909C50.0568 230.443 50.2843 230.016 50.5554 229.579C51.3153 228.351 52.3125 227.176 53.3145 226.113C53.3339 226.084 53.3484 226.055 53.3678 226.025C53.7357 225.394 54.0939 224.753 54.4472 224.113C56.5771 220.253 58.431 216.238 60.2704 212.237C60.7545 211.194 61.2386 210.155 61.7275 209.111C61.9695 208.606 62.2115 208.106 62.4584 207.601C61.4758 209.611 62.1341 208.106 62.2648 207.475C62.4971 206.353 62.6375 205.222 62.9134 204.11C63.0102 203.717 63.1264 203.314 63.2619 202.911C63.199 202.901 63.2571 202.552 63.6588 201.926C63.838 201.212 64.0461 200.527 64.2978 199.877C65.2611 195.779 68.6979 192.968 73.1851 192.895C76.9705 192.837 80.4266 195.556 81.4141 199.183C82.1208 201.751 81.569 204.261 80.1653 206.271C80.0442 206.78 79.9378 207.29 79.749 207.781C79.6231 208.082 79.4972 208.383 79.3714 208.684C79.3714 208.674 79.3811 208.669 79.3859 208.659C79.2213 209.203 79.1294 209.776 79.0277 210.344C78.6744 212.271 78.3452 213.946 77.4497 215.748C75.3779 219.937 73.5336 224.234 71.4474 228.414C70.5615 230.191 69.6467 231.953 68.6737 233.691C67.8605 235.143 67.0327 236.561 65.8468 237.755C65.6338 237.968 65.4305 238.182 65.2272 238.401C64.9561 238.973 64.3849 240.1 64.1478 240.576C63.8815 241.11 63.6153 241.644 63.3491 242.178C63.0828 242.712 62.8166 243.246 62.5504 243.78C62.3325 244.061 62.1147 244.348 61.8969 244.625C61.8969 244.634 61.7855 244.785 61.5677 245.086C60.1591 247.018 58.9538 249.091 57.642 251.082C56.732 252.456 55.7348 253.752 54.7183 255.048C56.1705 253.189 55.1491 254.888 54.9216 255.334C54.6602 255.859 54.3891 256.378 54.1277 256.893C53.0192 259.034 51.722 261.054 50.4876 263.117C47.9754 267.292 45.4147 271.438 42.6023 275.414C41.5325 276.929 40.4289 278.386 39.272 279.789V279.847C37.2389 282.304 35.0365 284.585 32.5484 286.668C29.252 289.435 25.7619 292.149 22.025 294.339L27.8143 285.532V285.493L17.1795 286.93L17.1602 286.955Z" fill="#FBB616"/>
<path d="M17.4697 296.655C15.0543 298.451 12.3484 299.5 9.24072 299.757C4.59376 300.15 0.70192 295.567 0.70192 291.198C0.70192 286.828 3.52398 284.022 7.21735 282.998C7.25607 282.973 7.2948 282.954 7.32869 282.92C7.75466 282.571 8.19031 282.236 8.655 281.93C9.00836 281.779 9.35205 281.638 9.70057 281.488C9.75382 281.464 9.92809 281.386 10.2088 281.26C12.421 280.245 14.517 278.968 16.5064 277.565C17.0002 277.22 17.4891 276.866 17.9731 276.507L13.2681 281.813L23.109 278.322L17.1648 286.959L27.8237 285.517L22.0102 294.363C21.2986 294.781 20.5822 295.179 19.8561 295.553C19.0768 295.951 18.2781 296.315 17.4746 296.655H17.4697Z" fill="#F4F5F5"/>
<path d="M163.854 89.3644H74.8356L71.3891 301.757L127.825 302.383C127.825 302.383 121.068 288.057 99.6436 286.809L109.523 213.315L121.005 212.237L153.911 302.383L208.015 303C208.015 303 199.941 289.921 181.929 289.921L164.58 207.086L163.859 89.3644H163.854Z" fill="#FBB616"/>
<path d="M166.328 193.381V203.348L182.476 281.828L143.974 285.561L121 212.237L113.473 213.883L107.955 281.828L70.0725 283.071L71.3166 195.255L166.328 193.381Z" fill="#231F20"/>
<path d="M74.6906 90.3111H164.111C164.111 90.3111 174.673 37.9897 148.902 0L134.932 26.7797H100.772C100.772 26.7797 88.3507 4.98114 69.4143 1.55357C69.4143 1.55357 78.4178 65.085 74.6954 90.3111H74.6906Z" fill="#FBB616"/>
<path d="M129.06 51.0688C129.06 54.5644 134.157 57.3996 140.445 57.3996C146.733 57.3996 151.83 54.5644 151.83 51.0688C151.83 47.5733 146.738 44.7332 140.445 44.7332C134.152 44.7332 129.06 47.5684 129.06 51.0688Z" fill="#F4F5F5"/>
<path d="M88.6894 51.0688C88.6894 54.5644 93.7914 57.3996 100.079 57.3996C106.367 57.3996 111.464 54.5644 111.464 51.0688C111.464 47.5733 106.367 44.7332 100.079 44.7332C93.7914 44.7332 88.6894 47.5684 88.6894 51.0688Z" fill="#F4F5F5"/>
<path d="M123.459 55.6373L115.177 55.4285L111.818 64.6334C111.818 64.6334 117.559 71.3138 126.872 64.7742L123.459 55.6373Z" fill="#F4F5F5"/>
<path d="M106.939 25.3281L115.477 40.3783H117.549L110.821 25.0708L106.939 25.3281Z" fill="#37B34A"/>
<path d="M115.221 25.0708L119.877 34.6689V24.8086L115.221 25.0708Z" fill="#37B34A"/>
<path d="M122.467 24.8086L121.949 40.121H124.277L126.093 24.8086H122.467Z" fill="#37B34A"/>
<path d="M134.636 51.0737C134.636 54.3993 137.323 57.0938 140.639 57.0938C143.954 57.0938 146.641 54.3993 146.641 51.0737C146.641 47.7481 143.954 45.0536 140.639 45.0536C137.323 45.0536 134.636 47.7481 134.636 51.0737Z" fill="#37B34A"/>
<path d="M94.4739 51.0737C94.4739 54.3993 97.1652 57.0938 100.481 57.0938C103.797 57.0938 106.479 54.3993 106.479 51.0737C106.479 47.7481 103.792 45.0536 100.481 45.0536C97.1701 45.0536 94.4739 47.7481 94.4739 51.0737Z" fill="#37B34A"/>
<path d="M140.818 45.0585C140.818 45.0585 146.573 49.7969 140.527 57.1084C140.527 57.1084 134.428 48.5831 140.818 45.0585Z" fill="#231F20"/>
<path d="M100.747 45.0779C100.747 45.0779 105.781 50.1173 100.375 57.0355C100.375 57.0355 94.5125 49.2483 100.747 45.0779Z" fill="#231F20"/>
<path d="M94.2513 27.1972H79.1438L87.0146 25.7456L80.1797 19.3129L88.8782 24.5028L83.9069 14.7444C83.9069 14.7444 92.1892 19.3129 94.2561 27.2021L94.2513 27.1972Z" fill="#37B34A"/>
<path d="M141.863 26.3671H156.767L148.693 24.9154L153.248 19.0993L146.83 22.8375L148.901 13.0792L141.863 26.3671Z" fill="#37B34A"/>
<path d="M119.689 57.6618C120.139 59.4921 121.785 60.8563 123.75 60.8563C124.486 60.8563 125.173 60.667 125.778 60.332L126.049 61.2399C125.357 61.5894 124.582 61.7933 123.75 61.7933C120.966 61.7933 118.696 59.5504 118.638 56.7685L119.689 57.6618Z" fill="#37B34A"/>
<path d="M118.991 57.6618C118.541 59.4921 116.891 60.8563 114.93 60.8563C114.194 60.8563 113.507 60.667 112.907 60.332L112.631 61.2399C113.323 61.5894 114.102 61.7933 114.93 61.7933C117.713 61.7933 119.984 59.5504 120.047 56.7685L118.991 57.6618Z" fill="#37B34A"/>
<path d="M121.799 54.1857L119.524 58.9581L116.213 54.1857C119.732 51.6951 121.799 54.1857 121.799 54.1857Z" fill="#231F20"/>
<path d="M96.8846 38.1014C106.74 38.2276 115.25 42.1309 119.146 42.6164C123.038 43.1068 129.36 38.4703 141.892 37.98C154.42 37.4945 162.45 39.9317 162.45 39.9317C162.813 44.4467 161.84 45.2963 161.84 45.2963C158.801 46.1508 159.043 51.6369 158.68 53.472C158.316 55.2975 157.465 66.2259 143.843 67.0124C131.195 67.7455 128.005 60.9729 125.357 55.1809C123.469 51.0494 122.196 47.2529 122.196 47.2529C122.196 47.2529 121.833 44.5681 119.277 44.5681C116.721 44.5681 116.721 46.6412 116.721 46.6412C114.412 56.0354 110.888 66.7696 95.4373 67.2551C79.9861 67.7455 79.6231 53.7148 79.381 49.9328C79.139 46.1508 76.467 45.0536 76.467 45.0536V40.1744C76.467 40.1744 87.0485 37.98 96.8991 38.1014H96.8846ZM142.013 65.3083C155.267 64.8179 155.635 59.4533 156.361 52.0107C157.092 44.5681 156.361 39.3248 142.376 40.1744C135.929 40.5677 126.441 41.0289 125.831 46.1508C125.226 51.2727 128.755 65.7889 142.013 65.3034V65.3083ZM95.1855 65.551C106.014 65.9152 110.753 59.0843 112.578 49.8114C114.403 40.5385 105.767 40.1744 99.0774 40.053C89.2219 39.8734 82.1692 39.4413 82.1692 49.4473C82.1692 59.4533 84.3572 65.1821 95.1855 65.551Z" fill="#231F20"/>
<path d="M202.966 116.775L218.814 49.3113C220.392 50.5591 220.929 53.2438 221.196 55.0741C221.564 57.589 221.583 60.1329 221.578 62.6672C221.578 62.876 221.728 63.0896 221.936 63.1381C223.524 63.4925 225.063 64.2596 226.486 65.0267C227.067 65.3374 230.388 66.8764 230.238 67.7357C230.127 68.3523 231.066 68.6145 231.172 67.9979C231.395 66.7502 229.715 65.7258 228.636 65.1141C229.163 62.2691 230.669 59.7543 231.651 57.0549C231.98 57.1375 232.392 56.8899 232.256 56.4723C232.164 56.181 232.131 55.8995 232.039 55.6082C231.893 55.1567 231.235 55.1324 231.104 55.6082C230.219 58.6959 228.398 61.4486 227.75 64.6043C226.927 64.1334 226.065 63.6673 225.179 63.2595C225.368 61.5991 225.717 59.9436 226.128 58.3269C226.438 57.0744 226.699 55.5451 227.459 54.4673C227.822 53.9526 226.98 53.4671 226.617 53.9721C225.741 55.2149 225.431 57.0064 225.092 58.458C224.753 59.9145 224.449 61.3807 224.26 62.8614C223.698 62.6332 223.132 62.439 222.561 62.2885C222.561 59.2494 222.556 56.1325 221.83 53.1661C221.38 51.3116 220.595 49.3259 219.051 48.3209L220.179 43.5194C220.179 43.5194 221.026 36.7517 223.926 37.378C226.825 37.9994 224.337 49.8357 224.337 49.8357C224.337 49.8357 224.502 49.7726 224.792 49.6803C224.87 49.7774 224.976 49.8648 225.117 49.9231C225.136 49.9328 225.16 49.9425 225.184 49.9473C225.363 50.1512 225.61 50.3017 225.935 50.3406C226.051 50.3552 226.162 50.3746 226.278 50.394C229.521 51.7097 232.77 53.0156 236.037 54.2634C236.477 55.4674 236.792 56.9287 236.913 58.7105C237.842 72.2557 231.792 146.06 218.746 150.264C205.706 154.469 160.064 125.509 160.064 125.509L158.2 91.4083L202.971 116.775H202.966Z" fill="#FBB616"/>
<path d="M24.4307 171.34C24.0387 171.626 23.9515 172.175 24.2323 172.568L59.4572 221.709C59.738 222.103 60.2947 222.195 60.6868 221.908L131.863 170.577C132.255 170.291 132.342 169.738 132.061 169.344L96.8411 120.208C96.5555 119.814 96.0037 119.722 95.6116 120.004L24.4356 171.335L24.4307 171.34Z" fill="#37B34A"/>
<path d="M74.8357 89.3644L93.0509 118.644L65.7258 142.312L96.7927 193.57C96.9233 194.949 96.9572 196.347 96.6813 197.678C96.6184 197.993 96.5361 198.299 96.4441 198.6C96.4344 198.624 96.4248 198.653 96.4102 198.682L86.1724 206.489C84.6525 206.858 83.1083 206.95 81.5351 206.484L55.1684 168.475C17.9104 129.233 52.0656 108.061 74.8357 89.3644Z" fill="#FBB616"/>
<path d="M74.4192 85.6358C128.445 121.135 164.464 91.2384 164.464 91.2384L201.722 113.658L211.04 83.7618L236.501 95.5981C236.501 95.5981 230.291 146.05 218.741 150.264C207.197 154.479 169.435 131.102 169.435 131.102L175.646 193.386L98.2978 199.906C98.3075 199.833 98.3172 199.765 98.3172 199.687V195.925C98.3172 195.561 98.2543 195.226 98.1478 194.925L132.071 170.072L96.8457 120.217L69.4576 138.579L88.0891 175.326L70.0627 189.706C70.0627 189.706 58.2807 181.559 40.8933 149.167C23.5059 116.78 74.4289 85.6407 74.4289 85.6407L74.4192 85.6358Z" fill="#231F20"/>
<path d="M71.5199 290.547L71.3892 301.757L87.8762 301.961C87.8762 301.961 83.5294 291.377 71.5199 290.547Z" fill="#F4F5F5"/>
<path d="M149.482 290.8L153.907 302.383H172.538C172.538 302.383 160.04 288.1 149.487 290.8H149.482Z" fill="#F4F5F5"/>
<path d="M125.565 101.997L128.363 112.741L164.464 91.2384L125.565 101.997Z" fill="#37B34A"/>
<path d="M118.115 101.531L117.651 113.207L74.4193 85.6358L118.115 101.531Z" fill="#37B34A"/>
<path d="M5.06815 283.668C10.1943 281.201 18.191 276.264 18.191 276.264L17.9732 276.512C17.4891 276.871 17.0002 277.225 16.5065 277.57C14.517 278.973 12.421 280.25 10.2089 281.265C9.92811 281.391 9.75868 281.468 9.70059 281.493C9.35691 281.643 9.00839 281.784 8.65502 281.935C8.19033 282.236 7.75468 282.575 7.32871 282.925C7.28998 282.954 7.25125 282.978 7.21737 283.003C3.524 284.027 0.701941 286.984 0.701941 291.203C0.701941 295.421 4.59378 300.155 9.24074 299.762C12.3484 299.504 15.0591 298.456 17.4697 296.659C18.2733 296.32 19.072 295.956 19.8513 295.557C20.5774 295.184 21.2986 294.785 22.0054 294.368L21.8747 294.567C17.1599 298.674 7.73048 303.825 2.8076 297.446C-2.11528 291.071 -0.0628662 286.139 5.06331 283.673L5.06815 283.668Z" fill="#F4F5F5"/>
</svg>
