<svg width="146" height="100" viewBox="0 0 146 100" fill="none" xmlns="http://www.w3.org/2000/svg">
<path d="M39.7556 5.20105C39.7556 5.20105 80.2363 -2.12574 80.4158 0.612903C80.5925 3.34891 87.2254 55.4649 86.017 57.5492C84.8087 59.6309 51.5386 63.7151 49.7525 63.1664C47.9663 62.6176 39.7556 5.20369 39.7556 5.20369V5.20105Z" fill="#174442"/>
<path d="M44.1907 9.23776C44.1907 9.23776 76.627 3.26974 76.627 4.72349C76.627 6.93181 84.149 50.7686 83.2651 52.436C82.3813 54.1035 54.9342 56.5044 53.6044 56.0506C52.2747 55.5968 44.1907 9.23776 44.1907 9.23776Z" fill="#A2DDC0"/>
<path d="M48.3828 12.8893L50.5463 23.1104L76.0621 19.6779L74.0754 9.00824L48.3828 12.8893Z" fill="#174442"/>
<path d="M48.3828 12.8893L50.6123 23.0972C50.169 22.9864 76.1439 19.5881 76.0436 19.5485L75.9328 19.7016L73.9699 9.0293L74.0912 9.11637L61.2687 11.0134L48.3828 12.8893ZM48.3828 12.8893L61.1895 10.8867L74.0596 8.9053C74.1176 8.89739 74.1704 8.93432 74.1809 8.99237L76.1914 19.6567C76.2046 19.7306 76.1544 19.8018 76.0806 19.8097C76.0041 19.757 50.5014 23.3082 50.4803 23.1262L48.3828 12.8919V12.8893Z" fill="#174442"/>
<path d="M76.4526 22.5337L50.9138 26.1638L51.0259 26.9527L76.5647 23.3225L76.4526 22.5337Z" fill="#174442"/>
<path d="M76.5768 23.3268C70.6431 24.2635 63.3928 25.3241 57.4274 26.0892C55.293 26.3794 53.1664 26.6908 51.0373 27.0153C51.003 27.0206 50.9687 26.9968 50.9634 26.9599L50.8447 26.1736C50.8394 26.1341 50.8658 26.0971 50.9054 26.0919C54.6782 25.5246 59.9445 24.7252 63.6672 24.2133C67.8042 23.6329 72.3211 23.026 76.4528 22.5063C76.4687 22.5063 76.4818 22.5142 76.4818 22.53L76.5768 23.3295V23.3268ZM76.5557 23.311L76.4291 22.5353C74.4872 22.9337 72.1575 23.1949 70.0864 23.5405C63.997 24.4798 57.0633 25.4191 50.9291 26.2343L50.9898 26.1525L51.0953 26.9414L51.0214 26.886C53.148 26.6063 55.2798 26.3108 57.3984 25.9969C63.3295 25.0682 70.5982 24.0656 76.5557 23.311Z" fill="#174442"/>
<path d="M76.967 26.3753L51.4282 30.0054L51.5404 30.7943L77.0791 27.1641L76.967 26.3753Z" fill="#174442"/>
<path d="M77.0937 27.1683C71.1599 28.1049 63.9097 29.1655 57.9443 29.9306C55.8098 30.2209 53.6833 30.5322 51.5541 30.8567C51.5198 30.862 51.4855 30.8382 51.4802 30.8013L51.3615 30.0151C51.3562 29.9755 51.3826 29.9386 51.4222 29.9333C55.1951 29.366 60.4613 28.5666 64.1841 28.0548C68.321 27.4743 72.838 26.8675 76.9697 26.3477C76.9855 26.3477 76.9987 26.3556 76.9987 26.3715L77.0937 27.1709V27.1683ZM77.0726 27.1524L76.9433 26.3767C75.0014 26.7751 72.6717 27.0363 70.6006 27.382C64.5112 28.3212 57.5775 29.2605 51.4433 30.0758L51.504 29.994L51.6095 30.7828L51.5356 30.7274C53.6622 30.4478 55.794 30.1523 57.9126 29.8383C63.8437 28.9096 71.1124 27.907 77.0699 27.1524H77.0726Z" fill="#174442"/>
<path d="M77.4316 30.2187L51.8928 33.8489L52.005 34.6377L77.5437 31.0076L77.4316 30.2187Z" fill="#174442"/>
<path d="M77.5553 31.0097C71.6216 31.9464 64.3713 33.007 58.4059 33.7721C56.2715 34.0624 54.145 34.3737 52.0158 34.6982C51.9815 34.7035 51.9472 34.6797 51.9419 34.6428L51.8232 33.8566C51.8179 33.817 51.8443 33.78 51.8839 33.7748C55.6568 33.2075 60.923 32.4081 64.6457 31.8962C68.7827 31.3158 73.2996 30.709 77.4313 30.1892C77.4472 30.1892 77.4604 30.1971 77.4604 30.213L77.5553 31.0124V31.0097ZM77.5342 30.9939L77.4076 30.2182C75.4657 30.6166 73.136 30.8778 71.0649 31.2235C64.9755 32.1627 58.0418 33.102 51.9076 33.9172L51.9683 33.8355L52.0738 34.6243L52 34.5689C54.1265 34.2893 56.2583 33.9938 58.3769 33.6798C64.308 32.7511 71.5768 31.7485 77.5342 30.9939Z" fill="#174442"/>
<path d="M78.4321 34.058L52.8933 37.6882L53.0054 38.477L78.5442 34.8469L78.4321 34.058Z" fill="#174442"/>
<path d="M78.5553 34.8512C72.6216 35.7878 65.3713 36.8484 59.406 37.6136C57.2715 37.9038 55.145 38.2151 53.0158 38.5396C52.9815 38.5449 52.9472 38.5212 52.9419 38.4842L52.8232 37.698C52.8179 37.6584 52.8443 37.6215 52.8839 37.6162C56.6568 37.0489 61.923 36.2495 65.6457 35.7377C69.7827 35.1572 74.2996 34.5504 78.4313 34.0306C78.4472 34.0306 78.4604 34.0386 78.4604 34.0544L78.5553 34.8538V34.8512ZM78.5342 34.8353L78.4049 34.0597C76.4631 34.4581 74.1334 34.7193 72.0623 35.0649C65.9729 36.0042 59.0392 36.9434 52.905 37.7587L52.9657 37.6769L53.0712 38.4658L52.9973 38.4104C55.1239 38.1307 57.2557 37.8352 59.3743 37.5212C65.3054 36.5925 72.5741 35.5899 78.5316 34.8353H78.5342Z" fill="#174442"/>
<path d="M79.2023 37.9007L53.6636 41.5308L53.7757 42.3197L79.3145 38.6895L79.2023 37.9007Z" fill="#174442"/>
<path d="M79.3259 38.6927C73.3921 39.6293 66.1418 40.6899 60.1765 41.4551C58.042 41.7453 55.9155 42.0566 53.7863 42.3811C53.752 42.3864 53.7177 42.3627 53.7124 42.3257L53.5937 41.5395C53.5884 41.4999 53.6148 41.463 53.6544 41.4577C57.4273 40.8904 62.6935 40.091 66.4162 39.5792C70.5532 38.9987 75.0701 38.3919 79.2018 37.8721C79.2177 37.8721 79.2309 37.88 79.2309 37.8959L79.3259 38.6953V38.6927ZM79.3047 38.6768L79.1755 37.9012C77.2336 38.2995 74.9039 38.5607 72.8328 38.9064C66.7434 39.8456 59.8097 40.7849 53.6755 41.6002L53.7362 41.5184L53.8417 42.3073L53.7678 42.2519C55.8944 41.9722 58.0262 41.6767 60.1448 41.3627C66.0759 40.434 73.3446 39.4314 79.3021 38.6768H79.3047Z" fill="#174442"/>
<path d="M80.7749 41.7411L55.2361 45.3712L55.3482 46.1601L80.887 42.5299L80.7749 41.7411Z" fill="#174442"/>
<path d="M80.8984 42.5342C74.9646 43.4708 67.7144 44.5314 61.749 45.2965C59.6145 45.5868 57.488 45.8981 55.3588 46.2226C55.3245 46.2279 55.2902 46.2042 55.2849 46.1672L55.1662 45.381C55.1609 45.3414 55.1873 45.3045 55.2269 45.2992C58.9998 44.7319 64.266 43.9325 67.9887 43.4207C72.1257 42.8402 76.6426 42.2334 80.7744 41.7136C80.7902 41.7136 80.8034 41.7215 80.8034 41.7374L80.8984 42.5368V42.5342ZM80.8773 42.5183L80.7506 41.7426C78.8088 42.141 76.4791 42.4022 74.4079 42.7479C68.3185 43.6871 61.3849 44.6264 55.2506 45.4417L55.3113 45.3599L55.4168 46.1487L55.343 46.0933C57.4695 45.8137 59.6013 45.5182 61.7199 45.2042C67.651 44.2755 74.9198 43.2729 80.8773 42.5183Z" fill="#174442"/>
<path d="M55.6093 54.18C55.1397 54.18 54.8231 54.1589 54.6991 54.1167C54.4168 54.019 53.8337 53.8132 49.7785 32.0703C47.7839 21.3769 45.9159 10.5992 45.8974 10.491C45.879 10.3854 45.9502 10.2825 46.0558 10.2641C48.958 9.72585 74.4527 5.04535 75.727 6.10071C75.8009 6.16139 75.8405 6.24318 75.8405 6.33025C75.8405 7.04261 76.7534 12.8708 77.8087 19.6171C80.3811 36.0596 82.4681 49.7501 81.9615 50.7263C81.4761 51.663 74.3445 52.5969 68.4504 53.217C63.5456 53.7314 57.8414 54.18 55.6067 54.18H55.6093ZM46.3196 10.615C49.2561 27.5481 53.9287 52.874 54.8627 53.7631C56.1159 54.2011 80.9457 51.8371 81.6159 50.5443C82.0987 49.5707 79.2836 31.5822 77.4235 19.6778C76.347 12.789 75.4896 7.31436 75.4526 6.38565C74.2627 5.76035 57.1 8.62036 46.3222 10.615H46.3196Z" fill="#F4F5F5"/>
<path d="M63.3215 62.6545C63.3215 62.6545 62.8228 57.2537 54.1214 56.887C54.1214 56.887 59.7517 48.5048 56.744 44.2966C53.7362 40.0857 47.6046 53.37 47.6046 53.37C47.6046 53.37 43.4254 34.218 42.2592 35.3103C40.1459 37.2943 35.191 44.6818 42.7421 61.7706C43.9399 64.4802 56.306 98.8426 56.8363 99.7871C57.1503 100.346 70.0124 99.8636 79.4974 97.6183C81.8772 97.0537 69.8383 69.3692 70.4477 69.0684C76.6268 66.0263 71.7907 61.6783 71.7907 61.6783L63.3215 62.6571V62.6545Z" fill="#6083B3"/>
<path d="M53.6493 47.9349C53.0794 47.9349 52.3644 47.7634 51.5043 47.4178C51.404 47.3782 51.3539 47.2621 51.3961 47.1619C51.4357 47.0616 51.5518 47.0141 51.652 47.0537C53.0926 47.6315 54.0899 47.7001 54.5358 47.2516C55.1321 46.6527 54.7099 45.1725 54.4962 44.6528C54.454 44.5525 54.5041 44.4364 54.6044 44.3969C54.7047 44.3573 54.8207 44.4048 54.8603 44.505C54.8946 44.5921 55.7152 46.6237 54.8155 47.5313C54.5437 47.803 54.1559 47.9402 53.6493 47.9402V47.9349Z" fill="#241726"/>
<path d="M39.7553 5.20105C39.7553 5.20105 37.5681 8.04787 37.5681 10.6388C37.5681 13.2297 46.1138 58.9027 46.0954 58.3671C45.9714 54.6602 47.9897 52.568 47.9897 52.568L39.7553 5.20369V5.20105Z" fill="#1A7170"/>
<path d="M85.5999 61.6467C85.5999 61.6467 64.01 64.7652 63.9546 64.6465C63.8966 64.5278 63.3082 62.1691 62.8096 61.1243C62.8096 61.1243 79.3628 58.3065 86.0168 57.5493L85.5999 61.6467Z" fill="#1A7170"/>
<path d="M105.005 41.7769C101.586 36.8115 96.2459 38.7111 96.4966 39.0832C92.1617 32.6719 91.4625 38.9961 91.4625 38.9961C86.3942 31.5163 84.4497 41.7506 84.4497 41.7506C84.4497 41.7506 81.6372 23.6803 76.6348 22.7278C67.0522 20.9047 78.545 51.1643 78.545 51.1643C78.545 51.1643 64.5378 44.8401 62.4139 50.0588C60.29 55.2776 77.4316 60.6889 77.4316 60.6889L82.6583 63.5542L86.8243 93.2096C86.8243 93.2096 102.024 91.1992 107.092 89.5423L103.662 60.6889C111.535 54.5151 107.781 45.8031 105.005 41.7743V41.7769Z" fill="#6083B3"/>
<path d="M68.8937 54.333C67.8093 54.333 65.3925 53.1246 64.2607 52.5231C64.1657 52.473 64.1288 52.3542 64.1789 52.2566C64.229 52.1616 64.3477 52.1247 64.4454 52.1748C66.6669 53.3542 68.8224 54.1747 69.0573 53.9293C69.1971 53.7394 69.2393 53.5204 69.1865 53.2645C68.8567 51.6366 65.1182 49.3781 65.0812 49.3544C64.9889 49.299 64.9572 49.1776 65.0126 49.0853C65.068 48.9929 65.1894 48.9613 65.2817 49.0167C65.4427 49.1117 69.2076 51.3912 69.5717 53.1853C69.6456 53.5521 69.5797 53.8819 69.3739 54.1615C69.2868 54.2803 69.1179 54.333 68.8937 54.333Z" fill="#241726"/>
<path d="M78.0121 30.9041C76.0017 30.9041 74.7722 26.2579 74.7221 26.06C74.6957 25.9545 74.759 25.8463 74.8619 25.82C74.9674 25.7936 75.0756 25.8569 75.102 25.9598C75.4318 27.2262 76.5927 30.5084 78.0121 30.5084H78.0148C78.2944 30.2419 78.144 27.1814 77.8195 24.506C77.8063 24.3979 77.8828 24.3002 77.991 24.2871C78.0992 24.2712 78.1968 24.3504 78.21 24.4586C78.3234 25.3978 78.859 30.1152 78.276 30.7775C78.1836 30.8804 78.0913 30.9041 78.0121 30.9015V30.9041Z" fill="#241726"/>
<path d="M85.3943 46.8374C85.3943 46.8374 85.3811 46.8374 85.3732 46.8374C85.265 46.8268 85.1859 46.7292 85.1964 46.621C85.3283 45.3229 83.9115 39.8246 83.8983 39.7691C83.8719 39.6636 83.9353 39.5554 84.0382 39.5291C84.1437 39.5027 84.2519 39.566 84.2783 39.6715C84.3363 39.9011 85.7267 45.2939 85.5895 46.6606C85.579 46.7609 85.4945 46.8374 85.3943 46.8374Z" fill="#241726"/>
<path d="M92.7051 45.3941C92.6761 45.3941 92.6497 45.3889 92.6233 45.3757C92.5257 45.3308 92.4835 45.2121 92.5283 45.1145C93.0929 43.9061 91.8212 40.3443 91.283 39.0726C91.2408 38.9723 91.2883 38.8562 91.3885 38.814C91.4888 38.7718 91.6049 38.8193 91.6471 38.9195C91.7289 39.1121 93.6391 43.6686 92.8845 45.2807C92.8502 45.3519 92.779 45.3941 92.7051 45.3941Z" fill="#241726"/>
<path d="M98.3961 45.3941C98.3776 45.3941 98.3565 45.3915 98.338 45.3862C98.2351 45.3545 98.1771 45.2437 98.2087 45.1382C98.6968 43.5763 96.5202 39.1279 96.4991 39.0831C96.4516 38.9855 96.4911 38.8667 96.5888 38.8193C96.6864 38.7718 96.8051 38.8113 96.8526 38.909C96.945 39.0963 99.119 43.5446 98.586 45.2543C98.5596 45.3387 98.4831 45.3915 98.3987 45.3915L98.3961 45.3941Z" fill="#241726"/>
<path d="M74.3157 55.9741C73.9094 56.4807 73.4688 56.7076 73.4582 56.7128C73.3606 56.7603 73.2445 56.7208 73.1944 56.6231C73.1469 56.5255 73.1865 56.4094 73.2841 56.3593C73.3632 56.3197 75.1784 55.3805 74.3869 52.8291C74.3553 52.7262 74.4133 52.6154 74.5162 52.5838C74.6191 52.5521 74.7299 52.6102 74.7616 52.7131C75.2523 54.3014 74.8117 55.3514 74.3131 55.9741H74.3157Z" fill="#241726"/>
<path d="M101.467 58.4726C101.369 58.4726 101.285 58.4014 101.272 58.3011C101.256 58.193 101.333 58.0953 101.438 58.0795C101.47 58.0742 102.135 57.9634 102.227 57.1191C102.24 57.011 102.338 56.9344 102.443 56.945C102.551 56.9582 102.631 57.0532 102.617 57.1614C102.517 58.0874 101.836 58.4225 101.491 58.4674C101.483 58.4674 101.472 58.4674 101.464 58.4674L101.467 58.4726Z" fill="#F4F5F5"/>
<path d="M101.116 56.7551C101.019 56.7551 100.934 56.6838 100.921 56.5836C100.905 56.4754 100.982 56.3778 101.087 56.362C101.116 56.3567 101.784 56.2485 101.876 55.4016C101.889 55.2934 101.982 55.2143 102.092 55.2275C102.201 55.2406 102.28 55.3356 102.267 55.4438C102.164 56.3699 101.486 56.7023 101.14 56.7498C101.132 56.7498 101.122 56.7498 101.114 56.7498L101.116 56.7551Z" fill="#F4F5F5"/>
<path d="M103.185 56.4068C103.087 56.4068 103.003 56.3355 102.99 56.2353C102.974 56.1271 103.05 56.0295 103.156 56.0136C103.188 56.0084 103.852 55.8976 103.945 55.0533C103.958 54.9451 104.05 54.8686 104.161 54.8791C104.269 54.8923 104.348 54.9873 104.335 55.0955C104.232 56.0216 103.554 56.354 103.209 56.4015C103.201 56.4015 103.19 56.4015 103.182 56.4015L103.185 56.4068Z" fill="#F4F5F5"/>
<path d="M103.069 54.5177C102.971 54.5177 102.887 54.4464 102.873 54.3462C102.858 54.238 102.934 54.1404 103.042 54.1245C103.074 54.1193 103.739 54.0085 103.831 53.1642C103.842 53.056 103.942 52.9795 104.047 52.99C104.156 53.0032 104.235 53.0982 104.222 53.2064C104.121 54.1325 103.441 54.4649 103.095 54.5124C103.087 54.5124 103.077 54.5124 103.069 54.5124V54.5177Z" fill="#F4F5F5"/>
<path d="M101.04 54.8949C100.942 54.8949 100.858 54.8237 100.845 54.7235C100.829 54.6153 100.905 54.5177 101.011 54.5018C101.042 54.4966 101.707 54.3857 101.8 53.5415C101.813 53.4333 101.908 53.3515 102.016 53.3673C102.124 53.3805 102.203 53.4755 102.19 53.5837C102.09 54.5097 101.409 54.8448 101.064 54.8897C101.056 54.8897 101.045 54.8897 101.037 54.8897L101.04 54.8949Z" fill="#F4F5F5"/>
<path d="M105.029 53.9874C104.931 53.9874 104.847 53.9161 104.834 53.8159C104.818 53.7077 104.894 53.6101 105 53.5942C105.032 53.589 105.696 53.4781 105.789 52.6339C105.802 52.5257 105.894 52.4439 106.005 52.4597C106.113 52.4729 106.192 52.5679 106.179 52.6761C106.079 53.6022 105.398 53.9346 105.053 53.9821C105.045 53.9821 105.034 53.9821 105.026 53.9821L105.029 53.9874Z" fill="#F4F5F5"/>
<path d="M104.702 52.552C104.625 52.552 104.554 52.5072 104.52 52.4333C104.478 52.333 104.52 52.2196 104.62 52.1747C104.649 52.1615 105.227 51.8819 105.095 50.9954C105.079 50.8872 105.153 50.7869 105.261 50.7711C105.372 50.7553 105.47 50.8292 105.486 50.9373C105.631 51.8977 105.087 52.4043 104.781 52.5362C104.755 52.5467 104.728 52.552 104.702 52.552Z" fill="#F4F5F5"/>
<path d="M78.8272 39.4235C78.194 39.5607 77.7059 39.4551 77.6953 39.4525C77.5898 39.4288 77.5238 39.3232 77.5476 39.2177C77.5713 39.1122 77.6768 39.0462 77.7824 39.0699C77.8668 39.0884 79.8693 39.5106 80.8693 37.0331C80.9115 36.9329 81.025 36.8854 81.1252 36.9249C81.2255 36.9645 81.2756 37.0806 81.2334 37.1809C80.6107 38.7217 79.6029 39.2546 78.8245 39.4235H78.8272Z" fill="#241726"/>
<path d="M51.0741 71.5485C51.0161 71.5485 50.958 71.5221 50.9211 71.4747C50.338 70.7491 50.5834 70.0315 50.7945 69.7544C50.8604 69.6674 50.9844 69.6515 51.0715 69.7175C51.1586 69.7835 51.1744 69.9048 51.1111 69.9919C51.0952 70.0156 50.6995 70.5644 51.2298 71.2293C51.2984 71.3137 51.2852 71.4377 51.1981 71.5063C51.1612 71.5353 51.119 71.5485 51.0741 71.5485Z" fill="#F4F5F5"/>
<path d="M52.5358 72.5141C52.4778 72.5141 52.4197 72.4877 52.3828 72.4402C51.7997 71.7147 52.0451 70.997 52.2561 70.72C52.3221 70.6329 52.4461 70.6171 52.5332 70.6831C52.6202 70.749 52.6361 70.8704 52.5701 70.9575C52.549 70.9865 52.1611 71.5353 52.6915 72.1949C52.7601 72.2793 52.7469 72.4033 52.6598 72.4719C52.6229 72.5009 52.5806 72.5141 52.5358 72.5141Z" fill="#F4F5F5"/>
<path d="M51.3195 74.2211C51.2614 74.2211 51.2034 74.1948 51.1665 74.1473C50.5834 73.4217 50.8287 72.7041 51.0398 72.427C51.1058 72.34 51.2298 72.3241 51.3169 72.3901C51.4039 72.4561 51.4197 72.5801 51.3538 72.6645C51.3353 72.6909 50.9422 73.2397 51.4752 73.9019C51.5437 73.9863 51.5306 74.1103 51.4435 74.1789C51.4066 74.2079 51.3643 74.2211 51.3195 74.2211Z" fill="#F4F5F5"/>
<path d="M52.7362 75.477C52.6782 75.477 52.6201 75.4506 52.5832 75.4031C52.0001 74.6776 52.2455 73.9599 52.4566 73.6829C52.5225 73.5958 52.6465 73.58 52.7336 73.646C52.8207 73.7119 52.8365 73.8333 52.7705 73.9203C52.7521 73.9467 52.3589 74.4955 52.8893 75.1578C52.9579 75.2422 52.9447 75.3662 52.8576 75.4348C52.8207 75.4638 52.7784 75.477 52.7336 75.477H52.7362Z" fill="#F4F5F5"/>
<path d="M53.9049 73.7753C53.8469 73.7753 53.7888 73.7489 53.7519 73.7014C53.1688 72.9758 53.4142 72.2582 53.6253 71.9812C53.6912 71.8941 53.8152 71.8783 53.9023 71.9442C53.9894 72.0102 54.0052 72.1316 53.9392 72.2186C53.9208 72.245 53.5276 72.7938 54.058 73.456C54.1266 73.5405 54.1134 73.6645 54.0263 73.7331C53.9894 73.7621 53.9472 73.7753 53.9023 73.7753H53.9049Z" fill="#F4F5F5"/>
<path d="M51.726 77.2369C51.6679 77.2369 51.6099 77.2105 51.573 77.163C50.9899 76.4375 51.2352 75.7198 51.4463 75.4428C51.5123 75.3557 51.6363 75.3399 51.7233 75.4058C51.8104 75.4718 51.8262 75.5932 51.7629 75.6802C51.7471 75.704 51.3513 76.2528 51.8816 76.9176C51.9502 77.0021 51.9371 77.1261 51.85 77.1947C51.813 77.2237 51.7708 77.2369 51.726 77.2369Z" fill="#F4F5F5"/>
<path d="M53.4146 77.944C53.375 77.944 53.3328 77.9308 53.2985 77.9044C52.5175 77.3266 52.5439 76.5852 52.6679 76.2739C52.7075 76.1736 52.8236 76.1209 52.9238 76.1631C53.0241 76.2027 53.0742 76.3161 53.0346 76.4164C53.0241 76.4428 52.8104 77.0522 53.5333 77.5878C53.6204 77.6538 53.6388 77.7751 53.5755 77.8622C53.5359 77.915 53.4779 77.9414 53.4172 77.9414L53.4146 77.944Z" fill="#F4F5F5"/>
<path d="M63.8595 67.4246C63.8595 67.4246 63.8384 67.4247 63.8278 67.422C63.7197 67.4035 63.6484 67.3033 63.6643 67.1951C63.6722 67.1503 64.3555 62.7811 61.7989 59.8525C60.171 57.9872 57.5854 57.0875 54.1239 57.1824C54.0131 57.193 53.9234 57.1007 53.9207 56.9898C53.9181 56.8817 54.0025 56.7893 54.1133 56.7867C57.7068 56.6864 60.39 57.6336 62.0971 59.5939C64.7724 62.665 64.0811 67.0711 64.0521 67.2558C64.0363 67.3534 63.9519 67.422 63.8569 67.422L63.8595 67.4246Z" fill="#241726"/>
<path d="M49.0372 65.4881C48.9739 65.4881 48.9132 65.4591 48.8763 65.4037C43.0375 57.0057 47.8104 52.4677 47.8605 52.4228C47.9396 52.349 48.0636 52.3542 48.1375 52.436C48.2114 52.5152 48.2061 52.6392 48.127 52.7131C48.0821 52.7553 43.5652 57.0769 49.2008 65.1794C49.2641 65.2691 49.2404 65.3905 49.1507 65.4538C49.1164 65.4776 49.0768 65.4881 49.0372 65.4881Z" fill="#241726"/>
<path d="M58.0314 4.91879L57.9839 4.52831C57.9839 4.52831 62.3557 3.98745 64.3081 3.75263C64.4189 3.7368 64.5139 3.81595 64.5271 3.92412C64.5403 4.0323 64.4638 4.12992 64.3556 4.14311C62.4032 4.37793 58.034 4.91879 58.034 4.91879H58.0314Z" fill="#241726"/>
<path d="M49.631 51.5654C49.1191 51.167 48.887 50.729 48.8817 50.7185C48.8316 50.6209 48.8711 50.5048 48.9661 50.4546C49.0637 50.4045 49.1798 50.4414 49.23 50.5391C49.2695 50.6156 50.2378 52.4176 52.7759 51.5891C52.8788 51.5548 52.9897 51.6129 53.024 51.7158C53.0583 51.8187 53.0002 51.9295 52.8973 51.9638C51.3169 52.4783 50.2616 52.0535 49.6284 51.5654H49.631Z" fill="#241726"/>
</svg>
