<svg width="146" height="101" viewBox="0 0 146 101" fill="none" xmlns="http://www.w3.org/2000/svg">
<path d="M51.6366 16.8883C51.4586 16.8883 51.3159 17.0189 51.3042 17.1922L48.5278 54.057C48.5161 54.236 48.6517 54.3919 48.8386 54.4053H48.8541C49.0246 54.4053 49.1675 54.272 49.1794 54.102L51.9543 17.2381C51.9675 17.0589 51.8319 16.9021 51.6366 16.8883Z" fill="#1A7170"/>
<path d="M94.6914 16.8888C94.6887 16.8886 94.6696 16.8878 94.6665 16.8878C94.4949 16.8878 94.3561 17.0179 94.3433 17.1904L91.3716 54.0565C91.3595 54.2351 91.4953 54.3908 91.6648 54.4032C91.6703 54.4042 91.6921 54.4055 91.698 54.4055C91.8679 54.4055 92.0107 54.273 92.0232 54.1036L94.9935 17.2378C95.0056 17.0596 94.8705 16.9033 94.6914 16.8888Z" fill="#1A7170"/>
<path d="M90.0716 4.64332C90.0678 4.64275 90.043 4.6416 90.0387 4.6416C89.872 4.6416 89.7305 4.7726 89.7159 4.93956L80.8666 98.543C80.8502 98.7218 80.9821 98.8813 81.1508 98.896C81.1575 98.8976 81.1852 98.8993 81.1919 98.8993C81.3595 98.8993 81.5015 98.7685 81.5161 98.6021L90.3656 4.99731C90.3811 4.81965 90.2487 4.66073 90.0716 4.64332Z" fill="#1A7170"/>
<path d="M57.2528 2.06907C57.2502 1.89217 57.1083 1.74817 56.922 1.74817H56.9212C56.8346 1.74932 56.7533 1.78412 56.6927 1.84628C56.6317 1.909 56.5988 1.99143 56.6001 2.07902L58.5091 99.0674C58.5127 99.2449 58.6594 99.3887 58.8357 99.3887H58.8384C58.8392 99.3887 58.8398 99.3887 58.8405 99.3887C59.0201 99.3857 59.1645 99.2373 59.1622 99.0581L57.2528 2.06907Z" fill="#1A7170"/>
<path d="M51.4904 56.3246C51.7277 57.4099 51.0392 58.4809 49.9553 58.7182C48.8698 58.9548 47.7987 58.2673 47.5619 57.1825L47.0469 54.823C46.8094 53.7383 47.4976 52.6664 48.5824 52.4308C49.6665 52.1934 50.7382 52.8809 50.9759 53.9659L51.4904 56.3246Z" fill="#FCB716"/>
<path d="M51.4425 57.1343C50.9759 56.6994 50.3113 56.4921 49.6412 56.6386C48.9118 56.7973 48.3631 57.3343 48.1533 57.9987C48.6198 58.434 49.2845 58.6413 49.9552 58.4952C50.6842 58.3357 51.2325 57.7987 51.4425 57.1343Z" fill="#DD8D44"/>
<path d="M60.3742 65.9641C59.2962 66.2299 58.2067 65.57 57.9415 64.4927C57.6751 63.4143 58.3339 62.3248 59.4117 62.0605L61.7567 61.4808C62.8342 61.2167 63.9241 61.874 64.1899 62.9513C64.4559 64.0299 63.7975 65.1202 62.7183 65.3858L60.3742 65.9641Z" fill="#FCB716"/>
<path d="M63.9666 62.9513C63.8704 62.5611 63.6648 62.2267 63.3919 61.9706C63.0585 62.4326 62.9216 63.0322 63.0689 63.6288C63.1651 64.0192 63.3706 64.3534 63.6434 64.6101C63.9771 64.1481 64.1138 63.5479 63.9666 62.9513Z" fill="#DD8D44"/>
<path d="M59.48 64.0104C59.3411 63.4474 58.9762 63.001 58.5067 62.739C58.1198 63.2118 57.9508 63.8534 58.1086 64.4927C58.2472 65.0557 58.6119 65.5028 59.0816 65.7654C59.4687 65.2919 59.6377 64.6497 59.48 64.0104Z" fill="#DD8D44"/>
<path d="M57.2867 62.4701C58.0669 63.0752 58.2067 64.198 57.6024 64.9773C56.9964 65.757 55.8732 65.897 55.0943 65.2928L50.1505 61.4529C49.372 60.8471 49.2304 59.7245 49.8361 58.9452C50.442 58.1662 51.564 58.0255 52.3437 58.63L57.2867 62.4701Z" fill="#FCB716"/>
<path d="M51.5736 59.869C51.8964 59.4525 52.0049 58.9388 51.919 58.4581C51.2214 58.2278 50.4246 58.4435 49.9477 59.0568C49.6241 59.473 49.5157 59.9868 49.6019 60.4682C50.2998 60.6981 51.0969 60.4829 51.5736 59.869Z" fill="#DD8D44"/>
<path d="M57.5186 64.8099C57.9179 64.2953 57.9904 63.6309 57.7701 63.0643C57.0659 62.8203 56.2552 63.0337 55.7722 63.6547C55.3721 64.1701 55.3 64.8342 55.5205 65.4007C56.2245 65.6451 57.0357 65.4317 57.5186 64.8099Z" fill="#DD8D44"/>
<path d="M64.4159 95.6849C64.1404 96.6323 63.1484 97.1779 62.2008 96.9037C61.2534 96.6272 60.7078 95.635 60.9833 94.6872L64.271 83.3724C64.5464 82.424 65.5387 81.8792 66.4863 82.1546C67.4339 82.4302 67.9793 83.4216 67.7038 84.3695L64.4159 95.6849Z" fill="#FCB716"/>
<path d="M62.4176 95.4474C61.9103 95.3 61.3912 95.3897 60.9751 95.6482C61.1321 96.2319 61.579 96.722 62.201 96.9037C62.7083 97.0508 63.2273 96.9607 63.6435 96.7016C63.4865 96.1183 63.0395 95.6283 62.4176 95.4474Z" fill="#DD8D44"/>
<path d="M66.4863 82.1546C66.0011 82.0138 65.505 82.0886 65.0986 82.3217C65.31 82.7685 65.7026 83.1266 66.214 83.276C66.6989 83.4166 67.1952 83.341 67.6016 83.1075C67.3903 82.6614 66.9977 82.3032 66.4863 82.1546Z" fill="#DD8D44"/>
<path d="M76.3011 79.594C76.3011 81.074 75.1003 82.2737 73.6197 82.2737H66.8855C65.4039 82.2737 64.2041 81.0742 64.2041 79.594V63.1541C64.2041 61.6743 65.4039 60.4722 66.8855 60.4722H73.6197C75.1003 60.4722 76.3011 61.6743 76.3011 63.1541V79.594Z" fill="#FCB716"/>
<path d="M64.2039 64.6652C64.2218 64.6838 64.2377 64.704 64.2563 64.7218C64.59 64.2594 64.7267 63.6597 64.5796 63.063C64.523 62.8341 64.4257 62.6275 64.3025 62.4417C64.24 62.669 64.2039 62.9071 64.2039 63.1544V64.6652Z" fill="#DD8D44"/>
<path d="M65.2197 61.2781C66.7847 61.8693 68.48 62.1955 70.2522 62.1955C72.0245 62.1955 73.7198 61.8693 75.2851 61.278C74.8275 60.9144 74.2496 60.6954 73.6196 60.6954H66.8854C66.2553 60.6954 65.6772 60.9144 65.2197 61.2781Z" fill="#DD8D44"/>
<path d="M82.8818 44.0825C84.2432 51.8316 79.0648 59.2179 71.3149 60.5795C63.5652 61.9412 56.1789 56.7622 54.8177 49.0129C53.456 41.2626 58.6345 33.8761 66.3843 32.5145C74.1342 31.153 81.5201 36.3322 82.8818 44.0825Z" fill="#FCB716"/>
<path d="M69.8205 51.7591C66.9016 52.2134 64.8223 54.4862 65.1862 56.8244C65.2228 57.0588 65.4428 57.219 65.6765 57.1827C65.9106 57.1464 66.0721 56.9265 66.0356 56.6924C65.7444 54.821 67.5016 52.9891 69.9527 52.6075C72.4047 52.2258 74.6353 53.4374 74.9264 55.3087C74.9629 55.5432 75.1821 55.7034 75.4174 55.6669C75.6518 55.6305 75.8116 55.411 75.7753 55.1767C75.4111 52.8382 72.7401 51.3047 69.8205 51.7591Z" fill="#894D1F"/>
<path d="M59.8401 100.308C59.0428 100.821 57.9816 100.59 57.4696 99.7929C56.9569 98.996 57.1879 97.9343 57.985 97.4223L59.4918 96.4535C60.2891 95.9409 61.3501 96.1731 61.863 96.969C62.3748 97.7671 62.1438 98.8275 61.3459 99.3395L59.8401 100.308Z" fill="#FCB716"/>
<path d="M61.8629 96.9691C61.5338 96.4585 60.9793 96.1818 60.4135 96.1827C60.368 96.5645 60.45 96.9638 60.6743 97.3126C61.0027 97.8236 61.5571 98.1005 62.1228 98.0992C62.1685 97.7177 62.0868 97.3181 61.8629 96.9691Z" fill="#DD8D44"/>
<path d="M50.3536 57.4453C50.3536 57.7266 50.1251 57.9561 49.8426 57.9561C49.5609 57.9561 49.3318 57.7266 49.3318 57.4453C49.3318 57.1624 49.5609 56.9337 49.8426 56.9337C50.1251 56.9337 50.3536 57.1624 50.3536 57.4453Z" fill="#894D1F"/>
<path d="M51.3758 59.5503C51.3758 59.8324 51.147 60.0615 50.8644 60.0615C50.5819 60.0615 50.3538 59.8324 50.3538 59.5503C50.3538 59.2679 50.5819 59.0403 50.8644 59.0403C51.1468 59.0403 51.3758 59.2679 51.3758 59.5503Z" fill="#894D1F"/>
<path d="M57.0269 64.2328C57.0269 64.5155 56.7982 64.7442 56.5159 64.7442C56.2331 64.7442 56.0051 64.5155 56.0051 64.2328C56.0051 63.9521 56.2329 63.7231 56.5159 63.7231C56.7982 63.7231 57.0269 63.9521 57.0269 64.2328Z" fill="#894D1F"/>
<path d="M59.8575 64.1069C59.8575 64.3879 59.629 64.6164 59.3471 64.6164C59.064 64.6164 58.8357 64.3879 58.8357 64.1069C58.8357 63.8245 59.064 63.5959 59.3471 63.5959C59.6288 63.5959 59.8575 63.8243 59.8575 64.1069Z" fill="#894D1F"/>
<path d="M63.3482 63.0849C63.3482 63.3678 63.1195 63.5959 62.8372 63.5959C62.5559 63.5959 62.3264 63.3678 62.3264 63.0849C62.3264 62.8023 62.5559 62.5747 62.8372 62.5747C63.1195 62.5747 63.3482 62.8025 63.3482 63.0849Z" fill="#894D1F"/>
<path d="M89.0381 56.3246C88.8007 57.4099 89.4886 58.4809 90.573 58.7182C91.6586 58.9548 92.7296 58.2673 92.9665 57.1825L93.4814 54.823C93.7193 53.7383 93.0306 52.6664 91.9461 52.4308C90.8617 52.1934 89.7902 52.8809 89.5523 53.9659L89.0381 56.3246Z" fill="#FCB716"/>
<path d="M89.0859 57.1343C89.5524 56.6994 90.2169 56.4921 90.887 56.6386C91.6166 56.7973 92.1651 57.3343 92.3749 57.9987C91.9085 58.434 91.2437 58.6413 90.573 58.4952C89.8442 58.3357 89.2961 57.7987 89.0859 57.1343Z" fill="#DD8D44"/>
<path d="M80.1543 65.9641C81.2323 66.2299 82.3222 65.57 82.5872 64.4927C82.8536 63.4143 82.1946 62.3248 81.1172 62.0605L78.772 61.4808C77.6941 61.2167 76.6046 61.874 76.3384 62.9513C76.0726 64.0299 76.7316 65.1202 77.8104 65.3858L80.1543 65.9641Z" fill="#FCB716"/>
<path d="M76.5619 62.9513C76.658 62.5611 76.8638 62.2267 77.1365 61.9706C77.4701 62.4326 77.6072 63.0322 77.4597 63.6288C77.3633 64.0192 77.1583 64.3534 76.8854 64.6101C76.5515 64.1481 76.4144 63.5479 76.5619 62.9513Z" fill="#DD8D44"/>
<path d="M81.0486 64.0104C81.1874 63.4474 81.5523 63.001 82.0222 62.739C82.4087 63.2118 82.578 63.8534 82.4198 64.4927C82.2817 65.0557 81.9168 65.5028 81.4472 65.7654C81.0597 65.2919 80.8906 64.6497 81.0486 64.0104Z" fill="#DD8D44"/>
<path d="M83.242 62.4701C82.4617 63.0752 82.3221 64.198 82.9264 64.9773C83.5323 65.757 84.6558 65.897 85.4344 65.2928L90.3784 61.4529C91.1569 60.8471 91.298 59.7245 90.6926 58.9452C90.0865 58.1662 88.9645 58.0255 88.1852 58.63L83.242 62.4701Z" fill="#FCB716"/>
<path d="M88.9548 59.869C88.6318 59.4525 88.5237 58.9388 88.6096 58.4581C89.3072 58.2278 90.1038 58.4435 90.5809 59.0568C90.9041 59.473 91.0125 59.9868 90.9271 60.4682C90.2288 60.6981 89.4321 60.4829 88.9548 59.869Z" fill="#DD8D44"/>
<path d="M83.0099 64.8099C82.6108 64.2953 82.5383 63.6309 82.7584 63.0643C83.463 62.8203 84.2732 63.0337 84.7565 63.6547C85.1568 64.1701 85.2289 64.8342 85.0084 65.4007C84.304 65.6451 83.493 65.4317 83.0099 64.8099Z" fill="#DD8D44"/>
<path d="M90.1748 57.4453C90.1748 57.7266 90.4035 57.9561 90.686 57.9561C90.9679 57.9561 91.1968 57.7266 91.1968 57.4453C91.1968 57.1624 90.9679 56.9337 90.686 56.9337C90.4035 56.9337 90.1748 57.1624 90.1748 57.4453Z" fill="#894D1F"/>
<path d="M89.1528 59.5503C89.1528 59.8324 89.3814 60.0615 89.664 60.0615C89.9467 60.0615 90.1746 59.8324 90.1746 59.5503C90.1746 59.2679 89.9467 59.0403 89.664 59.0403C89.3814 59.0403 89.1528 59.2679 89.1528 59.5503Z" fill="#894D1F"/>
<path d="M83.5017 64.2328C83.5017 64.5155 83.7302 64.7442 84.0129 64.7442C84.2957 64.7442 84.5235 64.5155 84.5235 64.2328C84.5235 63.9521 84.2959 63.7231 84.0129 63.7231C83.7302 63.7231 83.5017 63.9521 83.5017 64.2328Z" fill="#894D1F"/>
<path d="M80.6709 64.1069C80.6709 64.3879 80.8992 64.6164 81.1815 64.6164C81.4645 64.6164 81.6927 64.3879 81.6927 64.1069C81.6927 63.8245 81.4647 63.5959 81.1815 63.5959C80.8994 63.5959 80.6709 63.8243 80.6709 64.1069Z" fill="#894D1F"/>
<path d="M77.1802 63.0849C77.1802 63.3678 77.4089 63.5959 77.6912 63.5959C77.9723 63.5959 78.2018 63.3678 78.2018 63.0849C78.2018 62.8023 77.9723 62.5747 77.6912 62.5747C77.4091 62.5747 77.1802 62.8025 77.1802 63.0849Z" fill="#894D1F"/>
<path d="M65.8004 63.0849C65.8004 63.3678 65.5721 63.5959 65.2898 63.5959C65.0077 63.5959 64.7788 63.3678 64.7788 63.0849C64.7788 62.8023 65.0079 62.5747 65.2898 62.5747C65.5723 62.5747 65.8004 62.8025 65.8004 63.0849Z" fill="#894D1F"/>
<path d="M70.7633 61.3669C70.7633 61.648 70.5343 61.8781 70.2521 61.8781C69.9708 61.8781 69.7415 61.648 69.7415 61.3669C69.7415 61.0852 69.9708 60.8561 70.2521 60.8561C70.5343 60.8561 70.7633 61.0852 70.7633 61.3669Z" fill="#894D1F"/>
<path d="M75.8857 63.0849C75.8857 63.3678 75.6573 63.5959 75.3748 63.5959C75.0928 63.5959 74.8633 63.3678 74.8633 63.0849C74.8633 62.8023 75.0928 62.5747 75.3748 62.5747C75.6571 62.5747 75.8857 62.8025 75.8857 63.0849Z" fill="#894D1F"/>
<path d="M67.0864 81.1894C67.0864 81.4716 66.858 81.7009 66.5757 81.7009C66.294 81.7009 66.0649 81.4716 66.0649 81.1894C66.0649 80.9077 66.2942 80.6793 66.5757 80.6793C66.858 80.6793 67.0864 80.9077 67.0864 81.1894Z" fill="#894D1F"/>
<path d="M66.7675 83.0408C66.7675 83.3233 66.5391 83.552 66.2565 83.552C65.9742 83.552 65.7458 83.3233 65.7458 83.0408C65.7458 82.7586 65.9744 82.53 66.2565 82.53C66.5389 82.53 66.7675 82.7586 66.7675 83.0408Z" fill="#894D1F"/>
<path d="M74.4184 81.1894C74.4184 81.4716 74.1903 81.7009 73.9076 81.7009C73.625 81.7009 73.3962 81.4716 73.3962 81.1894C73.3962 80.9077 73.6248 80.6793 73.9076 80.6793C74.1903 80.6793 74.4184 80.9077 74.4184 81.1894Z" fill="#894D1F"/>
<path d="M61.3837 97.6772C61.3837 97.9575 61.1557 98.1868 60.8731 98.1868C60.5914 98.1868 60.363 97.9575 60.363 97.6772C60.363 97.3943 60.5914 97.1658 60.8731 97.1658C61.1557 97.1658 61.3837 97.3941 61.3837 97.6772Z" fill="#894D1F"/>
<path d="M62.8373 95.9892C62.8373 96.2716 62.6092 96.5002 62.3265 96.5002C62.045 96.5002 61.8167 96.2718 61.8167 95.9892C61.8167 95.7079 62.045 95.4801 62.3265 95.4801C62.6092 95.4801 62.8373 95.7079 62.8373 95.9892Z" fill="#894D1F"/>
<path d="M76.4595 95.6849C76.7345 96.6323 77.7266 97.1779 78.6741 96.9037C79.622 96.6272 80.1671 95.635 79.8917 94.6872L76.6043 83.3724C76.3289 82.424 75.3363 81.8792 74.3891 82.1546C73.4415 82.4302 72.8959 83.4216 73.1717 84.3695L76.4595 95.6849Z" fill="#FCB716"/>
<path d="M78.4575 95.4474C78.9649 95.3 79.4841 95.3897 79.8999 95.6482C79.7431 96.2319 79.2963 96.722 78.674 96.9037C78.1669 97.0508 77.6478 96.9607 77.2317 96.7016C77.3887 96.1183 77.8356 95.6283 78.4575 95.4474Z" fill="#DD8D44"/>
<path d="M74.389 82.1546C74.874 82.0138 75.3701 82.0886 75.7767 82.3217C75.5651 82.7685 75.1729 83.1266 74.6611 83.276C74.176 83.4166 73.6801 83.341 73.2737 83.1075C73.4848 82.6614 73.8776 82.3032 74.389 82.1546Z" fill="#DD8D44"/>
<path d="M81.0348 100.308C81.8321 100.821 82.8933 100.59 83.4051 99.7929C83.9184 98.996 83.6869 97.9343 82.8902 97.4223L81.3831 96.4535C80.5858 95.9409 79.5252 96.1731 79.0122 96.969C78.5003 97.7671 78.7313 98.8275 79.5292 99.3395L81.0348 100.308Z" fill="#FCB716"/>
<path d="M79.0121 96.9691C79.3411 96.4585 79.8957 96.1818 80.4613 96.1827C80.5072 96.5645 80.425 96.9638 80.2005 97.3126C79.8721 97.8236 79.3179 98.1005 78.7524 98.0992C78.7069 97.7177 78.788 97.3181 79.0121 96.9691Z" fill="#DD8D44"/>
<path d="M74.1084 83.0408C74.1084 83.3233 74.3362 83.552 74.619 83.552C74.9015 83.552 75.1294 83.3233 75.1294 83.0408C75.1294 82.7586 74.9015 82.53 74.619 82.53C74.3362 82.53 74.1084 82.7586 74.1084 83.0408Z" fill="#894D1F"/>
<path d="M79.4915 97.6772C79.4915 97.9575 79.7196 98.1868 80.0023 98.1868C80.2838 98.1868 80.5119 97.9575 80.5119 97.6772C80.5119 97.3943 80.2838 97.1658 80.0023 97.1658C79.7198 97.1658 79.4915 97.3941 79.4915 97.6772Z" fill="#894D1F"/>
<path d="M78.0378 95.9892C78.0378 96.2716 78.2662 96.5002 78.5486 96.5002C78.8302 96.5002 79.0587 96.2718 79.0587 95.9892C79.0587 95.7079 78.8302 95.4801 78.5486 95.4801C78.2662 95.4801 78.0378 95.7079 78.0378 95.9892Z" fill="#894D1F"/>
<path d="M65.2861 47.8683C65.4567 48.8396 64.8074 49.7664 63.8353 49.9372C62.8634 50.1079 61.9355 49.4583 61.7648 48.487C61.594 47.5147 62.245 46.587 63.2169 46.4162C64.1887 46.2456 65.1151 46.896 65.2861 47.8683Z" fill="#894D1F"/>
<path d="M75.6481 46.0481C75.8187 47.0194 75.1694 47.9459 74.1967 48.1169C73.2252 48.2877 72.2987 47.6378 72.1281 46.6663C71.9573 45.6939 72.6068 44.7665 73.5783 44.596C74.5507 44.4252 75.4771 45.0756 75.6481 46.0481Z" fill="#894D1F"/>
<path d="M99.8892 16.35C97.1346 15.3041 90.2497 12.9578 82.7494 10.4449L98.3887 6.02166V4.29839L92.1277 3.79733C92.1277 3.79733 83.7257 5.52998 74.09 7.55484C64.6616 4.42193 56.3956 1.71223 56.3956 1.71223L49.8022 1.57568L49.6063 3.28863L64.8024 9.52023C57.1244 11.1553 50.0923 12.6914 47.2546 13.4137C47.2546 14.3045 47.2931 15.3986 47.2546 15.4124L52.6354 18.7176L73.4631 13.0716L93.0979 21.3028L99.6943 18.0628C99.6572 18.0465 99.789 17.2353 99.8892 16.35Z" fill="#A8632E"/>
<path d="M99.8893 16.3499C97.1346 15.304 90.2498 12.9577 82.7495 10.4448L64.8026 9.52014C57.1247 11.1553 50.0925 12.6913 47.2549 13.4136C47.2549 14.3044 47.2933 15.3985 47.2549 15.4123L52.6356 18.7175L73.4632 13.0715L93.0979 21.3027L99.6944 18.0627C99.6573 18.0464 99.7891 17.2352 99.8893 16.3499Z" fill="#C77B39"/>
<path d="M52.5864 18.685L52.6287 16.3461L49.0867 12.9694C48.3636 13.1392 47.7452 13.2887 47.2546 13.4138C47.2546 14.3046 47.2931 15.3987 47.2546 15.4125L52.5864 18.685Z" fill="#A8632E"/>
<path d="M47.2549 13.4136C47.6379 13.2928 92.1279 2.07397 92.1279 2.07397L98.389 4.29811L52.6356 16.61L47.2549 13.4136Z" fill="#FBB361"/>
<path d="M76.5952 9.69952C82.0172 8.24608 98.3888 4.2981 98.3888 4.2981L52.6355 16.61C52.6355 16.61 70.5737 11.3134 76.5952 9.69952Z" fill="#FDC98C"/>
<path d="M99.8893 16.35C99.5233 16.1882 56.5907 0 56.5907 0L49.8022 1.57564L93.337 19.2092L99.8893 16.35Z" fill="#FBB361"/>
<path d="M75.912 8.7338C75.912 9.2731 74.912 9.71085 73.6793 9.71085C72.4464 9.71085 71.4448 9.2731 71.4448 8.7338C71.4448 8.19392 72.4462 7.75598 73.6793 7.75598C74.912 7.75598 75.912 8.19412 75.912 8.7338Z" fill="#894D1F"/>
<path d="M67.4412 8.30279C59.8789 5.34084 49.8022 1.57568 49.8022 1.57568L66.8067 8.46324C67.0178 8.40969 67.2295 8.35614 67.4412 8.30279Z" fill="#FDC98C"/>
<path d="M72.6101 10.8141L93.3368 19.2091C93.3368 19.2091 81.1944 13.9383 73.25 10.6422L72.6101 10.8141Z" fill="#FDC98C"/>
<path d="M56.9718 17.9829C56.8527 17.9829 56.7572 17.8873 56.7572 17.7678C56.7572 17.6496 56.8528 17.5534 56.9718 17.5534C57.626 17.5534 58.0429 17.3719 58.2116 17.0112C58.4451 16.5144 58.159 15.7504 57.7719 15.2834C56.6475 13.9338 53.7928 12.4522 52.0074 12.2933C51.5258 12.249 51.1724 12.3102 50.984 12.4674C50.894 12.5444 50.7586 12.5322 50.6823 12.4415C50.6058 12.3499 50.6178 12.2145 50.7083 12.139C50.9896 11.902 51.4396 11.8106 52.0452 11.864C53.9552 12.0353 56.8993 13.5645 58.1018 15.0099C58.571 15.5731 58.927 16.4974 58.5998 17.1939C58.4315 17.5534 58.0121 17.9829 56.9718 17.9829Z" fill="#1A7170"/>
<path d="M56.9717 18.0945C56.7921 18.0945 56.6456 17.9478 56.6456 17.7679C56.6456 17.5883 56.7921 17.442 56.9717 17.442C57.5789 17.442 57.9621 17.2814 58.1107 16.9641C58.3165 16.5256 58.0566 15.8015 57.6862 15.3548C56.5764 14.023 53.7586 12.5615 51.9977 12.4045C51.5502 12.3628 51.219 12.4168 51.0556 12.5533C50.9264 12.6638 50.7087 12.6468 50.597 12.5133C50.4813 12.3751 50.4993 12.1689 50.6368 12.0538C50.9399 11.7985 51.4154 11.6967 52.0551 11.7532C53.9893 11.9266 56.9696 13.4749 58.1874 14.9389C58.6785 15.5286 59.0488 16.5005 58.7007 17.2414C58.5186 17.6304 58.0704 18.0945 56.9717 18.0945ZM51.7191 12.1678C51.8124 12.1678 51.912 12.1725 52.018 12.1823C53.8252 12.3433 56.7179 13.8442 57.8579 15.2121C58.2773 15.7184 58.5684 16.5151 58.3127 17.059C58.1241 17.4611 57.6732 17.6652 56.9719 17.6652C56.9151 17.6652 56.8688 17.7115 56.8688 17.7681C56.8688 17.8262 56.9141 17.8717 56.9719 17.8717C57.9535 17.8717 58.3442 17.4774 58.4993 17.1465C58.8057 16.494 58.464 15.6187 58.0166 15.0815C56.829 13.6541 53.9224 12.1446 52.0358 11.9752C51.4639 11.9253 51.0365 12.009 50.7806 12.2246C50.7368 12.2611 50.7317 12.3265 50.7684 12.3703C50.7986 12.4064 50.8468 12.4386 50.9122 12.3831C51.0832 12.2399 51.3542 12.1678 51.7191 12.1678Z" fill="#1A7170"/>
<path d="M55.1027 18.3427C54.9843 18.3427 54.8881 18.2452 54.8881 18.127C54.8881 18.009 54.9845 17.9126 55.1027 17.9126C55.7565 17.9126 56.174 17.7296 56.3423 17.3699C56.576 16.8715 56.2895 16.1081 55.9028 15.642C54.7791 14.2915 51.9233 12.8107 50.1388 12.651C49.6567 12.6072 49.3033 12.668 49.1147 12.8266C49.0239 12.9023 48.8887 12.8906 48.8133 12.8C48.7365 12.7076 48.7487 12.5734 48.8393 12.4969C49.1201 12.2614 49.5701 12.1685 50.1763 12.224C52.086 12.3947 55.0289 13.9231 56.2329 15.3683C56.702 15.9323 57.0574 16.856 56.7313 17.5531C56.562 17.9126 56.1428 18.3427 55.1027 18.3427Z" fill="#1A7170"/>
<path d="M55.1026 18.4542C54.9229 18.4542 54.7766 18.3073 54.7766 18.1268C54.7766 17.9472 54.9229 17.8011 55.1026 17.8011C55.7096 17.8011 56.0927 17.6401 56.2413 17.3226C56.4473 16.8834 56.1874 16.1595 55.8173 15.7132C54.7093 14.3815 51.8915 12.9199 50.129 12.7619C49.6815 12.7214 49.3491 12.7751 49.1866 12.9119C49.0529 13.0235 48.8381 13.004 48.7278 12.8711C48.6131 12.733 48.6306 12.5267 48.7678 12.4116C49.0728 12.1557 49.552 12.0551 50.1866 12.1127C52.1189 12.2853 55.0992 13.8329 56.3187 15.2966C56.8091 15.8864 57.1791 16.8587 56.8324 17.5999C56.6488 17.9899 56.2 18.4542 55.1026 18.4542ZM49.8515 12.5259C49.9445 12.5259 50.0437 12.5307 50.1489 12.5401C51.9577 12.7021 54.8504 14.2031 55.9885 15.5707C56.4077 16.0763 56.6985 16.8728 56.443 17.4173C56.2547 17.8201 55.8037 18.0243 55.1026 18.0243C55.0458 18.0243 54.9996 18.0704 54.9996 18.127C54.9996 18.1836 55.0468 18.2314 55.1026 18.2314C56.0831 18.2314 56.4746 17.8367 56.6303 17.5055C56.9357 16.8524 56.5941 15.9769 56.1472 15.4395C54.9581 14.0123 52.0514 12.5032 50.1661 12.3347C49.5932 12.2829 49.168 12.3666 48.9106 12.5822C48.8666 12.6193 48.8613 12.6835 48.8988 12.7286C48.9288 12.7648 48.9764 12.7963 49.0431 12.7411C49.2132 12.5982 49.4851 12.5259 49.8515 12.5259Z" fill="#1A7170"/>
<path d="M59.2178 0.551365C58.97 0.280185 58.5491 0.130252 57.9667 0.10539C56.2153 0.0277465 53.3519 1.07231 52.1031 2.22396C51.5885 2.69728 51.1373 3.53263 51.3628 4.24863C51.4829 4.62672 51.8352 5.10501 52.8114 5.23276C52.8363 5.24041 52.8581 5.24041 52.8726 5.24041C53.035 5.24041 53.174 5.11897 53.1962 4.95699C53.2194 4.77971 53.0937 4.61524 52.9155 4.59038C52.3892 4.52077 52.0761 4.33986 51.9855 4.05223C51.8579 3.64756 52.1696 3.04898 52.545 2.70398C53.6324 1.70168 56.1788 0.75389 57.7851 0.75389C57.8371 0.75389 57.8881 0.754846 57.9375 0.75695C58.3307 0.774353 58.6143 0.857543 58.7361 0.99103C58.8512 1.11763 59.0671 1.12949 59.197 1.01302C59.3299 0.89101 59.3391 0.683704 59.2178 0.551365Z" fill="#1A7170"/>
<path d="M60.8412 1.09196C60.5933 0.821354 60.1716 0.671421 59.588 0.646177C57.8318 0.570828 54.9735 1.61501 53.7258 2.76475C53.2118 3.23845 52.7608 4.07418 52.9859 4.7898C53.1051 5.16731 53.4564 5.64465 54.4575 5.77756C54.4633 5.77833 54.4908 5.7812 54.4967 5.7812C54.6583 5.7812 54.7966 5.65938 54.8188 5.4972C54.8421 5.32031 54.717 5.15622 54.5394 5.13117C54.0119 5.06022 53.6987 4.87949 53.608 4.59378C53.4807 4.18969 53.7924 3.59072 54.1676 3.24496C55.2913 2.20957 57.9815 1.2331 59.5602 1.29793C59.9538 1.31552 60.2376 1.39871 60.3598 1.53296C60.4761 1.65976 60.6893 1.67219 60.8219 1.55343C60.9523 1.43141 60.9615 1.22468 60.8412 1.09196Z" fill="#1A7170"/>
<path d="M93.7934 7.42575C93.6867 7.42575 93.5949 7.34849 93.5806 7.23986C93.5649 7.12187 93.6475 7.01458 93.7655 6.9989C94.3381 6.92317 94.6825 6.71567 94.7875 6.38368C94.9332 5.9203 94.5928 5.28404 94.1969 4.91934C93.0392 3.85298 90.3285 2.87784 88.723 2.94344C88.2945 2.96122 87.9929 3.05608 87.8472 3.21442C87.7672 3.30106 87.6324 3.30794 87.5448 3.22724C87.4561 3.14749 87.4507 3.01228 87.5297 2.92374C87.7565 2.67646 88.1528 2.53839 88.7041 2.51525C90.4356 2.44296 93.2413 3.45539 94.488 4.6036C94.9768 5.05474 95.4071 5.84476 95.1966 6.51315C95.0876 6.85987 94.7592 7.29877 93.8217 7.42384C93.812 7.42575 93.803 7.42575 93.7934 7.42575Z" fill="#1A7170"/>
<path d="M93.7933 7.5372C93.6302 7.5372 93.4911 7.41576 93.4697 7.25455C93.4586 7.16791 93.4814 7.08224 93.5346 7.0132C93.5875 6.94416 93.6642 6.89999 93.751 6.8887C94.2772 6.8189 94.5902 6.63779 94.6814 6.35036C94.808 5.94569 94.4963 5.34672 94.1213 5.00153C92.9981 3.96711 90.3164 2.98948 88.7275 3.05508C88.337 3.07114 88.0534 3.15491 87.9293 3.29031C87.812 3.41786 87.5959 3.42685 87.4691 3.30981C87.337 3.19105 87.3263 2.98432 87.4466 2.84988C87.6954 2.57831 88.1163 2.42876 88.699 2.40428C88.7595 2.4018 88.821 2.40027 88.8832 2.40027C90.6508 2.40027 93.3577 3.41174 94.5632 4.52209C95.0773 4.99637 95.5279 5.83229 95.3028 6.54695C95.1836 6.92427 94.8331 7.4018 93.8363 7.53472C93.822 7.53682 93.8082 7.5372 93.7933 7.5372ZM88.8803 2.82903C90.5311 2.82903 93.1515 3.80513 94.2724 4.83745C94.7029 5.23389 95.0549 5.904 94.8939 6.41729C94.7742 6.7948 94.3995 7.02754 93.7799 7.10959C93.7524 7.11322 93.7277 7.12718 93.7109 7.14917C93.6946 7.17078 93.6872 7.19794 93.691 7.22529C93.6979 7.27692 93.7409 7.31402 93.7933 7.31402L93.8063 7.31364C94.6868 7.19622 94.9903 6.79557 95.0899 6.47983C95.2856 5.85791 94.8759 5.11398 94.4122 4.68598C93.1997 3.56952 90.4223 2.55383 88.7082 2.62689C88.1869 2.64869 87.818 2.77395 87.6116 2.99924C87.5736 3.04188 87.5762 3.10614 87.6191 3.14458C87.6619 3.18378 87.7277 3.17939 87.765 3.13903C87.9322 2.95716 88.262 2.85083 88.7183 2.83209C88.7713 2.83018 88.8249 2.82903 88.8803 2.82903Z" fill="#1A7170"/>
<path d="M92.17 7.96715C92.0641 7.96715 91.9715 7.88855 91.9579 7.78145C91.9413 7.66326 92.0249 7.55617 92.1423 7.54049C92.5368 7.48732 93.0338 7.33911 93.165 6.92469C93.3109 6.46112 92.9694 5.82486 92.5737 5.46093C91.4165 4.39399 88.7082 3.41369 87.1004 3.48464C86.6728 3.50319 86.3693 3.59805 86.2255 3.75429C86.144 3.84379 86.0095 3.84991 85.922 3.7694C85.834 3.68946 85.8275 3.55368 85.908 3.46686C86.1346 3.21767 86.5303 3.08036 87.0822 3.05645C88.8068 2.98091 91.6198 3.99679 92.8646 5.14557C93.3547 5.59537 93.7847 6.38539 93.5747 7.05301C93.4657 7.40184 93.1363 7.84016 92.1991 7.96504C92.1899 7.96715 92.1796 7.96715 92.17 7.96715Z" fill="#1A7170"/>
<path d="M92.1699 8.0786C92.0066 8.0786 91.8677 7.95677 91.8469 7.79575C91.8352 7.71065 91.8576 7.62516 91.9104 7.55612C91.963 7.48651 92.0402 7.44176 92.1272 7.4299C92.4896 7.38133 92.9455 7.24784 93.0582 6.89099C93.1856 6.4867 92.8733 5.88831 92.4979 5.54312C91.3726 4.50544 88.6925 3.52533 87.1052 3.5959C86.7136 3.61292 86.4305 3.69573 86.307 3.82979C86.1903 3.9583 85.9744 3.9692 85.8461 3.85121C85.7816 3.79269 85.7436 3.71179 85.7398 3.6242C85.7363 3.53738 85.7669 3.45457 85.826 3.3907C86.0712 3.12066 86.4927 2.97035 87.0767 2.9451C88.8277 2.8688 91.6914 3.91183 92.9394 5.06368C93.4542 5.53585 93.9058 6.37043 93.6803 7.08644C93.5623 7.46414 93.2114 7.94243 92.2129 8.07573C92.2024 8.0786 92.1829 8.0786 92.1699 8.0786ZM87.2693 3.36928C88.9442 3.36928 91.5084 4.32721 92.6491 5.37884C93.0804 5.77548 93.4328 6.4452 93.271 6.95811C93.154 7.32874 92.7683 7.56836 92.1569 7.65098C92.1288 7.65461 92.1047 7.66877 92.0878 7.69114C92.0714 7.71275 92.0643 7.73933 92.0681 7.7663C92.0744 7.81774 92.1184 7.8558 92.1699 7.8558V7.9671L92.1789 7.85561C93.0658 7.73685 93.3691 7.33562 93.4678 7.0195C93.6638 6.39663 93.2534 5.65385 92.7889 5.22757C91.5759 4.10862 88.7962 3.0916 87.0865 3.16771C86.5642 3.19047 86.1951 3.3163 85.9903 3.54178C85.9712 3.56243 85.9618 3.58787 85.9628 3.61483C85.9639 3.64256 85.9761 3.668 85.9968 3.68693C86.0628 3.74755 86.1096 3.71562 86.1425 3.67928C86.3091 3.49856 86.6382 3.39299 87.0955 3.37329C87.1523 3.37042 87.2102 3.36928 87.2693 3.36928Z" fill="#1A7170"/>
<path d="M89.3019 20.2809C88.2623 20.2809 87.8431 19.8522 87.6744 19.4911C87.348 18.7954 87.7029 17.8711 88.1726 17.3085C89.3755 15.8619 92.3189 14.3324 94.2282 14.1625C94.8343 14.1084 95.2849 14.2 95.5666 14.437C95.6566 14.5127 95.6689 14.6487 95.5929 14.7395C95.5166 14.8304 95.3809 14.8414 95.2906 14.7653C95.1022 14.6085 94.7492 14.5477 94.2676 14.59C92.4816 14.7496 89.6268 16.231 88.5017 17.5821C88.1154 18.0484 87.8301 18.8118 88.0634 19.3094C88.2724 19.7573 88.8532 19.8522 89.3019 19.8522C89.4206 19.8522 89.5178 19.9484 89.5178 20.0663C89.5178 20.1847 89.4206 20.2809 89.3019 20.2809Z" fill="#1A7170"/>
<path d="M89.3019 20.3922C88.2027 20.3922 87.7552 19.9277 87.5735 19.5379C87.2256 18.7963 87.5959 17.8252 88.0872 17.2369C89.3056 15.7716 92.2853 14.2233 94.2186 14.0514C94.8583 13.994 95.3343 14.096 95.6383 14.3515C95.7757 14.4668 95.7934 14.6728 95.6787 14.8106C95.5668 14.9438 95.3507 14.9617 95.2189 14.8504C95.0562 14.715 94.7225 14.6611 94.2777 14.7009C92.5158 14.8583 89.6972 16.3209 88.5875 17.6533C88.218 18.0992 87.9585 18.8229 88.1644 19.2618C88.3494 19.6575 88.8848 19.7405 89.3017 19.7405C89.4821 19.7405 89.629 19.8868 89.629 20.0662C89.6292 20.2461 89.4823 20.3922 89.3019 20.3922ZM94.5498 14.2589C94.4511 14.2589 94.3471 14.2637 94.2381 14.2735C92.3526 14.4412 89.4465 15.9508 88.2585 17.3794C87.8108 17.9155 87.4685 18.79 87.7755 19.4435C87.93 19.7747 88.3199 20.1692 89.3019 20.1692C89.3595 20.1692 89.4064 20.1231 89.4064 20.0662C89.4064 20.0095 89.3595 19.9635 89.3019 19.9635C88.8202 19.9635 88.1968 19.8581 87.9625 19.3565C87.7074 18.8122 87.9975 18.0159 88.4161 17.511C89.5561 16.1423 92.4492 14.6406 94.2578 14.4788C94.7764 14.4337 95.149 14.5022 95.3622 14.6796C95.4291 14.7364 95.4777 14.7039 95.5079 14.6676C95.5443 14.6242 95.5385 14.5588 95.4953 14.5223C95.2874 14.3475 94.9696 14.2589 94.5498 14.2589Z" fill="#1A7170"/>
<path d="M91.1724 20.8304C90.1322 20.8304 89.7129 20.4026 89.5436 20.0406C89.2175 19.3441 89.5738 18.4206 90.0416 17.8579C91.2449 16.4114 94.1881 14.8826 96.0974 14.712C96.7039 14.6581 97.154 14.7497 97.4356 14.9872C97.5272 15.0624 97.5381 15.1976 97.4623 15.289C97.3862 15.3798 97.25 15.3905 97.159 15.315C96.9714 15.158 96.6178 15.0972 96.1372 15.1396C94.3506 15.2993 91.496 16.782 90.3724 18.1326C89.9846 18.5973 89.6991 19.3615 89.932 19.8598C90.1424 20.307 90.7226 20.4026 91.1722 20.4026C91.2906 20.4026 91.3868 20.4972 91.3868 20.6162C91.387 20.7342 91.2908 20.8304 91.1724 20.8304Z" fill="#1A7170"/>
<path d="M91.1724 20.9419C90.0734 20.9419 89.6251 20.4773 89.4425 20.0878C89.0958 19.3475 89.4658 18.376 89.9562 17.7866C91.1744 16.322 94.1541 14.7739 96.0875 14.6009C96.7286 14.5441 97.2042 14.6456 97.5075 14.9021C97.5733 14.9558 97.6144 15.0335 97.6226 15.1193C97.631 15.2067 97.6043 15.2924 97.5479 15.3603C97.4373 15.4932 97.2206 15.5119 97.0877 15.4005C96.9256 15.2651 96.5934 15.2109 96.1472 15.2503C94.3851 15.4079 91.5672 16.8707 90.4582 18.2037C90.0873 18.6483 89.8273 19.3716 90.0334 19.8124C90.2189 20.2081 90.7552 20.2909 91.1724 20.2909C91.3524 20.2909 91.4985 20.4368 91.4985 20.616C91.4985 20.7958 91.3524 20.9419 91.1724 20.9419ZM96.4186 14.8086C96.3201 14.8086 96.2162 14.8135 96.1072 14.8231C94.2214 14.9918 91.3155 16.5012 90.1277 17.9292C89.6806 18.4662 89.3388 19.3412 89.6448 19.9933C89.7995 20.3243 90.1904 20.7191 91.1724 20.7191C91.2292 20.7191 91.2753 20.673 91.2753 20.6162C91.2753 20.5599 91.2292 20.5141 91.1724 20.5141C90.6911 20.5141 90.0673 20.4089 89.8311 19.9071C89.5786 19.3662 89.8772 18.5523 90.287 18.061C91.4258 16.6923 94.3187 15.1903 96.1271 15.0285C96.6462 14.9824 97.0183 15.0518 97.2306 15.2295C97.2734 15.2647 97.3423 15.2591 97.3767 15.2176C97.3949 15.1958 97.4035 15.1683 97.4008 15.1406C97.3979 15.114 97.3855 15.0903 97.3652 15.0734C97.1566 14.8973 96.8385 14.8086 96.4186 14.8086Z" fill="#1A7170"/>
</svg>
