<svg width="314" height="113" viewBox="0 0 314 113" fill="none" xmlns="http://www.w3.org/2000/svg">
<path d="M-2.63511 32.3213C-2.63511 32.3213 71.9949 39.3179 131.65 38.9496C191.305 38.5814 209.962 32.6895 209.962 32.6895L209.103 92.8355C209.103 92.8355 44.4996 97.3771 -6.07202 91.9762L-2.63511 32.3213Z" fill="#FCB716"/>
<path d="M199.652 36.1264C199.652 36.1264 220.887 27.2886 231.811 17.3461C242.613 7.40363 251.819 2.24828 261.884 7.40364C271.949 12.6818 256.606 34.5307 256.606 34.5307C256.606 34.5307 291.712 27.6569 300.058 35.7581C312.947 48.2783 294.167 59.6937 279.928 57.9753C279.928 57.9753 292.203 57.2388 290.116 72.7049C288.397 84.9796 278.087 89.2757 271.827 90.5032C276.982 92.7126 284.347 109.406 262.866 111.616C246.05 114.807 197.933 91.6079 197.933 91.6079L199.652 36.1264Z" fill="#FCB716"/>
<path d="M254.396 56.9938C254.396 56.9938 249.118 37.5998 229.233 39.0728C209.348 40.5457 217.45 53.5569 220.395 58.9578C223.341 64.2359 222.973 65.9543 219.536 71.7234C216.099 77.4925 215.117 94.1861 228.742 93.2041C242.244 92.0994 260.165 75.4058 254.396 56.9938Z" fill="white"/>
<path d="M234.634 40.1773C234.634 40.1773 217.695 35.7584 216.468 45.8237C215.24 56.0117 222.973 59.9396 221.746 65.5859C220.518 71.2323 214.872 79.3336 216.59 84.1207" stroke="black" stroke-width="2.383" stroke-miterlimit="10" stroke-linecap="round"/>
<path d="M251.979 29.2434C256.641 25.1009 257.939 18.949 254.877 15.5028C251.815 12.0565 245.553 12.6208 240.891 16.7633C236.228 20.9058 234.93 27.0577 237.992 30.504C241.054 33.9503 247.316 33.3859 251.979 29.2434Z" fill="white"/>
<path d="M240.649 18.6968C240.649 18.6968 235.371 21.8882 236.107 27.2891C236.721 31.8307 240.158 33.4264 247.891 31.9534" stroke="black" stroke-width="2.383" stroke-miterlimit="10" stroke-linecap="round" stroke-linejoin="round"/>
<path d="M290.729 44.5963C290.852 51.3474 285.697 52.9431 279.437 52.9431C273.177 52.9431 268.144 49.2607 268.144 44.5963C268.144 40.0546 273.177 36.2495 279.437 36.2495C285.697 36.2495 290.607 37.8452 290.729 44.5963Z" fill="white"/>
<path d="M271.95 38.2136C271.95 38.2136 266.794 40.9141 268.144 46.1922C269.495 51.4703 275.877 53.9252 283.488 52.4522" stroke="black" stroke-width="2.383" stroke-miterlimit="10" stroke-linecap="round" stroke-linejoin="round"/>
<path d="M280.05 59.6938C280.05 59.6938 292.693 76.0192 272.072 90.2578C272.072 90.2578 290.607 89.3986 290.607 74.178C290.729 73.4415 289.502 60.5531 280.05 59.6938Z" fill="#FFCF6E"/>
<path d="M259.674 110.88L245.19 109.407C242.244 108.916 240.771 108.793 237.702 107.811C222.359 103.515 201.247 95.2908 199.283 94.6771C199.283 94.6771 190.813 93.3268 186.272 93.6951C155.217 96.15 61.9291 94.6771 61.9291 94.6771C55.5463 95.0453 57.0193 93.3268 57.633 92.0994C90.2836 90.3809 163.195 88.9079 190.322 89.8899C195.723 90.1354 199.406 90.3809 200.51 90.8719C204.684 92.4676 218.8 100.323 231.811 104.742C242.612 108.302 259.674 110.88 259.674 110.88Z" fill="#CC8902"/>
<path d="M270.231 91.9764C270.231 91.9764 274.036 107.933 259.306 110.879C259.306 110.879 275.141 112.598 275.263 102.164C275.509 91.6082 270.231 91.9764 270.231 91.9764Z" fill="#FFCF6E"/>
<path d="M263.971 33.3036C263.971 33.3036 304.845 27.0435 304.845 43.6143C304.845 60.1851 279.682 58.3439 279.682 58.3439C279.682 58.3439 291.466 60.3079 289.993 75.4057C288.643 90.5036 270.722 90.6263 270.722 90.6263" stroke="black" stroke-width="2.4801" stroke-miterlimit="10" stroke-linecap="round" stroke-linejoin="round"/>
<path d="M270.721 91.6079C270.721 91.6079 280.05 95.0448 274.649 106.215C274.281 106.951 273.913 107.565 273.422 108.179C273.054 108.547 272.685 108.915 272.194 109.283C271.826 109.652 271.458 109.897 270.967 110.02C268.757 111.247 265.812 111.616 262.866 111.616C262.497 111.616 262.252 111.616 261.884 111.616C253.046 111.125 242.244 108.301 242.244 108.301" stroke="black" stroke-width="2.383" stroke-miterlimit="10" stroke-linecap="round"/>
<path d="M191.427 35.0219C191.427 35.0219 208.244 35.6356 219.536 26.0614C230.829 16.4871 245.681 3.59873 257.465 5.56267C269.249 7.40388 264.707 18.6966 264.707 18.6966" stroke="black" stroke-width="2.383" stroke-miterlimit="10" stroke-linecap="round"/>
<path d="M260.779 57.239C260.779 57.239 238.317 60.6759 239.79 72.2141C241.14 83.7523 241.876 82.1566 241.876 82.1566C241.876 82.1566 231.688 78.5969 227.76 86.821C223.833 95.1677 226.656 99.8321 226.656 99.8321L257.342 99.9549L260.779 57.239Z" fill="#FCB716"/>
<path d="M266.917 57.9755C266.917 57.9755 249.241 56.0115 243.104 64.8493C236.476 74.4236 238.808 80.9291 244.577 85.2253C250.346 89.5214 253.169 89.3987 253.169 89.3987" stroke="black" stroke-width="2.383" stroke-miterlimit="10" stroke-linecap="round"/>
<path d="M229.234 103.147C229.234 103.147 222.851 96.8866 225.919 89.6446C229.111 82.0343 235.494 81.4205 239.913 82.0342" stroke="black" stroke-width="2.383" stroke-miterlimit="10" stroke-linecap="round"/>
<path d="M305.705 42.3867C305.705 42.3867 311.474 43.3687 311.842 44.1052C312.21 44.8416 305.336 46.4373 305.336 46.4373L305.705 42.3867Z" stroke="black" stroke-width="2.4801" stroke-miterlimit="10" stroke-linecap="round" stroke-linejoin="round"/>
<path d="M261.025 5.56267C261.025 5.56267 265.69 1.88026 266.549 2.003C267.408 2.12575 263.971 7.89485 263.971 7.89485L261.025 5.56267Z" stroke="black" stroke-width="2.4801" stroke-miterlimit="10" stroke-linecap="round" stroke-linejoin="round"/>
<path d="M60.8249 27.7795H-10V97.9907H60.8249V27.7795Z" fill="#6083B3"/>
<path d="M47.4453 32.5671L59.3517 31.4624" stroke="black" stroke-width="2.383" stroke-miterlimit="10" stroke-linecap="round" stroke-linejoin="round"/>
<path d="M47.2 41.5276L58.6154 40.9138" stroke="black" stroke-width="2.383" stroke-miterlimit="10" stroke-linecap="round" stroke-linejoin="round"/>
<path d="M46.9543 54.1704L58.738 53.5566" stroke="black" stroke-width="2.383" stroke-miterlimit="10" stroke-linecap="round" stroke-linejoin="round"/>
<path d="M46.832 63.6222L58.984 62.8857" stroke="black" stroke-width="2.383" stroke-miterlimit="10" stroke-linecap="round" stroke-linejoin="round"/>
<path d="M46.832 72.5825L59.3522 72.828" stroke="black" stroke-width="2.383" stroke-miterlimit="10" stroke-linecap="round" stroke-linejoin="round"/>
<path d="M46.3406 83.5071L58.9835 83.6298" stroke="black" stroke-width="2.383" stroke-miterlimit="10" stroke-linecap="round" stroke-linejoin="round"/>
<path d="M46.0955 93.6953L58.9839 93.5725" stroke="black" stroke-width="2.383" stroke-miterlimit="10" stroke-linecap="round" stroke-linejoin="round"/>
</svg>
