<svg width="146" height="100" viewBox="0 0 146 100" fill="none" xmlns="http://www.w3.org/2000/svg">
<path d="M141.259 4.51612L141.26 4.51612C143.314 4.58376 144.952 6.26537 144.965 8.32856L145.5 88.456C145.541 94.6613 140.443 99.6631 134.253 99.4959L17.5286 96.3634C10.4719 96.1737 4.72909 90.6191 4.2905 83.5627C4.2905 83.5627 4.29049 83.5627 4.29049 83.5626L0.508654 22.4929L0.508652 22.4929C0.351827 19.9631 2.35113 17.8249 4.87704 17.8151L4.87758 17.8151L15.8886 17.7604L16.3839 17.758L16.3861 17.2627L16.4443 4.32461C16.4539 2.16131 18.2466 0.431349 20.4041 0.502102C20.4041 0.502104 20.4042 0.502106 20.4043 0.502108L141.259 4.51612Z" fill="#FFFCFF" stroke="#85D7DF"/>
<path d="M15.8861 17.2604L4.8751 17.3151C2.06053 17.3296 -0.164937 19.7118 0.00960964 22.5238L3.79145 83.5936C3.96237 86.3291 4.90055 88.8461 6.39147 90.9369C17.5079 93.1952 17.337 75.9881 17.337 75.9881L15.8861 17.2604Z" fill="#6083B3"/>
<path d="M8.85708 55.8241L16.8353 55.7876L16.759 52.5778L8.84253 52.6143L8.85708 55.8241Z" fill="#85D7DF"/>
<path d="M8.88955 63.109L17.0169 63.0726L16.9369 59.8628L8.875 59.8992L8.88955 63.109Z" fill="#85D7DF"/>
<path d="M8.82778 48.5063L16.6569 48.4735L16.5769 45.2637L8.81323 45.2965L8.82778 48.5063Z" fill="#85D7DF"/>
<path d="M8.76235 33.8745L16.2933 33.8418L16.2169 30.632L8.7478 30.6647L8.76235 33.8745Z" fill="#85D7DF"/>
<path d="M17.1187 67.1805L8.90771 67.2133L8.92226 70.4231L17.1987 70.3867L17.1187 67.1805Z" fill="#85D7DF"/>
<path d="M8.79506 41.1922L16.4751 41.1594L16.3951 37.9496L8.78052 37.9824L8.79506 41.1922Z" fill="#85D7DF"/>
<path d="M81.9492 80.3866L28.9929 80.6176L29.0069 83.8274L81.9632 83.5964L81.9492 80.3866Z" fill="#6083B3"/>
<path d="M81.9811 87.7004L29.0249 87.9315L29.0389 91.1412L81.9951 90.9102L81.9811 87.7004Z" fill="#6083B3"/>
<path d="M139.949 80.384L86.9927 80.6155L87.0067 83.8252L139.963 83.5938L139.949 80.384Z" fill="#6083B3"/>
<path d="M139.985 87.6979L87.0283 87.9293L87.0423 91.1391L139.999 90.9076L139.985 87.6979Z" fill="#6083B3"/>
<path d="M139.956 37.721L29.0186 38.2049L29.0326 41.4147L139.97 40.9307L139.956 37.721Z" fill="#6083B3"/>
<path d="M46.6121 21.4577C46.0108 21.4603 45.4567 21.3638 44.9499 21.168C44.443 20.9722 44.0018 20.6991 43.6263 20.3487C43.2507 19.991 42.9592 19.5743 42.7518 19.0985C42.5444 18.6154 42.4394 18.0879 42.4369 17.5159C42.4344 16.9439 42.5348 16.4191 42.738 15.9416C42.9413 15.4567 43.2291 15.0374 43.6016 14.6838C43.974 14.3228 44.4128 14.0422 44.9179 13.842C45.423 13.6418 45.9726 13.5404 46.5666 13.5378C47.1679 13.5352 47.7183 13.6318 48.2179 13.8276C48.7247 14.0234 49.1659 14.3002 49.5415 14.6579C49.917 15.0082 50.2085 15.425 50.416 15.9081C50.6234 16.3838 50.7283 16.9077 50.7308 17.4797C50.7333 18.0517 50.633 18.5801 50.4297 19.065C50.2265 19.5499 49.9387 19.9692 49.5662 20.3228C49.1938 20.6764 48.755 20.9534 48.2498 21.1536C47.752 21.3537 47.2061 21.4551 46.6121 21.4577ZM46.5957 20.2038C46.9843 20.2021 47.3434 20.1345 47.6728 20.0011C48.0022 19.8676 48.2874 19.6794 48.5283 19.4363C48.7692 19.1859 48.955 18.8991 49.0856 18.5759C49.2235 18.2453 49.2916 17.882 49.2898 17.486C49.2881 17.09 49.2169 16.731 49.0761 16.4089C48.9427 16.0795 48.7544 15.7943 48.5114 15.5534C48.2683 15.3051 47.9815 15.1157 47.6509 14.9851C47.3203 14.8546 46.9607 14.7901 46.5721 14.7918C46.1834 14.7935 45.8243 14.8611 45.4949 14.9945C45.1728 15.1279 44.8877 15.3198 44.6394 15.5703C44.3985 15.8133 44.2091 16.1001 44.0712 16.4308C43.9406 16.754 43.8762 17.1136 43.8779 17.5096C43.8796 17.8983 43.9471 18.2573 44.0806 18.5867C44.2214 18.9161 44.4133 19.205 44.6564 19.4532C44.8994 19.6942 45.1862 19.8799 45.5168 20.0105C45.8474 20.141 46.207 20.2055 46.5957 20.2038ZM52.3396 21.3227L52.306 13.6228L59.1149 13.5931L59.1485 21.293L57.7405 21.2992L57.7107 14.4572L58.0422 14.8078L53.3893 14.8281L53.7177 14.4746L53.7476 21.3166L52.3396 21.3227ZM61.3307 21.2835L61.2971 13.5836L62.7051 13.5774L62.729 19.0444L66.8411 13.5594L68.1721 13.5536L68.2057 21.2535L66.7977 21.2596L66.7739 15.8037L62.6617 21.2777L61.3307 21.2835ZM71.9815 21.237L71.9517 14.3951L72.2942 14.7456L69.4122 14.7582L69.407 13.5482L75.9189 13.5198L75.9242 14.7298L73.0422 14.7423L73.3707 14.3889L73.4005 21.2308L71.9815 21.237ZM76.9575 20.0053C77.3614 20.1429 77.7173 20.178 78.025 20.1106C78.3327 20.0433 78.6067 19.8184 78.847 19.436L79.2185 18.8514L79.3608 18.6968L82.0221 13.4931L83.4301 13.487L80.1133 19.7165C79.8442 20.2384 79.5233 20.6358 79.1505 20.9087C78.7776 21.1817 78.375 21.3338 77.9424 21.365C77.5173 21.4035 77.0733 21.3248 76.6104 21.1288L76.9575 20.0053ZM79.3332 19.9289L75.8732 13.52L77.4022 13.5133L80.1094 18.8255L79.3332 19.9289ZM84.4692 21.1825L84.4356 13.4826L87.8785 13.4676C88.7439 13.4638 89.4193 13.6332 89.9048 13.9757C90.3902 14.311 90.6344 14.7976 90.6372 15.4356C90.6399 16.0662 90.411 16.5549 89.9505 16.9016C89.49 17.2409 88.8821 17.4122 88.1268 17.4155L88.323 17.0187C89.181 17.0149 89.8454 17.1844 90.3163 17.527C90.7871 17.8696 91.024 18.3672 91.0268 19.0199C91.0297 19.6872 90.7863 20.2126 90.2967 20.5961C89.807 20.9722 89.0818 21.1624 88.1211 21.1666L84.4692 21.1825ZM85.8724 20.0764L88.0723 20.0668C88.571 20.0646 88.9483 19.9713 89.2041 19.7869C89.46 19.5951 89.587 19.3048 89.5853 18.9162C89.5836 18.5275 89.4541 18.2458 89.1966 18.0709C88.9392 17.8887 88.5611 17.7986 88.0625 17.8008L85.8625 17.8104L85.8724 20.0764ZM85.8579 16.7654L87.7719 16.7571C88.2339 16.7551 88.5855 16.6619 88.8267 16.4775C89.0679 16.2858 89.1877 16.0139 89.1861 15.6619C89.1845 15.2952 89.0623 15.0208 88.8195 14.8385C88.5767 14.6562 88.2243 14.5661 87.7623 14.5681L85.8484 14.5764L85.8579 16.7654ZM91.6861 21.151L95.1175 13.436L96.5255 13.4298L100.035 21.1146L98.5391 21.1211L95.5278 14.1932L96.0998 14.1907L93.1601 21.1446L91.6861 21.151ZM93.2733 19.3621L93.6534 18.2384L97.8114 18.2203L98.2013 19.3406L93.2733 19.3621ZM106.594 13.3859L108.024 13.3797L108.058 21.0796L106.628 21.0858L106.594 13.3859ZM102.646 21.1032L101.216 21.1095L101.182 13.4095L102.612 13.4033L102.646 21.1032ZM106.723 17.7854L102.51 17.8038L102.505 16.5828L106.718 16.5644L106.723 17.7854ZM115.596 13.3466L117.026 13.3404L117.06 21.0403L115.63 21.0466L115.596 13.3466ZM111.648 21.0639L110.218 21.0702L110.184 13.3703L111.614 13.364L111.648 21.0639ZM115.725 17.7461L111.512 17.7645L111.507 16.5435L115.72 16.5251L115.725 17.7461ZM123.697 21.0114L123.686 18.5474L124.039 18.8649L121.784 18.8747C121.139 18.8775 120.581 18.7736 120.111 18.563C119.648 18.345 119.291 18.0349 119.04 17.6327C118.789 17.2231 118.662 16.7323 118.659 16.1603C118.657 15.5663 118.787 15.0597 119.049 14.6406C119.311 14.2141 119.683 13.8898 120.166 13.6677C120.649 13.4383 121.217 13.3221 121.87 13.3193L125.071 13.3053L125.105 21.0052L123.697 21.0114ZM118.703 21.0332L120.594 18.2749L122.035 18.2686L120.21 21.0266L118.703 21.0332ZM123.684 18.0854L123.666 14.1254L124.02 14.5199L121.919 14.5291C121.333 14.5316 120.882 14.6693 120.568 14.942C120.261 15.2073 120.109 15.604 120.111 16.132C120.113 16.638 120.262 17.0296 120.556 17.307C120.858 17.5771 121.299 17.7108 121.878 17.7083L124.034 17.6989L123.684 18.0854Z" fill="#1A7170"/>
<path d="M44.3677 32.4119L44.3463 27.5119L47.5593 27.4979L47.5549 28.1069L44.867 28.1186L45.0342 27.9429L45.0607 32.4088L44.3677 32.4119ZM48.4145 32.3942L48.3932 27.4942L50.3041 27.4859C50.7335 27.484 51.1001 27.5501 51.404 27.6841C51.7079 27.8181 51.9421 28.0131 52.1066 28.269C52.271 28.525 52.354 28.8303 52.3556 29.1849C52.3571 29.5396 52.2768 29.8456 52.1146 30.103C51.9523 30.3557 51.7198 30.5527 51.4171 30.694C51.1144 30.8307 50.7483 30.9 50.319 30.9018L48.793 30.9085L49.1066 30.5781L49.1145 32.3911L48.4145 32.3942ZM49.1069 30.6481L48.7904 30.2995L50.2954 30.2929C50.7434 30.291 51.0813 30.1938 51.3091 30.0015C51.5416 29.8092 51.6571 29.538 51.6556 29.188C51.654 28.838 51.5362 28.5678 51.302 28.3775C51.0725 28.1872 50.7338 28.093 50.2858 28.095L48.7808 28.1015L49.0943 27.7502L49.1069 30.6481ZM55.6167 32.4187C55.2434 32.4203 54.8955 32.3589 54.5729 32.2343C54.2551 32.1097 53.979 31.9359 53.7447 31.7129C53.5103 31.4852 53.3272 31.22 53.1952 30.9173C53.0632 30.6145 52.9964 30.2835 52.9949 29.9241C52.9933 29.5648 53.0572 29.2332 53.1865 28.9293C53.3159 28.6254 53.4967 28.3609 53.7291 28.1359C53.9614 27.9062 54.236 27.7277 54.5527 27.6003C54.8695 27.4729 55.2169 27.4084 55.5949 27.4068C55.9682 27.4051 56.3115 27.4666 56.6247 27.5913C56.9426 27.7112 57.2187 27.885 57.453 28.1126C57.692 28.3356 57.8751 28.5985 58.0024 28.9012C58.1344 29.204 58.2012 29.5374 58.2028 29.9014C58.2044 30.2654 58.1405 30.5993 58.0112 30.9032C57.8865 31.2071 57.7057 31.4739 57.4686 31.7036C57.2363 31.9286 56.9617 32.1048 56.6449 32.2322C56.3328 32.3549 55.9901 32.4171 55.6167 32.4187ZM55.614 31.7957C55.8847 31.7945 56.1342 31.7468 56.3624 31.6524C56.5953 31.5581 56.7954 31.4265 56.9627 31.2578C57.1346 31.0844 57.2667 30.8831 57.3591 30.6541C57.4561 30.425 57.504 30.1751 57.5028 29.9044C57.5016 29.6338 57.4515 29.3843 57.3526 29.1561C57.2582 28.9278 57.1244 28.7301 56.951 28.5628C56.7822 28.3909 56.581 28.2588 56.3472 28.1665C56.1182 28.0741 55.8683 28.0286 55.5976 28.0297C55.3223 28.031 55.0682 28.0787 54.8352 28.1731C54.607 28.2674 54.4069 28.4013 54.235 28.5747C54.0631 28.7435 53.9286 28.9424 53.8316 29.1715C53.7392 29.4006 53.6937 29.6504 53.6948 29.9211C53.696 30.1917 53.7438 30.4412 53.8381 30.6695C53.9371 30.8977 54.0733 31.0978 54.2467 31.2697C54.4201 31.4369 54.6214 31.5667 54.8504 31.659C55.0842 31.7514 55.3387 31.7969 55.614 31.7957ZM59.3451 32.3464L59.3237 27.4465L59.8977 27.4439L62.1118 31.1373L61.8038 31.1387L63.9577 27.4262L64.5317 27.4237L64.56 32.3236L63.888 32.3266L63.8643 28.4836L64.0253 28.4829L62.1074 31.7393L61.7854 31.7407L59.8253 28.5013L60.0003 28.5005L60.0171 32.3435L59.3451 32.3464ZM65.4062 32.3199L67.6039 27.4103L68.2969 27.4072L70.5442 32.2975L69.8092 32.3007L67.8086 27.8014L68.0886 27.8002L66.1272 32.3168L65.4062 32.3199ZM66.3459 31.0908L66.5325 30.53L69.2904 30.5179L69.4959 31.077L66.3459 31.0908ZM74.6434 31.9505L74.6261 27.9886L72.4772 27.998L72.4466 29.0271C72.4342 29.3725 72.4123 29.7039 72.381 30.0214C72.3544 30.3389 72.3136 30.626 72.2587 30.883C72.2038 31.1352 72.1254 31.3432 72.0234 31.507C71.9262 31.6708 71.8006 31.7716 71.6468 31.8096L70.8902 31.6869C71.0723 31.7002 71.2213 31.6388 71.3374 31.503C71.4581 31.3625 71.5506 31.1684 71.6149 30.9208C71.6838 30.6685 71.7339 30.3766 71.7651 30.0451C71.7963 29.709 71.818 29.3495 71.8304 28.9668L71.8725 27.3916L75.3165 27.3766L75.3364 31.9475L74.6434 31.9505ZM70.7225 33.3677L70.7222 31.6877L76.0562 31.6644L76.0635 33.3444L75.4125 33.3472L75.4078 32.2762L71.3759 32.2938L71.3735 33.3648L70.7225 33.3677ZM79.207 32.3156C78.8337 32.3172 78.4881 32.2581 78.1702 32.1381C77.857 32.0135 77.5833 31.8397 77.349 31.6167C77.1193 31.3891 76.9385 31.1238 76.8065 30.8211C76.6745 30.5183 76.6077 30.1849 76.6061 29.8209C76.6045 29.4569 76.6684 29.123 76.7978 28.8191C76.9271 28.5152 77.108 28.2507 77.3403 28.0257C77.5726 27.796 77.8449 27.6198 78.157 27.4971C78.4738 27.3698 78.8189 27.3053 79.1922 27.3036C79.5702 27.302 79.9181 27.3658 80.236 27.4951C80.5586 27.6196 80.8324 27.8075 81.0575 28.0585L80.6044 28.5015C80.4169 28.3063 80.2063 28.1625 79.9725 28.0702C79.7388 27.9732 79.4889 27.9253 79.2229 27.9265C78.9476 27.9277 78.6911 27.9755 78.4535 28.0699C78.2206 28.1642 78.0182 28.2958 77.8462 28.4645C77.6743 28.6333 77.5398 28.8345 77.4429 29.0683C77.3505 29.2974 77.3049 29.5472 77.3061 29.8179C77.3073 30.0886 77.3551 30.3403 77.4494 30.5733C77.5484 30.8015 77.6846 30.9992 77.858 31.1665C78.0314 31.3337 78.235 31.4635 78.4687 31.5558C78.7071 31.6481 78.964 31.6937 79.2393 31.6925C79.5053 31.6913 79.7548 31.6435 79.9877 31.5492C80.2206 31.4502 80.4299 31.2999 80.6157 31.0984L81.0726 31.5374C80.8497 31.7904 80.5776 31.9829 80.2561 32.115C79.9394 32.2471 79.5897 32.3139 79.207 32.3156ZM84.1752 29.0459C84.7539 29.0433 85.2001 29.172 85.5139 29.432C85.8277 29.6873 85.9857 30.0716 85.988 30.5849C85.9903 31.1263 85.8218 31.5377 85.4823 31.8192C85.1475 32.096 84.6745 32.2357 84.0631 32.2384L82.0402 32.2472L82.0188 27.3473L82.7118 27.3442L82.7192 29.0522L84.1752 29.0459ZM84.0327 31.6855C84.4387 31.6837 84.7487 31.5914 84.9625 31.4084C85.1811 31.2255 85.2896 30.9567 85.288 30.602C85.2865 30.2567 85.1781 30.0028 84.9627 29.8404C84.7473 29.678 84.4343 29.5977 84.0236 29.5995L82.7217 29.6052L82.7307 31.6912L84.0327 31.6855ZM90.3273 32.211L88.5388 29.8038L89.1043 29.4513L91.1253 32.2075L90.3273 32.211ZM87.0303 32.2254L87.009 27.3255L87.695 27.3225L87.7163 32.2224L87.0303 32.2254ZM87.4969 30.0673L87.4943 29.4514L89.0832 29.4444L89.0859 30.0604L87.4969 30.0673ZM89.169 29.843L88.5246 29.7479L90.271 27.3112L91.02 27.3079L89.169 29.843ZM94.0343 32.2508C93.661 32.2524 93.3131 32.1909 92.9905 32.0664C92.6727 31.9417 92.3966 31.768 92.1623 31.545C91.9279 31.3173 91.7448 31.0521 91.6128 30.7494C91.4808 30.4466 91.414 30.1156 91.4125 29.7562C91.4109 29.3969 91.4748 29.0653 91.6041 28.7614C91.7335 28.4575 91.9143 28.193 92.1467 27.968C92.379 27.7383 92.6536 27.5598 92.9703 27.4324C93.2871 27.305 93.6345 27.2405 94.0125 27.2388C94.3858 27.2372 94.7291 27.2987 95.0423 27.4233C95.3602 27.5433 95.6363 27.7171 95.8706 27.9447C96.1096 28.1677 96.2927 28.4306 96.42 28.7333C96.552 29.0361 96.6188 29.3695 96.6204 29.7335C96.622 30.0975 96.5581 30.4314 96.4288 30.7353C96.3041 31.0392 96.1233 31.306 95.8862 31.5357C95.6539 31.7607 95.3793 31.9369 95.0625 32.0643C94.7504 32.187 94.4077 32.2492 94.0343 32.2508ZM94.0316 31.6278C94.3023 31.6266 94.5518 31.5789 94.78 31.4845C95.0129 31.3902 95.213 31.2586 95.3803 31.0899C95.5522 30.9165 95.6843 30.7152 95.7767 30.4862C95.8737 30.2571 95.9216 30.0072 95.9204 29.7365C95.9192 29.4659 95.8691 29.2164 95.7702 28.9882C95.6758 28.7599 95.542 28.5622 95.3686 28.3949C95.1998 28.223 94.9986 28.0909 94.7648 27.9986C94.5358 27.9062 94.2859 27.8607 94.0152 27.8618C93.7399 27.863 93.4858 27.9108 93.2528 28.0052C93.0246 28.0995 92.8245 28.2334 92.6526 28.4068C92.4807 28.5756 92.3462 28.7745 92.2492 29.0036C92.1568 29.2326 92.1113 29.4825 92.1124 29.7532C92.1136 30.0238 92.1614 30.2733 92.2557 30.5016C92.3547 30.7298 92.4909 30.9299 92.6643 31.1018C92.8377 31.269 93.039 31.3988 93.268 31.4911C93.5018 31.5835 93.7563 31.629 94.0316 31.6278ZM97.7347 32.1786L97.7133 27.2787L98.4133 27.2756L98.4347 32.1756L97.7347 32.1786ZM98.7121 26.7563C98.6141 26.7567 98.5276 26.7244 98.4526 26.6594C98.3823 26.5897 98.3469 26.5036 98.3465 26.4009C98.346 26.2936 98.3807 26.2071 98.4504 26.1414C98.5247 26.0711 98.6109 26.0357 98.7089 26.0353C98.8069 26.0349 98.8911 26.0695 98.9614 26.1392C99.0316 26.2042 99.067 26.2904 99.0675 26.3977C99.0679 26.5004 99.0333 26.5869 98.9636 26.6572C98.8939 26.7228 98.81 26.7559 98.7121 26.7563ZM97.4101 26.762C97.3121 26.7624 97.2279 26.7301 97.1576 26.6651C97.0873 26.5954 97.052 26.5092 97.0515 26.4066C97.051 26.2992 97.0857 26.2127 97.1554 26.1471C97.2251 26.0768 97.3089 26.0414 97.4069 26.041C97.5049 26.0406 97.5891 26.0752 97.6594 26.1449C97.7297 26.2099 97.765 26.2961 97.7655 26.4034C97.766 26.5061 97.7313 26.5926 97.6616 26.6629C97.5919 26.7285 97.5081 26.7616 97.4101 26.762ZM105.063 31.8176L105.046 27.8556L102.897 27.865L102.866 28.8942C102.854 29.2396 102.832 29.571 102.801 29.8885C102.774 30.2059 102.733 30.4931 102.678 30.75C102.623 31.0022 102.545 31.2103 102.443 31.374C102.346 31.5378 102.22 31.6387 102.066 31.6767L101.31 31.554C101.492 31.5672 101.641 31.5059 101.757 31.37C101.878 31.2295 101.97 31.0354 102.035 30.7878C102.103 30.5355 102.153 30.2436 102.185 29.9122C102.216 29.576 102.238 29.2166 102.25 28.8339L102.292 27.2587L105.736 27.2436L105.756 31.8146L105.063 31.8176ZM101.142 33.2347L101.142 31.5547L106.476 31.5314L106.483 33.2114L105.832 33.2142L105.827 32.1433L101.795 32.1609L101.793 33.2319L101.142 33.2347ZM107.419 31.5203C107.662 31.6079 107.886 31.6303 108.091 31.5874C108.296 31.5398 108.48 31.3827 108.642 31.1159L108.878 30.7369L108.948 30.6596L110.732 27.2218L111.425 27.2187L109.266 31.2602C109.104 31.5689 108.913 31.8031 108.695 31.9627C108.481 32.1177 108.248 32.2027 107.996 32.2178C107.749 32.2375 107.496 32.192 107.239 32.0811L107.419 31.5203ZM108.93 31.2827L106.763 27.2391L107.512 27.2358L109.312 30.721L108.93 31.2827ZM112.173 32.1155L112.151 27.2156L112.725 27.2131L114.939 30.9064L114.631 30.9078L116.785 27.1953L117.359 27.1928L117.388 32.0927L116.716 32.0957L116.692 28.2527L116.853 28.252L114.935 31.5084L114.613 31.5098L112.653 28.2704L112.828 28.2696L112.845 32.1126L112.173 32.1155ZM122.21 32.0717L120.421 29.6644L120.987 29.312L123.008 32.0682L122.21 32.0717ZM118.913 32.0861L118.892 27.1861L119.577 27.1831L119.599 32.0831L118.913 32.0861ZM119.379 29.928L119.377 29.312L120.966 29.3051L120.968 29.9211L119.379 29.928ZM121.051 29.7037L120.407 29.6085L122.153 27.1719L122.902 27.1686L121.051 29.7037ZM123.725 32.065L123.704 27.1651L124.397 27.162L124.413 30.942L127.295 27.1494L127.939 27.1466L127.96 32.0465L127.274 32.0495L127.258 28.2766L124.369 32.0622L123.725 32.065Z" fill="#1A7170"/>
<path d="M81.9666 45.3004H29.0171V77.4999H81.9666V45.3004Z" fill="#ECECEC"/>
<path d="M139.97 45.3004H87.021V77.4999H139.97V45.3004Z" fill="#ECECEC"/>
<path d="M106.316 67.4831C106.316 67.4831 108.788 72.8339 113.596 73.8065C113.596 73.8065 110.905 74.0942 110.585 74.9575C110.261 75.8208 112.341 75.9992 115.319 75.9992C118.298 75.9992 123.028 76.2141 126.258 69.1004C129.487 61.9866 123.912 51.8205 121.738 53.547C120.036 54.8984 124.498 56.2789 125.25 62.0595C126.003 67.8437 123.312 71.3624 123.312 71.3624C123.312 71.3624 125.319 66.7291 121.698 61.626C118.076 56.5265 114.799 55.8126 113.17 47.6061C113.17 47.6061 111.614 48.5969 110.745 49.777C110.745 49.777 107.843 49.5476 106.312 49.675C106.312 49.675 104.73 47.4968 104.014 47.1362C104.014 47.1362 102.708 49.93 102.734 54.7745C102.759 59.619 103.792 61.7244 103.592 67.6434C103.392 73.5624 102.999 75.5439 104.247 75.7115C105.494 75.879 105.705 73.2091 105.828 71.9998C105.952 70.7905 106.312 67.4831 106.312 67.4831H106.316Z" fill="#1A7170"/>
<path d="M111.767 65.5346C111.767 65.5346 110.712 76.2326 108.734 76.2326C107.036 76.2326 109.261 69.2973 108.469 64.4783L111.767 65.5346Z" fill="#1A7170"/>
<path d="M108.734 76.2907C110.741 76.2907 111.781 65.9788 111.825 65.5417C111.825 65.509 111.807 65.4835 111.774 65.4798C111.741 65.4798 111.716 65.498 111.712 65.5308C111.712 65.5563 111.443 68.2335 110.938 70.8743C110.276 74.342 109.512 76.1778 108.734 76.1778C108.599 76.1778 108.494 76.1304 108.41 76.0357C107.963 75.5367 108.152 73.7592 108.37 71.7012C108.607 69.4865 108.898 66.7292 108.527 64.4708C108.523 64.4381 108.494 64.4199 108.461 64.4235C108.429 64.4271 108.41 64.4563 108.414 64.4891C108.781 66.7328 108.49 69.4829 108.254 71.6902C108.025 73.8612 107.839 75.5768 108.323 76.1122C108.429 76.2324 108.567 76.2907 108.73 76.2907H108.734Z" fill="white"/>
<path d="M104.352 75.6135C104.423 75.6135 104.48 75.3656 104.48 75.0597C104.48 74.7539 104.423 74.5059 104.352 74.5059C104.282 74.5059 104.225 74.7539 104.225 75.0597C104.225 75.3656 104.282 75.6135 104.352 75.6135Z" fill="black"/>
<path d="M103.84 75.2783C103.892 75.2783 103.934 75.1054 103.934 74.8921C103.934 74.6788 103.892 74.5059 103.84 74.5059C103.787 74.5059 103.745 74.6788 103.745 74.8921C103.745 75.1054 103.787 75.2783 103.84 75.2783Z" fill="black"/>
<path d="M104.749 74.8921C104.749 75.1071 104.81 75.2783 104.887 75.2783C104.963 75.2783 105.025 75.1034 105.025 74.8921C105.025 74.6808 104.963 74.5059 104.887 74.5059C104.81 74.5059 104.749 74.6808 104.749 74.8921Z" fill="black"/>
<path d="M108.614 75.5551C108.57 75.8137 108.6 76.036 108.676 76.0469C108.753 76.0578 108.847 75.8575 108.891 75.5988C108.935 75.3401 108.906 75.1179 108.829 75.1069C108.753 75.096 108.658 75.2964 108.614 75.5551Z" fill="black"/>
<path d="M108.28 75.2491C108.254 75.4021 108.276 75.5296 108.323 75.5369C108.371 75.5442 108.433 75.4276 108.454 75.2782C108.48 75.1252 108.458 74.9977 108.411 74.9904C108.363 74.9831 108.301 75.0997 108.28 75.2491Z" fill="black"/>
<path d="M109.152 75.453C109.123 75.6388 109.152 75.7955 109.221 75.8064C109.287 75.8173 109.367 75.6753 109.396 75.4931C109.425 75.3073 109.396 75.1506 109.327 75.1397C109.258 75.1288 109.181 75.2708 109.152 75.453Z" fill="black"/>
<path d="M113.596 73.8614C113.596 73.8614 113.614 73.8614 113.621 73.8541C113.65 73.8395 113.661 73.8067 113.647 73.7776C111.381 69.1225 114.04 65.0211 114.069 64.981C114.087 64.9555 114.08 64.9191 114.054 64.9009C114.029 64.8827 113.992 64.8899 113.974 64.9154C113.945 64.9555 111.254 69.1079 113.545 73.8249C113.556 73.8468 113.574 73.8577 113.596 73.8577V73.8614Z" fill="white"/>
<path d="M106.316 67.5386C106.341 67.5386 106.363 67.5204 106.37 67.4985C106.771 66.0667 106.487 64.4089 106.483 64.3907C106.48 64.3616 106.447 64.3397 106.418 64.3434C106.389 64.347 106.367 64.3798 106.37 64.4089C106.37 64.4235 106.655 66.0557 106.261 67.4657C106.254 67.4949 106.272 67.5276 106.301 67.5349C106.305 67.5349 106.312 67.5349 106.316 67.5349V67.5386Z" fill="white"/>
<path d="M105.084 49.453C105.036 49.2016 104.923 48.9611 104.759 48.7607L105.084 49.453Z" fill="black"/>
<path d="M104.792 49.6971C104.632 49.5331 104.454 49.3838 104.268 49.249L104.792 49.6971Z" fill="black"/>
<path d="M111.654 49.7772C111.927 49.4348 112.228 49.1214 112.559 48.8336L111.654 49.7772Z" fill="black"/>
<path d="M107.974 51.5039C107.993 51.2488 107.938 50.9902 107.821 50.7643L107.974 51.5039Z" fill="black"/>
<path d="M108.323 51.4529C108.403 51.1979 108.454 50.9355 108.472 50.6696L108.323 51.4529Z" fill="black"/>
<path d="M108.752 51.6241C108.803 51.2233 108.949 50.8299 109.175 50.491L108.752 51.6241Z" fill="black"/>
<path d="M115.217 56.694C115.457 57.113 115.705 57.5283 115.959 57.9364C116.007 58.0129 115.887 58.0858 115.836 58.0093C115.581 57.6012 115.334 57.1859 115.094 56.7669C115.047 56.6867 115.17 56.6139 115.217 56.694Z" fill="black"/>
<path d="M114.978 57.8669L115.211 58.6575C115.236 58.745 115.098 58.7814 115.072 58.694C114.996 58.4316 114.919 58.1657 114.839 57.9033C114.814 57.8159 114.952 57.7795 114.978 57.8669Z" fill="black"/>
<path d="M114.16 56.6758C114.2 56.7778 114.24 56.8799 114.28 56.9855C114.294 57.0219 114.265 57.0657 114.229 57.0729C114.189 57.0839 114.156 57.062 114.141 57.0219C114.101 56.9199 114.061 56.8179 114.021 56.7123C114.007 56.6758 114.036 56.6321 114.072 56.6248C114.112 56.6139 114.145 56.6357 114.16 56.6758Z" fill="black"/>
<path d="M113.167 57.5573C113.207 57.6884 113.247 57.8196 113.287 57.9508C113.298 57.9872 113.273 58.0309 113.236 58.0382C113.196 58.0455 113.16 58.0273 113.149 57.9872C113.109 57.856 113.069 57.7249 113.028 57.5937C113.018 57.5573 113.043 57.5136 113.079 57.5063C113.12 57.499 113.156 57.5172 113.167 57.5573Z" fill="black"/>
<path d="M113.334 58.661C113.392 58.8395 113.447 59.018 113.505 59.2002C113.516 59.2366 113.491 59.2767 113.454 59.2876C113.414 59.2986 113.378 59.2731 113.367 59.2366C113.309 59.0581 113.254 58.8796 113.196 58.6974C113.185 58.661 113.21 58.6209 113.247 58.61C113.287 58.599 113.323 58.6245 113.334 58.661Z" fill="black"/>
<path d="M107.803 57.6593V58.4244C107.803 58.5154 107.661 58.5154 107.661 58.4244V57.6593C107.661 57.5682 107.803 57.5682 107.803 57.6593Z" fill="black"/>
<path d="M108.312 57.7431V58.1694C108.312 58.2058 108.279 58.2422 108.239 58.2422C108.199 58.2422 108.167 58.2095 108.167 58.1694V57.7431C108.167 57.7067 108.199 57.6702 108.239 57.6702C108.279 57.6702 108.312 57.703 108.312 57.7431Z" fill="black"/>
<path d="M107.578 57.907C107.549 58.0564 107.516 58.2094 107.487 58.3588C107.479 58.3952 107.436 58.4207 107.399 58.4098C107.359 58.3989 107.341 58.3624 107.348 58.3224L107.439 57.8706C107.447 57.8341 107.49 57.8086 107.527 57.8196C107.567 57.8305 107.585 57.8669 107.578 57.907Z" fill="black"/>
<path d="M104.803 61.116V61.8228C104.803 61.9139 104.661 61.9139 104.661 61.8228V61.116C104.661 61.0249 104.803 61.0249 104.803 61.116Z" fill="black"/>
<path d="M105.17 61.5968V62.3036C105.17 62.3947 105.028 62.3947 105.028 62.3036V61.5968C105.028 61.5057 105.17 61.5057 105.17 61.5968Z" fill="black"/>
<path d="M104.494 66.0406V66.8604C104.494 66.9514 104.352 66.9514 104.352 66.8604V66.0406C104.352 65.9495 104.494 65.9495 104.494 66.0406Z" fill="black"/>
<path d="M111.534 59.5606C111.647 59.7391 111.749 59.9286 111.833 60.1253C111.847 60.1618 111.844 60.2018 111.807 60.2237C111.778 60.2419 111.727 60.2346 111.709 60.1982C111.625 60.0014 111.523 59.8156 111.41 59.6335C111.363 59.557 111.483 59.4841 111.534 59.5606Z" fill="black"/>
<path d="M112.959 60.9885C113.101 61.1962 113.228 61.4112 113.341 61.6334C113.359 61.6662 113.348 61.7099 113.316 61.7318C113.283 61.75 113.236 61.7391 113.217 61.7063C113.105 61.484 112.977 61.2691 112.836 61.0614C112.814 61.0286 112.828 60.9812 112.861 60.963C112.897 60.9412 112.937 60.9557 112.959 60.9885Z" fill="black"/>
<path d="M113.636 61.2544C113.709 61.3637 113.753 61.4875 113.771 61.615C113.774 61.6515 113.734 61.6879 113.698 61.6879C113.654 61.6879 113.632 61.6551 113.625 61.615C113.625 61.6078 113.625 61.6078 113.625 61.615C113.625 61.6114 113.625 61.6078 113.625 61.6041C113.625 61.5968 113.625 61.5895 113.621 61.5823C113.621 61.5677 113.618 61.5567 113.614 61.5422C113.607 61.513 113.6 61.4875 113.589 61.462C113.589 61.4547 113.585 61.4474 113.581 61.4402C113.589 61.4547 113.581 61.4402 113.581 61.4365C113.574 61.422 113.567 61.4074 113.563 61.3964C113.549 61.3709 113.534 61.3454 113.519 61.3236C113.498 61.2944 113.512 61.2434 113.545 61.2252C113.581 61.207 113.621 61.2179 113.643 61.2507L113.636 61.2544Z" fill="black"/>
<path d="M117.345 59.3457C117.487 59.5315 117.615 59.7283 117.724 59.9396C117.742 59.9724 117.731 60.0161 117.698 60.0379C117.666 60.0561 117.618 60.0452 117.6 60.0124C117.491 59.8048 117.367 59.6044 117.221 59.4186C117.199 59.3894 117.217 59.3384 117.247 59.3202C117.283 59.2983 117.319 59.3166 117.345 59.3457Z" fill="black"/>
<path d="M118.367 59.965C118.512 60.1981 118.658 60.4313 118.803 60.6608C118.85 60.7374 118.73 60.8102 118.679 60.7337C118.534 60.5005 118.388 60.2674 118.243 60.0378C118.196 59.9613 118.316 59.8884 118.367 59.965Z" fill="black"/>
<path d="M118.152 60.4494C118.24 60.6353 118.305 60.832 118.345 61.0324C118.353 61.0688 118.334 61.1089 118.294 61.1198C118.258 61.1308 118.214 61.1089 118.207 61.0688C118.17 60.8794 118.112 60.6936 118.028 60.5187C118.01 60.4822 118.017 60.4422 118.054 60.4203C118.087 60.4021 118.134 60.4094 118.152 60.4458V60.4494Z" fill="black"/>
<path d="M119.683 61.3126C119.894 61.6077 120.09 61.9138 120.272 62.2308C120.316 62.3109 120.196 62.3838 120.149 62.3036C119.97 61.9866 119.774 61.6806 119.559 61.3855C119.538 61.3527 119.556 61.3053 119.585 61.2871C119.621 61.2653 119.661 61.2798 119.683 61.3126Z" fill="black"/>
<path d="M119.818 62.6313C119.898 62.7952 119.974 62.9556 120.055 63.1195C120.073 63.1523 120.066 63.196 120.029 63.2179C119.996 63.2361 119.949 63.2288 119.931 63.1924C119.851 63.0284 119.774 62.8681 119.694 62.7042C119.676 62.6714 119.683 62.6276 119.719 62.6058C119.752 62.5876 119.8 62.5949 119.818 62.6313Z" fill="black"/>
<path d="M120.625 63.3852C120.814 63.6694 120.988 63.9645 121.148 64.2669C121.192 64.3471 121.068 64.42 121.025 64.3398C120.865 64.0374 120.69 63.7423 120.501 63.4581C120.45 63.3816 120.574 63.3087 120.625 63.3852Z" fill="black"/>
<path d="M108.094 66.944V67.2063C108.094 67.2427 108.061 67.2791 108.021 67.2791C107.981 67.2791 107.948 67.2464 107.948 67.2063V66.944C107.948 66.9075 107.981 66.8711 108.021 66.8711C108.061 66.8711 108.094 66.9039 108.094 66.944Z" fill="black"/>
<path d="M110.01 69.2096V69.4719C110.01 69.5083 109.978 69.5448 109.938 69.5448C109.898 69.5448 109.865 69.512 109.865 69.4719V69.2096C109.865 69.1732 109.898 69.1367 109.938 69.1367C109.978 69.1367 110.01 69.1695 110.01 69.2096Z" fill="black"/>
<path d="M112.429 67.534V67.7963C112.429 67.8327 112.396 67.8692 112.356 67.8692C112.316 67.8692 112.283 67.8364 112.283 67.7963V67.534C112.283 67.4976 112.316 67.4611 112.356 67.4611C112.396 67.4611 112.429 67.4939 112.429 67.534Z" fill="black"/>
<path d="M108.069 68.0112V68.4375C108.069 68.4739 108.036 68.5104 107.996 68.5104C107.956 68.5104 107.923 68.4776 107.923 68.4375V68.0112C107.923 67.9748 107.956 67.9384 107.996 67.9384C108.036 67.9384 108.069 67.9711 108.069 68.0112Z" fill="black"/>
<path d="M110.472 70.2659V70.6921C110.472 70.7286 110.44 70.765 110.4 70.765C110.359 70.765 110.327 70.7322 110.327 70.6921V70.2659C110.327 70.2294 110.359 70.193 110.4 70.193C110.44 70.193 110.472 70.2258 110.472 70.2659Z" fill="black"/>
<path d="M112.501 72.2182V72.6445C112.501 72.681 112.469 72.7174 112.429 72.7174C112.389 72.7174 112.356 72.6846 112.356 72.6445V72.2182C112.356 72.1818 112.389 72.1454 112.429 72.1454C112.469 72.1454 112.501 72.1782 112.501 72.2182Z" fill="black"/>
<path d="M107.669 66.8966C107.661 67.1189 107.654 67.3411 107.647 67.5597C107.647 67.6508 107.501 67.6508 107.505 67.5597C107.512 67.3375 107.519 67.1152 107.527 66.8966C107.527 66.8055 107.672 66.8055 107.669 66.8966Z" fill="black"/>
<path d="M110.636 69.0457C110.629 69.2679 110.621 69.4902 110.614 69.7088C110.614 69.7998 110.468 69.7998 110.472 69.7088C110.479 69.4865 110.487 69.2643 110.494 69.0457C110.494 68.9546 110.64 68.9546 110.636 69.0457Z" fill="black"/>
<path d="M104.443 69.4282C104.396 69.6322 104.349 69.8399 104.301 70.0439C104.279 70.1313 104.145 70.0949 104.163 70.0075C104.21 69.8034 104.258 69.5958 104.305 69.3917C104.327 69.3043 104.462 69.3407 104.443 69.4282Z" fill="black"/>
<path d="M105.229 70.5464V71.8981C105.229 71.9892 105.086 71.9892 105.086 71.8981V70.5464C105.086 70.4553 105.229 70.4553 105.229 70.5464Z" fill="black"/>
<path d="M123.375 54.4613C123.356 54.4249 123.335 54.3848 123.313 54.352C123.302 54.3338 123.287 54.3156 123.276 54.2974C123.269 54.2901 123.265 54.2828 123.258 54.2719C123.254 54.2646 123.262 54.2791 123.258 54.2682C123.258 54.2646 123.251 54.2609 123.247 54.2536C123.192 54.1881 123.131 54.1261 123.065 54.0751C123.036 54.0532 123.039 53.9986 123.065 53.9731C123.098 53.9439 123.134 53.9476 123.167 53.9731C123.309 54.086 123.426 54.2281 123.506 54.3884C123.524 54.4212 123.517 54.4686 123.48 54.4868C123.448 54.505 123.4 54.4977 123.382 54.4613H123.375Z" fill="black"/>
<path d="M123.014 54.771C123.014 54.771 123.01 54.7674 123.01 54.7637C123.007 54.7601 123.003 54.7528 122.999 54.7492C122.992 54.7382 122.985 54.7309 122.978 54.72C122.963 54.7018 122.945 54.6836 122.93 54.6654C122.898 54.6289 122.865 54.5925 122.832 54.5597C122.763 54.4905 122.69 54.4249 122.614 54.3666C122.585 54.3447 122.589 54.2901 122.614 54.2646C122.647 54.2354 122.683 54.2391 122.716 54.2646C122.876 54.3921 123.018 54.5378 123.141 54.6982C123.163 54.7273 123.149 54.7783 123.116 54.7965C123.079 54.8147 123.043 54.8038 123.018 54.771H123.014Z" fill="black"/>
<path d="M123.553 56.6359C123.436 56.4902 123.323 56.3444 123.207 56.1987C123.185 56.1696 123.178 56.1258 123.207 56.0967C123.232 56.0748 123.283 56.0639 123.309 56.0967C123.425 56.2424 123.538 56.3881 123.655 56.5339C123.677 56.563 123.684 56.6067 123.655 56.6359C123.629 56.6578 123.578 56.6687 123.553 56.6359Z" fill="black"/>
<path d="M124.585 56.8216C124.585 56.8216 124.578 56.7961 124.574 56.7851C124.571 56.7742 124.563 56.7596 124.56 56.7487C124.56 56.7487 124.567 56.7633 124.56 56.7523C124.56 56.7523 124.56 56.7451 124.556 56.7414C124.556 56.7341 124.549 56.7305 124.549 56.7232C124.541 56.7123 124.538 56.7013 124.531 56.6904C124.523 56.6795 124.516 56.6685 124.509 56.6613L124.501 56.654C124.501 56.654 124.512 56.6649 124.501 56.6576C124.498 56.654 124.494 56.6467 124.49 56.643C124.472 56.6212 124.454 56.603 124.432 56.5847C124.403 56.5592 124.407 56.5082 124.432 56.4827C124.461 56.4536 124.501 56.4572 124.534 56.4827C124.625 56.5592 124.691 56.6685 124.72 56.7851C124.727 56.8216 124.709 56.8653 124.669 56.8726C124.633 56.8799 124.592 56.8616 124.582 56.8216H124.585Z" fill="black"/>
<path d="M124.745 58.6428C124.734 58.6136 124.723 58.5809 124.712 58.5517C124.712 58.5517 124.701 58.5262 124.709 58.5408C124.709 58.5335 124.705 58.5299 124.701 58.5226C124.694 58.508 124.687 58.4934 124.683 58.4788C124.658 58.4205 124.625 58.3659 124.596 58.3112C124.577 58.2785 124.588 58.2311 124.621 58.2129C124.654 58.1947 124.698 58.2056 124.72 58.2384C124.789 58.3513 124.843 58.4752 124.887 58.6027C124.898 58.6392 124.873 58.6829 124.836 58.6902C124.796 58.6974 124.763 58.6792 124.749 58.6391L124.745 58.6428Z" fill="black"/>
<path d="M125.672 58.876C125.629 58.7303 125.585 58.5846 125.541 58.4425C125.53 58.406 125.556 58.3623 125.592 58.355C125.632 58.3477 125.669 58.366 125.68 58.406C125.723 58.5518 125.767 58.6975 125.811 58.8396C125.822 58.876 125.796 58.9197 125.76 58.927C125.72 58.9343 125.683 58.9161 125.672 58.876Z" fill="black"/>
<path d="M125.741 61.3128C125.745 61.1598 125.741 61.0104 125.723 60.8574C125.719 60.821 125.759 60.7845 125.796 60.7845C125.839 60.7845 125.861 60.8173 125.869 60.8574C125.887 61.0068 125.89 61.1598 125.887 61.3128C125.887 61.3493 125.854 61.3857 125.814 61.3857C125.778 61.3857 125.741 61.3529 125.741 61.3128Z" fill="black"/>
<path d="M126.778 65.6072C126.789 65.7457 126.774 65.8878 126.731 66.0189C126.72 66.0554 126.68 66.0809 126.643 66.0699C126.607 66.059 126.581 66.0189 126.592 65.9825C126.603 65.9533 126.61 65.9206 126.618 65.8914C126.621 65.8732 126.625 65.8586 126.629 65.8404C126.629 65.8331 126.629 65.8258 126.629 65.8185C126.629 65.8295 126.629 65.8076 126.629 65.804C126.636 65.7384 126.636 65.6728 126.629 65.6072C126.629 65.5708 126.665 65.5344 126.701 65.5344C126.742 65.5344 126.771 65.5671 126.774 65.6072H126.778Z" fill="black"/>
<path d="M125.869 67.0095C125.88 67.2135 125.851 67.4212 125.778 67.6143C125.763 67.6507 125.73 67.6762 125.69 67.6653C125.654 67.6544 125.628 67.6143 125.639 67.5779C125.705 67.3957 125.734 67.2063 125.723 67.0095C125.723 66.9694 125.756 66.9366 125.796 66.9366C125.836 66.9366 125.865 66.9694 125.869 67.0095Z" fill="black"/>
<path d="M124.251 71.2057C124.185 71.4134 124.069 71.6028 123.912 71.7559C123.883 71.7814 123.839 71.785 123.81 71.7559C123.781 71.7267 123.781 71.683 123.81 71.6538C123.949 71.519 124.054 71.3514 124.113 71.1656C124.124 71.1292 124.164 71.1073 124.2 71.1146C124.236 71.1255 124.262 71.1656 124.251 71.2021V71.2057Z" fill="black"/>
<path d="M122.734 67.5014V66.7655C122.734 66.6744 122.876 66.6744 122.876 66.7655V67.5014C122.876 67.5925 122.734 67.5925 122.734 67.5014Z" fill="black"/>
<path d="M122.439 66.1719C122.45 66.0152 122.443 65.8549 122.421 65.6982C122.414 65.6618 122.432 65.6217 122.472 65.6108C122.505 65.5998 122.552 65.6217 122.56 65.6618C122.585 65.8294 122.596 66.0006 122.585 66.1719C122.585 66.2119 122.556 66.2447 122.512 66.2447C122.476 66.2447 122.439 66.2119 122.439 66.1719Z" fill="black"/>
<path d="M120.923 65.2831C120.894 65.101 120.818 64.9334 120.698 64.7986C120.672 64.7694 120.668 64.7257 120.698 64.6965C120.723 64.671 120.774 64.6674 120.8 64.6965C120.938 64.8496 121.033 65.0427 121.066 65.2467C121.073 65.2831 121.055 65.3232 121.014 65.3341C120.982 65.3451 120.934 65.3232 120.927 65.2831H120.923Z" fill="black"/>
<path d="M116.556 63.928C116.512 64.1721 116.501 64.4162 116.516 64.6639C116.52 64.755 116.377 64.755 116.374 64.6639C116.359 64.4052 116.374 64.1466 116.421 63.8915C116.428 63.8551 116.476 63.8332 116.509 63.8405C116.549 63.8514 116.563 63.8915 116.56 63.928H116.556Z" fill="black"/>
<path d="M115.865 64.3542V65.1448C115.865 65.2359 115.723 65.2359 115.723 65.1448V64.3542C115.723 64.2631 115.865 64.2631 115.865 64.3542Z" fill="black"/>
<path d="M119.036 75.0012C118.887 75.034 118.737 75.0704 118.588 75.1032C118.552 75.1105 118.508 75.0922 118.501 75.0522C118.494 75.0157 118.512 74.972 118.552 74.9647C118.701 74.9319 118.85 74.8955 118.999 74.8627C119.036 74.8554 119.079 74.8737 119.087 74.9137C119.094 74.9502 119.076 74.9939 119.036 75.0012Z" fill="black"/>
<path d="M118.167 75.5074C117.985 75.5074 117.803 75.5111 117.621 75.5257C117.581 75.5257 117.548 75.4892 117.548 75.4528C117.548 75.4127 117.581 75.3836 117.621 75.3799C117.803 75.3654 117.985 75.3581 118.167 75.3617C118.257 75.3617 118.257 75.5038 118.167 75.5038V75.5074Z" fill="black"/>
<path d="M115.818 75.3654C115.654 75.38 115.49 75.3254 115.363 75.2197C115.334 75.1978 115.338 75.1432 115.363 75.1177C115.392 75.0885 115.432 75.0922 115.465 75.1177C115.472 75.1213 115.472 75.125 115.465 75.1177C115.465 75.1177 115.472 75.1213 115.476 75.125C115.483 75.1286 115.49 75.1359 115.498 75.1395C115.512 75.1505 115.527 75.1578 115.545 75.165C115.552 75.1687 115.559 75.1723 115.57 75.176C115.57 75.176 115.592 75.1833 115.578 75.176C115.596 75.1833 115.61 75.1869 115.628 75.1942C115.647 75.1978 115.661 75.2051 115.679 75.2088C115.687 75.2088 115.694 75.2088 115.698 75.2088C115.705 75.2088 115.705 75.2088 115.698 75.2088C115.701 75.2088 115.705 75.2088 115.712 75.2088C115.748 75.2124 115.781 75.2124 115.818 75.2088C115.854 75.2088 115.89 75.2452 115.89 75.2816C115.89 75.3217 115.858 75.3509 115.818 75.3545V75.3654Z" fill="black"/>
<path d="M115.167 71.6647C115.083 71.6064 115.003 71.5481 114.919 71.4898C114.905 71.4788 114.89 71.4643 114.886 71.4461C114.883 71.4278 114.886 71.406 114.894 71.3914C114.912 71.3623 114.959 71.344 114.992 71.3659C115.076 71.4242 115.156 71.4825 115.24 71.5408C115.254 71.5517 115.269 71.5663 115.273 71.5845C115.276 71.6027 115.273 71.6246 115.265 71.6392C115.247 71.6683 115.2 71.6865 115.167 71.6647Z" fill="black"/>
<path d="M113.949 70.7796C113.836 70.5792 113.778 70.357 113.774 70.1275C113.774 70.0364 113.916 70.0364 113.916 70.1275C113.916 70.3315 113.974 70.5282 114.073 70.7067C114.116 70.7869 113.996 70.8598 113.949 70.7796Z" fill="black"/>
<path d="M114.298 72.4079C114.047 72.1128 113.796 71.7667 113.825 71.3587C113.832 71.2676 113.974 71.2676 113.967 71.3587C113.938 71.7303 114.17 72.04 114.396 72.3059C114.454 72.3752 114.356 72.4772 114.294 72.4079H114.298Z" fill="black"/>
<path d="M115.628 69.6542C115.588 69.3044 115.57 68.951 115.57 68.6013C115.57 68.5102 115.712 68.5102 115.712 68.6013C115.712 68.9547 115.73 69.3044 115.77 69.6542C115.774 69.6943 115.734 69.7234 115.698 69.7271C115.654 69.7271 115.632 69.6943 115.625 69.6542H115.628Z" fill="black"/>
<path d="M116.152 68.6851C116.232 68.9475 116.272 69.2207 116.272 69.494C116.272 69.5851 116.13 69.5851 116.13 69.494C116.13 69.2316 116.09 68.973 116.017 68.7216C115.992 68.6341 116.127 68.5977 116.156 68.6851H116.152Z" fill="black"/>
<path d="M117.741 71.3589C117.77 71.0893 117.752 70.816 117.683 70.5501C117.661 70.4626 117.796 70.4225 117.821 70.5136C117.891 70.7905 117.913 71.0783 117.883 71.3589C117.88 71.3953 117.854 71.4317 117.811 71.4317C117.774 71.4317 117.734 71.399 117.738 71.3589H117.741Z" fill="black"/>
<path d="M118.272 71.1476C118.287 70.8707 118.272 70.5938 118.239 70.3206C118.236 70.2841 118.276 70.2477 118.312 70.2477C118.356 70.2477 118.378 70.2805 118.385 70.3206C118.421 70.5938 118.432 70.8707 118.418 71.1476C118.414 71.2387 118.272 71.2387 118.276 71.1476H118.272Z" fill="black"/>
<path d="M117.716 69.6904C117.673 69.8762 117.629 70.0657 117.589 70.2515C117.581 70.2879 117.538 70.3098 117.501 70.3025C117.461 70.2916 117.443 70.2515 117.45 70.215C117.494 70.0292 117.538 69.8398 117.578 69.654C117.585 69.6175 117.629 69.5957 117.665 69.603C117.705 69.6139 117.724 69.654 117.716 69.6904Z" fill="black"/>
<path d="M117.945 65.9496C118 66.241 118.021 66.5398 118.007 66.8349C118.003 66.926 117.861 66.926 117.865 66.8349C117.876 66.5507 117.858 66.2665 117.807 65.986C117.799 65.9496 117.817 65.9095 117.858 65.8986C117.89 65.8876 117.938 65.9095 117.945 65.9496Z" fill="black"/>
<path d="M111.385 57.3096C111.451 57.612 111.513 57.9144 111.578 58.2168C111.596 58.3079 111.462 58.3443 111.44 58.2532C111.374 57.9508 111.312 57.6484 111.247 57.346C111.228 57.2549 111.363 57.2185 111.385 57.3096Z" fill="black"/>
<path d="M110.698 55.4374C110.72 55.645 110.738 55.8491 110.76 56.0567C110.763 56.0968 110.723 56.1296 110.687 56.1296C110.647 56.1296 110.621 56.0968 110.614 56.0567C110.592 55.8491 110.574 55.645 110.552 55.4374C110.548 55.3973 110.588 55.3645 110.625 55.3645C110.665 55.3645 110.69 55.3973 110.698 55.4374Z" fill="black"/>
<path d="M105.334 57.4444C105.28 57.6813 105.251 57.9181 105.24 58.1585C105.24 58.2496 105.094 58.2496 105.097 58.1585C105.108 57.9035 105.141 57.6521 105.196 57.4044C105.218 57.3133 105.353 57.3534 105.334 57.4408V57.4444Z" fill="black"/>
<path d="M103.905 57.2696C103.811 57.878 103.763 58.4901 103.76 59.1058C103.76 59.1969 103.617 59.1969 103.617 59.1058C103.621 58.4792 103.676 57.8525 103.77 57.2332C103.785 57.1421 103.92 57.1822 103.909 57.2696H103.905Z" fill="black"/>
<path d="M107.185 52.3015C107.185 52.3015 105.967 50.4835 104.123 52.1776C104.123 52.1776 105.483 53.6022 107.185 52.3015Z" fill="white"/>
<path d="M105.05 52.1523C105.05 52.5093 105.152 52.7971 105.28 52.7971C105.407 52.7971 105.509 52.5093 105.509 52.1523C105.509 51.7952 105.407 51.5074 105.28 51.5074C105.152 51.5074 105.05 51.7952 105.05 52.1523Z" fill="#1D1D1B"/>
<path d="M105.279 52.8517C105.094 52.8517 104.996 52.4983 104.996 52.1485C104.996 51.7988 105.094 51.4454 105.279 51.4454C105.465 51.4454 105.563 51.7988 105.563 52.1485C105.563 52.4983 105.465 52.8517 105.279 52.8517ZM105.279 51.562C105.21 51.562 105.108 51.7951 105.108 52.1485C105.108 52.502 105.21 52.7351 105.279 52.7351C105.348 52.7351 105.45 52.502 105.45 52.1485C105.45 51.7951 105.348 51.562 105.279 51.562Z" fill="#1D1D1B"/>
<path d="M113.003 52.5457C113.003 52.5457 111.785 50.7277 109.941 52.4218C109.941 52.4218 111.301 53.8464 113.003 52.5457Z" fill="white"/>
<path d="M110.869 52.3926C110.869 52.7497 110.971 53.0375 111.098 53.0375C111.226 53.0375 111.328 52.7497 111.328 52.3926C111.328 52.0356 111.226 51.7477 111.098 51.7477C110.971 51.7477 110.869 52.0356 110.869 52.3926Z" fill="#1D1D1B"/>
<path d="M111.098 53.0921C110.912 53.0921 110.814 52.7387 110.814 52.389C110.814 52.0392 110.912 51.6858 111.098 51.6858C111.283 51.6858 111.381 52.0392 111.381 52.389C111.381 52.7387 111.283 53.0921 111.098 53.0921ZM111.098 51.8024C111.029 51.8024 110.927 52.0356 110.927 52.389C110.927 52.7424 111.029 52.9755 111.098 52.9755C111.167 52.9755 111.269 52.7424 111.269 52.389C111.269 52.0356 111.167 51.8024 111.098 51.8024Z" fill="#1D1D1B"/>
<path d="M108.974 54.6583C109.272 54.6583 109.577 54.3705 109.592 54.3559C109.614 54.3341 109.617 54.2977 109.592 54.2758C109.57 54.2539 109.534 54.2503 109.512 54.2758C109.508 54.2794 109.123 54.6401 108.854 54.5235C108.661 54.4397 108.559 54.1046 108.567 53.558L108.454 53.5471C108.454 53.5471 108.272 54.4215 107.887 54.5235C107.737 54.5636 107.567 54.4725 107.377 54.2576C107.356 54.2321 107.319 54.2321 107.297 54.2503C107.272 54.2721 107.272 54.3086 107.29 54.3304C107.508 54.5818 107.716 54.6838 107.912 54.6328C108.185 54.56 108.363 54.1993 108.461 53.9187C108.497 54.3049 108.614 54.5454 108.803 54.6292C108.854 54.6511 108.908 54.662 108.963 54.662L108.974 54.6583Z" fill="white"/>
<path d="M111.756 54.2393C113.101 54.2393 114.643 53.722 114.661 53.7147C114.69 53.7037 114.709 53.671 114.698 53.6418C114.687 53.6127 114.654 53.5944 114.625 53.6054C114.607 53.6127 112.956 54.1628 111.596 54.1191C111.563 54.1191 111.538 54.141 111.538 54.1737C111.538 54.2065 111.559 54.232 111.592 54.232C111.647 54.232 111.701 54.232 111.756 54.232V54.2393Z" fill="white"/>
<path d="M114.287 55.5471C114.312 55.5471 114.338 55.5289 114.341 55.4997C114.345 55.4706 114.327 55.4378 114.294 55.4341C114.272 55.4305 112.178 55.0589 111.629 54.5597C111.607 54.5379 111.57 54.5415 111.549 54.5634C111.527 54.5852 111.53 54.6217 111.552 54.6435C112.127 55.1645 114.189 55.5325 114.276 55.5471C114.276 55.5471 114.283 55.5471 114.287 55.5471Z" fill="white"/>
<path d="M112.937 57.0115C112.937 57.0115 112.967 57.0043 112.977 56.9933C112.999 56.9715 112.999 56.935 112.977 56.9132C112.417 56.3885 111.33 55.321 111.214 55.0259C111.203 54.9968 111.17 54.9822 111.141 54.9931C111.112 55.0041 111.097 55.0368 111.108 55.066C111.265 55.4631 112.832 56.935 112.901 56.997C112.912 57.0079 112.927 57.0115 112.941 57.0115H112.937Z" fill="white"/>
<path d="M105.774 54.2396C105.796 54.2396 105.818 54.225 105.829 54.2031C105.84 54.174 105.825 54.1412 105.792 54.1303C104.465 53.6639 101.89 52.7167 101.64 52.4798C101.618 52.458 101.581 52.458 101.56 52.4798C101.538 52.5017 101.538 52.5381 101.56 52.56C101.887 52.877 105.596 54.1813 105.752 54.2359C105.76 54.2359 105.763 54.2359 105.771 54.2359L105.774 54.2396Z" fill="white"/>
<path d="M105.505 54.578C105.534 54.578 105.559 54.5562 105.563 54.527C105.563 54.4942 105.545 54.4687 105.512 54.4651C105.363 54.4505 101.887 54.0679 101.516 54.1299C101.483 54.1335 101.465 54.1627 101.468 54.1955C101.472 54.2283 101.501 54.2465 101.534 54.2428C101.821 54.1991 104.254 54.4432 105.501 54.578C105.501 54.578 105.505 54.578 105.508 54.578H105.505Z" fill="white"/>
<path d="M101.756 56.1955C101.756 56.1955 101.759 56.1955 101.763 56.1955C103.752 55.9514 105.232 55.1061 105.247 55.0952C105.272 55.0806 105.283 55.0442 105.268 55.0187C105.254 54.9932 105.217 54.9822 105.192 54.9968C105.177 55.0041 103.716 55.8384 101.748 56.0825C101.716 56.0862 101.694 56.1153 101.697 56.1445C101.697 56.1736 101.727 56.1955 101.752 56.1955H101.756Z" fill="white"/>
<path d="M108.374 53.6021C108.447 53.6749 108.563 53.6822 108.643 53.6166C108.843 53.4563 109.178 53.143 109.152 52.8479C109.116 52.4289 108.112 52.4289 107.908 52.7277C107.759 52.9463 108.156 53.3907 108.374 53.6021Z" fill="#85D7DF"/>
<path d="M61.4464 67.5341C61.4464 67.5341 59.0282 72.7683 54.3263 73.7153C54.3263 73.7153 56.9554 73.9958 57.2718 74.8409C57.5882 75.6823 55.5518 75.8608 52.6427 75.8608C49.7336 75.8608 45.1008 76.072 41.9444 69.1149C38.788 62.1578 44.2353 52.2138 46.3626 53.9039C48.0245 55.2261 43.6608 56.5738 42.9262 62.2306C42.1881 67.8874 44.8208 71.3295 44.8208 71.3295C44.8208 71.3295 42.8571 66.7983 46.399 61.8081C49.9408 56.8179 53.1445 56.1222 54.7372 48.0978C54.7372 48.0978 56.2609 49.0667 57.1118 50.2177C57.1118 50.2177 59.9518 49.9919 61.4464 50.1157C61.4464 50.1157 62.9918 47.9849 63.6937 47.6352C63.6937 47.6352 64.97 50.3671 64.9446 55.1059C64.9191 59.8448 63.9118 61.9028 64.1046 67.6907C64.2973 73.4786 64.6864 75.4164 63.4646 75.5803C62.2427 75.7442 62.0391 73.1326 61.9191 71.9524C61.7955 70.7686 61.4464 67.5341 61.4464 67.5341Z" fill="#85D7DF"/>
<path d="M56.1191 65.6329C56.1191 65.6329 57.1482 76.0941 59.0864 76.0941C60.7483 76.0941 58.5701 69.3118 59.3446 64.5984L56.1191 65.6329Z" fill="#85D7DF"/>
<path d="M59.0826 76.1523C57.119 76.1523 56.1044 66.0699 56.0608 65.6401C56.0608 65.6109 56.079 65.5818 56.1117 65.5781C56.1444 65.5781 56.1699 65.5963 56.1735 65.6291C56.1735 65.6546 56.4353 68.2736 56.9299 70.8561C57.5772 74.2472 58.3226 76.043 59.0826 76.043C59.2135 76.043 59.3154 75.9993 59.399 75.9046C59.839 75.4165 59.6535 73.679 59.439 71.6647C59.2099 69.4974 58.9226 66.802 59.2863 64.591C59.2899 64.5619 59.319 64.54 59.3517 64.5437C59.3808 64.5473 59.4026 64.5765 59.399 64.6092C59.039 66.802 59.3263 69.4902 59.5554 71.6501C59.7808 73.7737 59.959 75.4492 59.4863 75.9738C59.3808 76.0903 59.2463 76.1486 59.0863 76.1486L59.0826 76.1523Z" fill="#85D7DF"/>
<path d="M63.3665 75.4896C63.4369 75.4896 63.494 75.2466 63.494 74.9467C63.494 74.6469 63.4369 74.4039 63.3665 74.4039C63.2961 74.4039 63.239 74.6469 63.239 74.9467C63.239 75.2466 63.2961 75.4896 63.3665 75.4896Z" fill="#94FFD8"/>
<path d="M63.9631 74.7828C63.9631 74.9905 63.9231 75.1617 63.8684 75.1617C63.8138 75.1617 63.7737 74.9941 63.7737 74.7828C63.7737 74.5715 63.8138 74.4039 63.8684 74.4039C63.9231 74.4039 63.9631 74.5715 63.9631 74.7828Z" fill="#94FFD8"/>
<path d="M62.9778 74.7828C62.9778 74.9905 62.9159 75.1617 62.8394 75.1617C62.7629 75.1617 62.7009 74.9941 62.7009 74.7828C62.7009 74.5715 62.7629 74.4039 62.8394 74.4039C62.9159 74.4039 62.9778 74.5715 62.9778 74.7828Z" fill="#94FFD8"/>
<path d="M59.1997 75.4312C59.2398 75.6862 59.2143 75.9012 59.1377 75.9121C59.0612 75.923 58.9701 75.7263 58.9264 75.4749C58.8827 75.2235 58.9119 75.0049 58.9884 74.994C59.0649 74.983 59.156 75.1798 59.1997 75.4312Z" fill="#94FFD8"/>
<path d="M59.5267 75.1324C59.5522 75.2818 59.5304 75.4056 59.483 75.4129C59.4356 75.4202 59.3773 75.3073 59.3518 75.1579C59.3263 75.0085 59.3482 74.8846 59.3956 74.8773C59.4429 74.8701 59.5012 74.983 59.5267 75.1324Z" fill="#94FFD8"/>
<path d="M58.6722 75.3292C58.7013 75.5113 58.6722 75.6643 58.6066 75.6753C58.541 75.6862 58.4645 75.5478 58.4354 75.3656C58.4062 75.1834 58.4354 75.0304 58.5009 75.0195C58.5665 75.0085 58.643 75.147 58.6722 75.3292Z" fill="#94FFD8"/>
<path d="M54.3264 73.7737C54.3264 73.7737 54.3082 73.7737 54.301 73.7664C54.2719 73.7518 54.261 73.719 54.2755 73.6935C56.4901 69.1404 53.89 65.1337 53.8646 65.0936C53.8464 65.0681 53.8537 65.0353 53.8791 65.0171C53.9046 64.9989 53.9373 65.0062 53.9555 65.0317C53.981 65.0718 56.6173 69.1331 54.3737 73.7445C54.3628 73.7627 54.3446 73.7773 54.3228 73.7773L54.3264 73.7737Z" fill="#94FFD8"/>
<path d="M61.4469 67.5931C61.4214 67.5931 61.3995 67.5786 61.3922 67.553C60.9987 66.1504 61.2793 64.5327 61.2829 64.5145C61.2866 64.4853 61.3157 64.4635 61.3485 64.4708C61.3777 64.4744 61.3995 64.5036 61.3922 64.5364C61.3922 64.5509 61.1153 66.1467 61.5015 67.5239C61.5088 67.5531 61.4942 67.5858 61.4615 67.5931C61.4578 67.5931 61.4505 67.5931 61.4469 67.5931Z" fill="#94FFD8"/>
<path d="M62.6536 49.9045C62.7009 49.6568 62.8102 49.4236 62.9705 49.2269L62.6536 49.9045Z" fill="#94FFD8"/>
<path d="M62.9373 50.145C63.0939 49.9847 63.2688 49.839 63.451 49.7078L62.9373 50.145Z" fill="#94FFD8"/>
<path d="M56.2281 50.2215C55.9627 49.8863 55.6645 49.5803 55.3445 49.2997L56.2281 50.2215Z" fill="#94FFD8"/>
<path d="M55.916 50.4765C55.7922 50.3854 55.6646 50.2943 55.5408 50.2069L55.916 50.4765Z" fill="#94FFD8"/>
<path d="M59.8245 51.9081C59.8063 51.6604 59.8609 51.4054 59.9739 51.1831L59.8245 51.9081Z" fill="#94FFD8"/>
<path d="M59.4866 51.8607C59.4064 51.613 59.359 51.3543 59.3408 51.0956L59.4866 51.8607Z" fill="#94FFD8"/>
<path d="M59.0653 52.0284C59.0143 51.6349 58.8722 51.2523 58.6536 50.9208L59.0653 52.0284Z" fill="#94FFD8"/>
<path d="M52.7445 56.9892C52.5117 57.3972 52.2681 57.8053 52.0208 58.206C51.9736 58.2826 52.0936 58.3518 52.1408 58.2753C52.3917 57.8745 52.6317 57.4701 52.8645 57.0584C52.9081 56.9819 52.7881 56.909 52.7445 56.9892Z" fill="#94FFD8"/>
<path d="M52.974 58.1329C52.8974 58.3916 52.8246 58.6503 52.7481 58.9089C52.7226 58.9964 52.8574 59.0328 52.8829 58.9454C52.9594 58.6867 53.0322 58.428 53.1088 58.1693C53.1343 58.0819 52.9995 58.0455 52.974 58.1329Z" fill="#94FFD8"/>
<path d="M53.7774 56.971C53.7373 57.073 53.6973 57.1713 53.6572 57.2734C53.6426 57.3061 53.6717 57.3499 53.7045 57.3572C53.7446 57.3681 53.7774 57.3462 53.7883 57.3098C53.8284 57.2078 53.8685 57.1094 53.9086 57.0074C53.9231 56.9746 53.894 56.9309 53.8612 56.9236C53.8211 56.9127 53.7883 56.9345 53.7774 56.971Z" fill="#94FFD8"/>
<path d="M54.7447 57.8306C54.7046 57.9581 54.6645 58.0893 54.6281 58.2168C54.6171 58.2532 54.639 58.2933 54.6754 58.3006C54.7119 58.3079 54.7483 58.2897 54.7592 58.2532C54.7993 58.1257 54.8394 57.9946 54.8758 57.8671C54.8867 57.8306 54.8649 57.7905 54.8285 57.7833C54.792 57.776 54.7556 57.7942 54.7447 57.8306Z" fill="#94FFD8"/>
<path d="M54.5847 58.9124C54.5301 59.0873 54.4718 59.2622 54.4171 59.4371C54.4062 59.4735 54.4317 59.5136 54.4645 59.5209C54.5009 59.5318 54.5373 59.5099 54.5483 59.4735C54.6029 59.2986 54.6612 59.1237 54.7159 58.9489C54.7268 58.9124 54.7013 58.8724 54.6685 58.8651C54.6321 58.8541 54.5956 58.876 54.5847 58.9124Z" fill="#94FFD8"/>
<path d="M59.9956 57.929V58.6759C59.9956 58.7669 60.1341 58.7669 60.1341 58.6759V57.929C60.1341 57.8379 59.9956 57.8379 59.9956 57.929Z" fill="#94FFD8"/>
<path d="M59.4973 58.0127V58.4281C59.4973 58.4645 59.5301 58.5009 59.5665 58.4973C59.603 58.4973 59.6358 58.4681 59.6358 58.4281V58.0127C59.6358 57.9763 59.603 57.9398 59.5665 57.9435C59.5301 57.9435 59.4973 57.9726 59.4973 58.0127Z" fill="#94FFD8"/>
<path d="M60.2137 58.173L60.3048 58.6139C60.3121 58.6503 60.3558 58.6722 60.3886 58.6612C60.4251 58.6503 60.4433 58.6139 60.436 58.5775C60.4068 58.4317 60.374 58.2823 60.3449 58.1366C60.3376 58.1002 60.2939 58.0783 60.2611 58.0892C60.2247 58.1002 60.2065 58.1366 60.2137 58.173Z" fill="#94FFD8"/>
<path d="M62.9265 61.3092V62.0015C62.9265 62.0925 63.065 62.0925 63.065 62.0015V61.3092C63.065 61.2181 62.9265 61.2181 62.9265 61.3092Z" fill="#94FFD8"/>
<path d="M62.5664 61.7791V62.4713C62.5664 62.5624 62.7049 62.5624 62.7049 62.4713V61.7791C62.7049 61.688 62.5664 61.688 62.5664 61.7791Z" fill="#94FFD8"/>
<path d="M63.2283 66.1282V66.9334C63.2283 67.0245 63.3667 67.0245 63.3667 66.9334V66.1282C63.3667 66.0371 63.2283 66.0371 63.2283 66.1282Z" fill="#94FFD8"/>
<path d="M56.3414 59.7903C56.2285 59.9652 56.1338 60.151 56.05 60.3441C56.0354 60.3769 56.039 60.4169 56.0755 60.4388C56.1046 60.457 56.1556 60.4497 56.1702 60.4133C56.254 60.2238 56.3524 60.038 56.4617 59.8595C56.509 59.783 56.3888 59.7138 56.3414 59.7903Z" fill="#94FFD8"/>
<path d="M54.949 61.1854C54.8106 61.3858 54.6867 61.5971 54.5774 61.8157C54.5592 61.8485 54.5701 61.8922 54.6029 61.9104C54.6357 61.9286 54.6794 61.9177 54.6976 61.8849C54.8106 61.6663 54.9344 61.4586 55.0692 61.2546C55.0911 61.2218 55.0765 61.1781 55.0437 61.1599C55.0109 61.138 54.9709 61.1526 54.949 61.1854Z" fill="#94FFD8"/>
<path d="M54.2867 61.4476C54.2138 61.5533 54.1737 61.6735 54.1555 61.801C54.1519 61.8374 54.1919 61.8739 54.2247 61.8702C54.2648 61.8702 54.2903 61.8411 54.294 61.801C54.294 61.7937 54.294 61.7937 54.294 61.801C54.294 61.7974 54.294 61.7937 54.294 61.7901C54.294 61.7828 54.294 61.7755 54.2976 61.7682C54.2976 61.7573 54.3012 61.7427 54.3049 61.7318C54.3122 61.7063 54.3195 61.6771 54.3304 61.6516C54.3304 61.6443 54.334 61.6371 54.3377 61.6298C54.3304 61.6443 54.3377 61.6298 54.3377 61.6261C54.345 61.6115 54.3486 61.6006 54.3559 61.586C54.3705 61.5605 54.385 61.5387 54.3996 61.5132C54.4215 61.484 54.4069 61.433 54.3741 61.4184C54.3377 61.4002 54.3012 61.4112 54.2794 61.4439L54.2867 61.4476Z" fill="#94FFD8"/>
<path d="M50.6617 59.579C50.5232 59.7612 50.3993 59.9543 50.2937 60.1583C50.2755 60.1911 50.2864 60.2348 50.3192 60.2531C50.352 60.2713 50.3957 60.2603 50.4139 60.2276C50.5196 60.0235 50.6434 59.8304 50.7819 59.6483C50.8038 59.6191 50.7855 59.5717 50.7564 59.5535C50.72 59.5317 50.6835 59.5499 50.6617 59.579Z" fill="#94FFD8"/>
<path d="M49.6609 60.1837C49.5191 60.4095 49.3773 60.6391 49.2354 60.865C49.1882 60.9415 49.3082 61.0107 49.3554 60.9342C49.4973 60.7083 49.6391 60.4788 49.7809 60.2529C49.8282 60.1764 49.7082 60.1071 49.6609 60.1837Z" fill="#94FFD8"/>
<path d="M49.8722 60.6572C49.7848 60.8394 49.7192 61.0288 49.6827 61.2292C49.6754 61.2657 49.6937 61.3057 49.7301 61.313C49.7629 61.324 49.8103 61.3021 49.8139 61.2657C49.8503 61.0799 49.905 60.8977 49.9888 60.7301C50.0034 60.6973 49.9997 60.6536 49.9633 60.6354C49.9341 60.6171 49.8831 60.6281 49.8686 60.6609L49.8722 60.6572Z" fill="#94FFD8"/>
<path d="M48.3735 61.5023C48.1662 61.7901 47.9735 62.0888 47.799 62.3985C47.7553 62.475 47.8753 62.5479 47.919 62.4677C48.0935 62.1581 48.2862 61.8593 48.4935 61.5715C48.5153 61.5423 48.4971 61.495 48.468 61.4767C48.4317 61.4549 48.3953 61.4731 48.3735 61.5023Z" fill="#94FFD8"/>
<path d="M48.2433 62.7917C48.1668 62.952 48.0866 63.1086 48.0101 63.2689C47.9919 63.3017 47.9992 63.3454 48.0356 63.3637C48.0647 63.3819 48.1157 63.371 48.1303 63.3382C48.2068 63.1779 48.287 63.0212 48.3635 62.8609C48.3817 62.8281 48.3744 62.7844 48.338 62.7662C48.3088 62.7479 48.2578 62.7589 48.2433 62.7917Z" fill="#94FFD8"/>
<path d="M47.4535 63.5311C47.2681 63.8117 47.0972 64.0995 46.9408 64.3946C46.8972 64.4748 47.0172 64.544 47.0608 64.4638C47.2172 64.1687 47.3881 63.8809 47.5735 63.6003C47.6244 63.5238 47.5044 63.4546 47.4535 63.5311Z" fill="#94FFD8"/>
<path d="M59.7083 67.0097V67.2647C59.7083 67.3011 59.741 67.3376 59.7775 67.3339C59.8139 67.3339 59.8467 67.3048 59.8467 67.2647V67.0097C59.8467 66.9732 59.8139 66.9368 59.7775 66.9404C59.741 66.9404 59.7083 66.9696 59.7083 67.0097Z" fill="#94FFD8"/>
<path d="M57.8318 69.2243V69.4794C57.8318 69.5158 57.8646 69.5522 57.901 69.5486C57.9374 69.5486 57.9702 69.5194 57.9702 69.4794V69.2243C57.9702 69.1879 57.9374 69.1515 57.901 69.1551C57.8646 69.1551 57.8318 69.1842 57.8318 69.2243Z" fill="#94FFD8"/>
<path d="M55.4683 67.5888V67.8439C55.4683 67.8803 55.5011 67.9167 55.5375 67.9131C55.5739 67.9131 55.6067 67.8839 55.6067 67.8439V67.5888C55.6067 67.5524 55.5739 67.516 55.5375 67.5196C55.5011 67.5196 55.4683 67.5487 55.4683 67.5888Z" fill="#94FFD8"/>
<path d="M59.7336 68.0551V68.4741C59.7336 68.5105 59.7664 68.5469 59.8029 68.5433C59.8393 68.5433 59.8721 68.5141 59.8721 68.4741V68.0551C59.8721 68.0186 59.8393 67.9822 59.8029 67.9858C59.7664 67.9858 59.7336 68.015 59.7336 68.0551Z" fill="#94FFD8"/>
<path d="M57.3809 70.2588V70.6778C57.3809 70.7142 57.4137 70.7507 57.4501 70.747C57.4865 70.747 57.5193 70.7179 57.5193 70.6778V70.2588C57.5193 70.2224 57.4865 70.1859 57.4501 70.1896C57.4137 70.1896 57.3809 70.2187 57.3809 70.2588Z" fill="#94FFD8"/>
<path d="M55.3992 72.1674V72.5864C55.3992 72.6229 55.432 72.6593 55.4684 72.6556C55.5048 72.6556 55.5376 72.6265 55.5376 72.5864V72.1674C55.5376 72.131 55.5048 72.0946 55.4684 72.0982C55.432 72.0982 55.3992 72.1274 55.3992 72.1674Z" fill="#94FFD8"/>
<path d="M60.1265 66.9624C60.1338 67.1773 60.1411 67.3959 60.1484 67.6109C60.1484 67.702 60.2905 67.702 60.2868 67.6109C60.2796 67.3959 60.2723 67.1773 60.265 66.9624C60.265 66.8713 60.1229 66.8713 60.1265 66.9624Z" fill="#94FFD8"/>
<path d="M57.221 69.064C57.2283 69.279 57.2356 69.4976 57.2429 69.7126C57.2429 69.8037 57.385 69.8037 57.3813 69.7126C57.374 69.4976 57.3667 69.279 57.3595 69.064C57.3595 68.973 57.2174 68.973 57.221 69.064Z" fill="#94FFD8"/>
<path d="M63.2791 69.4392C63.3264 69.6396 63.3738 69.8399 63.4175 70.0403C63.4394 70.1278 63.5705 70.0913 63.5523 70.0039C63.505 69.8035 63.4576 69.6031 63.4139 69.4027C63.392 69.3153 63.2609 69.3517 63.2791 69.4392Z" fill="#94FFD8"/>
<path d="M62.5117 70.5356V71.8581C62.5117 71.9492 62.6502 71.9492 62.6502 71.8581V70.5356C62.6502 70.4445 62.5117 70.4445 62.5117 70.5356Z" fill="#94FFD8"/>
<path d="M44.763 54.8038C44.7812 54.7674 44.803 54.731 44.8249 54.6945C44.8358 54.6763 44.8504 54.6581 44.8613 54.6399C44.8686 54.6326 44.8723 54.6253 44.8795 54.618C44.8832 54.6108 44.8759 54.6253 44.8795 54.6144C44.8795 54.6107 44.8868 54.6071 44.8905 54.6035C44.9451 54.5379 45.0034 54.4796 45.069 54.4286C45.0981 54.4067 45.0945 54.3521 45.069 54.3302C45.0399 54.3011 44.9998 54.3047 44.9706 54.3302C44.8322 54.4395 44.7192 54.578 44.6391 54.7383C44.6245 54.7711 44.6282 54.8148 44.6646 54.833C44.6974 54.8512 44.7411 54.8439 44.7593 54.8075L44.763 54.8038Z" fill="#94FFD8"/>
<path d="M45.1191 55.1062C45.1191 55.1062 45.1228 55.1026 45.1228 55.0989C45.1264 55.0953 45.13 55.088 45.1337 55.0844C45.1409 55.0734 45.1482 55.0661 45.1555 55.0552C45.17 55.037 45.1882 55.0188 45.2028 55.0006C45.2355 54.9641 45.2646 54.9313 45.3009 54.8986C45.37 54.8293 45.4391 54.7674 45.5155 54.7091C45.5446 54.6872 45.541 54.6326 45.5155 54.6107C45.4864 54.5816 45.4464 54.5852 45.4173 54.6107C45.2609 54.7346 45.1228 54.8767 44.9991 55.0334C44.9773 55.0625 44.9955 55.1135 45.0246 55.1281C45.0609 55.1463 45.0973 55.1354 45.1191 55.1026V55.1062Z" fill="#94FFD8"/>
<path d="M44.592 56.9311L44.9308 56.5048C44.9527 56.4757 44.9599 56.4356 44.9308 56.4064C44.9053 56.3846 44.8579 56.3773 44.8324 56.4064C44.7195 56.5485 44.6065 56.6906 44.4936 56.8327C44.4717 56.8619 44.4644 56.9019 44.4936 56.9311C44.5191 56.9529 44.5665 56.9602 44.592 56.9311Z" fill="#94FFD8"/>
<path d="M43.581 57.1131C43.581 57.1131 43.5883 57.0876 43.5919 57.0767C43.5956 57.0658 43.6028 57.0512 43.6065 57.0403C43.6065 57.0403 43.5992 57.0548 43.6065 57.0439C43.6065 57.0439 43.6065 57.0366 43.6101 57.033C43.6101 57.0257 43.6174 57.022 43.6174 57.0147C43.6247 57.0038 43.6284 56.9929 43.6356 56.982C43.6429 56.971 43.6502 56.9601 43.6575 56.9528L43.6648 56.9455C43.6648 56.9455 43.6539 56.9565 43.6648 56.9492C43.6684 56.9455 43.6721 56.9382 43.6757 56.9346C43.6939 56.9164 43.7121 56.8945 43.7304 56.8799C43.7595 56.8544 43.7559 56.8071 43.7304 56.7816C43.7012 56.7561 43.6611 56.7561 43.632 56.7816C43.5446 56.8581 43.479 56.9637 43.4498 57.0767C43.4425 57.1131 43.4608 57.1532 43.4972 57.1605C43.5336 57.1678 43.5737 57.1495 43.581 57.1131Z" fill="#94FFD8"/>
<path d="M43.4247 58.8906C43.4357 58.8615 43.4466 58.8324 43.4575 58.8032C43.4575 58.8032 43.4684 58.7777 43.4612 58.7923C43.4612 58.785 43.4648 58.7813 43.4684 58.7741C43.4757 58.7595 43.4794 58.7449 43.4867 58.7303C43.5122 58.6757 43.5413 58.621 43.5741 58.5664C43.5923 58.5336 43.5814 58.4899 43.5486 58.4717C43.5158 58.4534 43.4721 58.4644 43.4539 58.4972C43.3847 58.6101 43.33 58.7303 43.2899 58.8506C43.279 58.8834 43.3045 58.9271 43.3373 58.9344C43.3774 58.9417 43.4102 58.9234 43.4211 58.887L43.4247 58.8906Z" fill="#94FFD8"/>
<path d="M42.5156 59.1202C42.5593 58.9781 42.5994 58.836 42.6431 58.6939C42.654 58.6575 42.6322 58.6174 42.5957 58.6101C42.5593 58.6028 42.5229 58.621 42.5119 58.6575C42.4682 58.7996 42.4281 58.9416 42.3844 59.0837C42.3735 59.1202 42.3953 59.1603 42.4318 59.1675C42.4682 59.1748 42.5046 59.1566 42.5156 59.1202Z" fill="#94FFD8"/>
<path d="M42.4502 61.5024C42.4465 61.353 42.4502 61.2073 42.4684 61.0579C42.472 61.0214 42.4319 60.985 42.3992 60.9887C42.3591 60.9887 42.3336 61.0178 42.3299 61.0579C42.3154 61.2036 42.3081 61.353 42.3117 61.5024C42.3117 61.5388 42.3445 61.5752 42.3809 61.5716C42.4174 61.5716 42.4502 61.5424 42.4502 61.5024Z" fill="#94FFD8"/>
<path d="M41.439 65.702C41.4281 65.8368 41.4427 65.9753 41.4864 66.1064C41.4973 66.1392 41.5338 66.1684 41.5702 66.1538C41.603 66.1429 41.6321 66.1064 41.6176 66.07C41.6066 66.0409 41.5993 66.0117 41.592 65.9789C41.5884 65.9607 41.5848 65.9461 41.5811 65.9279C41.5811 65.9206 41.5811 65.9133 41.5811 65.9061C41.5811 65.917 41.5811 65.8951 41.5811 65.8915C41.5738 65.8295 41.5738 65.764 41.5811 65.6984C41.5811 65.6619 41.5483 65.6255 41.5119 65.6292C41.4718 65.6292 41.4463 65.6583 41.4427 65.6984L41.439 65.702Z" fill="#94FFD8"/>
<path d="M42.3225 67.0717C42.3116 67.2721 42.3407 67.4761 42.4099 67.6619C42.4245 67.6983 42.4573 67.7202 42.4937 67.7093C42.5265 67.6983 42.5557 67.6582 42.5411 67.6255C42.4755 67.4469 42.4464 67.2611 42.4573 67.0717C42.4573 67.0352 42.4245 67.0024 42.3881 67.0024C42.348 67.0024 42.3225 67.0352 42.3188 67.0717H42.3225Z" fill="#94FFD8"/>
<path d="M43.9082 71.1767C43.9701 71.3807 44.0831 71.5666 44.2397 71.7159C44.2652 71.7414 44.3126 71.7414 44.3381 71.7159C44.3636 71.6904 44.3636 71.6431 44.3381 71.6176C44.2033 71.4864 44.1013 71.3224 44.043 71.1403C44.0321 71.1038 43.9956 71.082 43.9592 71.0929C43.9228 71.1038 43.9009 71.1439 43.9118 71.1767H43.9082Z" fill="#94FFD8"/>
<path d="M45.3921 67.5525V66.8311C45.3921 66.74 45.2537 66.74 45.2537 66.8311V67.5525C45.2537 67.6436 45.3921 67.6436 45.3921 67.5525Z" fill="#94FFD8"/>
<path d="M45.6794 66.2558C45.6685 66.1028 45.6758 65.9461 45.6976 65.7931C45.7049 65.7567 45.6867 65.7166 45.6503 65.7093C45.6175 65.702 45.5701 65.7202 45.5665 65.7567C45.541 65.9206 45.53 66.0882 45.5446 66.2558C45.5446 66.2922 45.5738 66.325 45.6138 66.325C45.6503 66.325 45.6867 66.2922 45.6831 66.2558H45.6794Z" fill="#94FFD8"/>
<path d="M47.163 65.3853C47.1921 65.2067 47.265 65.0428 47.3852 64.9116C47.4108 64.8825 47.4144 64.8424 47.3852 64.8132C47.3597 64.7877 47.3124 64.7841 47.2869 64.8132C47.1521 64.9626 47.061 65.1484 47.0282 65.3488C47.0209 65.3852 47.0391 65.4253 47.0756 65.4326C47.1084 65.4399 47.1557 65.4217 47.1594 65.3853H47.163Z" fill="#94FFD8"/>
<path d="M51.4354 64.0629C51.4755 64.2997 51.49 64.5402 51.4755 64.7807C51.4718 64.8717 51.6103 64.8681 51.6139 64.7807C51.6285 64.5256 51.6139 64.2742 51.5666 64.0228C51.5593 63.9864 51.5155 63.9646 51.4828 63.9755C51.4427 63.9864 51.4281 64.0228 51.4354 64.0593V64.0629Z" fill="#94FFD8"/>
<path d="M52.1082 64.4781V65.2505C52.1082 65.3416 52.2466 65.3416 52.2466 65.2505V64.4781C52.2466 64.387 52.1082 64.387 52.1082 64.4781Z" fill="#94FFD8"/>
<path d="M49.0064 74.8884L49.4427 74.9904C49.4791 74.9977 49.5191 74.9795 49.5264 74.9431C49.5336 74.9066 49.5155 74.8666 49.4791 74.8593L49.0427 74.7573C49.0064 74.75 48.9664 74.7682 48.9591 74.8046C48.9518 74.8411 48.97 74.8811 49.0064 74.8884Z" fill="#94FFD8"/>
<path d="M49.8572 75.3838C50.0354 75.3838 50.2136 75.3875 50.3882 75.402C50.4245 75.402 50.4572 75.3693 50.4572 75.3328C50.4572 75.2927 50.4245 75.2672 50.3882 75.2636C50.21 75.249 50.0354 75.2417 49.8572 75.2454C49.7663 75.2454 49.7663 75.3838 49.8572 75.3838Z" fill="#94FFD8"/>
<path d="M52.1555 75.2453C52.3155 75.2599 52.4755 75.2053 52.5992 75.1033C52.6283 75.0814 52.6246 75.0268 52.5992 75.0049C52.5701 74.9757 52.5301 74.9794 52.501 75.0049C52.4937 75.0085 52.4937 75.0085 52.501 75.0049C52.501 75.0049 52.4937 75.0085 52.4901 75.0122C52.4828 75.0158 52.4755 75.0231 52.4683 75.0268C52.4537 75.0377 52.4392 75.045 52.4246 75.0522C52.4173 75.0559 52.4101 75.0595 52.4028 75.0632C52.4028 75.0632 52.3846 75.0705 52.3955 75.0632C52.381 75.0705 52.3628 75.0741 52.3446 75.0814C52.3264 75.085 52.3119 75.0923 52.2937 75.0923C52.2864 75.0923 52.2792 75.0923 52.2755 75.0923C52.2683 75.0923 52.2683 75.0923 52.2755 75.0923C52.2719 75.0923 52.2683 75.0923 52.261 75.0923C52.2246 75.0923 52.1919 75.0923 52.1555 75.0923C52.1192 75.0923 52.0828 75.1251 52.0864 75.1616C52.0864 75.2016 52.1155 75.2271 52.1555 75.2308V75.2453Z" fill="#94FFD8"/>
<path d="M52.7883 71.6284C52.8684 71.5701 52.9486 71.5155 53.0287 71.4572C53.0433 71.4463 53.0542 71.4353 53.0615 71.4171C53.0652 71.3989 53.0615 71.3771 53.0542 71.3625C53.036 71.3333 52.9923 71.3151 52.9595 71.337L52.719 71.5082C52.719 71.5082 52.6935 71.5301 52.6862 71.5483C52.6826 71.5665 52.6862 71.5884 52.6935 71.6029C52.7117 71.6321 52.7555 71.6503 52.7883 71.6284Z" fill="#94FFD8"/>
<path d="M53.9812 70.7616C54.0905 70.5685 54.1488 70.3462 54.1525 70.124C54.1525 70.0329 54.014 70.0329 54.014 70.124C54.014 70.3244 53.9594 70.5175 53.861 70.6923C53.8173 70.7689 53.9375 70.8417 53.9812 70.7616Z" fill="#94FFD8"/>
<path d="M53.6428 72.3534C53.8865 72.0656 54.1337 71.7268 54.1047 71.326C54.0974 71.2385 53.9592 71.2349 53.9665 71.326C53.9919 71.6903 53.7665 71.9927 53.5447 72.255C53.4865 72.3243 53.5846 72.4226 53.6428 72.3534Z" fill="#94FFD8"/>
<path d="M52.3411 69.6617C52.3811 69.3192 52.3994 68.9767 52.3994 68.6306C52.3994 68.5395 52.2609 68.5395 52.2609 68.6306C52.2609 68.9767 52.2427 69.3192 52.2026 69.6617C52.199 69.6981 52.2391 69.7309 52.2718 69.7309C52.3119 69.7309 52.3374 69.6981 52.3411 69.6617Z" fill="#94FFD8"/>
<path d="M51.8283 68.7143C51.7517 68.9694 51.7117 69.239 51.7117 69.5086C51.7117 69.5997 51.8501 69.5997 51.8501 69.5086C51.8501 69.2535 51.8866 68.9985 51.9631 68.7544C51.9886 68.667 51.8538 68.6305 51.8283 68.718V68.7143Z" fill="#94FFD8"/>
<path d="M50.2721 71.3262C50.243 71.0602 50.2612 70.7942 50.3267 70.5355C50.3486 70.4481 50.2138 70.4117 50.1919 70.4991C50.1227 70.7687 50.1009 71.0493 50.13 71.3262C50.1337 71.3626 50.1592 71.3954 50.1992 71.3954C50.232 71.3954 50.2721 71.3626 50.2685 71.3262H50.2721Z" fill="#94FFD8"/>
<path d="M49.7557 71.1223C49.7411 70.8526 49.7557 70.583 49.7884 70.3134C49.7921 70.277 49.752 70.2442 49.7192 70.2442C49.6791 70.2442 49.6536 70.277 49.65 70.3134C49.6136 70.583 49.6063 70.8526 49.6172 71.1223C49.6208 71.2097 49.7593 71.2133 49.7557 71.1223Z" fill="#94FFD8"/>
<path d="M50.3009 69.6978C50.3446 69.88 50.3847 70.0622 50.4284 70.248C50.4357 70.2844 50.4794 70.3063 50.5122 70.2953C50.5487 70.2844 50.5705 70.248 50.5596 70.2115C50.5159 70.0294 50.4758 69.8472 50.4321 69.6614C50.4248 69.625 50.3811 69.6031 50.3483 69.614C50.3119 69.625 50.29 69.6614 50.3009 69.6978Z" fill="#94FFD8"/>
<path d="M50.0754 66.0371C50.0244 66.3213 50.0026 66.6128 50.0135 66.9043C50.0171 66.9917 50.1556 66.9953 50.1519 66.9043C50.141 66.6274 50.1592 66.3505 50.2102 66.0772C50.2175 66.0408 50.1993 66.0007 50.1629 65.9934C50.1301 65.9825 50.0827 66.0044 50.0791 66.0408L50.0754 66.0371Z" fill="#94FFD8"/>
<path d="M56.4905 57.5902C56.4285 57.8853 56.3666 58.184 56.3047 58.4792C56.2865 58.5666 56.4213 58.603 56.4395 58.5156C56.5014 58.2205 56.5633 57.9217 56.6253 57.6266C56.6435 57.5392 56.5087 57.5027 56.4905 57.5902Z" fill="#94FFD8"/>
<path d="M57.1628 55.7581C57.1446 55.9584 57.1227 56.1625 57.1045 56.3629C57.1009 56.3993 57.1373 56.4321 57.1737 56.4321C57.2138 56.4321 57.2393 56.3993 57.2429 56.3629C57.2612 56.1625 57.283 55.9584 57.3012 55.7581C57.3049 55.7216 57.2685 55.6888 57.232 55.6888C57.1919 55.6888 57.1664 55.7216 57.1628 55.7581Z" fill="#94FFD8"/>
<path d="M62.4065 57.7213C62.4575 57.9509 62.4903 58.184 62.4976 58.4209C62.4976 58.5119 62.6397 58.5119 62.636 58.4209C62.6251 58.1731 62.5959 57.9254 62.5413 57.6849C62.5231 57.5975 62.3883 57.6339 62.4065 57.7213Z" fill="#94FFD8"/>
<path d="M63.8065 57.5501C63.8976 58.144 63.9449 58.7451 63.9486 59.3463C63.9486 59.4374 64.087 59.4374 64.087 59.3463C64.0834 58.7342 64.0324 58.1221 63.9377 57.5137C63.9231 57.4263 63.7883 57.4627 63.8029 57.5501H63.8065Z" fill="#94FFD8"/>
<path d="M60.5955 52.6912C60.5955 52.6912 61.7882 50.9132 63.5918 52.5673C63.5918 52.5673 62.2609 53.9591 60.5955 52.6912Z" fill="white"/>
<path d="M62.4615 53.1723C62.5842 53.1723 62.6838 52.8901 62.6838 52.542C62.6838 52.1939 62.5842 51.9117 62.4615 51.9117C62.3388 51.9117 62.2393 52.1939 62.2393 52.542C62.2393 52.8901 62.3388 53.1723 62.4615 53.1723Z" fill="#1D1D1B"/>
<path d="M62.4609 53.2305C62.2791 53.2305 62.1809 52.8844 62.1809 52.5455C62.1809 52.2067 62.2755 51.8606 62.4609 51.8606C62.6464 51.8606 62.7409 52.2067 62.7409 52.5455C62.7409 52.8844 62.6464 53.2305 62.4609 53.2305ZM62.4609 51.9699C62.3955 51.9699 62.2936 52.1994 62.2936 52.5455C62.2936 52.8917 62.3955 53.1212 62.4609 53.1212C62.5264 53.1212 62.6282 52.8917 62.6282 52.5455C62.6282 52.1994 62.5264 51.9699 62.4609 51.9699Z" fill="#1D1D1B"/>
<path d="M54.9045 52.928C54.9045 52.928 56.0973 51.1501 57.9009 52.8041C57.9009 52.8041 56.57 54.1959 54.9045 52.928Z" fill="white"/>
<path d="M56.9962 52.7787C56.9962 53.1284 56.8979 53.409 56.774 53.409C56.6501 53.409 56.5518 53.1248 56.5518 52.7787C56.5518 52.4326 56.6501 52.1484 56.774 52.1484C56.8979 52.1484 56.9962 52.4326 56.9962 52.7787Z" fill="#1D1D1B"/>
<path d="M56.77 53.4636C56.5882 53.4636 56.49 53.1175 56.49 52.7786C56.49 52.4398 56.5845 52.0937 56.77 52.0937C56.9554 52.0937 57.05 52.4398 57.05 52.7786C57.05 53.1175 56.9554 53.4636 56.77 53.4636ZM56.77 52.203C56.7045 52.203 56.6027 52.4325 56.6027 52.7786C56.6027 53.1248 56.7045 53.3543 56.77 53.3543C56.8354 53.3543 56.9373 53.1248 56.9373 52.7786C56.9373 52.4325 56.8354 52.203 56.77 52.203Z" fill="#1D1D1B"/>
<path d="M58.8463 54.997C58.5554 54.997 58.2572 54.7164 58.239 54.7018C58.2172 54.68 58.2172 54.6472 58.239 54.6217C58.2608 54.5998 58.2936 54.5998 58.319 54.6217C58.3227 54.6217 58.7008 54.9787 58.9627 54.8622C59.1518 54.7784 59.2499 54.4541 59.2427 53.9185L59.3518 53.9076C59.3518 53.9076 59.5299 54.7638 59.9081 54.8622C60.0572 54.9022 60.2245 54.8148 60.4063 54.6035C60.4281 54.5816 60.4609 54.578 60.4863 54.5962C60.5081 54.6181 60.5118 54.6508 60.4936 54.6763C60.2827 54.9204 60.0754 55.0225 59.8863 54.9715C59.6172 54.9022 59.4463 54.5488 59.3481 54.2756C59.3118 54.6545 59.199 54.8877 59.0136 54.9678C58.9627 54.9897 58.9081 55.0006 58.8572 55.0006L58.8463 54.997Z" fill="#1D1D1B"/>
<path d="M56.1299 54.5853C54.8136 54.5853 53.3045 54.0789 53.2899 54.0716C53.2608 54.0607 53.2463 54.0316 53.2536 54.0024C53.2645 53.9733 53.2936 53.9587 53.3227 53.966C53.3372 53.9733 54.9554 54.5125 56.2827 54.4688C56.3154 54.4688 56.3372 54.4906 56.3409 54.5234C56.3409 54.5525 56.319 54.5781 56.2863 54.5817C56.2318 54.5817 56.1809 54.5817 56.1263 54.5817L56.1299 54.5853Z" fill="#1D1D1B"/>
<path d="M53.6536 55.8675C53.6282 55.8675 53.6027 55.8493 53.5991 55.8201C53.5955 55.791 53.6136 55.7618 53.6427 55.7545C53.6645 55.7545 55.7118 55.3866 56.25 54.8984C56.2718 54.8765 56.3082 54.8801 56.33 54.902C56.3518 54.9239 56.3482 54.9603 56.3264 54.9822C55.7627 55.4922 53.7482 55.8493 53.6645 55.8638C53.6645 55.8638 53.6573 55.8638 53.6536 55.8638V55.8675Z" fill="#1D1D1B"/>
<path d="M54.9698 57.2993C54.9698 57.2993 54.9407 57.292 54.9298 57.2811C54.908 57.2592 54.9116 57.2228 54.9298 57.2009C55.4753 56.6909 56.5407 55.6452 56.6535 55.3537C56.6644 55.3246 56.6971 55.31 56.7262 55.321C56.7553 55.3319 56.7698 55.3647 56.7589 55.3938C56.6062 55.78 55.0716 57.2191 55.0062 57.2811C54.9953 57.292 54.9807 57.2956 54.9698 57.2956V57.2993Z" fill="#1D1D1B"/>
<path d="M61.9774 54.5855C61.9556 54.5855 61.9337 54.571 61.9265 54.5491C61.9156 54.52 61.9301 54.4872 61.9592 54.4799C63.2574 54.0245 65.7738 53.0991 66.0174 52.8659C66.0392 52.844 66.0756 52.844 66.0974 52.8659C66.1192 52.8877 66.1192 52.9242 66.0974 52.946C65.7774 53.2557 62.1519 54.5309 61.9992 54.5855C61.9919 54.5855 61.9883 54.5855 61.981 54.5855H61.9774Z" fill="#1D1D1B"/>
<path d="M62.2391 54.9167C62.21 54.9167 62.1882 54.8949 62.1846 54.8657C62.1846 54.8366 62.2028 54.8074 62.2355 54.8038C62.3809 54.7892 65.781 54.4176 66.1446 54.4759C66.1737 54.4795 66.1955 54.5087 66.1919 54.5378C66.1882 54.567 66.1591 54.5888 66.13 54.5852C65.85 54.5414 63.4718 54.7819 62.25 54.9131C62.25 54.9131 62.2464 54.9131 62.2428 54.9131L62.2391 54.9167Z" fill="#1D1D1B"/>
<path d="M65.9082 56.4977C65.9082 56.4977 65.9046 56.4977 65.901 56.4977C63.9555 56.2572 62.5082 55.4302 62.4937 55.4229C62.4682 55.4083 62.4573 55.3719 62.4718 55.3464C62.4864 55.3209 62.5228 55.3099 62.5482 55.3245C62.5628 55.3318 63.9919 56.1479 65.9155 56.3847C65.9446 56.3884 65.9664 56.4175 65.9628 56.4467C65.9628 56.4758 65.9337 56.494 65.9082 56.494V56.4977Z" fill="#1D1D1B"/>
<path d="M59.4355 53.9625C59.3627 54.0317 59.25 54.0426 59.1736 53.9771C58.9809 53.8204 58.65 53.5144 58.6755 53.2265C58.7118 52.8185 59.6936 52.8185 59.89 53.1063C60.0355 53.3213 59.6464 53.7548 59.4355 53.9625Z" fill="#1D1D1B"/>
</svg>
