<svg width="336" height="111" viewBox="0 0 336 111" fill="none" xmlns="http://www.w3.org/2000/svg">
<rect width="164.41" height="45" rx="12" transform="matrix(0.997836 -0.0657459 0.0685603 0.997647 0 10.8093)" fill="#94FFD8"/>
<path d="M21.8757 40.435L20.7239 23.6746L36.0028 22.6679L37.1546 39.4283L33.2989 39.6824L32.3034 25.1965L33.2504 26.0241L23.9106 26.6395L24.7358 25.6952L25.7313 40.181L21.8757 40.435ZM48.6275 38.8648C47.5418 38.9364 46.5754 38.7595 45.7283 38.3343C44.8811 37.9091 44.1926 37.2249 43.6627 36.2817C43.1476 35.3214 42.8386 34.0911 42.7354 32.5906C42.6312 31.0742 42.7612 29.815 43.1254 28.8129C43.4895 27.8107 44.0622 27.0434 44.8436 26.5109C45.6249 25.9784 46.5823 25.6748 47.7159 25.6001C48.9292 25.5202 50.0341 25.728 51.0304 26.2235C52.0416 26.7021 52.8606 27.4178 53.4874 28.3706C54.1301 29.3224 54.4976 30.4687 54.5897 31.8096C54.683 33.1664 54.4762 34.3586 53.9695 35.3861C53.4787 36.4126 52.765 37.2293 51.8284 37.8361C50.9078 38.442 49.8408 38.7849 48.6275 38.8648ZM41.318 43.8201L40.1135 26.2934L43.6818 26.0583L43.8628 28.6921L44.0542 32.5278L44.5553 36.319L45.0539 43.5739L41.318 43.8201ZM47.7702 35.8427C48.3929 35.8016 48.9338 35.6217 49.393 35.3028C49.8682 34.9829 50.2314 34.5501 50.4826 34.0044C50.7486 33.4417 50.8564 32.7932 50.806 32.0589C50.7544 31.3087 50.5588 30.6802 50.2193 30.1734C49.8957 29.6656 49.4766 29.2843 48.9619 29.0296C48.4632 28.7738 47.9025 28.6665 47.2799 28.7075C46.6572 28.7485 46.1083 28.929 45.6331 29.2489C45.158 29.5689 44.7948 30.0017 44.5436 30.5474C44.2924 31.093 44.1926 31.741 44.2442 32.4912C44.2946 33.2255 44.4822 33.8545 44.8069 34.3783C45.1305 34.8861 45.5496 35.2674 46.0643 35.5221C46.5789 35.7768 47.1476 35.8837 47.7702 35.8427ZM63.6988 37.8718C62.3258 37.9623 61.0847 37.7554 59.9755 37.2512C58.8823 36.746 57.9904 36.0191 57.2997 35.0705C56.6239 34.1048 56.2422 32.9835 56.1544 31.7065C56.0656 30.4135 56.2905 29.2522 56.8291 28.2226C57.3827 27.176 58.1671 26.3386 59.1824 25.7105C60.2126 25.0653 61.4142 24.6975 62.7873 24.6071C64.1443 24.5177 65.3774 24.725 66.4866 25.2292C67.5947 25.7174 68.4861 26.4364 69.1608 27.386C69.8355 28.3357 70.2178 29.465 70.3077 30.774C70.3955 32.0509 70.1706 33.2122 69.633 34.2578C69.0943 35.2875 68.3099 36.1249 67.2797 36.77C66.2495 37.4151 65.0559 37.7824 63.6988 37.8718ZM63.4882 34.807C64.1109 34.766 64.6598 34.5855 65.135 34.2656C65.6101 33.9457 65.9733 33.5128 66.2245 32.9671C66.4746 32.4055 66.5744 31.7575 66.5239 31.0233C66.4724 30.273 66.2848 29.644 65.9612 29.1362C65.6377 28.6284 65.2185 28.2471 64.7039 27.9924C64.1892 27.7377 63.6205 27.6308 62.9979 27.6718C62.3752 27.7129 61.8263 27.8934 61.3511 28.2133C60.8759 28.5332 60.5048 28.9666 60.2376 29.5133C59.9865 30.059 59.8867 30.707 59.9382 31.4572C59.9887 32.1915 60.1762 32.8205 60.5009 33.3443C60.8405 33.851 61.2676 34.2318 61.7822 34.4865C62.2969 34.7412 62.8656 34.848 63.4882 34.807ZM82.4441 36.4443L77.7139 30.6227L80.6319 28.6265L86.8506 36.1539L82.4441 36.4443ZM73.3199 37.0455L72.4347 24.1638L76.1706 23.9177L77.0558 36.7993L73.3199 37.0455ZM75.6185 31.9874L75.4128 28.9945L79.9151 28.6978L80.1208 31.6908L75.6185 31.9874ZM81.1211 30.4944L77.5983 30.3417L81.6786 23.5548L85.654 23.2928L81.1211 30.4944ZM96.1624 35.5404L95.9897 33.0263L95.7123 32.4914L95.403 27.99C95.3482 27.1919 95.0579 26.5857 94.5323 26.1713C94.0226 25.756 93.2648 25.5814 92.259 25.6477C91.5725 25.6929 90.9017 25.8493 90.2465 26.117C89.6061 26.3676 89.0671 26.6918 88.6293 27.0894L87.1089 24.5679C87.7774 24.0268 88.5972 23.588 89.5684 23.2514C90.5396 22.9148 91.5361 22.7129 92.5579 22.6455C94.5216 22.5161 96.0781 22.8786 97.2274 23.7329C98.3767 24.5872 99.0188 25.996 99.1537 27.9594L99.6589 35.31L96.1624 35.5404ZM92.2481 35.9907C91.2423 36.057 90.3687 35.9462 89.6272 35.6583C88.8846 35.3545 88.3014 34.9199 87.8777 34.3545C87.4539 33.7892 87.2168 33.1394 87.1663 32.4051C87.1137 31.6389 87.2512 30.9564 87.5789 30.3575C87.9226 29.7576 88.4906 29.2713 89.2829 28.8984C90.0741 28.5095 91.1243 28.2719 92.4334 28.1857L95.858 27.96L96.0077 30.1389L92.9903 30.3377C92.1122 30.3956 91.5154 30.5792 91.1999 30.8886C90.9003 31.197 90.7653 31.5667 90.7949 31.9976C90.8278 32.4765 91.0378 32.8475 91.4247 33.1106C91.8265 33.3568 92.3547 33.4582 93.0093 33.4151C93.632 33.3741 94.1809 33.1936 94.6561 32.8737C95.1302 32.5378 95.4592 32.0752 95.6432 31.4858L96.3365 33.1718C96.1221 34.0198 95.6705 34.6829 94.9817 35.1612C94.2928 35.6395 93.3817 35.916 92.2481 35.9907ZM110.684 29.6289C110.177 29.951 109.61 30.2208 108.983 30.4385C108.357 30.6561 107.66 30.7902 106.894 30.8407C105.201 30.9522 103.874 30.6548 102.911 29.9486C101.948 29.2264 101.407 28.0193 101.291 26.3273L101.013 22.2808L104.749 22.0347L105.011 25.8417C105.066 26.6398 105.313 27.2008 105.752 27.5246C106.19 27.8325 106.784 27.9617 107.535 27.9123C108.077 27.8765 108.592 27.7785 109.078 27.6181C109.58 27.4568 110.054 27.2411 110.501 26.9712L110.684 29.6289ZM110.759 34.5786L109.874 21.697L113.61 21.4509L114.495 34.3325L110.759 34.5786ZM125.794 33.5881L125.621 31.074L125.343 30.5391L125.034 26.0377C124.979 25.2396 124.689 24.6333 124.163 24.219C123.654 23.8036 122.896 23.6291 121.89 23.6953C121.204 23.7406 120.533 23.897 119.878 24.1647C119.237 24.4153 118.698 24.7394 118.26 25.1371L116.74 22.6156C117.408 22.0745 118.228 21.6356 119.199 21.299C120.171 20.9625 121.167 20.7605 122.189 20.6932C124.153 20.5638 125.709 20.9263 126.858 21.7805C128.008 22.6348 128.65 24.0436 128.785 26.007L129.29 33.3577L125.794 33.5881ZM121.879 34.0384C120.873 34.1047 120 33.9939 119.258 33.706C118.516 33.4021 117.932 32.9675 117.509 32.4022C117.085 31.8368 116.848 31.187 116.797 30.4527C116.745 29.6865 116.882 29.004 117.21 28.4052C117.554 27.8053 118.122 27.3189 118.914 26.946C119.705 26.5572 120.755 26.3196 122.065 26.2333L125.489 26.0077L125.639 28.1866L122.621 28.3854C121.743 28.4432 121.146 28.6269 120.831 28.9363C120.531 29.2446 120.396 29.6143 120.426 30.0453C120.459 30.5242 120.669 30.8952 121.056 31.1583C121.458 31.4044 121.986 31.5059 122.64 31.4628C123.263 31.4217 123.812 31.2413 124.287 30.9213C124.761 30.5854 125.09 30.1228 125.274 29.5334L125.968 31.2195C125.753 32.0674 125.302 32.7305 124.613 33.2089C123.924 33.6872 123.013 33.9637 121.879 34.0384ZM132.535 33.1439L131.65 20.2622L135.362 20.0177L135.889 27.6796L141.636 19.6042L145.061 19.3786L145.946 32.2602L142.234 32.5048L141.708 24.8429L135.984 32.9166L132.535 33.1439ZM138.021 18.4475C136.616 18.54 135.541 18.3062 134.797 17.7459C134.052 17.1697 133.628 16.2595 133.527 15.0155L135.969 14.8546C136.023 15.3962 136.204 15.8172 136.513 16.1175C136.823 16.4179 137.273 16.5485 137.863 16.5096C138.438 16.4718 138.866 16.2832 139.148 15.944C139.445 15.6037 139.575 15.1622 139.538 14.6195L142.028 14.4554C142.114 15.7004 141.819 16.6579 141.143 17.3278C140.466 17.9817 139.426 18.3549 138.021 18.4475Z" fill="#6083B3"/>
<rect width="99" height="45" rx="12" transform="matrix(0.9821 -0.188362 0.196157 0.980573 146.684 27.6478)" fill="#85D7DF"/>
<path d="M176.318 53.7237C174.951 53.9859 173.678 53.9449 172.5 53.6007C171.318 53.2408 170.322 52.6254 169.512 51.7546C168.717 50.8807 168.194 49.8162 167.943 48.561C167.688 47.2902 167.763 46.1112 168.165 45.0239C168.58 43.918 169.267 42.988 170.226 42.2339C171.181 41.4641 172.343 40.9482 173.71 40.686C175.045 40.4298 176.265 40.4892 177.368 40.8641C178.467 41.2234 179.357 41.8755 180.035 42.8206L177.489 44.8973C177.04 44.3644 176.536 44.005 175.976 43.819C175.433 43.63 174.87 43.5913 174.289 43.7028C173.66 43.8234 173.123 44.0731 172.676 44.4519C172.23 44.8308 171.909 45.3077 171.714 45.8827C171.535 46.4547 171.519 47.1094 171.667 47.8468C171.814 48.5842 172.081 49.1846 172.468 49.6481C172.87 50.1086 173.351 50.4318 173.91 50.6178C174.469 50.8037 175.063 50.8364 175.692 50.7159C176.273 50.6044 176.781 50.3685 177.214 50.0084C177.661 49.6295 177.988 49.1025 178.195 48.4274L181.358 49.4336C181.091 50.5438 180.518 51.4762 179.642 52.2309C178.761 52.9699 177.654 53.4675 176.318 53.7237ZM184.195 52.0174L181.662 39.3562L188.144 38.113C189.731 37.8086 191.031 37.8608 192.042 38.2695C193.051 38.6625 193.659 39.3768 193.866 40.4123C194.073 41.4478 193.812 42.345 193.083 43.1039C192.366 43.8441 191.317 44.3469 189.934 44.6121L190.141 43.6925C191.681 43.3972 192.885 43.4596 193.752 43.8797C194.635 44.2968 195.185 45.0467 195.401 46.1292C195.624 47.2432 195.376 48.2031 194.656 49.0091C193.936 49.8151 192.704 50.3854 190.96 50.7199L184.195 52.0174ZM187.067 48.8763L190.154 48.2841C190.83 48.1545 191.311 47.9483 191.597 47.6653C191.896 47.3637 191.998 46.9775 191.904 46.5069C191.806 46.0205 191.579 45.6976 191.22 45.5383C190.859 45.3632 190.341 45.3405 189.665 45.47L186.506 46.0758L187.067 48.8763ZM186.073 43.9107L188.855 43.3773C189.499 43.2537 189.955 43.0441 190.222 42.7485C190.505 42.4499 190.602 42.0809 190.514 41.6416C190.423 41.1866 190.191 40.881 189.817 40.7246C189.459 40.5652 188.957 40.5473 188.313 40.6709L185.532 41.2043L186.073 43.9107ZM204.835 48.2542C203.484 48.5134 202.225 48.4616 201.059 48.0987C199.909 47.7328 198.93 47.1223 198.123 46.2671C197.328 45.3932 196.805 44.3287 196.554 43.0735C196.3 41.8027 196.374 40.6237 196.776 39.5364C197.192 38.4305 197.863 37.5035 198.79 36.7554C199.73 35.9887 200.875 35.4757 202.227 35.2166C203.562 34.9604 204.813 35.0137 205.979 35.3766C207.142 35.7238 208.119 36.3265 208.911 37.1847C209.702 38.0429 210.227 39.1153 210.484 40.4018C210.735 41.6569 210.661 42.836 210.262 43.9389C209.859 45.0262 209.188 45.9532 208.248 46.7199C207.308 47.4866 206.171 47.9981 204.835 48.2542ZM204.232 45.2419C204.845 45.1244 205.367 44.8777 205.798 44.5019C206.228 44.126 206.533 43.6521 206.712 43.0801C206.888 42.4925 206.904 41.8378 206.76 41.1161C206.612 40.3787 206.346 39.7782 205.959 39.3147C205.573 38.8512 205.108 38.525 204.564 38.336C204.02 38.1471 203.442 38.1113 202.829 38.2289C202.217 38.3464 201.695 38.5931 201.264 38.9689C200.834 39.3448 200.521 39.8202 200.326 40.3952C200.147 40.9672 200.131 41.6219 200.278 42.3593C200.423 43.081 200.689 43.6814 201.079 44.1606C201.481 44.6211 201.954 44.9458 202.498 45.1348C203.041 45.3237 203.619 45.3595 204.232 45.2419ZM214.28 46.2473L211.747 33.5862L215.4 32.8855L216.332 37.5451L220.056 36.8309L220.692 40.0079L216.968 40.7222L217.933 45.5466L214.28 46.2473ZM226.315 44.1346C225.01 44.3847 223.791 44.3253 222.657 43.9564C221.522 43.5875 220.567 42.9724 219.791 42.1112C219.012 41.2343 218.497 40.1683 218.246 38.9132C217.992 37.6423 218.058 36.4648 218.445 35.3806C218.828 34.2806 219.476 33.3582 220.387 32.6131C221.296 31.8524 222.402 31.347 223.706 31.0969C225.011 30.8467 226.222 30.9076 227.341 31.2795C228.472 31.6328 229.427 32.2478 230.206 33.1247C230.982 33.986 231.497 35.052 231.752 36.3228C232.003 37.5779 231.936 38.7555 231.553 39.8554C231.169 40.9553 230.523 41.8856 229.615 42.6463C228.719 43.3883 227.619 43.8844 226.315 44.1346ZM225.712 41.1222C226.309 41.0077 226.807 40.7656 227.206 40.3958C227.621 40.0229 227.911 39.552 228.074 38.9831C228.25 38.3954 228.266 37.7407 228.122 37.019C227.974 36.2816 227.707 35.6812 227.321 35.2177C226.95 34.7512 226.501 34.4219 225.973 34.2299C225.461 34.0349 224.906 33.9947 224.309 34.1092C223.728 34.2207 223.222 34.4644 222.791 34.8402C222.376 35.213 222.079 35.6854 221.9 36.2574C221.736 36.8264 221.728 37.4796 221.876 38.217C222.02 38.9387 222.279 39.5406 222.653 40.0228C223.039 40.4863 223.497 40.8141 224.024 41.006C224.568 41.195 225.131 41.2338 225.712 41.1222Z" fill="#1A7170"/>
<rect x="67" y="66.0001" width="269" height="45" rx="12" fill="#FCB716"/>
<path d="M84.8 97.0001V84.0881H88.712L93.584 92.9201H92.024L97.232 84.0881H100.736L100.784 97.0001H97.4V87.9281L97.976 88.3121L93.536 95.7521H91.952L87.488 88.0481L88.184 87.8801V97.0001H84.8ZM110.682 97.1921C109.21 97.1921 107.914 96.9041 106.794 96.3281C105.69 95.7521 104.834 94.9681 104.226 93.9761C103.618 92.9681 103.314 91.8241 103.314 90.5441C103.314 89.2481 103.61 88.1041 104.202 87.1121C104.81 86.1041 105.634 85.3201 106.674 84.7601C107.714 84.1841 108.89 83.8961 110.202 83.8961C111.466 83.8961 112.602 84.1681 113.61 84.7121C114.634 85.2401 115.442 86.0081 116.034 87.0161C116.626 88.0081 116.922 89.2001 116.922 90.5921C116.922 90.7361 116.914 90.9041 116.898 91.0961C116.882 91.2721 116.866 91.4401 116.85 91.6001H106.362V89.4161H114.882L113.442 90.0641C113.442 89.3921 113.306 88.8081 113.034 88.3121C112.762 87.8161 112.386 87.4321 111.906 87.1601C111.426 86.8721 110.866 86.7281 110.226 86.7281C109.586 86.7281 109.018 86.8721 108.522 87.1601C108.042 87.4321 107.666 87.8241 107.394 88.3361C107.122 88.8321 106.986 89.4241 106.986 90.1121V90.6881C106.986 91.3921 107.138 92.0161 107.442 92.5601C107.762 93.0881 108.202 93.4961 108.762 93.7841C109.338 94.0561 110.01 94.1921 110.778 94.1921C111.466 94.1921 112.066 94.0881 112.578 93.8801C113.106 93.6721 113.586 93.3601 114.018 92.9441L116.01 95.1041C115.418 95.7761 114.674 96.2961 113.778 96.6641C112.882 97.0161 111.85 97.1921 110.682 97.1921ZM128.555 95.3201V87.1601H124.331L124.259 88.8161C124.227 89.5041 124.187 90.1601 124.139 90.7841C124.091 91.4081 123.995 91.9761 123.851 92.4881C123.723 92.9841 123.531 93.4081 123.275 93.7601C123.019 94.0961 122.675 94.3281 122.243 94.4561L118.547 93.9281C119.011 93.9281 119.387 93.7921 119.675 93.5201C119.963 93.2321 120.187 92.8401 120.347 92.3441C120.507 91.8321 120.627 91.2561 120.707 90.6161C120.787 89.9601 120.843 89.2721 120.875 88.5521L121.043 84.0881H132.299V95.3201H128.555ZM118.115 99.7841V93.9281H134.147V99.7841H130.667V97.0001H121.595V99.7841H118.115ZM136.479 97.0001V84.0881H140.223V97.0001H136.479ZM138.351 82.2881C137.663 82.2881 137.103 82.0881 136.671 81.6881C136.239 81.2881 136.023 80.7921 136.023 80.2001C136.023 79.6081 136.239 79.1121 136.671 78.7121C137.103 78.3121 137.663 78.1121 138.351 78.1121C139.039 78.1121 139.599 78.3041 140.031 78.6881C140.463 79.0561 140.679 79.5361 140.679 80.1281C140.679 80.7521 140.463 81.2721 140.031 81.6881C139.615 82.0881 139.055 82.2881 138.351 82.2881ZM151.544 97.0001V94.4801L151.304 93.9281V89.4161C151.304 88.6161 151.056 87.9921 150.56 87.5441C150.08 87.0961 149.336 86.8721 148.328 86.8721C147.64 86.8721 146.96 86.9841 146.288 87.2081C145.632 87.4161 145.072 87.7041 144.608 88.0721L143.264 85.4561C143.968 84.9601 144.816 84.5761 145.808 84.3041C146.8 84.0321 147.808 83.8961 148.832 83.8961C150.8 83.8961 152.328 84.3601 153.416 85.2881C154.504 86.2161 155.048 87.6641 155.048 89.6321V97.0001H151.544ZM147.608 97.1921C146.6 97.1921 145.736 97.0241 145.016 96.6881C144.296 96.3361 143.744 95.8641 143.36 95.2721C142.976 94.6801 142.784 94.0161 142.784 93.2801C142.784 92.5121 142.968 91.8401 143.336 91.2641C143.72 90.6881 144.32 90.2401 145.136 89.9201C145.952 89.5841 147.016 89.4161 148.328 89.4161H151.76V91.6001H148.736C147.856 91.6001 147.248 91.7441 146.912 92.0321C146.592 92.3201 146.432 92.6801 146.432 93.1121C146.432 93.5921 146.616 93.9761 146.984 94.2641C147.368 94.5361 147.888 94.6721 148.544 94.6721C149.168 94.6721 149.728 94.5281 150.224 94.2401C150.72 93.9361 151.08 93.4961 151.304 92.9201L151.88 94.6481C151.608 95.4801 151.112 96.1121 150.392 96.5441C149.672 96.9761 148.744 97.1921 147.608 97.1921ZM158.3 97.0001V84.0881H168.644V87.1601H161.18L162.02 86.3441V97.0001H158.3ZM178.236 97.1921C177.148 97.1921 176.196 96.9521 175.38 96.4721C174.564 95.9921 173.924 95.2641 173.46 94.2881C173.012 93.2961 172.788 92.0481 172.788 90.5441C172.788 89.0241 173.004 87.7761 173.436 86.8001C173.868 85.8241 174.492 85.0961 175.308 84.6161C176.124 84.1361 177.1 83.8961 178.236 83.8961C179.452 83.8961 180.54 84.1761 181.5 84.7361C182.476 85.2801 183.244 86.0481 183.804 87.0401C184.38 88.0321 184.668 89.2001 184.668 90.5441C184.668 91.9041 184.38 93.0801 183.804 94.0721C183.244 95.0641 182.476 95.8321 181.5 96.3761C180.54 96.9201 179.452 97.1921 178.236 97.1921ZM170.604 101.656V84.0881H174.18V86.7281L174.108 90.5681L174.348 94.3841V101.656H170.604ZM177.588 94.1201C178.212 94.1201 178.764 93.9761 179.244 93.6881C179.74 93.4001 180.132 92.9921 180.42 92.4641C180.724 91.9201 180.876 91.2801 180.876 90.5441C180.876 89.7921 180.724 89.1521 180.42 88.6241C180.132 88.0961 179.74 87.6881 179.244 87.4001C178.764 87.1121 178.212 86.9681 177.588 86.9681C176.964 86.9681 176.404 87.1121 175.908 87.4001C175.412 87.6881 175.02 88.0961 174.732 88.6241C174.444 89.1521 174.3 89.7921 174.3 90.5441C174.3 91.2801 174.444 91.9201 174.732 92.4641C175.02 92.9921 175.412 93.4001 175.908 93.6881C176.404 93.9761 176.964 94.1201 177.588 94.1201ZM194.809 97.0001V94.4801L194.569 93.9281V89.4161C194.569 88.6161 194.321 87.9921 193.825 87.5441C193.345 87.0961 192.601 86.8721 191.593 86.8721C190.905 86.8721 190.225 86.9841 189.553 87.2081C188.897 87.4161 188.337 87.7041 187.873 88.0721L186.529 85.4561C187.233 84.9601 188.081 84.5761 189.073 84.3041C190.065 84.0321 191.073 83.8961 192.097 83.8961C194.065 83.8961 195.593 84.3601 196.681 85.2881C197.769 86.2161 198.313 87.6641 198.313 89.6321V97.0001H194.809ZM190.873 97.1921C189.865 97.1921 189.001 97.0241 188.281 96.6881C187.561 96.3361 187.009 95.8641 186.625 95.2721C186.241 94.6801 186.049 94.0161 186.049 93.2801C186.049 92.5121 186.233 91.8401 186.601 91.2641C186.985 90.6881 187.585 90.2401 188.401 89.9201C189.217 89.5841 190.281 89.4161 191.593 89.4161H195.025V91.6001H192.001C191.121 91.6001 190.513 91.7441 190.177 92.0321C189.857 92.3201 189.697 92.6801 189.697 93.1121C189.697 93.5921 189.881 93.9761 190.249 94.2641C190.633 94.5361 191.153 94.6721 191.809 94.6721C192.433 94.6721 192.993 94.5281 193.489 94.2401C193.985 93.9361 194.345 93.4961 194.569 92.9201L195.145 94.6481C194.873 95.4801 194.377 96.1121 193.657 96.5441C192.937 96.9761 192.009 97.1921 190.873 97.1921ZM201.566 97.0001V84.0881H205.478L210.35 92.9201H208.79L213.998 84.0881H217.502L217.55 97.0001H214.166V87.9281L214.742 88.3121L210.302 95.7521H208.718L204.254 88.0481L204.95 87.8801V97.0001H201.566ZM227.184 97.1921C225.808 97.1921 224.584 96.9041 223.512 96.3281C222.456 95.7521 221.616 94.9681 220.992 93.9761C220.384 92.9681 220.08 91.8241 220.08 90.5441C220.08 89.2481 220.384 88.1041 220.992 87.1121C221.616 86.1041 222.456 85.3201 223.512 84.7601C224.584 84.1841 225.808 83.8961 227.184 83.8961C228.544 83.8961 229.76 84.1841 230.832 84.7601C231.904 85.3201 232.744 86.0961 233.352 87.0881C233.96 88.0801 234.264 89.2321 234.264 90.5441C234.264 91.8241 233.96 92.9681 233.352 93.9761C232.744 94.9681 231.904 95.7521 230.832 96.3281C229.76 96.9041 228.544 97.1921 227.184 97.1921ZM227.184 94.1201C227.808 94.1201 228.368 93.9761 228.864 93.6881C229.36 93.4001 229.752 92.9921 230.04 92.4641C230.328 91.9201 230.472 91.2801 230.472 90.5441C230.472 89.7921 230.328 89.1521 230.04 88.6241C229.752 88.0961 229.36 87.6881 228.864 87.4001C228.368 87.1121 227.808 86.9681 227.184 86.9681C226.56 86.9681 226 87.1121 225.504 87.4001C225.008 87.6881 224.608 88.0961 224.304 88.6241C224.016 89.1521 223.872 89.7921 223.872 90.5441C223.872 91.2801 224.016 91.9201 224.304 92.4641C224.608 92.9921 225.008 93.4001 225.504 93.6881C226 93.9761 226.56 94.1201 227.184 94.1201ZM239.13 97.0001V86.2961L239.97 87.1601H234.762V84.0881H247.218V87.1601H242.01L242.85 86.2961V97.0001H239.13ZM249.214 97.0001V84.0881H252.934V89.1281H258.55V84.0881H262.294V97.0001H258.55V92.1761H252.934V97.0001H249.214ZM265.854 97.0001V84.0881H269.598V97.0001H265.854ZM267.726 82.2881C267.038 82.2881 266.478 82.0881 266.046 81.6881C265.614 81.2881 265.398 80.7921 265.398 80.2001C265.398 79.6081 265.614 79.1121 266.046 78.7121C266.478 78.3121 267.038 78.1121 267.726 78.1121C268.414 78.1121 268.974 78.3041 269.406 78.6881C269.838 79.0561 270.054 79.5361 270.054 80.1281C270.054 80.7521 269.838 81.2721 269.406 81.6881C268.99 82.0881 268.43 82.2881 267.726 82.2881ZM279.335 97.1921C277.943 97.1921 276.703 96.9121 275.615 96.3521C274.527 95.7761 273.671 94.9841 273.047 93.9761C272.439 92.9681 272.135 91.8241 272.135 90.5441C272.135 89.2481 272.439 88.1041 273.047 87.1121C273.671 86.1041 274.527 85.3201 275.615 84.7601C276.703 84.1841 277.943 83.8961 279.335 83.8961C280.695 83.8961 281.879 84.1841 282.887 84.7601C283.895 85.3201 284.639 86.1281 285.119 87.1841L282.215 88.7441C281.879 88.1361 281.455 87.6881 280.943 87.4001C280.447 87.1121 279.903 86.9681 279.311 86.9681C278.671 86.9681 278.095 87.1121 277.583 87.4001C277.071 87.6881 276.663 88.0961 276.359 88.6241C276.071 89.1521 275.927 89.7921 275.927 90.5441C275.927 91.2961 276.071 91.9361 276.359 92.4641C276.663 92.9921 277.071 93.4001 277.583 93.6881C278.095 93.9761 278.671 94.1201 279.311 94.1201C279.903 94.1201 280.447 93.9841 280.943 93.7121C281.455 93.4241 281.879 92.9681 282.215 92.3441L285.119 93.9281C284.639 94.9681 283.895 95.7761 282.887 96.3521C281.879 96.9121 280.695 97.1921 279.335 97.1921ZM290.13 97.0001V86.2961L290.97 87.1601H285.762V84.0881H298.218V87.1601H293.01L293.85 86.2961V97.0001H290.13ZM307.198 88.2161C308.894 88.2321 310.182 88.6161 311.062 89.3681C311.958 90.1041 312.406 91.1521 312.406 92.5121C312.406 93.9361 311.902 95.0481 310.894 95.8481C309.886 96.6321 308.486 97.0241 306.694 97.0241L300.214 97.0001V84.0881H303.934V88.2161H307.198ZM306.358 94.3601C307.078 94.3761 307.63 94.2241 308.014 93.9041C308.398 93.5841 308.59 93.1041 308.59 92.4641C308.59 91.8241 308.398 91.3681 308.014 91.0961C307.63 90.8081 307.078 90.6561 306.358 90.6401L303.934 90.6161V94.3601H306.358ZM314.937 91.1681L314.193 80.2001H318.657L317.913 91.1681H314.937ZM316.425 97.1921C315.753 97.1921 315.201 96.9761 314.769 96.5441C314.337 96.1121 314.121 95.6001 314.121 95.0081C314.121 94.4001 314.337 93.8961 314.769 93.4961C315.201 93.0801 315.753 92.8721 316.425 92.8721C317.113 92.8721 317.665 93.0801 318.081 93.4961C318.513 93.8961 318.729 94.4001 318.729 95.0081C318.729 95.6001 318.513 96.1121 318.081 96.5441C317.665 96.9761 317.113 97.1921 316.425 97.1921Z" fill="white"/>
</svg>
