<svg width="116" height="48" viewBox="0 0 116 48" fill="none" xmlns="http://www.w3.org/2000/svg">
<mask id="mask0_766_20023" style="mask-type:luminance" maskUnits="userSpaceOnUse" x="0" y="0" width="116" height="48">
<path d="M115.909 0H0.908691V48H115.909V0Z" fill="white"/>
</mask>
<g mask="url(#mask0_766_20023)">
<path d="M60.5738 33.6646C60.5738 34.5195 59.9186 35.1972 59.0484 35.1972C58.1782 35.1972 57.564 34.5195 57.564 33.6646V13.9808C57.564 13.1259 58.2192 12.4482 59.0484 12.4482C59.8777 12.4482 60.5738 13.1259 60.5738 13.9808V33.6646Z" fill="#065354"/>
<path d="M67.5662 15.451V23.8125H72.8796C75.5926 23.8125 76.6061 21.7273 76.6061 19.6422C76.6061 17.557 75.6028 15.4406 73.0127 15.4406H67.5662V15.451ZM70.4225 26.6378H67.5355V33.6648C67.5355 34.5197 66.8803 35.1973 66.0101 35.1973C65.1399 35.1973 64.5256 34.5197 64.5256 33.6648V13.9184C64.5256 13.1991 65.1092 12.6152 65.7951 12.6152H73.1253C77.8244 12.6152 79.7388 16.1287 79.7388 19.6422C79.7388 22.9575 78.0803 26.1895 73.9034 26.544L78.2749 32.789C78.756 33.5084 78.6332 34.4154 77.9165 34.9054C77.2408 35.4267 76.3297 35.2286 75.8178 34.5092L70.4328 26.6378H70.4225Z" fill="#065354"/>
<path d="M85.2877 25.4284V32.1947H94.6245C95.4025 32.1947 96.0475 32.8098 96.0475 33.6231C96.0475 34.4363 95.3923 35.0201 94.6245 35.0201H83.8032C82.9945 35.0201 82.2778 34.3007 82.2778 33.4562V14.1791C82.2778 13.3242 82.9945 12.6152 83.8032 12.6152H94.2355C95.0135 12.6152 95.6585 13.2304 95.6585 14.0123C95.6585 14.7942 95.0033 15.4406 94.2355 15.4406H85.2877V22.6031H93.0069C93.785 22.6031 94.43 23.2182 94.43 24.0314C94.43 24.8446 93.7748 25.4284 93.0069 25.4284H85.2877Z" fill="#065354"/>
<path d="M101.719 34.5406C101.258 35.2183 100.255 35.3955 99.5795 34.9368C98.8321 34.4468 98.7707 33.4668 99.2519 32.7891L105.569 22.9889L100.061 14.7943C99.6 14.0437 99.8047 13.1679 100.542 12.6779C101.258 12.2192 102.159 12.4798 102.62 13.1992L107.391 20.518L112.162 13.1992C112.622 12.4798 113.523 12.2296 114.24 12.6779C114.987 13.1679 115.182 14.0437 114.721 14.7943L109.213 22.9889L115.53 32.7891C116.011 33.4668 115.95 34.4572 115.202 34.9368C114.527 35.3955 113.513 35.2287 113.063 34.5406L107.391 25.4911L101.719 34.5406Z" fill="#065354"/>
<path d="M29.0418 31.2253C28.7347 30.1202 28.489 29.0046 28.3354 27.8578C20.5753 26.7631 12.8151 29.3382 7.19459 34.9786L5.28014 36.9073C4.65564 37.5329 4.65564 38.5442 5.28014 39.1697C5.58727 39.4825 5.99678 39.6389 6.40629 39.6389C6.8158 39.6389 7.2253 39.4825 7.53243 39.1697L9.45712 37.2409C14.6374 32.0489 21.8959 29.8283 29.0418 31.2253Z" fill="#9AB83D"/>
<path d="M31.9193 29.6089C31.9193 29.6089 31.9193 29.5672 31.8982 29.5464C31.8982 29.5672 31.8982 29.5881 31.9193 29.6089Z" fill="#9AB83D"/>
<path d="M17.0023 44.8202C16.3778 45.4458 16.3778 46.4571 17.0023 47.0826C17.6268 47.7082 18.6301 47.7082 19.2546 47.0826C22.3771 43.9549 27.4345 43.9653 30.5468 47.0826C30.8539 47.3954 31.2634 47.5518 31.6729 47.5518C32.0824 47.5518 32.4919 47.3954 32.7991 47.0826C33.4236 46.4571 33.4236 45.4458 32.7991 44.8202C28.4378 40.4414 21.3533 40.4414 16.9921 44.8202H17.0023Z" fill="#9AB83D"/>
<path d="M35.4403 42.1617C33.4849 40.2017 31.8981 37.9602 30.7003 35.5414C24.3939 33.4041 17.1149 34.8533 12.0984 39.8993L10.1737 41.8385C9.5492 42.4641 9.5492 43.4754 10.1737 44.1009C10.4808 44.4137 10.8903 44.5701 11.2998 44.5701C11.7094 44.5701 12.1189 44.4137 12.426 44.1009L14.3507 42.1617C20.1554 36.3338 29.6253 36.3338 35.4301 42.1617" fill="#9AB83D"/>
<path d="M18.1488 11.5099C17.9441 11.1659 17.7291 10.8322 17.5038 10.4882C17.5038 10.4882 17.4834 10.4569 17.4731 10.4465C17.0431 9.8001 16.5824 9.17456 16.091 8.56986C16.0501 8.52816 16.0194 8.47603 15.9784 8.43433C15.743 8.15284 15.5177 7.88177 15.272 7.6107C15.2208 7.569 15.1901 7.51687 15.1389 7.47516C14.883 7.19367 14.627 6.9226 14.3609 6.65153L12.3952 4.68107C11.7707 4.05553 10.7674 4.05553 10.1429 4.68107C9.51844 5.30661 9.51844 6.31791 10.1429 6.94345L12.1086 8.91391C12.344 9.14328 12.5693 9.38307 12.774 9.62286C12.8252 9.66456 12.8662 9.72712 12.9173 9.76882C13.1323 9.99819 13.3371 10.2484 13.5418 10.4882C13.5726 10.5299 13.593 10.5508 13.6238 10.5925C13.8183 10.8218 14.0025 11.072 14.1868 11.3118C14.2073 11.3431 14.238 11.364 14.2482 11.4057C14.4428 11.6663 14.627 11.9374 14.8113 12.2189C14.8318 12.2501 14.8523 12.2814 14.8727 12.3127C17.2274 15.8783 18.4969 20.0382 18.4969 24.417V24.4795C18.4969 25.8349 18.3536 27.2006 18.0976 28.5664C19.1931 28.2536 20.309 28.0243 21.4453 27.8679C22.2439 22.1337 21.0666 16.41 18.1488 11.5308V11.5099Z" fill="#D76527"/>
<path d="M7.54269 9.61271C6.91819 8.98717 5.9149 8.98717 5.2904 9.61271C4.6659 10.2383 4.6659 11.2495 5.2904 11.8751L7.20484 13.8038C13.0096 19.6318 13.0096 29.1401 7.20484 34.9785C9.17048 33.008 11.4023 31.4129 13.8082 30.2035C15.9274 23.8647 14.4838 16.5771 9.45714 11.5415L7.54269 9.61271Z" fill="#D76527"/>
<path d="M4.56344 16.4623C3.93894 15.8368 2.93565 15.8368 2.31115 16.4623C1.68665 17.0879 1.68665 18.0992 2.31115 18.7247C3.81609 20.2364 4.64534 22.259 4.64534 24.3963C4.64534 26.5336 3.81609 28.5562 2.31115 30.0679C1.68665 30.6934 1.68665 31.7047 2.31115 32.3303C2.61828 32.643 3.02779 32.7994 3.43729 32.7994C3.8468 32.7994 4.25631 32.643 4.56344 32.3303C6.67241 30.2034 7.8395 27.3989 7.8395 24.3963C7.8395 21.3937 6.67241 18.5787 4.56344 16.4623Z" fill="#D76527"/>
<path d="M24.8956 7.25636C27.7519 7.25636 30.6184 6.16166 32.7991 3.97226C33.4236 3.34672 33.4236 2.33542 32.7991 1.70988C32.1746 1.08434 31.1713 1.08434 30.5468 1.70988C27.4243 4.82717 22.3669 4.8376 19.2546 1.70988C18.6301 1.08434 17.6268 1.08434 17.0023 1.70988C16.3778 2.33542 16.3778 3.34672 17.0023 3.97226C19.1829 6.16166 22.0393 7.25636 24.9058 7.25636H24.8956Z" fill="#065354"/>
<path d="M44.5007 9.61271C43.8762 8.98717 42.8729 8.98717 42.2484 9.61271L40.334 11.5415C35.1537 16.7335 27.8952 18.9542 20.7493 17.5571C21.0564 18.6622 21.2919 19.7778 21.4454 20.9246C22.6228 21.0914 23.7899 21.1748 24.9672 21.1748C31.5091 21.1748 37.8257 18.5997 42.5965 13.8038L44.511 11.8751C45.1355 11.2495 45.1355 10.2383 44.511 9.61271H44.5007Z" fill="#065354"/>
<path d="M24.8954 14.2102C29.5331 14.2102 34.1708 12.4378 37.6925 8.89306L39.6377 6.94345C40.2622 6.31791 40.2622 5.30661 39.6377 4.68107C39.0132 4.05553 38.0099 4.05553 37.3854 4.68107L35.4402 6.63068C29.6252 12.4691 20.1656 12.4587 14.3608 6.63068C16.3162 8.59072 17.9031 10.8322 19.1009 13.251C20.9846 13.887 22.9503 14.1998 24.8954 14.1998V14.2102Z" fill="#065354"/>
<path d="M37.6927 39.8991C32.5431 34.7279 30.3215 27.409 31.6934 20.2466C30.598 20.5594 29.482 20.7991 28.3457 20.9451C27.2707 28.7331 29.8506 36.5524 35.4404 42.1614L37.3958 44.1215C37.7029 44.4342 38.1124 44.5906 38.5219 44.5906C38.9314 44.5906 39.3409 44.4342 39.6481 44.1215C40.2726 43.4959 40.2726 42.4846 39.6481 41.8591L37.6927 39.8991Z" fill="#0C8B8E"/>
<path d="M42.5863 34.9783C36.7815 29.1399 36.7815 19.6421 42.5863 13.8037C40.6207 15.7742 38.3888 17.3693 35.983 18.5683C33.8638 24.9071 35.3073 32.1947 40.3238 37.2407L42.2382 39.1695C42.5454 39.4822 42.9549 39.6386 43.3644 39.6386C43.7739 39.6386 44.1834 39.4822 44.4905 39.1695C45.115 38.5439 45.115 37.5326 44.4905 36.9071L42.5761 34.9783H42.5863Z" fill="#0C8B8E"/>
<path d="M47.4798 18.7247C48.1043 18.0992 48.1043 17.0879 47.4798 16.4623C46.8553 15.8368 45.852 15.8368 45.2275 16.4623C40.8662 20.8411 40.8662 27.9619 45.2275 32.3303C45.5346 32.643 45.9441 32.7994 46.3536 32.7994C46.7631 32.7994 47.1726 32.643 47.4798 32.3303C48.1043 31.7047 48.1043 30.6934 47.4798 30.0679C44.3573 26.9402 44.3573 21.8524 47.4798 18.7247Z" fill="#0C8B8E"/>
</g>
</svg>
