<svg width="81" height="32" viewBox="0 0 81 32" fill="none" xmlns="http://www.w3.org/2000/svg">
<g clip-path="url(#clip0_912_1492)">
<mask id="mask0_912_1492" style="mask-type:luminance" maskUnits="userSpaceOnUse" x="0" y="0" width="81" height="32">
<path d="M80.9111 0H0.911133V32H80.9111V0Z" fill="white"/>
</mask>
<g mask="url(#mask0_912_1492)">
<path d="M42.4176 22.443C42.4176 23.013 41.9618 23.4648 41.3564 23.4648C40.751 23.4648 40.3237 23.013 40.3237 22.443V9.32055C40.3237 8.75061 40.7795 8.29883 41.3564 8.29883C41.9333 8.29883 42.4176 8.75061 42.4176 9.32055V22.443Z" fill="#065354"/>
<path d="M47.2817 10.3007V15.875H50.978C52.8652 15.875 53.5703 14.4849 53.5703 13.0948C53.5703 11.7047 52.8724 10.2937 51.0705 10.2937H47.2817V10.3007ZM49.2687 17.7585H47.2603V22.4432C47.2603 23.0131 46.8045 23.4649 46.1992 23.4649C45.5938 23.4649 45.1665 23.0131 45.1665 22.4432V9.27897C45.1665 8.79938 45.5725 8.41016 46.0496 8.41016H51.1489C54.4178 8.41016 55.7496 10.7525 55.7496 13.0948C55.7496 15.305 54.5959 17.4597 51.6901 17.696L54.7312 21.8593C55.0659 22.3389 54.9804 22.9436 54.4819 23.2703C54.0119 23.6178 53.378 23.4857 53.0219 23.0062L49.2758 17.7585H49.2687Z" fill="#065354"/>
<path d="M59.6097 16.9523V21.4632H66.1048C66.6461 21.4632 67.0948 21.8732 67.0948 22.4154C67.0948 22.9575 66.639 23.3467 66.1048 23.3467H58.577C58.0144 23.3467 57.5159 22.8672 57.5159 22.3042V9.45273C57.5159 8.88279 58.0144 8.41016 58.577 8.41016H65.8342C66.3755 8.41016 66.8242 8.82023 66.8242 9.34152C66.8242 9.86281 66.3684 10.2937 65.8342 10.2937H59.6097V15.0687H64.9796C65.5208 15.0687 65.9695 15.4788 65.9695 16.0209C65.9695 16.5631 65.5137 16.9523 64.9796 16.9523H59.6097Z" fill="#065354"/>
<path d="M71.0404 23.0269C70.7199 23.4787 70.0219 23.5969 69.5519 23.291C69.032 22.9644 68.9893 22.311 69.324 21.8592L73.7182 15.3258L69.8866 9.86271C69.5661 9.36228 69.7086 8.77844 70.2214 8.45176C70.7199 8.14594 71.3466 8.31971 71.6671 8.79929L74.9859 13.6785L78.3047 8.79929C78.6252 8.31971 79.2519 8.15289 79.7504 8.45176C80.2703 8.77844 80.4056 9.36228 80.0851 9.86271L76.2536 15.3258L80.6478 21.8592C80.9825 22.311 80.9398 22.9713 80.4199 23.291C79.9498 23.5969 79.2448 23.4856 78.9314 23.0269L74.9859 16.9939L71.0404 23.0269Z" fill="#065354"/>
<path d="M20.4822 20.8166C20.2685 20.0799 20.0976 19.3362 19.9907 18.5716C14.5924 17.8418 9.19399 19.5586 5.28408 23.3188L3.95229 24.6046C3.51786 25.0217 3.51786 25.6959 3.95229 26.1129C4.16595 26.3214 4.45082 26.4257 4.7357 26.4257C5.02057 26.4257 5.30545 26.3214 5.5191 26.1129L6.85801 24.827C10.4617 21.3657 15.5111 19.8853 20.4822 20.8166Z" fill="#9AB83D"/>
<path d="M22.485 19.7395C22.485 19.7395 22.485 19.7117 22.469 19.6978C22.469 19.7117 22.469 19.7256 22.485 19.7395Z" fill="#9AB83D"/>
<path d="M12.1068 29.8801C11.6724 30.2971 11.6724 30.9713 12.1068 31.3883C12.5413 31.8054 13.2392 31.8054 13.6736 31.3883C15.8458 29.3032 19.364 29.3101 21.5291 31.3883C21.7427 31.5968 22.0276 31.7011 22.3125 31.7011C22.5973 31.7011 22.8822 31.5968 23.0959 31.3883C23.5303 30.9713 23.5303 30.2971 23.0959 29.8801C20.062 26.9609 15.1336 26.9609 12.0997 29.8801H12.1068Z" fill="#9AB83D"/>
<path d="M24.9331 28.1078C23.5728 26.8011 22.469 25.3068 21.6357 23.6943C17.2486 22.2694 12.185 23.2355 8.69526 26.5996L7.35634 27.8924C6.92191 28.3094 6.92191 28.9836 7.35634 29.4006C7.57 29.6091 7.85487 29.7134 8.13975 29.7134C8.42462 29.7134 8.7095 29.6091 8.92316 29.4006L10.2621 28.1078C14.3002 24.2225 20.8879 24.2225 24.926 28.1078" fill="#9AB83D"/>
<path d="M12.9044 7.67344C12.762 7.44407 12.6124 7.22166 12.4557 6.99229C12.4557 6.99229 12.4415 6.97144 12.4344 6.96449C12.1352 6.53356 11.8148 6.11653 11.4729 5.71341C11.4444 5.6856 11.4231 5.65085 11.3946 5.62305C11.2308 5.43539 11.0741 5.25467 10.9032 5.07396C10.8676 5.04616 10.8462 5.01141 10.8106 4.98361C10.6325 4.79594 10.4545 4.61523 10.2693 4.43452L8.90191 3.12088C8.46748 2.70385 7.76954 2.70385 7.3351 3.12088C6.90067 3.53791 6.90067 4.2121 7.3351 4.62913L8.7025 5.94277C8.86631 6.09568 9.02299 6.25554 9.16542 6.4154C9.20103 6.44321 9.22952 6.48491 9.26513 6.51271C9.41469 6.66562 9.55713 6.83243 9.69956 6.99229C9.72093 7.0201 9.73517 7.034 9.75654 7.0618C9.89186 7.21471 10.02 7.38152 10.1482 7.54138C10.1625 7.56223 10.1839 7.57613 10.191 7.60394C10.3263 7.7777 10.4545 7.95841 10.5827 8.14607C10.5969 8.16692 10.6112 8.18778 10.6254 8.20863C12.2634 10.5857 13.1466 13.3589 13.1466 16.2781V16.3198C13.1466 17.2234 13.0468 18.1339 12.8688 19.0444C13.6308 18.8359 14.4071 18.683 15.1977 18.5787C15.7532 14.756 14.9341 10.9402 12.9044 7.68734V7.67344Z" fill="#D76527"/>
<path d="M5.52618 6.40847C5.09175 5.99145 4.3938 5.99145 3.95937 6.40847C3.52494 6.8255 3.52494 7.4997 3.95937 7.91673L5.29116 9.20257C9.32926 13.0879 9.32926 19.4267 5.29116 23.319C6.65856 22.0053 8.21113 20.9419 9.88477 20.1357C11.359 15.9098 10.3548 11.0514 6.85797 7.69431L5.52618 6.40847Z" fill="#D76527"/>
<path d="M3.45367 10.9749C3.01924 10.5579 2.3213 10.5579 1.88686 10.9749C1.45243 11.3919 1.45243 12.0661 1.88686 12.4831C2.93378 13.491 3.51065 14.8393 3.51065 16.2642C3.51065 17.689 2.93378 19.0374 1.88686 20.0453C1.45243 20.4623 1.45243 21.1365 1.88686 21.5535C2.10052 21.762 2.38539 21.8663 2.67027 21.8663C2.95514 21.8663 3.24002 21.762 3.45367 21.5535C4.92078 20.1356 5.73267 18.2659 5.73267 16.2642C5.73267 14.2625 4.92078 12.3858 3.45367 10.9749Z" fill="#D76527"/>
<path d="M17.5978 4.83757C19.5848 4.83757 21.5789 4.10777 23.0959 2.64817C23.5303 2.23115 23.5303 1.55695 23.0959 1.13992C22.6614 0.722891 21.9635 0.722891 21.5291 1.13992C19.3569 3.21811 15.8387 3.22506 13.6736 1.13992C13.2392 0.722891 12.5413 0.722891 12.1068 1.13992C11.6724 1.55695 11.6724 2.23115 12.1068 2.64817C13.6238 4.10777 15.6108 4.83757 17.6049 4.83757H17.5978Z" fill="#065354"/>
<path d="M31.2361 6.40847C30.8017 5.99145 30.1037 5.99145 29.6693 6.40847L28.3375 7.69431C24.7339 11.1557 19.6844 12.6361 14.7134 11.7047C14.927 12.4415 15.0908 13.1852 15.1977 13.9497C16.0167 14.0609 16.8286 14.1166 17.6476 14.1166C22.1985 14.1166 26.5927 12.3998 29.9115 9.20257L31.2432 7.91673C31.6777 7.4997 31.6777 6.8255 31.2432 6.40847H31.2361Z" fill="#065354"/>
<path d="M17.5977 9.47361C20.8239 9.47361 24.0501 8.29203 26.5 5.92887L27.8532 4.62913C28.2876 4.2121 28.2876 3.53791 27.8532 3.12088C27.4188 2.70385 26.7208 2.70385 26.2864 3.12088L24.9332 4.42062C20.888 8.31288 14.3074 8.30593 10.2693 4.42062C11.6296 5.72731 12.7335 7.22166 13.5667 8.83417C14.8771 9.25815 16.2445 9.46666 17.5977 9.46666V9.47361Z" fill="#065354"/>
<path d="M26.5 26.5995C22.9177 23.152 21.3722 18.2728 22.3266 13.4978C21.5645 13.7063 20.7882 13.8662 19.9977 13.9635C19.2499 19.1555 21.0446 24.3683 24.9332 28.1077L26.2934 29.4144C26.5071 29.6229 26.792 29.7272 27.0769 29.7272C27.3617 29.7272 27.6466 29.6229 27.8603 29.4144C28.2947 28.9974 28.2947 28.3232 27.8603 27.9061L26.5 26.5995Z" fill="#0C8B8E"/>
<path d="M29.9044 23.3188C25.8663 19.4265 25.8663 13.0947 29.9044 9.20239C28.537 10.516 26.9845 11.5795 25.3108 12.3788C23.8366 16.6047 24.8408 21.463 28.3305 24.8271L29.6623 26.1129C29.8759 26.3214 30.1608 26.4257 30.4457 26.4257C30.7306 26.4257 31.0154 26.3214 31.2291 26.1129C31.6635 25.6959 31.6635 25.0217 31.2291 24.6047L29.8973 23.3188H29.9044Z" fill="#0C8B8E"/>
<path d="M33.3086 12.4831C33.743 12.0661 33.743 11.3919 33.3086 10.9749C32.8741 10.5579 32.1762 10.5579 31.7417 10.9749C28.7078 13.8941 28.7078 18.6413 31.7417 21.5535C31.9554 21.762 32.2403 21.8663 32.5252 21.8663C32.81 21.8663 33.0949 21.762 33.3086 21.5535C33.743 21.1365 33.743 20.4623 33.3086 20.0453C31.1364 17.9601 31.1364 14.5683 33.3086 12.4831Z" fill="#0C8B8E"/>
</g>
</g>
<defs>
<clipPath id="clip0_912_1492">
<rect width="80" height="32" fill="white" transform="translate(0.911133)"/>
</clipPath>
</defs>
</svg>
