<svg width="688" height="726" viewBox="0 0 688 726" fill="none" xmlns="http://www.w3.org/2000/svg">
<path d="M607.441 0H204.635C160.136 0 124.066 0 124.066 62.0442V143.407C124.066 191.297 160.136 191.297 204.635 191.297H471.057C476.754 207.615 459.148 236.608 438.459 255.789C438.459 255.789 542.094 234.439 560.908 191.297H607.441C651.929 191.297 688 191.297 688 129.257V62.0442C688 0 651.929 0 607.441 0Z" fill="white"/>
<path d="M154.044 60.3677V47.7677H159.678C161.094 47.7677 162.198 48.0497 162.99 48.6137C163.782 49.1657 164.178 49.9637 164.178 51.0077C164.178 52.0397 163.8 52.8377 163.044 53.4017C162.288 53.9537 161.292 54.2297 160.056 54.2297L160.38 53.5817C161.784 53.5817 162.87 53.8637 163.638 54.4277C164.406 54.9917 164.79 55.8077 164.79 56.8757C164.79 57.9677 164.388 58.8257 163.584 59.4497C162.78 60.0617 161.592 60.3677 160.02 60.3677H154.044ZM156.348 58.5677H159.948C160.764 58.5677 161.382 58.4177 161.802 58.1177C162.222 57.8057 162.432 57.3317 162.432 56.6957C162.432 56.0597 162.222 55.5977 161.802 55.3097C161.382 55.0097 160.764 54.8597 159.948 54.8597H156.348V58.5677ZM156.348 53.1497H159.48C160.236 53.1497 160.812 52.9997 161.208 52.6997C161.604 52.3877 161.802 51.9437 161.802 51.3677C161.802 50.7677 161.604 50.3177 161.208 50.0177C160.812 49.7177 160.236 49.5677 159.48 49.5677H156.348V53.1497ZM174.177 60.3677V52.1237L174.699 52.6637H170.793V50.7557H179.793V52.6637H175.905L176.427 52.1237V60.3677H174.177ZM185.485 60.4937C184.417 60.4937 183.481 60.2837 182.677 59.8637C181.885 59.4317 181.267 58.8437 180.823 58.0997C180.391 57.3557 180.175 56.5097 180.175 55.5617C180.175 54.6017 180.385 53.7557 180.805 53.0237C181.237 52.2797 181.825 51.6977 182.569 51.2777C183.325 50.8577 184.183 50.6477 185.143 50.6477C186.079 50.6477 186.913 50.8517 187.645 51.2597C188.377 51.6677 188.953 52.2437 189.373 52.9877C189.793 53.7317 190.003 54.6077 190.003 55.6157C190.003 55.7117 189.997 55.8197 189.985 55.9397C189.985 56.0597 189.979 56.1737 189.967 56.2817H181.957V54.7877H188.779L187.897 55.2557C187.909 54.7037 187.795 54.2177 187.555 53.7977C187.315 53.3777 186.985 53.0477 186.565 52.8077C186.157 52.5677 185.683 52.4477 185.143 52.4477C184.591 52.4477 184.105 52.5677 183.685 52.8077C183.277 53.0477 182.953 53.3837 182.713 53.8157C182.485 54.2357 182.371 54.7337 182.371 55.3097V55.6697C182.371 56.2457 182.503 56.7557 182.767 57.1997C183.031 57.6437 183.403 57.9857 183.883 58.2257C184.363 58.4657 184.915 58.5857 185.539 58.5857C186.079 58.5857 186.565 58.5017 186.997 58.3337C187.429 58.1657 187.813 57.9017 188.149 57.5417L189.355 58.9277C188.923 59.4317 188.377 59.8217 187.717 60.0977C187.069 60.3617 186.325 60.4937 185.485 60.4937ZM197.054 60.5477C196.262 60.5477 195.554 60.4277 194.93 60.1877C194.306 59.9477 193.766 59.5817 193.31 59.0897C192.866 58.5857 192.524 57.9497 192.284 57.1817C192.044 56.4137 191.924 55.5017 191.924 54.4457C191.924 53.6777 191.99 52.9757 192.122 52.3397C192.254 51.7037 192.452 51.1337 192.716 50.6297C192.98 50.1137 193.31 49.6577 193.706 49.2617C194.114 48.8657 194.588 48.5357 195.128 48.2717C195.668 48.0077 196.28 47.8037 196.964 47.6597L201.428 46.7057L201.752 48.7217L197.702 49.5497C197.474 49.5977 197.198 49.6697 196.874 49.7657C196.562 49.8497 196.238 49.9817 195.902 50.1617C195.578 50.3297 195.272 50.5757 194.984 50.8997C194.708 51.2117 194.48 51.6197 194.3 52.1237C194.132 52.6157 194.048 53.2337 194.048 53.9777C194.048 54.2057 194.054 54.3797 194.066 54.4997C194.09 54.6077 194.108 54.7277 194.12 54.8597C194.144 54.9797 194.156 55.1597 194.156 55.3997L193.31 54.5177C193.55 53.9057 193.88 53.3837 194.3 52.9517C194.732 52.5077 195.23 52.1717 195.794 51.9437C196.37 51.7037 196.994 51.5837 197.666 51.5837C198.566 51.5837 199.364 51.7697 200.06 52.1417C200.756 52.5137 201.302 53.0357 201.698 53.7077C202.094 54.3797 202.292 55.1417 202.292 55.9937C202.292 56.8817 202.076 57.6677 201.644 58.3517C201.212 59.0357 200.6 59.5757 199.808 59.9717C199.028 60.3557 198.11 60.5477 197.054 60.5477ZM197.234 58.7297C197.774 58.7297 198.248 58.6157 198.656 58.3877C199.076 58.1477 199.4 57.8237 199.628 57.4157C199.868 57.0077 199.988 56.5517 199.988 56.0477C199.988 55.5437 199.868 55.1057 199.628 54.7337C199.4 54.3497 199.076 54.0437 198.656 53.8157C198.248 53.5877 197.762 53.4737 197.198 53.4737C196.658 53.4737 196.172 53.5817 195.74 53.7977C195.32 54.0137 194.99 54.3137 194.75 54.6977C194.522 55.0697 194.408 55.5017 194.408 55.9937C194.408 56.4977 194.528 56.9597 194.768 57.3797C195.008 57.7997 195.338 58.1297 195.758 58.3697C196.19 58.6097 196.682 58.7297 197.234 58.7297ZM208.952 60.4937C207.884 60.4937 206.948 60.2837 206.144 59.8637C205.352 59.4317 204.734 58.8437 204.29 58.0997C203.858 57.3557 203.642 56.5097 203.642 55.5617C203.642 54.6017 203.852 53.7557 204.272 53.0237C204.704 52.2797 205.292 51.6977 206.036 51.2777C206.792 50.8577 207.65 50.6477 208.61 50.6477C209.546 50.6477 210.38 50.8517 211.112 51.2597C211.844 51.6677 212.42 52.2437 212.84 52.9877C213.26 53.7317 213.47 54.6077 213.47 55.6157C213.47 55.7117 213.464 55.8197 213.452 55.9397C213.452 56.0597 213.446 56.1737 213.434 56.2817H205.424V54.7877H212.246L211.364 55.2557C211.376 54.7037 211.262 54.2177 211.022 53.7977C210.782 53.3777 210.452 53.0477 210.032 52.8077C209.624 52.5677 209.15 52.4477 208.61 52.4477C208.058 52.4477 207.572 52.5677 207.152 52.8077C206.744 53.0477 206.42 53.3837 206.18 53.8157C205.952 54.2357 205.838 54.7337 205.838 55.3097V55.6697C205.838 56.2457 205.97 56.7557 206.234 57.1997C206.498 57.6437 206.87 57.9857 207.35 58.2257C207.83 58.4657 208.382 58.5857 209.006 58.5857C209.546 58.5857 210.032 58.5017 210.464 58.3337C210.896 58.1657 211.28 57.9017 211.616 57.5417L212.822 58.9277C212.39 59.4317 211.844 59.8217 211.184 60.0977C210.536 60.3617 209.792 60.4937 208.952 60.4937ZM222.903 60.3677V52.1237L223.425 52.6637H219.519V50.7557H228.519V52.6637H224.631L225.153 52.1237V60.3677H222.903ZM234.013 60.4937C233.029 60.4937 232.153 60.2837 231.385 59.8637C230.617 59.4317 230.011 58.8437 229.567 58.0997C229.123 57.3557 228.901 56.5097 228.901 55.5617C228.901 54.6017 229.123 53.7557 229.567 53.0237C230.011 52.2797 230.617 51.6977 231.385 51.2777C232.153 50.8577 233.029 50.6477 234.013 50.6477C235.009 50.6477 235.891 50.8577 236.659 51.2777C237.439 51.6977 238.045 52.2737 238.477 53.0057C238.921 53.7377 239.143 54.5897 239.143 55.5617C239.143 56.5097 238.921 57.3557 238.477 58.0997C238.045 58.8437 237.439 59.4317 236.659 59.8637C235.891 60.2837 235.009 60.4937 234.013 60.4937ZM234.013 58.5677C234.565 58.5677 235.057 58.4477 235.489 58.2077C235.921 57.9677 236.257 57.6197 236.497 57.1637C236.749 56.7077 236.875 56.1737 236.875 55.5617C236.875 54.9377 236.749 54.4037 236.497 53.9597C236.257 53.5037 235.921 53.1557 235.489 52.9157C235.057 52.6757 234.571 52.5557 234.031 52.5557C233.479 52.5557 232.987 52.6757 232.555 52.9157C232.135 53.1557 231.799 53.5037 231.547 53.9597C231.295 54.4037 231.169 54.9377 231.169 55.5617C231.169 56.1737 231.295 56.7077 231.547 57.1637C231.799 57.6197 232.135 57.9677 232.555 58.2077C232.987 58.4477 233.473 58.5677 234.013 58.5677ZM247.432 56.5697C246.976 56.7857 246.49 56.9657 245.974 57.1097C245.47 57.2417 244.936 57.3077 244.372 57.3077C243.16 57.3077 242.218 57.0257 241.546 56.4617C240.874 55.8977 240.538 55.0217 240.538 53.8337V50.7557H242.788V53.6897C242.788 54.3257 242.968 54.7877 243.328 55.0757C243.7 55.3637 244.21 55.5077 244.858 55.5077C245.29 55.5077 245.722 55.4537 246.154 55.3457C246.586 55.2377 247.012 55.0877 247.432 54.8957V56.5697ZM247.27 60.3677V50.7557H249.52V60.3677H247.27ZM252.546 60.3677V50.7557H254.796V54.6617H259.638V50.7557H261.888V60.3677H259.638V56.5697H254.796V60.3677H252.546ZM269.187 60.4937C268.203 60.4937 267.327 60.2837 266.559 59.8637C265.791 59.4317 265.185 58.8437 264.741 58.0997C264.297 57.3557 264.075 56.5097 264.075 55.5617C264.075 54.6017 264.297 53.7557 264.741 53.0237C265.185 52.2797 265.791 51.6977 266.559 51.2777C267.327 50.8577 268.203 50.6477 269.187 50.6477C270.183 50.6477 271.065 50.8577 271.833 51.2777C272.613 51.6977 273.219 52.2737 273.651 53.0057C274.095 53.7377 274.317 54.5897 274.317 55.5617C274.317 56.5097 274.095 57.3557 273.651 58.0997C273.219 58.8437 272.613 59.4317 271.833 59.8637C271.065 60.2837 270.183 60.4937 269.187 60.4937ZM269.187 58.5677C269.739 58.5677 270.231 58.4477 270.663 58.2077C271.095 57.9677 271.431 57.6197 271.671 57.1637C271.923 56.7077 272.049 56.1737 272.049 55.5617C272.049 54.9377 271.923 54.4037 271.671 53.9597C271.431 53.5037 271.095 53.1557 270.663 52.9157C270.231 52.6757 269.745 52.5557 269.205 52.5557C268.653 52.5557 268.161 52.6757 267.729 52.9157C267.309 53.1557 266.973 53.5037 266.721 53.9597C266.469 54.4037 266.343 54.9377 266.343 55.5617C266.343 56.1737 266.469 56.7077 266.721 57.1637C266.973 57.6197 267.309 57.9677 267.729 58.2077C268.161 58.4477 268.647 58.5677 269.187 58.5677ZM284.557 60.5297C283.825 60.5297 283.099 60.4457 282.379 60.2777C281.671 60.0977 281.029 59.8457 280.453 59.5217L281.083 57.8477C281.551 58.1117 282.079 58.3157 282.667 58.4597C283.255 58.6037 283.843 58.6757 284.431 58.6757C284.935 58.6757 285.367 58.6277 285.727 58.5317C286.087 58.4237 286.363 58.2677 286.555 58.0637C286.759 57.8597 286.861 57.6257 286.861 57.3617C286.861 56.9777 286.693 56.6897 286.357 56.4977C286.033 56.2937 285.565 56.1917 284.953 56.1917H283.099V54.6797H284.773C285.157 54.6797 285.481 54.6377 285.745 54.5537C286.021 54.4697 286.231 54.3437 286.375 54.1757C286.519 54.0077 286.591 53.8097 286.591 53.5817C286.591 53.3537 286.501 53.1557 286.321 52.9877C286.153 52.8077 285.907 52.6757 285.583 52.5917C285.259 52.4957 284.869 52.4477 284.413 52.4477C283.933 52.4477 283.435 52.5077 282.919 52.6277C282.415 52.7477 281.899 52.9217 281.371 53.1497L280.795 51.4937C281.407 51.2177 282.001 51.0077 282.577 50.8637C283.165 50.7077 283.747 50.6237 284.323 50.6117C285.199 50.5757 285.979 50.6657 286.663 50.8817C287.347 51.0977 287.887 51.4097 288.283 51.8177C288.679 52.2257 288.877 52.7057 288.877 53.2577C288.877 53.7137 288.733 54.1277 288.445 54.4997C288.169 54.8597 287.785 55.1417 287.293 55.3457C286.813 55.5497 286.261 55.6517 285.637 55.6517L285.709 55.1657C286.777 55.1657 287.617 55.3817 288.229 55.8137C288.841 56.2337 289.147 56.8097 289.147 57.5417C289.147 58.1297 288.949 58.6517 288.553 59.1077C288.157 59.5517 287.611 59.8997 286.915 60.1517C286.231 60.4037 285.445 60.5297 284.557 60.5297ZM297.296 60.3677V58.4237L297.17 58.0097V54.6077C297.17 53.9477 296.972 53.4377 296.576 53.0777C296.18 52.7057 295.58 52.5197 294.776 52.5197C294.236 52.5197 293.702 52.6037 293.174 52.7717C292.658 52.9397 292.22 53.1737 291.86 53.4737L290.978 51.8357C291.494 51.4397 292.106 51.1457 292.814 50.9537C293.534 50.7497 294.278 50.6477 295.046 50.6477C296.438 50.6477 297.512 50.9837 298.268 51.6557C299.036 52.3157 299.42 53.3417 299.42 54.7337V60.3677H297.296ZM294.272 60.4937C293.552 60.4937 292.922 60.3737 292.382 60.1337C291.842 59.8817 291.422 59.5397 291.122 59.1077C290.834 58.6637 290.69 58.1657 290.69 57.6137C290.69 57.0737 290.816 56.5877 291.068 56.1557C291.332 55.7237 291.758 55.3817 292.346 55.1297C292.934 54.8777 293.714 54.7517 294.686 54.7517H297.476V56.2457H294.848C294.08 56.2457 293.564 56.3717 293.3 56.6237C293.036 56.8637 292.904 57.1637 292.904 57.5237C292.904 57.9317 293.066 58.2557 293.39 58.4957C293.714 58.7357 294.164 58.8557 294.74 58.8557C295.292 58.8557 295.784 58.7297 296.216 58.4777C296.66 58.2257 296.978 57.8537 297.17 57.3617L297.548 58.7117C297.332 59.2757 296.942 59.7137 296.378 60.0257C295.826 60.3377 295.124 60.4937 294.272 60.4937ZM300.8 60.3497L300.908 58.4597C300.992 58.4717 301.07 58.4837 301.142 58.4957C301.214 58.5077 301.28 58.5137 301.34 58.5137C301.712 58.5137 302 58.3997 302.204 58.1717C302.408 57.9437 302.558 57.6377 302.654 57.2537C302.762 56.8577 302.834 56.4197 302.87 55.9397C302.918 55.4477 302.954 54.9557 302.978 54.4637L303.14 50.7557H310.916V60.3677H308.666V52.0517L309.188 52.6637H304.616L305.102 52.0337L304.976 54.5717C304.94 55.4237 304.868 56.2157 304.76 56.9477C304.664 57.6677 304.508 58.2977 304.292 58.8377C304.088 59.3777 303.8 59.7977 303.428 60.0977C303.068 60.3977 302.606 60.5477 302.042 60.5477C301.862 60.5477 301.664 60.5297 301.448 60.4937C301.244 60.4577 301.028 60.4097 300.8 60.3497ZM313.946 60.3677V50.7557H316.196V57.0917L321.506 50.7557H323.558V60.3677H321.308V54.0317L316.016 60.3677H313.946ZM333.047 58.4597L332.561 58.9997V50.7557H334.811V58.9997L334.271 58.4597H339.023L338.501 58.9997V50.7557H340.751V60.3677H326.585V50.7557H328.835V58.9997L328.313 58.4597H333.047ZM343.776 60.3677V50.7557H346.026V57.0917L351.336 50.7557H353.388V60.3677H351.138V54.0317L345.846 60.3677H343.776ZM355.011 60.3497L355.119 58.4597C355.203 58.4717 355.281 58.4837 355.353 58.4957C355.425 58.5077 355.491 58.5137 355.551 58.5137C355.923 58.5137 356.211 58.3997 356.415 58.1717C356.619 57.9437 356.769 57.6377 356.865 57.2537C356.973 56.8577 357.045 56.4197 357.081 55.9397C357.129 55.4477 357.165 54.9557 357.189 54.4637L357.351 50.7557H365.127V60.3677H362.877V52.0517L363.399 52.6637H358.827L359.313 52.0337L359.187 54.5717C359.151 55.4237 359.079 56.2157 358.971 56.9477C358.875 57.6677 358.719 58.2977 358.503 58.8377C358.299 59.3777 358.011 59.7977 357.639 60.0977C357.279 60.3977 356.817 60.5477 356.253 60.5477C356.073 60.5477 355.875 60.5297 355.659 60.4937C355.455 60.4577 355.239 60.4097 355.011 60.3497ZM372.441 60.4937C371.457 60.4937 370.581 60.2837 369.813 59.8637C369.045 59.4317 368.439 58.8437 367.995 58.0997C367.551 57.3557 367.329 56.5097 367.329 55.5617C367.329 54.6017 367.551 53.7557 367.995 53.0237C368.439 52.2797 369.045 51.6977 369.813 51.2777C370.581 50.8577 371.457 50.6477 372.441 50.6477C373.437 50.6477 374.319 50.8577 375.087 51.2777C375.867 51.6977 376.473 52.2737 376.905 53.0057C377.349 53.7377 377.571 54.5897 377.571 55.5617C377.571 56.5097 377.349 57.3557 376.905 58.0997C376.473 58.8437 375.867 59.4317 375.087 59.8637C374.319 60.2837 373.437 60.4937 372.441 60.4937ZM372.441 58.5677C372.993 58.5677 373.485 58.4477 373.917 58.2077C374.349 57.9677 374.685 57.6197 374.925 57.1637C375.177 56.7077 375.303 56.1737 375.303 55.5617C375.303 54.9377 375.177 54.4037 374.925 53.9597C374.685 53.5037 374.349 53.1557 373.917 52.9157C373.485 52.6757 372.999 52.5557 372.459 52.5557C371.907 52.5557 371.415 52.6757 370.983 52.9157C370.563 53.1557 370.227 53.5037 369.975 53.9597C369.723 54.4037 369.597 54.9377 369.597 55.5617C369.597 56.1737 369.723 56.7077 369.975 57.1637C370.227 57.6197 370.563 57.9677 370.983 58.2077C371.415 58.4477 371.901 58.5677 372.441 58.5677ZM384.168 60.4937C383.16 60.4937 382.26 60.2837 381.468 59.8637C380.688 59.4317 380.076 58.8437 379.632 58.0997C379.188 57.3557 378.966 56.5097 378.966 55.5617C378.966 54.6017 379.188 53.7557 379.632 53.0237C380.076 52.2797 380.688 51.6977 381.468 51.2777C382.26 50.8577 383.16 50.6477 384.168 50.6477C385.104 50.6477 385.926 50.8397 386.634 51.2237C387.354 51.5957 387.9 52.1477 388.272 52.8797L386.544 53.8877C386.256 53.4317 385.902 53.0957 385.482 52.8797C385.074 52.6637 384.63 52.5557 384.15 52.5557C383.598 52.5557 383.1 52.6757 382.656 52.9157C382.212 53.1557 381.864 53.5037 381.612 53.9597C381.36 54.4037 381.234 54.9377 381.234 55.5617C381.234 56.1857 381.36 56.7257 381.612 57.1817C381.864 57.6257 382.212 57.9677 382.656 58.2077C383.1 58.4477 383.598 58.5677 384.15 58.5677C384.63 58.5677 385.074 58.4597 385.482 58.2437C385.902 58.0277 386.256 57.6917 386.544 57.2357L388.272 58.2437C387.9 58.9637 387.354 59.5217 386.634 59.9177C385.926 60.3017 385.104 60.4937 384.168 60.4937ZM395.077 53.9237C396.313 53.9237 397.255 54.1997 397.903 54.7517C398.551 55.3037 398.875 56.0837 398.875 57.0917C398.875 58.1357 398.515 58.9517 397.795 59.5397C397.075 60.1157 396.061 60.3977 394.753 60.3857L390.253 60.3677V50.7557H392.503V53.9057L395.077 53.9237ZM394.555 58.7297C395.215 58.7417 395.719 58.6037 396.067 58.3157C396.415 58.0277 396.589 57.6077 396.589 57.0557C396.589 56.5037 396.415 56.1077 396.067 55.8677C395.731 55.6157 395.227 55.4837 394.555 55.4717L392.503 55.4537V58.7117L394.555 58.7297ZM408.869 60.5297C408.137 60.5297 407.411 60.4457 406.691 60.2777C405.983 60.0977 405.341 59.8457 404.765 59.5217L405.395 57.8477C405.863 58.1117 406.391 58.3157 406.979 58.4597C407.567 58.6037 408.155 58.6757 408.743 58.6757C409.247 58.6757 409.679 58.6277 410.039 58.5317C410.399 58.4237 410.675 58.2677 410.867 58.0637C411.071 57.8597 411.173 57.6257 411.173 57.3617C411.173 56.9777 411.005 56.6897 410.669 56.4977C410.345 56.2937 409.877 56.1917 409.265 56.1917H407.411V54.6797H409.085C409.469 54.6797 409.793 54.6377 410.057 54.5537C410.333 54.4697 410.543 54.3437 410.687 54.1757C410.831 54.0077 410.903 53.8097 410.903 53.5817C410.903 53.3537 410.813 53.1557 410.633 52.9877C410.465 52.8077 410.219 52.6757 409.895 52.5917C409.571 52.4957 409.181 52.4477 408.725 52.4477C408.245 52.4477 407.747 52.5077 407.231 52.6277C406.727 52.7477 406.211 52.9217 405.683 53.1497L405.107 51.4937C405.719 51.2177 406.313 51.0077 406.889 50.8637C407.477 50.7077 408.059 50.6237 408.635 50.6117C409.511 50.5757 410.291 50.6657 410.975 50.8817C411.659 51.0977 412.199 51.4097 412.595 51.8177C412.991 52.2257 413.189 52.7057 413.189 53.2577C413.189 53.7137 413.045 54.1277 412.757 54.4997C412.481 54.8597 412.097 55.1417 411.605 55.3457C411.125 55.5497 410.573 55.6517 409.949 55.6517L410.021 55.1657C411.089 55.1657 411.929 55.3817 412.541 55.8137C413.153 56.2337 413.459 56.8097 413.459 57.5417C413.459 58.1297 413.261 58.6517 412.865 59.1077C412.469 59.5517 411.923 59.8997 411.227 60.1517C410.543 60.4037 409.757 60.5297 408.869 60.5297ZM421.608 60.3677V58.4237L421.482 58.0097V54.6077C421.482 53.9477 421.284 53.4377 420.888 53.0777C420.492 52.7057 419.892 52.5197 419.088 52.5197C418.548 52.5197 418.014 52.6037 417.486 52.7717C416.97 52.9397 416.532 53.1737 416.172 53.4737L415.29 51.8357C415.806 51.4397 416.418 51.1457 417.126 50.9537C417.846 50.7497 418.59 50.6477 419.358 50.6477C420.75 50.6477 421.824 50.9837 422.58 51.6557C423.348 52.3157 423.732 53.3417 423.732 54.7337V60.3677H421.608ZM418.584 60.4937C417.864 60.4937 417.234 60.3737 416.694 60.1337C416.154 59.8817 415.734 59.5397 415.434 59.1077C415.146 58.6637 415.002 58.1657 415.002 57.6137C415.002 57.0737 415.128 56.5877 415.38 56.1557C415.644 55.7237 416.07 55.3817 416.658 55.1297C417.246 54.8777 418.026 54.7517 418.998 54.7517H421.788V56.2457H419.16C418.392 56.2457 417.876 56.3717 417.612 56.6237C417.348 56.8637 417.216 57.1637 417.216 57.5237C417.216 57.9317 417.378 58.2557 417.702 58.4957C418.026 58.7357 418.476 58.8557 419.052 58.8557C419.604 58.8557 420.096 58.7297 420.528 58.4777C420.972 58.2257 421.29 57.8537 421.482 57.3617L421.86 58.7117C421.644 59.2757 421.254 59.7137 420.69 60.0257C420.138 60.3377 419.436 60.4937 418.584 60.4937ZM426.516 60.3677V50.7557H435.732V60.3677H433.5V52.1417L434.022 52.6637H428.244L428.766 52.1417V60.3677H426.516ZM438.768 60.3677V50.7557H441.018V57.0917L446.328 50.7557H448.38V60.3677H446.13V54.0317L440.838 60.3677H438.768ZM453.405 60.3677V52.1237L453.927 52.6637H450.021V50.7557H459.021V52.6637H455.133L455.655 52.1237V60.3677H453.405ZM466.485 60.3677V58.4237L466.359 58.0097V54.6077C466.359 53.9477 466.161 53.4377 465.765 53.0777C465.369 52.7057 464.769 52.5197 463.965 52.5197C463.425 52.5197 462.891 52.6037 462.363 52.7717C461.847 52.9397 461.409 53.1737 461.049 53.4737L460.167 51.8357C460.683 51.4397 461.295 51.1457 462.003 50.9537C462.723 50.7497 463.467 50.6477 464.235 50.6477C465.627 50.6477 466.701 50.9837 467.457 51.6557C468.225 52.3157 468.609 53.3417 468.609 54.7337V60.3677H466.485ZM463.461 60.4937C462.741 60.4937 462.111 60.3737 461.571 60.1337C461.031 59.8817 460.611 59.5397 460.311 59.1077C460.023 58.6637 459.879 58.1657 459.879 57.6137C459.879 57.0737 460.005 56.5877 460.257 56.1557C460.521 55.7237 460.947 55.3817 461.535 55.1297C462.123 54.8777 462.903 54.7517 463.875 54.7517H466.665V56.2457H464.037C463.269 56.2457 462.753 56.3717 462.489 56.6237C462.225 56.8637 462.093 57.1637 462.093 57.5237C462.093 57.9317 462.255 58.2557 462.579 58.4957C462.903 58.7357 463.353 58.8557 463.929 58.8557C464.481 58.8557 464.973 58.7297 465.405 58.4777C465.849 58.2257 466.167 57.8537 466.359 57.3617L466.737 58.7117C466.521 59.2757 466.131 59.7137 465.567 60.0257C465.015 60.3377 464.313 60.4937 463.461 60.4937ZM471.393 60.3677V50.7557H473.643V54.6617H478.485V50.7557H480.735V60.3677H478.485V56.5697H473.643V60.3677H471.393ZM483.751 60.3677V50.7557H486.001V54.6617H490.843V50.7557H493.093V60.3677H490.843V56.5697H486.001V60.3677H483.751ZM502.21 60.3677V57.0917L502.534 57.4697H499.654C498.334 57.4697 497.296 57.1937 496.54 56.6417C495.796 56.0777 495.424 55.2677 495.424 54.2117C495.424 53.0837 495.82 52.2257 496.612 51.6377C497.416 51.0497 498.484 50.7557 499.816 50.7557H504.226V60.3677H502.21ZM495.298 60.3677L497.89 56.6957H500.194L497.71 60.3677H495.298ZM502.21 56.3717V52.0517L502.534 52.6457H499.888C499.192 52.6457 498.652 52.7777 498.268 53.0417C497.896 53.2937 497.71 53.7077 497.71 54.2837C497.71 55.3637 498.412 55.9037 499.816 55.9037H502.534L502.21 56.3717ZM506.623 63.0857L507.667 59.1077L507.973 60.4397C507.553 60.4397 507.199 60.3137 506.911 60.0617C506.635 59.7977 506.497 59.4437 506.497 58.9997C506.497 58.5437 506.635 58.1837 506.911 57.9197C507.199 57.6437 507.547 57.5057 507.955 57.5057C508.375 57.5057 508.723 57.6437 508.999 57.9197C509.275 58.1957 509.413 58.5557 509.413 58.9997C509.413 59.1197 509.401 59.2517 509.377 59.3957C509.353 59.5277 509.311 59.6837 509.251 59.8637C509.203 60.0437 509.119 60.2717 508.999 60.5477L508.081 63.0857H506.623ZM518.62 60.3677V52.1237L519.142 52.6637H515.236V50.7557H524.236V52.6637H520.348L520.87 52.1237V60.3677H518.62ZM529.73 60.4937C528.746 60.4937 527.87 60.2837 527.102 59.8637C526.334 59.4317 525.728 58.8437 525.284 58.0997C524.84 57.3557 524.618 56.5097 524.618 55.5617C524.618 54.6017 524.84 53.7557 525.284 53.0237C525.728 52.2797 526.334 51.6977 527.102 51.2777C527.87 50.8577 528.746 50.6477 529.73 50.6477C530.726 50.6477 531.608 50.8577 532.376 51.2777C533.156 51.6977 533.762 52.2737 534.194 53.0057C534.638 53.7377 534.86 54.5897 534.86 55.5617C534.86 56.5097 534.638 57.3557 534.194 58.0997C533.762 58.8437 533.156 59.4317 532.376 59.8637C531.608 60.2837 530.726 60.4937 529.73 60.4937ZM529.73 58.5677C530.282 58.5677 530.774 58.4477 531.206 58.2077C531.638 57.9677 531.974 57.6197 532.214 57.1637C532.466 56.7077 532.592 56.1737 532.592 55.5617C532.592 54.9377 532.466 54.4037 532.214 53.9597C531.974 53.5037 531.638 53.1557 531.206 52.9157C530.774 52.6757 530.288 52.5557 529.748 52.5557C529.196 52.5557 528.704 52.6757 528.272 52.9157C527.852 53.1557 527.516 53.5037 527.264 53.9597C527.012 54.4037 526.886 54.9377 526.886 55.5617C526.886 56.1737 527.012 56.7077 527.264 57.1637C527.516 57.6197 527.852 57.9677 528.272 58.2077C528.704 58.4477 529.19 58.5677 529.73 58.5677ZM548.16 60.3677V57.0917L548.484 57.4697H545.604C544.284 57.4697 543.246 57.1937 542.49 56.6417C541.746 56.0777 541.374 55.2677 541.374 54.2117C541.374 53.0837 541.77 52.2257 542.562 51.6377C543.366 51.0497 544.434 50.7557 545.766 50.7557H550.176V60.3677H548.16ZM541.248 60.3677L543.84 56.6957H546.144L543.66 60.3677H541.248ZM548.16 56.3717V52.0517L548.484 52.6457H545.838C545.142 52.6457 544.602 52.7777 544.218 53.0417C543.846 53.2937 543.66 53.7077 543.66 54.2837C543.66 55.3637 544.362 55.9037 545.766 55.9037H548.484L548.16 56.3717ZM560.096 60.3677L556.622 55.7597L558.458 54.6257L562.742 60.3677H560.096ZM553.202 60.3677V50.7557H555.452V60.3677H553.202ZM554.786 56.5157V54.6437H558.044V56.5157H554.786ZM558.674 55.8317L556.568 55.5797L560.096 50.7557H562.508L558.674 55.8317ZM580.77 60.3677L577.962 55.7597L579.798 54.6257L583.452 60.3677H580.77ZM576.144 56.5157V54.6437H579.366V56.5157H576.144ZM580.014 55.8317L577.89 55.5797L580.806 50.7557H583.2L580.014 55.8317ZM570.618 60.3677H567.954L571.59 54.6257L573.426 55.7597L570.618 60.3677ZM576.81 60.3677H574.578V50.7557H576.81V60.3677ZM575.244 56.5157H572.04V54.6437H575.244V56.5157ZM571.374 55.8317L568.188 50.7557H570.582L573.48 55.5797L571.374 55.8317ZM589.29 60.4937C588.222 60.4937 587.286 60.2837 586.482 59.8637C585.69 59.4317 585.072 58.8437 584.628 58.0997C584.196 57.3557 583.98 56.5097 583.98 55.5617C583.98 54.6017 584.19 53.7557 584.61 53.0237C585.042 52.2797 585.63 51.6977 586.374 51.2777C587.13 50.8577 587.988 50.6477 588.948 50.6477C589.884 50.6477 590.718 50.8517 591.45 51.2597C592.182 51.6677 592.758 52.2437 593.178 52.9877C593.598 53.7317 593.808 54.6077 593.808 55.6157C593.808 55.7117 593.802 55.8197 593.79 55.9397C593.79 56.0597 593.784 56.1737 593.772 56.2817H585.762V54.7877H592.584L591.702 55.2557C591.714 54.7037 591.6 54.2177 591.36 53.7977C591.12 53.3777 590.79 53.0477 590.37 52.8077C589.962 52.5677 589.488 52.4477 588.948 52.4477C588.396 52.4477 587.91 52.5677 587.49 52.8077C587.082 53.0477 586.758 53.3837 586.518 53.8157C586.29 54.2357 586.176 54.7337 586.176 55.3097V55.6697C586.176 56.2457 586.308 56.7557 586.572 57.1997C586.836 57.6437 587.208 57.9857 587.688 58.2257C588.168 58.4657 588.72 58.5857 589.344 58.5857C589.884 58.5857 590.37 58.5017 590.802 58.3337C591.234 58.1657 591.618 57.9017 591.954 57.5417L593.16 58.9277C592.728 59.4317 592.182 59.8217 591.522 60.0977C590.874 60.3617 590.13 60.4937 589.29 60.4937ZM601.243 60.3677V50.7557H605.941C607.105 50.7557 608.017 50.9717 608.677 51.4037C609.349 51.8357 609.685 52.4477 609.685 53.2397C609.685 54.0197 609.373 54.6317 608.749 55.0757C608.125 55.5077 607.297 55.7237 606.265 55.7237L606.535 55.1657C607.699 55.1657 608.563 55.3817 609.127 55.8137C609.703 56.2337 609.991 56.8517 609.991 57.6677C609.991 58.5197 609.673 59.1857 609.037 59.6657C608.401 60.1337 607.435 60.3677 606.139 60.3677H601.243ZM603.385 58.7297H605.959C606.571 58.7297 607.033 58.6337 607.345 58.4417C607.657 58.2377 607.813 57.9317 607.813 57.5237C607.813 57.0917 607.669 56.7737 607.381 56.5697C607.093 56.3657 606.643 56.2637 606.031 56.2637H603.385V58.7297ZM603.385 54.7697H605.743C606.319 54.7697 606.751 54.6677 607.039 54.4637C607.339 54.2477 607.489 53.9477 607.489 53.5637C607.489 53.1677 607.339 52.8737 607.039 52.6817C606.751 52.4897 606.319 52.3937 605.743 52.3937H603.385V54.7697ZM617.362 60.3677V50.7557H619.612V58.4597H624.202V50.7557H626.452V60.3677H617.362ZM625.804 62.5097V60.3137L626.326 60.3677H624.202V58.4597H627.91V62.5097H625.804ZM634.395 60.4937C633.327 60.4937 632.391 60.2837 631.587 59.8637C630.795 59.4317 630.177 58.8437 629.733 58.0997C629.301 57.3557 629.085 56.5097 629.085 55.5617C629.085 54.6017 629.295 53.7557 629.715 53.0237C630.147 52.2797 630.735 51.6977 631.479 51.2777C632.235 50.8577 633.093 50.6477 634.053 50.6477C634.989 50.6477 635.823 50.8517 636.555 51.2597C637.287 51.6677 637.863 52.2437 638.283 52.9877C638.703 53.7317 638.913 54.6077 638.913 55.6157C638.913 55.7117 638.907 55.8197 638.895 55.9397C638.895 56.0597 638.889 56.1737 638.877 56.2817H630.867V54.7877H637.689L636.807 55.2557C636.819 54.7037 636.705 54.2177 636.465 53.7977C636.225 53.3777 635.895 53.0477 635.475 52.8077C635.067 52.5677 634.593 52.4477 634.053 52.4477C633.501 52.4477 633.015 52.5677 632.595 52.8077C632.187 53.0477 631.863 53.3837 631.623 53.8157C631.395 54.2357 631.281 54.7337 631.281 55.3097V55.6697C631.281 56.2457 631.413 56.7557 631.677 57.1997C631.941 57.6437 632.313 57.9857 632.793 58.2257C633.273 58.4657 633.825 58.5857 634.449 58.5857C634.989 58.5857 635.475 58.5017 635.907 58.3337C636.339 58.1657 636.723 57.9017 637.059 57.5417L638.265 58.9277C637.833 59.4317 637.287 59.8217 636.627 60.0977C635.979 60.3617 635.235 60.4937 634.395 60.4937ZM641.374 60.3677V50.7557H643.624V57.0917L648.934 50.7557H650.986V60.3677H648.736V54.0317L643.444 60.3677H641.374ZM646.036 49.6217C645.076 49.6217 644.338 49.3997 643.822 48.9557C643.306 48.4997 643.042 47.8397 643.03 46.9757H644.524C644.536 47.4077 644.668 47.7497 644.92 48.0017C645.184 48.2537 645.55 48.3797 646.018 48.3797C646.474 48.3797 646.834 48.2537 647.098 48.0017C647.374 47.7497 647.518 47.4077 647.53 46.9757H649.06C649.048 47.8397 648.778 48.4997 648.25 48.9557C647.734 49.3997 646.996 49.6217 646.036 49.6217ZM152.37 86.3497L152.478 84.4597C152.562 84.4717 152.64 84.4837 152.712 84.4957C152.784 84.5077 152.85 84.5137 152.91 84.5137C153.282 84.5137 153.57 84.3997 153.774 84.1717C153.978 83.9437 154.128 83.6377 154.224 83.2537C154.332 82.8577 154.404 82.4197 154.44 81.9397C154.488 81.4477 154.524 80.9557 154.548 80.4637L154.71 76.7557H162.486V86.3677H160.236V78.0517L160.758 78.6637H156.186L156.672 78.0337L156.546 80.5717C156.51 81.4237 156.438 82.2157 156.33 82.9477C156.234 83.6677 156.078 84.2977 155.862 84.8377C155.658 85.3777 155.37 85.7977 154.998 86.0977C154.638 86.3977 154.176 86.5477 153.612 86.5477C153.432 86.5477 153.234 86.5297 153.018 86.4937C152.814 86.4577 152.598 86.4097 152.37 86.3497ZM171.348 86.3677V84.4237L171.222 84.0097V80.6077C171.222 79.9477 171.024 79.4377 170.628 79.0777C170.232 78.7057 169.632 78.5197 168.828 78.5197C168.288 78.5197 167.754 78.6037 167.226 78.7717C166.71 78.9397 166.272 79.1737 165.912 79.4737L165.03 77.8357C165.546 77.4397 166.158 77.1457 166.866 76.9537C167.586 76.7497 168.33 76.6477 169.098 76.6477C170.49 76.6477 171.564 76.9837 172.32 77.6557C173.088 78.3157 173.472 79.3417 173.472 80.7337V86.3677H171.348ZM168.324 86.4937C167.604 86.4937 166.974 86.3737 166.434 86.1337C165.894 85.8817 165.474 85.5397 165.174 85.1077C164.886 84.6637 164.742 84.1657 164.742 83.6137C164.742 83.0737 164.868 82.5877 165.12 82.1557C165.384 81.7237 165.81 81.3817 166.398 81.1297C166.986 80.8777 167.766 80.7517 168.738 80.7517H171.528V82.2457H168.9C168.132 82.2457 167.616 82.3717 167.352 82.6237C167.088 82.8637 166.956 83.1637 166.956 83.5237C166.956 83.9317 167.118 84.2557 167.442 84.4957C167.766 84.7357 168.216 84.8557 168.792 84.8557C169.344 84.8557 169.836 84.7297 170.268 84.4777C170.712 84.2257 171.03 83.8537 171.222 83.3617L171.6 84.7117C171.384 85.2757 170.994 85.7137 170.43 86.0257C169.878 86.3377 169.176 86.4937 168.324 86.4937ZM180.847 86.5477C180.055 86.5477 179.347 86.4277 178.723 86.1877C178.099 85.9477 177.559 85.5817 177.103 85.0897C176.659 84.5857 176.317 83.9497 176.077 83.1817C175.837 82.4137 175.717 81.5017 175.717 80.4457C175.717 79.6777 175.783 78.9757 175.915 78.3397C176.047 77.7037 176.245 77.1337 176.509 76.6297C176.773 76.1137 177.103 75.6577 177.499 75.2617C177.907 74.8657 178.381 74.5357 178.921 74.2717C179.461 74.0077 180.073 73.8037 180.757 73.6597L185.221 72.7057L185.545 74.7217L181.495 75.5497C181.267 75.5977 180.991 75.6697 180.667 75.7657C180.355 75.8497 180.031 75.9817 179.695 76.1617C179.371 76.3297 179.065 76.5757 178.777 76.8997C178.501 77.2117 178.273 77.6197 178.093 78.1237C177.925 78.6157 177.841 79.2337 177.841 79.9777C177.841 80.2057 177.847 80.3797 177.859 80.4997C177.883 80.6077 177.901 80.7277 177.913 80.8597C177.937 80.9797 177.949 81.1597 177.949 81.3997L177.103 80.5177C177.343 79.9057 177.673 79.3837 178.093 78.9517C178.525 78.5077 179.023 78.1717 179.587 77.9437C180.163 77.7037 180.787 77.5837 181.459 77.5837C182.359 77.5837 183.157 77.7697 183.853 78.1417C184.549 78.5137 185.095 79.0357 185.491 79.7077C185.887 80.3797 186.085 81.1417 186.085 81.9937C186.085 82.8817 185.869 83.6677 185.437 84.3517C185.005 85.0357 184.393 85.5757 183.601 85.9717C182.821 86.3557 181.903 86.5477 180.847 86.5477ZM181.027 84.7297C181.567 84.7297 182.041 84.6157 182.449 84.3877C182.869 84.1477 183.193 83.8237 183.421 83.4157C183.661 83.0077 183.781 82.5517 183.781 82.0477C183.781 81.5437 183.661 81.1057 183.421 80.7337C183.193 80.3497 182.869 80.0437 182.449 79.8157C182.041 79.5877 181.555 79.4737 180.991 79.4737C180.451 79.4737 179.965 79.5817 179.533 79.7977C179.113 80.0137 178.783 80.3137 178.543 80.6977C178.315 81.0697 178.201 81.5017 178.201 81.9937C178.201 82.4977 178.321 82.9597 178.561 83.3797C178.801 83.7997 179.131 84.1297 179.551 84.3697C179.983 84.6097 180.475 84.7297 181.027 84.7297ZM188.263 86.3677V76.7557H190.513V86.3677H188.263ZM189.397 75.1717C188.977 75.1717 188.629 75.0397 188.353 74.7757C188.089 74.5117 187.957 74.1937 187.957 73.8217C187.957 73.4377 188.089 73.1197 188.353 72.8677C188.629 72.6037 188.977 72.4717 189.397 72.4717C189.817 72.4717 190.159 72.5977 190.423 72.8497C190.699 73.0897 190.837 73.3957 190.837 73.7677C190.837 74.1637 190.705 74.4997 190.441 74.7757C190.177 75.0397 189.829 75.1717 189.397 75.1717ZM198.882 86.4937C198.102 86.4937 197.388 86.3137 196.74 85.9537C196.104 85.5937 195.594 85.0537 195.21 84.3337C194.838 83.6017 194.652 82.6777 194.652 81.5617C194.652 80.4337 194.832 79.5097 195.192 78.7897C195.564 78.0697 196.068 77.5357 196.704 77.1877C197.34 76.8277 198.066 76.6477 198.882 76.6477C199.83 76.6477 200.664 76.8517 201.384 77.2597C202.116 77.6677 202.692 78.2377 203.112 78.9697C203.544 79.7017 203.76 80.5657 203.76 81.5617C203.76 82.5577 203.544 83.4277 203.112 84.1717C202.692 84.9037 202.116 85.4737 201.384 85.8817C200.664 86.2897 199.83 86.4937 198.882 86.4937ZM193.554 89.8597V76.7557H195.696V79.0237L195.624 81.5797L195.804 84.1357V89.8597H193.554ZM198.63 84.5677C199.17 84.5677 199.65 84.4477 200.07 84.2077C200.502 83.9677 200.844 83.6197 201.096 83.1637C201.348 82.7077 201.474 82.1737 201.474 81.5617C201.474 80.9377 201.348 80.4037 201.096 79.9597C200.844 79.5037 200.502 79.1557 200.07 78.9157C199.65 78.6757 199.17 78.5557 198.63 78.5557C198.09 78.5557 197.604 78.6757 197.172 78.9157C196.74 79.1557 196.398 79.5037 196.146 79.9597C195.894 80.4037 195.768 80.9377 195.768 81.5617C195.768 82.1737 195.894 82.7077 196.146 83.1637C196.398 83.6197 196.74 83.9677 197.172 84.2077C197.604 84.4477 198.09 84.5677 198.63 84.5677ZM205.999 86.3677V76.7557H208.249V83.0917L213.559 76.7557H215.611V86.3677H213.361V80.0317L208.069 86.3677H205.999ZM218.638 86.3677V76.7557H220.888V80.6617H225.73V76.7557H227.98V86.3677H225.73V82.5697H220.888V86.3677H218.638ZM232.993 86.3677V78.1237L233.515 78.6637H229.609V76.7557H238.609V78.6637H234.721L235.243 78.1237V86.3677H232.993ZM245.216 86.3677V76.7557H254.432V86.3677H252.2V78.1417L252.722 78.6637H246.944L247.466 78.1417V86.3677H245.216ZM261.752 86.4937C260.768 86.4937 259.892 86.2837 259.124 85.8637C258.356 85.4317 257.75 84.8437 257.306 84.0997C256.862 83.3557 256.64 82.5097 256.64 81.5617C256.64 80.6017 256.862 79.7557 257.306 79.0237C257.75 78.2797 258.356 77.6977 259.124 77.2777C259.892 76.8577 260.768 76.6477 261.752 76.6477C262.748 76.6477 263.63 76.8577 264.398 77.2777C265.178 77.6977 265.784 78.2737 266.216 79.0057C266.66 79.7377 266.882 80.5897 266.882 81.5617C266.882 82.5097 266.66 83.3557 266.216 84.0997C265.784 84.8437 265.178 85.4317 264.398 85.8637C263.63 86.2837 262.748 86.4937 261.752 86.4937ZM261.752 84.5677C262.304 84.5677 262.796 84.4477 263.228 84.2077C263.66 83.9677 263.996 83.6197 264.236 83.1637C264.488 82.7077 264.614 82.1737 264.614 81.5617C264.614 80.9377 264.488 80.4037 264.236 79.9597C263.996 79.5037 263.66 79.1557 263.228 78.9157C262.796 78.6757 262.31 78.5557 261.77 78.5557C261.218 78.5557 260.726 78.6757 260.294 78.9157C259.874 79.1557 259.538 79.5037 259.286 79.9597C259.034 80.4037 258.908 80.9377 258.908 81.5617C258.908 82.1737 259.034 82.7077 259.286 83.1637C259.538 83.6197 259.874 83.9677 260.294 84.2077C260.726 84.4477 261.212 84.5677 261.752 84.5677ZM270.751 86.3677V78.1237L271.273 78.6637H267.367V76.7557H276.367V78.6637H272.479L273.001 78.1237V86.3677H270.751ZM283.327 86.4937C282.547 86.4937 281.833 86.3137 281.185 85.9537C280.549 85.5937 280.039 85.0537 279.655 84.3337C279.283 83.6017 279.097 82.6777 279.097 81.5617C279.097 80.4337 279.277 79.5097 279.637 78.7897C280.009 78.0697 280.513 77.5357 281.149 77.1877C281.785 76.8277 282.511 76.6477 283.327 76.6477C284.275 76.6477 285.109 76.8517 285.829 77.2597C286.561 77.6677 287.137 78.2377 287.557 78.9697C287.989 79.7017 288.205 80.5657 288.205 81.5617C288.205 82.5577 287.989 83.4277 287.557 84.1717C287.137 84.9037 286.561 85.4737 285.829 85.8817C285.109 86.2897 284.275 86.4937 283.327 86.4937ZM277.999 89.8597V76.7557H280.141V79.0237L280.069 81.5797L280.249 84.1357V89.8597H277.999ZM283.075 84.5677C283.615 84.5677 284.095 84.4477 284.515 84.2077C284.947 83.9677 285.289 83.6197 285.541 83.1637C285.793 82.7077 285.919 82.1737 285.919 81.5617C285.919 80.9377 285.793 80.4037 285.541 79.9597C285.289 79.5037 284.947 79.1557 284.515 78.9157C284.095 78.6757 283.615 78.5557 283.075 78.5557C282.535 78.5557 282.049 78.6757 281.617 78.9157C281.185 79.1557 280.843 79.5037 280.591 79.9597C280.339 80.4037 280.213 80.9377 280.213 81.5617C280.213 82.1737 280.339 82.7077 280.591 83.1637C280.843 83.6197 281.185 83.9677 281.617 84.2077C282.049 84.4477 282.535 84.5677 283.075 84.5677ZM296.153 86.3677V84.4237L296.027 84.0097V80.6077C296.027 79.9477 295.829 79.4377 295.433 79.0777C295.037 78.7057 294.437 78.5197 293.633 78.5197C293.093 78.5197 292.559 78.6037 292.031 78.7717C291.515 78.9397 291.077 79.1737 290.717 79.4737L289.835 77.8357C290.351 77.4397 290.963 77.1457 291.671 76.9537C292.391 76.7497 293.135 76.6477 293.903 76.6477C295.295 76.6477 296.369 76.9837 297.125 77.6557C297.893 78.3157 298.277 79.3417 298.277 80.7337V86.3677H296.153ZM293.129 86.4937C292.409 86.4937 291.779 86.3737 291.239 86.1337C290.699 85.8817 290.279 85.5397 289.979 85.1077C289.691 84.6637 289.547 84.1657 289.547 83.6137C289.547 83.0737 289.673 82.5877 289.925 82.1557C290.189 81.7237 290.615 81.3817 291.203 81.1297C291.791 80.8777 292.571 80.7517 293.543 80.7517H296.333V82.2457H293.705C292.937 82.2457 292.421 82.3717 292.157 82.6237C291.893 82.8637 291.761 83.1637 291.761 83.5237C291.761 83.9317 291.923 84.2557 292.247 84.4957C292.571 84.7357 293.021 84.8557 293.597 84.8557C294.149 84.8557 294.641 84.7297 295.073 84.4777C295.517 84.2257 295.835 83.8537 296.027 83.3617L296.405 84.7117C296.189 85.2757 295.799 85.7137 295.235 86.0257C294.683 86.3377 293.981 86.4937 293.129 86.4937ZM301.061 86.3677V76.7557H310.277V86.3677H308.045V78.1417L308.567 78.6637H302.789L303.311 78.1417V86.3677H301.061ZM313.313 86.3677V76.7557H315.563V83.0917L320.873 76.7557H322.925V86.3677H320.675V80.0317L315.383 86.3677H313.313ZM327.95 86.3677V78.1237L328.472 78.6637H324.566V76.7557H333.566V78.6637H329.678L330.2 78.1237V86.3677H327.95ZM335.198 86.3677V76.7557H337.448V83.0917L342.758 76.7557H344.81V86.3677H342.56V80.0317L337.268 86.3677H335.198ZM347.945 82.1917L347.513 73.7677H350.177L349.727 82.1917H347.945ZM348.845 86.4937C348.425 86.4937 348.077 86.3557 347.801 86.0797C347.525 85.8037 347.387 85.4737 347.387 85.0897C347.387 84.7057 347.525 84.3817 347.801 84.1177C348.077 83.8417 348.425 83.7037 348.845 83.7037C349.265 83.7037 349.607 83.8417 349.871 84.1177C350.135 84.3817 350.267 84.7057 350.267 85.0897C350.267 85.4737 350.135 85.8037 349.871 86.0797C349.607 86.3557 349.265 86.4937 348.845 86.4937ZM162.36 112.368L158.094 106.23L159.984 105.06L165.006 112.368H162.36ZM154.026 112.368V99.7677H156.33V112.368H154.026ZM155.628 107.058V105.042H159.876V107.058H155.628ZM160.2 106.338L158.058 106.05L162.36 99.7677H164.844L160.2 106.338ZM165.202 112.35L165.31 110.46C165.394 110.472 165.472 110.484 165.544 110.496C165.616 110.508 165.682 110.514 165.742 110.514C166.114 110.514 166.402 110.4 166.606 110.172C166.81 109.944 166.96 109.638 167.056 109.254C167.164 108.858 167.236 108.42 167.272 107.94C167.32 107.448 167.356 106.956 167.38 106.464L167.542 102.756H175.318V112.368H173.068V104.052L173.59 104.664H169.018L169.504 104.034L169.378 106.572C169.342 107.424 169.27 108.216 169.162 108.948C169.066 109.668 168.91 110.298 168.694 110.838C168.49 111.378 168.202 111.798 167.83 112.098C167.47 112.398 167.008 112.548 166.444 112.548C166.264 112.548 166.066 112.53 165.85 112.494C165.646 112.458 165.43 112.41 165.202 112.35ZM184.181 112.368V110.424L184.055 110.01V106.608C184.055 105.948 183.857 105.438 183.461 105.078C183.065 104.706 182.465 104.52 181.661 104.52C181.121 104.52 180.587 104.604 180.059 104.772C179.543 104.94 179.105 105.174 178.745 105.474L177.863 103.836C178.379 103.44 178.991 103.146 179.699 102.954C180.419 102.75 181.163 102.648 181.931 102.648C183.323 102.648 184.397 102.984 185.153 103.656C185.921 104.316 186.305 105.342 186.305 106.734V112.368H184.181ZM181.157 112.494C180.437 112.494 179.807 112.374 179.267 112.134C178.727 111.882 178.307 111.54 178.007 111.108C177.719 110.664 177.575 110.166 177.575 109.614C177.575 109.074 177.701 108.588 177.953 108.156C178.217 107.724 178.643 107.382 179.231 107.13C179.819 106.878 180.599 106.752 181.571 106.752H184.361V108.246H181.733C180.965 108.246 180.449 108.372 180.185 108.624C179.921 108.864 179.789 109.164 179.789 109.524C179.789 109.932 179.951 110.256 180.275 110.496C180.599 110.736 181.049 110.856 181.625 110.856C182.177 110.856 182.669 110.73 183.101 110.478C183.545 110.226 183.863 109.854 184.055 109.362L184.433 110.712C184.217 111.276 183.827 111.714 183.263 112.026C182.711 112.338 182.009 112.494 181.157 112.494ZM189.089 112.368V102.756H191.339V110.46H195.929V102.756H198.179V112.368H189.089ZM197.531 114.51V112.314L198.053 112.368H195.929V110.46H199.637V114.51H197.531ZM207.472 112.368V110.424L207.346 110.01V106.608C207.346 105.948 207.148 105.438 206.752 105.078C206.356 104.706 205.756 104.52 204.952 104.52C204.412 104.52 203.878 104.604 203.35 104.772C202.834 104.94 202.396 105.174 202.036 105.474L201.154 103.836C201.67 103.44 202.282 103.146 202.99 102.954C203.71 102.75 204.454 102.648 205.222 102.648C206.614 102.648 207.688 102.984 208.444 103.656C209.212 104.316 209.596 105.342 209.596 106.734V112.368H207.472ZM204.448 112.494C203.728 112.494 203.098 112.374 202.558 112.134C202.018 111.882 201.598 111.54 201.298 111.108C201.01 110.664 200.866 110.166 200.866 109.614C200.866 109.074 200.992 108.588 201.244 108.156C201.508 107.724 201.934 107.382 202.522 107.13C203.11 106.878 203.89 106.752 204.862 106.752H207.652V108.246H205.024C204.256 108.246 203.74 108.372 203.476 108.624C203.212 108.864 203.08 109.164 203.08 109.524C203.08 109.932 203.242 110.256 203.566 110.496C203.89 110.736 204.34 110.856 204.916 110.856C205.468 110.856 205.96 110.73 206.392 110.478C206.836 110.226 207.154 109.854 207.346 109.362L207.724 110.712C207.508 111.276 207.118 111.714 206.554 112.026C206.002 112.338 205.3 112.494 204.448 112.494ZM212.38 112.368V102.756H214.63V109.092L219.94 102.756H221.992V112.368H219.742V106.032L214.45 112.368H212.38ZM217.042 101.622C216.082 101.622 215.344 101.4 214.828 100.956C214.312 100.5 214.048 99.8397 214.036 98.9757H215.53C215.542 99.4077 215.674 99.7497 215.926 100.002C216.19 100.254 216.556 100.38 217.024 100.38C217.48 100.38 217.84 100.254 218.104 100.002C218.38 99.7497 218.524 99.4077 218.536 98.9757H220.066C220.054 99.8397 219.784 100.5 219.256 100.956C218.74 101.4 218.002 101.622 217.042 101.622ZM229.993 112.368V102.756H232.243V106.662H237.085V102.756H239.335V112.368H237.085V108.57H232.243V112.368H229.993ZM248.182 112.368V110.424L248.056 110.01V106.608C248.056 105.948 247.858 105.438 247.462 105.078C247.066 104.706 246.466 104.52 245.662 104.52C245.122 104.52 244.588 104.604 244.06 104.772C243.544 104.94 243.106 105.174 242.746 105.474L241.864 103.836C242.38 103.44 242.992 103.146 243.7 102.954C244.42 102.75 245.164 102.648 245.932 102.648C247.324 102.648 248.398 102.984 249.154 103.656C249.922 104.316 250.306 105.342 250.306 106.734V112.368H248.182ZM245.158 112.494C244.438 112.494 243.808 112.374 243.268 112.134C242.728 111.882 242.308 111.54 242.008 111.108C241.72 110.664 241.576 110.166 241.576 109.614C241.576 109.074 241.702 108.588 241.954 108.156C242.218 107.724 242.644 107.382 243.232 107.13C243.82 106.878 244.6 106.752 245.572 106.752H248.362V108.246H245.734C244.966 108.246 244.45 108.372 244.186 108.624C243.922 108.864 243.79 109.164 243.79 109.524C243.79 109.932 243.952 110.256 244.276 110.496C244.6 110.736 245.05 110.856 245.626 110.856C246.178 110.856 246.67 110.73 247.102 110.478C247.546 110.226 247.864 109.854 248.056 109.362L248.434 110.712C248.218 111.276 247.828 111.714 247.264 112.026C246.712 112.338 246.01 112.494 245.158 112.494ZM264.959 112.368L261.485 107.76L263.321 106.626L267.605 112.368H264.959ZM258.065 112.368V102.756H260.315V112.368H258.065ZM259.649 108.516V106.644H262.907V108.516H259.649ZM263.537 107.832L261.431 107.58L264.959 102.756H267.371L263.537 107.832ZM273.16 112.494C272.176 112.494 271.3 112.284 270.532 111.864C269.764 111.432 269.158 110.844 268.714 110.1C268.27 109.356 268.048 108.51 268.048 107.562C268.048 106.602 268.27 105.756 268.714 105.024C269.158 104.28 269.764 103.698 270.532 103.278C271.3 102.858 272.176 102.648 273.16 102.648C274.156 102.648 275.038 102.858 275.806 103.278C276.586 103.698 277.192 104.274 277.624 105.006C278.068 105.738 278.29 106.59 278.29 107.562C278.29 108.51 278.068 109.356 277.624 110.1C277.192 110.844 276.586 111.432 275.806 111.864C275.038 112.284 274.156 112.494 273.16 112.494ZM273.16 110.568C273.712 110.568 274.204 110.448 274.636 110.208C275.068 109.968 275.404 109.62 275.644 109.164C275.896 108.708 276.022 108.174 276.022 107.562C276.022 106.938 275.896 106.404 275.644 105.96C275.404 105.504 275.068 105.156 274.636 104.916C274.204 104.676 273.718 104.556 273.178 104.556C272.626 104.556 272.134 104.676 271.702 104.916C271.282 105.156 270.946 105.504 270.694 105.96C270.442 106.404 270.316 106.938 270.316 107.562C270.316 108.174 270.442 108.708 270.694 109.164C270.946 109.62 271.282 109.968 271.702 110.208C272.134 110.448 272.62 110.568 273.16 110.568ZM282.159 112.368V104.124L282.681 104.664H278.775V102.756H287.775V104.664H283.887L284.409 104.124V112.368H282.159ZM295.386 112.368V109.092L295.71 109.47H292.83C291.51 109.47 290.472 109.194 289.716 108.642C288.972 108.078 288.6 107.268 288.6 106.212C288.6 105.084 288.996 104.226 289.788 103.638C290.592 103.05 291.66 102.756 292.992 102.756H297.402V112.368H295.386ZM288.474 112.368L291.066 108.696H293.37L290.886 112.368H288.474ZM295.386 108.372V104.052L295.71 104.646H293.064C292.368 104.646 291.828 104.778 291.444 105.042C291.072 105.294 290.886 105.708 290.886 106.284C290.886 107.364 291.588 107.904 292.992 107.904H295.71L295.386 108.372ZM306.495 108.57C306.039 108.786 305.553 108.966 305.037 109.11C304.533 109.242 303.999 109.308 303.435 109.308C302.223 109.308 301.281 109.026 300.609 108.462C299.937 107.898 299.601 107.022 299.601 105.834V102.756H301.851V105.69C301.851 106.326 302.031 106.788 302.391 107.076C302.763 107.364 303.273 107.508 303.921 107.508C304.353 107.508 304.785 107.454 305.217 107.346C305.649 107.238 306.075 107.088 306.495 106.896V108.57ZM306.333 112.368V102.756H308.583V112.368H306.333ZM312.472 115.986C312.004 115.986 311.536 115.908 311.068 115.752C310.6 115.596 310.21 115.38 309.898 115.104L310.798 113.448C311.026 113.652 311.284 113.814 311.572 113.934C311.86 114.054 312.154 114.114 312.454 114.114C312.862 114.114 313.192 114.012 313.444 113.808C313.696 113.604 313.93 113.262 314.146 112.782L314.704 111.522L314.884 111.252L318.52 102.756H320.68L316.18 113.142C315.88 113.862 315.544 114.432 315.172 114.852C314.812 115.272 314.404 115.566 313.948 115.734C313.504 115.902 313.012 115.986 312.472 115.986ZM314.452 112.71L310.114 102.756H312.454L315.982 111.054L314.452 112.71ZM325.814 112.35L325.922 110.46C326.006 110.472 326.084 110.484 326.156 110.496C326.228 110.508 326.294 110.514 326.354 110.514C326.726 110.514 327.014 110.4 327.218 110.172C327.422 109.944 327.572 109.638 327.668 109.254C327.776 108.858 327.848 108.42 327.884 107.94C327.932 107.448 327.968 106.956 327.992 106.464L328.154 102.756H335.93V112.368H333.68V104.052L334.202 104.664H329.63L330.116 104.034L329.99 106.572C329.954 107.424 329.882 108.216 329.774 108.948C329.678 109.668 329.522 110.298 329.306 110.838C329.102 111.378 328.814 111.798 328.442 112.098C328.082 112.398 327.62 112.548 327.056 112.548C326.876 112.548 326.678 112.53 326.462 112.494C326.258 112.458 326.042 112.41 325.814 112.35ZM344.792 112.368V110.424L344.666 110.01V106.608C344.666 105.948 344.468 105.438 344.072 105.078C343.676 104.706 343.076 104.52 342.272 104.52C341.732 104.52 341.198 104.604 340.67 104.772C340.154 104.94 339.716 105.174 339.356 105.474L338.474 103.836C338.99 103.44 339.602 103.146 340.31 102.954C341.03 102.75 341.774 102.648 342.542 102.648C343.934 102.648 345.008 102.984 345.764 103.656C346.532 104.316 346.916 105.342 346.916 106.734V112.368H344.792ZM341.768 112.494C341.048 112.494 340.418 112.374 339.878 112.134C339.338 111.882 338.918 111.54 338.618 111.108C338.33 110.664 338.186 110.166 338.186 109.614C338.186 109.074 338.312 108.588 338.564 108.156C338.828 107.724 339.254 107.382 339.842 107.13C340.43 106.878 341.21 106.752 342.182 106.752H344.972V108.246H342.344C341.576 108.246 341.06 108.372 340.796 108.624C340.532 108.864 340.4 109.164 340.4 109.524C340.4 109.932 340.562 110.256 340.886 110.496C341.21 110.736 341.66 110.856 342.236 110.856C342.788 110.856 343.28 110.73 343.712 110.478C344.156 110.226 344.474 109.854 344.666 109.362L345.044 110.712C344.828 111.276 344.438 111.714 343.874 112.026C343.322 112.338 342.62 112.494 341.768 112.494ZM349.7 112.368V102.756H358.916V112.368H356.684V104.142L357.206 104.664H351.428L351.95 104.142V112.368H349.7ZM368.846 112.368L365.372 107.76L367.208 106.626L371.492 112.368H368.846ZM361.952 112.368V102.756H364.202V112.368H361.952ZM363.536 108.516V106.644H366.794V108.516H363.536ZM367.424 107.832L365.318 107.58L368.846 102.756H371.258L367.424 107.832ZM373.398 115.986C372.93 115.986 372.462 115.908 371.994 115.752C371.526 115.596 371.136 115.38 370.824 115.104L371.724 113.448C371.952 113.652 372.21 113.814 372.498 113.934C372.786 114.054 373.08 114.114 373.38 114.114C373.788 114.114 374.118 114.012 374.37 113.808C374.622 113.604 374.856 113.262 375.072 112.782L375.63 111.522L375.81 111.252L379.446 102.756H381.606L377.106 113.142C376.806 113.862 376.47 114.432 376.098 114.852C375.738 115.272 375.33 115.566 374.874 115.734C374.43 115.902 373.938 115.986 373.398 115.986ZM375.378 112.71L371.04 102.756H373.38L376.908 111.054L375.378 112.71ZM388.143 112.368V102.756H390.393V112.368H388.143ZM389.277 101.172C388.857 101.172 388.509 101.04 388.233 100.776C387.969 100.512 387.837 100.194 387.837 99.8217C387.837 99.4377 387.969 99.1197 388.233 98.8677C388.509 98.6037 388.857 98.4717 389.277 98.4717C389.697 98.4717 390.039 98.5977 390.303 98.8497C390.579 99.0897 390.717 99.3957 390.717 99.7677C390.717 100.164 390.585 100.5 390.321 100.776C390.057 101.04 389.709 101.172 389.277 101.172ZM398.409 112.368V102.756H407.625V112.368H405.393V104.142L405.915 104.664H400.137L400.659 104.142V112.368H398.409ZM414.945 112.494C413.961 112.494 413.085 112.284 412.317 111.864C411.549 111.432 410.943 110.844 410.499 110.1C410.055 109.356 409.833 108.51 409.833 107.562C409.833 106.602 410.055 105.756 410.499 105.024C410.943 104.28 411.549 103.698 412.317 103.278C413.085 102.858 413.961 102.648 414.945 102.648C415.941 102.648 416.823 102.858 417.591 103.278C418.371 103.698 418.977 104.274 419.409 105.006C419.853 105.738 420.075 106.59 420.075 107.562C420.075 108.51 419.853 109.356 419.409 110.1C418.977 110.844 418.371 111.432 417.591 111.864C416.823 112.284 415.941 112.494 414.945 112.494ZM414.945 110.568C415.497 110.568 415.989 110.448 416.421 110.208C416.853 109.968 417.189 109.62 417.429 109.164C417.681 108.708 417.807 108.174 417.807 107.562C417.807 106.938 417.681 106.404 417.429 105.96C417.189 105.504 416.853 105.156 416.421 104.916C415.989 104.676 415.503 104.556 414.963 104.556C414.411 104.556 413.919 104.676 413.487 104.916C413.067 105.156 412.731 105.504 412.479 105.96C412.227 106.404 412.101 106.938 412.101 107.562C412.101 108.174 412.227 108.708 412.479 109.164C412.731 109.62 413.067 109.968 413.487 110.208C413.919 110.448 414.405 110.568 414.945 110.568ZM422.298 112.368V102.756H429.678V104.664H424.026L424.548 104.16V112.368H422.298ZM431.315 112.368V102.756H433.565V106.662H438.407V102.756H440.657V112.368H438.407V108.57H433.565V112.368H431.315ZM449.505 112.368V110.424L449.379 110.01V106.608C449.379 105.948 449.181 105.438 448.785 105.078C448.389 104.706 447.789 104.52 446.985 104.52C446.445 104.52 445.911 104.604 445.383 104.772C444.867 104.94 444.429 105.174 444.069 105.474L443.187 103.836C443.703 103.44 444.315 103.146 445.023 102.954C445.743 102.75 446.487 102.648 447.255 102.648C448.647 102.648 449.721 102.984 450.477 103.656C451.245 104.316 451.629 105.342 451.629 106.734V112.368H449.505ZM446.481 112.494C445.761 112.494 445.131 112.374 444.591 112.134C444.051 111.882 443.631 111.54 443.331 111.108C443.043 110.664 442.899 110.166 442.899 109.614C442.899 109.074 443.025 108.588 443.277 108.156C443.541 107.724 443.967 107.382 444.555 107.13C445.143 106.878 445.923 106.752 446.895 106.752H449.685V108.246H447.057C446.289 108.246 445.773 108.372 445.509 108.624C445.245 108.864 445.113 109.164 445.113 109.524C445.113 109.932 445.275 110.256 445.599 110.496C445.923 110.736 446.373 110.856 446.949 110.856C447.501 110.856 447.993 110.73 448.425 110.478C448.869 110.226 449.187 109.854 449.379 109.362L449.757 110.712C449.541 111.276 449.151 111.714 448.587 112.026C448.035 112.338 447.333 112.494 446.481 112.494ZM453.009 112.35L453.117 110.46C453.201 110.472 453.279 110.484 453.351 110.496C453.423 110.508 453.489 110.514 453.549 110.514C453.921 110.514 454.209 110.4 454.413 110.172C454.617 109.944 454.767 109.638 454.863 109.254C454.971 108.858 455.043 108.42 455.079 107.94C455.127 107.448 455.163 106.956 455.187 106.464L455.349 102.756H463.125V112.368H460.875V104.052L461.397 104.664H456.825L457.311 104.034L457.185 106.572C457.149 107.424 457.077 108.216 456.969 108.948C456.873 109.668 456.717 110.298 456.501 110.838C456.297 111.378 456.009 111.798 455.637 112.098C455.277 112.398 454.815 112.548 454.251 112.548C454.071 112.548 453.873 112.53 453.657 112.494C453.453 112.458 453.237 112.41 453.009 112.35ZM466.155 112.368V102.756H468.405V109.092L473.715 102.756H475.767V112.368H473.517V106.032L468.225 112.368H466.155ZM478.902 108.192L478.47 99.7677H481.134L480.684 108.192H478.902ZM479.802 112.494C479.382 112.494 479.034 112.356 478.758 112.08C478.482 111.804 478.344 111.474 478.344 111.09C478.344 110.706 478.482 110.382 478.758 110.118C479.034 109.842 479.382 109.704 479.802 109.704C480.222 109.704 480.564 109.842 480.828 110.118C481.092 110.382 481.224 110.706 481.224 111.09C481.224 111.474 481.092 111.804 480.828 112.08C480.564 112.356 480.222 112.494 479.802 112.494Z" fill="#6083B3"/>
<mask id="mask0_1120_1472" style="mask-type:luminance" maskUnits="userSpaceOnUse" x="0" y="197" width="604" height="529">
<path d="M603.41 461.586C603.41 607.61 490.936 726 352.18 726C290.658 726 234.294 702.722 190.617 664.078C24.5746 739.62 0 526.922 0 445.647C0 399.193 112.341 371.481 132.328 333.539C175.182 252.226 257.574 197.185 352.18 197.185C490.923 197.185 603.41 315.561 603.41 461.599V461.586Z" fill="white"/>
</mask>
<g mask="url(#mask0_1120_1472)">
<path d="M346.2 550.314C357.918 544.861 401.462 525.189 429.584 512.512C448.565 503.95 463.044 487.348 468.504 467.013C468.54 466.886 468.564 466.771 468.6 466.644C480.585 421.401 458.02 369.201 417.091 347.503C383.134 329.513 343.512 328.85 306.214 337.731C282.681 343.337 258.808 352.739 243.107 371.405C227.249 390.262 221.849 416.521 224.174 441.213C224.585 445.519 225.142 449.941 225.857 454.413C231.607 490.584 256.581 520.564 290.755 532.375L342.665 550.301" fill="#37B34A"/>
<path d="M106.01 396.378L112.668 426.103L108.927 446.31L70.0919 459.688L66.8718 420.153L92.8628 409.565L106.01 396.378Z" fill="#1A1A1A"/>
<path d="M241.63 506.88H458.335L466.724 1049.44L329.336 1051.05C329.336 1051.05 345.788 1014.46 397.939 1011.27L373.897 823.532L345.957 820.768L265.854 1051.05L134.155 1052.63C134.155 1052.63 153.815 1019.22 197.65 1019.22L239.887 807.619L241.642 506.893L241.63 506.88Z" fill="#FBB616"/>
<path d="M458.674 509.301H240.989C240.989 509.301 215.289 375.648 278.02 278.6L312.025 347.007H395.18C395.18 347.007 425.408 291.328 471.518 282.575C471.518 282.575 449.607 444.87 458.662 509.301H458.674Z" fill="#FBB616"/>
<path d="M326.334 409.055C326.334 417.986 313.926 425.223 298.624 425.223C283.323 425.223 270.914 417.986 270.914 409.055C270.914 400.123 283.311 392.874 298.624 392.874C313.938 392.874 326.334 400.123 326.334 409.055Z" fill="#F4F5F5"/>
<path d="M424.596 409.055C424.596 417.986 412.176 425.223 396.874 425.223C381.572 425.223 369.164 417.986 369.164 409.055C369.164 400.123 381.572 392.874 396.874 392.874C412.176 392.874 424.596 400.123 424.596 409.055Z" fill="#F4F5F5"/>
<path d="M339.965 420.726L360.133 420.19L368.305 443.698C368.305 443.698 354.335 460.758 331.661 444.054L339.965 420.713V420.726Z" fill="#F4F5F5"/>
<path d="M312.752 409.068C312.752 417.566 306.215 424.446 298.14 424.446C290.065 424.446 283.528 417.553 283.528 409.068C283.528 400.582 290.065 393.689 298.14 393.689C306.215 393.689 312.752 400.57 312.752 409.068Z" fill="#37B34A"/>
<path d="M410.518 409.068C410.518 417.566 403.968 424.446 395.894 424.446C387.819 424.446 381.294 417.553 381.294 409.068C381.294 400.582 387.831 393.689 395.894 393.689C403.956 393.689 410.518 400.57 410.518 409.068Z" fill="#37B34A"/>
<path d="M297.704 393.702C297.704 393.702 283.698 405.806 298.418 424.484C298.418 424.484 313.272 402.71 297.704 393.702Z" fill="#231F20"/>
<path d="M395.252 393.753C395.252 393.753 383.001 406.621 396.16 424.306C396.16 424.306 410.432 404.404 395.252 393.753Z" fill="#231F20"/>
<path d="M411.074 348.063H447.851L428.7 344.356L445.333 327.92L424.16 341.183L436.266 316.262C436.266 316.262 416.098 327.932 411.074 348.076V348.063Z" fill="#37B34A"/>
<path d="M295.162 345.948H258.881L278.54 342.241L267.452 327.385L283.068 336.94L278.032 312.006L295.162 345.948Z" fill="#37B34A"/>
<path d="M349.141 425.898C348.04 430.574 344.033 434.065 339.251 434.065C337.459 434.065 335.789 433.581 334.312 432.727L333.658 435.046C335.341 435.938 337.229 436.461 339.251 436.461C346.03 436.461 351.55 430.727 351.696 423.618L349.141 425.898Z" fill="#37B34A"/>
<path d="M350.836 425.898C351.937 430.574 355.945 434.065 360.726 434.065C362.518 434.065 364.201 433.581 365.653 432.727L366.319 435.046C364.636 435.938 362.736 436.461 360.726 436.461C353.959 436.461 348.427 430.727 348.269 423.618L350.836 425.898Z" fill="#37B34A"/>
<path d="M343.997 417.018L349.541 429.211L357.603 417.018C349.045 410.647 343.997 417.018 343.997 417.018Z" fill="#231F20"/>
<path d="M404.658 375.928C380.677 376.246 359.952 386.223 350.473 387.459C340.994 388.707 325.608 376.871 295.113 375.609C264.619 374.361 245.068 380.604 245.068 380.604C244.185 392.134 246.545 394.313 246.545 394.313C253.942 396.492 253.349 410.52 254.244 415.196C255.128 419.859 257.21 447.774 290.368 449.788C321.153 451.66 328.925 434.358 335.365 419.553C339.965 409.004 343.064 399.295 343.064 399.295C343.064 399.295 343.948 392.44 350.17 392.44C356.393 392.44 356.393 397.728 356.393 397.728C362.022 421.719 370.593 449.15 408.205 450.386C445.818 451.635 446.701 415.795 447.294 406.137C447.888 396.479 454.388 393.676 454.388 393.676V381.215C454.388 381.215 428.639 375.609 404.658 375.915V375.928ZM294.799 445.43C262.537 444.181 261.641 430.472 259.874 411.463C258.094 392.453 259.874 379.05 293.915 381.228C309.604 382.235 332.714 383.407 334.191 396.505C335.655 409.59 327.072 446.679 294.799 445.43ZM408.798 446.054C382.444 446.985 370.895 429.542 366.465 405.857C362.022 382.171 383.049 381.241 399.332 380.922C423.325 380.464 440.491 379.368 440.491 404.926C440.491 430.485 435.165 445.124 408.81 446.054H408.798Z" fill="#231F20"/>
<path d="M146.419 576.905L107.85 404.57C104.001 407.755 102.705 414.623 102.052 419.299C101.156 425.733 101.119 432.218 101.119 438.69C101.119 439.226 100.756 439.773 100.248 439.888C96.374 440.793 92.6333 442.755 89.1711 444.704C87.7547 445.494 79.6681 449.431 80.0434 451.635C80.3097 453.202 78.0338 453.878 77.7675 452.298C77.2227 449.113 81.3145 446.501 83.9535 444.921C82.6703 437.658 79.0023 431.237 76.6054 424.331C75.8064 424.548 74.8016 423.911 75.1406 422.841C75.3706 422.102 75.4432 421.375 75.6732 420.624C76.0243 419.464 77.6222 419.401 77.9491 420.624C80.1039 428.51 84.5346 435.543 86.1204 443.608C88.13 442.411 90.2243 441.213 92.3791 440.168C91.9191 435.926 91.0717 431.696 90.079 427.568C89.3164 424.37 88.6869 420.458 86.8347 417.719C85.951 416.406 88.0089 415.158 88.8806 416.457C91.0112 419.63 91.7738 424.217 92.597 427.912C93.4323 431.632 94.1587 435.378 94.6187 439.162C95.9866 438.589 97.3667 438.092 98.7588 437.697C98.7588 429.925 98.7709 421.974 100.538 414.393C101.64 409.666 103.541 404.583 107.305 402.009L104.557 389.74C104.557 389.74 102.499 372.463 95.4419 374.055C88.3842 375.635 94.4371 405.87 94.4371 405.87C94.4371 405.87 94.0376 405.704 93.3234 405.475C93.1418 405.73 92.8754 405.946 92.5365 406.099C92.4881 406.124 92.4275 406.15 92.367 406.163C91.9312 406.685 91.3259 407.067 90.539 407.169C90.2606 407.207 89.9822 407.258 89.7037 407.297C81.8108 410.66 73.9058 413.998 65.9523 417.171C64.8749 420.241 64.1122 423.975 63.8217 428.536C61.5579 463.14 76.2906 651.669 108.044 662.41C139.785 673.15 250.891 599.176 250.891 599.176L255.431 512.066L146.443 576.867L146.419 576.905Z" fill="#FBB616"/>
<path d="M458.335 506.88L413.992 581.683L480.513 642.139L404.888 773.078C404.562 776.595 404.489 780.175 405.155 783.564C405.312 784.367 405.506 785.157 405.736 785.921C405.76 785.985 405.784 786.061 405.821 786.125L430.734 806.065C434.438 807.007 438.191 807.249 442.017 806.052L506.201 708.965C596.897 608.732 513.755 554.634 458.323 506.88H458.335Z" fill="#FBB616"/>
<path d="M459.34 497.35C327.823 588.04 240.141 511.671 240.141 511.671L149.445 568.954L126.759 492.584L64.7778 522.819C64.7778 522.819 79.8979 651.694 108.007 662.46C136.117 673.226 228.036 613.509 228.036 613.509L212.916 772.606L401.208 789.271C401.184 789.08 401.16 788.915 401.16 788.724V779.104C401.16 778.174 401.317 777.32 401.571 776.543L318.986 713.055L461.494 675.176L460.127 624.67L470.659 634.175L426.049 726.484L469.932 763.216C469.932 763.216 498.623 742.397 540.944 659.67C583.266 576.943 459.315 497.388 459.315 497.388L459.34 497.35Z" fill="#1A1A1A"/>
<path d="M434.753 276.879L415.19 285.186L459.473 350.535L471.203 312.006L455.732 281.198L434.753 276.879Z" fill="#1A7A1C"/>
<path d="M257.126 282.218L277.015 293.634L239.076 328.977V290.933L257.126 282.218Z" fill="#1A7A1C"/>
<path d="M232.539 289.735C225.699 295.048 220.143 302.221 214.659 309.318C203.461 323.83 193.377 340.036 182.179 354.536C178.063 359.861 172.737 363.582 167.422 367.264C166.66 367.799 165.836 368.334 165.425 369.251C165.122 369.939 165.11 370.729 165.11 371.507C165.086 381.776 184.588 435.199 190.605 440.703C195.483 443.646 201.173 443.251 206.645 442.474C209.405 442.079 212.552 439.378 214.889 437.671C218.133 435.314 220.409 431.606 222.552 427.949C227.987 418.674 233.108 409.042 236.401 398.53C242.187 380.069 241.981 360.18 242.575 340.839C242.865 331.207 243.337 321.549 244.814 312.044C245.577 307.19 246.582 302.387 247.974 297.723C249.027 294.194 251.266 287.301 257.089 282.205C247.671 280.523 235.711 287.225 232.503 289.722L232.539 289.735Z" fill="#37B34A"/>
<path d="M413.652 389.766H382.976C375.348 389.766 369.164 396.274 369.164 404.303V413.528C369.164 421.556 375.348 428.065 382.976 428.065H413.652C421.281 428.065 427.465 421.556 427.465 413.528V404.303C427.465 396.274 421.281 389.766 413.652 389.766Z" fill="#FBB616"/>
<path d="M427.888 402.379C409.936 399.666 397.866 403.832 383.63 415.171L381.572 410.776C387.504 409.336 393.423 408.202 399.585 408.278C405.687 408.47 411.969 410.355 416.679 414.458C408.459 410.992 399.67 411.476 391.208 413.502C388.375 414.127 385.543 414.84 382.734 415.63L380.676 411.234C387.395 405.794 394.852 401.029 403.229 399.258C411.546 397.754 420.25 398.71 427.876 402.367L427.888 402.379Z" fill="#231F20"/>
<path d="M474.399 459.712C474.774 377.813 416.812 332.162 347.458 332.162C244.862 332.162 220.239 444.27 220.239 444.27C211.572 393.956 224.319 314.096 262.839 286.715C281.482 273.477 315.027 265.272 349.613 265.272C373.244 265.272 407.636 270.865 424.584 280.383C483.781 313.599 486.892 400.25 474.387 459.725L474.399 459.712Z" fill="#1A1A1A"/>
<path d="M346.2 550.314C357.918 544.861 401.462 525.189 429.584 512.512C448.565 503.95 463.044 487.348 468.504 467.013C468.54 466.886 468.564 466.771 468.6 466.644C480.585 421.401 458.02 369.201 417.091 347.503C383.134 329.513 343.512 328.85 306.214 337.731C282.681 343.337 258.808 352.739 243.107 371.405C227.249 390.262 221.849 416.521 224.174 441.213C224.585 445.519 225.142 449.941 225.857 454.413C231.607 490.584 256.581 520.564 290.755 532.375L342.665 550.301" stroke="#333333" stroke-width="7" stroke-miterlimit="10" stroke-linecap="round"/>
<path d="M227.467 472.327C227.467 472.327 232.551 503.542 241.558 518.742L307.28 543.562C307.28 543.562 235.614 506.562 227.467 472.339V472.327Z" fill="#1A1A1A"/>
<path d="M345.401 542.721C375.616 541.65 402.866 527.024 429.935 514.308C443.396 508.001 454.158 496.267 461.131 482.723C482.244 440.933 465.562 385.994 430.625 358.447C406.801 339.935 376.27 333.348 347.047 334.138C332.278 334.507 317.557 336.724 303.176 340.355C275.018 347.197 245.407 361.416 233.096 390.657C223.665 411.794 223.508 436.295 227.987 458.872C234.04 489.285 253.918 516.41 280.623 529.852C286.3 533.063 295.392 535.675 301.529 537.93L344.008 552.671L301.239 538.873C294.956 536.822 285.937 534.133 280.054 531.139C259.45 521.29 242.72 503.325 232.951 481.895C226.28 467.6 223.435 451.724 222.431 435.926C220.409 403.347 232.975 371.112 260.406 354.141C273.359 345.757 287.814 340.572 302.377 336.826C345.606 325.627 395.579 327.015 432.634 355.683C468.722 384.248 485.452 440.984 463.153 483.883C455.817 497.758 444.619 509.696 430.661 516.041C403.411 528.183 375.665 542.504 345.401 542.708V542.721Z" fill="white"/>
<path d="M434.159 277.071C450.575 271.783 468.152 279.045 482.401 290.334C496.649 301.635 501.951 307.904 515.268 320.81C517.979 323.435 524.02 328.468 528.56 329.691C530.969 330.341 532.869 332.634 533.378 335.59C536.404 353.236 526.102 403.41 522.616 408.137C515.897 417.222 503.767 419.26 495.184 412.979C489.543 408.851 485.681 401.907 482.352 394.963C472.643 374.705 465.84 352.357 462.329 329.258C460.647 318.173 459.242 302.03 456.628 296.195C449.328 277.746 434.171 277.071 434.171 277.071H434.159Z" fill="#37B34A"/>
<path d="M341.793 299.584C341.732 303.151 341.672 306.744 341.066 310.261C340.146 315.625 338.004 320.658 335.885 325.614C337.979 325.843 340.122 325.614 342.132 324.913C342.701 324.722 343.27 324.48 343.693 324.034C344.214 323.486 344.432 322.709 344.625 321.97C346.09 316.491 347.579 310.987 348.063 305.317C348.499 300.247 349.08 295.074 349.286 289.99C349.637 281.836 351.38 273.529 352.107 265.553C345.182 264.852 340.316 265.591 340.316 265.591C339.941 274.128 341.926 291.035 341.781 299.571L341.793 299.584Z" fill="#F2F2F2"/>
<path d="M427.284 366.206C433.93 366.423 438.797 359.747 436.811 353.058C430.892 333.08 395.567 327.206 387.553 321.116C383.812 318.275 380.822 314.937 377.069 312.095C368.983 305.98 357.519 302.489 345.97 302.259C321.068 302.259 310.585 314.057 310.585 314.057C305.089 319.574 300.973 324.008 294.569 328.964C291.046 331.691 253.192 338.367 257.768 364.206C264.983 378.896 284.727 363.187 300.852 357.148C309.277 352.051 339.324 352.089 346.333 341.578C359.068 354.281 371.428 357.148 388.207 357.148C400.191 357.148 416.244 365.824 427.248 366.194L427.284 366.206Z" fill="#F0F0EF"/>
<path d="M371.513 303.291C372.058 299.978 369.673 296.933 366.477 296.844L346.103 296.334L327.763 296.844C324.748 296.933 322.424 299.66 322.678 302.832L323.029 307.164C323.308 310.566 325.184 313.586 328.029 315.217L343.984 324.365C344.42 324.619 344.88 324.798 345.352 324.925L344.384 340.24C344.287 341.756 343.561 343.158 342.386 344.05L337.435 347.846L343.549 345.897C345.449 345.285 347.495 345.349 349.371 346.063L354.056 347.846L350.013 343.922C349.045 342.979 348.476 341.667 348.439 340.278L348.028 324.938C348.56 324.811 349.081 324.62 349.565 324.339L365.908 314.936C368.499 313.446 370.29 310.796 370.786 307.738L371.513 303.266V303.291Z" fill="#37B34A"/>
<path d="M326.322 546.225C330.946 547.652 346.054 550.812 346.526 556.584C346.357 561.043 341.309 562.508 339.396 565.923C337.193 569.108 336.164 573.16 336.503 577.046C336.83 580.983 338.863 584.461 340.546 588.105C342.277 591.761 343.246 595.979 343.052 600.107C342.737 608.172 338.609 616.938 332.012 620.671C339.675 614.619 343.343 603.904 341.309 594.22C340.195 588.219 336.019 583.467 335.559 577.135C335.038 570.853 338.113 564.661 343.016 561.209C350.255 555.564 342.374 552.022 337.302 549.958C333.719 548.531 330.038 547.397 326.334 546.34L326.358 546.212L326.322 546.225Z" fill="white"/>
<path d="M375.52 600.157C373.256 596.691 370.859 592.958 370.508 588.613C370.363 584.396 371.234 580.14 370.024 576.025C366.416 561.972 353.354 554.315 346.188 542.529L346.284 542.453C356.26 554.824 373.28 565.871 371.198 584.383C370.859 587.186 370.823 589.989 371.803 592.652C372.699 595.302 374.164 597.698 375.617 600.08L375.52 600.157Z" fill="white"/>
<path d="M423.858 284.078C424.028 287.594 423.822 296.984 419.682 297.813C407.273 299.877 393.437 296.424 383.667 295.086C383.667 295.086 381.9 288.626 382.723 282.001C383.546 275.376 391.536 270.47 406.378 272.509C421.11 275.656 423.87 281.963 423.858 284.09V284.078Z" fill="#E6E6E6"/>
<path d="M416.704 285.264C416.425 287.532 413.108 293.24 408.75 294.59C401.959 296.705 393.436 295.75 386.984 294.246C384.357 293.635 382.444 291.227 382.384 288.398C382.347 286.614 382.42 284.423 382.711 282.002C383.534 275.364 392.335 269.809 402.189 271.159C412.043 272.51 417.502 278.638 416.691 285.277L416.704 285.264Z" fill="#37B34A"/>
<path d="M407.806 281.377C407.6 283.046 405.251 288.398 402.189 289.417C396.305 291.379 387.395 289.315 382.856 288.703C382.856 288.703 383.437 284.027 384.03 279.148C384.635 274.268 390.821 270.14 397.709 271.07C404.598 272.013 408.399 276.497 407.793 281.377H407.806Z" fill="#080000"/>
<path d="M407.056 274.638C407.12 273.507 405.564 272.49 403.582 272.367C401.6 272.244 399.941 273.061 399.878 274.192C399.814 275.322 401.37 276.339 403.352 276.462C405.334 276.586 406.993 275.769 407.056 274.638Z" fill="#F6FAF9"/>
<path d="M382.82 295.38C382.844 291.685 382.505 286.181 383.171 281.212C383.679 276.421 386.161 272.714 391.209 271.376C393.364 270.802 395.773 270.955 398.097 271.159C406.184 271.898 412.152 273.758 418.822 277.785C426.085 282.155 427.853 292.004 427.332 299.546" stroke="#080000" stroke-miterlimit="10"/>
<path d="M274.195 284.078C274.026 287.595 274.231 296.985 278.372 297.813C290.78 299.877 304.617 296.424 314.386 295.086C314.386 295.086 316.154 288.627 315.33 282.001C314.507 275.363 306.517 270.471 291.676 272.509C276.943 275.656 274.183 281.963 274.195 284.091V284.078Z" fill="#E6E6E6"/>
<path d="M281.35 285.264C281.628 287.532 284.945 293.24 289.303 294.59C296.094 296.705 304.617 295.75 311.069 294.246C313.696 293.635 315.609 291.227 315.669 288.398C315.706 286.614 315.633 284.423 315.342 282.002C314.519 275.364 305.718 269.809 295.864 271.159C286.01 272.51 280.551 278.638 281.362 285.277L281.35 285.264Z" fill="#37B34A"/>
<path d="M290.247 281.377C290.453 283.046 292.801 288.398 295.864 289.417C301.748 291.379 310.657 289.315 315.197 288.703L314.023 279.148C313.417 274.268 307.231 270.14 300.343 271.07C293.455 272 289.654 276.497 290.259 281.377H290.247Z" fill="#080000"/>
<path d="M294.697 276.469C296.679 276.345 298.234 275.329 298.171 274.198C298.107 273.067 296.449 272.25 294.467 272.373C292.484 272.496 290.929 273.513 290.992 274.644C291.056 275.775 292.714 276.592 294.697 276.469Z" fill="#F6FAF9"/>
<path d="M315.233 295.38C315.209 291.685 315.548 286.181 314.882 281.212C314.374 276.421 311.892 272.714 306.844 271.376C304.689 270.802 302.28 270.955 299.956 271.159C291.869 271.898 285.901 273.758 279.231 277.785C271.967 282.155 270.2 292.004 270.72 299.546" stroke="#080000" stroke-miterlimit="10"/>
</g>
</svg>
