<svg width="488" height="527" viewBox="0 0 488 527" fill="none" xmlns="http://www.w3.org/2000/svg">
<path d="M430.859 0H145.148C113.585 0 88 0 88 44.995V104C88 138.73 113.585 138.73 145.148 138.73H334.122C338.163 150.564 325.675 171.59 311 185.5C311 185.5 384.508 170.017 397.853 138.73H430.859C462.415 138.73 488 138.73 488 93.7385V44.995C488 0 462.415 0 430.859 0Z" fill="white"/>
<path d="M109.782 49V36.4H115.416C116.832 36.4 117.936 36.682 118.728 37.246C119.52 37.798 119.916 38.596 119.916 39.64C119.916 40.672 119.538 41.47 118.782 42.034C118.026 42.586 117.03 42.862 115.794 42.862L116.118 42.214C117.522 42.214 118.608 42.496 119.376 43.06C120.144 43.624 120.528 44.44 120.528 45.508C120.528 46.6 120.126 47.458 119.322 48.082C118.518 48.694 117.33 49 115.758 49H109.782ZM112.086 47.2H115.686C116.502 47.2 117.12 47.05 117.54 46.75C117.96 46.438 118.17 45.964 118.17 45.328C118.17 44.692 117.96 44.23 117.54 43.942C117.12 43.642 116.502 43.492 115.686 43.492H112.086V47.2ZM112.086 41.782H115.218C115.974 41.782 116.55 41.632 116.946 41.332C117.342 41.02 117.54 40.576 117.54 40C117.54 39.4 117.342 38.95 116.946 38.65C116.55 38.35 115.974 38.2 115.218 38.2H112.086V41.782ZM129.914 49V40.756L130.436 41.296H126.53V39.388H135.53V41.296H131.642L132.164 40.756V49H129.914ZM141.223 49.126C140.155 49.126 139.219 48.916 138.415 48.496C137.623 48.064 137.005 47.476 136.561 46.732C136.129 45.988 135.913 45.142 135.913 44.194C135.913 43.234 136.123 42.388 136.543 41.656C136.975 40.912 137.563 40.33 138.307 39.91C139.063 39.49 139.921 39.28 140.881 39.28C141.817 39.28 142.651 39.484 143.383 39.892C144.115 40.3 144.691 40.876 145.111 41.62C145.531 42.364 145.741 43.24 145.741 44.248C145.741 44.344 145.735 44.452 145.723 44.572C145.723 44.692 145.717 44.806 145.705 44.914H137.695V43.42H144.517L143.635 43.888C143.647 43.336 143.533 42.85 143.293 42.43C143.053 42.01 142.723 41.68 142.303 41.44C141.895 41.2 141.421 41.08 140.881 41.08C140.329 41.08 139.843 41.2 139.423 41.44C139.015 41.68 138.691 42.016 138.451 42.448C138.223 42.868 138.109 43.366 138.109 43.942V44.302C138.109 44.878 138.241 45.388 138.505 45.832C138.769 46.276 139.141 46.618 139.621 46.858C140.101 47.098 140.653 47.218 141.277 47.218C141.817 47.218 142.303 47.134 142.735 46.966C143.167 46.798 143.551 46.534 143.887 46.174L145.093 47.56C144.661 48.064 144.115 48.454 143.455 48.73C142.807 48.994 142.063 49.126 141.223 49.126ZM152.791 49.18C151.999 49.18 151.291 49.06 150.667 48.82C150.043 48.58 149.503 48.214 149.047 47.722C148.603 47.218 148.261 46.582 148.021 45.814C147.781 45.046 147.661 44.134 147.661 43.078C147.661 42.31 147.727 41.608 147.859 40.972C147.991 40.336 148.189 39.766 148.453 39.262C148.717 38.746 149.047 38.29 149.443 37.894C149.851 37.498 150.325 37.168 150.865 36.904C151.405 36.64 152.017 36.436 152.701 36.292L157.165 35.338L157.489 37.354L153.439 38.182C153.211 38.23 152.935 38.302 152.611 38.398C152.299 38.482 151.975 38.614 151.639 38.794C151.315 38.962 151.009 39.208 150.721 39.532C150.445 39.844 150.217 40.252 150.037 40.756C149.869 41.248 149.785 41.866 149.785 42.61C149.785 42.838 149.791 43.012 149.803 43.132C149.827 43.24 149.845 43.36 149.857 43.492C149.881 43.612 149.893 43.792 149.893 44.032L149.047 43.15C149.287 42.538 149.617 42.016 150.037 41.584C150.469 41.14 150.967 40.804 151.531 40.576C152.107 40.336 152.731 40.216 153.403 40.216C154.303 40.216 155.101 40.402 155.797 40.774C156.493 41.146 157.039 41.668 157.435 42.34C157.831 43.012 158.029 43.774 158.029 44.626C158.029 45.514 157.813 46.3 157.381 46.984C156.949 47.668 156.337 48.208 155.545 48.604C154.765 48.988 153.847 49.18 152.791 49.18ZM152.971 47.362C153.511 47.362 153.985 47.248 154.393 47.02C154.813 46.78 155.137 46.456 155.365 46.048C155.605 45.64 155.725 45.184 155.725 44.68C155.725 44.176 155.605 43.738 155.365 43.366C155.137 42.982 154.813 42.676 154.393 42.448C153.985 42.22 153.499 42.106 152.935 42.106C152.395 42.106 151.909 42.214 151.477 42.43C151.057 42.646 150.727 42.946 150.487 43.33C150.259 43.702 150.145 44.134 150.145 44.626C150.145 45.13 150.265 45.592 150.505 46.012C150.745 46.432 151.075 46.762 151.495 47.002C151.927 47.242 152.419 47.362 152.971 47.362ZM164.689 49.126C163.621 49.126 162.685 48.916 161.881 48.496C161.089 48.064 160.471 47.476 160.027 46.732C159.595 45.988 159.379 45.142 159.379 44.194C159.379 43.234 159.589 42.388 160.009 41.656C160.441 40.912 161.029 40.33 161.773 39.91C162.529 39.49 163.387 39.28 164.347 39.28C165.283 39.28 166.117 39.484 166.849 39.892C167.581 40.3 168.157 40.876 168.577 41.62C168.997 42.364 169.207 43.24 169.207 44.248C169.207 44.344 169.201 44.452 169.189 44.572C169.189 44.692 169.183 44.806 169.171 44.914H161.161V43.42H167.983L167.101 43.888C167.113 43.336 166.999 42.85 166.759 42.43C166.519 42.01 166.189 41.68 165.769 41.44C165.361 41.2 164.887 41.08 164.347 41.08C163.795 41.08 163.309 41.2 162.889 41.44C162.481 41.68 162.157 42.016 161.917 42.448C161.689 42.868 161.575 43.366 161.575 43.942V44.302C161.575 44.878 161.707 45.388 161.971 45.832C162.235 46.276 162.607 46.618 163.087 46.858C163.567 47.098 164.119 47.218 164.743 47.218C165.283 47.218 165.769 47.134 166.201 46.966C166.633 46.798 167.017 46.534 167.353 46.174L168.559 47.56C168.127 48.064 167.581 48.454 166.921 48.73C166.273 48.994 165.529 49.126 164.689 49.126ZM178.641 49V40.756L179.163 41.296H175.257V39.388H184.257V41.296H180.369L180.891 40.756V49H178.641ZM189.751 49.126C188.767 49.126 187.891 48.916 187.123 48.496C186.355 48.064 185.749 47.476 185.305 46.732C184.861 45.988 184.639 45.142 184.639 44.194C184.639 43.234 184.861 42.388 185.305 41.656C185.749 40.912 186.355 40.33 187.123 39.91C187.891 39.49 188.767 39.28 189.751 39.28C190.747 39.28 191.629 39.49 192.397 39.91C193.177 40.33 193.783 40.906 194.215 41.638C194.659 42.37 194.881 43.222 194.881 44.194C194.881 45.142 194.659 45.988 194.215 46.732C193.783 47.476 193.177 48.064 192.397 48.496C191.629 48.916 190.747 49.126 189.751 49.126ZM189.751 47.2C190.303 47.2 190.795 47.08 191.227 46.84C191.659 46.6 191.995 46.252 192.235 45.796C192.487 45.34 192.613 44.806 192.613 44.194C192.613 43.57 192.487 43.036 192.235 42.592C191.995 42.136 191.659 41.788 191.227 41.548C190.795 41.308 190.309 41.188 189.769 41.188C189.217 41.188 188.725 41.308 188.293 41.548C187.873 41.788 187.537 42.136 187.285 42.592C187.033 43.036 186.907 43.57 186.907 44.194C186.907 44.806 187.033 45.34 187.285 45.796C187.537 46.252 187.873 46.6 188.293 46.84C188.725 47.08 189.211 47.2 189.751 47.2ZM203.17 45.202C202.714 45.418 202.228 45.598 201.712 45.742C201.208 45.874 200.674 45.94 200.11 45.94C198.898 45.94 197.956 45.658 197.284 45.094C196.612 44.53 196.276 43.654 196.276 42.466V39.388H198.526V42.322C198.526 42.958 198.706 43.42 199.066 43.708C199.438 43.996 199.948 44.14 200.596 44.14C201.028 44.14 201.46 44.086 201.892 43.978C202.324 43.87 202.75 43.72 203.17 43.528V45.202ZM203.008 49V39.388H205.258V49H203.008ZM208.283 49V39.388H210.533V43.294H215.375V39.388H217.625V49H215.375V45.202H210.533V49H208.283ZM224.925 49.126C223.941 49.126 223.065 48.916 222.297 48.496C221.529 48.064 220.923 47.476 220.479 46.732C220.035 45.988 219.813 45.142 219.813 44.194C219.813 43.234 220.035 42.388 220.479 41.656C220.923 40.912 221.529 40.33 222.297 39.91C223.065 39.49 223.941 39.28 224.925 39.28C225.921 39.28 226.803 39.49 227.571 39.91C228.351 40.33 228.957 40.906 229.389 41.638C229.833 42.37 230.055 43.222 230.055 44.194C230.055 45.142 229.833 45.988 229.389 46.732C228.957 47.476 228.351 48.064 227.571 48.496C226.803 48.916 225.921 49.126 224.925 49.126ZM224.925 47.2C225.477 47.2 225.969 47.08 226.401 46.84C226.833 46.6 227.169 46.252 227.409 45.796C227.661 45.34 227.787 44.806 227.787 44.194C227.787 43.57 227.661 43.036 227.409 42.592C227.169 42.136 226.833 41.788 226.401 41.548C225.969 41.308 225.483 41.188 224.943 41.188C224.391 41.188 223.899 41.308 223.467 41.548C223.047 41.788 222.711 42.136 222.459 42.592C222.207 43.036 222.081 43.57 222.081 44.194C222.081 44.806 222.207 45.34 222.459 45.796C222.711 46.252 223.047 46.6 223.467 46.84C223.899 47.08 224.385 47.2 224.925 47.2ZM240.294 49.162C239.562 49.162 238.836 49.078 238.116 48.91C237.408 48.73 236.766 48.478 236.19 48.154L236.82 46.48C237.288 46.744 237.816 46.948 238.404 47.092C238.992 47.236 239.58 47.308 240.168 47.308C240.672 47.308 241.104 47.26 241.464 47.164C241.824 47.056 242.1 46.9 242.292 46.696C242.496 46.492 242.598 46.258 242.598 45.994C242.598 45.61 242.43 45.322 242.094 45.13C241.77 44.926 241.302 44.824 240.69 44.824H238.836V43.312H240.51C240.894 43.312 241.218 43.27 241.482 43.186C241.758 43.102 241.968 42.976 242.112 42.808C242.256 42.64 242.328 42.442 242.328 42.214C242.328 41.986 242.238 41.788 242.058 41.62C241.89 41.44 241.644 41.308 241.32 41.224C240.996 41.128 240.606 41.08 240.15 41.08C239.67 41.08 239.172 41.14 238.656 41.26C238.152 41.38 237.636 41.554 237.108 41.782L236.532 40.126C237.144 39.85 237.738 39.64 238.314 39.496C238.902 39.34 239.484 39.256 240.06 39.244C240.936 39.208 241.716 39.298 242.4 39.514C243.084 39.73 243.624 40.042 244.02 40.45C244.416 40.858 244.614 41.338 244.614 41.89C244.614 42.346 244.47 42.76 244.182 43.132C243.906 43.492 243.522 43.774 243.03 43.978C242.55 44.182 241.998 44.284 241.374 44.284L241.446 43.798C242.514 43.798 243.354 44.014 243.966 44.446C244.578 44.866 244.884 45.442 244.884 46.174C244.884 46.762 244.686 47.284 244.29 47.74C243.894 48.184 243.348 48.532 242.652 48.784C241.968 49.036 241.182 49.162 240.294 49.162ZM253.033 49V47.056L252.907 46.642V43.24C252.907 42.58 252.709 42.07 252.313 41.71C251.917 41.338 251.317 41.152 250.513 41.152C249.973 41.152 249.439 41.236 248.911 41.404C248.395 41.572 247.957 41.806 247.597 42.106L246.715 40.468C247.231 40.072 247.843 39.778 248.551 39.586C249.271 39.382 250.015 39.28 250.783 39.28C252.175 39.28 253.249 39.616 254.005 40.288C254.773 40.948 255.157 41.974 255.157 43.366V49H253.033ZM250.009 49.126C249.289 49.126 248.659 49.006 248.119 48.766C247.579 48.514 247.159 48.172 246.859 47.74C246.571 47.296 246.427 46.798 246.427 46.246C246.427 45.706 246.553 45.22 246.805 44.788C247.069 44.356 247.495 44.014 248.083 43.762C248.671 43.51 249.451 43.384 250.423 43.384H253.213V44.878H250.585C249.817 44.878 249.301 45.004 249.037 45.256C248.773 45.496 248.641 45.796 248.641 46.156C248.641 46.564 248.803 46.888 249.127 47.128C249.451 47.368 249.901 47.488 250.477 47.488C251.029 47.488 251.521 47.362 251.953 47.11C252.397 46.858 252.715 46.486 252.907 45.994L253.285 47.344C253.069 47.908 252.679 48.346 252.115 48.658C251.563 48.97 250.861 49.126 250.009 49.126ZM256.538 48.982L256.646 47.092C256.73 47.104 256.808 47.116 256.88 47.128C256.952 47.14 257.018 47.146 257.078 47.146C257.45 47.146 257.738 47.032 257.942 46.804C258.146 46.576 258.296 46.27 258.392 45.886C258.5 45.49 258.572 45.052 258.608 44.572C258.656 44.08 258.692 43.588 258.716 43.096L258.878 39.388H266.654V49H264.404V40.684L264.926 41.296H260.354L260.84 40.666L260.714 43.204C260.678 44.056 260.606 44.848 260.498 45.58C260.402 46.3 260.246 46.93 260.03 47.47C259.826 48.01 259.538 48.43 259.166 48.73C258.806 49.03 258.344 49.18 257.78 49.18C257.6 49.18 257.402 49.162 257.186 49.126C256.982 49.09 256.766 49.042 256.538 48.982ZM269.684 49V39.388H271.934V45.724L277.244 39.388H279.296V49H277.046V42.664L271.754 49H269.684ZM288.785 47.092L288.299 47.632V39.388H290.549V47.632L290.009 47.092H294.761L294.239 47.632V39.388H296.489V49H282.323V39.388H284.573V47.632L284.051 47.092H288.785ZM299.514 49V39.388H301.764V45.724L307.074 39.388H309.126V49H306.876V42.664L301.584 49H299.514ZM310.749 48.982L310.857 47.092C310.941 47.104 311.019 47.116 311.091 47.128C311.163 47.14 311.229 47.146 311.289 47.146C311.661 47.146 311.949 47.032 312.153 46.804C312.357 46.576 312.507 46.27 312.603 45.886C312.711 45.49 312.783 45.052 312.819 44.572C312.867 44.08 312.903 43.588 312.927 43.096L313.089 39.388H320.865V49H318.615V40.684L319.137 41.296H314.565L315.051 40.666L314.925 43.204C314.889 44.056 314.817 44.848 314.709 45.58C314.613 46.3 314.457 46.93 314.241 47.47C314.037 48.01 313.749 48.43 313.377 48.73C313.017 49.03 312.555 49.18 311.991 49.18C311.811 49.18 311.613 49.162 311.397 49.126C311.193 49.09 310.977 49.042 310.749 48.982ZM328.179 49.126C327.195 49.126 326.319 48.916 325.551 48.496C324.783 48.064 324.177 47.476 323.733 46.732C323.289 45.988 323.067 45.142 323.067 44.194C323.067 43.234 323.289 42.388 323.733 41.656C324.177 40.912 324.783 40.33 325.551 39.91C326.319 39.49 327.195 39.28 328.179 39.28C329.175 39.28 330.057 39.49 330.825 39.91C331.605 40.33 332.211 40.906 332.643 41.638C333.087 42.37 333.309 43.222 333.309 44.194C333.309 45.142 333.087 45.988 332.643 46.732C332.211 47.476 331.605 48.064 330.825 48.496C330.057 48.916 329.175 49.126 328.179 49.126ZM328.179 47.2C328.731 47.2 329.223 47.08 329.655 46.84C330.087 46.6 330.423 46.252 330.663 45.796C330.915 45.34 331.041 44.806 331.041 44.194C331.041 43.57 330.915 43.036 330.663 42.592C330.423 42.136 330.087 41.788 329.655 41.548C329.223 41.308 328.737 41.188 328.197 41.188C327.645 41.188 327.153 41.308 326.721 41.548C326.301 41.788 325.965 42.136 325.713 42.592C325.461 43.036 325.335 43.57 325.335 44.194C325.335 44.806 325.461 45.34 325.713 45.796C325.965 46.252 326.301 46.6 326.721 46.84C327.153 47.08 327.639 47.2 328.179 47.2ZM339.906 49.126C338.898 49.126 337.998 48.916 337.206 48.496C336.426 48.064 335.814 47.476 335.37 46.732C334.926 45.988 334.704 45.142 334.704 44.194C334.704 43.234 334.926 42.388 335.37 41.656C335.814 40.912 336.426 40.33 337.206 39.91C337.998 39.49 338.898 39.28 339.906 39.28C340.842 39.28 341.664 39.472 342.372 39.856C343.092 40.228 343.638 40.78 344.01 41.512L342.282 42.52C341.994 42.064 341.64 41.728 341.22 41.512C340.812 41.296 340.368 41.188 339.888 41.188C339.336 41.188 338.838 41.308 338.394 41.548C337.95 41.788 337.602 42.136 337.35 42.592C337.098 43.036 336.972 43.57 336.972 44.194C336.972 44.818 337.098 45.358 337.35 45.814C337.602 46.258 337.95 46.6 338.394 46.84C338.838 47.08 339.336 47.2 339.888 47.2C340.368 47.2 340.812 47.092 341.22 46.876C341.64 46.66 341.994 46.324 342.282 45.868L344.01 46.876C343.638 47.596 343.092 48.154 342.372 48.55C341.664 48.934 340.842 49.126 339.906 49.126ZM350.815 42.556C352.051 42.556 352.993 42.832 353.641 43.384C354.289 43.936 354.613 44.716 354.613 45.724C354.613 46.768 354.253 47.584 353.533 48.172C352.813 48.748 351.799 49.03 350.491 49.018L345.991 49V39.388H348.241V42.538L350.815 42.556ZM350.293 47.362C350.953 47.374 351.457 47.236 351.805 46.948C352.153 46.66 352.327 46.24 352.327 45.688C352.327 45.136 352.153 44.74 351.805 44.5C351.469 44.248 350.965 44.116 350.293 44.104L348.241 44.086V47.344L350.293 47.362ZM364.607 49.162C363.875 49.162 363.149 49.078 362.429 48.91C361.721 48.73 361.079 48.478 360.503 48.154L361.133 46.48C361.601 46.744 362.129 46.948 362.717 47.092C363.305 47.236 363.893 47.308 364.481 47.308C364.985 47.308 365.417 47.26 365.777 47.164C366.137 47.056 366.413 46.9 366.605 46.696C366.809 46.492 366.911 46.258 366.911 45.994C366.911 45.61 366.743 45.322 366.407 45.13C366.083 44.926 365.615 44.824 365.003 44.824H363.149V43.312H364.823C365.207 43.312 365.531 43.27 365.795 43.186C366.071 43.102 366.281 42.976 366.425 42.808C366.569 42.64 366.641 42.442 366.641 42.214C366.641 41.986 366.551 41.788 366.371 41.62C366.203 41.44 365.957 41.308 365.633 41.224C365.309 41.128 364.919 41.08 364.463 41.08C363.983 41.08 363.485 41.14 362.969 41.26C362.465 41.38 361.949 41.554 361.421 41.782L360.845 40.126C361.457 39.85 362.051 39.64 362.627 39.496C363.215 39.34 363.797 39.256 364.373 39.244C365.249 39.208 366.029 39.298 366.713 39.514C367.397 39.73 367.937 40.042 368.333 40.45C368.729 40.858 368.927 41.338 368.927 41.89C368.927 42.346 368.783 42.76 368.495 43.132C368.219 43.492 367.835 43.774 367.343 43.978C366.863 44.182 366.311 44.284 365.687 44.284L365.759 43.798C366.827 43.798 367.667 44.014 368.279 44.446C368.891 44.866 369.197 45.442 369.197 46.174C369.197 46.762 368.999 47.284 368.603 47.74C368.207 48.184 367.661 48.532 366.965 48.784C366.281 49.036 365.495 49.162 364.607 49.162ZM377.346 49V47.056L377.22 46.642V43.24C377.22 42.58 377.022 42.07 376.626 41.71C376.23 41.338 375.63 41.152 374.826 41.152C374.286 41.152 373.752 41.236 373.224 41.404C372.708 41.572 372.27 41.806 371.91 42.106L371.028 40.468C371.544 40.072 372.156 39.778 372.864 39.586C373.584 39.382 374.328 39.28 375.096 39.28C376.488 39.28 377.562 39.616 378.318 40.288C379.086 40.948 379.47 41.974 379.47 43.366V49H377.346ZM374.322 49.126C373.602 49.126 372.972 49.006 372.432 48.766C371.892 48.514 371.472 48.172 371.172 47.74C370.884 47.296 370.74 46.798 370.74 46.246C370.74 45.706 370.866 45.22 371.118 44.788C371.382 44.356 371.808 44.014 372.396 43.762C372.984 43.51 373.764 43.384 374.736 43.384H377.526V44.878H374.898C374.13 44.878 373.614 45.004 373.35 45.256C373.086 45.496 372.954 45.796 372.954 46.156C372.954 46.564 373.116 46.888 373.44 47.128C373.764 47.368 374.214 47.488 374.79 47.488C375.342 47.488 375.834 47.362 376.266 47.11C376.71 46.858 377.028 46.486 377.22 45.994L377.598 47.344C377.382 47.908 376.992 48.346 376.428 48.658C375.876 48.97 375.174 49.126 374.322 49.126ZM382.254 49V39.388H391.47V49H389.238V40.774L389.76 41.296H383.982L384.504 40.774V49H382.254ZM394.506 49V39.388H396.756V45.724L402.066 39.388H404.118V49H401.868V42.664L396.576 49H394.506ZM409.143 49V40.756L409.665 41.296H405.759V39.388H414.759V41.296H410.871L411.393 40.756V49H409.143ZM422.223 49V47.056L422.097 46.642V43.24C422.097 42.58 421.899 42.07 421.503 41.71C421.107 41.338 420.507 41.152 419.703 41.152C419.163 41.152 418.629 41.236 418.101 41.404C417.585 41.572 417.147 41.806 416.787 42.106L415.905 40.468C416.421 40.072 417.033 39.778 417.741 39.586C418.461 39.382 419.205 39.28 419.973 39.28C421.365 39.28 422.439 39.616 423.195 40.288C423.963 40.948 424.347 41.974 424.347 43.366V49H422.223ZM419.199 49.126C418.479 49.126 417.849 49.006 417.309 48.766C416.769 48.514 416.349 48.172 416.049 47.74C415.761 47.296 415.617 46.798 415.617 46.246C415.617 45.706 415.743 45.22 415.995 44.788C416.259 44.356 416.685 44.014 417.273 43.762C417.861 43.51 418.641 43.384 419.613 43.384H422.403V44.878H419.775C419.007 44.878 418.491 45.004 418.227 45.256C417.963 45.496 417.831 45.796 417.831 46.156C417.831 46.564 417.993 46.888 418.317 47.128C418.641 47.368 419.091 47.488 419.667 47.488C420.219 47.488 420.711 47.362 421.143 47.11C421.587 46.858 421.905 46.486 422.097 45.994L422.475 47.344C422.259 47.908 421.869 48.346 421.305 48.658C420.753 48.97 420.051 49.126 419.199 49.126ZM427.131 49V39.388H429.381V43.294H434.223V39.388H436.473V49H434.223V45.202H429.381V49H427.131ZM439.489 49V39.388H441.739V43.294H446.581V39.388H448.831V49H446.581V45.202H441.739V49H439.489ZM457.948 49V45.724L458.272 46.102H455.392C454.072 46.102 453.034 45.826 452.278 45.274C451.534 44.71 451.162 43.9 451.162 42.844C451.162 41.716 451.558 40.858 452.35 40.27C453.154 39.682 454.222 39.388 455.554 39.388H459.964V49H457.948ZM451.036 49L453.628 45.328H455.932L453.448 49H451.036ZM457.948 45.004V40.684L458.272 41.278H455.626C454.93 41.278 454.39 41.41 454.006 41.674C453.634 41.926 453.448 42.34 453.448 42.916C453.448 43.996 454.15 44.536 455.554 44.536H458.272L457.948 45.004ZM462.361 51.718L463.405 47.74L463.711 49.072C463.291 49.072 462.937 48.946 462.649 48.694C462.373 48.43 462.235 48.076 462.235 47.632C462.235 47.176 462.373 46.816 462.649 46.552C462.937 46.276 463.285 46.138 463.693 46.138C464.113 46.138 464.461 46.276 464.737 46.552C465.013 46.828 465.151 47.188 465.151 47.632C465.151 47.752 465.139 47.884 465.115 48.028C465.091 48.16 465.049 48.316 464.989 48.496C464.941 48.676 464.857 48.904 464.737 49.18L463.819 51.718H462.361ZM111.51 75V66.756L112.032 67.296H108.126V65.388H117.126V67.296H113.238L113.76 66.756V75H111.51ZM122.62 75.126C121.636 75.126 120.76 74.916 119.992 74.496C119.224 74.064 118.618 73.476 118.174 72.732C117.73 71.988 117.508 71.142 117.508 70.194C117.508 69.234 117.73 68.388 118.174 67.656C118.618 66.912 119.224 66.33 119.992 65.91C120.76 65.49 121.636 65.28 122.62 65.28C123.616 65.28 124.498 65.49 125.266 65.91C126.046 66.33 126.652 66.906 127.084 67.638C127.528 68.37 127.75 69.222 127.75 70.194C127.75 71.142 127.528 71.988 127.084 72.732C126.652 73.476 126.046 74.064 125.266 74.496C124.498 74.916 123.616 75.126 122.62 75.126ZM122.62 73.2C123.172 73.2 123.664 73.08 124.096 72.84C124.528 72.6 124.864 72.252 125.104 71.796C125.356 71.34 125.482 70.806 125.482 70.194C125.482 69.57 125.356 69.036 125.104 68.592C124.864 68.136 124.528 67.788 124.096 67.548C123.664 67.308 123.178 67.188 122.638 67.188C122.086 67.188 121.594 67.308 121.162 67.548C120.742 67.788 120.406 68.136 120.154 68.592C119.902 69.036 119.776 69.57 119.776 70.194C119.776 70.806 119.902 71.34 120.154 71.796C120.406 72.252 120.742 72.6 121.162 72.84C121.594 73.08 122.08 73.2 122.62 73.2ZM141.05 75V71.724L141.374 72.102H138.494C137.174 72.102 136.136 71.826 135.38 71.274C134.636 70.71 134.264 69.9 134.264 68.844C134.264 67.716 134.66 66.858 135.452 66.27C136.256 65.682 137.324 65.388 138.656 65.388H143.066V75H141.05ZM134.138 75L136.73 71.328H139.034L136.55 75H134.138ZM141.05 71.004V66.684L141.374 67.278H138.728C138.032 67.278 137.492 67.41 137.108 67.674C136.736 67.926 136.55 68.34 136.55 68.916C136.55 69.996 137.252 70.536 138.656 70.536H141.374L141.05 71.004ZM152.986 75L149.512 70.392L151.348 69.258L155.632 75H152.986ZM146.092 75V65.388H148.342V75H146.092ZM147.676 71.148V69.276H150.934V71.148H147.676ZM151.564 70.464L149.458 70.212L152.986 65.388H155.398L151.564 70.464ZM173.66 75L170.852 70.392L172.688 69.258L176.342 75H173.66ZM169.034 71.148V69.276H172.256V71.148H169.034ZM172.904 70.464L170.78 70.212L173.696 65.388H176.09L172.904 70.464ZM163.508 75H160.844L164.48 69.258L166.316 70.392L163.508 75ZM169.7 75H167.468V65.388H169.7V75ZM168.134 71.148H164.93V69.276H168.134V71.148ZM164.264 70.464L161.078 65.388H163.472L166.37 70.212L164.264 70.464ZM182.18 75.126C181.112 75.126 180.176 74.916 179.372 74.496C178.58 74.064 177.962 73.476 177.518 72.732C177.086 71.988 176.87 71.142 176.87 70.194C176.87 69.234 177.08 68.388 177.5 67.656C177.932 66.912 178.52 66.33 179.264 65.91C180.02 65.49 180.878 65.28 181.838 65.28C182.774 65.28 183.608 65.484 184.34 65.892C185.072 66.3 185.648 66.876 186.068 67.62C186.488 68.364 186.698 69.24 186.698 70.248C186.698 70.344 186.692 70.452 186.68 70.572C186.68 70.692 186.674 70.806 186.662 70.914H178.652V69.42H185.474L184.592 69.888C184.604 69.336 184.49 68.85 184.25 68.43C184.01 68.01 183.68 67.68 183.26 67.44C182.852 67.2 182.378 67.08 181.838 67.08C181.286 67.08 180.8 67.2 180.38 67.44C179.972 67.68 179.648 68.016 179.408 68.448C179.18 68.868 179.066 69.366 179.066 69.942V70.302C179.066 70.878 179.198 71.388 179.462 71.832C179.726 72.276 180.098 72.618 180.578 72.858C181.058 73.098 181.61 73.218 182.234 73.218C182.774 73.218 183.26 73.134 183.692 72.966C184.124 72.798 184.508 72.534 184.844 72.174L186.05 73.56C185.618 74.064 185.072 74.454 184.412 74.73C183.764 74.994 183.02 75.126 182.18 75.126ZM194.133 75V65.388H198.831C199.995 65.388 200.907 65.604 201.567 66.036C202.239 66.468 202.575 67.08 202.575 67.872C202.575 68.652 202.263 69.264 201.639 69.708C201.015 70.14 200.187 70.356 199.155 70.356L199.425 69.798C200.589 69.798 201.453 70.014 202.017 70.446C202.593 70.866 202.881 71.484 202.881 72.3C202.881 73.152 202.563 73.818 201.927 74.298C201.291 74.766 200.325 75 199.029 75H194.133ZM196.275 73.362H198.849C199.461 73.362 199.923 73.266 200.235 73.074C200.547 72.87 200.703 72.564 200.703 72.156C200.703 71.724 200.559 71.406 200.271 71.202C199.983 70.998 199.533 70.896 198.921 70.896H196.275V73.362ZM196.275 69.402H198.633C199.209 69.402 199.641 69.3 199.929 69.096C200.229 68.88 200.379 68.58 200.379 68.196C200.379 67.8 200.229 67.506 199.929 67.314C199.641 67.122 199.209 67.026 198.633 67.026H196.275V69.402ZM210.252 75V65.388H212.502V73.092H217.092V65.388H219.342V75H210.252ZM218.694 77.142V74.946L219.216 75H217.092V73.092H220.8V77.142H218.694ZM227.285 75.126C226.217 75.126 225.281 74.916 224.477 74.496C223.685 74.064 223.067 73.476 222.623 72.732C222.191 71.988 221.975 71.142 221.975 70.194C221.975 69.234 222.185 68.388 222.605 67.656C223.037 66.912 223.625 66.33 224.369 65.91C225.125 65.49 225.983 65.28 226.943 65.28C227.879 65.28 228.713 65.484 229.445 65.892C230.177 66.3 230.753 66.876 231.173 67.62C231.593 68.364 231.803 69.24 231.803 70.248C231.803 70.344 231.797 70.452 231.785 70.572C231.785 70.692 231.779 70.806 231.767 70.914H223.757V69.42H230.579L229.697 69.888C229.709 69.336 229.595 68.85 229.355 68.43C229.115 68.01 228.785 67.68 228.365 67.44C227.957 67.2 227.483 67.08 226.943 67.08C226.391 67.08 225.905 67.2 225.485 67.44C225.077 67.68 224.753 68.016 224.513 68.448C224.285 68.868 224.171 69.366 224.171 69.942V70.302C224.171 70.878 224.303 71.388 224.567 71.832C224.831 72.276 225.203 72.618 225.683 72.858C226.163 73.098 226.715 73.218 227.339 73.218C227.879 73.218 228.365 73.134 228.797 72.966C229.229 72.798 229.613 72.534 229.949 72.174L231.155 73.56C230.723 74.064 230.177 74.454 229.517 74.73C228.869 74.994 228.125 75.126 227.285 75.126ZM234.264 75V65.388H236.514V71.724L241.824 65.388H243.876V75H241.626V68.664L236.334 75H234.264ZM238.926 64.254C237.966 64.254 237.228 64.032 236.712 63.588C236.196 63.132 235.932 62.472 235.92 61.608H237.414C237.426 62.04 237.558 62.382 237.81 62.634C238.074 62.886 238.44 63.012 238.908 63.012C239.364 63.012 239.724 62.886 239.988 62.634C240.264 62.382 240.408 62.04 240.42 61.608H241.95C241.938 62.472 241.668 63.132 241.14 63.588C240.624 64.032 239.886 64.254 238.926 64.254ZM250.473 74.982L250.581 73.092C250.665 73.104 250.743 73.116 250.815 73.128C250.887 73.14 250.953 73.146 251.013 73.146C251.385 73.146 251.673 73.032 251.877 72.804C252.081 72.576 252.231 72.27 252.327 71.886C252.435 71.49 252.507 71.052 252.543 70.572C252.591 70.08 252.627 69.588 252.651 69.096L252.813 65.388H260.589V75H258.339V66.684L258.861 67.296H254.289L254.775 66.666L254.649 69.204C254.613 70.056 254.541 70.848 254.433 71.58C254.337 72.3 254.181 72.93 253.965 73.47C253.761 74.01 253.473 74.43 253.101 74.73C252.741 75.03 252.279 75.18 251.715 75.18C251.535 75.18 251.337 75.162 251.121 75.126C250.917 75.09 250.701 75.042 250.473 74.982ZM269.451 75V73.056L269.325 72.642V69.24C269.325 68.58 269.127 68.07 268.731 67.71C268.335 67.338 267.735 67.152 266.931 67.152C266.391 67.152 265.857 67.236 265.329 67.404C264.813 67.572 264.375 67.806 264.015 68.106L263.133 66.468C263.649 66.072 264.261 65.778 264.969 65.586C265.689 65.382 266.433 65.28 267.201 65.28C268.593 65.28 269.667 65.616 270.423 66.288C271.191 66.948 271.575 67.974 271.575 69.366V75H269.451ZM266.427 75.126C265.707 75.126 265.077 75.006 264.537 74.766C263.997 74.514 263.577 74.172 263.277 73.74C262.989 73.296 262.845 72.798 262.845 72.246C262.845 71.706 262.971 71.22 263.223 70.788C263.487 70.356 263.913 70.014 264.501 69.762C265.089 69.51 265.869 69.384 266.841 69.384H269.631V70.878H267.003C266.235 70.878 265.719 71.004 265.455 71.256C265.191 71.496 265.059 71.796 265.059 72.156C265.059 72.564 265.221 72.888 265.545 73.128C265.869 73.368 266.319 73.488 266.895 73.488C267.447 73.488 267.939 73.362 268.371 73.11C268.815 72.858 269.133 72.486 269.325 71.994L269.703 73.344C269.487 73.908 269.097 74.346 268.533 74.658C267.981 74.97 267.279 75.126 266.427 75.126ZM278.95 75.18C278.158 75.18 277.45 75.06 276.826 74.82C276.202 74.58 275.662 74.214 275.206 73.722C274.762 73.218 274.42 72.582 274.18 71.814C273.94 71.046 273.82 70.134 273.82 69.078C273.82 68.31 273.886 67.608 274.018 66.972C274.15 66.336 274.348 65.766 274.612 65.262C274.876 64.746 275.206 64.29 275.602 63.894C276.01 63.498 276.484 63.168 277.024 62.904C277.564 62.64 278.176 62.436 278.86 62.292L283.324 61.338L283.648 63.354L279.598 64.182C279.37 64.23 279.094 64.302 278.77 64.398C278.458 64.482 278.134 64.614 277.798 64.794C277.474 64.962 277.168 65.208 276.88 65.532C276.604 65.844 276.376 66.252 276.196 66.756C276.028 67.248 275.944 67.866 275.944 68.61C275.944 68.838 275.95 69.012 275.962 69.132C275.986 69.24 276.004 69.36 276.016 69.492C276.04 69.612 276.052 69.792 276.052 70.032L275.206 69.15C275.446 68.538 275.776 68.016 276.196 67.584C276.628 67.14 277.126 66.804 277.69 66.576C278.266 66.336 278.89 66.216 279.562 66.216C280.462 66.216 281.26 66.402 281.956 66.774C282.652 67.146 283.198 67.668 283.594 68.34C283.99 69.012 284.188 69.774 284.188 70.626C284.188 71.514 283.972 72.3 283.54 72.984C283.108 73.668 282.496 74.208 281.704 74.604C280.924 74.988 280.006 75.18 278.95 75.18ZM279.13 73.362C279.67 73.362 280.144 73.248 280.552 73.02C280.972 72.78 281.296 72.456 281.524 72.048C281.764 71.64 281.884 71.184 281.884 70.68C281.884 70.176 281.764 69.738 281.524 69.366C281.296 68.982 280.972 68.676 280.552 68.448C280.144 68.22 279.658 68.106 279.094 68.106C278.554 68.106 278.068 68.214 277.636 68.43C277.216 68.646 276.886 68.946 276.646 69.33C276.418 69.702 276.304 70.134 276.304 70.626C276.304 71.13 276.424 71.592 276.664 72.012C276.904 72.432 277.234 72.762 277.654 73.002C278.086 73.242 278.578 73.362 279.13 73.362ZM286.366 75V65.388H288.616V75H286.366ZM287.5 63.804C287.08 63.804 286.732 63.672 286.456 63.408C286.192 63.144 286.06 62.826 286.06 62.454C286.06 62.07 286.192 61.752 286.456 61.5C286.732 61.236 287.08 61.104 287.5 61.104C287.92 61.104 288.262 61.23 288.526 61.482C288.802 61.722 288.94 62.028 288.94 62.4C288.94 62.796 288.808 63.132 288.544 63.408C288.28 63.672 287.932 63.804 287.5 63.804ZM296.985 75.126C296.205 75.126 295.491 74.946 294.843 74.586C294.207 74.226 293.697 73.686 293.313 72.966C292.941 72.234 292.755 71.31 292.755 70.194C292.755 69.066 292.935 68.142 293.295 67.422C293.667 66.702 294.171 66.168 294.807 65.82C295.443 65.46 296.169 65.28 296.985 65.28C297.933 65.28 298.767 65.484 299.487 65.892C300.219 66.3 300.795 66.87 301.215 67.602C301.647 68.334 301.863 69.198 301.863 70.194C301.863 71.19 301.647 72.06 301.215 72.804C300.795 73.536 300.219 74.106 299.487 74.514C298.767 74.922 297.933 75.126 296.985 75.126ZM291.657 78.492V65.388H293.799V67.656L293.727 70.212L293.907 72.768V78.492H291.657ZM296.733 73.2C297.273 73.2 297.753 73.08 298.173 72.84C298.605 72.6 298.947 72.252 299.199 71.796C299.451 71.34 299.577 70.806 299.577 70.194C299.577 69.57 299.451 69.036 299.199 68.592C298.947 68.136 298.605 67.788 298.173 67.548C297.753 67.308 297.273 67.188 296.733 67.188C296.193 67.188 295.707 67.308 295.275 67.548C294.843 67.788 294.501 68.136 294.249 68.592C293.997 69.036 293.871 69.57 293.871 70.194C293.871 70.806 293.997 71.34 294.249 71.796C294.501 72.252 294.843 72.6 295.275 72.84C295.707 73.08 296.193 73.2 296.733 73.2ZM304.102 75V65.388H306.352V71.724L311.662 65.388H313.714V75H311.464V68.664L306.172 75H304.102ZM316.741 75V65.388H318.991V69.294H323.833V65.388H326.083V75H323.833V71.202H318.991V75H316.741ZM331.096 75V66.756L331.618 67.296H327.712V65.388H336.712V67.296H332.824L333.346 66.756V75H331.096ZM343.319 75V65.388H352.535V75H350.303V66.774L350.825 67.296H345.047L345.569 66.774V75H343.319ZM359.855 75.126C358.871 75.126 357.995 74.916 357.227 74.496C356.459 74.064 355.853 73.476 355.409 72.732C354.965 71.988 354.743 71.142 354.743 70.194C354.743 69.234 354.965 68.388 355.409 67.656C355.853 66.912 356.459 66.33 357.227 65.91C357.995 65.49 358.871 65.28 359.855 65.28C360.851 65.28 361.733 65.49 362.501 65.91C363.281 66.33 363.887 66.906 364.319 67.638C364.763 68.37 364.985 69.222 364.985 70.194C364.985 71.142 364.763 71.988 364.319 72.732C363.887 73.476 363.281 74.064 362.501 74.496C361.733 74.916 360.851 75.126 359.855 75.126ZM359.855 73.2C360.407 73.2 360.899 73.08 361.331 72.84C361.763 72.6 362.099 72.252 362.339 71.796C362.591 71.34 362.717 70.806 362.717 70.194C362.717 69.57 362.591 69.036 362.339 68.592C362.099 68.136 361.763 67.788 361.331 67.548C360.899 67.308 360.413 67.188 359.873 67.188C359.321 67.188 358.829 67.308 358.397 67.548C357.977 67.788 357.641 68.136 357.389 68.592C357.137 69.036 357.011 69.57 357.011 70.194C357.011 70.806 357.137 71.34 357.389 71.796C357.641 72.252 357.977 72.6 358.397 72.84C358.829 73.08 359.315 73.2 359.855 73.2ZM368.854 75V66.756L369.376 67.296H365.47V65.388H374.47V67.296H370.582L371.104 66.756V75H368.854ZM381.43 75.126C380.65 75.126 379.936 74.946 379.288 74.586C378.652 74.226 378.142 73.686 377.758 72.966C377.386 72.234 377.2 71.31 377.2 70.194C377.2 69.066 377.38 68.142 377.74 67.422C378.112 66.702 378.616 66.168 379.252 65.82C379.888 65.46 380.614 65.28 381.43 65.28C382.378 65.28 383.212 65.484 383.932 65.892C384.664 66.3 385.24 66.87 385.66 67.602C386.092 68.334 386.308 69.198 386.308 70.194C386.308 71.19 386.092 72.06 385.66 72.804C385.24 73.536 384.664 74.106 383.932 74.514C383.212 74.922 382.378 75.126 381.43 75.126ZM376.102 78.492V65.388H378.244V67.656L378.172 70.212L378.352 72.768V78.492H376.102ZM381.178 73.2C381.718 73.2 382.198 73.08 382.618 72.84C383.05 72.6 383.392 72.252 383.644 71.796C383.896 71.34 384.022 70.806 384.022 70.194C384.022 69.57 383.896 69.036 383.644 68.592C383.392 68.136 383.05 67.788 382.618 67.548C382.198 67.308 381.718 67.188 381.178 67.188C380.638 67.188 380.152 67.308 379.72 67.548C379.288 67.788 378.946 68.136 378.694 68.592C378.442 69.036 378.316 69.57 378.316 70.194C378.316 70.806 378.442 71.34 378.694 71.796C378.946 72.252 379.288 72.6 379.72 72.84C380.152 73.08 380.638 73.2 381.178 73.2ZM394.256 75V73.056L394.13 72.642V69.24C394.13 68.58 393.932 68.07 393.536 67.71C393.14 67.338 392.54 67.152 391.736 67.152C391.196 67.152 390.662 67.236 390.134 67.404C389.618 67.572 389.18 67.806 388.82 68.106L387.938 66.468C388.454 66.072 389.066 65.778 389.774 65.586C390.494 65.382 391.238 65.28 392.006 65.28C393.398 65.28 394.472 65.616 395.228 66.288C395.996 66.948 396.38 67.974 396.38 69.366V75H394.256ZM391.232 75.126C390.512 75.126 389.882 75.006 389.342 74.766C388.802 74.514 388.382 74.172 388.082 73.74C387.794 73.296 387.65 72.798 387.65 72.246C387.65 71.706 387.776 71.22 388.028 70.788C388.292 70.356 388.718 70.014 389.306 69.762C389.894 69.51 390.674 69.384 391.646 69.384H394.436V70.878H391.808C391.04 70.878 390.524 71.004 390.26 71.256C389.996 71.496 389.864 71.796 389.864 72.156C389.864 72.564 390.026 72.888 390.35 73.128C390.674 73.368 391.124 73.488 391.7 73.488C392.252 73.488 392.744 73.362 393.176 73.11C393.62 72.858 393.938 72.486 394.13 71.994L394.508 73.344C394.292 73.908 393.902 74.346 393.338 74.658C392.786 74.97 392.084 75.126 391.232 75.126ZM399.164 75V65.388H408.38V75H406.148V66.774L406.67 67.296H400.892L401.414 66.774V75H399.164ZM411.416 75V65.388H413.666V71.724L418.976 65.388H421.028V75H418.778V68.664L413.486 75H411.416ZM426.053 75V66.756L426.575 67.296H422.669V65.388H431.669V67.296H427.781L428.303 66.756V75H426.053ZM433.301 75V65.388H435.551V71.724L440.861 65.388H442.913V75H440.663V68.664L435.371 75H433.301ZM446.048 70.824L445.616 62.4H448.28L447.83 70.824H446.048ZM446.948 75.126C446.528 75.126 446.18 74.988 445.904 74.712C445.628 74.436 445.49 74.106 445.49 73.722C445.49 73.338 445.628 73.014 445.904 72.75C446.18 72.474 446.528 72.336 446.948 72.336C447.368 72.336 447.71 72.474 447.974 72.75C448.238 73.014 448.37 73.338 448.37 73.722C448.37 74.106 448.238 74.436 447.974 74.712C447.71 74.988 447.368 75.126 446.948 75.126ZM118.098 101L113.832 94.862L115.722 93.692L120.744 101H118.098ZM109.764 101V88.4H112.068V101H109.764ZM111.366 95.69V93.674H115.614V95.69H111.366ZM115.938 94.97L113.796 94.682L118.098 88.4H120.582L115.938 94.97ZM120.94 100.982L121.048 99.092C121.132 99.104 121.21 99.116 121.282 99.128C121.354 99.14 121.42 99.146 121.48 99.146C121.852 99.146 122.14 99.032 122.344 98.804C122.548 98.576 122.698 98.27 122.794 97.886C122.902 97.49 122.974 97.052 123.01 96.572C123.058 96.08 123.094 95.588 123.118 95.096L123.28 91.388H131.056V101H128.806V92.684L129.328 93.296H124.756L125.242 92.666L125.116 95.204C125.08 96.056 125.008 96.848 124.9 97.58C124.804 98.3 124.648 98.93 124.432 99.47C124.228 100.01 123.94 100.43 123.568 100.73C123.208 101.03 122.746 101.18 122.182 101.18C122.002 101.18 121.804 101.162 121.588 101.126C121.384 101.09 121.168 101.042 120.94 100.982ZM139.918 101V99.056L139.792 98.642V95.24C139.792 94.58 139.594 94.07 139.198 93.71C138.802 93.338 138.202 93.152 137.398 93.152C136.858 93.152 136.324 93.236 135.796 93.404C135.28 93.572 134.842 93.806 134.482 94.106L133.6 92.468C134.116 92.072 134.728 91.778 135.436 91.586C136.156 91.382 136.9 91.28 137.668 91.28C139.06 91.28 140.134 91.616 140.89 92.288C141.658 92.948 142.042 93.974 142.042 95.366V101H139.918ZM136.894 101.126C136.174 101.126 135.544 101.006 135.004 100.766C134.464 100.514 134.044 100.172 133.744 99.74C133.456 99.296 133.312 98.798 133.312 98.246C133.312 97.706 133.438 97.22 133.69 96.788C133.954 96.356 134.38 96.014 134.968 95.762C135.556 95.51 136.336 95.384 137.308 95.384H140.098V96.878H137.47C136.702 96.878 136.186 97.004 135.922 97.256C135.658 97.496 135.526 97.796 135.526 98.156C135.526 98.564 135.688 98.888 136.012 99.128C136.336 99.368 136.786 99.488 137.362 99.488C137.914 99.488 138.406 99.362 138.838 99.11C139.282 98.858 139.6 98.486 139.792 97.994L140.17 99.344C139.954 99.908 139.564 100.346 139 100.658C138.448 100.97 137.746 101.126 136.894 101.126ZM144.826 101V91.388H147.076V99.092H151.666V91.388H153.916V101H144.826ZM153.268 103.142V100.946L153.79 101H151.666V99.092H155.374V103.142H153.268ZM163.209 101V99.056L163.083 98.642V95.24C163.083 94.58 162.885 94.07 162.489 93.71C162.093 93.338 161.493 93.152 160.689 93.152C160.149 93.152 159.615 93.236 159.087 93.404C158.571 93.572 158.133 93.806 157.773 94.106L156.891 92.468C157.407 92.072 158.019 91.778 158.727 91.586C159.447 91.382 160.191 91.28 160.959 91.28C162.351 91.28 163.425 91.616 164.181 92.288C164.949 92.948 165.333 93.974 165.333 95.366V101H163.209ZM160.185 101.126C159.465 101.126 158.835 101.006 158.295 100.766C157.755 100.514 157.335 100.172 157.035 99.74C156.747 99.296 156.603 98.798 156.603 98.246C156.603 97.706 156.729 97.22 156.981 96.788C157.245 96.356 157.671 96.014 158.259 95.762C158.847 95.51 159.627 95.384 160.599 95.384H163.389V96.878H160.761C159.993 96.878 159.477 97.004 159.213 97.256C158.949 97.496 158.817 97.796 158.817 98.156C158.817 98.564 158.979 98.888 159.303 99.128C159.627 99.368 160.077 99.488 160.653 99.488C161.205 99.488 161.697 99.362 162.129 99.11C162.573 98.858 162.891 98.486 163.083 97.994L163.461 99.344C163.245 99.908 162.855 100.346 162.291 100.658C161.739 100.97 161.037 101.126 160.185 101.126ZM168.117 101V91.388H170.367V97.724L175.677 91.388H177.729V101H175.479V94.664L170.187 101H168.117ZM172.779 90.254C171.819 90.254 171.081 90.032 170.565 89.588C170.049 89.132 169.785 88.472 169.773 87.608H171.267C171.279 88.04 171.411 88.382 171.663 88.634C171.927 88.886 172.293 89.012 172.761 89.012C173.217 89.012 173.577 88.886 173.841 88.634C174.117 88.382 174.261 88.04 174.273 87.608H175.803C175.791 88.472 175.521 89.132 174.993 89.588C174.477 90.032 173.739 90.254 172.779 90.254ZM185.731 101V91.388H187.981V95.294H192.823V91.388H195.073V101H192.823V97.202H187.981V101H185.731ZM203.92 101V99.056L203.794 98.642V95.24C203.794 94.58 203.596 94.07 203.2 93.71C202.804 93.338 202.204 93.152 201.4 93.152C200.86 93.152 200.326 93.236 199.798 93.404C199.282 93.572 198.844 93.806 198.484 94.106L197.602 92.468C198.118 92.072 198.73 91.778 199.438 91.586C200.158 91.382 200.902 91.28 201.67 91.28C203.062 91.28 204.136 91.616 204.892 92.288C205.66 92.948 206.044 93.974 206.044 95.366V101H203.92ZM200.896 101.126C200.176 101.126 199.546 101.006 199.006 100.766C198.466 100.514 198.046 100.172 197.746 99.74C197.458 99.296 197.314 98.798 197.314 98.246C197.314 97.706 197.44 97.22 197.692 96.788C197.956 96.356 198.382 96.014 198.97 95.762C199.558 95.51 200.338 95.384 201.31 95.384H204.1V96.878H201.472C200.704 96.878 200.188 97.004 199.924 97.256C199.66 97.496 199.528 97.796 199.528 98.156C199.528 98.564 199.69 98.888 200.014 99.128C200.338 99.368 200.788 99.488 201.364 99.488C201.916 99.488 202.408 99.362 202.84 99.11C203.284 98.858 203.602 98.486 203.794 97.994L204.172 99.344C203.956 99.908 203.566 100.346 203.002 100.658C202.45 100.97 201.748 101.126 200.896 101.126ZM220.697 101L217.223 96.392L219.059 95.258L223.343 101H220.697ZM213.803 101V91.388H216.053V101H213.803ZM215.387 97.148V95.276H218.645V97.148H215.387ZM219.275 96.464L217.169 96.212L220.697 91.388H223.109L219.275 96.464ZM228.898 101.126C227.914 101.126 227.038 100.916 226.27 100.496C225.502 100.064 224.896 99.476 224.452 98.732C224.008 97.988 223.786 97.142 223.786 96.194C223.786 95.234 224.008 94.388 224.452 93.656C224.896 92.912 225.502 92.33 226.27 91.91C227.038 91.49 227.914 91.28 228.898 91.28C229.894 91.28 230.776 91.49 231.544 91.91C232.324 92.33 232.93 92.906 233.362 93.638C233.806 94.37 234.028 95.222 234.028 96.194C234.028 97.142 233.806 97.988 233.362 98.732C232.93 99.476 232.324 100.064 231.544 100.496C230.776 100.916 229.894 101.126 228.898 101.126ZM228.898 99.2C229.45 99.2 229.942 99.08 230.374 98.84C230.806 98.6 231.142 98.252 231.382 97.796C231.634 97.34 231.76 96.806 231.76 96.194C231.76 95.57 231.634 95.036 231.382 94.592C231.142 94.136 230.806 93.788 230.374 93.548C229.942 93.308 229.456 93.188 228.916 93.188C228.364 93.188 227.872 93.308 227.44 93.548C227.02 93.788 226.684 94.136 226.432 94.592C226.18 95.036 226.054 95.57 226.054 96.194C226.054 96.806 226.18 97.34 226.432 97.796C226.684 98.252 227.02 98.6 227.44 98.84C227.872 99.08 228.358 99.2 228.898 99.2ZM237.897 101V92.756L238.419 93.296H234.513V91.388H243.513V93.296H239.625L240.147 92.756V101H237.897ZM251.124 101V97.724L251.448 98.102H248.568C247.248 98.102 246.21 97.826 245.454 97.274C244.71 96.71 244.338 95.9 244.338 94.844C244.338 93.716 244.734 92.858 245.526 92.27C246.33 91.682 247.398 91.388 248.73 91.388H253.14V101H251.124ZM244.212 101L246.804 97.328H249.108L246.624 101H244.212ZM251.124 97.004V92.684L251.448 93.278H248.802C248.106 93.278 247.566 93.41 247.182 93.674C246.81 93.926 246.624 94.34 246.624 94.916C246.624 95.996 247.326 96.536 248.73 96.536H251.448L251.124 97.004ZM262.232 97.202C261.776 97.418 261.29 97.598 260.774 97.742C260.27 97.874 259.736 97.94 259.172 97.94C257.96 97.94 257.018 97.658 256.346 97.094C255.674 96.53 255.338 95.654 255.338 94.466V91.388H257.588V94.322C257.588 94.958 257.768 95.42 258.128 95.708C258.5 95.996 259.01 96.14 259.658 96.14C260.09 96.14 260.522 96.086 260.954 95.978C261.386 95.87 261.812 95.72 262.232 95.528V97.202ZM262.07 101V91.388H264.32V101H262.07ZM268.21 104.618C267.742 104.618 267.274 104.54 266.806 104.384C266.338 104.228 265.948 104.012 265.636 103.736L266.536 102.08C266.764 102.284 267.022 102.446 267.31 102.566C267.598 102.686 267.892 102.746 268.192 102.746C268.6 102.746 268.93 102.644 269.182 102.44C269.434 102.236 269.668 101.894 269.884 101.414L270.442 100.154L270.622 99.884L274.258 91.388H276.418L271.918 101.774C271.618 102.494 271.282 103.064 270.91 103.484C270.55 103.904 270.142 104.198 269.686 104.366C269.242 104.534 268.75 104.618 268.21 104.618ZM270.19 101.342L265.852 91.388H268.192L271.72 99.686L270.19 101.342ZM281.551 100.982L281.659 99.092C281.743 99.104 281.821 99.116 281.893 99.128C281.965 99.14 282.031 99.146 282.091 99.146C282.463 99.146 282.751 99.032 282.955 98.804C283.159 98.576 283.309 98.27 283.405 97.886C283.513 97.49 283.585 97.052 283.621 96.572C283.669 96.08 283.705 95.588 283.729 95.096L283.891 91.388H291.667V101H289.417V92.684L289.939 93.296H285.367L285.853 92.666L285.727 95.204C285.691 96.056 285.619 96.848 285.511 97.58C285.415 98.3 285.259 98.93 285.043 99.47C284.839 100.01 284.551 100.43 284.179 100.73C283.819 101.03 283.357 101.18 282.793 101.18C282.613 101.18 282.415 101.162 282.199 101.126C281.995 101.09 281.779 101.042 281.551 100.982ZM300.53 101V99.056L300.404 98.642V95.24C300.404 94.58 300.206 94.07 299.81 93.71C299.414 93.338 298.814 93.152 298.01 93.152C297.47 93.152 296.936 93.236 296.408 93.404C295.892 93.572 295.454 93.806 295.094 94.106L294.212 92.468C294.728 92.072 295.34 91.778 296.048 91.586C296.768 91.382 297.512 91.28 298.28 91.28C299.672 91.28 300.746 91.616 301.502 92.288C302.27 92.948 302.654 93.974 302.654 95.366V101H300.53ZM297.506 101.126C296.786 101.126 296.156 101.006 295.616 100.766C295.076 100.514 294.656 100.172 294.356 99.74C294.068 99.296 293.924 98.798 293.924 98.246C293.924 97.706 294.05 97.22 294.302 96.788C294.566 96.356 294.992 96.014 295.58 95.762C296.168 95.51 296.948 95.384 297.92 95.384H300.71V96.878H298.082C297.314 96.878 296.798 97.004 296.534 97.256C296.27 97.496 296.138 97.796 296.138 98.156C296.138 98.564 296.3 98.888 296.624 99.128C296.948 99.368 297.398 99.488 297.974 99.488C298.526 99.488 299.018 99.362 299.45 99.11C299.894 98.858 300.212 98.486 300.404 97.994L300.782 99.344C300.566 99.908 300.176 100.346 299.612 100.658C299.06 100.97 298.358 101.126 297.506 101.126ZM305.438 101V91.388H314.654V101H312.422V92.774L312.944 93.296H307.166L307.688 92.774V101H305.438ZM324.584 101L321.11 96.392L322.946 95.258L327.23 101H324.584ZM317.69 101V91.388H319.94V101H317.69ZM319.274 97.148V95.276H322.532V97.148H319.274ZM323.162 96.464L321.056 96.212L324.584 91.388H326.996L323.162 96.464ZM329.136 104.618C328.668 104.618 328.2 104.54 327.732 104.384C327.264 104.228 326.874 104.012 326.562 103.736L327.462 102.08C327.69 102.284 327.948 102.446 328.236 102.566C328.524 102.686 328.818 102.746 329.118 102.746C329.526 102.746 329.856 102.644 330.108 102.44C330.36 102.236 330.594 101.894 330.81 101.414L331.368 100.154L331.548 99.884L335.184 91.388H337.344L332.844 101.774C332.544 102.494 332.208 103.064 331.836 103.484C331.476 103.904 331.068 104.198 330.612 104.366C330.168 104.534 329.676 104.618 329.136 104.618ZM331.116 101.342L326.778 91.388H329.118L332.646 99.686L331.116 101.342ZM343.881 101V91.388H346.131V101H343.881ZM345.015 89.804C344.595 89.804 344.247 89.672 343.971 89.408C343.707 89.144 343.575 88.826 343.575 88.454C343.575 88.07 343.707 87.752 343.971 87.5C344.247 87.236 344.595 87.104 345.015 87.104C345.435 87.104 345.777 87.23 346.041 87.482C346.317 87.722 346.455 88.028 346.455 88.4C346.455 88.796 346.323 89.132 346.059 89.408C345.795 89.672 345.447 89.804 345.015 89.804ZM354.147 101V91.388H363.363V101H361.131V92.774L361.653 93.296H355.875L356.397 92.774V101H354.147ZM370.683 101.126C369.699 101.126 368.823 100.916 368.055 100.496C367.287 100.064 366.681 99.476 366.237 98.732C365.793 97.988 365.571 97.142 365.571 96.194C365.571 95.234 365.793 94.388 366.237 93.656C366.681 92.912 367.287 92.33 368.055 91.91C368.823 91.49 369.699 91.28 370.683 91.28C371.679 91.28 372.561 91.49 373.329 91.91C374.109 92.33 374.715 92.906 375.147 93.638C375.591 94.37 375.813 95.222 375.813 96.194C375.813 97.142 375.591 97.988 375.147 98.732C374.715 99.476 374.109 100.064 373.329 100.496C372.561 100.916 371.679 101.126 370.683 101.126ZM370.683 99.2C371.235 99.2 371.727 99.08 372.159 98.84C372.591 98.6 372.927 98.252 373.167 97.796C373.419 97.34 373.545 96.806 373.545 96.194C373.545 95.57 373.419 95.036 373.167 94.592C372.927 94.136 372.591 93.788 372.159 93.548C371.727 93.308 371.241 93.188 370.701 93.188C370.149 93.188 369.657 93.308 369.225 93.548C368.805 93.788 368.469 94.136 368.217 94.592C367.965 95.036 367.839 95.57 367.839 96.194C367.839 96.806 367.965 97.34 368.217 97.796C368.469 98.252 368.805 98.6 369.225 98.84C369.657 99.08 370.143 99.2 370.683 99.2ZM378.035 101V91.388H385.415V93.296H379.763L380.285 92.792V101H378.035ZM387.053 101V91.388H389.303V95.294H394.145V91.388H396.395V101H394.145V97.202H389.303V101H387.053ZM405.242 101V99.056L405.116 98.642V95.24C405.116 94.58 404.918 94.07 404.522 93.71C404.126 93.338 403.526 93.152 402.722 93.152C402.182 93.152 401.648 93.236 401.12 93.404C400.604 93.572 400.166 93.806 399.806 94.106L398.924 92.468C399.44 92.072 400.052 91.778 400.76 91.586C401.48 91.382 402.224 91.28 402.992 91.28C404.384 91.28 405.458 91.616 406.214 92.288C406.982 92.948 407.366 93.974 407.366 95.366V101H405.242ZM402.218 101.126C401.498 101.126 400.868 101.006 400.328 100.766C399.788 100.514 399.368 100.172 399.068 99.74C398.78 99.296 398.636 98.798 398.636 98.246C398.636 97.706 398.762 97.22 399.014 96.788C399.278 96.356 399.704 96.014 400.292 95.762C400.88 95.51 401.66 95.384 402.632 95.384H405.422V96.878H402.794C402.026 96.878 401.51 97.004 401.246 97.256C400.982 97.496 400.85 97.796 400.85 98.156C400.85 98.564 401.012 98.888 401.336 99.128C401.66 99.368 402.11 99.488 402.686 99.488C403.238 99.488 403.73 99.362 404.162 99.11C404.606 98.858 404.924 98.486 405.116 97.994L405.494 99.344C405.278 99.908 404.888 100.346 404.324 100.658C403.772 100.97 403.07 101.126 402.218 101.126ZM408.747 100.982L408.855 99.092C408.939 99.104 409.017 99.116 409.089 99.128C409.161 99.14 409.227 99.146 409.287 99.146C409.659 99.146 409.947 99.032 410.151 98.804C410.355 98.576 410.505 98.27 410.601 97.886C410.709 97.49 410.781 97.052 410.817 96.572C410.865 96.08 410.901 95.588 410.925 95.096L411.087 91.388H418.863V101H416.613V92.684L417.135 93.296H412.563L413.049 92.666L412.923 95.204C412.887 96.056 412.815 96.848 412.707 97.58C412.611 98.3 412.455 98.93 412.239 99.47C412.035 100.01 411.747 100.43 411.375 100.73C411.015 101.03 410.553 101.18 409.989 101.18C409.809 101.18 409.611 101.162 409.395 101.126C409.191 101.09 408.975 101.042 408.747 100.982ZM421.893 101V91.388H424.143V97.724L429.453 91.388H431.505V101H429.255V94.664L423.963 101H421.893ZM434.64 96.824L434.208 88.4H436.872L436.422 96.824H434.64ZM435.54 101.126C435.12 101.126 434.772 100.988 434.496 100.712C434.22 100.436 434.082 100.106 434.082 99.722C434.082 99.338 434.22 99.014 434.496 98.75C434.772 98.474 435.12 98.336 435.54 98.336C435.96 98.336 436.302 98.474 436.566 98.75C436.83 99.014 436.962 99.338 436.962 99.722C436.962 100.106 436.83 100.436 436.566 100.712C436.302 100.988 435.96 101.126 435.54 101.126Z" fill="#6083B3"/>
<mask id="mask0_1120_1472" style="mask-type:luminance" maskUnits="userSpaceOnUse" x="0" y="143" width="428" height="384">
<path d="M428 334.746C428 440.644 348.222 526.501 249.802 526.501C206.165 526.501 166.185 509.62 135.205 481.595C17.4308 536.378 0 382.128 0 323.187C0 289.498 79.6838 269.402 93.8603 241.885C124.257 182.916 182.697 143 249.802 143C348.213 143 428 228.848 428 334.755V334.746Z" fill="white"/>
</mask>
<g mask="url(#mask0_1120_1472)">
<path d="M245.56 399.092C253.872 395.138 284.758 380.871 304.705 371.678C318.169 365.468 328.438 353.429 332.311 338.682C332.336 338.589 332.354 338.506 332.379 338.414C340.88 305.603 324.875 267.747 295.843 252.012C271.758 238.965 243.654 238.485 217.199 244.925C200.506 248.99 183.573 255.809 172.436 269.346C161.188 283.021 157.358 302.064 159.007 319.971C159.299 323.094 159.694 326.3 160.201 329.544C164.279 355.776 181.993 377.517 206.233 386.082L243.053 399.083" fill="#37B34A"/>
<path d="M75.1928 287.457L79.9155 309.013L77.2622 323.668L49.7164 333.369L47.4323 304.698L65.8678 297.02L75.1928 287.457Z" fill="#1A1A1A"/>
<path d="M171.389 367.594H325.098L331.048 761.065L233.599 762.229C233.599 762.229 245.268 735.692 282.259 733.382L265.206 597.232L245.388 595.227L188.571 762.229L95.1568 763.375C95.1568 763.375 109.101 739.148 140.194 739.148L170.152 585.692L171.397 367.603L171.389 367.594Z" fill="#FBB616"/>
<path d="M325.339 369.349H170.934C170.934 369.349 152.705 272.423 197.201 202.043L221.32 251.652H280.302C280.302 251.652 301.743 211.274 334.449 204.926C334.449 204.926 318.907 322.623 325.33 369.349H325.339Z" fill="#FBB616"/>
<path d="M231.47 296.65C231.47 303.127 222.668 308.375 211.815 308.375C200.961 308.375 192.16 303.127 192.16 296.65C192.16 290.173 200.953 284.915 211.815 284.915C222.677 284.915 231.47 290.173 231.47 296.65Z" fill="#F4F5F5"/>
<path d="M301.167 296.65C301.167 303.127 292.357 308.375 281.504 308.375C270.65 308.375 261.849 303.127 261.849 296.65C261.849 290.173 270.65 284.915 281.504 284.915C292.357 284.915 301.167 290.173 301.167 296.65Z" fill="#F4F5F5"/>
<path d="M241.138 305.114L255.443 304.726L261.239 321.773C261.239 321.773 251.33 334.145 235.248 322.032L241.138 305.104V305.114Z" fill="#F4F5F5"/>
<path d="M221.835 296.659C221.835 302.822 217.199 307.812 211.471 307.812C205.744 307.812 201.107 302.813 201.107 296.659C201.107 290.506 205.744 285.507 211.471 285.507C217.199 285.507 221.835 290.496 221.835 296.659Z" fill="#37B34A"/>
<path d="M291.181 296.659C291.181 302.822 286.536 307.812 280.808 307.812C275.081 307.812 270.453 302.813 270.453 296.659C270.453 290.506 275.09 285.507 280.808 285.507C286.527 285.507 291.181 290.496 291.181 296.659Z" fill="#37B34A"/>
<path d="M211.162 285.516C211.162 285.516 201.228 294.294 211.669 307.84C211.669 307.84 222.205 292.049 211.162 285.516Z" fill="#231F20"/>
<path d="M280.353 285.553C280.353 285.553 271.663 294.885 280.997 307.71C280.997 307.71 291.121 293.277 280.353 285.553Z" fill="#231F20"/>
<path d="M291.576 252.418H317.662L304.078 249.729L315.876 237.81L300.858 247.429L309.445 229.355C309.445 229.355 295.139 237.819 291.576 252.427V252.418Z" fill="#37B34A"/>
<path d="M209.359 250.885H183.625L197.569 248.196L189.704 237.422L200.781 244.352L197.209 226.27L209.359 250.885Z" fill="#37B34A"/>
<path d="M247.647 308.865C246.865 312.256 244.023 314.788 240.631 314.788C239.361 314.788 238.176 314.437 237.128 313.817L236.664 315.499C237.858 316.146 239.198 316.525 240.631 316.525C245.44 316.525 249.355 312.367 249.459 307.211L247.647 308.865Z" fill="#37B34A"/>
<path d="M248.849 308.865C249.63 312.256 252.472 314.788 255.864 314.788C257.135 314.788 258.328 314.437 259.359 313.817L259.831 315.499C258.637 316.146 257.289 316.525 255.864 316.525C251.064 316.525 247.14 312.367 247.028 307.211L248.849 308.865Z" fill="#37B34A"/>
<path d="M243.998 302.425L247.93 311.267L253.649 302.425C247.578 297.805 243.998 302.425 243.998 302.425Z" fill="#231F20"/>
<path d="M287.025 272.626C270.015 272.857 255.315 280.092 248.591 280.988C241.868 281.894 230.954 273.31 209.325 272.395C187.695 271.49 173.828 276.017 173.828 276.017C173.201 284.379 174.875 285.959 174.875 285.959C180.122 287.539 179.701 297.712 180.336 301.103C180.963 304.485 182.44 324.73 205.959 326.19C227.794 327.548 233.307 315 237.875 304.263C241.138 296.613 243.336 289.572 243.336 289.572C243.336 289.572 243.963 284.601 248.377 284.601C252.79 284.601 252.79 288.436 252.79 288.436C256.783 305.834 262.862 325.728 289.541 326.624C316.219 327.529 316.846 301.538 317.267 294.534C317.688 287.53 322.299 285.497 322.299 285.497V276.461C322.299 276.461 304.035 272.395 287.025 272.617V272.626ZM209.101 323.03C186.218 322.124 185.583 312.182 184.329 298.396C183.067 284.61 184.329 274.89 208.475 276.47C219.603 277.2 235.995 278.05 237.042 287.549C238.081 297.038 231.993 323.935 209.101 323.03ZM289.962 323.482C271.268 324.157 263.077 311.508 259.934 294.331C256.783 277.154 271.698 276.479 283.247 276.248C300.265 275.916 312.441 275.121 312.441 293.656C312.441 312.191 308.663 322.808 289.97 323.482H289.962Z" fill="#231F20"/>
<path d="M103.855 418.376L76.4984 293.398C73.7679 295.708 72.8491 300.688 72.3854 304.079C71.75 308.745 71.7243 313.448 71.7243 318.142C71.7243 318.53 71.4667 318.927 71.106 319.011C68.3583 319.667 65.705 321.09 63.2493 322.503C62.2446 323.076 56.5088 325.931 56.775 327.53C56.9639 328.666 55.3496 329.156 55.1607 328.01C54.7743 325.7 57.6765 323.806 59.5484 322.66C58.6382 317.394 56.0365 312.737 54.3363 307.729C53.7696 307.886 53.0569 307.424 53.2974 306.648C53.4605 306.112 53.512 305.585 53.6752 305.04C53.9242 304.199 55.0576 304.153 55.2895 305.04C56.8179 310.759 59.9606 315.86 61.0854 321.709C62.5108 320.84 63.9963 319.971 65.5247 319.214C65.1984 316.137 64.5974 313.069 63.8933 310.076C63.3523 307.756 62.9058 304.92 61.592 302.933C60.9652 301.981 62.4249 301.076 63.0432 302.018C64.5544 304.319 65.0954 307.645 65.6793 310.325C66.2717 313.023 66.7869 315.74 67.1132 318.484C68.0835 318.068 69.0624 317.708 70.0499 317.421C70.0499 311.785 70.0584 306.019 71.3121 300.522C72.0935 297.094 73.4416 293.407 76.112 291.54L74.1629 282.642C74.1629 282.642 72.7031 270.113 67.6971 271.268C62.6911 272.414 66.9844 294.34 66.9844 294.34C66.9844 294.34 66.7011 294.22 66.1945 294.054C66.0657 294.238 65.8768 294.395 65.6363 294.506C65.602 294.525 65.5591 294.543 65.5161 294.553C65.207 294.931 64.7777 295.209 64.2195 295.283C64.0221 295.31 63.8246 295.347 63.6271 295.375C58.0286 297.814 52.4215 300.235 46.7801 302.536C46.0159 304.763 45.475 307.47 45.2689 310.778C43.6632 335.873 54.1131 472.596 76.6358 480.385C99.1499 488.174 177.958 434.527 177.958 434.527L181.178 371.354L103.873 418.348L103.855 418.376Z" fill="#FBB616"/>
<path d="M325.098 367.594L293.645 421.841L340.829 465.684L287.188 560.642C286.956 563.193 286.905 565.789 287.377 568.247C287.489 568.829 287.626 569.402 287.789 569.956C287.807 570.002 287.824 570.058 287.849 570.104L305.521 584.564C308.148 585.248 310.81 585.424 313.523 584.555L359.05 514.147C423.381 441.457 364.408 402.225 325.09 367.594H325.098Z" fill="#FBB616"/>
<path d="M325.811 360.682C232.526 426.451 170.333 371.067 170.333 371.067L106.002 412.61L89.9106 357.226L45.9471 379.152C45.9471 379.152 56.6718 472.614 76.6099 480.421C96.548 488.229 161.746 444.922 161.746 444.922L151.022 560.3L284.578 572.386C284.561 572.247 284.543 572.127 284.543 571.989V565.012C284.543 564.338 284.655 563.719 284.835 563.155L226.257 517.113L327.339 489.643L326.369 453.016L333.839 459.909L302.197 526.852L333.324 553.49C333.324 553.49 353.674 538.392 383.693 478.398C413.712 418.403 325.794 360.709 325.794 360.709L325.811 360.682Z" fill="#1A1A1A"/>
<path d="M308.371 200.795L294.495 206.819L325.905 254.211L334.225 226.269L323.252 203.927L308.371 200.795Z" fill="#1A7A1C"/>
<path d="M182.38 204.667L196.488 212.945L169.577 238.577V210.987L182.38 204.667Z" fill="#1A7A1C"/>
<path d="M164.94 210.118C160.089 213.971 156.148 219.173 152.258 224.32C144.315 234.844 137.163 246.597 129.22 257.112C126.301 260.974 122.523 263.672 118.753 266.343C118.212 266.731 117.628 267.119 117.336 267.784C117.122 268.283 117.113 268.856 117.113 269.42C117.096 276.867 130.929 315.61 135.196 319.601C138.657 321.736 142.692 321.449 146.574 320.886C148.531 320.599 150.764 318.64 152.421 317.402C154.722 315.693 156.337 313.004 157.856 310.352C161.712 303.626 165.344 296.64 167.68 289.017C171.784 275.629 171.638 261.205 172.059 247.179C172.265 240.194 172.6 233.19 173.647 226.297C174.188 222.777 174.901 219.293 175.888 215.911C176.635 213.352 178.224 208.353 182.354 204.657C175.674 203.438 167.19 208.298 164.915 210.109L164.94 210.118Z" fill="#37B34A"/>
<path d="M293.405 282.661H271.646C266.235 282.661 261.849 287.381 261.849 293.204V299.894C261.849 305.716 266.235 310.436 271.646 310.436H293.405C298.815 310.436 303.202 305.716 303.202 299.894V293.204C303.202 287.381 298.815 282.661 293.405 282.661Z" fill="#FBB616"/>
<path d="M303.502 291.809C290.768 289.841 282.207 292.862 272.11 301.085L270.65 297.898C274.857 296.854 279.056 296.031 283.427 296.087C287.754 296.225 292.211 297.593 295.551 300.568C289.721 298.055 283.487 298.406 277.485 299.875C275.476 300.328 273.466 300.845 271.474 301.418L270.014 298.23C274.78 294.285 280.069 290.829 286.011 289.545C291.91 288.455 298.084 289.148 303.494 291.799L303.502 291.809Z" fill="#231F20"/>
<path d="M336.492 333.387C336.759 273.993 295.646 240.887 246.453 240.887C173.682 240.887 156.216 322.188 156.216 322.188C150.068 285.7 159.11 227.785 186.433 207.928C199.656 198.328 223.45 192.377 247.982 192.377C264.743 192.377 289.137 196.434 301.158 203.336C343.147 227.424 345.354 290.265 336.484 333.396L336.492 333.387Z" fill="#1A1A1A"/>
<path d="M245.56 399.092C253.872 395.138 284.758 380.871 304.705 371.678C318.169 365.468 328.438 353.429 332.311 338.682C332.336 338.589 332.354 338.506 332.379 338.414C340.88 305.603 324.875 267.747 295.843 252.012C271.758 238.965 243.654 238.485 217.199 244.925C200.506 248.99 183.573 255.809 172.436 269.346C161.188 283.021 157.358 302.064 159.007 319.971C159.299 323.094 159.694 326.3 160.201 329.544C164.279 355.776 181.993 377.517 206.233 386.082L243.053 399.083" stroke="#333333" stroke-width="7" stroke-miterlimit="10" stroke-linecap="round"/>
<path d="M161.343 342.535C161.343 342.535 164.949 365.173 171.337 376.196L217.954 394.195C217.954 394.195 167.121 367.363 161.343 342.544V342.535Z" fill="#1A1A1A"/>
<path d="M244.993 393.585C266.426 392.809 285.754 382.202 304.954 372.98C314.502 368.407 322.136 359.897 327.082 350.075C342.057 319.768 330.224 279.926 305.443 259.949C288.545 246.523 266.889 241.746 246.161 242.319C235.686 242.587 225.244 244.195 215.043 246.828C195.071 251.79 174.068 262.102 165.335 283.307C158.646 298.636 158.535 316.405 161.712 332.778C166.005 354.833 180.104 374.505 199.046 384.253C203.074 386.581 209.522 388.476 213.876 390.111L244.006 400.802L213.669 390.795C209.213 389.307 202.816 387.358 198.643 385.186C184.028 378.044 172.162 365.016 165.232 349.474C160.501 339.107 158.483 327.594 157.771 316.137C156.337 292.51 165.25 269.133 184.707 256.826C193.894 250.746 204.147 246.985 214.477 244.269C245.139 236.147 280.585 237.154 306.869 257.944C332.465 278.66 344.332 319.805 328.515 350.915C323.312 360.978 315.369 369.635 305.469 374.237C286.141 383.043 266.46 393.428 244.993 393.576V393.585Z" fill="white"/>
<path d="M307.95 200.934C319.594 197.099 332.061 202.366 342.168 210.553C352.274 218.748 356.035 223.294 365.481 232.654C367.404 234.558 371.689 238.208 374.909 239.095C376.617 239.566 377.965 241.229 378.326 243.373C380.473 256.17 373.166 292.557 370.693 295.985C365.927 302.573 357.323 304.051 351.235 299.496C347.234 296.502 344.495 291.466 342.134 286.431C335.247 271.739 330.421 255.532 327.931 238.78C326.738 230.742 325.742 219.035 323.887 214.803C318.709 201.424 307.959 200.934 307.959 200.934H307.95Z" fill="#37B34A"/>
<path d="M242.434 217.261C242.391 219.848 242.348 222.454 241.919 225.004C241.267 228.894 239.747 232.544 238.244 236.138C239.73 236.304 241.249 236.138 242.675 235.63C243.078 235.491 243.482 235.316 243.782 234.992C244.152 234.595 244.306 234.031 244.444 233.495C245.483 229.522 246.539 225.531 246.882 221.419C247.191 217.741 247.604 213.99 247.749 210.303C247.998 204.39 249.235 198.365 249.75 192.581C244.839 192.073 241.387 192.609 241.387 192.609C241.121 198.8 242.529 211.061 242.426 217.252L242.434 217.261Z" fill="#F2F2F2"/>
<path d="M303.074 265.576C307.788 265.733 311.239 260.891 309.831 256.04C305.632 241.552 280.577 237.292 274.892 232.876C272.239 230.815 270.118 228.394 267.456 226.334C261.72 221.899 253.589 219.367 245.397 219.201C227.735 219.201 220.299 227.757 220.299 227.757C216.4 231.758 213.481 234.973 208.938 238.567C206.44 240.545 179.589 245.386 182.835 264.125C187.953 274.779 201.958 263.386 213.395 259.006C219.371 255.31 240.683 255.338 245.655 247.715C254.688 256.927 263.455 259.006 275.356 259.006C283.857 259.006 295.243 265.298 303.048 265.566L303.074 265.576Z" fill="#F0F0EF"/>
<path d="M263.515 219.949C263.901 217.547 262.21 215.339 259.943 215.274L245.492 214.904L232.483 215.274C230.345 215.339 228.696 217.316 228.876 219.617L229.125 222.758C229.323 225.225 230.654 227.415 232.672 228.598L243.989 235.232C244.298 235.417 244.624 235.546 244.959 235.639L244.272 246.745C244.204 247.844 243.688 248.861 242.855 249.508L239.344 252.261L243.68 250.847C245.028 250.404 246.479 250.45 247.81 250.968L251.133 252.261L248.265 249.415C247.578 248.731 247.175 247.78 247.149 246.773L246.857 235.648C247.235 235.555 247.604 235.417 247.947 235.214L259.539 228.395C261.377 227.313 262.648 225.392 263 223.174L263.515 219.931V219.949Z" fill="#37B34A"/>
<path d="M231.461 396.127C234.741 397.162 245.457 399.453 245.792 403.639C245.672 406.873 242.091 407.935 240.734 410.412C239.172 412.722 238.442 415.66 238.682 418.478C238.914 421.333 240.357 423.856 241.55 426.498C242.778 429.15 243.465 432.209 243.328 435.202C243.104 441.051 240.176 447.408 235.497 450.116C240.932 445.727 243.534 437.956 242.091 430.934C241.301 426.582 238.339 423.135 238.012 418.543C237.643 413.988 239.824 409.497 243.302 406.993C248.437 402.9 242.847 400.331 239.249 398.834C236.707 397.799 234.097 396.977 231.469 396.21L231.487 396.118L231.461 396.127Z" fill="white"/>
<path d="M266.357 435.238C264.751 432.725 263.051 430.018 262.802 426.867C262.699 423.809 263.317 420.723 262.459 417.738C259.9 407.547 250.635 401.993 245.552 393.447L245.62 393.391C252.696 402.363 264.768 410.374 263.292 423.8C263.051 425.832 263.025 427.865 263.721 429.796C264.356 431.718 265.395 433.455 266.426 435.183L266.357 435.238Z" fill="white"/>
<path d="M300.644 206.016C300.764 208.566 300.618 215.376 297.681 215.976C288.88 217.473 279.065 214.969 272.136 213.999C272.136 213.999 270.882 209.314 271.466 204.509C272.05 199.705 277.717 196.147 288.245 197.626C298.694 199.908 300.652 204.482 300.644 206.025V206.016Z" fill="#E6E6E6"/>
<path d="M295.569 206.875C295.371 208.52 293.019 212.66 289.927 213.639C285.11 215.173 279.065 214.48 274.489 213.39C272.625 212.946 271.269 211.2 271.226 209.148C271.2 207.855 271.251 206.266 271.458 204.51C272.041 199.696 278.284 195.667 285.273 196.647C292.263 197.626 296.135 202.071 295.56 206.885L295.569 206.875Z" fill="#37B34A"/>
<path d="M289.257 204.057C289.111 205.267 287.446 209.148 285.273 209.887C281.1 211.31 274.78 209.813 271.56 209.37C271.56 209.37 271.973 205.979 272.393 202.44C272.823 198.901 277.21 195.907 282.096 196.582C286.982 197.266 289.678 200.518 289.249 204.057H289.257Z" fill="#080000"/>
<path d="M288.726 199.17C288.771 198.349 287.668 197.612 286.262 197.523C284.856 197.433 283.679 198.026 283.634 198.846C283.589 199.666 284.693 200.403 286.099 200.493C287.505 200.582 288.681 199.99 288.726 199.17Z" fill="#F6FAF9"/>
<path d="M271.535 214.212C271.552 211.532 271.312 207.541 271.784 203.937C272.144 200.463 273.905 197.774 277.485 196.804C279.014 196.388 280.723 196.499 282.371 196.647C288.107 197.183 292.34 198.532 297.071 201.452C302.223 204.621 303.477 211.763 303.108 217.233" stroke="#080000" stroke-miterlimit="10"/>
<path d="M194.487 206.016C194.367 208.566 194.513 215.376 197.45 215.976C206.251 217.473 216.065 214.969 222.995 213.999C222.995 213.999 224.248 209.314 223.665 204.51C223.081 199.696 217.414 196.147 206.886 197.626C196.436 199.908 194.479 204.482 194.487 206.025V206.016Z" fill="#E6E6E6"/>
<path d="M199.562 206.875C199.759 208.52 202.112 212.66 205.203 213.639C210.02 215.173 216.065 214.48 220.642 213.39C222.505 212.946 223.862 211.2 223.905 209.148C223.931 207.855 223.879 206.266 223.673 204.51C223.089 199.696 216.847 195.667 209.857 196.647C202.868 197.626 198.995 202.071 199.57 206.885L199.562 206.875Z" fill="#37B34A"/>
<path d="M205.873 204.057C206.019 205.267 207.685 209.148 209.857 209.887C214.03 211.31 220.35 209.813 223.57 209.37L222.737 202.44C222.308 198.901 217.92 195.907 213.034 196.582C208.148 197.256 205.452 200.518 205.882 204.057H205.873Z" fill="#080000"/>
<path d="M209.029 200.497C210.435 200.408 211.538 199.671 211.493 198.85C211.448 198.03 210.272 197.438 208.866 197.527C207.46 197.617 206.357 198.354 206.402 199.174C206.447 199.994 207.623 200.587 209.029 200.497Z" fill="#F6FAF9"/>
<path d="M223.596 214.212C223.578 211.532 223.819 207.541 223.347 203.937C222.986 200.463 221.226 197.774 217.645 196.804C216.117 196.388 214.408 196.499 212.759 196.647C207.024 197.183 202.79 198.532 198.059 201.452C192.907 204.621 191.653 211.763 192.023 217.233" stroke="#080000" stroke-miterlimit="10"/>
</g>
</svg>
