<svg width="146" height="100" viewBox="0 0 146 100" fill="none" xmlns="http://www.w3.org/2000/svg">
<path d="M30.8341 73.5195C29.9729 70.7647 27.0416 69.2297 24.2868 70.0908C21.532 70.952 19.997 73.8833 20.8581 76.6381L26.9014 95.9695C27.7626 98.7243 30.6939 100.259 33.4487 99.3981C36.2034 98.537 37.7385 95.6056 36.8773 92.8509L30.8341 73.5195Z" fill="black"/>
<path d="M31.6875 75.8125C23.6634 79.4133 15.5573 77.6242 11.5975 72.5819C8.68911 68.8737 8.94631 65.2474 9.06219 63.8908C9.62182 57.4437 16.0038 53.4274 22.4254 50.2393L31.6875 75.8125Z" fill="black"/>
<path d="M32.7644 74.3143L36.2691 83.0507C36.7863 84.3368 36.7468 85.781 36.1645 87.0388L34.9633 89.6306L29.8588 74.7185L32.7644 74.3115V74.3143Z" fill="black"/>
<path d="M72.9219 75.9963C72.9219 75.9963 57.7922 72.63 31.6904 75.8097C26.275 76.4683 22.1654 75.5695 19.3051 73.396C15.1107 70.2078 13.6693 64.6907 15.0627 59.5777C16.1056 55.7508 18.7398 52.1528 22.9992 49.9255C36.8288 42.6928 57.7187 26.5569 57.7187 26.5569L72.9247 75.9963H72.9219Z" fill="#6083B3"/>
<path d="M83.9929 44.349C82.1218 38.0207 78.9308 31.7772 74.3153 27.0627C70.4742 23.134 66.2035 20.8588 61.9639 20.4744C60.0448 20.302 58.168 20.5253 56.3846 21.1358C53.5554 22.1052 51.119 23.9678 49.1434 26.6755C45.8252 31.2175 44.46 37.2745 44.2989 42.9443C44.0219 52.9356 47.3712 63.4781 52.8375 70.9397C55.9635 75.2076 59.6604 78.3251 63.5212 79.9475C66.8875 81.3663 70.4403 81.6659 73.8433 80.5015C76.5396 79.58 78.8827 77.8362 80.8103 75.3291C82.5938 73.0087 83.942 70.1286 84.821 66.768C86.5705 60.0722 86.2766 52.1103 83.9957 44.349H83.9929Z" fill="#1A7170"/>
<path d="M73.5578 77.4037C70.7794 78.3562 67.8315 78.1188 64.9514 76.9063C61.5258 75.4648 58.1963 72.6412 55.3727 68.786C53.6486 66.4344 52.1111 63.6985 50.8505 60.6573C47.7443 53.1589 46.495 44.1568 48.2559 36.404C49.6888 30.0757 52.9957 25.2877 57.7526 23.6569C66.3448 20.7118 76.5792 29.1345 81.3304 42.687C81.5847 43.4134 81.825 44.1568 82.0483 44.9142C86.4151 59.7557 82.6136 74.3031 73.5606 77.4037H73.5578Z" fill="#85D7DF"/>
<path d="M35.3109 82.901L33.6094 78.7123C33.5303 78.5201 33.6207 78.2996 33.8129 78.2177L34.4093 77.9605C34.6722 77.8531 34.9718 77.9492 35.1272 78.1866L37.052 81.1798C37.4109 81.7366 37.2838 82.4742 36.7637 82.8812L36.173 83.2063C35.8536 83.3815 35.4494 83.2402 35.3138 82.901H35.3109Z" fill="#1A7170"/>
<mask id="mask0_1069_16899" style="mask-type:luminance" maskUnits="userSpaceOnUse" x="47" y="23" width="37" height="55">
<path d="M73.5578 77.4037C70.7794 78.3562 67.8315 78.1188 64.9514 76.9063C61.5258 75.4648 58.1963 72.6412 55.3727 68.786C53.6486 66.4344 52.1111 63.6985 50.8505 60.6573C47.7443 53.1589 46.495 44.1568 48.2559 36.404C49.6888 30.0757 52.9957 25.2877 57.7526 23.6569C66.3448 20.7118 76.5792 29.1345 81.3304 42.687C81.5847 43.4134 81.825 44.1568 82.0483 44.9142C86.4151 59.7557 82.6136 74.3031 73.5606 77.4037H73.5578Z" fill="white"/>
</mask>
<g mask="url(#mask0_1069_16899)">
<path d="M45.4917 43.9136L63.8633 45.2448L67.4443 57.8958L52.4955 68.6559L45.4917 43.9136Z" fill="#1A7170"/>
<path d="M67.8534 57.7399C69.6666 57.1731 70.2548 53.8934 69.1673 50.4146C68.0797 46.9357 65.7282 44.5751 63.9151 45.1419C62.1019 45.7087 61.5136 48.9884 62.6012 52.4672C63.6887 55.9461 66.0402 58.3067 67.8534 57.7399Z" fill="#FCB716"/>
<path d="M67.425 55.5561C68.3934 55.2533 68.6038 53.1697 67.8949 50.9021C67.186 48.6345 65.8263 47.0417 64.8579 47.3444C63.8895 47.6472 63.6791 49.7308 64.388 51.9984C65.0969 54.266 66.4566 55.8588 67.425 55.5561Z" fill="black"/>
</g>
<path d="M70.0078 39.0184L102.232 10.3333" stroke="black" stroke-width="3" stroke-miterlimit="10" stroke-linecap="round"/>
<path d="M75.3837 45.1349L137.05 34.5952" stroke="black" stroke-width="3" stroke-miterlimit="10" stroke-linecap="round"/>
<path d="M75.3837 52.9695L113.41 67.4237" stroke="black" stroke-width="3" stroke-miterlimit="10" stroke-linecap="round"/>
<path d="M96.5901 29.6829L124.99 15.3728" stroke="black" stroke-width="3" stroke-miterlimit="10" stroke-linecap="round"/>
<path fill-rule="evenodd" clip-rule="evenodd" d="M76.8109 20.6666L86.1776 12.0065L81.3953 10.4831L89.1199 0L77.0059 11.2067L80.8951 13.3123L76.8109 20.6666Z" fill="#6083B3"/>
<path fill-rule="evenodd" clip-rule="evenodd" d="M88.8768 73.2546L94.8434 81.9317L96.6551 78.2037L104.306 85.7558L96.5844 74.5322L94.4024 77.4603L88.8768 73.2546Z" fill="#6083B3"/>
<path fill-rule="evenodd" clip-rule="evenodd" d="M126.666 53.1561L110.442 47.5598L111.68 54.2019L94.3403 51.7118L115.329 58.9417L115.352 52.995L126.666 53.1561Z" fill="#6083B3"/>
</svg>
