<svg width="146" height="100" viewBox="0 0 146 100" fill="none" xmlns="http://www.w3.org/2000/svg">
<path d="M107.072 99.4053C104.301 99.4053 98.2697 95.5029 89.1428 87.809L89.0648 87.7436C89.0311 87.7138 88.9446 87.6365 88.8265 87.5274C87.945 86.7065 87.4916 86.3377 87.2597 86.179C87.1057 86.2584 86.956 86.3297 86.8063 86.3932C85.5051 86.9782 83.8856 87.2895 82.1332 87.2895C80.2858 87.2895 78.3415 86.9385 76.6186 86.296C75.9248 86.6074 75.0581 86.7858 74.2378 86.7858C73.5124 86.7858 72.8586 86.643 72.3483 86.3734C71.6714 86.0164 71.2581 85.4414 71.1864 84.7553C71.1653 84.557 71.1779 84.3607 71.2222 84.1703C70.579 83.9086 70.0539 83.4128 69.7903 82.7942C69.5225 82.1656 69.5457 81.4973 69.8452 80.9064C69.6469 80.7299 69.4803 80.5276 69.3517 80.3115C68.9974 79.7107 68.9426 79.0464 69.1957 78.4416C69.242 78.3325 69.2969 78.2235 69.3644 78.1164C69.0269 77.8189 68.7908 77.4521 68.6811 77.0436C68.4976 76.3496 68.698 75.6337 69.2231 75.0349C68.6642 74.4321 68.6474 73.8709 68.7317 73.506C68.9194 72.695 69.8051 71.9613 71.3593 71.3228C73.215 70.5614 75.3154 70.1588 77.4284 70.1588C79.9379 70.1588 82.2555 70.7259 84.1281 71.7987C86.0534 72.9012 87.7088 74.4003 88.9172 76.1334C88.9615 76.1929 89.0079 76.2623 89.0543 76.3317L89.1449 76.4666C89.1955 76.5439 89.244 76.6193 89.2904 76.6966C89.2904 76.6966 89.3537 76.7957 89.3706 76.8255L89.6848 77.343L89.6764 77.347C95.2352 79.673 99.0879 81.0611 102.814 82.4015C105.478 83.3593 107.991 84.2655 110.979 85.4572C113.436 86.4388 112.783 89.0444 112.304 90.946L112.287 91.0154C111.871 92.6653 111.304 94.2952 110.596 95.8578C110.537 95.9887 110.475 96.1275 110.414 96.2722C109.889 97.4898 109.096 99.3299 107.198 99.4013C107.158 99.4013 107.116 99.4033 107.072 99.4033V99.4053Z" fill="#FCB716"/>
<path d="M77.4262 70.7516C79.6847 70.7516 81.9369 71.2394 83.7969 72.3042C85.6273 73.3512 87.2131 74.775 88.3856 76.4565C88.4405 76.5339 88.4932 76.6132 88.5459 76.6905C88.5649 76.7183 88.5839 76.748 88.6028 76.7758C88.6492 76.8472 88.6935 76.9166 88.7378 76.988C88.7652 77.0316 88.7926 77.0732 88.82 77.1169H88.8137C88.9381 77.335 89.0541 77.5531 89.1574 77.7792C89.2882 77.8307 89.3725 77.8664 89.3789 77.8704C98.9402 81.8739 103.552 83.1351 110.731 86.0024C112.721 86.7976 112.135 89.0205 111.669 90.8785C111.262 92.5006 110.705 94.0909 110.011 95.6237C109.469 96.8194 108.847 98.7429 107.171 98.8043C107.137 98.8043 107.103 98.8063 107.07 98.8063C103.097 98.8063 92.036 89.4468 89.4843 87.2953C89.303 87.1426 87.6244 85.5067 87.2427 85.5067C87.2258 85.5067 87.211 85.5107 87.2005 85.5166C86.9896 85.6376 86.7724 85.7486 86.5446 85.8458C85.2709 86.4169 83.7357 86.6885 82.1309 86.6885C80.2667 86.6885 78.314 86.3217 76.5805 85.6336C76.5089 85.6713 76.4393 85.709 76.3612 85.7447C75.7813 86.0084 74.9968 86.1849 74.2356 86.1849C73.6641 86.1849 73.1031 86.0857 72.654 85.8498C72.1563 85.588 71.8653 85.1874 71.8125 84.6917C71.7767 84.3586 71.88 84.0453 72.1057 83.7696C72.034 83.7617 71.9517 83.7538 71.8906 83.7419C71.2136 83.6189 70.6316 83.1688 70.3764 82.568C70.1339 82.0009 70.2099 81.3881 70.5852 80.8904C70.619 80.8468 70.6569 80.8051 70.697 80.7635C70.3743 80.583 70.0897 80.3312 69.9062 80.0179C69.6468 79.5757 69.6025 79.0919 69.786 78.6536C69.8872 78.4097 70.0517 78.1876 70.2563 77.9814C69.7649 77.7375 69.4212 77.3647 69.2967 76.8928C69.1175 76.2146 69.4486 75.5226 70.1508 75.009C69.9927 74.9059 69.8471 74.7909 69.7185 74.656C68.4785 73.3512 70.4882 72.3241 71.6143 71.862C73.3731 71.1403 75.4038 70.7476 77.4304 70.7476M77.4262 69.5618C75.2246 69.5618 73.0399 69.9822 71.104 70.7754C69.3284 71.5031 68.3499 72.3538 68.1116 73.375C68.0146 73.7934 68.0104 74.3923 68.4385 75.0367C68.0083 75.6971 67.8691 76.4466 68.0652 77.1843C68.1664 77.563 68.3499 77.912 68.6072 78.2174C68.6072 78.2174 68.6072 78.2194 68.6072 78.2214C68.2845 78.9947 68.352 79.8375 68.7991 80.5969C68.8897 80.7516 68.9952 80.8983 69.1154 81.0371C68.9045 81.6757 68.9298 82.3717 69.204 83.0141C69.4697 83.6348 69.9484 84.1563 70.5452 84.5033C70.543 84.6064 70.5452 84.7096 70.5578 84.8127C70.6527 85.699 71.1799 86.4367 72.0403 86.8908C72.6476 87.2101 73.4068 87.3786 74.2398 87.3786C75.0728 87.3786 75.9099 87.22 76.6375 86.9384C78.3688 87.5491 80.2984 87.8823 82.1351 87.8823C83.9719 87.8823 85.6864 87.5531 87.0803 86.9285C87.114 86.9146 87.1499 86.8987 87.1836 86.8829C87.4303 87.0831 87.8078 87.4123 88.3835 87.9497C88.529 88.0845 88.5902 88.142 88.6429 88.1857L88.723 88.2531C90.0284 89.3536 93.4974 92.2785 97.0823 94.8821C100.106 97.0792 104.434 100 107.074 100C107.127 100 107.179 100 107.232 99.9961C109.531 99.9108 110.452 97.7732 111.003 96.4982C111.064 96.3574 111.123 96.2206 111.18 96.0937C111.901 94.4994 112.483 92.8377 112.905 91.1541L112.922 91.0847C113.168 90.1032 113.447 88.9907 113.385 87.9457C113.278 86.1056 112.152 85.2787 111.228 84.9098C108.229 83.7121 105.709 82.8059 103.042 81.8462C99.3683 80.5236 95.5724 79.1573 90.1359 76.8868L89.9208 76.5299C89.8998 76.4962 89.8787 76.4625 89.8576 76.4288L89.8344 76.3911C89.7859 76.3118 89.7353 76.2344 89.6846 76.1551C89.6678 76.1313 89.653 76.1075 89.6383 76.0857L89.6193 76.058L89.5898 76.0124C89.5413 75.939 89.4928 75.8656 89.44 75.7942C88.1811 73.9897 86.4582 72.4311 84.4569 71.285C82.4831 70.1547 80.0516 69.5579 77.4283 69.5579L77.4262 69.5618Z" fill="#1A7170"/>
<path d="M111.671 90.8803C111.264 92.5024 110.707 94.0927 110.013 95.6255C109.471 96.8212 108.849 98.7447 107.173 98.8062C103.29 98.9688 92.061 89.4665 89.4883 87.2972C89.3006 87.1385 87.4765 85.3618 87.2023 85.5185C86.9915 85.6394 86.7743 85.7505 86.5465 85.8476C82.2488 87.777 74.9565 86.2898 72.2425 82.4945C69.9502 79.286 70.4205 74.3624 74.5664 72.6789C79.5305 70.6682 86.9809 72.9406 89.1593 77.781C89.2901 77.8326 89.3744 77.8682 89.3807 77.8722C98.942 81.8758 103.554 83.1369 110.732 86.0043C112.723 86.7994 112.137 89.0223 111.671 90.8803Z" fill="#FCB716"/>
<path d="M78.8238 96.984C77.2675 96.984 75.9537 95.8874 75.766 94.4339L72.8285 71.9711L66.4894 72.7028L66.4557 72.7107H66.4135L65.9411 72.7663C65.901 72.7702 65.8673 72.7722 65.8336 72.7722C65.3928 72.7722 65.0217 72.4629 64.9689 72.0524L64.1465 65.7625L63.3768 59.889V59.8731L63.322 59.4528C63.2903 59.2168 63.3705 58.9808 63.5371 58.8043C64.4101 57.8882 66.1773 56.3038 68.8407 55.1518C67.335 54.2317 66.1478 52.8198 65.513 51.17C65.4371 51.1621 65.3612 51.1541 65.2853 51.1462C64.2899 51.0371 63.575 50.1865 63.691 49.2485C63.7796 48.5426 64.3173 47.9794 65.0132 47.799C65.125 46.2919 65.6712 44.8722 66.6096 43.6645C67.8939 42.0147 69.7538 40.9717 71.85 40.7298C72.1558 40.6941 72.4447 40.6782 72.7336 40.6782C72.839 40.6782 72.9423 40.6802 73.0478 40.6862C76.3164 40.7992 79.2287 42.9705 80.3042 46.0342C81.038 46.052 81.7023 46.4902 81.9617 47.1387C82.316 48.0211 81.8415 49.0086 80.9031 49.3417C80.8335 49.3655 80.766 49.3893 80.6964 49.4131C80.5108 51.1561 79.7179 52.798 78.4843 54.0373C81.3839 54.5509 83.518 55.701 84.5724 56.3732C84.7812 56.5061 84.9182 56.7183 84.9499 56.9523L85.6289 62.1496L86.5399 69.1137V69.1295L86.5947 69.5559C86.6221 69.77 86.5568 69.9921 86.4155 70.1627C86.2742 70.3332 86.0675 70.4442 85.8356 70.47L78.944 71.2652L81.8773 93.732C81.9786 94.4954 81.755 95.2549 81.2468 95.8656C80.7449 96.4764 80.0153 96.867 79.1949 96.9622H79.1717C79.0473 96.9741 78.9377 96.984 78.8154 96.984H78.8238Z" fill="#6083B3"/>
<path d="M72.7401 41.273C72.835 41.273 72.9299 41.275 73.0227 41.279C76.2365 41.39 79.0223 43.6545 79.8594 46.6964C79.9902 46.6508 80.1273 46.627 80.2665 46.627C80.7578 46.627 81.2028 46.9165 81.3757 47.3468C81.6055 47.9218 81.2977 48.5663 80.6861 48.7824C80.4921 48.8518 80.2981 48.9153 80.1041 48.9807C79.986 51.2096 78.8325 53.2123 77.0632 54.4418C77.2698 54.4616 77.4765 54.4854 77.6811 54.5132C80.8232 54.9335 83.1302 56.1669 84.2268 56.8649C84.2837 56.9006 84.3217 56.9601 84.3301 57.0236L85.0091 62.2189L85.9159 69.1394C85.9159 69.1394 85.9159 69.1533 85.9159 69.1592L85.9771 69.6232C85.9855 69.6827 85.9665 69.7422 85.9286 69.7898C85.8885 69.8374 85.8316 69.8671 85.7683 69.875L78.2483 70.7436L81.2597 93.8013C81.3398 94.412 81.1606 95.0129 80.7599 95.4967C80.3592 95.9845 79.7772 96.2938 79.1277 96.3692C79.0244 96.3771 78.9253 96.3871 78.8261 96.3871C77.5904 96.3871 76.5444 95.5145 76.3968 94.3605L73.3812 71.3067L70.4099 71.6498L66.3779 72.1158C66.3779 72.1158 66.3758 72.1158 66.3737 72.1158L65.8696 72.1733C65.8696 72.1733 65.8507 72.1733 65.8401 72.1733C65.7199 72.1733 65.6166 72.09 65.6018 71.975L65.3298 69.8869L64.7815 65.6851L64.0181 59.8532C64.0181 59.8532 64.0181 59.8413 64.0181 59.8354L63.957 59.3734C63.9485 59.3079 63.9696 59.2445 64.016 59.1949C64.9101 58.257 67.0421 56.3315 70.3361 55.2131C68.2652 54.4061 66.6668 52.6888 65.9899 50.6087C65.7811 50.5889 65.5723 50.5711 65.3656 50.5492C64.7161 50.4779 64.2501 49.9226 64.326 49.3119C64.3956 48.7507 64.9038 48.3264 65.5048 48.3264C65.547 48.3264 65.5892 48.3283 65.6335 48.3343C65.6419 46.7678 66.1564 45.2607 67.1286 44.0115C68.3074 42.4945 70.0156 41.5387 71.9346 41.3166C72.215 41.2849 72.4786 41.2691 72.7422 41.2691M78.0079 70.7733L78.0606 70.7674H78.0585L78.01 70.7733M72.7401 40.0833C72.4259 40.0833 72.1117 40.1011 71.7785 40.1408C69.5073 40.4025 67.4934 41.5308 66.1037 43.3155C65.1737 44.5112 64.6002 45.9012 64.423 47.3785C63.6955 47.7136 63.1662 48.3779 63.067 49.179C62.9152 50.3946 63.8009 51.5011 65.062 51.7152C65.6314 53.018 66.5255 54.1681 67.641 55.0505C65.3931 56.1868 63.8705 57.5669 63.0692 58.4077C62.7803 58.7111 62.6432 59.1195 62.6959 59.5241L62.7507 59.9365C62.7507 59.9603 62.7549 59.9841 62.7571 60.0079L63.5204 65.8338L64.0603 69.9623V70.1249L64.0898 70.1943L64.3408 72.1217C64.4336 72.8296 65.0746 73.365 65.8338 73.365C65.8886 73.365 65.9435 73.3631 66.0004 73.3571H66.0088L66.0173 73.3551L66.4496 73.3055H66.4854L66.5592 73.2936L70.5596 72.8316L72.2762 72.6333L75.1378 94.5072C75.3635 96.2562 76.9472 97.5788 78.824 97.5788C78.9738 97.5788 79.1066 97.5689 79.2226 97.559H79.2352L79.2584 97.557H79.2816C80.2707 97.438 81.15 96.9681 81.7574 96.2284C82.3668 95.4947 82.6346 94.5806 82.5123 93.6565L79.657 71.7826L85.9202 71.0589C86.3208 71.0133 86.6772 70.8229 86.9239 70.5235C87.1665 70.232 87.2803 69.8493 87.2297 69.4785L87.177 69.068C87.177 69.0462 87.1728 69.0263 87.1707 69.0065L86.2639 62.0781L85.5848 56.8828C85.5321 56.4783 85.2959 56.1134 84.9375 55.8854C83.9695 55.2687 82.1306 54.2673 79.6465 53.6724C80.5111 52.5639 81.0762 51.2512 81.2871 49.8413C82.447 49.3416 83.0163 48.0706 82.5587 46.9323C82.2614 46.1927 81.5781 45.6553 80.7747 45.4927C79.522 42.3874 76.4811 40.2141 73.0754 40.0951C72.9616 40.0892 72.8498 40.0872 72.738 40.0872L72.7401 40.0833Z" fill="#1A7170"/>
<path d="M85.9139 69.1614C85.9139 69.1614 85.9139 69.1476 85.9139 69.1416L85.0071 62.2211L84.3281 57.0258C84.3196 56.9604 84.2817 56.9029 84.2247 56.8672C83.1282 56.1692 80.8211 54.9358 77.679 54.5154C76.9641 54.4182 76.2345 54.3687 75.5091 54.3687C74.8975 54.3687 74.2775 54.4043 73.666 54.4737C68.4488 55.0706 65.1738 57.9796 64.0076 59.2031C63.9612 59.2507 63.9402 59.3161 63.9486 59.3815L64.0097 59.8436C64.0097 59.8436 64.0097 59.8555 64.0097 59.8614L64.8469 66.2624L65.5935 71.9812C65.6082 72.0962 65.7116 72.1795 65.8318 72.1795C65.8423 72.1795 65.8507 72.1795 65.8613 72.1795L66.3653 72.122C66.3653 72.122 66.3674 72.122 66.3695 72.122L70.4015 71.656L77.3226 70.8569L78.0017 70.7795L78.0502 70.7736L85.7599 69.8832C85.8232 69.8753 85.8801 69.8456 85.9202 69.798C85.9603 69.7504 85.9771 69.6909 85.9687 69.6314L85.9076 69.1674L85.9139 69.1614Z" fill="#6083B3"/>
<path d="M65.5618 70.0895C65.4416 70.0895 65.3382 70.0062 65.3235 69.8912L64.2227 61.4677C64.2142 61.4082 64.2332 61.3487 64.2712 61.3011C64.3113 61.2535 64.3682 61.2238 64.4315 61.2158L84.3343 58.9176C84.3343 58.9176 84.3533 58.9176 84.3639 58.9176C84.4841 58.9176 84.5874 59.0009 84.6022 59.1159L85.703 67.5395C85.7114 67.5989 85.6924 67.6584 85.6545 67.706C85.6144 67.7536 85.5574 67.7834 85.4942 67.7913L65.5913 70.0895C65.5913 70.0895 65.5723 70.0895 65.5618 70.0895Z" fill="#6083B3"/>
<path d="M81.2576 93.8037L78.2463 70.746L78.008 70.7757L73.6174 71.2794L73.3792 71.3091L76.3947 94.3629C76.5445 95.515 77.5883 96.3894 78.8241 96.3894C78.9232 96.3894 79.0223 96.3815 79.1256 96.3716C79.7752 96.2962 80.3572 95.9849 80.7579 95.4991C81.1585 95.0153 81.3399 94.4144 81.2576 93.8037Z" fill="#6083B3"/>
<path d="M80.0535 47.6663C79.5938 44.1486 76.5697 41.4022 73.0227 41.2793C72.9278 41.2753 72.8329 41.2733 72.7401 41.2733C72.4765 41.2733 72.2129 41.2892 71.9325 41.3209C70.0135 41.543 68.3053 42.5008 67.1265 44.0157C65.9498 45.5267 65.4416 47.4125 65.6904 49.3241C66.0489 52.0625 67.9742 54.4163 70.5997 55.3225C71.3652 55.5862 72.1602 55.7191 72.9658 55.7191C73.2441 55.7191 73.5288 55.7032 73.8072 55.6715C77.7696 55.2134 80.5722 51.6223 80.0556 47.6663H80.0535Z" fill="white"/>
<path d="M69.1595 50.7637C67.8942 50.7637 66.6163 50.6943 65.3637 50.5555C64.7141 50.4842 64.2481 49.9289 64.324 49.3182C64.3936 48.757 64.9018 48.3327 65.5028 48.3327C65.5492 48.3327 65.5935 48.3346 65.6399 48.3406C66.8019 48.4695 67.987 48.5329 69.1595 48.5329C70.332 48.5329 71.631 48.4615 72.8499 48.3208C75.2582 48.0412 77.6032 47.4959 79.849 46.6987C79.984 46.6511 80.1232 46.6273 80.2666 46.6273C80.7579 46.6273 81.2029 46.9168 81.3758 47.3471C81.6057 47.9222 81.2978 48.5666 80.6862 48.7828C78.2632 49.6434 75.7326 50.2303 73.1641 50.5298C71.8229 50.6844 70.4838 50.7618 69.1574 50.7618L69.1595 50.7637Z" fill="#1A7170"/>
<path d="M83.7986 72.3062C80.2663 70.2836 75.3275 70.3431 71.6097 71.866C70.4836 72.328 68.476 73.3552 69.7139 74.66C69.8425 74.7948 69.988 74.9118 70.1462 75.0129C69.444 75.5265 69.1108 76.2186 69.29 76.8967C69.4144 77.3687 69.7603 77.7395 70.2495 77.9854C70.045 78.1916 69.8805 78.4137 69.7793 78.6576C69.5958 79.0958 69.6401 79.5796 69.8995 80.0218C70.0829 80.3351 70.3676 80.587 70.6903 80.7674C70.6523 80.8091 70.6122 80.8507 70.5785 80.8943C70.2031 81.3921 70.1272 82.0048 70.3697 82.5719C70.627 83.1727 71.2069 83.6209 71.8838 83.7458C71.9471 83.7577 72.0272 83.7637 72.0989 83.7736C71.8754 84.0512 71.7721 84.3625 71.8058 84.6957C71.8585 85.1914 72.1495 85.5919 72.6472 85.8537C73.6953 86.4049 75.3402 86.2126 76.3545 85.7506C77.1643 85.3818 77.6156 84.8464 77.624 84.2435C77.6303 83.7696 77.3836 83.3572 76.9281 83.0855C76.8669 83.0498 76.7952 83.024 76.7299 82.9943C77.7547 82.4113 77.9024 81.6816 77.8243 81.1482C77.7294 80.4958 77.3161 80.0516 76.5991 79.8176C76.7067 79.7304 76.8037 79.6391 76.888 79.5459C77.1917 79.1989 77.3161 78.6953 77.2128 78.2312C77.1137 77.789 76.8205 77.4321 76.3882 77.2259C76.1774 77.1248 75.9348 77.0474 75.6818 76.982C76.1078 76.52 76.2786 75.9866 76.1246 75.471C76.0993 75.3818 76.0614 75.2945 76.0129 75.2092C76.8691 75.0466 76.9871 75.0387 77.0694 75.3024C77.6683 77.2358 80.4856 80.0853 82.6029 80.4601L88.8133 77.1267C87.6155 75.1557 85.8589 73.494 83.7922 72.3122L83.7986 72.3062Z" fill="#FCB716"/>
<path d="M89.6633 76.9622C88.398 74.9197 86.5381 73.1747 84.2901 71.9116C80.7431 69.9167 75.4985 69.7304 71.2366 71.4436C69.733 72.0524 68.8853 72.7167 68.7145 73.4285C68.6111 73.8569 68.7608 74.2852 69.1594 74.6917C69.2248 74.7611 69.2923 74.8226 69.3682 74.8801C68.7039 75.4531 68.415 76.1868 68.6132 76.9126C68.7271 77.329 68.9781 77.678 69.3576 77.9655L69.4525 78.0349L69.3808 78.1261C69.2902 78.257 69.21 78.4057 69.1383 78.5644C68.9148 79.0899 68.9633 79.6709 69.2796 80.2003C69.4209 80.4402 69.617 80.6544 69.8574 80.8388L69.9418 80.9043L69.8848 80.9955C69.5432 81.5507 69.4968 82.1932 69.7625 82.798C70.024 83.4067 70.5786 83.8906 71.2513 84.0928L71.38 84.1365L71.3378 84.2554C71.2577 84.4656 71.2281 84.6838 71.2535 84.9197C71.3252 85.5146 71.6942 86.0123 72.291 86.3197C73.4804 86.9364 75.3298 86.7262 76.4643 86.2225C77.4259 85.7942 77.9637 85.1557 77.9679 84.426C77.9721 83.9501 77.7739 83.5297 77.3943 83.2144L77.2804 83.1172L77.3943 83.03C78.1724 82.3994 78.2484 81.6836 78.1724 81.1898C78.0881 80.591 77.7697 80.1369 77.234 79.8394L77.1054 79.77L77.1961 79.661C77.5229 79.2445 77.6516 78.6893 77.5335 78.1658C77.4112 77.6284 77.0442 77.1902 76.5086 76.9423C76.4285 76.9027 76.3483 76.869 76.2619 76.8372L76.1206 76.7857L76.1923 76.6627C76.4538 76.2205 76.5149 75.7486 76.3821 75.2985C76.3778 75.2905 76.3778 75.2767 76.3736 75.2687C76.6161 75.2251 76.7806 75.1993 76.8249 75.2033C76.8249 75.2073 76.8333 75.2211 76.8481 75.2648C77.4976 77.3151 80.5322 80.3411 82.8645 80.7476C82.8793 80.7516 82.8983 80.7516 82.9109 80.7516C83.029 80.7516 83.1345 80.6723 83.1576 80.5632C83.1851 80.4363 83.0965 80.3133 82.9594 80.2915C80.8211 79.9148 77.9278 77.0197 77.331 75.1319C77.1982 74.7036 76.9325 74.6937 76.1501 74.8305C76.0362 74.8523 75.9139 74.8741 75.7811 74.8999C75.6967 74.9177 75.606 74.9296 75.5111 74.9515C75.3129 74.9871 75.0894 75.0248 74.8321 75.0744C73.377 75.3282 71.5403 75.4631 70.3087 74.9078C70.1105 74.8206 69.9291 74.7155 69.7689 74.5886C69.6887 74.5271 69.6086 74.4577 69.5369 74.3823C69.2522 74.0889 69.1425 73.8093 69.21 73.5257C69.3387 72.9883 70.1295 72.3974 71.4432 71.8719C75.5596 70.2142 80.6186 70.3946 84.0328 72.3102C86.2091 73.5297 88.0016 75.2191 89.2247 77.1942C89.2964 77.3032 89.4482 77.3429 89.5705 77.2814C89.6886 77.216 89.7308 77.0752 89.6654 76.9622H89.6633ZM77.3774 84.422C77.3732 84.9336 76.9557 85.4016 76.2112 85.7347C75.6334 85.9925 74.8447 86.1591 74.1003 86.1591C73.5415 86.1591 72.9995 86.0678 72.582 85.8477C72.1455 85.6257 71.8903 85.2846 71.846 84.8642C71.8418 84.8285 71.8418 84.7948 71.8418 84.7591C71.8418 84.5965 71.884 84.4398 71.9641 84.305C72.116 84.0036 72.4534 83.7319 72.9257 83.5178C72.9679 83.496 73.0164 83.4781 73.0628 83.4662C73.7418 83.1866 74.6275 83.0558 75.4289 83.1113C75.9983 83.141 76.4812 83.2739 76.8228 83.488C77.1876 83.7101 77.3816 84.0353 77.3732 84.424L77.3774 84.422ZM77.5904 81.2691C77.6811 81.8561 77.4006 82.3796 76.7785 82.7821L76.7216 82.8218L76.6499 82.796C75.4162 82.3419 73.6807 82.5739 72.6706 83.024C72.31 83.1866 72.0105 83.379 71.7849 83.6011L71.7322 83.6526L71.6562 83.6387C71.0784 83.5257 70.5892 83.1628 70.3467 82.6671C70.1189 82.2209 70.1379 81.7133 70.3888 81.2889C70.412 81.2374 70.4542 81.1799 70.4985 81.1263C70.6398 80.93 70.8675 80.7496 71.167 80.6009C71.2049 80.5751 71.2577 80.5533 71.3083 80.5275C72.0147 80.2162 72.9152 80.1031 73.5752 80.0238L73.628 80.0159C74.0835 79.9584 74.7604 79.893 75.4394 79.9326H75.4774C75.9751 79.9584 76.3926 80.0516 76.73 80.2003C77.2235 80.4184 77.5124 80.7773 77.5883 81.2671L77.5904 81.2691ZM76.2408 77.4262C76.6161 77.6007 76.8671 77.9021 76.9578 78.2749C77.0421 78.6675 76.9346 79.1057 76.6773 79.3952C76.6393 79.4428 76.5972 79.4785 76.555 79.5142L76.5023 79.5499L76.4369 79.536C75.6819 79.3516 74.7119 79.3357 73.5394 79.4785C72.8751 79.5618 71.8692 79.6847 71.0594 80.0476C70.8127 80.1567 70.5997 80.2836 70.4142 80.4284L70.3298 80.4978L70.2391 80.4284C69.6697 79.9782 69.4568 79.3258 69.6929 78.7666C69.7541 78.6259 69.83 78.4989 69.9165 78.3899C70.0957 78.1499 70.353 77.9298 70.6841 77.7296C70.8254 77.6502 70.9582 77.5808 71.0869 77.5233C72.0674 77.0811 73.4571 76.8987 74.7056 77.0335C75.1273 77.0811 75.5027 77.1565 75.8106 77.2655C75.9772 77.3171 76.1185 77.3706 76.2429 77.4282L76.2408 77.4262ZM74.927 75.5285C75.2581 75.471 75.5428 75.4194 75.7811 75.3758C75.9287 75.7426 75.857 76.1591 75.5765 76.5477L75.5238 76.6171L75.4331 76.5993C73.9337 76.28 72.1286 76.4506 70.8296 77.0276C70.4922 77.1763 70.1948 77.3607 69.9439 77.561L69.8638 77.6264L69.7731 77.565C69.3281 77.2497 69.1004 76.8035 69.151 76.3316C69.1974 75.9211 69.4441 75.5305 69.8574 75.2112C71.2281 75.9449 73.299 75.814 74.927 75.5265V75.5285Z" fill="#1A7170"/>
<path d="M58.3094 41.9375C58.1386 41.9375 57.9699 41.9038 57.8096 41.8364C54.6105 40.49 52.2866 38.5566 50.9012 36.0859C50.8716 36.0323 50.8147 35.9966 50.7599 35.9966C50.7451 35.9966 50.7303 35.9986 50.7156 36.0046C48.6468 36.7343 46.5444 37.1051 44.463 37.1051C42.5651 37.1051 40.7262 36.7938 39.0012 36.1771C34.4377 34.5491 31.7005 30.7993 31.6752 26.1453C31.6478 20.7478 35.4795 13.8848 44.1024 10.716C46.3398 9.89905 48.5414 9.48462 50.646 9.48462C54.9184 9.48462 58.689 11.2356 60.9939 14.2913C63.3157 17.3688 63.8492 21.2732 62.4595 25.0012C61.5232 27.5156 59.8678 29.8891 57.6767 31.8661C57.6472 31.8939 57.6282 31.9296 57.624 31.9613C57.3562 35.7269 58.6257 38.7866 59.4081 40.2758C59.5958 40.6327 59.5747 41.0492 59.3511 41.3863C59.1276 41.7254 58.7269 41.9355 58.3094 41.9355V41.9375Z" fill="#1A7170"/>
<path d="M50.6461 10.0794C59.4082 10.0794 64.5558 17.577 61.8628 24.8048C60.9307 27.3073 59.3027 29.5778 57.2382 31.4378C57.0969 31.5647 57.0062 31.7392 56.9936 31.9236C56.7216 35.7487 57.9636 38.8659 58.8409 40.5415C59.0455 40.9301 58.7165 41.3446 58.3095 41.3446C58.2315 41.3446 58.1492 41.3287 58.067 41.295C54.4272 39.7642 52.4913 37.6484 51.4601 35.8102C51.3188 35.5583 51.0447 35.4037 50.7579 35.4037C50.6693 35.4037 50.5807 35.4175 50.4922 35.4493C48.5521 36.1334 46.5086 36.5121 44.4631 36.5121C42.6959 36.5121 40.9287 36.2306 39.2248 35.6238C28.2696 31.7174 30.5851 16.3218 44.3323 11.2732C46.5845 10.4522 48.7039 10.0834 50.6461 10.0834M50.6461 8.88968C48.4635 8.88968 46.186 9.318 43.8747 10.1607C39.9144 11.6162 36.6057 13.9819 34.3071 17.0039C32.1856 19.7919 31.0258 23.04 31.0427 26.1473C31.068 31.057 33.9591 35.015 38.7778 36.7322C40.5766 37.3727 42.4892 37.6979 44.4652 37.6979C46.4411 37.6979 48.5289 37.3608 50.5385 36.6965C52.0084 39.1276 54.366 41.0372 57.5524 42.3777C57.7949 42.4788 58.0501 42.5304 58.3116 42.5304C58.9463 42.5304 59.5516 42.2111 59.889 41.6995C60.2285 41.1859 60.2601 40.5554 59.9754 40.012C59.2353 38.6002 58.0396 35.7229 58.2441 32.1754C60.4436 30.1588 62.1053 27.7475 63.0564 25.1955C64.5157 21.2831 63.9505 17.1824 61.5107 13.9442C59.0876 10.7299 55.1273 8.8877 50.6461 8.8877V8.88968Z" fill="white"/>
<path d="M41.3822 24.4105C40.4838 24.8032 40.0916 25.8065 40.5091 26.6513C40.9267 27.496 41.9937 27.8648 42.8921 27.4722C43.7904 27.0796 44.1827 26.0762 43.7651 25.2315C43.3476 24.3867 42.2805 24.0179 41.3822 24.4105Z" fill="#94FFD8"/>
<path d="M46.7071 22.0866C45.8088 22.4792 45.4165 23.4826 45.8341 24.3273C46.2516 25.172 47.3187 25.5409 48.217 25.1482C49.1154 24.7556 49.5076 23.7522 49.0901 22.9075C48.6725 22.0628 47.6055 21.6939 46.7071 22.0866Z" fill="#94FFD8"/>
<path d="M52.0296 19.7645C51.1313 20.1572 50.7391 21.1605 51.1566 22.0053C51.5741 22.85 52.6412 23.2188 53.5395 22.8262C54.4379 22.4336 54.8301 21.4302 54.4126 20.5855C53.995 19.7407 52.928 19.3719 52.0296 19.7645Z" fill="#94FFD8"/>
<path d="M109.819 61.059C109.322 61.059 108.814 61.0392 108.31 60.9995C108.099 60.9837 107.884 60.9658 107.671 60.944C107.464 60.9222 107.259 60.8984 107.053 60.8746C106.842 60.8488 106.633 60.8191 106.429 60.7874C106.245 60.7596 106.057 60.7298 105.874 60.6961C105.857 60.6942 105.798 60.6823 105.798 60.6823C105.005 60.5415 104.233 60.3531 103.502 60.1231C103.331 60.0675 103.166 60.014 103.004 59.9565C102.981 59.9486 102.957 59.9406 102.934 59.9327L102.898 59.9208C102.734 59.8633 102.572 59.8018 102.413 59.7384C102.283 59.6888 102.135 59.6273 101.989 59.5639C101.89 59.5222 101.795 59.4806 101.705 59.439H101.696L101.528 59.3576C101.416 59.3041 101.304 59.2506 101.192 59.1931C101.129 59.1633 101.051 59.1237 100.973 59.08C100.922 59.0562 100.872 59.0265 100.821 58.9968C100.697 58.9313 100.574 58.8599 100.452 58.7885C100.416 58.7687 100.389 58.7509 100.357 58.731C100.286 58.6874 100.214 58.6458 100.146 58.6041C100.098 58.5764 100.039 58.5367 99.9798 58.4951L99.9313 58.4633L99.906 58.4495L99.8491 58.4098C99.7478 58.3384 99.6466 58.271 99.5475 58.1956C99.3282 58.039 99.1025 57.8625 98.8896 57.6821C98.7757 57.5849 98.6681 57.4897 98.5648 57.3925C98.5058 57.339 98.4277 57.2696 98.3602 57.1982C98.3075 57.1427 98.2527 57.0892 98.1979 57.0356C96.9199 55.7189 96.0553 54.1128 95.6167 52.2528C95.5893 52.1377 95.5682 52.0287 95.545 51.9196C95.5302 51.8601 95.5197 51.8006 95.507 51.7372C95.4817 51.6023 95.4585 51.4596 95.4353 51.3128L95.3953 51.0114C95.3805 50.9043 95.3721 50.8012 95.3615 50.6961C95.3088 50.1528 95.3025 49.7205 95.3004 49.4429C95.2814 49.4429 95.2582 49.4429 95.2329 49.4429C94.3008 49.4429 92.4176 50.25 91.7998 50.5157L91.6121 50.595C91.4855 50.6505 91.34 50.6803 91.1903 50.6803C90.5387 50.6803 90.0199 50.1369 90.0052 49.4429C89.9546 47.3192 93.5669 44.2912 97.0633 43.5119C98.0966 41.2434 101.26 38.6339 106.072 37.8546C107.266 37.6622 108.47 37.5651 109.649 37.5651C114.897 37.5651 119.585 39.4925 122.194 42.7227C123.075 43.8113 123.698 45.0209 124.041 46.3138C124.436 47.807 124.455 49.3795 124.102 50.9876C123.986 51.5369 123.818 52.1139 123.598 52.693C123.082 54.0751 122.285 55.3481 121.232 56.4744C121.213 56.4963 121.196 56.5141 121.18 56.5319C118.47 59.4112 114.328 61.063 109.813 61.063L109.819 61.059Z" fill="#1A7170"/>
<path d="M109.657 38.1559C114.775 38.1559 119.235 40.0278 121.698 43.0776C122.512 44.0829 123.107 45.2172 123.436 46.4545C123.794 47.8109 123.837 49.2921 123.491 50.8626C123.379 51.396 123.219 51.9374 123.01 52.4906C122.521 53.7994 121.755 55.0209 120.749 56.0936C120.743 56.1035 120.732 56.1115 120.724 56.1214C118.274 58.7329 114.431 60.464 109.819 60.464C109.341 60.464 108.854 60.4462 108.36 60.4065C108.151 60.3907 107.945 60.3728 107.74 60.353C107.536 60.3312 107.333 60.3074 107.133 60.2836C106.93 60.2598 106.73 60.2301 106.532 60.1983C106.35 60.1706 106.167 60.1408 105.988 60.1091C105.964 60.1051 105.939 60.0992 105.918 60.0972C105.169 59.9643 104.429 59.7879 103.706 59.5578C103.539 59.5043 103.377 59.4488 103.212 59.3932C103.181 59.3833 103.151 59.3714 103.122 59.3635C102.968 59.31 102.814 59.2525 102.666 59.191C102.523 59.1375 102.382 59.076 102.24 59.0165C102.112 58.963 101.985 58.9054 101.859 58.844C101.854 58.844 101.852 58.842 101.848 58.842C101.73 58.7845 101.612 58.727 101.494 58.6675C101.424 58.6338 101.352 58.5981 101.285 58.5584C101.241 58.5366 101.192 58.5108 101.148 58.4831C101.026 58.4196 100.908 58.3502 100.789 58.2808C100.764 58.265 100.739 58.2511 100.709 58.2332C100.64 58.1916 100.568 58.148 100.501 58.1063C100.45 58.0766 100.401 58.0429 100.353 58.0092C100.323 57.9913 100.296 57.9695 100.264 57.9517C100.155 57.8763 100.049 57.8049 99.9438 57.7256C99.7287 57.5729 99.522 57.4103 99.3196 57.2378C99.2142 57.1466 99.115 57.0593 99.018 56.9701C98.9569 56.9165 98.8936 56.859 98.8367 56.7996C98.7798 56.7401 98.7207 56.6826 98.6638 56.6251C97.2467 55.1616 96.5676 53.5079 96.2408 52.1218C96.2154 52.0107 96.1922 51.9017 96.1712 51.7946C96.1585 51.743 96.148 51.6915 96.1395 51.6379C96.1142 51.5031 96.091 51.3643 96.0699 51.2235C96.0573 51.1263 96.0446 51.0312 96.032 50.934C96.0193 50.8349 96.0088 50.7377 96.0003 50.6385C95.9139 49.7561 95.9561 49.1672 95.9308 49.1196C95.8232 48.9213 95.5723 48.844 95.2412 48.844C94.0624 48.844 91.8523 49.8434 91.3631 50.0476C91.3104 50.0714 91.2555 50.0813 91.1986 50.0813C90.9308 50.0813 90.6545 49.8295 90.6461 49.427C90.6039 47.7117 93.8409 44.8047 97.293 44.069C97.4407 44.0353 97.5482 43.9719 97.6094 43.837C98.9126 40.8091 103.008 38.9491 106.188 38.4355C107.367 38.2451 108.529 38.1539 109.657 38.1539M109.657 36.9661C108.44 36.9661 107.2 37.0673 105.973 37.2636C102.424 37.8386 98.2399 39.8255 96.6203 43.0022C94.9438 43.4305 93.2146 44.3248 91.8186 45.4928C91.0721 46.1174 89.3407 47.7534 89.3808 49.4547C89.4019 50.472 90.199 51.2711 91.1986 51.2711C91.4369 51.2711 91.6668 51.2235 91.884 51.1323C91.9325 51.1125 91.9957 51.0847 92.0695 51.053C93.3791 50.4918 94.191 50.2261 94.695 50.1111C94.7034 50.3034 94.7182 50.5176 94.7414 50.7496C94.7519 50.8586 94.7625 50.9677 94.7772 51.0788L94.8152 51.3722V51.3861L94.8194 51.4C94.8426 51.5507 94.8679 51.6974 94.8953 51.8422C94.9059 51.9037 94.9185 51.9711 94.9354 52.0444C94.9586 52.1555 94.9818 52.2646 95.0071 52.3756C95.471 54.3447 96.3884 56.0421 97.7317 57.4282L97.7401 57.4361L97.7485 57.444C97.7992 57.4936 97.8498 57.5451 97.9004 57.5967C97.9868 57.6859 98.0733 57.7653 98.1408 57.8247C98.2378 57.916 98.3432 58.0092 98.474 58.1202C98.6996 58.3125 98.9358 58.497 99.1741 58.6675C99.2774 58.7428 99.3808 58.8142 99.4862 58.8876L99.5199 58.9114L99.5663 58.9431L99.5959 58.959C99.5959 58.959 99.6169 58.9729 99.6275 58.9788C99.6781 59.0125 99.7414 59.0581 99.8173 59.1018C99.8848 59.1434 99.9544 59.187 100.026 59.2287C100.06 59.2505 100.091 59.2683 100.123 59.2882C100.247 59.3615 100.37 59.4329 100.505 59.5043C100.56 59.536 100.614 59.5658 100.667 59.5935C100.745 59.6372 100.825 59.6788 100.914 59.7204C101.028 59.7779 101.142 59.8335 101.255 59.889L101.274 59.8989L101.546 60.0298H101.565C101.616 60.0516 101.669 60.0754 101.724 60.0972C101.869 60.1587 102.019 60.2241 102.181 60.2856C102.331 60.347 102.493 60.4085 102.679 60.474L102.702 60.4819L102.713 60.4859C102.742 60.4958 102.77 60.5057 102.797 60.5136C102.962 60.5711 103.126 60.6247 103.293 60.6802H103.299L103.305 60.6842C104.064 60.9241 104.866 61.1184 105.686 61.2652L105.713 61.2691H105.718C105.735 61.2731 105.749 61.2751 105.764 61.2771C105.95 61.3108 106.142 61.3425 106.338 61.3722C106.546 61.404 106.757 61.4357 106.977 61.4615C107.192 61.4872 107.396 61.511 107.607 61.5329C107.824 61.5547 108.046 61.5745 108.269 61.5904C108.784 61.63 109.311 61.6498 109.826 61.6498C114.518 61.6498 118.828 59.9286 121.658 56.9284C121.677 56.9086 121.702 56.8848 121.728 56.8531C122.831 55.6713 123.666 54.3348 124.21 52.8832C124.435 52.2804 124.615 51.6776 124.737 51.0946C125.108 49.3992 125.087 47.7395 124.67 46.163C124.303 44.7889 123.645 43.5079 122.71 42.3538C119.986 38.9788 115.108 36.9622 109.663 36.9622L109.657 36.9661Z" fill="white"/>
<path d="M117.036 44.2754H102.017C101.897 44.2754 101.798 44.3904 101.798 44.5312C101.798 44.672 101.895 44.787 102.017 44.787H117.036C117.156 44.787 117.255 44.672 117.255 44.5312C117.255 44.3904 117.158 44.2754 117.036 44.2754Z" fill="#94FFD8"/>
<path d="M117.036 47.5293H102.017C101.897 47.5293 101.798 47.6443 101.798 47.7851C101.798 47.9259 101.895 48.0409 102.017 48.0409H117.036C117.156 48.0409 117.255 47.9259 117.255 47.7851C117.255 47.6443 117.158 47.5293 117.036 47.5293Z" fill="#94FFD8"/>
<path d="M117.036 50.7814H102.017C101.897 50.7814 101.798 50.8964 101.798 51.0372C101.798 51.178 101.895 51.293 102.017 51.293H117.036C117.156 51.293 117.255 51.178 117.255 51.0372C117.255 50.8964 117.158 50.7814 117.036 50.7814Z" fill="#94FFD8"/>
<path d="M114.503 54.0354H104.55C104.47 54.0354 104.404 54.1504 104.404 54.2912C104.404 54.432 104.47 54.547 104.55 54.547H114.503C114.583 54.547 114.649 54.432 114.649 54.2912C114.649 54.1504 114.583 54.0354 114.503 54.0354Z" fill="#94FFD8"/>
<path d="M83.4359 38.251C83.2081 38.251 82.9888 38.1717 82.8201 38.0249C82.5143 37.7612 82.4384 37.3368 82.6366 36.9918C83.7459 35.0624 84.6273 33.014 85.2537 30.9042C85.5025 30.0693 85.7113 29.2127 85.88 28.3442L83.535 29.7065C83.3368 29.8195 83.1132 29.879 82.8897 29.879C82.3309 29.879 81.8416 29.524 81.7003 29.0164L80.8146 25.6831L77.2212 26.1669C77.1685 26.1748 77.1074 26.1788 77.0441 26.1788C76.6814 26.1788 76.3376 26.0281 76.1036 25.7624C75.8695 25.4967 75.7725 25.1497 75.84 24.8106L76.5506 21.4336L73.1154 20.3053C72.7316 20.1804 72.4385 19.8849 72.333 19.5141C72.2276 19.1433 72.3246 18.7507 72.5924 18.4632L74.9522 15.8556L72.5861 13.244C72.3246 12.9565 72.2297 12.5679 72.333 12.203C72.4364 11.8361 72.7253 11.5387 73.107 11.4098L76.5527 10.2815L75.8442 6.91249C75.7746 6.56746 75.8695 6.22044 76.1036 5.95473C76.3376 5.68901 76.6814 5.53831 77.0462 5.53831C77.1052 5.53831 77.1664 5.54227 77.2297 5.5502C77.2297 5.5502 79.7096 5.88136 80.8189 6.03008L81.7024 2.71062C81.8479 2.19307 82.3372 1.83614 82.896 1.83614C83.1238 1.83614 83.3473 1.89563 83.5413 2.01064L86.6244 3.80719L88.788 1.06279C89.0115 0.773284 89.3806 0.596802 89.7728 0.596802C90.1651 0.596802 90.5257 0.767335 90.7597 1.06279L92.9192 3.80521L96.0107 2.01064C96.2026 1.89762 96.4261 1.83813 96.6539 1.83813C97.2211 1.83813 97.7104 2.19902 97.8453 2.71657L98.7268 6.03206L102.32 5.54822C102.383 5.54029 102.438 5.53632 102.493 5.53632C102.864 5.53632 103.212 5.69099 103.446 5.96266C103.68 6.23234 103.771 6.58134 103.697 6.92042L102.995 10.2835L106.43 11.4078C106.82 11.5427 107.109 11.8401 107.213 12.205C107.314 12.5698 107.219 12.9585 106.96 13.246L104.596 15.8576L106.96 18.4731C107.219 18.7547 107.316 19.1453 107.213 19.5141C107.109 19.8849 106.816 20.1804 106.432 20.3073L102.995 21.4356L103.699 24.8046C103.771 25.1417 103.68 25.4907 103.446 25.7584C103.212 26.0281 102.866 26.1808 102.497 26.1808C102.436 26.1808 102.377 26.1768 102.314 26.1669L98.7247 25.6831L97.8411 29.0065C97.6956 29.524 97.2064 29.881 96.6496 29.881C96.4219 29.881 96.2005 29.8215 96.0065 29.7085L92.9972 27.9535C92.3793 29.0343 91.0676 31.2611 89.9268 32.78C88.4042 34.8026 86.3903 36.5972 83.9378 38.1122C83.788 38.2034 83.6172 38.253 83.4401 38.253L83.4359 38.251Z" fill="#FCB716"/>
<path d="M89.7687 1.18977C89.9584 1.18977 90.1335 1.27305 90.2474 1.41582L92.7315 4.57268C92.7442 4.58656 92.761 4.58854 92.7674 4.58854L96.3376 2.51636C96.4325 2.46084 96.5379 2.43308 96.6497 2.43308C96.9238 2.43308 97.1621 2.60758 97.2275 2.85743L98.2397 6.66072C98.246 6.68253 98.265 6.69245 98.2798 6.69245L102.409 6.13524C102.438 6.13127 102.466 6.12929 102.491 6.12929C102.672 6.12929 102.841 6.20464 102.955 6.3375C103.067 6.46639 103.111 6.63494 103.075 6.79952L102.272 10.6405C102.268 10.6603 102.278 10.6802 102.297 10.6861L106.219 11.9691C106.409 12.0345 106.548 12.1793 106.597 12.3557C106.645 12.5322 106.601 12.7206 106.475 12.8594L103.786 15.8299C103.771 15.8457 103.771 15.8675 103.784 15.8814L106.475 18.8578C106.601 18.9946 106.648 19.183 106.597 19.3615C106.546 19.54 106.405 19.6847 106.219 19.7462L102.297 21.0331C102.28 21.0391 102.265 21.0569 102.27 21.0767L103.073 24.9177C103.109 25.0823 103.063 25.2508 102.951 25.3797C102.837 25.5106 102.67 25.584 102.493 25.584C102.464 25.584 102.434 25.582 102.402 25.578L98.284 25.0228C98.2608 25.0228 98.2397 25.0347 98.2334 25.0545L97.2212 28.8598C97.1516 29.1097 96.9133 29.2842 96.6433 29.2842C96.5337 29.2842 96.4261 29.2544 96.3334 29.2009L92.7864 27.1307C92.7864 27.1307 92.7695 27.1287 92.7632 27.1287C92.7505 27.1287 92.7421 27.1307 92.7357 27.1366C92.5586 27.4519 90.8273 30.5394 89.4038 32.4331C87.9277 34.3942 85.9686 36.1372 83.5835 37.6106C83.5371 37.6383 83.4844 37.6522 83.4317 37.6522C83.3642 37.6522 83.2967 37.6284 83.2461 37.5848C83.1533 37.5055 83.1301 37.3746 83.1892 37.2715C84.3216 35.3024 85.22 33.2144 85.8589 31.0609C86.2259 29.8235 86.5127 28.5386 86.7067 27.2417L86.7193 27.1505L83.1976 29.1969C83.1006 29.2524 82.9931 29.2802 82.8855 29.2802C82.6135 29.2802 82.3773 29.1077 82.3077 28.8598L81.2955 25.0486C81.2913 25.0307 81.2723 25.0169 81.2512 25.0169L77.1264 25.5721C77.099 25.576 77.0694 25.578 77.0399 25.578C76.8649 25.578 76.7004 25.5047 76.5865 25.3758C76.4726 25.2469 76.4263 25.0783 76.4579 24.9118L77.2656 21.0708C77.2698 21.051 77.2571 21.0311 77.2381 21.0252L73.32 19.7383C73.1344 19.6768 72.991 19.534 72.9404 19.3536C72.8898 19.1751 72.9362 18.9867 73.0648 18.8479L75.7557 15.8775C75.7683 15.8636 75.7683 15.8358 75.7514 15.82L73.0627 12.8535C72.9362 12.7147 72.8898 12.5263 72.9404 12.3498C72.991 12.1713 73.1323 12.0266 73.3179 11.9631L77.2381 10.6782C77.2592 10.6722 77.2719 10.6504 77.2677 10.6306L76.4621 6.78961C76.4284 6.62304 76.4748 6.45449 76.5886 6.32758C76.7025 6.19869 76.867 6.12731 77.0441 6.12731C77.0737 6.12731 77.1032 6.12929 77.1327 6.13325C77.1327 6.13325 81.2512 6.68451 81.2533 6.68451C81.2807 6.68451 81.2955 6.67262 81.2997 6.65279L82.3119 2.84949C82.3815 2.59964 82.6198 2.42514 82.8918 2.42514C83.0015 2.42514 83.1091 2.45489 83.2039 2.50843L86.751 4.57466C86.751 4.57466 86.8058 4.56474 86.8079 4.56474L89.2942 1.40789C89.4017 1.2671 89.581 1.18184 89.7708 1.18184M89.7687 0C89.1782 0 88.6194 0.265715 88.2735 0.711878L86.4599 3.01408L83.8703 1.50506C83.5772 1.33452 83.2377 1.24331 82.8918 1.24331C82.0462 1.24331 81.3039 1.78267 81.0867 2.55404V2.56197L81.0825 2.5699L80.3381 5.36982C79.1192 5.20722 77.3098 4.96332 77.3098 4.96332C77.2255 4.95142 77.1327 4.94547 77.042 4.94547C76.4874 4.94547 75.9665 5.17549 75.6123 5.57803C75.258 5.98057 75.1125 6.50803 75.2179 7.0236L75.821 9.89491L72.9024 10.8507H72.8961L72.8898 10.8547C72.312 11.051 71.8755 11.4991 71.7194 12.0563C71.5634 12.6096 71.7068 13.2005 72.1032 13.6367L74.1192 15.8616L72.1074 18.0825C71.7068 18.5187 71.5612 19.1116 71.7194 19.6708C71.8797 20.234 72.3246 20.6841 72.9088 20.8725L75.8231 21.8303L75.2221 24.6936V24.6996L75.22 24.7055C75.1188 25.2191 75.2643 25.7426 75.6186 26.1452C75.975 26.5477 76.4937 26.7777 77.0462 26.7777C77.1369 26.7777 77.2297 26.7718 77.3183 26.7579L80.3423 26.3514L81.0888 29.1572V29.1652L81.093 29.1731C81.3081 29.9425 82.0504 30.4799 82.894 30.4799C83.2356 30.4799 83.5709 30.3906 83.864 30.2241L84.9669 29.5836C84.8699 29.9762 84.7645 30.3649 84.6485 30.7496C84.0348 32.8158 83.1723 34.8225 82.0842 36.7143C81.7468 37.3012 81.8775 38.023 82.3984 38.4711C82.681 38.7151 83.05 38.8519 83.438 38.8519C83.7396 38.8519 84.0306 38.7706 84.2837 38.6139C86.8037 37.0573 88.8766 35.2112 90.4435 33.1271C91.4346 31.8085 92.5417 29.9822 93.2334 28.7944L95.6733 30.2181C95.9685 30.3906 96.3059 30.4799 96.6518 30.4799C97.4953 30.4799 98.2376 29.9405 98.4527 29.1691V29.1612L98.4569 29.1533L99.2013 26.3514L102.227 26.7599C102.314 26.7718 102.407 26.7777 102.497 26.7777C103.056 26.7777 103.579 26.5437 103.936 26.1372C104.29 25.7287 104.429 25.1993 104.319 24.6857L103.72 21.8283L106.639 20.8705C107.223 20.6782 107.664 20.228 107.822 19.6688C107.978 19.1116 107.835 18.5207 107.436 18.0865L105.424 15.8616L107.44 13.6347C107.835 13.1985 107.978 12.6096 107.824 12.0583C107.668 11.5031 107.234 11.0549 106.66 10.8566L106.65 10.8527L106.639 10.8487L103.723 9.89491L104.319 7.0355C104.429 6.52191 104.29 5.99445 103.938 5.58794C103.583 5.17946 103.056 4.94349 102.493 4.94349C102.407 4.94349 102.322 4.94944 102.238 4.95935L99.2013 5.36784L98.4569 2.5699C98.2545 1.79258 97.5122 1.24331 96.6518 1.24331C96.3059 1.24331 95.9685 1.33452 95.6733 1.50506L93.0795 3.01011L91.268 0.707912C90.9116 0.257783 90.3676 0 89.7729 0L89.7687 0Z" fill="white"/>
<path d="M90.4881 21.9968C90.4227 22.6195 89.8301 23.0775 89.1679 23.016C88.5058 22.9546 88.0186 22.3974 88.084 21.7747C88.1494 21.1521 88.742 20.694 89.4041 20.7555C90.0663 20.817 90.5534 21.3742 90.4881 21.9968ZM93.4762 11.8421C92.7571 11.1481 91.785 10.7317 90.5576 10.6187C89.3809 10.5096 88.3666 10.7436 87.5378 11.3186C86.979 11.6855 86.5572 12.1832 86.2726 12.7622C86.0849 13.141 86.1123 13.5852 86.3232 13.9302C86.534 14.2752 86.9305 14.5211 87.3712 14.5627C87.9596 14.6163 88.5374 14.297 88.7673 13.7597C89.0646 13.0418 89.5644 12.7622 90.3257 12.8316C90.7917 12.8753 91.1481 13.024 91.3906 13.3016C91.6331 13.5792 91.7259 13.8905 91.6837 14.2831C91.6648 14.4676 91.5973 14.648 91.4813 14.8007C91.4223 14.8879 91.2008 15.1239 90.429 15.6355C89.712 16.1055 89.2207 16.5477 88.898 17.0315C88.6639 17.3825 88.491 17.8544 88.375 18.4969C88.316 18.8181 88.4024 19.1751 88.6239 19.4289C88.8432 19.7045 89.1722 19.8751 89.5391 19.9088C90.2266 19.9722 90.8149 19.538 90.9288 18.9193C90.9963 18.5068 91.0891 18.3284 91.146 18.2649C91.2051 18.1777 91.4328 17.8961 92.2278 17.3865C92.9722 16.8967 93.5121 16.4565 93.8094 15.9964C94.13 15.5364 94.3324 15.0208 94.3915 14.4438C94.5201 13.4543 94.189 12.5857 93.4741 11.8441L93.4762 11.8421Z" fill="#1A7170"/>
<path d="M38.0186 81.1322C37.6285 81.1322 37.27 80.9637 37.038 80.6662L35.0663 78.1598L32.2384 79.7977C32.0465 79.9087 31.8251 79.9702 31.5973 79.9702C31.0301 79.9702 30.545 79.6093 30.4164 79.0917L29.6129 76.0717L26.3169 76.508C26.2515 76.5159 26.1988 76.5199 26.1482 76.5199C25.7833 76.5199 25.4417 76.3692 25.2098 76.1035C24.9778 75.8397 24.8829 75.4947 24.9525 75.1576L25.5978 72.0741L22.4514 71.037C22.0592 70.9002 21.7724 70.6008 21.6733 70.2339C21.5763 69.871 21.6733 69.4864 21.9369 69.2048L23.9613 66.968C23.276 66.1134 22.5885 65.2567 21.9053 64.4001C21.667 64.1304 21.5784 63.7497 21.6775 63.3967C21.7787 63.0279 22.0676 62.7324 22.4493 62.6055L25.5914 61.5764L25.1718 59.524L24.9546 58.4909C24.885 58.1459 24.9799 57.8009 25.2119 57.5371C25.4438 57.2754 25.7833 57.1247 26.144 57.1247C26.2051 57.1247 26.2663 57.1286 26.3274 57.1385L29.6024 57.5807L30.4206 54.5409C30.5471 54.0352 31.0322 53.6763 31.5994 53.6763C31.8272 53.6763 32.0486 53.7358 32.2426 53.8488L35.0579 55.4868L37.0422 52.9783C37.2721 52.6849 37.6285 52.5163 38.0186 52.5163C38.4088 52.5163 38.7672 52.6868 38.9992 52.9823L40.9709 55.4887L43.7989 53.8488C43.9886 53.7378 44.2122 53.6763 44.4399 53.6763C45.0009 53.6763 45.4838 54.0313 45.6188 54.5409C45.9287 55.578 46.1228 56.3493 46.2598 56.9125C47.5694 55.5998 49.5011 54.0967 52.1244 53.0953C53.4129 52.5996 54.7794 52.2645 56.186 52.0959C56.2239 52.0919 56.264 52.09 56.3019 52.09C56.5339 52.09 56.7553 52.1713 56.9262 52.32C57.1075 52.4786 57.2214 52.7106 57.2277 52.9446C57.2425 53.3809 57.021 53.597 56.2914 54.3168C55.0578 55.5324 52.5567 57.9932 50.6019 61.6379C50.6609 61.6557 50.7199 61.6735 50.7727 61.6894C51.3695 61.8699 52.272 62.1415 53.6111 62.6174C53.9759 62.7384 54.2627 63.0319 54.364 63.4027C54.4652 63.7715 54.3682 64.1602 54.1025 64.4437L51.9515 66.8193L54.1151 69.2226C54.3703 69.4963 54.4673 69.8829 54.3661 70.2498C54.2627 70.6186 53.9738 70.9141 53.5921 71.041L50.45 72.0741L51.0911 75.1616C51.1607 75.5026 51.0658 75.8477 50.8338 76.1094C50.6019 76.3731 50.2602 76.5258 49.8954 76.5258C49.8427 76.5258 49.79 76.5219 49.7372 76.5159L46.4412 76.0717L45.623 79.1116C45.4859 79.6212 45.0009 79.9761 44.4441 79.9761C44.2185 79.9761 43.995 79.9167 43.801 79.8036L40.9857 78.1637L39.0013 80.6761C38.7715 80.9696 38.4151 81.1382 38.0228 81.1382L38.0186 81.1322Z" fill="#6083B3"/>
<path d="M56.2977 52.6788C56.3694 52.6788 56.439 52.7046 56.4918 52.7502C56.5487 52.7997 56.5888 52.883 56.5909 52.9564C56.5972 53.1448 56.4496 53.2895 55.8296 53.9003C54.5053 55.2031 51.7575 57.9098 49.7204 61.9629C49.8364 62.0284 50.1822 62.1315 50.5745 62.2505C51.1649 62.4289 52.0569 62.6986 53.3813 63.1686C53.5584 63.2261 53.6976 63.3688 53.7461 63.5473C53.7946 63.7238 53.7482 63.9102 53.6217 64.045L51.1143 66.8132L53.6238 69.6012C53.7482 69.7341 53.7946 69.9185 53.7461 70.093C53.6976 70.2695 53.5584 70.4123 53.3749 70.4718L49.7162 71.6734L50.4627 75.2665C50.4964 75.4291 50.45 75.5957 50.3383 75.7226C50.2265 75.8495 50.062 75.9229 49.887 75.9229C49.8617 75.9229 49.8364 75.9229 49.809 75.9189L45.9604 75.3994L45.0009 78.9588C44.9334 79.2047 44.7014 79.3752 44.4357 79.3752C44.3282 79.3752 44.2206 79.3454 44.1278 79.2919L40.817 77.3625L38.4847 80.3131C38.375 80.4539 38.2021 80.5352 38.0144 80.5352C37.8267 80.5352 37.6559 80.4539 37.5442 80.3111L35.2266 77.3645L31.9031 79.2899C31.8103 79.3435 31.7028 79.3732 31.5952 79.3732C31.3232 79.3732 31.0912 79.2007 31.028 78.9528L30.0832 75.4053L26.2241 75.9169C26.1946 75.9209 26.1693 75.9229 26.144 75.9229C25.9689 75.9229 25.8045 75.8495 25.6927 75.7226C25.5809 75.5957 25.5366 75.4311 25.5683 75.2685L26.319 71.6833L22.656 70.4757C22.4683 70.4103 22.3291 70.2655 22.2828 70.0891C22.2364 69.9146 22.2828 69.7321 22.4093 69.5973L24.7669 66.9917C23.974 66.0062 23.1832 65.0187 22.3945 64.0292C22.2828 63.9102 22.2364 63.7238 22.2849 63.5473C22.3334 63.3688 22.4725 63.2281 22.656 63.1666L26.3106 61.9689L25.7876 59.4109L25.5704 58.3758C25.5366 58.2092 25.583 58.0427 25.6948 57.9157C25.8045 57.7908 25.9689 57.7194 26.1398 57.7194C26.1693 57.7194 26.1967 57.7194 26.2262 57.7254L30.0706 58.2429L31.0301 54.6835C31.0912 54.4396 31.3232 54.2671 31.5952 54.2671C31.7049 54.2671 31.8103 54.2969 31.9031 54.3504L35.2139 56.2758L37.5463 53.3292C37.6559 53.1884 37.8288 53.1071 38.0165 53.1071C38.2042 53.1071 38.375 53.1884 38.4868 53.3312L40.8065 56.2778L44.13 54.3524C44.2227 54.2988 44.3303 54.2691 44.4378 54.2691C44.7099 54.2691 44.9418 54.4416 45.003 54.6895C45.3805 55.9526 45.5871 56.8212 45.7221 57.3942C45.8001 57.7214 45.8697 58.0169 45.9267 58.1696C47.1772 56.722 49.2733 54.8243 52.3585 53.6465C53.5964 53.1706 54.9102 52.8473 56.2619 52.6867C56.2745 52.6867 56.2851 52.6847 56.2977 52.6847M56.2977 51.489C56.2324 51.489 56.167 51.493 56.1016 51.5009C54.6402 51.6754 53.2189 52.0264 51.8798 52.54C49.6571 53.3887 47.9153 54.5844 46.6099 55.7345C46.5066 55.3439 46.38 54.8937 46.2261 54.3821C46.0173 53.6127 45.2856 53.0774 44.4357 53.0774C44.0899 53.0774 43.7525 53.1686 43.4572 53.3411L41.1291 54.6895L39.5011 52.6213C39.1574 52.1811 38.6007 51.9153 38.0144 51.9153C37.4282 51.9153 36.8736 52.1791 36.5256 52.6213L34.8913 54.6875L32.5695 53.3371C32.2785 53.1666 31.9411 53.0754 31.5952 53.0754C30.7391 53.0754 30.0031 53.6187 29.8027 54.396L29.1258 56.9104L26.4076 56.5435C26.3274 56.5316 26.2325 56.5257 26.1398 56.5257C25.5894 56.5257 25.0727 56.7537 24.7205 57.1523C24.3663 57.5529 24.225 58.0783 24.3262 58.5919V58.5979L24.3283 58.6038L24.5455 59.6389L24.8618 61.1817L22.2385 62.0423C21.6543 62.2366 21.2157 62.6867 21.0596 63.2459C20.912 63.7773 21.0428 64.3544 21.4034 64.7668C21.9728 65.4827 22.5295 66.1767 23.1474 66.9461L21.4498 68.822C21.0575 69.2483 20.9099 69.8293 21.0554 70.3786C21.2052 70.9378 21.6375 71.3899 22.2153 71.5921L22.2258 71.5961L22.2364 71.6001L24.8639 72.4666L24.3262 75.0405C24.2207 75.558 24.3641 76.0815 24.7163 76.4821C25.0685 76.8826 25.5872 77.1127 26.1419 77.1127C26.2241 77.1127 26.3064 77.1067 26.3907 77.0968L29.1321 76.7339L29.7985 79.2384C29.9989 80.0197 30.7369 80.565 31.5931 80.565C31.9369 80.565 32.2743 80.4737 32.5695 80.3032L34.8997 78.9528L36.5277 81.021C36.8736 81.4613 37.4303 81.727 38.0144 81.727C38.5986 81.727 39.1574 81.4632 39.5032 81.0191L41.1376 78.9508L43.4594 80.3032C43.7525 80.4737 44.0899 80.565 44.4336 80.565C45.2793 80.565 46.0173 80.0256 46.2261 79.2523L46.9051 76.7299L49.6276 77.0968H49.636L49.6445 77.0988C49.7246 77.1087 49.8047 77.1127 49.8828 77.1127C50.4353 77.1127 50.9562 76.8826 51.3083 76.4801C51.6605 76.0815 51.8039 75.558 51.7006 75.0444L51.1628 72.4547L53.7883 71.5921C54.3703 71.3998 54.811 70.9516 54.9671 70.3905C55.121 69.8352 54.9776 69.2503 54.5812 68.822L52.7697 66.8112L54.5749 64.8184C54.9734 64.3861 55.1189 63.7972 54.965 63.2419C54.811 62.6867 54.3808 62.2425 53.8136 62.0482C52.8203 61.6952 52.0654 61.4533 51.4981 61.2788C53.3539 58.0506 55.5976 55.8416 56.7385 54.7192C57.4934 53.9756 57.873 53.6028 57.8498 52.9167C57.8372 52.5301 57.6495 52.1394 57.3437 51.8757C57.0548 51.6258 56.6815 51.489 56.2914 51.489H56.2977Z" fill="white"/>
<path d="M31.8423 63.7757C31.5323 63.8372 31.431 64.2238 31.6714 64.4261L35.4441 67.5691L36.5259 72.3162C36.5955 72.6196 36.9898 72.7108 37.1902 72.4689L46.7895 60.8092L31.8423 63.7777V63.7757Z" fill="#FCB716"/>
<path opacity="0.5" d="M36.5259 72.3161L35.4441 67.5689L46.7873 60.8091L37.1881 72.4688C36.9877 72.7107 36.5934 72.6195 36.5238 72.3161H36.5259Z" fill="#FD8A02"/>
<path d="M34.8198 69.5024L29.5562 72.5601C29.455 72.6176 29.4171 72.7545 29.4719 72.8655C29.5099 72.9409 29.5816 72.9845 29.6554 72.9845C29.687 72.9845 29.7207 72.9766 29.7524 72.9587L35.0159 69.901C35.1172 69.8435 35.1551 69.7067 35.1003 69.5956C35.0476 69.4866 34.921 69.4429 34.8198 69.5024Z" fill="#FCB716"/>
<path d="M30.5265 70.6585C30.5581 70.6585 30.5918 70.6506 30.6235 70.6328L34.2211 68.5427C34.3223 68.4852 34.3603 68.3484 34.3054 68.2374C34.2527 68.1283 34.1262 68.0847 34.025 68.1442L30.4273 70.2342C30.3261 70.2917 30.2882 70.4285 30.343 70.5396C30.3809 70.6149 30.4526 70.6585 30.5265 70.6585Z" fill="#FCB716"/>
</svg>
