<svg width="146" height="101" viewBox="0 0 146 101" fill="none" xmlns="http://www.w3.org/2000/svg">
<path d="M106.862 85.7301C95.0194 84.6122 83.0879 84.4124 71.2265 85.3008C65.1082 85.7598 59.1438 85.857 53.0281 85.3521C47.682 84.9093 41.7689 83.9561 36.4417 85.1577C36.7117 84.0614 36.6901 82.8653 36.7765 81.7448C36.898 80.1571 37.0114 78.5668 37.1221 76.9792C37.33 74.028 37.5298 71.0795 37.7161 68.1257C38.1022 61.9911 38.4397 55.8566 38.7313 49.7221C39.2956 37.7527 39.7843 25.7536 39.8923 13.7654C42.3494 14.273 44.9738 14.3972 47.4498 14.6591C50.3146 14.9615 53.182 15.245 56.0495 15.4988C61.7817 16.0064 67.5301 16.4384 73.2813 16.6436C84.3326 17.0433 95.4677 16.5005 106.325 14.2973C106.252 26.2883 106.168 38.2792 106.233 50.2702C106.262 56.1968 106.327 62.1235 106.424 68.0501C106.519 73.9065 106.376 79.8817 106.862 85.7247V85.7301Z" fill="white"/>
<path d="M122.374 69.2621C122.39 66.5297 120.613 65.0797 118.416 64.321C119.782 63.6325 120.705 62.4607 120.333 60.549C119.938 58.4943 118.186 57.0686 116.188 56.3018C117.414 55.3622 118.186 53.8745 117.87 52.2004C117.611 50.818 116.709 49.7731 115.556 49.1737C116.76 48.7309 117.762 48.0694 117.948 46.5465C118.218 44.3055 116.604 43.0553 114.754 42.3749C116.323 41.8457 117.838 41.2004 118.102 39.3617C118.38 37.4419 117.238 36.1918 115.753 35.3818C117.049 34.9093 118.129 34.0776 118.397 32.6034C118.864 30.0329 116.831 28.6451 114.673 27.935C115.537 27.7973 116.49 27.7541 117.093 27.3491C117.781 26.8901 118.272 26.153 118.181 25.2997C118.032 23.9902 116.901 22.8751 115.605 22.0219C117.222 21.7195 118.74 21.0175 118.947 19.5C119.19 17.7045 117.997 16.9296 116.62 16.349C118.659 15.9251 120.422 14.7884 120.065 12.3044C119.577 8.82398 115.597 8.84558 112.907 9.35589C112.872 9.24789 112.829 9.13989 112.764 9.04269C112.77 9.02109 112.77 8.99949 112.77 8.97789C113.512 7.74126 114.082 6.38043 113.798 4.9251C113.534 3.57777 112.567 2.33304 111.166 2.08193C109.994 1.86863 109.138 2.27634 108.517 2.99725C107.864 1.12341 106.514 -0.275219 104.013 0.0460879C101.257 0.397096 99.8635 2.34924 99.1588 4.66859C98.6565 2.98105 97.7574 1.58512 95.673 1.44202C93.6263 1.29892 92.5355 3.10796 91.9928 5.1627C91.1477 3.21596 89.8678 1.51762 87.9994 1.66882C85.9392 1.83353 84.6783 3.89637 84.0141 6.00782C82.9611 3.64527 81.3167 1.22601 78.9191 1.45552C75.841 1.74713 75.1606 4.71179 74.6179 7.38215C73.6594 5.2653 72.2472 3.14306 69.9225 3.35906C67.5761 3.57507 66.4583 5.35711 65.8778 7.36055C64.9112 5.0061 63.4153 2.51394 61.0366 2.68405C59.0683 2.82715 58.0449 4.17178 57.5238 5.79992C56.8137 4.14478 55.6554 2.79475 53.6222 2.57334C52.4396 2.44374 51.2381 2.81635 50.5064 3.78837C50.1338 4.27708 49.9745 4.86029 49.853 5.45701C49.3885 3.02425 48.2086 0.780504 45.3843 0.5942C42.5196 0.413296 41.0238 3.30236 40.4297 6.02672C38.5559 2.61114 35.2321 -0.207718 31.1469 1.72283C29.2731 2.60304 27.969 4.53089 28.4604 6.64773C28.6899 7.65486 29.2461 8.51618 29.994 9.12369C29.9076 9.20199 29.8212 9.27489 29.7429 9.36129C29.4567 9.661 29.4405 10.0417 29.6133 10.3549C27.2642 11.1217 25.4606 13.2116 25.7036 16.0223C25.9682 19.0788 28.5333 20.4963 31.2144 21.2281C28.9086 21.8302 26.3273 22.2892 26.0735 24.9919C25.844 27.3896 27.3425 28.7153 29.2569 29.4227C27.8259 30.0113 26.7107 31.0428 26.5703 32.8302C26.3489 35.6005 28.2606 37.1746 30.5151 38.1277C28.6386 38.6866 27.0293 39.8099 26.8052 41.9861C26.5757 44.1975 27.9501 45.4719 29.7051 46.2117C27.942 46.8219 26.5001 47.9748 26.4353 50.1133C26.3705 52.3381 27.8664 53.5721 29.6943 54.2579C27.9744 54.4604 26.3732 54.8654 26.0303 56.858C25.7495 58.497 26.4596 59.5986 27.564 60.3303C25.0664 60.5652 22.7308 61.359 23.0252 63.8755C23.333 66.4946 26.2598 67.8635 29.1597 68.5871C26.8268 69.0947 24.6263 70.0829 24.7424 72.1026C24.8558 74.0493 26.627 75.1887 28.6575 75.8125C26.7377 76.0771 25.0124 76.7413 24.6506 78.8176C24.1862 81.4961 26.5919 82.4465 28.9653 82.9622C27.7125 83.7128 26.8538 85.0089 27.1481 86.6181C27.483 88.4514 29.3325 89.5612 31.0281 89.3371C30.7041 90.9409 30.6906 92.5798 31.0551 94.1999C31.3251 95.396 31.884 97.4858 33.0613 98.1501C35.0782 99.2895 36.5255 96.4625 37.3544 93.9785C37.9862 96.0818 39.2957 97.9232 41.8122 97.502C43.4673 97.2212 44.4042 95.9036 44.955 94.3862C45.7867 96.5786 47.2474 98.5146 49.8664 98.2824C51.9941 98.0961 53.282 96.3437 54.0623 94.4375C54.8589 96.584 56.2656 98.5605 58.8306 98.3094C60.2833 98.1663 61.2553 97.2644 61.9303 96.1061C62.5513 98.3472 63.9932 100.307 66.5258 100.496C69.0828 100.691 70.557 98.952 71.4156 96.854C72.2661 98.3283 73.7269 99.4542 75.4387 99.6378C77.6987 99.8754 79.6211 98.6199 80.6201 96.8081C81.6921 98.439 83.5605 99.5217 85.6044 99.1869C87.2785 98.9142 88.6042 97.7612 89.2819 96.3005C90.3538 98.1987 91.8524 99.9321 93.8207 99.9942C95.4894 100.043 96.3102 98.2473 96.8421 96.9431C97.2228 96.0143 97.4847 95.0531 97.617 94.0784C97.7817 94.5239 97.9545 94.9316 98.0895 95.2502C98.6349 96.5543 99.4855 97.7936 100.833 98.358C103.905 99.6459 104.948 96.8918 105.223 94.1783C105.461 94.721 105.76 95.2394 106.168 95.6741C106.97 96.5381 108.15 97.0214 109.327 96.8756C111.495 96.5975 111.919 94.7723 111.717 92.9038C111.952 92.9983 112.197 93.0766 112.459 93.1387C113.734 93.4249 116.223 93.6491 117.028 92.3449C117.846 91.0084 117.176 88.6674 116.45 87.42C115.84 86.367 114.833 85.5219 113.68 85.1736C116.463 85.7028 119.992 85.4868 120.408 82.0469C120.651 80.0408 119.226 78.8257 117.425 78.1102C117.695 77.9968 117.962 77.8807 118.221 77.7457C119.409 77.1355 121.278 76.0069 120.978 74.4165C120.851 73.7577 120.411 73.2204 119.852 72.7857C121.307 72.3267 122.358 71.3466 122.374 69.2648V69.2621ZM115.559 44.5458C116.526 45.4044 116.682 46.8003 115.502 47.5239C114.233 48.3043 112.583 48.253 111.285 49.0576C111.233 49.0873 111.19 49.1224 111.147 49.1629C111.152 49.0927 111.147 49.0279 111.152 48.9604C111.166 46.9353 111.196 44.9076 111.231 42.8825C111.309 43.1255 111.49 43.3199 111.784 43.3604C113.037 43.5306 114.571 43.6629 115.559 44.5485V44.5458ZM116.661 32.4171C116.272 34.0209 113.847 34.1937 112.508 34.2774C111.571 34.3341 111.312 35.7328 112.292 35.9542C113.366 36.1999 114.573 36.4321 115.451 37.1503C116.466 37.9819 116.868 39.3995 115.664 40.2554C114.506 41.0735 112.843 41.141 111.59 41.8376C111.42 41.9294 111.309 42.0887 111.244 42.2669C111.336 37.7632 111.479 33.2676 111.668 28.772C111.782 28.9097 111.925 29.015 112.092 29.042C113.801 29.3147 117.268 29.9303 116.661 32.4198V32.4171ZM112.621 11.2729C112.727 11.281 112.829 11.281 112.945 11.2567C114.422 10.9273 117.862 10.2415 118.302 12.5312C118.588 14.0135 116.855 14.729 115.726 14.8505C114.841 14.945 113.958 14.837 113.078 14.7371C112.783 14.7074 112.532 14.8748 112.376 15.1151C112.454 13.8326 112.535 12.5528 112.619 11.2729H112.621ZM112.322 16.0601C112.359 16.1168 112.403 16.1681 112.459 16.2167C113.577 17.1024 114.822 17.2212 116.048 17.8611C116.75 18.2283 117.543 18.9924 116.763 19.7916C116.49 20.0643 115.71 20.1939 115.329 20.2911C114.384 20.5287 113.431 20.5692 112.465 20.526C112.305 20.5179 112.173 20.5476 112.062 20.5989C112.143 19.0869 112.232 17.5722 112.322 16.0655V16.0601ZM112.246 22.1839C113.45 22.6402 114.544 23.2855 115.489 24.1603C116.407 25.0189 116.836 25.9154 115.324 26.288C113.89 26.6444 112.718 26.4797 111.717 27.6461C111.798 25.7723 111.89 23.9011 111.987 22.0273C112.065 22.0921 112.151 22.1434 112.246 22.1839ZM96.4371 3.56427C98.1192 4.60109 97.9626 7.28765 98.3541 9.14799C96.6585 9.20739 94.9629 9.26139 93.2699 9.30729C93.2699 7.53875 93.8585 1.97123 96.4398 3.56427H96.4371ZM85.0995 9.09129C85.1805 7.80876 85.4721 6.62343 86.0797 5.48941C86.3146 5.0466 86.6359 4.42828 86.9977 4.11508C87.454 3.72087 88.4854 3.52916 89.0524 3.85587C89.7112 4.23388 90.3322 5.92412 90.6077 6.57753C90.9884 7.47395 91.253 8.40817 91.4609 9.35589C89.3008 9.4072 87.1462 9.4423 84.9888 9.472C85.0482 9.36399 85.0887 9.23709 85.0968 9.09129H85.0995ZM78.479 3.28886C81.0683 2.29254 82.8882 7.49825 83.4471 9.30999C83.4687 9.37479 83.4957 9.4369 83.5254 9.4882C80.9468 9.5152 78.3656 9.526 75.787 9.5179C76.2595 7.36325 76.2892 4.13398 78.479 3.28886ZM70.1223 4.8873C71.961 4.83059 73.114 7.71696 73.7782 9.499C73.0492 9.4936 72.3255 9.4936 71.5965 9.4855C70.0494 9.4693 68.505 9.4423 66.9578 9.4072C67.2386 7.49015 67.8893 4.9548 70.1223 4.88459V4.8873ZM61.69 4.24198C63.2587 4.67129 64.3955 7.49015 65.0381 9.36669C62.8618 9.30999 60.691 9.24519 58.5147 9.16419C58.5849 7.30115 59.0386 3.52106 61.6927 4.24468L61.69 4.24198ZM51.0167 7.02844C51.2516 5.91872 51.2678 4.46609 52.5854 4.08538C55.4772 3.24026 56.514 6.85564 56.9433 9.10479C55.0884 9.03189 53.2334 8.95359 51.3758 8.86718C51.0248 8.85098 50.6684 8.82938 50.3174 8.81048C50.6765 8.28127 50.8682 7.70616 51.014 7.02844H51.0167ZM45.5059 2.09543C48.5488 2.54094 48.6433 6.36153 48.6433 8.72408C46.3591 8.60798 44.0748 8.48647 41.7906 8.34607C41.7096 8.34067 41.6259 8.33257 41.5422 8.32987C41.6475 6.05372 42.6357 1.67422 45.5059 2.09543ZM41.796 10.4332C45.1035 10.6708 48.4165 10.876 51.7241 11.0434C58.3473 11.3863 64.9733 11.5996 71.6019 11.7319C83.9007 11.9804 96.2049 11.8453 108.496 11.3431C107.937 11.8075 107.335 12.2531 106.908 12.8552C106.865 12.92 106.838 12.9848 106.83 13.0469C95.6622 15.2501 84.3138 15.8333 72.9493 15.4877C67.3007 15.3149 61.6684 14.9018 56.0469 14.3213C53.2847 14.0351 50.5334 13.7192 47.7766 13.3844C45.1224 13.0604 42.363 12.5123 39.6791 12.4529C39.5198 12.353 39.2984 12.3476 39.1229 12.4367C38.4425 11.894 37.6919 11.4403 36.9953 10.9246C36.6011 10.6303 36.2095 10.3225 35.8234 10.0093C36.2257 10.0309 36.6308 10.0363 37.0115 10.066C38.6072 10.1956 40.2029 10.3171 41.7987 10.4332H41.796ZM35.6452 85.0764C35.5399 85.0548 35.4292 85.071 35.3077 85.1466C34.7083 85.5327 34.1116 85.8918 33.5338 86.286C33.8119 83.4374 34.0576 80.5889 34.3438 77.7403C34.5085 76.0798 34.6786 74.4192 34.8433 72.756C34.9918 71.2953 35.3536 69.6779 34.9864 68.2334C35.5939 61.8046 36.0097 55.3622 36.2041 48.9118C36.4067 42.059 36.4201 35.1901 36.169 28.34C36.0421 24.9703 35.8666 21.6034 35.6398 18.2391C35.5183 16.4436 35.3698 14.6507 35.2051 12.8579C35.1457 12.2288 35.0971 11.5888 35.0188 10.9543C36.1987 11.948 37.4759 12.893 38.8205 13.4762C38.5505 25.5617 38.3102 37.6444 37.7486 49.7218C37.4678 55.8617 37.133 61.9936 36.7523 68.1254C36.5714 71.0766 36.3742 74.0304 36.1663 76.9816C36.0529 78.5692 35.9368 80.1542 35.8234 81.7472C35.7424 82.8272 35.5534 83.9747 35.6425 85.071L35.6452 85.0764ZM36.7766 81.7472C36.8981 80.1596 37.0115 78.5692 37.1222 76.9816C37.3301 74.0304 37.5299 71.082 37.7162 68.1281C38.1023 61.9936 38.4398 55.859 38.7314 49.7245C39.2957 37.7551 39.7844 25.7561 39.8924 13.7678C42.3495 14.2754 44.9739 14.3996 47.4499 14.6615C50.3147 14.9639 53.1821 15.2474 56.0496 15.5012C61.7818 16.0088 67.5302 16.4409 73.2814 16.6461C84.3327 17.0457 95.4678 16.503 106.325 14.2997C106.252 26.2907 106.168 38.2816 106.233 50.2726C106.263 56.1992 106.327 62.1259 106.425 68.0525C106.519 73.9089 106.376 79.8841 106.862 85.7271C95.0196 84.6093 83.088 84.4094 71.2266 85.2978C65.1083 85.7568 59.1439 85.854 53.0282 85.3491C47.6821 84.9063 41.769 83.9531 36.4418 85.1547C36.7118 84.0584 36.6902 82.8623 36.7766 81.7418V81.7472ZM29.8212 4.9089C30.3153 3.38606 32.0407 2.58144 33.5419 2.52474C36.8279 2.39514 38.8394 5.44621 39.8978 8.22457C38.9312 8.15977 37.9673 8.10307 37.0061 8.03827C35.9341 7.96536 34.8568 7.69266 33.9226 8.07337C33.6418 7.97346 33.3016 8.04636 33.0721 8.25157C32.4268 8.12467 31.7895 8.17327 31.1901 8.38657C30.0885 7.60626 29.3784 6.27513 29.8212 4.9089ZM27.7638 17.4129C25.6361 13.9487 29.6376 11.3836 32.6887 11.9102C32.74 12.4556 32.8048 13.0037 32.848 13.5356C32.983 15.2177 33.1126 16.8999 33.2368 18.582C33.2746 19.1031 33.3097 19.6215 33.3448 20.1426C31.29 19.797 28.8789 19.2354 27.7611 17.4102L27.7638 17.4129ZM28.8735 27.6677C27.5154 26.6741 26.9051 24.6544 28.5711 23.6149C30.0264 22.6996 31.8705 22.6996 33.4744 22.0678C33.6121 24.271 33.7336 26.477 33.8254 28.6829H33.82C32.1595 28.6613 30.2775 28.6964 28.8735 27.6677ZM28.0959 33.1542C28.1337 30.3327 31.7301 30.1707 33.8227 30.1626C33.8443 30.1626 33.8605 30.1572 33.8821 30.1545C33.9766 32.625 34.0522 35.0929 34.0981 37.5634C31.6086 37.1341 28.0473 36.2269 28.0932 33.1542H28.0959ZM28.3875 41.6972C29.1246 39.3644 32.1109 39.2861 34.1278 39.2213C34.1575 41.3678 34.171 43.5171 34.1575 45.669C34.0549 45.6042 33.928 45.561 33.7768 45.5475C31.83 45.4125 27.4263 44.751 28.3875 41.6972ZM28.0068 50.0998C28.1418 47.3862 31.8165 47.1918 33.7822 47.1351C33.9253 47.1297 34.0468 47.0973 34.1494 47.0433C34.1413 47.667 34.1359 48.2908 34.1278 48.9172C34.1008 50.4724 34.0657 52.0303 34.0225 53.5856C33.9091 53.5154 33.7849 53.4695 33.6445 53.4587C31.7058 53.3021 27.8664 52.8917 28.0041 50.0998H28.0068ZM24.7748 64.6126C22.6255 61.0755 30.8256 61.7047 32.4187 61.6642C33.3286 61.6426 33.3124 60.3168 32.4133 60.2547C30.9606 60.1629 29.1138 60.0954 28.0662 58.9074C26.9618 57.6546 27.4776 56.1722 29.0166 55.8077C30.7068 55.4081 32.3728 55.7375 33.9793 54.9491C33.8416 59.2935 33.6202 63.6379 33.3205 67.9715C30.6852 67.7015 26.2112 66.9779 24.7748 64.6126ZM27.6801 74.1087C26.6621 73.5282 26.5082 73.35 26.5406 72.0837C26.5757 70.6499 26.6999 70.7661 27.9717 70.3583C28.4712 70.199 28.9788 70.064 29.4837 69.9425C30.7149 69.6482 31.9624 69.4619 33.226 69.3485C33.2206 69.3836 33.2179 69.4187 33.2179 69.4538C33.0694 71.4276 32.9047 73.3986 32.7319 75.367C31.6815 75.3534 30.6555 75.2374 29.6376 74.9214C28.9734 74.7135 28.2849 74.457 27.6828 74.1114L27.6801 74.1087ZM26.1491 78.0751C27.5505 76.2634 30.4071 76.744 32.6185 76.5847C32.5321 77.5594 32.4457 78.5395 32.3539 79.5196C32.2675 80.4431 32.1676 81.3611 32.0731 82.2845C29.9265 81.9173 23.4977 81.5042 26.1518 78.0751H26.1491ZM31.344 88.0842C30.0426 88.5918 28.3146 87.5334 28.2606 86.0862C28.1958 84.2258 30.372 83.2862 31.9408 83.5454C31.803 84.9684 31.6842 86.3886 31.641 87.8196C31.5195 87.8628 31.4115 87.9492 31.3413 88.0842H31.344ZM93.1592 98.169C91.0694 97.5695 90.1378 94.2161 89.452 92.4907C89.0578 91.4458 87.3622 91.8805 87.7564 92.9416C88.5016 94.7966 87.4783 97.2374 85.4019 97.6964C83.2419 98.169 81.5787 96.2438 81.3356 94.2836C81.3491 94.019 81.3437 93.7544 81.3194 93.4871V93.452H81.314C81.3086 93.3818 81.3005 93.3142 81.2924 93.244C81.1574 92.2639 79.7237 92.5798 79.6751 93.4574C79.6535 93.7922 79.6697 94.1216 79.7183 94.451C79.5455 96.6002 77.5475 98.6307 75.301 98.2149C73.2112 97.8287 72.096 95.8793 72.231 93.9353C72.2877 93.6329 72.3363 93.3412 72.3795 93.0604C72.528 92.0452 71.0997 91.6132 70.8027 92.6446C70.6758 93.0739 70.6218 93.5167 70.6164 93.9542C70.2519 96.1871 69.4851 98.8224 67.0064 99.0816C63.3775 99.4596 63.0103 95.0531 63.1777 92.5528C63.2371 91.6456 61.8088 91.4863 61.6171 92.3503C61.2823 93.8327 60.8071 96.0224 59.2762 96.7406C57.7803 97.4426 56.3196 96.1169 55.6878 94.8857C55.1721 93.8894 55.002 92.7229 54.813 91.6294C54.678 90.8788 53.5601 90.9544 53.3819 91.6294C52.8959 93.4817 52.1939 96.4193 49.9691 96.8351C46.7857 97.4372 45.9622 93.2413 45.6031 91.0165C45.4546 90.0931 44.2071 90.4387 44.1207 91.2082C43.9506 92.7175 43.6347 94.8371 42.2739 95.7551C39.2606 97.7936 38.2373 92.7904 38.1347 90.922C38.0996 90.2281 37.0088 90.0121 36.8738 90.7627C36.6362 92.1235 36.2851 93.4547 35.7127 94.721C35.2186 95.8307 34.333 97.9557 33.0856 96.4895C31.4952 94.6265 31.6977 91.1407 32.3053 88.8591C32.3188 88.8537 32.3269 88.8456 32.3404 88.8429C34.8406 89.6746 37.7216 89.7286 40.292 89.9662C43.6914 90.2794 47.1016 90.4603 50.5145 90.6385C57.3294 90.9976 64.1525 91.2028 70.9809 91.2487C77.8094 91.2973 84.6324 91.2001 91.4555 90.9544C92.9162 90.9031 94.3742 90.841 95.835 90.7735C95.8053 90.8788 95.7864 90.9895 95.7999 91.1191C95.916 92.6014 95.8215 98.9358 93.1646 98.1717L93.1592 98.169ZM90.767 89.1373C84.168 89.3614 77.5718 89.4451 70.9728 89.3938C64.3739 89.3425 57.7776 89.1562 51.1868 88.8429C47.7793 88.6836 44.3718 88.4487 40.9644 88.2624C38.5289 88.1274 35.8531 87.7467 33.3421 87.9546C33.3691 87.8844 33.3853 87.8061 33.3934 87.7305C33.4015 87.6252 33.4096 87.528 33.4231 87.4227C34.0684 86.934 34.7623 86.4615 35.4994 86.1564C35.5777 86.2293 35.6803 86.2779 35.8207 86.2698C38.9123 86.1186 41.9472 85.8108 45.0549 85.9026C47.9413 85.989 50.8169 86.2374 53.6951 86.4534C59.7001 86.9097 65.57 86.7126 71.5695 86.2374C83.3472 85.2978 95.0709 85.206 106.827 86.3859C106.822 86.3913 106.819 86.394 106.813 86.394C106.433 86.7153 107.399 87.4767 108.412 88.1355C105.936 88.2489 103.438 88.5513 100.989 88.6863C97.5819 88.8781 94.1744 89.0293 90.7616 89.1427L90.767 89.1373ZM103.576 95.6849C103.198 96.6596 102.717 97.4804 101.586 97.1672C100.835 96.9647 100.277 96.3491 99.8662 95.7281C99.2587 94.8128 98.9913 93.7328 98.7132 92.6851C98.5134 91.921 98.4621 91.1326 97.7034 90.787C97.6548 90.7654 97.5954 90.7573 97.5441 90.7735C97.5306 90.7465 97.5171 90.7168 97.5009 90.6898C98.8968 90.6196 100.287 90.5521 101.681 90.4738C102.469 90.4252 103.271 90.3955 104.07 90.3604C103.922 90.4873 103.822 90.6628 103.841 90.8761C103.97 92.3287 104.119 94.2836 103.581 95.6849H103.576ZM110.313 94.64C109.538 96.5786 107.283 95.2205 106.654 94.1027C106.047 93.0199 106.23 90.9301 105.042 90.3226C106.53 90.2578 108.02 90.1714 109.486 89.9986C109.557 90.6061 109.751 91.1353 110.051 91.5862C110.394 92.6095 110.645 93.8111 110.315 94.6427L110.313 94.64ZM109.481 69.2135C109.576 72.6426 109.716 76.0771 109.881 79.5007C110.016 82.3493 110.067 85.2222 110.48 88.0464C109.792 87.6468 109.1 87.2391 108.42 86.8206C108.263 86.7261 108.055 86.583 107.831 86.4615C107.837 86.3886 107.837 86.313 107.837 86.2401C107.85 86.1915 107.85 86.1456 107.842 86.0916C108.012 80.1056 107.564 74.0439 107.461 68.0525C107.353 62.1259 107.283 56.1992 107.259 50.2726C107.202 38.1898 107.308 26.1071 107.715 14.0297C107.721 13.9244 107.702 13.8353 107.667 13.757C107.694 13.6571 107.688 13.5491 107.659 13.4438C108.244 13.1522 108.752 12.6797 109.254 12.272C109.632 11.9696 110.148 11.6482 110.499 11.2567H110.507C109.667 23.9146 109.311 36.6211 109.254 49.306C109.227 55.94 109.306 62.5768 109.489 69.2081L109.481 69.2135ZM110.707 8.59448C107.208 8.78618 103.706 8.95088 100.204 9.08319C100.36 6.43443 100.714 2.90545 103.711 2.03333C106.897 1.10991 107.224 4.71719 107.132 7.02304C107.116 7.21745 107.105 7.40375 107.102 7.58195C107.067 8.82938 108.941 8.79968 109.022 7.57655C109.036 7.39565 109.044 7.20395 109.049 7.01224C109.122 5.86742 109.387 4.22848 110.518 4.05028C111.952 3.82617 112.041 5.79721 111.749 6.71253C111.601 7.17695 111.368 7.61436 111.112 8.03827C110.931 8.16517 110.783 8.34607 110.71 8.58908L110.707 8.59448ZM115.721 90.0391C115.98 91.4863 114.924 91.8643 113.696 91.8373C112.824 91.8211 111.836 91.6024 111.306 90.922C111.179 90.5089 111.047 90.1255 110.912 89.7961C111.082 89.7664 111.255 89.7448 111.422 89.7097C112.038 89.5936 112.143 88.9672 111.895 88.527C111.93 87.8628 111.938 87.1905 111.938 86.5236C112.008 86.5452 112.081 86.5614 112.162 86.5668C114.179 86.6802 115.367 88.1112 115.718 90.0391H115.721ZM111.908 84.6606C111.979 84.7119 112.06 84.7605 112.16 84.7902C112.432 84.8766 112.727 84.9603 113.034 85.0332C112.748 84.9954 112.454 84.9846 112.16 85.017C112.073 85.0251 111.995 85.0467 111.922 85.0737C111.917 84.936 111.914 84.801 111.908 84.6606ZM120.643 69.8804C120.249 71.0955 119.131 71.5572 117.786 71.7057C117.743 71.6895 117.695 71.6706 117.651 71.6571C115.832 71.028 113.885 71.0901 112.076 71.7192C111.08 72.0621 111.46 73.4742 112.492 73.2879C113.688 73.0746 115.413 73.215 117.093 73.161C118.032 73.4418 119.077 73.9467 119.061 74.7729C119.039 75.8395 117.028 76.5847 116.131 76.8574C115.194 77.1436 114.249 77.23 113.291 77.1868C113.053 77.1652 112.826 77.1517 112.624 77.1382C111.571 77.0869 111.62 78.6421 112.629 78.7501C112.88 78.7771 113.137 78.7933 113.388 78.8014C115.27 78.9607 118.372 79.4899 118.821 81.3152C119.234 83.0189 117.165 83.9477 115.88 83.9909C114.754 84.026 113.609 83.6777 112.529 83.3888C112.249 83.3105 112.022 83.3942 111.871 83.5454C111.8 81.9632 111.701 80.3864 111.641 78.8068C111.514 75.4939 111.42 72.1782 111.339 68.8625C111.182 62.6686 111.123 56.4719 111.147 50.278C111.363 50.494 111.698 50.5993 112.062 50.4211C113.593 49.6894 115.664 50.4859 116.229 52.1194C116.828 53.861 115.392 55.3919 113.774 55.6916C113.267 55.6322 112.772 55.6079 112.313 55.6349C111.428 55.6781 111.209 56.9741 112.111 57.2037C112.667 57.3414 113.242 57.363 113.801 57.2901C115.348 57.5034 116.806 58.1757 117.881 59.3745C119.277 60.9351 118.602 62.8333 116.666 63.376C115.899 63.5893 115.084 63.592 114.282 63.5569C114.017 63.5407 113.753 63.5272 113.501 63.5191C112.443 63.484 112.457 65.1094 113.507 65.158C113.615 65.1661 113.728 65.1661 113.844 65.1715C115.432 65.2201 117.114 65.2876 118.548 66.0247C119.852 66.6917 121.153 68.3063 120.646 69.875L120.643 69.8804Z" fill="#6083B3"/>
<mask id="mask0_1091_2947" style="mask-type:luminance" maskUnits="userSpaceOnUse" x="36" y="13" width="71" height="73">
<path d="M106.862 85.7301C95.0194 84.6122 83.0879 84.4124 71.2265 85.3008C65.1082 85.7598 59.1438 85.857 53.0281 85.3521C47.682 84.9093 41.7689 83.9561 36.4417 85.1577C36.7117 84.0614 36.6901 82.8653 36.7765 81.7448C36.898 80.1571 37.0114 78.5668 37.1221 76.9792C37.33 74.028 37.5298 71.0795 37.7161 68.1257C38.1022 61.9911 38.4397 55.8566 38.7313 49.7221C39.2956 37.7527 39.7843 25.7536 39.8923 13.7654C42.3494 14.273 44.9738 14.3972 47.4498 14.6591C50.3146 14.9615 53.182 15.245 56.0495 15.4988C61.7817 16.0064 67.5301 16.4384 73.2813 16.6436C84.3326 17.0433 95.4677 16.5005 106.325 14.2973C106.252 26.2883 106.168 38.2792 106.233 50.2702C106.262 56.1968 106.327 62.1235 106.424 68.0501C106.519 73.9065 106.376 79.8817 106.862 85.7247V85.7301Z" fill="white"/>
</mask>
<g mask="url(#mask0_1091_2947)">
<path d="M82.7614 71.6602C76.3866 70.2751 71.8262 69.195 71.8262 69.195L74.402 61.4972L77.5881 62.2019L111.22 69.6297L99.7232 48.3209C99.7232 48.3209 95.6596 48.5126 94.4743 45.3319C94.4743 45.3319 93.2889 42.5913 92.0874 40.0668C90.8859 37.5422 93.2458 35.3363 94.1395 38.174C95.2546 41.6814 96.934 40.6122 96.934 40.6122C96.934 40.6122 97.4848 37.9553 96.7963 36.095C96.1078 34.2265 94.1773 35.4929 93.081 35.9195C91.9902 36.3488 91.2612 34.6181 92.2602 33.8404C93.2538 33.0628 95.0224 32.323 96.1321 31.7344C97.2472 31.1431 98.4326 33.7918 98.4326 33.7918C98.4326 33.7918 98.5487 30.0685 99.2831 28.4862C99.9878 26.9526 101.008 29.0154 101.076 29.1585C101.076 29.0937 101.103 28.3431 102.442 28.5753C103.838 28.8129 102.888 33.7648 102.888 33.7648C102.888 33.7648 104.111 30.9973 106.082 31.1728C108.056 31.3483 104.284 35.7656 103.268 37.8851C102.259 40.002 104.041 44.1763 104.041 44.1763C108.533 52.8381 119.828 71.4334 122.244 76.0505C124.394 80.16 98.2247 75.0137 82.756 71.6602H82.7614Z" fill="#94FFD8"/>
<path opacity="0.1" d="M82.7614 71.6599C76.3866 70.2747 71.8262 69.1947 71.8262 69.1947L74.402 61.4968L77.5881 62.2015C77.5881 62.2015 82.2808 64.9151 82.7614 71.6599Z" fill="black"/>
<path d="M96.937 40.6122C97.8118 40.2639 100.585 42.5131 99.7991 44.1358" stroke="black" stroke-linecap="round" stroke-linejoin="round"/>
<path d="M101.084 29.1639C101.084 29.1639 101.214 31.3699 100.795 33.4624" stroke="black" stroke-linecap="round" stroke-linejoin="round"/>
<path d="M84.9941 90.336L54.4402 90.6033C54.7534 88.0949 55.1503 85.6595 55.5931 83.3428C57.845 71.495 61.2767 62.7279 61.2767 62.7279L74.4044 61.4993C75.4116 64.5045 76.3944 67.3504 77.334 69.9991C77.8821 71.5408 78.4113 73.0205 78.9243 74.4245C80.1772 77.8887 81.3058 80.9047 82.2427 83.3428C83.9437 87.7736 84.9968 90.336 84.9968 90.336H84.9941Z" fill="#1A7170"/>
<path opacity="0.1" d="M78.9218 74.4249C66.6825 75.9261 65.6646 71.0606 65.6646 71.0606L77.3315 70.0022C77.8796 71.5439 78.4088 73.0236 78.9218 74.4276V74.4249Z" fill="black"/>
<path d="M84.9941 90.3365L54.4402 90.6038C54.7534 88.0955 55.1503 85.66 55.5931 83.3434H82.24C83.941 87.7742 84.9941 90.3365 84.9941 90.3365Z" fill="#FCB716"/>
<path d="M98.4407 33.7941V35.5221" stroke="black" stroke-linecap="round" stroke-linejoin="round"/>
<path d="M60.0618 95.3855C60.4479 94.0354 57.4185 93.1093 57.4185 93.1093C57.4185 93.1093 60.4263 93.6088 60.6099 92.221C60.7854 90.9061 53.5466 88.8729 53.2496 89.7613C51.5971 94.697 49.1509 95.1614 49.1509 95.1614L28.3469 82.7735L58.5174 71.8167C58.5174 71.8167 64.9381 67.7693 61.2742 62.731C61.2742 62.731 10 79.4983 15.5837 82.9247C20.028 85.6518 37.6027 95.4125 45.9054 100.543C47.1609 102.373 49.3588 103.132 50.3335 102.603C51.2704 102.092 51.7132 99.7596 51.7132 99.7596C51.7132 99.7596 58.3419 101.674 58.7766 100.073C59.0898 98.9226 55.1666 97.667 55.1666 97.667C55.1666 97.667 58.62 98.8713 59.1438 97.8776C59.6676 96.884 56.1602 95.7851 56.1602 95.7851C56.1602 95.7851 59.6406 96.857 60.0591 95.3936L60.0618 95.3855Z" fill="#94FFD8"/>
<path d="M63.7369 57.6603L61.2744 62.7283C61.2744 62.7283 63.6424 63.9568 67.3739 64.2646C67.3739 64.2646 63.7774 68.1041 64.0609 71.328C64.3471 74.5519 67.3739 77.4355 67.3739 77.4355C67.3739 77.4355 70.2656 75.0136 71.4509 71.6358C72.639 68.258 70.6652 64.2646 70.6652 64.2646C70.6652 64.2646 73.1304 68.9924 76.0329 69.8538C78.9355 70.7151 81.4331 70.4073 81.4331 70.4073C81.4331 70.4073 80.1019 66.7217 78.2146 64.8802C76.3272 63.0388 72.8523 63.19 72.8523 63.19L74.4075 61.4998L71.3051 57.5577L63.7423 57.663L63.7369 57.6603Z" fill="#FCB716"/>
<path d="M67.3094 73.018C66.7343 66.897 69.7151 63.233 70.6628 64.2644C70.6628 64.2644 75.8902 65.8494 78.4012 68.5548" stroke="black" stroke-linecap="round" stroke-linejoin="round"/>
<path d="M72.847 63.1874C72.847 63.1874 72.2935 63.6519 71.5996 63.7896" stroke="black" stroke-linecap="round" stroke-linejoin="round"/>
<path d="M85.7014 46.0173C82.4883 48.5797 77.5094 50.71 77.5094 50.71C77.5094 50.71 72.8086 57.8031 72.9328 60.0036C66.6633 67.3073 62.3621 60.4032 62.4053 60.0792C63.4961 51.809 57.1807 22.3243 57.1807 22.3243C57.1807 22.3243 61.1903 23.5852 66.7659 30.1329C68.5506 29.8737 71.5477 29.493 71.5477 29.493C71.5477 29.493 71.9284 23.6581 72.6466 21.2524C75.9515 25.0136 81.4758 33.3108 84.3163 41.2058C84.4837 41.6513 84.6376 42.0914 84.778 42.5343C84.9616 43.1013 85.129 43.671 85.2748 44.2299C85.4395 44.8293 85.5826 45.4314 85.7014 46.0173Z" fill="#94FFD8"/>
<path d="M66.6013 34.094L67.3438 35.6951" stroke="#1E4D4C" stroke-linecap="round" stroke-linejoin="round"/>
<path d="M68.4182 33.2598L68.8367 34.6747" stroke="#1E4D4C" stroke-linecap="round" stroke-linejoin="round"/>
<path d="M69.917 35.3955L70.3868 33.5379" stroke="#1E4D4C" stroke-linecap="round" stroke-linejoin="round"/>
<path d="M71.7934 39.8596C72.957 38.465 72.7698 36.3912 71.3751 35.2276C69.9805 34.064 67.9067 34.2513 66.7431 35.6459C65.5795 37.0405 65.7668 39.1143 67.1614 40.2779C68.556 41.4415 70.6298 41.2542 71.7934 39.8596Z" fill="#ECECEC"/>
<path d="M70.8522 39.207C71.6267 38.0458 71.3131 36.4766 70.1519 35.7022C68.9907 34.9277 67.4215 35.2413 66.6471 36.4025C65.8727 37.5637 66.1862 39.1329 67.3474 39.9073C68.5086 40.6817 70.0778 40.3682 70.8522 39.207Z" fill="black"/>
<path d="M75.6167 32.8896L76.2566 34.5367" stroke="#1E4D4C" stroke-linecap="round" stroke-linejoin="round"/>
<path d="M77.4851 32.1745L77.8118 33.6136" stroke="#1E4D4C" stroke-linecap="round" stroke-linejoin="round"/>
<path d="M78.8433 34.4021L79.4319 32.5769" stroke="#1E4D4C" stroke-linecap="round" stroke-linejoin="round"/>
<path d="M81.2217 37.391C81.4883 35.5944 80.248 33.9219 78.4513 33.6553C76.6547 33.3887 74.9822 34.629 74.7156 36.4257C74.449 38.2223 75.6894 39.8948 77.486 40.1614C79.2826 40.428 80.9551 39.1876 81.2217 37.391Z" fill="#ECECEC"/>
<path d="M65.9966 38.0738C65.8211 36.2675 67.1414 34.6583 68.9505 34.4828C70.7595 34.3073 72.3661 35.6276 72.5416 37.4366" stroke="#1E4D4C" stroke-linecap="round" stroke-linejoin="round"/>
<path d="M74.6931 37.2263C74.5176 35.42 75.838 33.8107 77.647 33.6352C79.4533 33.4597 81.0626 34.78 81.2381 36.5891" stroke="#1E4D4C" stroke-linecap="round" stroke-linejoin="round"/>
<path d="M80.0454 37.1186C80.1363 35.7049 79.064 34.4851 77.6503 34.3942C76.2366 34.3033 75.0168 35.3756 74.9259 36.7894C74.8349 38.2031 75.9073 39.4228 77.321 39.5138C78.7347 39.6047 79.9545 38.5323 80.0454 37.1186Z" fill="black"/>
<path d="M76.0406 41.4788C76.0406 41.4788 76.6346 42.8127 76.8101 44.0493C75.6788 47.3137 73.8022 43.5849 73.8022 43.5849" stroke="#1E4D4C" stroke-linecap="round" stroke-linejoin="round"/>
<path d="M76.9395 44.1571C76.9395 44.1571 79.5909 46.0741 78.7917 42.9097" stroke="#1E4D4C" stroke-linecap="round" stroke-linejoin="round"/>
<path d="M77.1911 40.5663L73.9321 40.885C73.9321 40.885 76.7429 42.8047 77.1911 40.5663Z" fill="#003442"/>
<path d="M65.7992 30.5788C65.7992 30.5788 60.7879 31.7506 60.1264 31.9504C59.1732 26.3667 59.0085 24.2039 59.0085 24.2039C59.0085 24.2039 63.1558 26.7501 65.7992 30.5788Z" fill="#1A7170"/>
<path d="M72.9299 29.5121L77.3958 29.0774C77.3958 29.0774 74.2017 24.174 73.3673 23.3613C72.9596 25.3567 72.9299 29.5121 72.9299 29.5121Z" fill="#1A7170"/>
<path d="M77.8118 41.8274C77.8118 41.8274 82.3938 40.696 86.5276 40.7338" stroke="#1E4D4C" stroke-linecap="round" stroke-linejoin="round"/>
<path d="M78.1956 42.567C78.1956 42.567 83.7226 41.9514 88.0535 42.4968" stroke="#1E4D4C" stroke-linecap="round" stroke-linejoin="round"/>
<path d="M74.5829 42.2835C74.5829 42.2835 69.7093 42.1512 65.9805 43.4553" stroke="#1E4D4C" stroke-linecap="round" stroke-linejoin="round"/>
<path d="M75.1604 43.2472C75.1604 43.2472 69.852 43.9087 66.3555 45.8689" stroke="#1E4D4C" stroke-linecap="round" stroke-linejoin="round"/>
<path d="M52.8499 42.7314C52.8499 42.7314 48.0087 46.2928 49.0131 50.1377C50.0149 53.9799 56.7002 52.0304 56.7002 52.0304C56.7002 52.0304 56.8109 54.8277 60.5991 55.3839C64.39 55.9401 68.1188 55.1328 68.2862 47.975C68.2862 47.975 67.4519 49.2008 64.5547 47.7508C61.6575 46.3036 60.9231 35.822 61.5576 33.6133C61.5576 33.6133 71.8286 32.3092 73.9536 30.1357C73.9536 30.1357 77.3908 32.5684 80.2528 32.4199C80.2528 32.4199 78.5356 28.4211 77.9794 27.1953C77.4232 25.9695 56.8136 26.8227 53.9165 30.8512C52.3882 32.9761 52.8526 42.726 52.8526 42.726L52.8499 42.7314Z" fill="#6083B3"/>
</g>
</svg>
