<?xml version="1.0" encoding="UTF-8"?>
<svg xmlns="http://www.w3.org/2000/svg" xmlns:xlink="http://www.w3.org/1999/xlink" viewBox="0 0 506.27 469.89">
  <defs>
    <style>
      .cls-1, .cls-2 {
        opacity: .7;
      }

      .cls-3 {
        fill: #37b34a;
      }

      .cls-3, .cls-4, .cls-5, .cls-6, .cls-7, .cls-8, .cls-9, .cls-10, .cls-11, .cls-2, .cls-12, .cls-13, .cls-14 {
        stroke-width: 0px;
      }

      .cls-4 {
        fill: #b4e1fa;
      }

      .cls-5 {
        fill: #6083b3;
      }

      .cls-5, .cls-15 {
        opacity: .75;
      }

      .cls-5, .cls-14 {
        mix-blend-mode: screen;
      }

      .cls-16 {
        isolation: isolate;
      }

      .cls-6 {
        fill: #f4f5f5;
      }

      .cls-17 {
        stroke: #94ffd8;
        stroke-linecap: round;
        stroke-linejoin: round;
      }

      .cls-17, .cls-7 {
        fill: none;
      }

      .cls-8, .cls-12 {
        fill: #85d7df;
      }

      .cls-9, .cls-2 {
        fill: #fff;
      }

      .cls-10 {
        fill: #fbb616;
      }

      .cls-11 {
        fill: #231f20;
      }

      .cls-18 {
        clip-path: url(#clippath);
      }

      .cls-12 {
        opacity: 0;
      }

      .cls-13 {
        fill: #94ffd8;
      }

      .cls-19 {
        opacity: .25;
      }

      .cls-14 {
        fill: #72a4a6;
        opacity: .5;
      }
    </style>
    <clipPath id="clippath">
      <circle class="cls-7" cx="269.14" cy="309.93" r="153.2" transform="translate(-140.32 281.08) rotate(-45)"/>
    </clipPath>
  </defs>
  <g class="cls-16">
    <g id="pop_up_wall_1">
      <g>
        <g class="cls-15">
          <circle class="cls-8" cx="269.14" cy="309.93" r="153.2" transform="translate(-140.32 281.08) rotate(-45)"/>
          <path class="cls-14" d="m364.32,200.42c15.39,26.38,25.53,56.28,23.82,86.63-2.7,48.02-39.71,90.47-88.89,92.09-16.62.55-34.31-.36-48.62,8.1-8.17,4.83-14.52,12.38-22.82,16.98-11.11,6.16-24.31,6.06-36.46,1.93-7.83-2.67-15.23-7.01-21.36-12.44-12.24-10.86-25.89-28.25-26.68-45.35-.47-10.26,7.11-12.13,12.23-4.29,3.61,5.52,5.2,12.09,8.53,17.73,6.43,10.88,15.76,21.18,29.54,20.42,24.55-1.34,30.66-30.75,34.39-49.74,6.96-35.37,28.31-61.35,56.23-83.16,18.69-14.6,44-35.94,66.1-20.13,2.91,2.08,14.13,19.55,11.82-.22-1.93-16.59-12.59-31.5-26.68-40.48-6.48-4.13-58.35-24.33-50.65-2.95,5.6,15.56,15.67,24.89,7.12,42-.52,1.04-1.13,2.01-1.71,3.02,3.43-9.2,2.65-17.97-1.05-25.56-11.11-22.84-45.13-31.03-67.81-23.49-59.52,19.78-107.42,88.18-96.25,151.62,12.24,69.5,72.93,122.47,143.99,122.47,80.28,0,145.36-65.08,145.36-145.36,0-43.86-19.45-83.15-50.17-109.8Z"/>
          <path class="cls-9" d="m176.69,196.58c-21.61,17.55-40.36,48.81-46.5,74.61-7.54,31.69-4.53,64.88-4.53,64.88,0,0-3.02-58.85,37.73-104.13,14.48-16.09,32.43-29.04,52.59-37,8.26-3.26,54.36-8.08,33.02-21.78-17.15-11.01-53.12,9.63-67.63,19.86-1.57,1.11-3.14,2.3-4.69,3.56Z"/>
          <path class="cls-14" d="m367.72,242.79c-8.4-.99-3.65,17.78,4.23,11.96,2.16-1.59,2.09-4.91,1.02-7.37-.98-2.23-2.83-4.3-5.25-4.59Z"/>
          <g class="cls-1">
            <path class="cls-4" d="m400.88,302.48c-2.32,24.52-10.2,48.53-23.07,69.54-10.69,17.44-37.03,37.47-58.24,39.62-7.21.73-55.8.34-72.45,10.39-2.81,1.7-6.52,4.31-6.52,7.97,0,3.57,3.33,6.2,5.26,8.71,1.56,2.02,1.47,5.14-.2,7.08-5.22,6.03-31.15-6.46-37.04-9.46-45.61-23.27-58.64-42.82-72.61-67.95,0,0,12.1,38.16,66.09,70.74,53.99,32.58,118.22,7.45,118.22,7.45-2.49.97-19.56,3.85-20.89,1.22-.16-.31-.05-.68.09-1,1.63-3.65,8.29-3.55,11.72-4.66,4.49-1.45,8.88-3.2,13.12-5.25,8.3-4,16.04-9.1,23.05-15.07,14.23-12.1,25.32-27.56,33.6-44.23,11.57-23.32,17.96-49.19,19.88-75.09Z"/>
            <path class="cls-4" d="m401.18,275.3c.5,8.85.39,17.97-.29,27.17.86-9.03.98-18.13.29-27.17Z"/>
          </g>
          <path class="cls-2" d="m235.13,424.55c-.09.48-.37.94-.74,1.29-3,2.83-9.73,1.32-12.49-1.16-.37-.34-.73-.75-.76-1.26-.02-.4.17-.79.41-1.11,2.82-3.65,8.66-1.97,11.95-.14.69.38,1.41.88,1.61,1.65.06.24.06.49.02.73Z"/>
        </g>
        <g>
          <g>
            <path class="cls-10" d="m360.64,386.49l-5.96-10.42,10.91,4.93-4.87-6.5c-.43-.38-.86-.76-1.3-1.14-.05-.05-.09-.09-.13-.12-.42-.39-.83-.79-1.23-1.18-1.87-1.83-3.62-3.78-5.23-5.83-.37-.47-.72-.95-1.07-1.44,1.63,2.23.27.45-.05-.05-.44-.7-.87-1.42-1.3-2.13v-.07c-.23-.41-.47-.81-.71-1.22-1.45-2.5-2.82-5.05-4.14-7.63-2.49-4.82-5.03-9.67-7.09-14.68-.26-.63-.51-1.26-.76-1.89-.24-.61-1.12-2.04-1.46-2.56-.46-.79-.9-1.6-1.33-2.4-1.29-2.41-2.5-4.85-3.97-7.17-.45-.7-.91-1.4-1.36-2.11.81,1.19.98,1.3.51.32-.26-.63-.51-1.27-.76-1.9-.09-.21-.17-.42-.25-.63.63,2,.49,1.6-.41-1.22-.2-.55-.42-1.06-.68-1.58-.75-1.47-1.78-2.91-2.82-4.22-.02-.03-.03-.07-.05-.11-.36-.76-.71-1.52-1.05-2.28-2.06-4.61-3.8-9.36-5.51-14.1-.45-1.24-.91-2.47-1.37-3.7-.23-.6-.46-1.19-.69-1.79.93,2.38.32.61.23-.12-.16-1.3-.21-2.6-.42-3.9-.08-.46-.17-.93-.28-1.4.08,0,.04-.41-.36-1.16-.14-.83-.31-1.63-.53-2.4-.71-4.76-4.37-8.3-9.49-8.81-4.32-.43-8.53,2.33-10.02,6.37-1.05,2.86-.67,5.77.74,8.2.09.59.16,1.19.33,1.76.11.35.23.71.34,1.06,0,0,0-.02-.01-.03.14.64.18,1.3.25,1.95.22,2.23.43,4.17,1.28,6.31,1.96,4.98,3.66,10.05,5.64,15.02.84,2.11,1.72,4.21,2.66,6.28.79,1.74,1.6,3.43,2.84,4.9.22.26.43.53.65.79.26.68.8,2.02,1.02,2.58.25.64.5,1.27.76,1.9.25.63.51,1.27.76,1.9.22.34.44.69.66,1.03,0,0,.11.2.33.56,1.42,2.34,2.6,4.82,3.91,7.22.91,1.65,1.93,3.23,2.96,4.81-1.48-2.26-.48-.23-.26.31.25.62.51,1.24.76,1.85,1.06,2.55,2.35,4.98,3.56,7.44,2.47,5,5,9.97,7.83,14.78,1.08,1.83,2.2,3.6,3.39,5.31v.06c2.08,3,4.38,5.81,7.02,8.43,3.5,3.47,7.23,6.9,11.29,9.76l-5.77-10.6v-.04s12.02,2.67,12.02,2.67Z"/>
            <path class="cls-6" d="m359.35,397.52c2.59,2.28,5.58,3.74,9.11,4.33,5.27.9,10.17-3.95,10.59-8.93.41-4.81-2.53-8.45-6.66-9.98-.04-.03-.08-.06-.12-.1-.45-.44-.92-.87-1.42-1.26-.39-.2-.77-.4-1.15-.6-.06-.03-.25-.14-.56-.31-2.43-1.37-4.7-3.03-6.84-4.82-.53-.44-1.05-.89-1.57-1.35l4.87,6.5-10.91-4.93,5.96,10.42-12.05-2.68,5.79,10.65c.77.54,1.55,1.07,2.35,1.56.85.53,1.73,1.02,2.61,1.49Z"/>
            <path class="cls-6" d="m374.78,383.91c-5.62-3.31-14.29-9.71-14.29-9.71l.22.3c.52.45,1.04.91,1.57,1.35,2.14,1.79,4.41,3.45,6.84,4.82.31.17.5.28.56.31.38.2.76.4,1.15.6.5.39.97.82,1.42,1.26.04.04.08.07.12.1,4.12,1.53,7.07,5.17,6.66,9.98-.42,4.98-5.32,9.83-10.59,8.93-3.53-.59-6.52-2.05-9.11-4.33-.89-.47-1.76-.96-2.61-1.49-.8-.5-1.58-1.02-2.35-1.56l.13.24c4.99,5.14,15.28,11.92,21.52,5.12,6.24-6.79,4.37-12.61-1.25-15.92Z"/>
          </g>
          <path class="cls-10" d="m210.59,160.99l-.83,134.66-3.8,18.09c15.42,3.06,30.87,5.77,46.37,8.09l7.43-20.29,13.17,1.24,3,22.29c13.15,1.63,26.32,2.97,39.52,4.03l-2.73-168.1h-102.13Z"/>
          <g>
            <path class="cls-10" d="m279.51,392.26c-20.67,13.38-19.32,31.46-19.32,31.46l55.95-32.59-3.96-44.45c-8.64,3.17-29.51,5.89-33.14,9.69l.48,35.9Z"/>
            <path class="cls-6" d="m314.95,377.75l1.19,13.38-16.33,9.54s-3.66-17.21,15.14-22.92Z"/>
          </g>
          <g>
            <path class="cls-10" d="m192.18,391.98c-23.31,7.93-26.42,25.79-26.42,25.79l62.22-17.94,7.01-44.07c-9.16.96-30.06-1.5-34.5,1.31l-8.3,34.93Z"/>
            <path class="cls-6" d="m230.09,386.56l-2.11,13.26-18.17,5.27s.65-17.58,20.28-18.53Z"/>
          </g>
          <polygon class="cls-11" points="207.75 279.98 207.75 291.38 189.23 381.16 233.4 385.43 259.76 301.55 268.39 303.43 274.72 381.16 318.18 382.58 316.76 282.12 207.75 279.98"/>
          <path class="cls-10" d="m312.88,162.08h-102.59s-12.11-59.85,17.45-103.31l16.03,30.63h39.19s14.25-24.93,35.98-28.85c0,0-10.33,72.67-6.06,101.53Z"/>
          <path class="cls-6" d="m250.51,117.19c0,4-5.85,7.24-13.06,7.24s-13.06-3.24-13.06-7.24,5.84-7.24,13.06-7.24,13.06,3.25,13.06,7.24Z"/>
          <path class="cls-6" d="m296.82,117.19c0,4-5.85,7.24-13.07,7.24s-13.06-3.24-13.06-7.24,5.85-7.24,13.06-7.24,13.07,3.25,13.07,7.24Z"/>
          <path class="cls-6" d="m256.93,122.42l9.5-.24,3.85,10.53s-6.58,7.64-17.27.16l3.92-10.45Z"/>
          <polygon class="cls-3" points="275.89 87.74 266.09 104.96 263.71 104.96 271.43 87.45 275.89 87.74"/>
          <polygon class="cls-3" points="266.39 87.45 261.04 98.43 261.04 87.15 266.39 87.45"/>
          <polygon class="cls-3" points="258.07 87.15 258.66 104.66 256 104.66 253.91 87.15 258.07 87.15"/>
          <path class="cls-3" d="m244.11,117.19c0,3.8-3.08,6.89-6.89,6.89s-6.89-3.08-6.89-6.89,3.08-6.89,6.89-6.89,6.89,3.08,6.89,6.89Z"/>
          <path class="cls-3" d="m290.19,117.19c0,3.8-3.09,6.89-6.89,6.89s-6.88-3.08-6.88-6.89,3.08-6.89,6.88-6.89,6.89,3.08,6.89,6.89Z"/>
          <path class="cls-11" d="m237.02,110.31s-6.6,5.42.33,13.78c0,0,7-9.75-.33-13.78Z"/>
          <path class="cls-11" d="m282.99,110.34s-5.77,5.76.43,13.68c0,0,6.72-8.91-.43-13.68Z"/>
          <path class="cls-3" d="m290.45,89.88h17.33l-9.03-1.66,7.84-7.36-9.98,5.94,5.7-11.16s-9.5,5.22-11.87,14.25Z"/>
          <polygon class="cls-3" points="235.82 88.93 218.72 88.93 227.98 87.27 222.76 80.62 230.12 84.9 227.75 73.73 235.82 88.93"/>
          <path class="cls-3" d="m261.26,124.73c-.52,2.09-2.41,3.65-4.66,3.65-.84,0-1.63-.22-2.33-.6l-.31,1.04c.79.4,1.68.63,2.64.63,3.19,0,5.8-2.57,5.86-5.75l-1.21,1.02Z"/>
          <path class="cls-3" d="m262.06,124.73c.52,2.09,2.41,3.65,4.66,3.65.84,0,1.64-.22,2.32-.6l.32,1.04c-.79.4-1.69.63-2.64.63-3.19,0-5.8-2.57-5.87-5.75l1.21,1.02Z"/>
          <path class="cls-11" d="m258.84,120.76l2.61,5.46,3.8-5.46c-4.04-2.85-6.41,0-6.41,0Z"/>
          <path class="cls-11" d="m287.42,102.36c-11.31.14-21.07,4.61-25.54,5.16-4.47.56-11.72-4.74-26.09-5.3-14.37-.56-23.58,2.23-23.58,2.23-.42,5.16.7,6.14.7,6.14,3.49.98,3.21,7.26,3.63,9.35.42,2.09,1.4,14.59,17.02,15.49,14.51.84,18.17-6.91,21.21-13.54,2.17-4.73,3.63-9.07,3.63-9.07,0,0,.42-3.07,3.35-3.07s2.93,2.37,2.93,2.37c2.65,10.75,6.69,23.03,24.42,23.58,17.72.56,18.14-15.49,18.42-19.81.28-4.33,3.35-5.58,3.35-5.58v-5.58s-12.14-2.51-23.44-2.37Zm-51.77,31.12c-15.21-.56-15.63-6.7-16.46-15.21-.84-8.51,0-14.51,16.04-13.54,7.4.45,18.28.98,18.98,6.84.69,5.86-3.35,22.47-18.56,21.91Zm53.73.28c-12.42.42-17.86-7.4-19.95-18-2.09-10.61,7.82-11.02,15.49-11.16,11.31-.21,19.4-.7,19.4,10.75s-2.51,18-14.93,18.42Z"/>
          <path class="cls-10" d="m201.24,270.7c-5.31-.8-9.65,10.41-14.57,8.3-1.11,2.57-4.71,11.2-6.56,18.96-1.06,4.43-2.54,8.18-3.44,9.97-2.42,4.82.28,4.35,2.93,7.05,0,0,10.71.41,12.62-.25,1.91-.65,11.69-13.92,11.86-19.8.09-3.08,2.8-19.72,2.95-23.62-.75-.11-5.04-.5-5.79-.61Z"/>
          <path class="cls-11" d="m209.89,163.14s-29.23,95.92-32.81,129.38l32.81,5.97,10.06-113.34-10.06-22.01Z"/>
          <path class="cls-11" d="m313.36,156.83c-.1-.07-.16-.1-.16-.1-58.31,38.2-98.33,10.2-102.87,6.75,0,15.49.7,32.42-6.18,45.72l-7.08,70.78,121.88,7.46c0-.08,14.06-74.2-5.58-130.62Z"/>
          <path class="cls-13" d="m265.16,267.29l-12.25,12.16-9.11-17.85c3.71-25.72,7.42-51.45,11.13-77.17-.84-2.15-1.69-4.31-2.53-6.46.24-.28.49-.56.72-.84.34-.38.67-.77,1-1.15,2.85-.18,5.7-.36,8.55-.54.44.34.88.67,1.32,1.01.41.31.83.63,1.24.94-1.3,2.33-2.6,4.65-3.9,6.98l3.83,82.93Z"/>
          <polygon class="cls-3" points="254.52 175.44 251.31 187.74 209.89 163.14 254.52 175.44"/>
          <polygon class="cls-3" points="263.07 174.91 263.6 188.27 313.2 156.73 263.07 174.91"/>
          <g>
            <path class="cls-10" d="m312.41,235.34c-2.82-4.57-11.7-2.78-13.27-7.9-2.67.81-14.07,5.76-21.2,9.36-4.07,2.05-7.89,3.34-9.84,3.81-5.25,1.26-3.14,3.03-3.49,6.79,0,0,6.6,8.44,8.34,9.48s18.17-.06,22.78-3.73c2.41-1.92,16.87-10.6,19.95-13-.4-.64-2.87-4.18-3.27-4.82Z"/>
            <path class="cls-11" d="m289.86,177.12l27.41,33.98-31.27,17.5,19.26,25.8s55.01-18.85,57-32.81c1.99-13.95-47.84-60.35-47.84-60.35l-24.56,15.88Z"/>
            <polyline class="cls-17" points="308.68 197.08 315.43 208.23 287.13 226.53"/>
          </g>
          <line class="cls-17" x1="211.48" y1="209.42" x2="197.06" y2="296.16"/>
        </g>
        <g class="cls-18">
          <path class="cls-5" d="m374.78,383.91c-5.62-3.31-14.29-9.71-14.29-9.71l.22.3,2.43,3.25-2.43-3.25c-.43-.38-.86-.76-1.29-1.14-.05-.05-.09-.09-.13-.12-.42-.39-.83-.79-1.23-1.18-1.87-1.83-3.62-3.78-5.23-5.83-.37-.47-.72-.95-1.07-1.44,1.63,2.23.27.45-.05-.05-.44-.7-.87-1.42-1.3-2.13v-.07c-.23-.41-.47-.81-.71-1.22-1.45-2.5-2.82-5.05-4.14-7.63-2.49-4.82-5.03-9.67-7.09-14.68-.26-.63-.51-1.26-.76-1.89-.24-.61-1.12-2.04-1.46-2.56-.46-.79-.9-1.6-1.33-2.4-1.29-2.41-2.5-4.85-3.97-7.17-.45-.7-.91-1.4-1.36-2.11.81,1.19.98,1.3.51.32-.25-.63-.51-1.27-.76-1.9-.09-.21-.17-.42-.25-.63.63,2,.49,1.6-.42-1.22-.2-.55-.42-1.06-.68-1.58-.75-1.47-1.78-2.91-2.82-4.22-.02-.03-.03-.07-.05-.11-.36-.76-.71-1.52-1.05-2.28-2.06-4.61-3.8-9.36-5.51-14.1-.45-1.24-.91-2.47-1.37-3.7-.1-.25-.19-.5-.29-.76v-.04c.19.43.1.11,0-.33l-.07-5.02,2.11.13s3.13-16.58,4.37-39.97c16.23-6.76,37.72-17.25,38.95-25.88,1.87-13.09-41.86-54.72-47.29-59.83-.51-1.66-1.05-3.3-1.62-4.93-.1-.07-.16-.1-.16-.1-.29.19-.57.36-.86.55,0,0,0,0,0,0l.86-.55-.88.32c-2.62-31.45,6.62-96.49,6.62-96.49-21.73,3.92-35.98,28.85-35.98,28.85h-8.02l.95-1.66-4.46-.3-.86,1.96h-5.14l.95-1.96-5.34-.3v2.25h-2.89l-.08-2.25h-4.16l.27,2.25h-10.41l-16.03-30.63c-29.57,43.46-17.45,103.31-17.45,103.31h.29v1.25s-.69-.19-.69-.19l.69.41v.12c-.09-.07-.18-.13-.25-.19,0,.2,0,.41,0,.62l-.44-.96s-29.23,95.92-32.81,129.38l4.31.78c-.47,1.55-.91,3.12-1.27,4.65-1.06,4.43-2.54,8.18-3.44,9.97-2.42,4.82.28,4.35,2.93,7.05,0,0,10.71.4,12.62-.25,1.68-.57,9.44-10.9,11.41-17.39l2.79.51-17.19,83.3,5.4.52-2.45,10.3c-23.31,7.93-26.42,25.79-26.42,25.79l44.05-12.7s0,.03,0,.03l18.09-5.25.08-.02,1.98-12.44.13-.82h0l.23-1.43,3.08.3,26.36-83.88,8.64,1.89,6.33,77.72,4.65.15.15,10.95c-20.67,13.38-19.32,31.46-19.32,31.46l39.61-23.07s0,.03,0,.03l16.22-9.48.11-.06-.77-8.64,2.81.09-.59-41.31c.08.15.15.29.23.44.91,1.65,1.93,3.23,2.96,4.81-1.48-2.26-.47-.23-.26.31.25.62.51,1.24.76,1.85,1.06,2.55,2.35,4.98,3.56,7.45,2.47,5,5,9.97,7.83,14.78,1.08,1.83,2.2,3.6,3.39,5.31v.06c2.08,3,4.38,5.81,7.02,8.43,3.5,3.47,7.23,6.9,11.29,9.76h0l.13.24c4.99,5.14,15.28,11.92,21.52,5.12,6.24-6.79,4.37-12.61-1.25-15.92Zm-14.15,2.58l-5.52-1.23,5.52,1.23h0Zm4.95-5.49h0l-5.46-2.47,5.46,2.47Zm-10.91-4.93l2.98,5.21-2.98-5.21h0Z"/>
        </g>
        <g class="cls-19">
          <circle class="cls-12" cx="269.14" cy="309.93" r="153.2" transform="translate(-140.32 281.08) rotate(-45)"/>
          <path class="cls-14" d="m364.32,200.42c15.39,26.38,25.53,56.28,23.82,86.63-2.7,48.02-39.71,90.47-88.89,92.09-16.62.55-34.31-.36-48.62,8.1-8.17,4.83-14.52,12.38-22.82,16.98-11.11,6.16-24.31,6.06-36.46,1.93-7.83-2.67-15.23-7.01-21.36-12.44-12.24-10.86-25.89-28.25-26.68-45.35-.47-10.26,7.11-12.13,12.23-4.29,3.61,5.52,5.2,12.09,8.53,17.73,6.43,10.88,15.76,21.18,29.54,20.42,24.55-1.34,30.66-30.75,34.39-49.74,6.96-35.37,28.31-61.35,56.23-83.16,18.69-14.6,44-35.94,66.1-20.13,2.91,2.08,14.13,19.55,11.82-.22-1.93-16.59-12.59-31.5-26.68-40.48-6.48-4.13-58.35-24.33-50.65-2.95,5.6,15.56,15.67,24.89,7.12,42-.52,1.04-1.13,2.01-1.71,3.02,3.43-9.2,2.65-17.97-1.05-25.56-11.11-22.84-45.13-31.03-67.81-23.49-59.52,19.78-107.42,88.18-96.25,151.62,12.24,69.5,72.93,122.47,143.99,122.47,80.28,0,145.36-65.08,145.36-145.36,0-43.86-19.45-83.15-50.17-109.8Z"/>
          <path class="cls-9" d="m176.69,196.58c-21.61,17.55-40.36,48.81-46.5,74.61-7.54,31.69-4.53,64.88-4.53,64.88,0,0-3.02-58.85,37.73-104.13,14.48-16.09,32.43-29.04,52.59-37,8.26-3.26,54.36-8.08,33.02-21.78-17.15-11.01-53.12,9.63-67.63,19.86-1.57,1.11-3.14,2.3-4.69,3.56Z"/>
          <path class="cls-14" d="m367.72,242.79c-8.4-.99-3.65,17.78,4.23,11.96,2.16-1.59,2.09-4.91,1.02-7.37-.98-2.23-2.83-4.3-5.25-4.59Z"/>
          <g class="cls-1">
            <path class="cls-4" d="m400.88,302.48c-2.32,24.52-10.2,48.53-23.07,69.54-10.69,17.44-37.03,37.47-58.24,39.62-7.21.73-55.8.34-72.45,10.39-2.81,1.7-6.52,4.31-6.52,7.97,0,3.57,3.33,6.2,5.26,8.71,1.56,2.02,1.47,5.14-.2,7.08-5.22,6.03-31.15-6.46-37.04-9.46-45.61-23.27-58.64-42.82-72.61-67.95,0,0,12.1,38.16,66.09,70.74,53.99,32.58,118.22,7.45,118.22,7.45-2.49.97-19.56,3.85-20.89,1.22-.16-.31-.05-.68.09-1,1.63-3.65,8.29-3.55,11.72-4.66,4.49-1.45,8.88-3.2,13.12-5.25,8.3-4,16.04-9.1,23.05-15.07,14.23-12.1,25.32-27.56,33.6-44.23,11.57-23.32,17.96-49.19,19.88-75.09Z"/>
            <path class="cls-4" d="m401.18,275.3c.5,8.85.39,17.97-.29,27.17.86-9.03.98-18.13.29-27.17Z"/>
          </g>
          <path class="cls-2" d="m235.13,424.55c-.09.48-.37.94-.74,1.29-3,2.83-9.73,1.32-12.49-1.16-.37-.34-.73-.75-.76-1.26-.02-.4.17-.79.41-1.11,2.82-3.65,8.66-1.97,11.95-.14.69.38,1.41.88,1.61,1.65.06.24.06.49.02.73Z"/>
        </g>
      </g>
    </g>
  </g>
</svg>