<?xml version="1.0" encoding="UTF-8"?>
<svg xmlns="http://www.w3.org/2000/svg" viewBox="0 0 506.27 469.89">
  <defs>
    <style>
      .cls-1, .cls-2 {
        opacity: .7;
      }

      .cls-3 {
        fill: #37b34a;
      }

      .cls-3, .cls-4, .cls-5, .cls-6, .cls-7, .cls-8, .cls-9, .cls-10, .cls-2, .cls-11, .cls-12, .cls-13 {
        stroke-width: 0px;
      }

      .cls-4 {
        fill: #b4e1fa;
      }

      .cls-5 {
        fill: #6083b3;
      }

      .cls-5, .cls-14 {
        opacity: .75;
      }

      .cls-5, .cls-13 {
        mix-blend-mode: screen;
      }

      .cls-15 {
        isolation: isolate;
      }

      .cls-6 {
        fill: #f4f5f5;
      }

      .cls-7, .cls-11 {
        fill: #85d7df;
      }

      .cls-8, .cls-2 {
        fill: #fff;
      }

      .cls-9 {
        fill: #fbb616;
      }

      .cls-10 {
        fill: #231f20;
      }

      .cls-11 {
        opacity: 0;
      }

      .cls-12 {
        fill: #94ffd8;
      }

      .cls-16 {
        opacity: .25;
      }

      .cls-13 {
        fill: #72a4a6;
        opacity: .5;
      }
    </style>
  </defs>
  <g class="cls-15">
    <g id="pop_up_wall_1">
      <g>
        <g class="cls-14">
          <circle class="cls-7" cx="253.14" cy="234.95" r="229.04" transform="translate(-91.99 247.81) rotate(-45)"/>
          <path class="cls-13" d="m395.44,71.23c23,39.44,38.17,84.14,35.62,129.52-4.04,71.79-59.37,135.26-132.89,137.68-24.84.82-51.29-.55-72.69,12.1-12.22,7.22-21.7,18.5-34.12,25.38-16.61,9.2-36.34,9.06-54.51,2.88-11.71-3.99-22.77-10.48-31.93-18.6-18.31-16.23-38.7-42.24-39.88-67.8-.7-15.34,10.63-18.13,18.28-6.41,5.39,8.26,7.77,18.08,12.75,26.51,9.62,16.27,23.57,31.66,44.16,30.53,36.71-2.01,45.83-45.97,51.42-74.36,10.41-52.88,42.33-91.72,84.07-124.33,27.94-21.83,65.78-53.73,98.83-30.1,4.35,3.11,21.12,29.23,17.68-.34-2.89-24.81-18.83-47.1-39.89-60.52-9.69-6.17-87.24-36.38-75.72-4.41,8.38,23.26,23.43,37.22,10.65,62.79-.78,1.55-1.69,3.01-2.55,4.51,5.13-13.75,3.96-26.87-1.56-38.22-16.61-34.15-67.47-46.39-101.39-35.12C92.77,72.5,21.16,174.76,37.86,269.61c18.3,103.91,109.03,183.1,215.27,183.1,120.02,0,217.32-97.3,217.32-217.32,0-65.57-29.09-124.32-75.01-164.16Z"/>
          <path class="cls-8" d="m114.92,65.49c-32.3,26.23-60.34,72.97-69.52,111.55-11.28,47.38-6.77,97-6.77,97,0,0-4.51-87.99,56.41-155.68,21.65-24.05,48.48-43.41,78.63-55.32,12.35-4.88,81.28-12.08,49.36-32.56-25.64-16.46-79.42,14.4-101.1,29.69-2.35,1.66-4.69,3.43-7.01,5.32Z"/>
          <path class="cls-13" d="m400.52,134.58c-12.56-1.48-5.46,26.59,6.33,17.88,3.23-2.38,3.13-7.35,1.52-11.02-1.46-3.33-4.23-6.43-7.85-6.86Z"/>
          <g class="cls-1">
            <path class="cls-4" d="m450.11,223.81c-3.47,36.66-15.24,72.56-34.5,103.96-15.98,26.07-55.36,56.01-87.07,59.23-10.78,1.09-83.43.5-108.31,15.54-4.2,2.54-9.75,6.45-9.75,11.91,0,5.33,4.98,9.28,7.86,13.02,2.33,3.03,2.2,7.69-.3,10.58-7.8,9.02-46.56-9.66-55.38-14.15-68.19-34.79-87.68-64.02-108.55-101.59,0,0,18.09,57.06,98.81,105.77,80.72,48.71,176.74,11.13,176.74,11.13-3.72,1.45-29.24,5.76-31.23,1.82-.23-.46-.07-1.02.14-1.49,2.44-5.45,12.39-5.31,17.52-6.96,6.71-2.17,13.27-4.79,19.62-7.85,12.41-5.97,23.98-13.61,34.46-22.53,21.27-18.09,37.86-41.2,50.23-66.12,17.3-34.86,26.85-73.54,29.72-112.27Z"/>
            <path class="cls-4" d="m450.55,183.18c.74,13.24.58,26.87-.44,40.63,1.28-13.5,1.47-27.1.44-40.63Z"/>
          </g>
          <path class="cls-2" d="m202.3,406.31c-.14.72-.56,1.41-1.1,1.92-4.49,4.23-14.55,1.98-18.67-1.73-.56-.5-1.09-1.13-1.14-1.88-.04-.6.25-1.18.62-1.65,4.21-5.45,12.95-2.95,17.87-.21,1.03.57,2.11,1.32,2.4,2.46.09.36.1.73.03,1.09Z"/>
        </g>
        <g>
          <g>
            <path class="cls-9" d="m383.62,205.86l-7.91,9.03,1.11-11.92-4.56,6.72c-.22.53-.44,1.06-.65,1.59-.03.06-.05.11-.07.16-.23.52-.47,1.04-.71,1.55-1.12,2.37-2.39,4.65-3.81,6.85-.33.5-.67.99-1.01,1.48,1.58-2.26.34-.4-.03.06-.52.65-1.06,1.29-1.59,1.92l-.07.02c-.31.36-.61.72-.92,1.08-1.89,2.19-3.86,4.31-5.86,6.4-3.75,3.92-7.5,7.9-11.57,11.48-.51.45-1.03.89-1.54,1.33-.5.43-1.57,1.73-1.95,2.21-.6.7-1.22,1.37-1.84,2.04-1.86,2-3.77,3.95-5.49,6.08-.51.66-1.03,1.31-1.55,1.97.87-1.15.91-1.35.13-.59-.52.45-1.03.89-1.55,1.33-.17.15-.34.3-.52.45,1.69-1.24,1.35-.98-1.02.79-.46.37-.87.74-1.27,1.16-1.15,1.19-2.17,2.63-3.07,4.04-.03.03-.05.05-.08.08-.6.58-1.2,1.17-1.82,1.74-3.69,3.45-7.62,6.64-11.54,9.8-1.02.83-2.04,1.66-3.06,2.5-.49.41-.98.82-1.47,1.23,1.95-1.65.47-.5-.19-.18-1.18.57-2.39,1.04-3.55,1.66-.41.22-.83.46-1.23.72-.03-.07-.4.09-.98.72-.74.4-1.44.82-2.09,1.28-4.27,2.22-6.43,6.83-5.25,11.84,1,4.23,4.98,7.31,9.28,7.4,3.05.07,5.68-1.25,7.51-3.37.53-.28,1.07-.54,1.56-.89.3-.22.6-.45.89-.67,0,0-.02.01-.02.02.56-.34,1.17-.6,1.77-.87,2.04-.93,3.8-1.76,5.55-3.27,4.07-3.48,8.31-6.73,12.37-10.22,1.72-1.48,3.42-3,5.07-4.56,1.38-1.31,2.72-2.63,3.71-4.28.18-.29.36-.58.54-.87.56-.46,1.65-1.41,2.11-1.81.52-.44,1.04-.89,1.55-1.34.52-.44,1.04-.89,1.55-1.34.25-.32.51-.64.75-.96,0,0,.15-.17.42-.5,1.75-2.11,3.71-4.03,5.55-6.04,1.27-1.4,2.43-2.87,3.58-4.36-1.66,2.14-.06.52.38.15.51-.44,1.01-.88,1.5-1.32,2.06-1.83,3.94-3.84,5.88-5.79,3.93-3.96,7.81-7.97,11.43-12.21,1.38-1.61,2.69-3.25,3.92-4.93l.06-.02c2.15-2.95,4.07-6.04,5.68-9.39,2.14-4.44,4.17-9.08,5.56-13.85l-8.14,8.9h-.04s-1.39-12.22-1.39-12.22Z"/>
            <path class="cls-6" d="m394.46,203.49c1.31-3.19,1.72-6.49,1.13-10.02-.87-5.28-7.04-8.33-11.89-7.11-4.68,1.18-7.17,5.15-7.27,9.54-.02.05-.03.1-.05.15-.27.57-.52,1.15-.72,1.75-.07.43-.13.86-.2,1.28-.01.07-.05.28-.11.63-.5,2.75-1.34,5.43-2.33,8.04-.25.64-.5,1.29-.76,1.93l4.56-6.72-1.11,11.92,7.91-9.03,1.39,12.26,8.18-8.94c.26-.91.5-1.82.71-2.73.22-.98.4-1.97.56-2.96Z"/>
            <path class="cls-6" d="m376.58,193.33c-1.3,6.39-4.53,16.67-4.53,16.67l.21-.31c.26-.64.52-1.28.76-1.93,1-2.61,1.83-5.29,2.33-8.04.06-.35.1-.56.11-.63.07-.43.13-.85.2-1.28.21-.6.46-1.18.72-1.75.02-.05.04-.1.05-.15.1-4.4,2.59-8.36,7.27-9.54,4.85-1.22,11.02,1.83,11.89,7.11.59,3.53.18,6.84-1.13,10.02-.15.99-.33,1.98-.56,2.96-.21.91-.45,1.82-.71,2.73l.19-.2c3.24-6.39,6.3-18.33-2.16-22.01-8.45-3.69-13.35-.03-14.64,6.36Z"/>
          </g>
          <path class="cls-9" d="m210.21,161.04l-.83,134.66-3.8,18.09c15.42,3.06,30.87,5.77,46.37,8.09l7.43-20.29,13.17,1.24,3,22.29c13.15,1.63,26.32,2.97,39.52,4.03l-2.73-168.1h-102.13Z"/>
          <g>
            <path class="cls-9" d="m279.14,392.31c-20.67,13.38-19.32,31.46-19.32,31.46l55.95-32.59-3.96-44.45c-8.64,3.17-29.51,5.89-33.14,9.69l.48,35.9Z"/>
            <path class="cls-6" d="m314.57,377.8l1.19,13.38-16.33,9.54s-3.66-17.21,15.14-22.92Z"/>
          </g>
          <g>
            <path class="cls-9" d="m191.8,392.03c-23.31,7.93-26.42,25.79-26.42,25.79l62.22-17.94,7.01-44.07c-9.16.96-30.06-1.5-34.5,1.31l-8.3,34.93Z"/>
            <path class="cls-6" d="m229.71,386.61l-2.11,13.26-18.17,5.27s.65-17.58,20.28-18.53Z"/>
          </g>
          <polygon class="cls-10" points="207.37 280.03 207.37 291.43 188.85 381.2 233.02 385.47 259.38 301.59 268.01 303.48 274.34 381.2 317.8 382.62 316.38 282.17 207.37 280.03"/>
          <path class="cls-9" d="m312.5,162.12h-102.59s-12.11-59.85,17.45-103.31l16.03,30.63h39.19s14.25-24.93,35.98-28.85c0,0-10.33,72.67-6.06,101.53Z"/>
          <path class="cls-6" d="m250.13,117.24c0,4-5.85,7.24-13.06,7.24s-13.06-3.24-13.06-7.24,5.84-7.24,13.06-7.24,13.06,3.25,13.06,7.24Z"/>
          <path class="cls-6" d="m296.44,117.24c0,4-5.85,7.24-13.07,7.24s-13.06-3.24-13.06-7.24,5.85-7.24,13.06-7.24,13.07,3.25,13.07,7.24Z"/>
          <path class="cls-6" d="m256.55,122.46l9.5-.24,3.85,10.53s-6.58,7.64-17.27.16l3.92-10.45Z"/>
          <polygon class="cls-3" points="275.51 87.79 265.71 105.01 263.34 105.01 271.05 87.49 275.51 87.79"/>
          <polygon class="cls-3" points="266.01 87.49 260.66 98.48 260.66 87.2 266.01 87.49"/>
          <polygon class="cls-3" points="257.69 87.2 258.29 104.71 255.62 104.71 253.53 87.2 257.69 87.2"/>
          <path class="cls-3" d="m243.73,117.24c0,3.8-3.08,6.89-6.89,6.89s-6.89-3.08-6.89-6.89,3.08-6.89,6.89-6.89,6.89,3.08,6.89,6.89Z"/>
          <path class="cls-3" d="m289.81,117.24c0,3.8-3.09,6.89-6.89,6.89s-6.88-3.08-6.88-6.89,3.08-6.89,6.88-6.89,6.89,3.08,6.89,6.89Z"/>
          <path class="cls-10" d="m236.64,110.36s-6.6,5.42.33,13.78c0,0,7-9.75-.33-13.78Z"/>
          <path class="cls-10" d="m282.61,110.38s-5.77,5.76.43,13.68c0,0,6.72-8.91-.43-13.68Z"/>
          <path class="cls-3" d="m290.07,89.93h17.33l-9.03-1.66,7.84-7.36-9.98,5.94,5.7-11.16s-9.5,5.22-11.87,14.25Z"/>
          <polygon class="cls-3" points="235.44 88.98 218.34 88.98 227.61 87.32 222.38 80.67 229.74 84.94 227.37 73.78 235.44 88.98"/>
          <path class="cls-3" d="m260.88,124.78c-.52,2.09-2.41,3.65-4.66,3.65-.84,0-1.63-.22-2.33-.6l-.31,1.04c.79.4,1.68.63,2.64.63,3.19,0,5.8-2.57,5.86-5.75l-1.21,1.02Z"/>
          <path class="cls-3" d="m261.68,124.78c.52,2.09,2.41,3.65,4.66,3.65.84,0,1.64-.22,2.32-.6l.32,1.04c-.79.4-1.69.63-2.64.63-3.19,0-5.8-2.57-5.87-5.75l1.21,1.02Z"/>
          <path class="cls-10" d="m258.46,120.8l2.61,5.46,3.8-5.46c-4.04-2.85-6.41,0-6.41,0Z"/>
          <path class="cls-10" d="m287.04,102.4c-11.31.14-21.07,4.61-25.54,5.16-4.47.56-11.72-4.74-26.09-5.3-14.37-.56-23.58,2.23-23.58,2.23-.42,5.16.7,6.14.7,6.14,3.49.98,3.21,7.26,3.63,9.35.42,2.09,1.4,14.59,17.02,15.49,14.51.84,18.17-6.91,21.21-13.54,2.17-4.73,3.63-9.07,3.63-9.07,0,0,.42-3.07,3.35-3.07s2.93,2.37,2.93,2.37c2.65,10.75,6.69,23.03,24.42,23.58,17.72.56,18.14-15.49,18.42-19.81.28-4.33,3.35-5.58,3.35-5.58v-5.58s-12.14-2.51-23.44-2.37Zm-51.77,31.12c-15.21-.56-15.63-6.7-16.46-15.21-.84-8.51,0-14.51,16.04-13.54,7.4.45,18.28.98,18.98,6.84.69,5.86-3.35,22.47-18.56,21.91Zm53.73.28c-12.42.42-17.86-7.4-19.95-18-2.09-10.61,7.82-11.02,15.49-11.16,11.31-.21,19.4-.7,19.4,10.75s-2.51,18-14.93,18.42Z"/>
          <g>
            <path class="cls-9" d="m349.52,133.66l-7.38-22.06c9.35-.03,10.89-.87,19.37-4.44,3.51,6.55,7.74,14.04,12.04,21.76-7.7,2.93-15.75,4.67-24.03,4.74Z"/>
            <path class="cls-9" d="m357.99,116.28c-5.13,1.6-11-6.59-15.54-3.76-1.49-2.37-6.5-12.55-9.53-19.94-1.73-4.22-3.77-7.69-4.93-9.33-3.14-4.39-.39-4.34,1.82-7.42,0,0,10.52-2.04,12.51-1.69,1.99.35,13.68,11.96,14.76,17.75.56,3.03,5.79,19.06,6.54,22.89-.72.22-4.91,1.27-5.63,1.5Z"/>
            <path class="cls-10" d="m303.27,162.99c.1-.35,2.95-.94,2.95-.94l49.56-5.39-12.14-33.71,31.45-6.86s29.19,50.29,21.54,62.14c-7.64,11.84-57,21.67-57,21.67l-25.77,4.93c-13.51-6.44-1.24-29.49-10.59-41.84Z"/>
          </g>
          <g>
            <path class="cls-9" d="m182.82,121.02l15.39-17.44c-8.6-3.67-9.69-5.05-16.11-11.63-5.78,4.66-12.6,9.91-19.56,15.35,5.96,5.69,12.69,10.44,20.29,13.73Z"/>
            <path class="cls-9" d="m181.79,101.72c4.1,3.47,12.7-1.79,15.78,2.59,2.29-1.6,10.88-9.03,16.54-14.66,3.23-3.21,6.46-5.62,8.17-6.67,4.6-2.82,2.05-3.85,1.21-7.54,0,0-8.89-5.98-10.86-6.43s-17.26,5.69-20.51,10.6c-1.7,2.57-12.76,15.3-14.94,18.53.58.49,4.02,3.08,4.6,3.57Z"/>
            <path class="cls-10" d="m214,166.06c.05-.36-2.35-2.02-2.35-2.02l-43.55-24.26,24.31-26.32-26.3-18.57s-46.47,34.95-44.04,48.84c2.43,13.88,44.06,42.16,44.06,42.16l45.72,39c14.96-.67-11.27-51.1,2.15-58.84Z"/>
          </g>
          <path class="cls-10" d="m312.98,156.87c-.1-.07-.16-.1-.16-.1-58.31,38.2-98.33,10.2-102.87,6.75,0,15.49.7,32.42-6.18,45.72l-7.08,70.78,121.88,7.46c0-.08,14.06-74.2-5.58-130.62Z"/>
          <path class="cls-12" d="m264.78,267.33l-12.25,12.16-9.11-17.85c3.71-25.72,7.42-51.45,11.13-77.17-.84-2.15-1.69-4.31-2.53-6.46.24-.28.49-.56.72-.84.34-.38.67-.77,1-1.15,2.85-.18,5.7-.36,8.55-.54.44.34.88.67,1.32,1.01.41.31.83.63,1.24.94-1.3,2.33-2.6,4.65-3.9,6.98l3.83,82.93Z"/>
          <polygon class="cls-3" points="254.14 175.49 250.93 187.78 209.51 163.18 254.14 175.49"/>
          <polygon class="cls-3" points="262.69 174.96 263.22 188.32 312.82 156.77 262.69 174.96"/>
        </g>
        <path class="cls-5" d="m391.22,186.96c-1.67-.73-3.2-1.16-4.6-1.35,4.69-2.31,8.34-4.8,10-7.38,7.65-11.85-21.54-62.14-21.54-62.14l-7.74,1.69c-2.07-3.72-4.05-7.3-5.83-10.63h0c-1.79-6-4.08-13.31-4.44-15.26-1.08-5.79-12.77-17.4-14.76-17.75-1.99-.35-12.51,1.69-12.51,1.69-2.21,3.08-4.95,3.03-1.82,7.42,1.17,1.63,3.21,5.11,4.93,9.33,3.02,7.39,8.04,17.58,9.53,19.94h0l3.33,9.96-2.15.47,12.14,33.71-41.38,4.5c-.45-1.44-.92-2.87-1.41-4.29-.1-.07-.16-.1-.16-.1-.29.19-.57.36-.86.55,0,0,0,0,0,0l.86-.55-.88.32c-2.62-31.45,6.62-96.49,6.62-96.49-21.73,3.92-35.98,28.85-35.98,28.85h-8.02l.95-1.66-4.46-.3-.86,1.96h-5.14l.95-1.96-5.34-.3v2.25h-2.89l-.08-2.25h-4.16l.27,2.25h-10.41l-16.03-30.63c-3.07,4.51-5.69,9.21-7.92,13.99-2.62-1.66-5.74-3.54-6.81-3.79-1.97-.45-17.26,5.69-20.51,10.6-1.09,1.65-6.05,7.5-10.03,12.33h0c-2.94,2.37-6.15,4.89-9.51,7.52l-6.47-4.57s-46.47,34.95-44.04,48.84c2.43,13.88,44.06,42.16,44.06,42.16l36.82,31.41-6.27,62.72,10.69.65v10.75l-18.52,89.77,5.4.52-2.45,10.3c-23.31,7.93-26.42,25.79-26.42,25.79l44.05-12.7s0,.03,0,.03l18.05-5.23.12-.03,2.08-13.07.03-.2h0l.23-1.43,3.08.3,26.36-83.88,8.64,1.89,6.33,77.72,4.65.15.15,10.95c-20.67,13.38-19.32,31.46-19.32,31.46l39.61-23.07s0,.03,0,.03l16.22-9.48.11-.06-.77-8.64,2.81.09-1.23-86.78c1.81-.83,3.41-1.65,5-3.01,4.07-3.48,8.31-6.73,12.37-10.22,1.72-1.48,3.42-3,5.07-4.56,1.38-1.31,2.72-2.63,3.71-4.28.18-.29.36-.58.54-.87.56-.46,1.65-1.41,2.11-1.81.52-.44,1.04-.89,1.55-1.34.52-.44,1.04-.89,1.55-1.34.25-.32.51-.64.75-.96,0,0,.15-.17.42-.5,1.75-2.11,3.71-4.03,5.55-6.04,1.27-1.4,2.43-2.87,3.58-4.36-1.66,2.14-.06.52.38.15.51-.44,1.01-.88,1.5-1.32,2.06-1.83,3.94-3.84,5.88-5.79,3.93-3.96,7.81-7.97,11.43-12.21,1.38-1.61,2.69-3.25,3.92-4.93l.06-.02c2.15-2.95,4.07-6.04,5.68-9.39,2.14-4.44,4.18-9.08,5.56-13.85l.19-.2c3.24-6.39,6.3-18.33-2.16-22.01Zm-14.4,16l-.56,5.96.56-5.96h0Zm-184.4-89.51l-1.8-1.27,6.95-7.88c2.12-1.48,9.63-7.95,15.23-13.37-10,36-2.88,71.19-2.88,71.19h.29v1.1s-42.1-23.45-42.1-23.45l24.31-26.32Zm179.18,97.82c-.03.06-.05.11-.07.16-.23.52-.47,1.04-.71,1.55-1.12,2.37-2.4,4.65-3.81,6.85-.33.5-.67.99-1.01,1.48,1.58-2.26.34-.4-.03.06-.52.65-1.06,1.29-1.59,1.92l-.07.02c-.31.36-.61.72-.92,1.08-1.9,2.19-3.86,4.31-5.86,6.4-3.75,3.92-7.5,7.9-11.57,11.48-.51.45-1.03.89-1.54,1.33-.5.43-1.57,1.73-1.95,2.21-.6.7-1.22,1.37-1.84,2.04-1.86,2-3.77,3.95-5.49,6.08-.51.66-1.03,1.31-1.55,1.97.87-1.15.91-1.35.13-.59-.52.45-1.03.89-1.55,1.33-.17.15-.34.3-.52.45,1.69-1.24,1.35-.98-1.02.79-.46.37-.87.74-1.27,1.16-1.15,1.19-2.17,2.63-3.07,4.04-.03.03-.05.05-.08.08-.6.58-1.2,1.17-1.82,1.74-1.01.94-2.04,1.86-3.07,2.77,1.72-15.91,3.22-39.63,1.02-64.47l17.3-3.31s21.68-4.32,38.53-10.68c-.74,1.16-1.27,2.55-1.58,4.1-1.3,6.39-4.53,16.67-4.53,16.67l.21-.31,2.28-3.36-2.28,3.36c-.22.53-.44,1.06-.65,1.59Zm12.02-5.42l-7.91,9.03h0l7.91-9.03,1.39,12.23h0l-1.39-12.23Z"/>
        <g class="cls-16">
          <circle class="cls-11" cx="253.14" cy="234.95" r="229.04" transform="translate(-91.99 247.81) rotate(-45)"/>
          <path class="cls-13" d="m395.44,71.23c23,39.44,38.17,84.14,35.62,129.52-4.04,71.79-59.37,135.26-132.89,137.68-24.84.82-51.29-.55-72.69,12.1-12.22,7.22-21.7,18.5-34.12,25.38-16.61,9.2-36.34,9.06-54.51,2.88-11.71-3.99-22.77-10.48-31.93-18.6-18.31-16.23-38.7-42.24-39.88-67.8-.7-15.34,10.63-18.13,18.28-6.41,5.39,8.26,7.77,18.08,12.75,26.51,9.62,16.27,23.57,31.66,44.16,30.53,36.71-2.01,45.83-45.97,51.42-74.36,10.41-52.88,42.33-91.72,84.07-124.33,27.94-21.83,65.78-53.73,98.83-30.1,4.35,3.11,21.12,29.23,17.68-.34-2.89-24.81-18.83-47.1-39.89-60.52-9.69-6.17-87.24-36.38-75.72-4.41,8.38,23.26,23.43,37.22,10.65,62.79-.78,1.55-1.69,3.01-2.55,4.51,5.13-13.75,3.96-26.87-1.56-38.22-16.61-34.15-67.47-46.39-101.39-35.12C92.77,72.5,21.16,174.76,37.86,269.61c18.3,103.91,109.03,183.1,215.27,183.1,120.02,0,217.32-97.3,217.32-217.32,0-65.57-29.09-124.32-75.01-164.16Z"/>
          <path class="cls-8" d="m114.92,65.49c-32.3,26.23-60.34,72.97-69.52,111.55-11.28,47.38-6.77,97-6.77,97,0,0-4.51-87.99,56.41-155.68,21.65-24.05,48.48-43.41,78.63-55.32,12.35-4.88,81.28-12.08,49.36-32.56-25.64-16.46-79.42,14.4-101.1,29.69-2.35,1.66-4.69,3.43-7.01,5.32Z"/>
          <path class="cls-13" d="m400.52,134.58c-12.56-1.48-5.46,26.59,6.33,17.88,3.23-2.38,3.13-7.35,1.52-11.02-1.46-3.33-4.23-6.43-7.85-6.86Z"/>
          <g class="cls-1">
            <path class="cls-4" d="m450.11,223.81c-3.47,36.66-15.24,72.56-34.5,103.96-15.98,26.07-55.36,56.01-87.07,59.23-10.78,1.09-83.43.5-108.31,15.54-4.2,2.54-9.75,6.45-9.75,11.91,0,5.33,4.98,9.28,7.86,13.02,2.33,3.03,2.2,7.69-.3,10.58-7.8,9.02-46.56-9.66-55.38-14.15-68.19-34.79-87.68-64.02-108.55-101.59,0,0,18.09,57.06,98.81,105.77,80.72,48.71,176.74,11.13,176.74,11.13-3.72,1.45-29.24,5.76-31.23,1.82-.23-.46-.07-1.02.14-1.49,2.44-5.45,12.39-5.31,17.52-6.96,6.71-2.17,13.27-4.79,19.62-7.85,12.41-5.97,23.98-13.61,34.46-22.53,21.27-18.09,37.86-41.2,50.23-66.12,17.3-34.86,26.85-73.54,29.72-112.27Z"/>
            <path class="cls-4" d="m450.55,183.18c.74,13.24.58,26.87-.44,40.63,1.28-13.5,1.47-27.1.44-40.63Z"/>
          </g>
          <path class="cls-2" d="m202.3,406.31c-.14.72-.56,1.41-1.1,1.92-4.49,4.23-14.55,1.98-18.67-1.73-.56-.5-1.09-1.13-1.14-1.88-.04-.6.25-1.18.62-1.65,4.21-5.45,12.95-2.95,17.87-.21,1.03.57,2.11,1.32,2.4,2.46.09.36.1.73.03,1.09Z"/>
        </g>
      </g>
    </g>
  </g>
</svg>