<svg width="146" height="101" viewBox="0 0 146 101" fill="none" xmlns="http://www.w3.org/2000/svg">
<path d="M141.165 30.1408C138.503 31.2693 136.312 33.4574 133.498 34.1175C131.371 34.617 129.014 34.1142 127.258 32.8187C126.392 32.1799 125.902 31.1416 125.561 30.0082L125.552 29.9754C125.494 29.7805 125.439 29.5856 125.388 29.3874L123.776 23.5666L127.776 22.9393L128.84 25.3895C129.409 24.189 129.977 22.9885 130.544 21.7879C130.609 21.6487 130.683 21.4997 130.815 21.4211C130.979 21.3228 131.187 21.3572 131.374 21.3932C131.952 21.5046 132.529 21.6176 133.107 21.729C133.375 21.7814 133.674 21.8518 133.827 22.0778C133.945 22.2531 133.949 22.4807 133.94 22.692C133.903 23.7697 133.739 24.8441 133.452 25.8841C134.42 24.9817 135.292 23.9761 136.045 22.8869C137.092 23.4569 138.182 23.945 139.304 24.3462C138.585 25.7842 137.608 27.0929 136.432 28.1902C137.635 28.0313 138.802 27.6006 139.819 26.9405C140.267 28.0068 140.716 29.073 141.165 30.1408Z" fill="#1E4D4C"/>
<path d="M108.734 44.8419C110.626 44.6667 113.166 44.1934 114.599 43.2058C116.016 42.228 117.233 40.9881 118.309 39.6418L120.658 43.3957C117.358 46.4798 113.173 48.6089 108.734 49.4475V44.8436V44.8419Z" fill="#1E4D4C"/>
<path d="M129.809 36.3156L129.811 36.3122C129.915 36.1486 130.013 35.9854 130.108 35.8172L130.11 35.8141C130.38 35.3443 130.636 34.8733 130.862 34.3945L125.605 30.6284C124.932 31.3029 124.296 31.968 123.654 32.6382C123.622 32.6716 123.59 32.705 123.558 32.7385C122.791 33.5399 122.014 34.3491 121.167 35.1813C121.167 35.1814 121.167 35.1815 121.167 35.1815L119.548 36.7761L129.809 36.3156ZM129.809 36.3156C128.356 38.6605 126.447 40.5031 124.318 42.247C123.346 43.0408 122.338 43.8075 121.309 44.5912C121.126 44.7305 120.942 44.8703 120.758 45.0109C119.322 43.1262 118.252 40.9601 117.631 38.6741M129.809 36.3156L117.631 38.6741M117.631 38.6741C118.263 38.0445 118.903 37.412 119.548 36.7764L117.631 38.6741Z" fill="white" stroke="#1E4D4C"/>
<path d="M123.834 38.588L123.647 38.4278C122.568 37.5035 121.652 36.5692 120.782 35.5606L119.835 36.4933C120.751 37.8974 121.805 39.2134 122.979 40.4121L123.834 38.588ZM123.834 38.588L124.075 38.5375C125.352 38.2701 126.623 37.9605 127.885 37.6532C128.295 37.5533 128.704 37.4537 129.112 37.3558M123.834 38.588L129.112 37.3558M129.112 37.3558C127.848 39.109 126.318 40.5826 124.641 41.9805C124.068 41.477 123.511 40.9555 122.979 40.4123L129.112 37.3558Z" fill="#1E4D4C" stroke="#1E4D4C"/>
<path d="M131.001 28.598C131.268 29.5954 131.03 30.7141 130.378 31.515C130.667 31.1612 130.511 29.9852 130.46 29.5627C130.378 28.8715 130.174 28.1885 129.81 27.5907C129.558 27.178 128.845 26.2281 129.83 26.8521C130.405 27.2173 130.829 27.9543 131.001 28.5964V28.598Z" fill="#1A7170"/>
<path d="M105.234 66.9706C106.423 68.2744 108.988 70.5264 112.885 71.0554C112.926 71.0619 112.967 71.0668 113.008 71.0734C113.632 71.1504 114.565 71.2683 115.618 71.2208C116.863 71.1651 118.276 70.8785 119.551 70.0268C122.625 67.9697 122.592 64.3501 122.566 61.4413C122.548 59.3384 122.531 57.3517 123.516 56.4493C125.193 54.913 129.977 55.3814 133.168 58.1166C137.223 61.5953 136.306 67.3064 136.296 67.3637C136.075 68.6625 136.946 69.9007 138.245 70.1251C139.544 70.3495 140.778 69.4847 141.004 68.1843C141.065 67.842 142.398 59.738 136.281 54.4888C131.413 50.314 123.942 49.5835 120.291 52.923C117.734 55.2618 117.765 58.7111 117.788 61.4823C117.81 63.9407 117.759 65.4737 116.894 66.0535C116.119 66.5727 114.83 66.476 113.918 66.3679C113.808 66.3548 113.704 66.3417 113.605 66.3303C111.162 66.024 109.525 64.5843 108.767 63.7523C107.879 62.7762 106.366 62.7058 105.392 63.5951C104.415 64.4844 104.345 65.9961 105.234 66.9723V66.9706Z" fill="#1E4D4C"/>
<path d="M45 68.9656C47.3405 67.2704 48.9865 64.645 51.5791 63.3707C53.5396 62.4061 55.9489 62.3684 57.9519 63.2364C58.9395 63.6639 59.6487 64.568 60.2367 65.5949L60.2531 65.6244C60.353 65.8013 60.4496 65.9798 60.5446 66.1616L63.4206 71.4731L59.6635 72.9815L58.0764 70.8327C57.7914 72.1298 57.5081 73.427 57.2231 74.7242C57.1903 74.8748 57.151 75.0353 57.0397 75.1418C56.9021 75.2745 56.6924 75.2876 56.5008 75.2941C55.9128 75.3138 55.3249 75.3351 54.7369 75.3547C54.4634 75.3645 54.1571 75.3629 53.9573 75.1762C53.8017 75.0321 53.7493 74.8109 53.71 74.6029C53.5036 73.5433 53.4233 72.4607 53.4692 71.383C52.7273 72.4787 52.1049 73.6563 51.6135 74.8847C50.4654 74.5636 49.2927 74.3327 48.1102 74.1935C48.4886 72.631 49.1486 71.1357 50.0494 69.8025C48.9128 70.2267 47.8727 70.908 47.0293 71.781C46.3528 70.8425 45.6764 69.904 45 68.9639V68.9656Z" fill="#1E4D4C"/>
<path d="M72.8072 42.6522C72.8105 44.1852 72.7335 45.8492 72.3748 47.3396C70.5355 47.8932 69.258 48.8595 67.9609 50.2779C66.7996 51.5472 65.8906 53.0294 65.1454 54.5837L62.0139 51.4522C64.6459 47.5476 68.4457 44.4341 72.8072 42.6538V42.6522Z" fill="#1E4D4C"/>
<path d="M54.0864 62.5081C54.199 61.9914 54.3436 61.4756 54.5012 60.9564C54.5582 60.7697 54.6183 60.5859 54.6818 60.4034L54.6818 60.4035L54.6829 60.4004C55.5727 57.7882 57.0205 55.564 58.7041 53.3884C59.4692 52.4022 60.2745 51.434 61.0976 50.4444C61.2488 50.2626 61.4007 50.08 61.553 49.8965C63.3756 51.4115 64.9028 53.2822 66.0216 55.3707C65.5818 56.07 65.1345 56.775 64.685 57.4834L64.579 57.6505L64.5788 57.6509C64.2725 58.1345 63.9644 58.618 63.6554 59.1029C63.5568 59.2577 63.4581 59.4126 63.3593 59.5677C62.721 60.5689 62.1455 61.5317 61.5774 62.4847C61.5536 62.5246 61.5298 62.5645 61.5061 62.6043C61.0311 63.4012 60.5599 64.1919 60.0564 64.9998L54.0864 62.5081Z" fill="white" stroke="#1E4D4C"/>
<path d="M54.2114 60.2391C56.1424 59.3039 58.0226 58.3081 59.9814 57.404C61.3818 58.1378 62.5872 58.9288 63.7812 59.8362C64.189 59.1958 64.5968 58.557 65.0014 57.9183C63.6927 56.6178 62.2433 55.455 60.689 54.4576C59.9175 53.9629 59.1199 53.5076 58.3092 53.0818C56.6108 55.2765 55.1253 57.5514 54.2097 60.2391H54.2114Z" fill="#1E4D4C"/>
<path d="M98.4602 78.7581C98.5356 77.2136 98.2539 71.7613 101.055 72.5065C102.455 72.8799 102.699 74.2851 102.827 75.5561C102.974 77.04 103.018 78.5484 103.074 80.0388C103.131 81.5948 103.438 83.534 102.486 84.8983C102.052 85.5206 101.307 86.2052 100.493 86.0726C97.5922 85.6009 98.3702 80.6399 98.4619 78.7581H98.4602Z" fill="#1E4D4C"/>
<mask id="path-12-inside-1_1091_4245" fill="white">
<path fill-rule="evenodd" clip-rule="evenodd" d="M102.821 96.9757H94.4675C94.4889 96.8251 94.5098 96.6749 94.5308 96.5245C94.5483 96.3985 94.5659 96.2722 94.5838 96.1453C94.705 95.3231 94.836 94.5009 94.9802 93.682C95.3749 91.4071 95.8613 89.1485 96.4378 86.9145C96.5803 86.356 96.731 85.7959 96.9226 85.2521C97.0618 84.8508 97.2207 84.4594 97.414 84.086C97.5139 83.896 97.6236 83.706 97.7415 83.5242C98.4065 82.5038 99.4563 81.6686 100.668 81.5523C100.883 81.531 101.097 81.5342 101.309 81.5588C101.309 81.559 101.309 81.5591 101.309 81.5592C102.261 81.66 103.167 82.1804 103.826 82.8905C104.155 83.2426 104.434 83.6406 104.668 84.0648C104.812 84.3252 104.942 84.5938 105.058 84.8689C105.215 85.2424 105.349 85.6273 105.466 86.0138C106.111 88.1561 106.29 90.3999 106.255 92.629C106.252 92.8926 106.26 93.2096 106.269 93.5585C106.28 94.0071 106.292 94.5084 106.285 95.0169C106.28 95.3952 106.262 95.7801 106.226 96.147C106.199 96.4369 106.159 96.717 106.101 96.9758H102.821C102.821 96.9757 102.821 96.9757 102.821 96.9757Z"/>
</mask>
<path fill-rule="evenodd" clip-rule="evenodd" d="M102.821 96.9757H94.4675C94.4889 96.8251 94.5098 96.6749 94.5308 96.5245C94.5483 96.3985 94.5659 96.2722 94.5838 96.1453C94.705 95.3231 94.836 94.5009 94.9802 93.682C95.3749 91.4071 95.8613 89.1485 96.4378 86.9145C96.5803 86.356 96.731 85.7959 96.9226 85.2521C97.0618 84.8508 97.2207 84.4594 97.414 84.086C97.5139 83.896 97.6236 83.706 97.7415 83.5242C98.4065 82.5038 99.4563 81.6686 100.668 81.5523C100.883 81.531 101.097 81.5342 101.309 81.5588C101.309 81.559 101.309 81.5591 101.309 81.5592C102.261 81.66 103.167 82.1804 103.826 82.8905C104.155 83.2426 104.434 83.6406 104.668 84.0648C104.812 84.3252 104.942 84.5938 105.058 84.8689C105.215 85.2424 105.349 85.6273 105.466 86.0138C106.111 88.1561 106.29 90.3999 106.255 92.629C106.252 92.8926 106.26 93.2096 106.269 93.5585C106.28 94.0071 106.292 94.5084 106.285 95.0169C106.28 95.3952 106.262 95.7801 106.226 96.147C106.199 96.4369 106.159 96.717 106.101 96.9758H102.821C102.821 96.9757 102.821 96.9757 102.821 96.9757Z" fill="white"/>
<path d="M94.4675 96.9757L93.4775 96.8351L93.3155 97.9757H94.4675V96.9757ZM102.821 96.9757L103.576 97.6306L105.011 95.9757H102.821V96.9757ZM94.5308 96.5245L95.5212 96.6624V96.6624L94.5308 96.5245ZM94.5838 96.1453L93.5945 95.9995L93.5936 96.0055L94.5838 96.1453ZM94.9802 93.682L95.965 93.8553L95.9654 93.853L94.9802 93.682ZM96.4378 86.9145L97.4061 87.1644L97.4068 87.1617L96.4378 86.9145ZM96.9226 85.2521L97.8658 85.5845L97.8674 85.5799L96.9226 85.2521ZM97.414 84.086L96.5289 83.6205L96.5259 83.6263L97.414 84.086ZM97.7415 83.5242L96.9037 82.9782L96.9026 82.98L97.7415 83.5242ZM100.668 81.5523L100.764 82.5477L100.767 82.5474L100.668 81.5523ZM101.309 81.5588L102.243 81.2027L102.027 80.6356L101.424 80.5655L101.309 81.5588ZM101.309 81.5592L100.374 81.9153L100.593 82.4891L101.204 82.5537L101.309 81.5592ZM103.826 82.8905L103.093 83.5709L103.096 83.5734L103.826 82.8905ZM104.668 84.0648L103.793 84.5481L103.793 84.549L104.668 84.0648ZM105.058 84.8689L105.98 84.4809L105.979 84.4797L105.058 84.8689ZM105.466 86.0138L104.508 86.3019L104.508 86.3022L105.466 86.0138ZM106.255 92.629L105.255 92.6135L105.255 92.6181L106.255 92.629ZM106.269 93.5585L107.268 93.5339V93.5339L106.269 93.5585ZM106.285 95.0169L105.285 95.0024L105.285 95.0039L106.285 95.0169ZM106.226 96.147L105.23 96.0493L105.23 96.057L106.226 96.147ZM106.101 96.9758V97.9758H106.904L107.078 97.192L106.101 96.9758ZM102.821 96.9758L102.065 96.3208L100.631 97.9758H102.821V96.9758ZM94.4675 97.9757H102.821V95.9757H94.4675V97.9757ZM93.5403 96.3866C93.5193 96.5372 93.4986 96.686 93.4775 96.8351L95.4576 97.1163C95.4792 96.9641 95.5003 96.8126 95.5212 96.6624L93.5403 96.3866ZM93.5936 96.0055C93.5756 96.1335 93.5579 96.2607 93.5403 96.3866L95.5212 96.6624C95.5388 96.5362 95.5562 96.4109 95.574 96.2851L93.5936 96.0055ZM93.9953 93.5087C93.8493 94.3381 93.7168 95.1696 93.5945 95.9995L95.5731 96.2911C95.6932 95.4766 95.8228 94.6637 95.965 93.8553L93.9953 93.5087ZM95.4696 86.6646C94.8863 88.9247 94.3942 91.2096 93.9949 93.511L95.9654 93.853C96.3556 91.6045 96.8363 89.3723 97.4061 87.1644L95.4696 86.6646ZM95.9795 84.9197C95.7722 85.5079 95.6126 86.1041 95.4689 86.6673L97.4068 87.1617C97.5481 86.6079 97.6898 86.0839 97.8658 85.5845L95.9795 84.9197ZM96.5259 83.6263C96.3047 84.0537 96.128 84.4918 95.9779 84.9243L97.8674 85.5799C97.9957 85.2099 98.1367 84.8651 98.3021 84.5456L96.5259 83.6263ZM96.9026 82.98C96.766 83.1905 96.6411 83.4072 96.5289 83.6205L98.2991 84.5514C98.3867 84.3848 98.4812 84.2215 98.5805 84.0684L96.9026 82.98ZM100.573 80.5568C98.9621 80.7114 97.674 81.7963 96.9037 82.9782L98.5793 84.0702C99.139 83.2114 99.9506 82.6257 100.764 82.5477L100.573 80.5568ZM101.424 80.5655C101.146 80.5331 100.859 80.5284 100.57 80.5572L100.767 82.5474C100.906 82.5336 101.049 82.5353 101.193 82.5521L101.424 80.5655ZM102.243 81.2032L102.243 81.2027L100.374 81.915L100.374 81.9153L102.243 81.2032ZM104.559 82.21C103.768 81.3576 102.65 80.6955 101.414 80.5648L101.204 82.5537C101.872 82.6244 102.566 83.0032 103.093 83.5709L104.559 82.21ZM105.544 83.5814C105.276 83.096 104.95 82.6285 104.557 82.2075L103.096 83.5734C103.361 83.8567 103.592 84.1851 103.793 84.5481L105.544 83.5814ZM105.979 84.4797C105.85 84.1745 105.705 83.874 105.543 83.5805L103.793 84.549C103.919 84.7764 104.033 85.0131 104.137 85.2582L105.979 84.4797ZM106.423 85.7257C106.299 85.3116 106.153 84.8926 105.98 84.4809L104.136 85.257C104.277 85.5921 104.4 85.9429 104.508 86.3019L106.423 85.7257ZM107.255 92.6444C107.29 90.3564 107.109 88.0009 106.423 85.7254L104.508 86.3022C105.113 88.3112 105.289 90.4433 105.255 92.6135L107.255 92.6444ZM107.268 93.5339C107.26 93.1793 107.252 92.882 107.255 92.6398L105.255 92.6181C105.252 92.9033 105.261 93.2399 105.269 93.5831L107.268 93.5339ZM107.285 95.0314C107.292 94.5003 107.279 93.9799 107.268 93.5339L105.269 93.5831C105.28 94.0342 105.292 94.5164 105.285 95.0024L107.285 95.0314ZM107.221 96.2448C107.26 95.8439 107.279 95.43 107.285 95.0299L105.285 95.0039C105.28 95.3605 105.263 95.7164 105.23 96.0493L107.221 96.2448ZM107.078 97.192C107.146 96.8842 107.192 96.5611 107.222 96.237L105.23 96.057C105.207 96.3127 105.171 96.5498 105.125 96.7595L107.078 97.192ZM102.821 97.9758H106.101V95.9758H102.821V97.9758ZM102.065 96.3207L102.065 96.3208L103.576 97.6307L103.576 97.6306L102.065 96.3207Z" fill="#1E4D4C" mask="url(#path-12-inside-1_1091_4245)"/>
<path d="M98.2937 88.4917C98.3674 88.7554 98.5983 88.8995 98.8588 88.9224M98.2937 88.4917L98.7759 88.3594C98.4888 87.3125 98.1548 86.1322 97.4849 85.1713C97.5068 85.1127 97.5292 85.0545 97.5521 84.9967C98.1506 85.8039 98.5194 86.8318 98.8369 87.934L98.9311 88.2609L99.2697 88.2933C99.6055 88.3255 99.9485 88.3606 100.293 88.3959C100.739 88.4414 101.188 88.4873 101.628 88.5277M98.2937 88.4917L98.7753 88.3571C98.7784 88.3684 98.782 88.3745 98.7845 88.378C98.7872 88.3818 98.7914 88.3866 98.799 88.392C98.815 88.4036 98.8486 88.4196 98.9026 88.4244L98.9043 88.4245C99.1301 88.4452 99.3544 88.4667 99.5775 88.4881C100.359 88.5631 101.126 88.6368 101.893 88.6669L101.874 89.1665M98.2937 88.4917C98.0343 87.546 97.7549 86.5724 97.2651 85.7521L101.894 88.6669M98.8588 88.9224L101.894 88.6669M98.8588 88.9224C99.0793 88.9426 99.3002 88.9638 99.5213 88.9851M98.8588 88.9224L99.5213 88.9851M101.628 88.5277C101.628 88.5277 101.627 88.5276 101.627 88.5276L101.674 88.0298L101.629 88.5277C101.628 88.5277 101.628 88.5277 101.628 88.5277ZM101.628 88.5277C101.699 88.5344 101.763 88.5418 101.822 88.5489C101.83 88.5499 101.837 88.5508 101.845 88.5518C101.895 88.5578 101.947 88.564 101.993 88.5685C102.085 88.5772 102.256 88.5921 102.427 88.5281C102.632 88.4512 102.75 88.3007 102.821 88.1732C102.883 88.063 102.934 87.9258 102.982 87.7915M102.982 87.7915C102.913 88.1214 102.836 88.3418 102.724 88.479L102.724 88.479L102.722 88.4816C102.579 88.6595 102.392 88.6863 101.894 88.6669M102.982 87.7915C102.983 87.7873 102.984 87.783 102.985 87.7788C102.985 87.7778 102.985 87.7768 102.986 87.7758C102.989 87.7595 102.992 87.7429 102.996 87.726C103.01 87.6574 103.023 87.582 103.038 87.5025C103.09 87.217 103.152 86.8777 103.258 86.602L103.258 86.6014C103.269 86.5717 103.281 86.5421 103.293 86.5125M102.982 87.7915C102.984 87.7875 102.985 87.7834 102.987 87.7794L102.987 87.7794L102.988 87.7766C103.063 87.5619 103.118 87.3425 103.167 87.1481C103.171 87.1335 103.175 87.1191 103.178 87.1048C103.223 86.9284 103.264 86.7711 103.314 86.6235C103.314 86.6233 103.314 86.6232 103.314 86.623C103.325 86.5925 103.335 86.5624 103.347 86.5326C103.617 85.8283 103.994 85.2451 104.49 84.8151C104.528 84.8976 104.565 84.981 104.601 85.0651L105.061 84.8705M101.894 88.6669L101.874 89.1665M103.293 86.5125L103.536 87.5592C103.587 87.2811 103.638 87.0083 103.725 86.7802C104.011 86.0317 104.44 85.3389 105.061 84.8705M103.293 86.5125L102.88 86.3543M103.293 86.5125L104.451 84.7322M105.061 84.8705L104.827 84.5597C104.851 84.5436 104.876 84.5278 104.901 84.5124C104.957 84.6304 105.01 84.7498 105.061 84.8705ZM104.451 84.7322C104.391 84.6047 104.327 84.4791 104.26 84.3558C103.639 84.8584 103.189 85.5481 102.88 86.3543M104.451 84.7322L102.516 87.6105C102.584 87.4184 102.634 87.2202 102.684 87.0216C102.74 86.7969 102.797 86.5717 102.88 86.3543M104.451 84.7322C103.925 85.2285 103.553 85.8616 103.293 86.5114L102.88 86.3543M101.874 89.1665C101.091 89.1358 100.305 89.0603 99.5213 88.9851M101.874 89.1665L99.5213 88.9851M99.3174 87.7956C98.9721 86.5972 98.546 85.3999 97.7794 84.4768L99.3174 87.7956ZM97.1892 84.566C97.0927 84.7898 97.0056 85.0184 96.9251 85.2503L97.1892 84.566Z" fill="#1E4D4C" stroke="#1E4D4C"/>
<path d="M105.687 96.4757H95.044C95.164 95.6368 95.2957 94.8006 95.4398 93.9655C96.8841 92.9219 98.3513 92.0666 99.9572 92.0149L99.9576 92.0149C101.397 91.9676 102.831 92.5967 104.033 93.5313L104.033 93.5313C104.665 94.0224 105.24 94.5904 105.786 95.2018C105.774 95.6451 105.745 96.0791 105.687 96.4757Z" fill="#1E4D4C" stroke="#1E4D4C"/>
<mask id="path-16-inside-2_1091_4245" fill="white">
<path fill-rule="evenodd" clip-rule="evenodd" d="M108.346 100.165H91.7417C91.7417 100.164 91.7417 100.164 91.7417 100.164H91.7417C91.9235 99.6272 92.1544 99.1047 92.4247 98.6068C92.4247 98.6068 92.4247 98.6068 92.4247 98.6068C92.9161 97.7028 93.545 96.8708 94.2754 96.1453C95.3302 95.1004 96.5995 94.2765 97.9982 93.7704C99.0677 93.3855 100.224 93.1759 101.354 93.338C102.216 93.4625 103.02 93.7934 103.757 94.2552C104.528 94.7384 105.228 95.3657 105.834 96.047C105.845 96.0604 105.857 96.0734 105.868 96.0862C105.886 96.1062 105.903 96.1259 105.92 96.1469C105.92 96.1469 105.92 96.1468 105.92 96.1468C106.955 97.3309 107.776 98.6985 108.346 100.164H108.346C108.346 100.164 108.346 100.164 108.346 100.165Z"/>
</mask>
<path fill-rule="evenodd" clip-rule="evenodd" d="M108.346 100.165H91.7417C91.7417 100.164 91.7417 100.164 91.7417 100.164H91.7417C91.9235 99.6272 92.1544 99.1047 92.4247 98.6068C92.4247 98.6068 92.4247 98.6068 92.4247 98.6068C92.9161 97.7028 93.545 96.8708 94.2754 96.1453C95.3302 95.1004 96.5995 94.2765 97.9982 93.7704C99.0677 93.3855 100.224 93.1759 101.354 93.338C102.216 93.4625 103.02 93.7934 103.757 94.2552C104.528 94.7384 105.228 95.3657 105.834 96.047C105.845 96.0604 105.857 96.0734 105.868 96.0862C105.886 96.1062 105.903 96.1259 105.92 96.1469C105.92 96.1469 105.92 96.1468 105.92 96.1468C106.955 97.3309 107.776 98.6985 108.346 100.164H108.346C108.346 100.164 108.346 100.164 108.346 100.165Z" fill="white"/>
<path d="M91.7417 100.165L90.7948 99.8429L90.346 101.165H91.7417V100.165ZM108.346 100.165V101.165H109.8L109.28 99.8069L108.346 100.165ZM91.7417 100.164L92.6886 100.486L93.1375 99.1644H91.7417V100.164ZM91.7417 100.164L90.7945 99.8438L90.3476 101.164H91.7417V100.164ZM92.4247 98.6068L92.7036 97.6465L91.9301 97.4218L91.5458 98.1298L92.4247 98.6068ZM92.4247 98.6068L92.1458 99.5671L92.9189 99.7917L93.3034 99.0843L92.4247 98.6068ZM94.2754 96.1453L93.5716 95.4349L93.5707 95.4358L94.2754 96.1453ZM97.9982 93.7704L97.6596 92.8295L97.658 92.8301L97.9982 93.7704ZM101.354 93.338L101.497 92.3483L101.496 92.3482L101.354 93.338ZM103.757 94.2552L103.226 95.1026L103.226 95.1027L103.757 94.2552ZM105.834 96.047L106.593 95.3962L106.587 95.3893L106.581 95.3824L105.834 96.047ZM105.868 96.0862L106.615 95.4213L106.615 95.4213L105.868 96.0862ZM105.92 96.1469L105.143 96.7761L106.684 98.679L106.916 96.2417L105.92 96.1469ZM105.92 96.1468L106.673 95.4887L105.145 93.7404L104.925 96.052L105.92 96.1468ZM108.346 100.164V101.164H109.808L109.278 99.802L108.346 100.164ZM108.346 100.164V99.1644H106.892L107.412 100.522L108.346 100.164ZM91.7417 101.165H108.346V99.1645H91.7417V101.165ZM90.7949 99.8428L90.7948 99.8429L92.6886 100.486L92.6886 100.486L90.7949 99.8428ZM91.7417 101.164H91.7417V99.1644H91.7417V101.164ZM91.5458 98.1298C91.2498 98.6752 90.9955 99.2499 90.7945 99.8438L92.6889 100.485C92.8515 100.004 93.0591 99.5342 93.3036 99.0838L91.5458 98.1298ZM92.7037 97.6465C92.6975 97.6447 92.6924 97.6433 92.6893 97.6424C92.6877 97.642 92.6864 97.6417 92.6856 97.6414C92.6852 97.6413 92.6849 97.6412 92.6847 97.6412C92.6846 97.6412 92.6845 97.6411 92.6845 97.6411C92.6844 97.6411 92.6844 97.6411 92.6844 97.6411C92.6844 97.6411 92.6844 97.6411 92.6844 97.6411C92.6844 97.6411 92.6844 97.6411 92.6844 97.6411C92.6844 97.6411 92.6844 97.6411 92.6844 97.6411C92.6844 97.6411 92.6844 97.6411 92.6844 97.6411C92.684 97.641 92.6864 97.6417 92.6892 97.6424C92.6923 97.6433 92.6974 97.6447 92.7036 97.6465L92.1457 99.5671C92.152 99.5689 92.157 99.5703 92.1602 99.5712C92.1617 99.5716 92.163 99.572 92.1638 99.5722C92.1642 99.5723 92.1645 99.5724 92.1647 99.5724C92.1648 99.5724 92.1649 99.5725 92.165 99.5725C92.165 99.5725 92.165 99.5725 92.165 99.5725C92.165 99.5725 92.165 99.5725 92.165 99.5725C92.165 99.5725 92.165 99.5725 92.165 99.5725C92.165 99.5725 92.165 99.5725 92.165 99.5725C92.165 99.5725 92.165 99.5725 92.165 99.5725C92.1654 99.5726 92.163 99.572 92.1602 99.5712C92.1571 99.5703 92.152 99.5689 92.1458 99.5671L92.7037 97.6465ZM93.5707 95.4358C92.7733 96.2278 92.0852 97.1375 91.5461 98.1293L93.3034 99.0843C93.747 98.2681 94.3167 97.5138 94.9801 96.8548L93.5707 95.4358ZM97.658 92.8301C96.1154 93.3883 94.7237 94.2936 93.5716 95.4349L94.9792 96.8557C95.9367 95.9071 97.0836 95.1648 98.3384 94.7108L97.658 92.8301ZM101.496 92.3482C100.154 92.1557 98.8272 92.4093 97.6596 92.8295L98.3368 94.7114C99.3082 94.3618 100.294 94.1961 101.212 94.3279L101.496 92.3482ZM104.288 93.4079C103.456 92.8868 102.522 92.4963 101.497 92.3483L101.211 94.3278C101.91 94.4287 102.583 94.6999 103.226 95.1026L104.288 93.4079ZM106.581 95.3824C105.926 94.6461 105.156 93.9515 104.288 93.4077L103.226 95.1027C103.901 95.5253 104.529 96.0852 105.086 96.7116L106.581 95.3824ZM106.615 95.4213C106.603 95.4074 106.597 95.4014 106.593 95.3962L105.074 96.6978C105.093 96.7195 105.111 96.7393 105.121 96.7511L106.615 95.4213ZM106.698 95.5177C106.663 95.4756 106.63 95.4386 106.615 95.4213L105.121 96.7511C105.131 96.7618 105.136 96.7674 105.14 96.7722C105.143 96.7765 105.144 96.7774 105.143 96.7761L106.698 95.5177ZM104.925 96.052C104.927 96.0347 104.928 96.0205 104.93 96.0113C104.93 96.0067 104.931 96.003 104.931 96.0007C104.931 95.9986 104.932 95.9968 104.932 95.9971C104.932 95.9971 104.932 95.9971 104.932 95.9971C104.932 95.9971 104.932 95.9971 104.932 95.9971C104.932 95.9971 104.932 95.9971 104.932 95.9971C104.932 95.9972 104.932 95.9972 104.932 95.9972C104.932 95.9972 104.932 95.9973 104.932 95.9974C104.932 95.9975 104.932 95.9977 104.931 95.998C104.931 95.9986 104.931 95.9996 104.931 96.0007C104.931 96.003 104.93 96.0068 104.93 96.0114C104.928 96.0206 104.926 96.0348 104.925 96.0521L106.916 96.2417C106.914 96.259 106.912 96.2731 106.911 96.2824C106.91 96.287 106.91 96.2907 106.91 96.293C106.909 96.2951 106.909 96.2969 106.909 96.2966C106.909 96.2966 106.909 96.2966 106.909 96.2966C106.909 96.2966 106.909 96.2966 106.909 96.2966C106.909 96.2966 106.909 96.2966 106.909 96.2965C106.909 96.2965 106.909 96.2965 106.909 96.2965C106.909 96.2965 106.909 96.2964 106.909 96.2963C106.909 96.2962 106.909 96.2959 106.909 96.2957C106.909 96.2951 106.909 96.2941 106.91 96.293C106.91 96.2907 106.91 96.2869 106.911 96.2823C106.912 96.2731 106.914 96.2589 106.916 96.2416L104.925 96.052ZM109.278 99.802C108.667 98.2306 107.787 96.7624 106.673 95.4887L105.167 96.8049C106.124 97.8995 106.885 99.1665 107.414 100.527L109.278 99.802ZM108.346 101.164H108.346V99.1644H108.346V101.164ZM109.28 99.8069C109.278 99.8017 109.276 99.7976 109.275 99.7952C109.275 99.7939 109.274 99.7929 109.274 99.7923C109.274 99.792 109.274 99.7918 109.274 99.7916C109.274 99.7915 109.274 99.7915 109.274 99.7914C109.274 99.7914 109.274 99.7914 109.274 99.7914C109.274 99.7914 109.274 99.7914 109.274 99.7914C109.274 99.7914 109.274 99.7914 109.274 99.7914C109.274 99.791 109.274 99.7929 109.275 99.7951C109.276 99.7976 109.278 99.8016 109.28 99.8067L107.412 100.522C107.414 100.527 107.416 100.531 107.417 100.534C107.417 100.535 107.418 100.536 107.418 100.537C107.418 100.537 107.418 100.537 107.418 100.537C107.418 100.537 107.418 100.537 107.418 100.537C107.418 100.537 107.418 100.537 107.418 100.538C107.418 100.538 107.418 100.538 107.418 100.538C107.418 100.538 107.418 100.538 107.418 100.538C107.418 100.538 107.418 100.536 107.417 100.534C107.416 100.531 107.414 100.527 107.412 100.522L109.28 99.8069Z" fill="#1E4D4C" mask="url(#path-16-inside-2_1091_4245)"/>
<path d="M78.7686 78.7581C78.8439 77.2136 78.5622 71.7613 81.3629 72.5065C82.7632 72.88 83.0073 74.2852 83.135 75.5562C83.2824 77.04 83.3267 78.5485 83.3823 80.0389C83.4397 81.5948 83.7459 83.534 82.7944 84.8983C82.3603 85.5207 81.6151 86.2053 80.8011 86.0726C77.9005 85.6009 78.6785 80.64 78.7702 78.7581H78.7686Z" fill="#1E4D4C"/>
<mask id="path-19-inside-3_1091_4245" fill="white">
<path fill-rule="evenodd" clip-rule="evenodd" d="M82.8207 96.9757H74.4675C74.4889 96.8251 74.5098 96.6749 74.5308 96.5245C74.5483 96.3985 74.5659 96.2722 74.5838 96.1453C74.705 95.3231 74.836 94.5009 74.9802 93.682C75.3749 91.4071 75.8613 89.1485 76.4378 86.9145C76.5803 86.356 76.731 85.7959 76.9226 85.2521C77.0618 84.8508 77.2207 84.4594 77.414 84.086C77.5139 83.896 77.6236 83.706 77.7415 83.5242C78.4065 82.5038 79.4563 81.6686 80.6683 81.5523C80.8829 81.531 81.0974 81.5342 81.3087 81.5588C81.3088 81.559 81.3088 81.5591 81.3089 81.5592C82.2609 81.66 83.167 82.1804 83.8263 82.8905C84.1555 83.2426 84.4339 83.6406 84.6681 84.0648C84.8122 84.3252 84.9416 84.5938 85.0579 84.8689C85.2151 85.2424 85.3495 85.6273 85.4657 86.0138C86.111 88.1561 86.2896 90.3999 86.2552 92.629C86.2523 92.8926 86.2601 93.2096 86.2687 93.5585C86.2797 94.0071 86.292 94.5084 86.2847 95.0169C86.2797 95.3952 86.2617 95.7801 86.2257 96.147C86.1995 96.4369 86.1585 96.717 86.1012 96.9758H82.8207C82.8207 96.9757 82.8207 96.9757 82.8207 96.9757Z"/>
</mask>
<path fill-rule="evenodd" clip-rule="evenodd" d="M82.8207 96.9757H74.4675C74.4889 96.8251 74.5098 96.6749 74.5308 96.5245C74.5483 96.3985 74.5659 96.2722 74.5838 96.1453C74.705 95.3231 74.836 94.5009 74.9802 93.682C75.3749 91.4071 75.8613 89.1485 76.4378 86.9145C76.5803 86.356 76.731 85.7959 76.9226 85.2521C77.0618 84.8508 77.2207 84.4594 77.414 84.086C77.5139 83.896 77.6236 83.706 77.7415 83.5242C78.4065 82.5038 79.4563 81.6686 80.6683 81.5523C80.8829 81.531 81.0974 81.5342 81.3087 81.5588C81.3088 81.559 81.3088 81.5591 81.3089 81.5592C82.2609 81.66 83.167 82.1804 83.8263 82.8905C84.1555 83.2426 84.4339 83.6406 84.6681 84.0648C84.8122 84.3252 84.9416 84.5938 85.0579 84.8689C85.2151 85.2424 85.3495 85.6273 85.4657 86.0138C86.111 88.1561 86.2896 90.3999 86.2552 92.629C86.2523 92.8926 86.2601 93.2096 86.2687 93.5585C86.2797 94.0071 86.292 94.5084 86.2847 95.0169C86.2797 95.3952 86.2617 95.7801 86.2257 96.147C86.1995 96.4369 86.1585 96.717 86.1012 96.9758H82.8207C82.8207 96.9757 82.8207 96.9757 82.8207 96.9757Z" fill="white"/>
<path d="M74.4675 96.9757L73.4775 96.8351L73.3155 97.9757H74.4675V96.9757ZM82.8207 96.9757L83.5764 97.6306L85.0107 95.9757H82.8207V96.9757ZM74.5308 96.5245L75.5212 96.6624V96.6624L74.5308 96.5245ZM74.5838 96.1453L73.5945 95.9995L73.5936 96.0055L74.5838 96.1453ZM74.9802 93.682L75.965 93.8553L75.9654 93.853L74.9802 93.682ZM76.4378 86.9145L77.4061 87.1644L77.4068 87.1617L76.4378 86.9145ZM76.9226 85.2521L77.8658 85.5845L77.8674 85.5799L76.9226 85.2521ZM77.414 84.086L76.5289 83.6205L76.5259 83.6263L77.414 84.086ZM77.7415 83.5242L76.9037 82.9782L76.9026 82.98L77.7415 83.5242ZM80.6683 81.5523L80.7638 82.5477L80.7671 82.5474L80.6683 81.5523ZM81.3087 81.5588L82.2432 81.2027L82.027 80.6356L81.4242 80.5655L81.3087 81.5588ZM81.3089 81.5592L80.3744 81.9153L80.593 82.4891L81.2037 82.5537L81.3089 81.5592ZM83.8263 82.8905L83.0935 83.5709L83.0958 83.5734L83.8263 82.8905ZM84.6681 84.0648L83.7927 84.5481L83.7932 84.549L84.6681 84.0648ZM85.0579 84.8689L85.9796 84.4809L85.979 84.4797L85.0579 84.8689ZM85.4657 86.0138L84.5081 86.3019L84.5082 86.3022L85.4657 86.0138ZM86.2552 92.629L85.2553 92.6135L85.2552 92.6181L86.2552 92.629ZM86.2687 93.5585L87.2684 93.5339V93.5339L86.2687 93.5585ZM86.2847 95.0169L85.2848 95.0024L85.2847 95.0039L86.2847 95.0169ZM86.2257 96.147L85.2304 96.0493L85.2297 96.057L86.2257 96.147ZM86.1012 96.9758V97.9758H86.9039L87.0775 97.192L86.1012 96.9758ZM82.8207 96.9758L82.065 96.3208L80.6307 97.9758H82.8207V96.9758ZM74.4675 97.9757H82.8207V95.9757H74.4675V97.9757ZM73.5403 96.3866C73.5193 96.5372 73.4986 96.686 73.4775 96.8351L75.4576 97.1163C75.4792 96.9641 75.5003 96.8126 75.5212 96.6624L73.5403 96.3866ZM73.5936 96.0055C73.5756 96.1335 73.5579 96.2607 73.5403 96.3866L75.5212 96.6624C75.5388 96.5362 75.5562 96.4109 75.574 96.2851L73.5936 96.0055ZM73.9953 93.5087C73.8493 94.3381 73.7168 95.1696 73.5945 95.9995L75.5731 96.2911C75.6932 95.4766 75.8228 94.6637 75.965 93.8553L73.9953 93.5087ZM75.4696 86.6646C74.8863 88.9247 74.3942 91.2096 73.9949 93.511L75.9654 93.853C76.3556 91.6045 76.8363 89.3723 77.4061 87.1644L75.4696 86.6646ZM75.9795 84.9197C75.7722 85.5079 75.6126 86.1041 75.4689 86.6673L77.4068 87.1617C77.5481 86.6079 77.6898 86.0839 77.8658 85.5845L75.9795 84.9197ZM76.5259 83.6263C76.3047 84.0537 76.128 84.4918 75.9779 84.9243L77.8674 85.5799C77.9957 85.2099 78.1367 84.8651 78.3021 84.5456L76.5259 83.6263ZM76.9026 82.98C76.766 83.1905 76.6411 83.4072 76.5289 83.6205L78.2991 84.5514C78.3867 84.3848 78.4812 84.2215 78.5805 84.0684L76.9026 82.98ZM80.5728 80.5568C78.9621 80.7114 77.674 81.7963 76.9037 82.9782L78.5793 84.0702C79.139 83.2114 79.9506 82.6257 80.7638 82.5477L80.5728 80.5568ZM81.4242 80.5655C81.1459 80.5331 80.8594 80.5284 80.5696 80.5572L80.7671 82.5474C80.9063 82.5336 81.049 82.5353 81.1932 82.5521L81.4242 80.5655ZM82.2434 81.2032L82.2432 81.2027L80.3743 81.915L80.3744 81.9153L82.2434 81.2032ZM84.5591 82.21C83.7676 81.3576 82.6496 80.6955 81.4141 80.5648L81.2037 82.5537C81.8722 82.6244 82.5664 83.0032 83.0935 83.5709L84.5591 82.21ZM85.5435 83.5814C85.2755 83.096 84.9503 82.6285 84.5568 82.2075L83.0958 83.5734C83.3606 83.8567 83.5923 84.1851 83.7927 84.5481L85.5435 83.5814ZM85.979 84.4797C85.8501 84.1745 85.7055 83.874 85.543 83.5805L83.7932 84.549C83.919 84.7764 84.0332 85.0131 84.1368 85.2582L85.979 84.4797ZM86.4233 85.7257C86.2988 85.3116 86.1529 84.8926 85.9796 84.4809L84.1363 85.257C84.2774 85.5921 84.4001 85.9429 84.5081 86.3019L86.4233 85.7257ZM87.255 92.6444C87.2904 90.3564 87.1087 88.0009 86.4232 85.7254L84.5082 86.3022C85.1134 88.3112 85.2888 90.4433 85.2553 92.6135L87.255 92.6444ZM87.2684 93.5339C87.2597 93.1793 87.2525 92.882 87.2551 92.6398L85.2552 92.6181C85.2521 92.9033 85.2605 93.2399 85.269 93.5831L87.2684 93.5339ZM87.2846 95.0314C87.2922 94.5003 87.2793 93.9799 87.2684 93.5339L85.269 93.5831C85.2801 94.0342 85.2918 94.5164 85.2848 95.0024L87.2846 95.0314ZM87.2209 96.2448C87.2603 95.8439 87.2794 95.43 87.2846 95.0299L85.2847 95.0039C85.2801 95.3605 85.2632 95.7164 85.2305 96.0493L87.2209 96.2448ZM87.0775 97.192C87.1457 96.8842 87.1923 96.5611 87.2216 96.237L85.2297 96.057C85.2066 96.3127 85.1713 96.5498 85.1249 96.7595L87.0775 97.192ZM82.8207 97.9758H86.1012V95.9758H82.8207V97.9758ZM82.065 96.3207L82.065 96.3208L83.5763 97.6307L83.5764 97.6306L82.065 96.3207Z" fill="#1E4D4C" mask="url(#path-19-inside-3_1091_4245)"/>
<path d="M78.2937 88.4917C78.3674 88.7554 78.5983 88.8995 78.8588 88.9224M78.2937 88.4917L78.7759 88.3594C78.4888 87.3125 78.1548 86.1322 77.4849 85.1713C77.5068 85.1127 77.5292 85.0545 77.5521 84.9967C78.1506 85.8039 78.5194 86.8318 78.8369 87.934L78.9311 88.2609L79.2697 88.2933C79.6055 88.3255 79.9485 88.3606 80.2933 88.3959C80.739 88.4414 81.1876 88.4873 81.6279 88.5277M78.2937 88.4917L78.7753 88.3571C78.7784 88.3684 78.782 88.3745 78.7845 88.378C78.7872 88.3818 78.7914 88.3866 78.799 88.392C78.815 88.4036 78.8486 88.4196 78.9026 88.4244L78.9043 88.4245C79.1301 88.4452 79.3544 88.4667 79.5775 88.4881C80.3587 88.5631 81.126 88.6368 81.8935 88.6669L81.874 89.1665M78.2937 88.4917C78.0343 87.546 77.7549 86.5724 77.2651 85.7521L81.8936 88.6669M78.8588 88.9224L81.8936 88.6669M78.8588 88.9224C79.0793 88.9426 79.3002 88.9638 79.5213 88.9851M78.8588 88.9224L79.5213 88.9851M81.6279 88.5277C81.6277 88.5277 81.6275 88.5276 81.6273 88.5276L81.6742 88.0298L81.6285 88.5277C81.6283 88.5277 81.6281 88.5277 81.6279 88.5277ZM81.6279 88.5277C81.6993 88.5344 81.7625 88.5418 81.8217 88.5489C81.8295 88.5499 81.8374 88.5508 81.8454 88.5518C81.8949 88.5578 81.9466 88.564 81.9931 88.5685C82.0852 88.5772 82.2555 88.5921 82.4268 88.5281C82.6324 88.4512 82.7496 88.3007 82.821 88.1732C82.8827 88.063 82.934 87.9258 82.9823 87.7915M82.9823 87.7915C82.9126 88.1214 82.8361 88.3418 82.7245 88.479L82.7245 88.479L82.7224 88.4816C82.5794 88.6595 82.3924 88.6863 81.8936 88.6669M82.9823 87.7915C82.9832 87.7873 82.9841 87.783 82.985 87.7788C82.9852 87.7778 82.9854 87.7768 82.9856 87.7758C82.989 87.7595 82.9924 87.7429 82.9958 87.726C83.0095 87.6574 83.0233 87.582 83.0379 87.5025C83.0902 87.217 83.1524 86.8777 83.2576 86.602L83.2578 86.6014C83.2692 86.5717 83.2807 86.5421 83.2925 86.5125M82.9823 87.7915C82.9838 87.7875 82.9852 87.7834 82.9867 87.7794L82.9867 87.7794L82.9877 87.7766C83.0632 87.5619 83.1185 87.3425 83.1674 87.1481C83.1711 87.1335 83.1747 87.1191 83.1783 87.1048C83.2228 86.9284 83.2638 86.7711 83.3141 86.6235C83.3141 86.6233 83.3142 86.6232 83.3143 86.623C83.3247 86.5925 83.3355 86.5624 83.3468 86.5326C83.6167 85.8283 83.9936 85.2451 84.4902 84.8151C84.5283 84.8976 84.5651 84.981 84.6006 85.0651L85.0612 84.8705M81.8936 88.6669L81.874 89.1665M83.2925 86.5125L83.5363 87.5592C83.5875 87.2811 83.6377 87.0083 83.7247 86.7802C84.0114 86.0317 84.4405 85.3389 85.0612 84.8705M83.2925 86.5125L82.8796 86.3543M83.2925 86.5125L84.4514 84.7322M85.0612 84.8705L84.8267 84.5597C84.8511 84.5436 84.8757 84.5278 84.9005 84.5124C84.9567 84.6304 85.0102 84.7498 85.0612 84.8705ZM84.4514 84.7322C84.3908 84.6047 84.327 84.4791 84.26 84.3558C83.6388 84.8584 83.1886 85.5481 82.8796 86.3543M84.4514 84.7322L82.516 87.6105C82.5837 87.4184 82.6336 87.2202 82.6837 87.0216C82.7403 86.7969 82.797 86.5717 82.8796 86.3543M84.4514 84.7322C83.9249 85.2285 83.5526 85.8616 83.293 86.5114L82.8796 86.3543M81.874 89.1665C81.0909 89.1358 80.3049 89.0603 79.5213 88.9851M81.874 89.1665L79.5213 88.9851M79.3174 87.7956C78.9721 86.5972 78.546 85.3999 77.7794 84.4768L79.3174 87.7956ZM77.1892 84.566C77.0927 84.7898 77.0056 85.0184 76.9251 85.2503L77.1892 84.566Z" fill="#1E4D4C" stroke="#1E4D4C"/>
<path d="M85.6867 96.4757H75.044C75.164 95.6368 75.2957 94.8006 75.4398 93.9655C76.8841 92.9219 78.3513 92.0666 79.9572 92.0149L79.9576 92.0149C81.397 91.9676 82.8315 92.5967 84.0334 93.5313L84.0334 93.5313C84.665 94.0224 85.2403 94.5904 85.7856 95.2018C85.7742 95.6451 85.7451 96.0791 85.6867 96.4757Z" fill="#1E4D4C" stroke="#1E4D4C"/>
<mask id="path-23-inside-4_1091_4245" fill="white">
<path fill-rule="evenodd" clip-rule="evenodd" d="M88.6529 100.165H72.0486C72.0486 100.165 72.0486 100.164 72.0486 100.164H72.0486C72.2304 99.6272 72.4613 99.1048 72.7316 98.6069C72.7316 98.6069 72.7316 98.6069 72.7316 98.6069C73.223 97.7028 73.8519 96.8709 74.5823 96.1453C75.6371 95.1004 76.9064 94.2766 78.3051 93.7705C79.3746 93.3856 80.5309 93.176 81.661 93.3381C82.5225 93.4626 83.3267 93.7934 84.0637 94.2553C84.8351 94.7385 85.5344 95.3657 86.1404 96.0471C86.1519 96.0605 86.1634 96.0734 86.1749 96.0862C86.1927 96.1063 86.2102 96.126 86.2272 96.147C86.2272 96.1469 86.2272 96.1469 86.2272 96.1469C87.2623 97.331 88.0829 98.6986 88.6529 100.164H88.6528C88.6528 100.164 88.6528 100.165 88.6529 100.165Z"/>
</mask>
<path fill-rule="evenodd" clip-rule="evenodd" d="M88.6529 100.165H72.0486C72.0486 100.165 72.0486 100.164 72.0486 100.164H72.0486C72.2304 99.6272 72.4613 99.1048 72.7316 98.6069C72.7316 98.6069 72.7316 98.6069 72.7316 98.6069C73.223 97.7028 73.8519 96.8709 74.5823 96.1453C75.6371 95.1004 76.9064 94.2766 78.3051 93.7705C79.3746 93.3856 80.5309 93.176 81.661 93.3381C82.5225 93.4626 83.3267 93.7934 84.0637 94.2553C84.8351 94.7385 85.5344 95.3657 86.1404 96.0471C86.1519 96.0605 86.1634 96.0734 86.1749 96.0862C86.1927 96.1063 86.2102 96.126 86.2272 96.147C86.2272 96.1469 86.2272 96.1469 86.2272 96.1469C87.2623 97.331 88.0829 98.6986 88.6529 100.164H88.6528C88.6528 100.164 88.6528 100.165 88.6529 100.165Z" fill="white"/>
<path d="M72.0486 100.165L71.1017 99.843L70.6529 101.165H72.0486V100.165ZM88.6529 100.165V101.165H90.1067L89.5867 99.8069L88.6529 100.165ZM72.0486 100.164L72.9955 100.486L73.4444 99.1644H72.0486V100.164ZM72.0486 100.164L71.1014 99.8439L70.6545 101.164H72.0486V100.164ZM72.7316 98.6069L73.0105 97.6466L72.2369 97.4218L71.8527 98.1298L72.7316 98.6069ZM72.7316 98.6069L72.4526 99.5672L73.2258 99.7918L73.6102 99.0844L72.7316 98.6069ZM74.5823 96.1453L73.8785 95.4349L73.8776 95.4359L74.5823 96.1453ZM78.3051 93.7705L77.9665 92.8296L77.9648 92.8302L78.3051 93.7705ZM81.661 93.3381L81.804 92.3484L81.803 92.3482L81.661 93.3381ZM84.0637 94.2553L83.5327 95.1027L83.5329 95.1028L84.0637 94.2553ZM86.1404 96.0471L86.8997 95.3963L86.8937 95.3893L86.8876 95.3825L86.1404 96.0471ZM86.1749 96.0862L86.9218 95.4213L86.9218 95.4213L86.1749 96.0862ZM86.2272 96.147L85.45 96.7762L86.9906 98.6791L87.2227 96.2418L86.2272 96.147ZM86.2272 96.1469L86.9801 95.4887L85.4519 93.7404L85.2317 96.052L86.2272 96.1469ZM88.6529 100.164V101.164H90.1146L89.5849 99.802L88.6529 100.164ZM88.6528 100.164V99.1644H87.199L87.7189 100.522L88.6528 100.164ZM72.0486 101.165H88.6529V99.1646H72.0486V101.165ZM71.1018 99.8428L71.1017 99.843L72.9955 100.486L72.9955 100.486L71.1018 99.8428ZM72.0486 101.164H72.0486V99.1644H72.0486V101.164ZM71.8527 98.1298C71.5566 98.6752 71.3024 99.2499 71.1014 99.8439L72.9958 100.485C73.1584 100.005 73.366 99.5343 73.6104 99.0839L71.8527 98.1298ZM73.0106 97.6466C73.0043 97.6448 72.9993 97.6434 72.9961 97.6425C72.9946 97.6421 72.9933 97.6417 72.9925 97.6415C72.9921 97.6414 72.9918 97.6413 72.9916 97.6413C72.9915 97.6412 72.9914 97.6412 72.9913 97.6412C72.9913 97.6412 72.9913 97.6412 72.9913 97.6412C72.9913 97.6412 72.9913 97.6412 72.9913 97.6412C72.9913 97.6412 72.9913 97.6412 72.9913 97.6412C72.9913 97.6412 72.9913 97.6412 72.9913 97.6412C72.9913 97.6412 72.9913 97.6412 72.9913 97.6412C72.9909 97.6411 72.9933 97.6417 72.9961 97.6425C72.9992 97.6433 73.0043 97.6447 73.0105 97.6466L72.4526 99.5672C72.4588 99.569 72.4639 99.5704 72.467 99.5712C72.4686 99.5717 72.4699 99.572 72.4707 99.5722C72.4711 99.5723 72.4714 99.5724 72.4716 99.5725C72.4717 99.5725 72.4718 99.5725 72.4718 99.5725C72.4719 99.5725 72.4719 99.5726 72.4719 99.5726C72.4719 99.5726 72.4719 99.5726 72.4719 99.5726C72.4719 99.5726 72.4719 99.5726 72.4719 99.5726C72.4719 99.5726 72.4719 99.5726 72.4719 99.5726C72.4719 99.5726 72.4719 99.5726 72.4719 99.5726C72.4723 99.5727 72.4699 99.572 72.4671 99.5712C72.464 99.5704 72.4589 99.569 72.4526 99.5672L73.0106 97.6466ZM73.8776 95.4359C73.0802 96.2279 72.392 97.1376 71.853 98.1294L73.6102 99.0844C74.0539 98.2681 74.6235 97.5138 75.287 96.8548L73.8776 95.4359ZM77.9648 92.8302C76.4222 93.3883 75.0305 94.2936 73.8785 95.4349L75.2861 96.8558C76.2436 95.9072 77.3905 95.1649 78.6453 94.7108L77.9648 92.8302ZM81.803 92.3482C80.4612 92.1557 79.1341 92.4094 77.9665 92.8296L78.6437 94.7114C79.615 94.3619 80.6005 94.1962 81.519 94.328L81.803 92.3482ZM84.5947 93.4079C83.7632 92.8869 82.8284 92.4964 81.804 92.3484L81.518 94.3278C82.2166 94.4288 82.8901 94.7 83.5327 95.1027L84.5947 93.4079ZM86.8876 95.3825C86.2328 94.6462 85.4627 93.9516 84.5945 93.4078L83.5329 95.1028C84.2075 95.5254 84.8361 96.0853 85.3932 96.7117L86.8876 95.3825ZM86.9218 95.4213C86.9094 95.4075 86.9041 95.4015 86.8997 95.3963L85.3812 96.6979C85.3998 96.7196 85.4175 96.7394 85.4279 96.7511L86.9218 95.4213ZM87.0044 95.5177C86.9703 95.4756 86.9372 95.4386 86.9218 95.4213L85.4279 96.7511C85.4375 96.7619 85.4424 96.7674 85.4466 96.7723C85.4503 96.7766 85.451 96.7774 85.45 96.7762L87.0044 95.5177ZM85.2317 96.052C85.2334 96.0347 85.2352 96.0206 85.2365 96.0114C85.2371 96.0068 85.2376 96.0031 85.238 96.0008C85.2383 95.9987 85.2385 95.9969 85.2385 95.9972C85.2385 95.9972 85.2385 95.9972 85.2385 95.9972C85.2385 95.9972 85.2385 95.9972 85.2385 95.9972C85.2385 95.9972 85.2385 95.9972 85.2385 95.9972C85.2385 95.9972 85.2385 95.9972 85.2385 95.9973C85.2385 95.9973 85.2385 95.9973 85.2385 95.9974C85.2384 95.9976 85.2384 95.9978 85.2384 95.9981C85.2383 95.9987 85.2381 95.9996 85.238 96.0008C85.2376 96.0031 85.2371 96.0068 85.2364 96.0114C85.2352 96.0207 85.2334 96.0348 85.2317 96.0522L87.2227 96.2418C87.2211 96.2591 87.2193 96.2732 87.218 96.2824C87.2174 96.287 87.2168 96.2908 87.2165 96.293C87.2162 96.2951 87.2159 96.2969 87.216 96.2966C87.216 96.2966 87.216 96.2966 87.216 96.2966C87.216 96.2966 87.216 96.2966 87.216 96.2966C87.216 96.2966 87.216 96.2966 87.216 96.2966C87.216 96.2966 87.216 96.2966 87.216 96.2966C87.216 96.2965 87.216 96.2965 87.216 96.2964C87.216 96.2962 87.2161 96.296 87.2161 96.2957C87.2162 96.2951 87.2163 96.2942 87.2165 96.293C87.2168 96.2907 87.2174 96.287 87.218 96.2824C87.2193 96.2731 87.2211 96.259 87.2227 96.2417L85.2317 96.052ZM89.5849 99.802C88.9739 98.2306 88.0935 96.7624 86.9801 95.4887L85.4743 96.805C86.4311 97.8996 87.1919 99.1665 87.7208 100.527L89.5849 99.802ZM88.6528 101.164H88.6529V99.1644H88.6528V101.164ZM89.5867 99.8069C89.5848 99.8018 89.5831 99.7977 89.5822 99.7953C89.5817 99.794 89.5813 99.793 89.581 99.7924C89.5809 99.7921 89.5808 99.7918 89.5807 99.7917C89.5807 99.7916 89.5807 99.7915 89.5807 99.7915C89.5806 99.7915 89.5806 99.7914 89.5806 99.7914C89.5806 99.7914 89.5806 99.7914 89.5806 99.7914C89.5806 99.7914 89.5806 99.7914 89.5806 99.7914C89.5805 99.7911 89.5813 99.793 89.5821 99.7952C89.5831 99.7976 89.5847 99.8017 89.5867 99.8068L87.7189 100.522C87.7209 100.527 87.7225 100.531 87.7235 100.534C87.724 100.535 87.7244 100.536 87.7246 100.537C87.7248 100.537 87.7249 100.537 87.7249 100.537C87.725 100.537 87.725 100.537 87.725 100.538C87.725 100.538 87.725 100.538 87.725 100.538C87.725 100.538 87.725 100.538 87.725 100.538C87.725 100.538 87.725 100.538 87.725 100.538C87.7252 100.538 87.7244 100.536 87.7235 100.534C87.7226 100.531 87.7209 100.527 87.719 100.522L89.5867 99.8069Z" fill="#1E4D4C" mask="url(#path-23-inside-4_1091_4245)"/>
<path d="M112.087 59.0239C112.094 58.5047 112.097 57.9855 112.089 57.4663M112.087 59.0239L111.587 59.0093C111.587 59.0107 111.587 59.0121 111.587 59.0135M112.087 59.0239C112.079 59.3039 112.072 59.5824 112.066 59.8624M112.087 59.0239L112.066 59.8624M112.089 57.4663L69.5995 50.0648C70.2467 47.2306 71.4246 44.4629 73.1478 42.1696L73.1484 42.1687C74.2667 40.6735 75.6153 39.3869 77.2003 38.4082L77.2004 38.4081C78.9415 37.3325 81.0422 36.9085 83.302 36.7674C84.8872 36.6684 86.5075 36.7092 88.115 36.7497C88.8114 36.7673 89.5054 36.7848 90.193 36.7908V36.7909L90.2018 36.7908C90.8895 36.7848 91.5834 36.7673 92.2798 36.7497C93.8875 36.7092 95.5081 36.6684 97.0937 36.7674C99.3539 36.9085 101.455 37.3325 103.196 38.4081L103.458 37.9838L103.196 38.4081C105.046 39.5509 106.58 41.12 107.799 42.9461L107.8 42.9466C109.225 45.077 110.219 47.5475 110.795 50.0652L110.795 50.0653C111.35 52.4852 111.561 54.9649 111.589 57.4718L111.589 57.4742C111.597 57.9851 111.594 58.4974 111.587 59.0135M112.089 57.4663C112.061 54.9359 111.848 52.4185 111.283 49.9536L112.089 57.4663ZM111.587 59.0135C111.579 59.2933 111.572 59.5713 111.566 59.8493L111.587 59.0135ZM112.066 59.8624L111.566 59.8507C111.566 59.8503 111.566 59.8498 111.566 59.8493C111.551 60.4047 111.528 60.9624 111.501 61.5197L111.501 61.5203C111.452 62.5294 111.388 63.5363 111.32 64.5437L111.319 64.5442C111.207 66.2112 111.067 67.8167 110.363 69.1868C109.58 70.7067 108.146 71.8299 106.585 72.7823L106.585 72.7824C102.018 75.5714 96.1174 76.9772 90.1948 76.9764C84.2723 76.9756 78.3742 75.5682 73.8128 72.7824L73.8125 72.7822C72.2505 71.8298 70.8166 70.7067 70.0349 69.1871L70.0345 69.1864C69.3278 67.8185 69.191 66.2144 69.0753 64.5437C68.9919 63.3038 68.9153 62.0644 68.8648 60.8232L68.8648 60.823C68.842 60.2674 68.8241 59.7147 68.8144 59.1611C68.8078 58.7596 68.803 58.3598 68.803 57.9609V57.9593C68.803 57.4464 68.8127 56.9314 68.8305 56.4191L68.8306 56.4179C68.9002 54.2699 69.1251 52.1442 69.5995 50.0649L112.066 59.8624ZM112.066 59.8624C112.051 60.4226 112.028 60.9844 112 61.5445L112.066 59.8624Z" fill="white" stroke="#1E4D4C"/>
<path d="M72.748 43.871C73.2688 44.0413 73.8044 44.1822 74.3367 44.3198C79.8381 45.7414 85.428 46.9354 91.1047 47.2072C96.5472 47.4693 101.605 46.6455 106.771 45.0027C107.219 44.8586 107.717 44.7734 108.213 44.6703C106.961 42.7933 105.377 41.1702 103.457 39.9844C99.7721 37.7079 94.6719 38.2533 90.1957 38.2926C85.7196 38.2533 80.621 37.7079 76.9359 39.9844C75.2915 40.9999 73.8977 42.3314 72.7463 43.871H72.748Z" fill="white"/>
<path d="M68.303 57.961C68.303 58.3639 68.3079 58.7668 68.3144 59.1697C68.3243 59.7282 68.3423 60.285 68.3652 60.8435C70.2831 60.9909 72.2157 60.95 74.096 60.6142C74.702 60.5045 75.0115 59.8772 75.0688 59.3384C75.3964 56.2052 76.6968 52.7478 79.0602 50.5989C81.7675 48.1356 85.6476 48.1422 89.0755 48.5107C92.5821 48.889 96.6144 49.4377 99.4298 51.7552C102.114 53.9647 103.303 57.4778 104.41 60.6503C104.615 61.2383 105.11 61.6723 105.758 61.6756C107.847 61.687 109.928 61.6772 112.002 61.5462C112.03 60.986 112.053 60.4243 112.067 59.8641C112.074 59.584 112.08 59.3056 112.089 59.0256C110.316 59.0534 108.546 59.0534 106.776 58.9486C105.695 55.8613 104.435 52.7412 102.062 50.4155C99.6346 48.0357 96.3376 46.9613 93.0587 46.3832C89.8093 45.8099 86.4255 45.3628 83.145 45.8984C80.0282 46.4061 77.3749 48.0685 75.5356 50.6251C73.9387 52.8411 73.2034 55.4076 72.6596 58.0298C71.1954 58.0478 69.7492 58.051 68.3063 57.961H68.303Z" fill="#1E4D4C"/>
<path d="M99.9524 59.6888C100.501 63.3591 99.0352 67.2572 96.2313 69.6893C93.429 72.1215 89.3852 73.0239 85.8032 72.0543C83.3481 71.391 81.0945 69.8498 79.799 67.6617C78.2119 64.9822 78.1923 61.5854 79.1373 58.6176C79.9251 56.1445 81.3811 53.8401 83.4759 52.3087C89.7864 47.695 98.8452 52.2743 99.9524 59.6888Z" fill="white"/>
<path d="M98.7814 59.8803C99.2695 63.1477 97.9641 66.6183 95.4697 68.7835C92.9753 70.9487 89.3754 71.7512 86.1865 70.8897C84.0016 70.2985 81.9937 68.926 80.8406 66.9786C79.4288 64.5923 79.4108 61.5705 80.251 58.9287C80.952 56.7275 82.2492 54.6753 84.113 53.3126C89.7308 49.2049 97.7954 53.2815 98.7797 59.8819L98.7814 59.8803Z" fill="#F4F5F5"/>
<path d="M97.4549 60.0999C97.8742 62.9104 96.7523 65.8978 94.6051 67.76C92.4579 69.6222 89.3608 70.3134 86.6174 69.5714C84.7372 69.0637 83.0109 67.8828 82.0184 66.2057C80.8031 64.1535 80.7884 61.5526 81.5123 59.2793C82.115 57.3844 83.2304 55.6204 84.8355 54.4461C89.6687 50.9133 96.6065 54.4199 97.4549 60.0982V60.0999Z" fill="#1E4D4C"/>
<path d="M95.6924 60.3898C96.0216 62.5943 95.1404 64.9364 93.4567 66.3974C91.7731 67.8583 89.3442 68.4004 87.1921 67.819C85.718 67.4194 84.3635 66.494 83.5856 65.1788C82.6324 63.5688 82.6209 61.5281 83.1876 59.7462C83.6609 58.2607 84.5355 56.8767 85.7934 55.9562C89.5833 53.185 95.0258 55.9349 95.6907 60.3898H95.6924Z" fill="#1E4D4C"/>
<path d="M94.2495 60.6272C94.505 62.3354 93.822 64.1501 92.5183 65.2819C91.2129 66.4136 89.3311 66.8345 87.6638 66.3825C86.5206 66.0729 85.4724 65.3556 84.868 64.3369C84.1293 63.0888 84.1212 61.5083 84.5601 60.1277C84.927 58.9763 85.605 57.9035 86.5795 57.191C89.5162 55.0438 93.7335 57.1747 94.2495 60.6272Z" fill="#1E4D4C"/>
<path d="M93.6992 60.7189C93.9268 62.2388 93.3192 63.8521 92.1596 64.8593C91.0001 65.8666 89.3262 66.24 87.8423 65.8388C86.8269 65.5636 85.8933 64.9265 85.3561 64.0208C84.6993 62.912 84.6911 61.5051 85.0826 60.2767C85.4085 59.2531 86.0112 58.2982 86.8793 57.6644C89.4916 55.7547 93.2406 57.6496 93.6992 60.7189Z" fill="#FBB616"/>
<path d="M100.578 68.5727C101.5 67.87 102.095 66.9709 102.847 66.1192C103.21 65.7081 103.931 66.1421 103.765 66.6548C103.384 67.8438 102.411 68.951 101.523 69.7994C100.722 70.5643 99.6626 69.2687 100.577 68.5743L100.578 68.5727Z" fill="#1E4D4C"/>
<path d="M102.725 70.0941C103.212 69.6993 103.603 69.2309 104.06 68.81C104.209 68.6724 104.887 68.0681 105.118 68.3432C105.403 68.6806 105.1 69.3341 104.892 69.6371C104.545 70.1465 104.088 70.592 103.628 70.9981C103.007 71.5452 102.093 70.6067 102.725 70.0957V70.0941Z" fill="#1E4D4C"/>
<path d="M77.1768 67.0657C77.4946 67.3851 77.6633 67.8666 77.8778 68.2613C78.1022 68.6773 78.4052 69.0475 78.623 69.4635C78.9228 70.0318 78.2267 70.5494 77.7517 70.1366C77.3701 69.8042 77.0704 69.3161 76.8083 68.887C76.5528 68.471 76.2548 67.9452 76.2515 67.4506C76.2482 66.9805 76.8476 66.7349 77.1768 67.0674V67.0657Z" fill="#1E4D4C"/>
<path d="M75.385 68.0107C75.6159 68.484 75.8698 68.9557 76.1417 69.4077C76.4103 69.8549 76.8033 70.2479 77.0244 70.7164C77.2881 71.2749 76.7378 71.9284 76.1482 71.5926C75.6192 71.2913 75.2392 70.736 74.8936 70.2447C74.5251 69.7222 74.2696 69.1719 74.0583 68.5692C73.7881 67.7994 75.023 67.2704 75.385 68.0107Z" fill="#1E4D4C"/>
<path d="M68.3893 3.43226L68.3965 3.6577C68.4339 4.83577 68.5909 8.25372 68.7643 11.0902L68.3893 3.43226ZM68.3893 3.43226C68.38 2.87779 68.4036 2.25418 68.5283 1.71704C68.6745 1.08724 68.9221 0.726067 69.2549 0.600736C69.6838 0.440246 70.1539 0.479314 70.6713 0.663301C71.1936 0.849005 71.7184 1.16609 72.2282 1.50298L72.2285 1.50313C74.0104 2.67933 75.5971 4.10144 77.144 5.62066L77.1447 5.62129C77.5948 6.06176 77.99 6.47953 78.3373 6.87784C79.4328 8.14071 79.9547 9.14109 80.0255 9.9776C80.0926 10.7695 79.7612 11.5227 78.8523 12.3309L78.8507 12.3324C78.6891 12.4774 78.5074 12.6241 78.3065 12.7709L78.3065 12.7709L78.3043 12.7725C78.125 12.9051 77.9328 13.0379 77.7246 13.171L77.7237 13.1716C76.5546 13.9224 74.9445 14.6882 72.8574 15.5296L72.8569 15.5298C72.6363 15.619 72.4104 15.7084 72.178 15.8001C72.0373 15.8554 71.8942 15.9104 71.7475 15.9668C71.6897 15.989 71.6313 16.0115 71.5723 16.0343C71.5646 16.0371 71.5578 16.0396 71.5526 16.0416L71.5373 16.0474C71.5366 16.0477 71.536 16.0479 71.5354 16.0481L71.5274 16.0504L71.5141 16.0551C71.0592 16.2134 70.499 16.2014 70.0222 16.0256C69.5461 15.85 69.2201 15.5401 69.1114 15.1574L69.1114 15.1572C69.0978 15.1095 69.0734 14.9701 69.0434 14.7168C69.0151 14.4768 68.9851 14.1656 68.954 13.798C68.8921 13.0633 68.8273 12.1166 68.7643 11.0903L68.3893 3.43226Z" fill="white" stroke="#1E4D4C"/>
<path d="M69.1116 15.1558L69.1115 15.1556C69.098 15.1079 69.0735 14.9685 69.0436 14.7152C69.0152 14.4752 68.9852 14.164 68.9542 13.7964C68.8977 13.1259 68.8387 12.2787 68.781 11.3556C69.3747 10.906 70.003 10.4892 70.6582 10.1064L70.6583 10.1064L70.6623 10.1039C70.8752 9.97687 71.0908 9.8548 71.3109 9.73765L71.3109 9.73767L71.3151 9.73537C71.5303 9.61813 71.7479 9.50381 71.9671 9.39657L71.9671 9.3966L71.9714 9.39446C72.7264 9.01617 73.51 8.67565 74.3194 8.3683L74.321 8.3677C74.554 8.27832 74.7899 8.19325 75.0299 8.10891C75.2667 8.02571 75.5096 7.94526 75.7552 7.86557C76.3934 7.65929 77.0432 7.47222 77.7016 7.30441L77.7018 7.30435C77.9785 7.23367 78.2558 7.16574 78.5336 7.1012C79.4978 8.25806 79.9624 9.18852 80.0289 9.97436C80.096 10.7663 79.7646 11.5195 78.8558 12.3277L78.578 12.5747L78.7345 12.9119C79.2626 14.0495 79.468 15.0987 79.1824 16.0531C78.7157 17.6087 77.1405 18.4703 75.2413 19.2197C75.0638 19.2895 74.8722 19.3259 74.6693 19.3259C73.7581 19.3259 72.7636 18.5619 72.3955 17.4131L72.3955 17.4131L72.3947 17.4105C72.353 17.2827 72.2753 16.9428 72.1683 16.4246L72.0529 15.8659L71.5142 16.0535C71.0594 16.2118 70.4991 16.1998 70.0224 16.024C69.5462 15.8484 69.2202 15.5385 69.1116 15.1558Z" fill="white" stroke="#1E4D4C"/>
<path d="M74.6141 18.602H74.6674C74.7783 18.602 74.882 18.582 74.9753 18.5461C75.8211 18.2127 76.6123 17.8543 77.2423 17.409C77.8689 16.9662 78.3013 16.4619 78.4861 15.8465C78.8168 14.7408 78.3869 13.3115 76.5514 10.7027L76.5514 10.7026C75.8031 9.63898 74.8167 8.2831 73.7368 7.11513L73.7366 7.11487C73.4666 6.82238 73.0625 6.55614 72.6834 6.34919C72.3151 6.14819 72.0061 6.0222 71.9437 5.99706C71.9175 5.98682 71.8903 5.98181 71.8618 5.98181C71.827 5.98181 71.7905 5.99059 71.7565 6.00885L71.5195 5.56864L71.7568 6.00873C71.6967 6.04112 71.6568 6.09618 71.6443 6.15785L71.6436 6.16086L71.6436 6.16086C71.6273 6.23904 71.5437 6.64846 71.4851 7.15663C71.4253 7.67552 71.3975 8.24982 71.4702 8.6765L74.6141 18.602ZM74.6141 18.602C74.0465 18.5685 73.3509 18.0245 73.0848 17.1937L73.0846 17.1929C73.0331 17.0333 72.9158 16.4919 72.7602 15.7061C72.6081 14.9383 72.427 13.9763 72.2485 13.0088C71.8915 11.074 71.5468 9.12469 71.4703 8.6767L74.6141 18.602Z" fill="#1A7170" stroke="#1E4D4C"/>
<path d="M71.8603 6.20571C71.3709 6.10315 71.3709 6.10321 71.3709 6.10327L71.3708 6.10343L71.3707 6.10384L71.3705 6.10509L71.3696 6.10925L71.3666 6.12405L71.3559 6.17817C71.3469 6.2246 71.3343 6.29115 71.3198 6.37351C71.2909 6.53792 71.2539 6.76688 71.2218 7.02548C71.1597 7.52604 71.1076 8.1968 71.1969 8.721C71.1969 8.72133 71.197 8.72166 71.1971 8.72199L71.6899 8.63788M71.8603 6.20571L72.2422 14.4858M71.8603 6.20571C71.676 6.67054 71.676 6.67051 71.6759 6.67049L71.6772 6.67102L71.6848 6.67407L71.7176 6.68765C71.732 6.69369 71.7499 6.70127 71.7708 6.7103M71.8603 6.20571L72.0445 5.74088L71.4926 5.52219L71.3709 6.10315L71.8603 6.20571ZM71.8603 6.20571L71.7708 6.7103M71.8603 6.20571C72.0445 5.74088 72.0445 5.74091 72.0446 5.74094L72.0448 5.74101L72.0452 5.74117L72.0464 5.74163L72.0499 5.74306L72.0619 5.74791L72.1042 5.7654C72.1401 5.78044 72.191 5.80222 72.2533 5.83013C72.3777 5.88579 72.5496 5.96658 72.7404 6.06769C73.1092 6.26307 73.5989 6.55986 73.937 6.92562M71.8603 6.20571L73.937 6.92562M71.6899 8.63788C71.6949 8.66794 71.7005 8.6997 71.7064 8.73323C71.7178 8.79835 71.7304 8.87014 71.7423 8.94907C71.9626 10.2086 72.4848 13.1142 72.8713 15.113L72.2422 14.4858M71.6899 8.63788C71.5929 8.0695 71.6885 7.23879 71.7708 6.7103M71.6899 8.63788L71.7708 6.7103M72.2422 14.4858L72.2306 14.4742L72.5524 16.0879C72.665 16.6526 72.7623 17.0968 72.8185 17.2734L72.8192 17.2754C72.9714 17.7472 73.2446 18.1378 73.563 18.4142C73.8733 18.6834 74.266 18.8764 74.6659 18.8764C74.7998 18.8764 74.9393 18.8546 75.0753 18.7999C76.61 18.1956 77.7646 17.5592 78.3747 16.6875C79.0286 15.7532 78.9875 14.6682 78.4533 13.3955L78.4532 13.3951C78.1069 12.5721 77.5413 11.6325 76.7751 10.542L72.2422 14.4858ZM74.5155 7.57625L74.5155 7.57626C75.3033 8.4992 76.0489 9.50782 76.775 10.5419L74.5155 7.57625ZM74.5155 7.57625L74.5136 7.57405M74.5155 7.57625L74.5136 7.57405M74.5136 7.57405C74.3258 7.35653 74.1346 7.13845 73.937 6.92562M74.5136 7.57405L73.937 6.92562M70.9364 6.01063C70.9929 5.73785 71.1678 5.50396 71.416 5.37008C71.5543 5.29558 71.7085 5.25787 71.8635 5.25787C71.9834 5.25787 72.1018 5.27968 72.2118 5.32366L72.2123 5.32387C72.4569 5.42137 73.6115 5.91115 74.2684 6.6229C74.5906 6.97392 74.9072 7.34026 75.2117 7.70918C75.9465 8.6052 76.6062 9.52004 77.1444 10.285L77.1447 10.2853C77.7652 11.1658 78.3323 12.0453 78.7322 12.9124L78.7327 12.9135C79.2608 14.0511 79.4662 15.1003 79.1806 16.0547C78.7139 17.6104 77.1387 18.4719 75.2394 19.2214C75.0619 19.2911 74.8703 19.3275 74.6675 19.3275C73.7563 19.3275 72.7618 18.5636 72.3937 17.4147L72.3938 17.4147L72.3929 17.4121C72.3512 17.2843 72.2735 16.9444 72.1665 16.4262L72.1664 16.4258C71.7964 14.641 71.1754 11.1847 70.8934 9.59103C70.8804 9.51739 70.8681 9.44754 70.8566 9.38192H70.8571L70.758 8.79819C70.6754 8.31231 70.699 7.69898 70.7585 7.1463C70.8171 6.60167 70.9062 6.1534 70.936 6.01294L70.936 6.01294L70.9364 6.01063Z" fill="#1E4D4C" stroke="#1E4D4C"/>
<path d="M103.529 12.8372L103.529 12.8372C103.654 13.0134 103.8 13.1948 103.965 13.3835C104.115 13.5534 104.275 13.7256 104.448 13.8988L104.448 13.8994C105.429 14.8834 106.837 15.9796 108.694 17.2478L108.696 17.2494C108.821 17.3359 108.948 17.4219 109.078 17.5103C109.15 17.5593 109.224 17.6091 109.298 17.6602C109.385 17.718 109.473 17.7758 109.562 17.8344L109.567 17.8376C109.658 17.8978 109.75 17.9586 109.843 18.0204L109.851 18.0258L109.851 18.0259C109.851 18.0263 109.854 18.0279 109.86 18.0314L109.874 18.0399L109.893 18.0516C110.304 18.3032 110.853 18.4109 111.356 18.3411C111.858 18.2715 112.243 18.0388 112.431 17.6891L112.432 17.687C112.455 17.6451 112.508 17.5165 112.592 17.2769C112.67 17.0503 112.766 16.7548 112.875 16.4044C113.092 15.7041 113.357 14.7977 113.639 13.8121C113.639 13.8121 113.639 13.8121 113.639 13.8121L103.529 12.8372ZM103.529 12.8372L103.526 12.8339M103.529 12.8372L103.526 12.8339M103.526 12.8339C102.864 11.9196 102.68 11.1619 102.838 10.4615C103.002 9.73491 103.558 8.95393 104.639 8.06204L104.64 8.0613C105.184 7.60966 105.847 7.14268 106.638 6.64742L106.638 6.64727C108.473 5.49635 110.33 4.44941 112.322 3.68335L112.322 3.68334M103.526 12.8339L112.322 3.68334M112.322 3.68334C112.892 3.46418 113.473 3.26744 114.023 3.19851C114.568 3.13022 115.035 3.19335 115.419 3.44232C115.717 3.63729 115.881 4.04414 115.888 4.69031C115.896 5.31769 115.751 6.02601 115.602 6.61321L112.322 3.68334Z" fill="white" stroke="#1E4D4C"/>
<path d="M104.13 12.6271L103.519 13.43C102.759 14.4284 102.332 15.4083 102.406 16.4015L104.13 12.6271ZM104.13 12.6271H103.381M104.13 12.6271H103.381M103.381 12.6271C102.836 11.8042 102.691 11.1083 102.837 10.4614C102.989 9.78376 103.483 9.0588 104.426 8.24066C105.101 8.47518 105.769 8.73309 106.421 9.0214L106.421 9.02142L106.425 9.02326C106.703 9.14303 106.979 9.26968 107.253 9.40036L107.253 9.40041C107.485 9.51082 107.715 9.62639 107.944 9.74585C107.952 9.75011 107.958 9.75349 107.961 9.7553C107.963 9.75619 107.964 9.75683 107.965 9.75728C107.966 9.75792 107.967 9.75819 107.967 9.75827L107.974 9.7625L107.982 9.76657C108.199 9.8806 108.413 9.99735 108.625 10.1185L108.627 10.1193C109.402 10.5591 110.142 11.0448 110.843 11.5764L110.843 11.5765L110.848 11.58C111.04 11.7228 111.23 11.8731 111.422 12.0291L111.422 12.0291L111.425 12.0317C111.615 12.1841 111.8 12.3422 111.986 12.5068L111.987 12.5082C112.545 12.9996 113.072 13.5226 113.563 14.0745C113.31 14.9581 113.072 15.7666 112.875 16.4043C112.766 16.7547 112.67 17.0503 112.591 17.2768C112.508 17.5165 112.455 17.645 112.432 17.6869L112.431 17.6891C112.243 18.0387 111.858 18.2714 111.356 18.3411C110.853 18.4108 110.303 18.3031 109.893 18.0515L109.408 17.7547L109.176 18.2729C108.961 18.75 108.809 19.0704 108.741 19.1879C108.225 20.0721 107.326 20.6082 106.492 20.6082C106.145 20.6082 105.829 20.5128 105.573 20.341L103.381 12.6271ZM105.573 20.341C103.879 19.2012 102.527 18.0205 102.406 16.4017L105.573 20.341Z" fill="white" stroke="#1E4D4C"/>
<path d="M112.395 8.36425L111.895 8.35958C111.894 8.43856 111.887 8.85621 111.835 9.36524C111.782 9.88497 111.685 10.4523 111.522 10.854L111.522 10.8547C111.352 11.2748 110.596 13.1041 109.832 14.9174C109.449 15.8238 109.065 16.7242 108.752 17.4414C108.431 18.1752 108.2 18.6789 108.115 18.824L108.115 18.8243C107.731 19.4845 107.055 19.8842 106.494 19.8842C106.285 19.8842 106.11 19.8291 105.98 19.7408L105.978 19.74C105.223 19.232 104.527 18.7114 104.007 18.1407C103.49 17.5735 103.177 16.9881 103.129 16.3474L103.129 16.3471C103.042 15.1966 103.77 13.8932 106.124 11.7402L106.124 11.7402C107.084 10.8612 108.338 9.75027 109.644 8.84184L109.644 8.84142C109.971 8.61361 110.423 8.44025 110.837 8.31965C111.244 8.20139 111.575 8.14512 111.634 8.13562L111.634 8.13562L111.637 8.13516C111.65 8.13288 111.661 8.13214 111.671 8.13214C111.721 8.13214 111.774 8.15037 111.818 8.18735C111.866 8.22946 111.895 8.29304 111.895 8.3604L112.395 8.36425ZM112.395 8.36425C112.396 8.15133 112.305 7.9466 112.143 7.80738L102.63 16.3847C102.748 17.9635 104.175 19.1297 105.699 20.155C105.922 20.3056 106.197 20.3842 106.494 20.3842C107.267 20.3842 108.092 19.8585 108.548 19.0756C108.959 18.3697 111.643 11.8888 111.985 11.0421C112.367 10.102 112.393 8.5395 112.395 8.36425Z" fill="#1A7170" stroke="#1E4D4C"/>
<path d="M102.399 16.3045L102.406 16.4C102.527 18.0189 103.88 19.1996 105.574 20.3394L102.399 16.3045ZM102.399 16.3045C102.358 15.3434 102.781 14.3938 103.518 13.4268L103.518 13.4262C104.093 12.6685 104.838 11.9296 105.632 11.2033C106.249 10.6406 106.985 9.98204 107.782 9.33639C108.249 8.96013 108.734 8.58942 109.228 8.24581L109.228 8.24557C110.023 7.69175 111.256 7.46289 111.518 7.41976L111.518 7.41977L111.521 7.41931C111.57 7.41095 111.62 7.40674 111.669 7.40674C111.895 7.40674 112.114 7.48685 112.289 7.63659L102.399 16.3045ZM111.857 11.9408L111.858 11.9392C112.033 11.5192 112.153 11.2247 112.193 11.1255L112.193 11.1248C112.379 10.6676 112.487 10.0633 112.548 9.51057C112.608 8.96602 112.617 8.50889 112.619 8.364L112.619 8.36357C112.622 8.08499 112.501 7.81949 112.289 7.6367L111.857 11.9408ZM111.857 11.9408C111.228 13.4658 109.906 16.6332 109.175 18.2722C108.961 18.7488 108.809 19.069 108.741 19.1864C108.225 20.0706 107.326 20.6067 106.492 20.6067C106.146 20.6067 105.83 20.5113 105.574 20.3397L111.857 11.9408ZM105.824 19.9683L105.823 19.969C104.454 19.0486 103.463 18.1787 103.054 17.1959C102.616 16.1432 102.889 15.0926 103.684 13.9646C104.198 13.233 104.954 12.4364 105.937 11.5367L105.937 11.5364C106.8 10.7472 107.675 9.97841 108.568 9.28962C108.871 9.05284 109.178 8.82809 109.486 8.61534M105.824 19.9683L111.777 10.9561C111.977 10.4627 112.07 9.79608 112.117 9.29364C112.141 9.03417 112.154 8.80265 112.161 8.63588C112.165 8.55235 112.167 8.48466 112.168 8.43738L112.169 8.38223L112.169 8.36713L112.169 8.36288L112.169 8.36161L112.169 8.36118L112.169 8.36103C112.169 8.36096 112.169 8.3609 111.669 8.35621M105.824 19.9683C106.03 20.1052 106.264 20.1572 106.489 20.1572C107.161 20.1572 107.919 19.6997 108.349 18.9626C108.446 18.7989 108.637 18.3795 108.866 17.8607M105.824 19.9683L108.866 17.8607M109.486 8.61534C109.486 8.61509 109.487 8.61484 109.487 8.61459L109.771 9.02608M109.486 8.61534C109.485 8.61561 109.485 8.61587 109.485 8.61614L109.771 9.02608M109.486 8.61534C109.894 8.33036 110.436 8.14517 110.838 8.0332C111.047 7.97522 111.232 7.93303 111.365 7.90526C111.432 7.89133 111.487 7.88094 111.525 7.87391L111.57 7.86587L111.583 7.8637L111.587 7.86307L111.588 7.86286L111.588 7.86279L111.589 7.86276C111.589 7.86275 111.589 7.86274 111.669 8.35621M109.771 9.02608C110.166 8.75034 110.751 8.56759 111.167 8.46362L108.875 9.68449C109.17 9.45356 109.47 9.23409 109.771 9.02608ZM111.669 8.35621L111.589 7.86274L112.175 7.76715L112.169 8.3609L111.669 8.35621ZM108.866 17.8607C108.866 17.8608 108.866 17.861 108.866 17.8611L108.408 17.6591L108.866 17.8606C108.866 17.8606 108.866 17.8607 108.866 17.8607Z" fill="#1E4D4C" stroke="#1E4D4C"/>
<path d="M71.0669 36.5861L71.3951 36.7916C75.6728 39.4698 80.8329 41.1332 85.2336 41.7783C91.8433 42.7464 101.273 41.9522 108.29 38.4597L108.513 38.9073L108.29 38.4597C111.377 36.9238 113.969 34.879 115.66 32.2604C117.345 29.6506 118.157 26.4394 117.638 22.5195C117.199 19.2077 115.758 16.2746 113.641 13.8694C112.081 12.0974 110.152 10.6128 107.985 9.47794L107.984 9.47766C107.475 9.21032 106.956 8.96342 106.426 8.73382L106.423 8.73275C105.745 8.43419 105.05 8.16568 104.346 7.92413L104.346 7.92403C101.047 6.78941 97.5243 6.23097 93.9997 5.91338L93.9997 5.91337C89.7479 5.53009 84.6814 5.59605 79.8696 6.53023C79.1367 6.67261 78.4127 6.83423 77.6976 7.01825L77.6968 7.01847C72.7949 8.27105 68.3963 10.5193 65.6277 14.1859L65.6276 14.1861C64.1791 16.1026 63.1665 18.4194 62.7607 21.2151L71.0669 36.5861ZM71.0669 36.5861C65.6183 33.0783 61.7836 27.9581 62.7607 21.2152L71.0669 36.5861Z" fill="white" stroke="#1E4D4C"/>
<path d="M71.6709 35.9523C75.8471 38.4747 80.8716 40.0357 85.1564 40.6416C91.5835 41.5497 100.75 40.8102 107.6 37.521C113.638 34.6221 117.873 29.7414 116.846 22.2655C116.41 19.0963 114.981 16.293 112.889 14C110.125 15.6704 108.567 18.9429 108.455 22.1289C108.335 25.6079 109.673 28.9882 111.378 32.0557C105.529 36.4535 97.9256 38.4063 90.5131 38.1482C83.1006 37.8885 75.8738 35.5256 69.3932 32.0466C72.3069 29.0945 72.639 24.3551 70.9909 20.6012C69.9095 18.1396 68.1182 16.0592 65.9994 14.3174C64.5575 16.1579 63.5532 18.3795 63.1518 21.0476C62.1554 27.6807 66.1851 32.6449 71.6694 35.9508L71.6709 35.9523Z" fill="white"/>
<path d="M120.052 26.1609C119.947 28.0706 119.536 30.0327 118.391 31.5641C117.864 32.2684 117.143 32.8875 116.273 33.03C114.645 33.2969 113.238 31.8393 112.524 30.3521C111.178 27.5514 111.139 24.2234 112.069 21.2573C112.726 19.1658 114.945 16.5305 117.222 18.3387C119.405 20.0748 120.196 23.5601 120.053 26.1593L120.052 26.1609Z" fill="#1E4D4C"/>
<path d="M120.14 26.045L120.14 26.0453C120.051 27.6899 119.697 29.3078 118.772 30.5437L118.771 30.5441C118.342 31.1185 117.806 31.5479 117.222 31.644C116.684 31.7321 116.153 31.5433 115.658 31.146C115.16 30.7465 114.734 30.1621 114.444 29.5573L114.444 29.5573C113.319 27.2186 113.277 24.4143 114.067 21.8934C114.334 21.0448 114.918 20.099 115.63 19.5627C115.98 19.2987 116.337 19.1515 116.686 19.1352C117.026 19.1193 117.409 19.2247 117.829 19.5587L117.829 19.5587C118.69 20.2439 119.303 21.2975 119.684 22.4868C120.064 23.673 120.2 24.9547 120.14 26.045Z" fill="white" stroke="#1E4D4C"/>
<path d="M67.8503 20.9336C68.7499 23.8017 68.7032 26.9958 67.4215 29.6622L67.4214 29.6624C67.089 30.3546 66.6011 31.0254 66.0275 31.4855C65.4565 31.9434 64.8371 32.1671 64.204 32.0633L64.204 32.0632C63.5176 31.9508 62.8979 31.4484 62.4059 30.7914C61.3472 29.3753 60.9465 27.5294 60.8439 25.6602L60.8342 25.4839C60.7892 24.2805 60.95 22.8933 61.3629 21.6046C61.7971 20.2498 62.4967 19.0434 63.486 18.2567C63.9726 17.8703 64.4217 17.7447 64.8245 17.7637C65.2364 17.7831 65.6535 17.9566 66.0577 18.2611C66.8774 18.8784 67.5455 19.9621 67.8503 20.9336ZM67.8503 20.9336L68.3274 20.784M67.8503 20.9336L68.3274 20.784M68.3274 20.784C67.6706 18.6908 65.4514 16.0572 63.1748 17.8654L60.3447 25.6876C60.4495 27.5973 60.8606 29.5594 62.0054 31.0908C62.5328 31.7951 63.2534 32.4142 64.1231 32.5567C65.7511 32.8236 67.158 31.366 67.8721 29.8788C69.2184 27.0781 69.2577 23.7501 68.3274 20.784Z" fill="#1E4D4C" stroke="#1E4D4C"/>
<path d="M60.2543 25.5705L60.2543 25.5702C60.1943 24.4799 60.3308 23.1982 60.7107 22.012C61.0916 20.8227 61.704 19.7691 62.5656 19.0839L62.5656 19.0839C62.9855 18.7499 63.3685 18.6445 63.7082 18.6604C64.057 18.6768 64.4142 18.8239 64.7647 19.0879C65.4766 19.6241 66.0607 20.5698 66.3271 21.4184C67.117 23.9393 67.0752 26.7437 65.9507 29.0825L65.9507 29.0825C65.66 29.6873 65.2343 30.2717 64.7363 30.6712C64.241 31.0685 63.7105 31.2573 63.1725 31.1692C62.5885 31.0731 62.0523 30.6437 61.623 30.0693L61.6227 30.0689C60.6969 28.8331 60.3438 27.2151 60.2543 25.5705Z" fill="white" stroke="#1E4D4C"/>
<path d="M71.1298 38.2152C71.8455 38.664 72.5842 39.0833 73.3409 39.4747C77.175 41.4631 81.4366 42.7258 85.1611 43.2729C91.0015 44.1262 99.0122 43.6283 105.696 41.1257C106.666 40.7637 107.609 40.3575 108.513 39.9071C107.871 37.2768 107.537 34.5563 107.219 31.8605C106.705 27.4613 106.217 23.0572 105.76 18.6514C105.731 18.3664 105.696 18.0634 105.521 17.8358C105.369 17.6376 105.131 17.5246 104.903 17.4198C104.281 17.1381 103.654 16.8711 103.018 16.6189C103.557 15.5969 104.088 14.5667 104.612 13.5365C105.275 12.2311 105.92 10.9225 106.492 9.57624C106.533 9.47797 106.579 9.37806 106.625 9.27651C105.932 8.97188 105.224 8.69836 104.509 8.45268C104.437 8.57716 104.369 8.69672 104.304 8.80318C103.582 9.98569 102.922 11.1993 102.252 12.4097C101.646 13.5021 101.04 14.5962 100.437 15.6902C94.4787 13.7592 88.0944 13.1451 81.8789 13.9099C81.494 12.7143 81.1189 11.5171 80.7422 10.3165C80.3999 9.23065 80.1002 8.13004 79.7743 7.03925C79.0323 7.18337 78.2986 7.34715 77.573 7.53387C77.5747 7.54533 77.5779 7.55843 77.5796 7.5699C77.7958 8.7131 78.0742 9.84647 78.3494 10.9766C78.6245 12.0968 78.9422 13.2106 79.2829 14.3145C79.1879 14.3308 79.0913 14.3456 78.9963 14.3652C78.4198 14.4782 77.8302 14.6093 77.347 14.9385C76.4069 15.5789 76.081 16.7892 75.8255 17.8964C74.2581 24.6704 72.6939 31.4428 71.1282 38.2169L71.1298 38.2152Z" fill="#1E4D4C"/>
<path d="M73.3408 39.4747C77.1749 41.463 81.4365 42.7257 85.1609 43.2728C91.0014 44.1261 99.012 43.6282 105.696 41.1256C105.819 38.4576 105.282 35.4833 105.129 33.4556C104.931 30.7876 104.615 28.1016 103.718 25.581C102.818 23.062 101.289 20.7019 99.0628 19.2148C96.308 17.3755 92.8391 17.0626 89.5372 16.8055C86.6186 16.5779 83.4445 16.4157 81.0254 18.0617C79.1288 19.3556 78.0577 21.5388 77.2289 23.6795C75.2636 28.7453 74.1875 34.0911 73.3391 39.473L73.3408 39.4747Z" fill="#1A7170"/>
<path d="M103.881 28.8059C104.04 29.3185 103.993 30.0146 103.495 30.2144C103.126 30.3618 102.72 30.1473 102.389 29.9278C101.732 29.4921 101.105 29.0106 100.517 28.4849C100.229 29.0581 99.8881 29.6035 99.5016 30.1162C99.179 30.5453 98.799 30.9646 98.2929 31.1447C97.7868 31.3232 97.13 31.1775 96.8909 30.6976C96.6501 30.2161 96.9024 29.6445 97.1513 29.1679C97.5919 28.3244 98.0456 27.4612 98.7433 26.8143C100.756 24.9472 103.169 26.5162 103.881 28.8075V28.8059Z" fill="#1E4D4C"/>
<path d="M76.587 28.1689C76.4281 28.6816 76.4756 29.3776 76.9735 29.5775C77.342 29.7249 77.7482 29.5103 78.079 29.2908C78.7358 28.8552 79.3631 28.3737 79.9511 27.8479C80.2393 28.4212 80.58 28.9666 80.9665 29.4792C81.2908 29.9083 81.6692 30.3276 82.1753 30.5077C82.6813 30.6863 83.3381 30.5405 83.5772 30.0606C83.818 29.5791 83.5658 29.0075 83.3168 28.5309C82.8762 27.6874 82.4226 26.8243 81.7248 26.1773C79.712 24.3102 77.2994 25.8793 76.587 28.1706V28.1689Z" fill="#1E4D4C"/>
<path d="M81.7804 33.4819C90.3888 32.419 96.262 33.5687 97.723 33.9028C97.9588 33.9618 98.0849 33.9946 98.0849 33.9946C98.0849 33.9946 98.9284 40.9488 89.3062 40.9832C81.3202 41.011 80.9517 33.5884 80.9517 33.5884C81.2301 33.5491 81.5085 33.5147 81.7804 33.4803V33.4819Z" fill="#1E4D4C"/>
</svg>
