<svg width="150" height="44" viewBox="0 0 150 44" fill="none" xmlns="http://www.w3.org/2000/svg">
<rect width="150" height="44" rx="22" fill="#FCB716"/>
<path d="M40.5 20.125C40.5 20.6442 40.346 21.1517 40.0576 21.5834C39.7692 22.0151 39.3592 22.3515 38.8795 22.5502C38.3999 22.7489 37.8721 22.8008 37.3629 22.6996C36.8537 22.5983 36.386 22.3483 36.0188 21.9812C35.6517 21.614 35.4017 21.1463 35.3004 20.6371C35.1992 20.1279 35.2511 19.6001 35.4498 19.1205C35.6485 18.6408 35.985 18.2308 36.4166 17.9424C36.8483 17.654 37.3558 17.5 37.875 17.5C38.5712 17.5 39.2389 17.7766 39.7312 18.2688C40.2234 18.7611 40.5 19.4288 40.5 20.125ZM24.75 20.125C24.75 19.6058 24.596 19.0983 24.3076 18.6666C24.0192 18.235 23.6092 17.8985 23.1295 17.6998C22.6499 17.5011 22.1221 17.4492 21.6129 17.5504C21.1037 17.6517 20.636 17.9017 20.2688 18.2688C19.9017 18.636 19.6517 19.1037 19.5504 19.6129C19.4492 20.1221 19.5011 20.6499 19.6998 21.1295C19.8985 21.6092 20.235 22.0192 20.6666 22.3076C21.0983 22.596 21.6058 22.75 22.125 22.75C22.8212 22.75 23.4889 22.4734 23.9812 21.9812C24.4734 21.4889 24.75 20.8212 24.75 20.125ZM26.625 18.25C27.1442 18.25 27.6517 18.096 28.0834 17.8076C28.5151 17.5192 28.8515 17.1092 29.0502 16.6295C29.2489 16.1499 29.3008 15.6221 29.1996 15.1129C29.0983 14.6037 28.8483 14.136 28.4812 13.7688C28.114 13.4017 27.6463 13.1517 27.1371 13.0504C26.6279 12.9492 26.1001 13.0011 25.6205 13.1998C25.1408 13.3985 24.7308 13.735 24.4424 14.1666C24.154 14.5983 24 15.1058 24 15.625C24 16.3212 24.2766 16.9889 24.7688 17.4812C25.2611 17.9734 25.9288 18.25 26.625 18.25ZM33.375 18.25C33.8942 18.25 34.4017 18.096 34.8334 17.8076C35.2651 17.5192 35.6015 17.1092 35.8002 16.6295C35.9989 16.1499 36.0508 15.6221 35.9496 15.1129C35.8483 14.6037 35.5983 14.136 35.2312 13.7688C34.864 13.4017 34.3963 13.1517 33.8871 13.0504C33.3779 12.9492 32.8501 13.0011 32.3705 13.1998C31.8908 13.3985 31.4808 13.735 31.1924 14.1666C30.904 14.5983 30.75 15.1058 30.75 15.625C30.75 16.3212 31.0266 16.9889 31.5188 17.4812C32.0111 17.9734 32.6788 18.25 33.375 18.25ZM35.5425 23.9556C35.1615 23.7455 34.8258 23.4622 34.5544 23.1222C34.283 22.7821 34.0813 22.3918 33.9609 21.9738C33.7116 21.1162 33.1906 20.3627 32.4763 19.8265C31.7621 19.2904 30.8931 19.0005 30 19.0005C29.1069 19.0005 28.2379 19.2904 27.5237 19.8265C26.8094 20.3627 26.2884 21.1162 26.0391 21.9738C25.7982 22.815 25.2334 23.5264 24.4688 23.9519C23.7352 24.3488 23.1549 24.979 22.8196 25.7427C22.4844 26.5065 22.4133 27.3602 22.6177 28.1688C22.822 28.9775 23.2902 29.6949 23.948 30.2077C24.6059 30.7205 25.4159 30.9993 26.25 31C26.7498 31.0014 27.2448 30.9016 27.705 30.7066C29.1722 30.1015 30.8193 30.1015 32.2866 30.7066C33.1753 31.0931 34.1791 31.1205 35.0876 30.7832C35.9961 30.4458 36.7387 29.7698 37.1598 28.8969C37.5808 28.0241 37.6476 27.0221 37.3461 26.1011C37.0446 25.18 36.3982 24.4115 35.5425 23.9566V23.9556Z" fill="white"/>
<path d="M56.64 28L53.152 22.608L55.248 21.344L59.584 28H56.64ZM49.36 28V16.8H51.936V28H49.36ZM51.184 23.488V21.328H55.088V23.488H51.184ZM55.488 22.688L53.104 22.4L56.736 16.8H59.472L55.488 22.688ZM60.7934 28V19.392H63.2894V28H60.7934ZM62.0414 18.192C61.5827 18.192 61.2094 18.0587 60.9214 17.792C60.6334 17.5253 60.4894 17.1947 60.4894 16.8C60.4894 16.4053 60.6334 16.0747 60.9214 15.808C61.2094 15.5413 61.5827 15.408 62.0414 15.408C62.5 15.408 62.8734 15.536 63.1614 15.792C63.4494 16.0373 63.5934 16.3573 63.5934 16.752C63.5934 17.168 63.4494 17.5147 63.1614 17.792C62.884 18.0587 62.5107 18.192 62.0414 18.192ZM65.6844 28V19.392H68.2924L71.5404 25.28H70.5004L73.9724 19.392H76.3084L76.3404 28H74.0844V21.952L74.4684 22.208L71.5084 27.168H70.4524L67.4764 22.032L67.9404 21.92V28H65.6844ZM78.7313 28V19.392H81.2113V22.752H84.9553V19.392H87.4513V28H84.9553V24.784H81.2113V28H78.7313ZM94.9926 28V26.32L94.8326 25.952V22.944C94.8326 22.4107 94.6673 21.9947 94.3366 21.696C94.0166 21.3973 93.5206 21.248 92.8486 21.248C92.39 21.248 91.9366 21.3227 91.4886 21.472C91.0513 21.6107 90.678 21.8027 90.3686 22.048L89.4726 20.304C89.942 19.9733 90.5073 19.7173 91.1686 19.536C91.83 19.3547 92.502 19.264 93.1846 19.264C94.4966 19.264 95.5153 19.5733 96.2406 20.192C96.966 20.8107 97.3286 21.776 97.3286 23.088V28H94.9926ZM92.3686 28.128C91.6966 28.128 91.1206 28.016 90.6406 27.792C90.1606 27.5573 89.7926 27.2427 89.5366 26.848C89.2806 26.4533 89.1526 26.0107 89.1526 25.52C89.1526 25.008 89.2753 24.56 89.5206 24.176C89.7766 23.792 90.1766 23.4933 90.7206 23.28C91.2646 23.056 91.974 22.944 92.8486 22.944H95.1366V24.4H93.1206C92.534 24.4 92.1286 24.496 91.9046 24.688C91.6913 24.88 91.5846 25.12 91.5846 25.408C91.5846 25.728 91.7073 25.984 91.9526 26.176C92.2086 26.3573 92.5553 26.448 92.9926 26.448C93.4086 26.448 93.782 26.352 94.1126 26.16C94.4433 25.9573 94.6833 25.664 94.8326 25.28L95.2166 26.432C95.0353 26.9867 94.7046 27.408 94.2246 27.696C93.7446 27.984 93.126 28.128 92.3686 28.128ZM101.337 28V20.864L101.897 21.44H98.4249V19.392H106.729V21.44H103.257L103.817 20.864V28H101.337ZM113.211 28V26.32L113.051 25.952V22.944C113.051 22.4107 112.886 21.9947 112.555 21.696C112.235 21.3973 111.739 21.248 111.067 21.248C110.609 21.248 110.155 21.3227 109.707 21.472C109.27 21.6107 108.897 21.8027 108.587 22.048L107.691 20.304C108.161 19.9733 108.726 19.7173 109.387 19.536C110.049 19.3547 110.721 19.264 111.403 19.264C112.715 19.264 113.734 19.5733 114.459 20.192C115.185 20.8107 115.547 21.776 115.547 23.088V28H113.211ZM110.587 28.128C109.915 28.128 109.339 28.016 108.859 27.792C108.379 27.5573 108.011 27.2427 107.755 26.848C107.499 26.4533 107.371 26.0107 107.371 25.52C107.371 25.008 107.494 24.56 107.739 24.176C107.995 23.792 108.395 23.4933 108.939 23.28C109.483 23.056 110.193 22.944 111.067 22.944H113.355V24.4H111.339C110.753 24.4 110.347 24.496 110.123 24.688C109.91 24.88 109.803 25.12 109.803 25.408C109.803 25.728 109.926 25.984 110.171 26.176C110.427 26.3573 110.774 26.448 111.211 26.448C111.627 26.448 112.001 26.352 112.331 26.16C112.662 25.9573 112.902 25.664 113.051 25.28L113.435 26.432C113.254 26.9867 112.923 27.408 112.443 27.696C111.963 27.984 111.345 28.128 110.587 28.128ZM126.311 28.192C125.372 28.192 124.551 28.0533 123.847 27.776C123.143 27.488 122.594 27.088 122.199 26.576C121.804 26.0533 121.607 25.4453 121.607 24.752C121.607 24.0587 121.799 23.472 122.183 22.992C122.578 22.5013 123.127 22.1333 123.831 21.888C124.535 21.632 125.362 21.504 126.311 21.504C127.271 21.504 128.103 21.632 128.807 21.888C129.522 22.1333 130.071 22.5013 130.455 22.992C130.85 23.472 131.047 24.0587 131.047 24.752C131.047 25.4453 130.85 26.0533 130.455 26.576C130.06 27.088 129.506 27.488 128.791 27.776C128.087 28.0533 127.26 28.192 126.311 28.192ZM126.311 26.288C126.962 26.288 127.474 26.144 127.847 25.856C128.231 25.568 128.423 25.1733 128.423 24.672C128.423 24.1707 128.231 23.7813 127.847 23.504C127.474 23.216 126.962 23.072 126.311 23.072C125.671 23.072 125.164 23.216 124.791 23.504C124.418 23.7813 124.231 24.1707 124.231 24.672C124.231 25.1733 124.418 25.568 124.791 25.856C125.164 26.144 125.671 26.288 126.311 26.288ZM126.311 22.816C125.447 22.816 124.69 22.6987 124.039 22.464C123.399 22.2293 122.898 21.888 122.535 21.44C122.183 20.9813 122.007 20.4373 122.007 19.808C122.007 19.1467 122.188 18.5813 122.551 18.112C122.914 17.632 123.42 17.264 124.071 17.008C124.722 16.7413 125.468 16.608 126.311 16.608C127.175 16.608 127.927 16.7413 128.567 17.008C129.218 17.264 129.724 17.632 130.087 18.112C130.46 18.5813 130.647 19.1467 130.647 19.808C130.647 20.4373 130.466 20.9813 130.103 21.44C129.751 21.888 129.25 22.2293 128.599 22.464C127.948 22.6987 127.186 22.816 126.311 22.816ZM126.311 21.296C126.855 21.296 127.282 21.1733 127.591 20.928C127.911 20.6827 128.071 20.3467 128.071 19.92C128.071 19.472 127.906 19.1253 127.575 18.88C127.255 18.6347 126.834 18.512 126.311 18.512C125.799 18.512 125.383 18.6347 125.063 18.88C124.743 19.1253 124.583 19.472 124.583 19.92C124.583 20.3467 124.738 20.6827 125.047 20.928C125.356 21.1733 125.778 21.296 126.311 21.296Z" fill="white"/>
</svg>
