<svg width="146" height="100" viewBox="0 0 146 100" fill="none" xmlns="http://www.w3.org/2000/svg">
<path d="M99.2099 48.9879L99.1505 48.9303L99.1864 48.8556C99.4103 48.3921 99.4176 47.9334 99.2065 47.597C99.0313 47.3177 98.7229 47.1561 98.3829 47.1645C98.3317 47.7233 97.91 48.0348 97.6002 48.1866C98.263 48.4885 98.2896 49.253 98.2791 49.5066L98.0499 49.5162C98.0635 49.1852 98.0095 48.4452 97.2294 48.3127L96.683 48.22L97.2215 48.0885C97.2576 48.0798 98.0635 47.8743 98.1548 47.184L98.1429 47.1855L98.1655 47.0376C98.2418 46.5373 98.0946 46.0286 97.7622 45.6413C97.4606 45.29 97.0496 45.0888 96.6352 45.0888L96.4433 45.0953L96.4679 44.9554C96.5584 44.4429 96.3842 44.1054 96.2223 43.9124C95.9947 43.6413 95.6474 43.4794 95.2932 43.4794C95.114 43.4794 94.9461 43.5226 94.8071 43.6046L94.6513 43.6964L94.6349 43.5164C94.5897 43.0178 94.1994 42.6122 93.7649 42.6122C93.4732 42.6122 93.2078 42.7973 93.0173 43.1331L92.9048 43.3318L92.813 43.1227C92.5063 42.4231 91.9786 42.0378 91.3268 42.0378C90.5992 42.0378 89.8268 42.5257 89.5294 43.1724C89.3203 43.6272 89.3855 44.0882 89.7134 44.4703L89.8169 44.591L89.6693 44.6509C89.6674 44.6518 89.197 44.8903 89.197 46.3488V48.8853C89.3016 48.556 89.4514 48.2731 89.649 48.0419C89.9986 47.6329 90.4831 47.4079 91.0136 47.4079C91.0314 47.4079 91.0487 47.4096 91.0662 47.4102C91.1592 46.6436 91.5899 46.3567 91.852 46.2567C92.0764 46.171 92.326 46.1572 92.5673 46.2027C93.0854 45.4802 92.759 44.9568 92.5908 44.7632C92.2708 44.3951 91.7519 44.2558 91.4088 44.446L91.298 44.2456C91.7321 44.0059 92.3757 44.1665 92.7638 44.6131C93.1694 45.0797 93.1764 45.6885 92.7991 46.264C92.9913 46.3338 93.1702 46.4432 93.3161 46.5896C93.5609 46.8353 93.6697 47.1445 93.6326 47.4678C94.155 47.1725 94.7121 47.1383 95.1957 47.3808C95.7587 47.6631 96.1225 48.2768 96.1225 48.9438C96.1225 49.6866 95.5564 50.1646 94.997 50.2522C94.9323 50.2624 94.8687 50.2675 94.8065 50.2675C94.3526 50.2675 93.9831 50.0007 93.8384 49.5512L94.0563 49.4811C94.2118 49.9633 94.6264 50.0792 94.9617 50.0261C95.4249 49.9535 95.8936 49.5583 95.8936 48.9438C95.8936 48.3624 95.5793 47.8293 95.0928 47.5854C94.6047 47.3401 94.0456 47.4218 93.5199 47.8146L93.201 48.0524L93.3443 47.6815C93.5233 47.2188 93.3014 46.9 93.1533 46.7513C92.8412 46.4379 92.3282 46.3197 91.9334 46.4706C91.5752 46.6072 91.3517 46.9461 91.2912 47.4297C92.0507 47.5413 92.6307 48.1001 92.6307 48.7723H92.4017C92.4017 48.1465 91.7787 47.6371 91.013 47.6371C90.5506 47.6371 90.1278 47.8339 89.8225 48.1911C89.4489 48.6281 89.251 49.3042 89.2499 50.1462C89.4842 51.2666 90.4311 51.3644 90.7491 51.3644C91.2335 51.3644 91.7315 51.1737 91.9074 50.9204L92.1157 50.6199V50.9857C92.1157 51.302 92.8463 51.4297 93.1106 51.4506C93.218 51.4484 94.7991 51.4156 95.9312 51.4156C97.0097 51.4156 97.3546 51.2251 97.464 51.1117C97.5163 51.0578 97.5154 51.0199 97.5154 51.0182L97.4727 50.7836L97.6836 50.904C97.9431 51.0439 98.1991 51.1149 98.4453 51.1149C98.9312 51.1149 99.3475 50.8316 99.5318 50.3754C99.7252 49.8983 99.6016 49.3667 99.2099 48.9879ZM95.9071 46.3234C95.5012 46.1368 95.0385 46.1676 94.7002 46.4045L94.5688 46.2171C94.9733 45.9336 95.5227 45.8949 96.0027 46.1154C96.4218 46.3081 96.6949 46.6552 96.7327 47.0436L96.5049 47.0659C96.475 46.7595 96.2514 46.4819 95.9071 46.3234Z" fill="#FCB716"/>
<path d="M98.3849 38.1886C98.3849 36.4501 96.2065 35.0408 93.5196 35.0408C90.8325 35.0408 88.6538 36.4501 88.6538 38.1886C88.6538 39.9272 90.8325 41.3365 93.5196 41.3365C94.0903 41.3365 94.6126 41.278 95.1214 41.1613C95.8984 41.9798 95.756 42.8323 95.031 43.9581C95.031 43.9581 97.4499 42.3535 96.6155 40.6172C97.6963 40.0397 98.3849 39.1663 98.3849 38.1886Z" fill="#83D5DD"/>
<path d="M78.5086 50.3751C78.6929 50.8311 79.1095 51.1146 79.5951 51.1146C79.8413 51.1146 80.0974 51.0436 80.3569 50.9037L80.5677 50.7833L80.525 51.0179C80.525 51.0196 80.5242 51.0575 80.5765 51.1114C80.6859 51.2248 81.0307 51.4153 82.1093 51.4153C83.2413 51.4153 84.8224 51.4481 84.9298 51.4503C85.1941 51.4294 85.9251 51.3017 85.9251 50.9854V50.6196L86.1334 50.9201C86.3092 51.1733 86.8072 51.3641 87.2917 51.3641C87.6096 51.3641 88.5565 51.2663 88.7908 50.1459C88.7897 49.3039 88.5919 48.6278 88.2182 48.1908C87.9129 47.8336 87.4901 47.6368 87.0277 47.6368C86.2623 47.6368 85.639 48.1462 85.639 48.7719H85.4101C85.4101 48.0998 85.9901 47.541 86.7495 47.4294C86.6888 46.946 86.4652 46.6071 86.1071 46.4703C85.7125 46.3191 85.1995 46.4375 84.8874 46.751C84.7393 46.9 84.5172 47.2188 84.6964 47.6812L84.8397 48.052L84.5211 47.8143C83.9954 47.4214 83.4366 47.34 82.9482 47.5851C82.4617 47.829 82.1474 48.3621 82.1474 48.9435C82.1474 49.558 82.6164 49.9531 83.0793 50.0258C83.4146 50.0789 83.8289 49.963 83.9847 49.4808L84.2026 49.5509C84.0579 50.0003 83.6884 50.2672 83.2345 50.2672C83.1723 50.2672 83.1087 50.2621 83.044 50.2519C82.4846 50.164 81.9188 49.6863 81.9188 48.9435C81.9188 48.2765 82.2825 47.6628 82.8456 47.3805C83.3292 47.138 83.8863 47.1722 84.4086 47.4675C84.3716 47.1445 84.4804 46.8349 84.7252 46.5893C84.8711 46.4429 85.05 46.3335 85.2422 46.2637C84.8651 45.6882 84.8719 45.0794 85.2775 44.6128C85.6656 44.1662 86.3092 44.0056 86.7433 44.2453L86.6322 44.4457C86.2891 44.2555 85.7702 44.3948 85.4502 44.7628C85.282 44.9565 84.9553 45.4799 85.4734 46.2024C85.7148 46.1572 85.9643 46.1707 86.1888 46.2564C86.4511 46.3564 86.8818 46.6433 86.9745 47.4099C86.9921 47.4096 87.0093 47.4076 87.0271 47.4076C87.5576 47.4076 88.0421 47.6326 88.3917 48.0416C88.5893 48.2728 88.7391 48.5557 88.8437 48.885V46.3485C88.8437 44.89 88.3731 44.6515 88.3714 44.6506L88.2241 44.5907L88.3276 44.47C88.6554 44.0879 88.7207 43.6269 88.5116 43.1721C88.2142 42.5254 87.4415 42.0375 86.7142 42.0375C86.0624 42.0375 85.5347 42.4228 85.228 43.1223L85.1362 43.3315L85.0237 43.1328C84.8332 42.797 84.5675 42.6119 84.2758 42.6119C83.8414 42.6119 83.4513 43.0175 83.4058 43.5161L83.3894 43.6961L83.2337 43.6043C83.0946 43.5223 82.9264 43.479 82.7475 43.479C82.3933 43.479 82.046 43.641 81.8184 43.9121C81.6565 44.1051 81.4826 44.4426 81.5728 44.955L81.5974 45.095L81.4055 45.0885C80.9911 45.0885 80.5801 45.2897 80.2786 45.641C79.9459 46.0283 79.7989 46.537 79.8752 47.0373L79.8978 47.1852L79.8857 47.1837C79.977 47.8737 80.7828 48.0792 80.819 48.0882L81.3574 48.2197L80.8111 48.3124C80.0307 48.4446 79.9767 49.1846 79.9905 49.5159L79.7613 49.5063C79.7506 49.2527 79.7774 48.4882 80.4402 48.1863C80.1304 48.0345 79.7087 47.7233 79.6576 47.1642C79.3175 47.156 79.0092 47.3174 78.8339 47.5967C78.6228 47.933 78.6301 48.3918 78.854 48.8553L78.8902 48.93L78.8308 48.9876C78.4394 49.3666 78.3156 49.8983 78.5086 50.3751ZM81.5358 47.0662L81.308 47.0438C81.3458 46.6555 81.6189 46.3084 82.0381 46.1156C82.518 45.8951 83.0675 45.9339 83.4719 46.2174L83.3405 46.4048C83.0022 46.1679 82.5398 46.1371 82.1336 46.3236C81.7893 46.4819 81.566 46.7595 81.5358 47.0662Z" fill="#FCB716"/>
<path d="M91.6858 37.8806H92.757V39.0069H91.6858V37.8806Z" fill="white"/>
<path d="M93.3616 37.8806H94.4331V39.0069H93.3616V37.8806Z" fill="white"/>
<path d="M95.0374 37.8806H96.1086V39.0069H95.0374V37.8806Z" fill="white"/>
<path d="M86.5978 34.533H80.6652C80.0355 34.533 79.5205 35.0482 79.5205 35.6777V39.5695C79.5205 40.1992 80.0355 40.7142 80.6652 40.7142H84.9952C85.682 41.1724 86.0254 41.8689 85.6438 43.0232C85.6438 43.0232 87.2846 41.8691 86.5786 40.7142H86.5978C87.2275 40.7142 87.7425 40.1992 87.7425 39.5695V35.6777C87.7425 35.0482 87.2275 34.533 86.5978 34.533Z" fill="#6083B3"/>
<path d="M93.4789 36.2119C93.4789 33.8517 91.5657 31.9385 89.2055 31.9385C86.8454 31.9385 84.9319 33.8517 84.9319 36.2119C84.9319 38.572 86.8454 40.4852 89.2055 40.4852C89.2609 40.4852 89.2903 40.4875 89.3452 40.4852L88.6583 43.2329L91.6728 39.7006C92.7692 38.927 93.4789 37.6556 93.4789 36.2119Z" fill="#1A7170"/>
<path d="M88.2542 37.5579V37.187C88.2542 36.9945 88.285 36.8298 88.3469 36.6927C88.4088 36.5553 88.4877 36.4363 88.5838 36.3354C88.6799 36.2348 88.7819 36.1466 88.8893 36.0709C88.997 35.9951 89.0987 35.9222 89.1948 35.851C89.2909 35.78 89.3701 35.7068 89.4317 35.6313C89.4936 35.5556 89.5244 35.4677 89.5244 35.3668C89.5244 35.289 89.4947 35.2237 89.4351 35.1709C89.3755 35.1183 89.2678 35.092 89.1123 35.092C88.9795 35.092 88.8466 35.1048 88.7138 35.1299C88.5809 35.1551 88.4529 35.1873 88.3291 35.226C88.2056 35.265 88.0874 35.3085 87.9755 35.3563C87.8633 35.4044 87.759 35.4516 87.6629 35.4971L87.2988 34.096C87.4223 34.0366 87.5608 33.9758 87.7143 33.9139C87.8678 33.852 88.0348 33.7961 88.2157 33.7458C88.3966 33.6955 88.5925 33.6531 88.8031 33.6186C89.0137 33.5841 89.2358 33.5671 89.4693 33.5671C89.776 33.5671 90.053 33.605 90.3003 33.6805C90.5476 33.7562 90.757 33.8614 90.9289 33.9965C91.1005 34.1316 91.2322 34.2896 91.324 34.4705C91.4156 34.6514 91.4614 34.8473 91.4614 35.0578C91.4614 35.328 91.4224 35.5479 91.3447 35.7173C91.2667 35.8868 91.1706 36.0296 91.0561 36.1466C90.9416 36.2633 90.8156 36.3642 90.6785 36.4488C90.5411 36.5335 90.415 36.6229 90.3006 36.7167C90.1861 36.8105 90.09 36.9228 90.0123 37.0531C89.9345 37.1836 89.8955 37.3518 89.8955 37.5579H88.2542ZM88.2542 37.8807H89.8888V39.007H88.2542V37.8807Z" fill="white"/>
<path d="M82.4207 35.7625V35.47H84.1321V35.7625L83.863 38.8584H82.6841L82.4207 35.7625ZM82.6095 39.0528H83.9317V39.9228H82.6095V39.0528Z" fill="white"/>
<path d="M10.0193 43.975L10.0969 47.1811L14.1998 51.0621L14.1262 47.6507L10.0193 43.975Z" fill="#E2EDF3"/>
<g opacity="0.6">
<path d="M14.2075 48.0149L9.96903 44.2657C9.80619 44.0563 9.99612 43.8393 10.097 43.8393H26.8606C27.066 43.8393 27.2676 43.9208 27.4344 44.068L31.9132 47.6699C32.08 47.8173 31.9986 48.1509 31.797 48.1509L14.2075 48.0149Z" fill="#FCB716"/>
</g>
<path d="M13.5215 50.0812V48.6779C13.5215 48.0381 14.0372 47.5224 14.6768 47.5224H31.3688C31.9541 47.5224 32.4311 47.9953 32.4311 48.5846V50.0851C32.4311 50.6628 31.962 51.1319 31.3843 51.1319H14.5721C13.9906 51.1319 13.5215 50.6628 13.5215 50.0812Z" fill="#FCB716"/>
<path d="M17.6924 48.5988H30.2847V50.2494H17.6924V48.5988ZM30.1416 48.7416H17.8355V50.1067H30.1416V48.7416Z" fill="#94FFD8"/>
<path d="M27.4346 49.461C27.4346 49.0647 27.757 48.7423 28.1535 48.7423C28.5498 48.7423 28.8724 49.0647 28.8724 49.461C28.8724 49.8574 28.5498 50.1797 28.1535 50.1797C27.757 50.1798 27.4346 49.8574 27.4346 49.461ZM27.5776 49.461C27.5776 49.7786 27.8358 50.037 28.1535 50.037C28.4711 50.037 28.7293 49.7786 28.7293 49.461C28.7293 49.1434 28.4711 48.885 28.1535 48.885C27.8358 48.885 27.5776 49.1434 27.5776 49.461Z" fill="#94FFD8"/>
<path d="M25.5709 44.3003L25.5095 44.3798L28.8693 46.9731L28.9307 46.8935L25.5709 44.3003Z" fill="#443C6E"/>
<path d="M14.9473 40.3286L15.0249 43.5348L19.1278 47.4158L19.0542 44.0043L14.9473 40.3286Z" fill="#E2EDF3"/>
<g opacity="0.6">
<path d="M19.1354 44.3686L14.897 40.6194C14.7342 40.41 14.9241 40.193 15.025 40.193H31.7886C31.994 40.193 32.1957 40.2745 32.3624 40.4217L36.8412 44.0236C37.008 44.171 36.9266 44.5046 36.725 44.5046L19.1354 44.3686Z" fill="#6083B3"/>
</g>
<path d="M18.4495 46.4349V45.0315C18.4495 44.3917 18.9651 43.876 19.6048 43.876H36.2968C36.8821 43.876 37.3591 44.3489 37.3591 44.9383V46.4387C37.3591 47.0165 36.89 47.4855 36.3123 47.4855H19.5001C18.9185 47.4855 18.4495 47.0164 18.4495 46.4349Z" fill="#6083B3"/>
<path d="M22.6204 44.9525H35.2127V46.6031H22.6204V44.9525ZM35.0696 45.0953H22.7634V46.4604H35.0696V45.0953Z" fill="#94FFD8"/>
<path d="M32.3625 45.8147C32.3625 45.4184 32.6851 45.096 33.0814 45.096C33.4778 45.096 33.8004 45.4184 33.8004 45.8147C33.8004 46.2111 33.4778 46.5335 33.0814 46.5335C32.6851 46.5335 32.3625 46.2111 32.3625 45.8147ZM32.5056 45.8147C32.5056 46.1323 32.7638 46.3907 33.0815 46.3907C33.3991 46.3907 33.6573 46.1323 33.6573 45.8147C33.6573 45.497 33.3991 45.2387 33.0815 45.2387C32.7638 45.2387 32.5056 45.497 32.5056 45.8147Z" fill="#94FFD8"/>
<path d="M30.5013 40.6506L30.4399 40.7301L33.8001 43.3234L33.8615 43.2438L30.5013 40.6506Z" fill="#94FFD8"/>
<path d="M58.3693 90.2336H53.3945V10.4875C53.3945 9.1137 54.5082 8 55.882 8C57.2558 8 58.3695 9.1137 58.3695 10.4875V90.2336H58.3693Z" fill="#1A7170"/>
<path d="M84.5397 91.0934H27.2239C27.2239 89.2787 28.695 87.8075 30.5098 87.8075H81.2539C83.0687 87.8075 84.5397 89.2787 84.5397 91.0934Z" fill="#1A7170"/>
<path d="M46.7766 51.4237L23.9096 13.4515L1.04294 51.4237L0.216553 50.9262L23.9096 11.5815L47.6029 50.9262L46.7766 51.4237Z" fill="#1A7170"/>
<path d="M112.463 51.4237L89.596 13.4515L66.7292 51.4237L65.9028 50.9262L89.596 11.5815L113.289 50.9262L112.463 51.4237Z" fill="#1A7170"/>
<path d="M106.456 12.5164H5.30778C4.72252 12.5164 4.24805 12.042 4.24805 11.4567C4.24805 10.8714 4.72252 10.397 5.30778 10.397H106.456C107.041 10.397 107.516 10.8714 107.516 11.4567C107.516 12.042 107.041 12.5164 106.456 12.5164Z" fill="#1A7170"/>
<path d="M23.9076 64.3708C4.95358 64.3708 0 50.8553 0 50.8553H47.8193C47.8193 50.8553 42.8616 64.3708 23.9076 64.3708Z" fill="#1A7170"/>
<path d="M89.5939 64.3708C70.6399 64.3708 65.6863 50.8553 65.6863 50.8553H113.506C113.506 50.8553 108.548 64.3708 89.5939 64.3708Z" fill="#1A7170"/>
</svg>
