<svg width="289" height="299" viewBox="0 0 289 299" fill="none" xmlns="http://www.w3.org/2000/svg">
<g clip-path="url(#clip0_1043_9203)">
<path d="M67.1528 198.331C67.1981 198.343 67.2392 198.355 67.2845 198.364C67.268 198.355 67.2557 198.347 67.2392 198.343C67.2104 198.343 67.1816 198.339 67.1528 198.331Z" fill="#FBB616"/>
<path d="M9.57126 130.42C6.52258 133.245 5.86053 138.931 9.16668 141.907C10.9812 143.545 12.718 145.244 14.3609 147.049C15.1823 147.951 15.9424 148.902 16.6903 149.858C16.8538 150.073 16.9805 150.24 17.0704 150.362C17.4096 150.87 17.7406 151.382 18.0594 151.902C20.8955 156.418 23.1432 161.386 25.6198 166.105C31.0469 176.438 37.9494 183.742 47.0628 190.103C51.1372 192.949 55.9023 194.725 59.6049 196.432C62.0773 197.575 64.5048 197.993 67.153 198.323C66.8956 198.253 66.6545 198.127 66.4419 197.94C66.7035 198.083 66.9732 198.205 67.2388 198.335C67.3982 198.355 67.5576 198.375 67.717 198.396C67.5658 198.404 67.4228 198.384 67.2838 198.359C67.5004 198.465 67.7088 198.579 67.9254 198.68C69.2781 199.318 70.5859 199.904 72.008 200.351C77.4679 202.054 83.8636 201.709 89.1886 199.753C91.2851 198.981 93.1527 197.786 94.959 196.497C94.6157 195.197 94.346 193.908 94.1212 192.729C93.2099 187.917 92.5846 182.73 93.3489 177.84C92.6051 177.986 91.8695 178.23 91.1706 178.604C89.3684 179.559 87.9748 180.706 86.945 182.201C86.6548 182.445 86.3647 182.697 86.0663 182.933C85.768 183.157 85.5718 183.303 85.4778 183.376C85.1386 183.6 84.7995 183.823 84.448 184.027C83.7696 184.441 83.0462 184.775 82.3147 185.092C83.8309 184.429 81.6976 184.921 80.774 185.108C80.8313 185.047 78.8615 185.144 78.9595 185.144C78.5141 185.12 78.0686 185.075 77.6273 185.022C77.5619 184.998 77.3208 184.941 76.8958 184.84C76.8181 184.823 74.8647 184.055 75.637 184.445C74.4151 183.856 73.2218 183.214 71.9304 182.791C70.827 182.433 69.6337 182.344 68.4935 182.161C68.3464 182.136 67.7088 182.027 67.1898 181.949C66.7525 181.803 66.1559 181.616 65.9924 181.539C64.5784 180.856 63.1317 180.234 61.6973 179.6C63.3728 180.34 57.1488 177.498 59.2289 178.401C59.6376 178.58 57.5493 177.478 57.1651 177.255C55.5917 176.324 54.1409 175.202 52.7106 174.068C52.8495 174.169 51.3252 172.926 51.3783 172.97C50.1605 171.958 49.3717 171.231 48.6566 170.527C47.0219 168.922 45.4935 167.219 44.0508 165.442C43.0251 164.178 42.0116 162.219 41.043 160.382L37.7328 154.081C35.5995 150.012 33.6052 145.838 30.9938 142.041C28.129 137.883 24.8678 134.204 21.1121 130.818C17.8142 127.847 13.0286 127.204 9.559 130.416L9.57126 130.42Z" fill="#FBB616"/>
<path d="M9.57126 130.42C6.52258 133.245 5.86053 138.931 9.16668 141.907C10.9812 143.545 12.718 145.244 14.3609 147.049C14.7818 147.512 15.1823 147.984 15.5746 148.463C18.7051 150.305 21.8069 152.183 25.1008 153.723C22.9348 150.289 20.3847 147.106 18.276 143.63C18.137 143.407 18.4353 143.151 18.6519 143.289C22.1461 145.565 25.4972 148.049 28.975 150.345C28.1944 146.256 25.6157 142.744 24.312 138.822C24.2221 138.541 24.5899 138.444 24.7616 138.586C27.4425 140.809 30.1356 143.021 32.935 145.086C32.3261 144.049 31.6845 143.033 31.002 142.041C28.1372 137.883 24.876 134.204 21.1203 130.818C17.8223 127.847 13.0368 127.204 9.56718 130.416L9.57126 130.42Z" fill="white"/>
<path d="M230.993 207.989L233.932 223.22L289.004 219.313C289.004 219.313 273.237 204.847 257.835 204.294L230.993 207.989Z" fill="#FBB616"/>
<path d="M231.843 213.021C231.843 213.021 242.722 212.883 247.798 221.951L233.928 223.215L231.839 213.017L231.843 213.021Z" fill="#E6E7E8"/>
<path d="M261.987 195.782C260.871 194.664 260.708 192.676 260.258 191.213C259.703 189.396 258.979 187.632 258.411 185.819C256.96 181.246 254.451 177.157 252.812 172.69C250.9 167.462 248.309 162.548 245.693 157.67C243.879 154.284 243.147 150.15 240.941 147.008C238.787 143.935 232.747 145.02 229.665 145.439C227.389 145.752 225.166 145.529 222.877 145.464C220.458 145.39 218.292 145.862 215.889 146.012C211.357 146.293 206.898 145.321 202.436 146.244C197.879 147.191 193.245 147.74 188.712 148.776C186.493 149.289 184.217 149.789 182.047 150.475C180.735 150.894 179.538 151.492 178.271 151.943C177.952 152.032 177.633 152.118 177.319 152.199C177.045 152.268 176.775 152.345 176.501 152.418C176.485 152.423 176.469 152.427 176.452 152.431C176.346 152.447 176.252 152.475 176.162 152.512C174.883 152.882 173.628 153.313 172.41 153.845C171.932 154.057 171.234 154.378 170.58 154.784C164.736 154.947 158.994 155.451 153.187 157.024C144.184 159.467 135.115 158.54 126.075 157.17C121.952 156.548 117.906 155.41 114.015 153.922C112.369 153.292 111.073 152 109.565 151.122C108.082 150.256 107.783 148.106 106.95 146.711C106.263 145.561 104.641 144.655 102.802 144.106C103.133 139.899 96.7041 137.001 93.9947 141.448C90.6231 146.984 89.4257 153.044 87.5785 159.15C85.5311 165.922 85.5597 172.958 86.7244 179.897C87.6439 185.396 90.4351 191.851 95.1839 195.067C97.7258 196.786 99.998 198.603 102.928 199.672C104.608 200.286 106.263 200.652 107.947 200.863C108.098 200.993 108.253 201.127 108.408 201.261C108.731 201.542 109.046 201.843 109.365 202.147C109.7 202.973 110.055 203.786 110.444 204.586C110.673 205.111 110.905 205.635 111.167 206.151C111.286 206.399 111.424 206.639 111.555 206.887C112.879 209.773 114.077 212.984 115.801 215.736C115.76 215.96 115.695 216.183 115.585 216.423C115.421 216.777 114.011 217.313 113.648 217.643C112.622 218.573 111.49 219.516 110.485 220.508C105.952 224.967 101.428 229.748 96.1034 233.268C94.8447 234.101 92.8994 235.333 92.642 236.971C92.5275 237.694 92.6951 238.414 92.9525 239.089C93.2182 239.792 94.4973 240.56 94.5954 241.027C95.1349 243.633 96.557 246.141 97.5828 248.568C99.0009 251.937 100.215 255.575 102.111 258.689C103.431 260.86 104.199 263.713 105.127 266.083C105.883 268.026 107.125 271.062 109.622 270.53C111.776 270.075 112.834 268.213 113.893 266.502C114.727 265.16 116.627 264.534 117.951 263.754C119.598 262.786 121.147 261.677 122.786 260.697C126.913 258.222 130.317 254.836 134.302 252.202C138.957 249.121 143.154 245.462 147.302 241.784C150.183 239.235 154.049 237.552 156.603 234.682C157.232 233.971 157.543 233.085 157.641 232.105C157.956 230.809 157.984 229.406 157.972 228.077C157.919 223.833 157.723 219.606 157.384 215.383C157.416 214.126 157.445 212.875 157.469 211.623C157.527 208.728 157.138 205.741 156.807 202.806C156.914 201.595 157 200.379 157.024 199.16C157.044 198.164 157.065 197.16 157.081 196.148C158.119 195.587 159.145 195.022 160.142 194.445C163.559 192.441 167.151 190.729 170.678 188.929C171.319 188.599 171.998 188.258 172.648 187.868C175.97 186.717 179.407 185.892 182.652 185.246C189.268 183.925 196.481 182.75 203.22 184.018C206.342 183.421 209.755 183.018 212.836 182.002C213.045 182.092 213.249 182.21 213.462 182.372C213.768 182.612 213.956 184.1 214.193 184.531C214.863 185.742 215.517 187.059 216.253 188.27C219.547 193.693 223.151 199.192 225.338 205.172C225.857 206.582 226.596 208.753 228.141 209.391C228.819 209.671 229.563 209.676 230.282 209.59C231.03 209.505 232.081 208.444 232.563 208.46C235.231 208.554 238.019 207.765 240.634 207.346C244.259 206.765 248.096 206.448 251.582 205.346C254.018 204.574 256.989 204.509 259.523 204.168C261.599 203.891 264.856 203.412 264.925 200.867C264.987 198.676 263.413 197.217 261.991 195.79L261.987 195.782Z" fill="#231F20"/>
<path d="M94.6732 239.406L80.2798 245.922L97.2887 299C97.2887 299 107.869 280.086 104.747 264.852L94.6732 239.406Z" fill="#FBB616"/>
<path d="M89.8876 241.442C89.8876 241.442 92.6217 252.08 84.8406 259.222L80.2798 245.922L89.8876 241.442Z" fill="#E6E7E8"/>
<path d="M172.798 123.27L212.084 96.2753L195.52 76.1138L178.659 88.4017L172.798 123.27Z" fill="#37B34A"/>
<path d="M100.116 84.341L152.581 100.332L179.803 95.3363C179.803 95.3363 197.376 43.9448 178.609 7.45081L163.158 29.6041L132.671 25.8116C132.671 25.8116 124.011 5.13387 107.488 0C107.488 0 106.246 62.4275 100.112 84.341H100.116Z" fill="#FBB616"/>
<path d="M140.444 48.6113C140.055 51.7046 135.188 53.6476 129.577 52.9484C123.966 52.2493 119.732 49.1722 120.12 46.0789C120.513 42.9856 125.376 41.0385 130.987 41.7377C136.598 42.4368 140.832 45.5139 140.44 48.6113H140.444Z" fill="#F4F5F5"/>
<path d="M176.472 53.0947C176.084 56.188 171.217 58.131 165.606 57.4359C159.991 56.7368 155.757 53.6597 156.149 50.5664C156.542 47.469 161.405 45.526 167.016 46.2252C172.627 46.9243 176.861 50.0014 176.472 53.0947Z" fill="#F4F5F5"/>
<path d="M144.935 53.2776L152.349 54.0133L153.26 67.915C153.26 67.915 147.395 73.1911 139.811 66.3663L144.935 53.2776Z" fill="#F4F5F5"/>
<path d="M141.748 25.9458L147.694 40.2174L149.541 40.445L145.238 26.149L141.748 25.9458Z" fill="#37B34A"/>
<path d="M149.165 26.6367L152.251 35.6525L153.35 26.9253L149.165 26.6367Z" fill="#37B34A"/>
<path d="M155.663 27.21L153.493 40.7052L155.573 40.9653L158.895 27.6164L155.663 27.21Z" fill="#37B34A"/>
<path d="M135.466 47.9933C135.099 50.9362 132.397 53.0215 129.443 52.6556C126.484 52.2898 124.383 49.607 124.755 46.66C125.127 43.7171 127.824 41.6318 130.787 42.0017C133.746 42.3676 135.842 45.0544 135.47 47.9973L135.466 47.9933Z" fill="#37B34A"/>
<path d="M171.306 52.4565C170.934 55.3994 168.237 57.4847 165.278 57.1148C162.32 56.7449 160.219 54.0621 160.591 51.1192C160.963 48.1803 163.66 46.091 166.619 46.4609C169.578 46.8308 171.678 49.5136 171.306 52.4565Z" fill="#37B34A"/>
<path d="M130.62 41.9856C130.62 41.9856 124.959 45.5423 129.541 52.6842C129.541 52.6842 135.932 45.8187 130.62 41.9856Z" fill="#231F20"/>
<path d="M166.378 46.4568C166.378 46.4568 161.327 50.3549 165.381 57.0822C165.381 57.0822 171.482 50.8387 166.378 46.4568Z" fill="#231F20"/>
<path d="M168.871 31.0024L182.353 32.6852L175.5 30.5227L182.312 25.5839L173.975 29.2138L179.492 21.1289C179.492 21.1289 171.597 24.2507 168.871 31.0024Z" fill="#37B34A"/>
<path d="M126.005 24.9174L112.703 23.263L120.071 22.8728L116.655 17.2268L121.968 21.2428L121.203 12.3774L126.005 24.9174Z" fill="#37B34A"/>
<path d="M148.069 55.4848C147.465 57.0579 145.842 58.0822 144.093 57.8627C143.439 57.7814 142.843 57.5376 142.344 57.1717L141.997 57.944C142.577 58.3302 143.251 58.5985 143.987 58.6879C146.476 58.9968 148.748 57.2652 149.112 54.8101L148.074 55.4808L148.069 55.4848Z" fill="#37B34A"/>
<path d="M148.699 55.5661C148.899 57.2368 150.215 58.6269 151.968 58.8464C152.626 58.9277 153.26 58.8342 153.836 58.6066L153.979 59.4399C153.321 59.6716 152.602 59.7651 151.866 59.6716C149.381 59.3627 147.604 57.127 147.861 54.6597L148.703 55.5661H148.699Z" fill="#37B34A"/>
<path d="M146.574 52.176L148.074 56.6555L151.56 52.7939C148.699 50.2005 146.57 52.172 146.57 52.172L146.574 52.176Z" fill="#231F20"/>
<path d="M96.5849 80.9591C96.2335 81.6176 95.8779 82.2761 95.5142 82.9265L86.4336 75.3049L69.0078 97.8444L93.336 120.928C93.6875 123.254 94.4966 125.497 94.9503 127.81C95.0034 119.989 95.2608 112.153 95.8044 104.291C96.5931 96.5192 96.3888 88.7392 96.5809 80.9591H96.5849Z" fill="#37B34A"/>
<path d="M182.3 91.4462C178.655 95.2508 172.766 96.7467 167.339 97.1613C158.703 97.8198 149.762 96.7345 141.261 95.2102C129.275 93.064 117.452 88.9056 108.437 80.4752C106.471 78.6379 104.677 76.6624 103.018 74.5894C101.98 75.6096 100.929 76.6218 99.871 77.6176C99.2131 78.2883 98.5388 78.9468 97.8645 79.6013C95.2857 86.9505 93.0789 94.4175 89.9321 101.576C86.9897 108.888 84.3252 116.278 81.865 123.705C81.8486 123.855 81.8323 124.009 81.8119 124.16C81.1335 128.891 80.1036 133.497 79.7889 138.277C79.4497 143.423 79.7317 148.589 79.4252 153.727C79.2413 156.849 77.6311 161.934 81.0395 163.828C82.3349 164.548 84.268 164.556 85.6983 165.06C88.2607 165.975 90.5329 167.523 92.8705 168.865C96.8632 171.153 101.048 172.657 105.49 173.889C109.998 175.137 114.465 176.669 119.144 177.141C121.249 177.352 123.341 177.124 125.425 177.567C126.999 177.901 128.805 177.759 130.297 177.189C131.138 176.868 131.592 176.283 131.666 175.507C133.533 175.372 135.491 175.181 137.587 174.913C168.487 170.922 191.234 150.626 191.234 150.626L182.296 91.4502L182.3 91.4462Z" fill="#37B34A"/>
<path d="M85.7023 77.5405L41.6516 40.2783L37.757 22.2102C37.757 22.2102 38.4231 15.1009 34.2383 16.1455C30.0535 17.1942 31.5247 29.7667 31.5247 29.7667L17.6789 17.1292C17.6789 17.1292 13.4982 13.9546 11.8554 17.6658C11.0952 19.3892 23.3186 30.0838 23.3186 30.0838C23.3186 30.0838 7.47851 18.2186 4.76084 21.5517C2.04727 24.8889 18.8396 35.5306 18.8396 35.5306C18.8396 35.5306 3.26102 27.275 1.98597 30.6244C0.714999 33.9779 13.6699 40.6767 13.6699 40.6767C13.6699 40.6767 0.543357 35.7583 0.00391103 40.2499C-0.167731 41.6807 5.34116 43.6603 10.4291 47.0707C18.8804 52.737 71.174 95.3404 71.174 95.3404L85.7023 77.5487V77.5405Z" fill="#FBB616"/>
<path d="M145.413 58.6513C145.413 58.6513 147.04 58.5009 148.074 56.6555C148.074 56.6555 150.55 59.7204 151.862 59.6716C151.862 59.6716 149.398 67.2688 146.418 66.3379C143.439 65.4071 145.413 58.6513 145.413 58.6513Z" fill="#ED3431"/>
<path d="M102.535 79.0852C102.294 78.5974 101.845 78.2235 101.162 78.134C101.068 78.1178 100.966 78.1056 100.868 78.1056C98.5467 78.1015 96.1969 77.6341 93.9083 77.691C93.7203 77.695 93.516 77.7113 93.3035 77.7316C93.1359 77.6747 92.9684 77.6178 92.8008 77.565C90.6185 76.8536 89.0206 75.6952 86.6258 76.0407C85.3998 76.2154 84.8603 77.9064 85.4733 78.8576C86.3152 80.1746 87.4064 80.89 88.71 81.2761C88.6978 82.2436 89.3189 83.2232 90.5736 83.2232C90.5981 83.2232 90.6185 83.2232 90.643 83.2232C90.9455 83.4833 91.35 83.65 91.8609 83.65C92.4739 83.65 93.1318 83.6947 93.8021 83.7394C93.2422 84.15 92.6782 84.5077 92.1715 84.7678C89.9565 85.9019 91.914 89.2147 94.1208 88.0807C95.7964 87.223 97.5128 85.8531 98.7593 84.4508C100.083 82.9549 101.591 82.3411 102.539 80.9916C102.973 80.3778 102.895 79.6502 102.539 79.0811L102.535 79.0852Z" fill="#37B34A"/>
<path d="M238.455 47.3307C238.455 47.3307 246.036 34.6485 247.025 25.2587C247.025 25.2587 255.632 20.2102 253.449 33.9615L253.274 40.6197L270.442 29.9983C270.442 29.9983 278.002 30.8885 272.089 36.2215C266.18 41.5505 264.21 43.3269 264.21 43.3269C264.21 43.3269 276.474 37.4085 279.13 40.0831C281.787 42.7578 267.299 47.8185 267.299 47.8185C267.299 47.8185 283.09 45.2942 283.193 49.2696C283.299 53.245 267.553 53.3751 267.553 53.3751C267.553 53.3751 279.882 53.8263 280.565 58.2813C281.247 62.7323 264.627 59.2244 264.627 59.2244L253.327 65.4313L209.632 97.0678L194.883 78.8209L238.455 47.3266V47.3307Z" fill="#FBB616"/>
<path d="M169.909 41.205C161.625 40.2742 154.065 42.6359 150.747 42.6359C147.428 42.6359 142.602 38.1117 132.132 36.3964C121.661 34.681 114.665 35.872 114.665 35.872C113.888 39.5954 114.616 40.4043 114.616 40.4043C117.08 41.4367 116.3 45.9812 116.414 47.5421C116.528 49.103 116.103 58.2895 127.456 60.3707C138.004 62.3015 141.388 56.9969 144.224 52.4483C146.247 49.2087 147.71 46.1722 147.71 46.1722C147.71 46.1722 148.299 43.9772 150.444 44.2415C152.586 44.5097 152.369 46.2373 152.369 46.2373C153.325 54.2978 155.164 63.6103 168.082 65.6305C181 67.6548 182.778 56.0091 183.383 52.8833C183.984 49.7574 186.346 49.1233 186.346 49.1233L186.857 45.0585C186.857 45.0585 178.201 42.1237 169.913 41.1969L169.909 41.205ZM129.165 59.139C118.081 57.3464 118.339 52.8386 118.506 46.5625C118.67 40.2905 119.839 35.998 131.494 38.1727C136.864 39.1726 144.784 40.5465 144.755 44.8796C144.731 49.2127 140.248 60.9316 129.165 59.139ZM168.458 64.2404C159.329 63.4152 156.063 57.2286 155.503 49.3184C154.944 41.4042 162.234 42.0058 167.866 42.6033C176.162 43.4813 182.128 43.8634 181.078 52.1922C180.032 60.5251 177.592 65.0696 168.462 64.2404H168.458Z" fill="#231F20"/>
<path d="M167.4 132.033C169.946 128.773 167.845 122.66 164.416 121.668C164.841 116.29 161.531 113.051 156.231 113.555C154.653 111.933 153.256 110.1 150.395 109.998L147.918 110.144C146.835 110.559 145.846 111.067 145.127 111.717C145.025 111.807 144.155 113.075 143.962 113.1C143.599 113.148 142.892 112.148 142.573 111.941C141.764 111.421 140.423 111.01 139.14 110.961C139.479 110.896 139.831 110.835 140.19 110.783L140.113 110.795L136.79 111.132C134.465 112.018 132.863 113.502 132.095 115.685C126.618 116.022 123.909 119.79 125.2 124.997C123.529 126.461 121.69 129.074 122.233 132.172C122.483 133.59 123.182 134.781 124.093 135.72C121.6 139.029 123.627 145.049 127.072 146.086C126.696 151.435 129.921 154.719 135.258 154.203C136.402 155.361 137.432 156.654 138.993 157.317C140.722 157.158 142.508 157.321 144.269 157.345C145.683 156.723 146.811 155.861 147.53 154.662C148.858 155.707 150.142 156.809 152.352 156.8C152.328 156.8 152.312 156.809 152.291 156.809C153.035 156.78 153.783 156.752 154.527 156.707C157.064 155.89 158.536 154.183 159.525 152.069C164.919 151.719 167.616 147.939 166.292 142.769C169.243 140.96 170.69 134.814 167.4 132.046V132.033ZM143.166 154.776C139.68 155.849 136.868 153.036 137.804 149.488C138.752 149.411 139.831 150.35 141.445 149.935C141.686 149.272 141.331 148.11 141.339 147.256C138.96 147.09 137.399 145.943 136.892 143.549C136.165 143.334 134.984 143.659 134.069 143.671C134.216 145.321 134.763 146.496 135.556 147.382C135.029 148.549 134.69 149.874 134.628 151.431C130.877 151.951 128.825 147.996 130.456 145.012C130.211 144.695 130.088 144.228 129.843 143.915C126.766 143.891 124.354 139.281 126.913 137.005L133.554 136.419C134.914 140.793 138.932 142.013 144.898 140.927C145.27 145.976 147.522 153.439 143.17 154.776H143.166ZM144.759 137.992C140.195 138.887 136.39 138.436 136.1 134.655C136.01 133.525 136.353 132.631 137.011 131.891C136.492 131.009 135.519 130.664 134.902 129.895C133.938 130.777 133.623 132.204 133.161 133.509C131.273 133.92 128.049 134.123 126.52 134.094C123.966 132.127 125.135 127.225 128.327 126.896C128.404 126.448 128.535 126.05 128.735 125.709C126.717 123.022 127.714 118.603 131.841 118.648C131.976 120.27 132.597 121.315 133.317 122.229C132.847 123.367 132.328 124.465 132.507 126.139C133.169 126.379 134.338 126.022 135.201 126.034C135.552 123.778 136.394 121.928 139.054 121.599L138.805 118.807C137.105 118.802 136.341 119.575 135.18 120.022C133.758 116.762 135.462 113.567 139.516 113.75C141.204 114.282 142.544 115.522 142.941 117.546C144.093 123.485 143.734 131.773 144.759 137.997V137.992ZM163.166 140.858C163.051 141.269 163.007 141.744 162.753 142.049C165.013 144.769 163.432 149.382 159.647 149.106C159.549 147.443 158.891 146.447 158.172 145.525C158.654 144.399 159.21 143.326 158.981 141.614C158.315 141.374 157.15 141.728 156.288 141.72C156.01 144.033 155.111 145.834 152.434 146.155L152.683 148.951C154.392 149.069 155.36 147.976 156.321 147.862C157.669 150.362 156.235 152.955 154.273 153.801C147.428 155.122 148.437 147.508 147.82 140.545L146.86 129.749C151.314 128.904 155.197 129.245 155.409 133.22C155.467 134.306 155.193 134.984 154.486 135.862C155.005 136.74 155.981 137.086 156.594 137.854C157.477 136.944 158.033 135.761 158.205 134.253L164.972 133.659C167.539 135.594 166.374 140.566 163.166 140.862V140.858ZM164.707 130.733C162.843 131.103 160.093 131.363 158.196 131.306C156.464 127.278 152.761 125.591 146.598 126.822C146.325 120.912 143.611 112.352 150.248 112.803C152.688 112.969 154.523 115.416 153.701 118.388C152.553 118.111 151.65 117.546 150.048 117.815C149.806 118.477 150.162 119.64 150.154 120.493C152.487 120.721 154.147 121.745 154.604 124.196C155.328 124.412 156.513 124.083 157.424 124.079C157.297 122.404 156.725 121.258 155.937 120.371C156.513 119.286 156.795 117.949 156.872 116.445C160.367 115.571 162.814 119.802 161.037 122.737C161.282 123.054 161.405 123.522 161.65 123.835C162.406 124.29 163.17 124.18 163.914 124.66C165.777 125.867 166.284 129.127 164.711 130.733H164.707Z" fill="#F4F5F5"/>
<path d="M120.836 182.214L116.312 198.42L118.425 199.018L123.251 182.811L120.836 182.214Z" fill="#0E6A3E"/>
<path d="M191.144 146.797L191.238 150.622C191.238 150.622 166.701 174.108 132.606 176.807C98.5104 179.511 79.5031 162.703 79.5031 162.703L79.2007 160.003C79.2007 160.003 106.059 178.011 135.626 173.812C165.197 169.609 191.144 146.801 191.144 146.801V146.797Z" fill="#0E6A3E"/>
<path d="M212.084 96.2753L195.521 76.1138L192.954 78.0689L209.55 97.576L212.084 96.2753Z" fill="#0E6A3E"/>
<path d="M69.0122 97.8483L86.4379 75.3088L90.3653 76.5649L71.3539 99.0758L69.0122 97.8483Z" fill="#0E6A3E"/>
</g>
<defs>
<clipPath id="clip0_1043_9203">
<rect width="289" height="299" fill="white"/>
</clipPath>
</defs>
</svg>
