<?xml version="1.0" encoding="UTF-8"?>
<svg id="_Слой_2" data-name="Слой 2" xmlns="http://www.w3.org/2000/svg" viewBox="0 0 191.01 291.46">
  <defs>
    <style>
      .cls-1 {
        fill: #f9b914;
      }

      .cls-1, .cls-2, .cls-3, .cls-4, .cls-5, .cls-6, .cls-7, .cls-8, .cls-9, .cls-10, .cls-11 {
        stroke-width: 0px;
      }

      .cls-2 {
        fill: #e6e7e8;
      }

      .cls-12 {
        stroke: #89cdd8;
        stroke-width: 10px;
      }

      .cls-12, .cls-13, .cls-5, .cls-14, .cls-15, .cls-16, .cls-17, .cls-18, .cls-19, .cls-20, .cls-21, .cls-22 {
        fill: none;
      }

      .cls-12, .cls-13, .cls-16, .cls-18, .cls-19, .cls-23, .cls-20, .cls-21, .cls-22 {
        stroke-miterlimit: 10;
      }

      .cls-4 {
        fill: #6182b2;
      }

      .cls-13 {
        stroke-width: 4.9px;
      }

      .cls-13, .cls-14, .cls-15, .cls-17, .cls-18, .cls-19, .cls-20, .cls-21 {
        stroke-linecap: round;
      }

      .cls-13, .cls-18, .cls-21 {
        stroke: #ebebeb;
      }

      .cls-6 {
        fill: #f9b51b;
      }

      .cls-14 {
        stroke-width: 2.88px;
      }

      .cls-14, .cls-15, .cls-16, .cls-17, .cls-23, .cls-20 {
        stroke: #000;
      }

      .cls-14, .cls-15, .cls-17 {
        stroke-linejoin: round;
      }

      .cls-15, .cls-20 {
        stroke-width: 2.07px;
      }

      .cls-16, .cls-23 {
        stroke-width: 2.92px;
      }

      .cls-17 {
        stroke-width: 3.11px;
      }

      .cls-7 {
        fill: #fdcd70;
      }

      .cls-18 {
        stroke-width: 4.15px;
      }

      .cls-8 {
        fill: #89cdd8;
      }

      .cls-9 {
        fill: #1a7170;
      }

      .cls-19 {
        stroke-width: 2.31px;
      }

      .cls-19, .cls-22 {
        stroke: #1a7170;
      }

      .cls-23 {
        fill: #ebebeb;
      }

      .cls-21 {
        stroke-width: 4.91px;
      }

      .cls-22 {
        stroke-width: 2.24px;
      }

      .cls-10 {
        fill: #fec809;
      }

      .cls-11 {
        fill: #174342;
      }
    </style>
  </defs>
  <g id="_стена_2" data-name="стена 2">
    <g id="_6" data-name="6">
      <g>
        <g>
          <path class="cls-8" d="m58.34,183.26l-3.71,13.97s-12.95-12.63-22.2-10.77c-2.16.44-4.07,1.28-5.64,2.54-1.23.95-2.26,2.15-3.05,3.56-.57,1-1.02,2.09-1.32,3.29-.49,1.74-.7,3.68-.61,5.83.1,3.14.84,6.69,2.29,10.59.08.21.16.41.21.62.03.08.05.14.08.22.41,1.11.75,2.22,1.05,3.31.14.51.27,1.01.39,1.52l.05.34.89,5.15c.06.54.1,1.09.13,1.63.13,2.13.08,4.2-.13,6.21-.69,6.56-3.11,12.52-6.74,17.95-6.86,10.27-20.92,7.91-19.99,1.35.92-6.57,12.39-6.57,15.36-16.67.25-.84.43-1.7.53-2.55.18-1.39.19-2.76.08-4.12-.1-1.28-.31-2.54-.6-3.77s-.65-2.41-1.05-3.55c-.91-2.64-2.03-5.02-2.9-6.92-.58-1.24-1.06-2.28-1.31-3.06-.05-.16-.09-.29-.12-.41-.32-1.35-.6-2.84-.75-4.45h0c-.43-4.34,0-9.42,2.66-14.32,2.4-4.39,6.61-8.62,13.64-12.02,17.77-8.58,32.76,4.54,32.76,4.54Z"/>
          <path class="cls-2" d="m26.77,231.27l-10.84.08c.18-1.39.19-2.76.08-4.12-.1-1.28-.31-2.54-.6-3.77l11.48,1.61c.13,2.13.08,4.2-.13,6.21Z"/>
          <path class="cls-2" d="m21.81,201.69c-2.92.79-8.93,2.41-12.52,3.36-.43-4.33,0-9.41,2.66-14.31l10.47,5.12c-.49,1.74-.7,3.68-.61,5.83Z"/>
          <path class="cls-2" d="m11.46,212.98c-.58-1.24-1.06-2.28-1.31-3.06,1.13-.43,3.01-.88,5.02-.32,2.62.74-1.92,2.68-3.71,3.38Z"/>
          <path class="cls-2" d="m26.79,189c-1.23.95-2.26,2.15-3.05,3.56-1.74-1.01-5.53-3.24-5.6-3.56-.08-.41-.66-2.81,2.41-2.81,1.74,0,4.3,1.49,6.23,2.81Z"/>
          <path class="cls-2" d="m25.88,218.28c-7.75,2.28-9.98-.71-8.26-1.97,1.22-.88,4.65-2.35,6.77-3.19.41,1.11.75,2.22,1.05,3.31.14.51.27,1.01.39,1.52l.05.34Z"/>
        </g>
        <path class="cls-12" d="m56.24,128.48s-21.29,12.69-23.94,35.19c-2.65,22.5,24.82,20.85,24.82,20.85"/>
        <g>
          <path class="cls-5" d="m110.35,129.47s16.33,28.68,33.1,26.04c16.77-2.65,28.24-41.92,28.24-41.92"/>
          <path class="cls-4" d="m109.85,140.39s18.09,26.7,36.85,24.71c18.75-1.99,31.99-39.94,30.23-43.69s-13.02-10.59-15.22-8.16c-2.21,2.43-7.5,38.61-21.84,33.32-14.34-5.3-24.93-21.84-24.93-21.84l-6.84,9.49,1.77,6.18Z"/>
          <g>
            <path class="cls-8" d="m165.68,113.92s3.24-6.69,3.18-7.79c-.06-1.1-4.46-6.77-1.36-9.08,3.1-2.31,8.4,1.08,8.68.99s7.46-12.77,10.49-13.8c3.03-1.03,5.21,2.02,3.66,4.41-1.56,2.39-8.68,8.94-8.68,8.94,0,0,10.59,8.61,9.26,12.43-1.33,3.82-12.22,4.11-13.09,4.62s-3.14,3.72-3.14,3.72l-8.99-4.44Z"/>
            <path class="cls-15" d="m165.03,115.12l3.45-8.59s-5.71-6.8-2-9.92c3.72-3.12,11.26,3.29,12.81,4.87,1.55,1.58,3.22,4,2.46,5.07-.76,1.07-2.78,1.83-4.27,1.35-1.49-.48-7.73-5.25-7.73-5.25l9.6,11.17"/>
            <path class="cls-15" d="m188.91,106.15s-7.19,4.82-8.37,5.81"/>
            <path class="cls-15" d="m186.53,102.46c-.24.06-4.42,2.71-4.42,2.71"/>
            <line class="cls-15" x1="181.9" y1="98.07" x2="178.62" y2="100.6"/>
          </g>
        </g>
        <path class="cls-9" d="m49.51,169.09s-5.84,88.51-5.4,90.2,37.95.85,37.95.85l3.97-65.23,9.73,64.17,32.99,1.54-9.6-91.12-69.64-.42Z"/>
        <path class="cls-4" d="m57.74,123.8s-9.99,43.27-8.98,45.92c1.01,2.65,71.49.22,71.49.22,0,0-11.77-40.02-12.12-45.05-.36-5.03-50.38-1.09-50.38-1.09Z"/>
        <rect class="cls-7" x="60.93" y="116.51" width="6.12" height="41.37" transform="translate(-63.33 55.3) rotate(-32.24)"/>
        <rect class="cls-7" x="101.14" y="116.01" width="6.12" height="41.37" transform="translate(119.4 307.9) rotate(-147.76)"/>
        <path class="cls-8" d="m141.2,74.4c0,8.02-1.09,15.89-3.64,23.05-4.39,12.35-13.16,22.59-28.22,27.8-3.36,1.28-6.96,2.16-10.8,2.55-2.19.35-4.96.65-8.11.83-23.22,1.13-51.95-5.17-60.78-28.66-.87-2.29-1.54-4.76-2-7.4-5.15-28.3,3.86-61.73,34.16-69.49.18-.06.35-.12.53-.17,2.58-.84,5.25-1.49,7.99-1.96,1.1-.18,2.23-.35,3.4-.49,1.23-.14,2.49-.29,3.79-.38,3.62-.29,7.44-.34,11.38-.05,1.98.14,4.01.39,6.04.73.18.03.36.06.54.09,2.92.52,5.94,1.27,8.96,2.28.31.1.62.21.93.31,19.33,6.87,37.1,30.71,35.84,50.96Z"/>
        <path class="cls-2" d="m137.56,97.45c-4.39,12.35-13.16,22.59-28.22,27.8-3.36,1.28-6.96,2.16-10.8,2.55-2.19.35-4.96.65-8.11.83-23.22,1.13-51.95-5.17-60.78-28.66,3.24.03,9.09-.52,15.48-3.97,9.7-5.25,19.35-23.03,32.95-24.01,13.58-.96,16.19,3.6,25.07,11.52,7.92,7.06,20.97,14.95,34.41,13.92Z"/>
        <g>
          <path class="cls-2" d="m30.99,53.11s8.54-18.87,18.33-23.94c0,0-11.01-22.36-18.95-23.19-7.94-.84-2.52,43.76.62,47.13Z"/>
          <path class="cls-4" d="m58.04,24.9S41.13,4.2,35.51,4.17c-5.62-.03-7.44,3.15-7.44,3.15,0,0,1.33-1.42,6.66,1.32s14.26,21.26,14.26,21.26l9.05-5Z"/>
          <path class="cls-8" d="m43.84,33.92s-2.93-6.54-5.14-5.62c-2.21.92-1.05,6.48-1.05,6.48,0,0-2.47-1.81-3.54.14-1.07,1.95,3.12,7.83,3.12,7.83l6.61-8.83Z"/>
          <g>
            <line class="cls-21" x1="39.8" y1="2.46" x2="42.8" y2="9.57"/>
            <line class="cls-21" x1="46.84" y1="8.27" x2="47.67" y2="15.31"/>
            <line class="cls-21" x1="51.19" y1="14.83" x2="50.68" y2="21.94"/>
          </g>
        </g>
        <g>
          <path class="cls-2" d="m132.78,47.57s6.34-39.16-1.08-43.43c-7.42-4.28-19.95,23-19.95,23,0,0,14.06,8.56,21.03,20.44Z"/>
          <path class="cls-4" d="m105.12,23.17l7.1,4.52s11.7-22.59,18.82-23.86c0,0-8.61-6.47-25.92,19.34Z"/>
          <path class="cls-8" d="m116.22,28.98s1.91-7.27,4.43-5.59,1.87,5.66,1.87,5.66c0,0,2.59-1.93,4.47.5,1.88,2.43-4.13,7.38-4.13,7.38l-7.18-6.88.54-1.08Z"/>
          <line class="cls-13" x1="108.67" y1="14.79" x2="108.97" y2="20.34"/>
          <line class="cls-13" x1="113.31" y1="10.93" x2="112.64" y2="17.6"/>
          <line class="cls-13" x1="118.45" y1="3.67" x2="117.35" y2="12.29"/>
        </g>
        <circle class="cls-6" cx="84.59" cy="162.89" r="18.86"/>
        <g>
          <polygon class="cls-7" points="81.04 221.08 71.6 211.75 59.4 217.01 68.11 170.79 89.75 174.86 81.04 221.08"/>
          <polygon class="cls-6" points="92.85 221.1 101.47 211 114.06 215.21 101.48 169.89 80.26 175.78 92.85 221.1"/>
          <polygon class="cls-10" points="65.98 182.05 67.9 182.84 71.9 188.52 78.83 188.1 84.89 191.48 86.82 190.41 89.75 174.86 68.11 170.79 65.98 182.05"/>
          <polygon class="cls-1" points="104.52 181.76 102.45 170.79 80.81 174.86 83.83 190.89 84.89 191.48 90.95 188.1 97.88 188.52 101.87 182.84 104.52 181.76"/>
          <polygon class="cls-9" points="84.89 134.47 90.35 137.52 96.6 137.14 100.2 142.35 105.99 144.72 107.01 150.89 111.2 155.54 109.44 161.54 111.2 167.55 107.01 172.2 105.99 178.37 100.2 180.74 96.6 185.86 90.35 185.48 84.89 188.53 79.42 185.48 73.18 185.86 69.58 180.74 63.79 178.37 62.77 172.2 58.58 167.55 60.33 161.54 58.58 155.54 62.77 150.89 63.79 144.72 69.58 142.35 73.18 137.14 79.42 137.52 84.89 134.47"/>
          <polygon class="cls-11" points="84.89 138.8 89.47 141.36 94.72 141.05 97.74 145.34 102.6 147.42 103.46 152.6 106.97 156.5 105.5 161.54 106.97 166.58 103.46 170.49 102.6 175.67 97.74 177.66 94.72 181.95 89.47 181.64 84.89 184.2 80.3 181.64 75.06 181.95 72.04 177.66 67.18 175.67 66.32 170.49 62.8 166.58 64.28 161.54 62.8 156.5 66.32 152.6 67.18 147.42 72.04 145.34 75.06 141.05 80.3 141.36 84.89 138.8"/>
          <polygon class="cls-7" points="84.89 140.19 89.19 142.6 94.12 142.3 96.95 146.33 101.52 148.28 102.32 153.15 105.62 156.81 104.24 161.54 105.62 166.27 102.32 169.94 101.52 174.8 96.95 176.67 94.12 180.7 89.19 180.41 84.89 182.81 80.58 180.41 75.66 180.7 72.82 176.67 68.26 174.8 67.45 169.94 64.15 166.27 65.54 161.54 64.15 156.81 67.45 153.15 68.26 148.28 72.82 146.33 75.66 142.3 80.58 142.6 84.89 140.19"/>
        </g>
        <g>
          <polygon class="cls-11" points="74.61 269.81 75.01 260.21 56.07 260.21 55.72 270.32 74.61 269.81"/>
          <path class="cls-7" d="m75.37,286.8l.03-17.18-20.35.44-.56,8.14s-18.35-2.42-20.97,10.03l41.84-1.43Z"/>
          <polygon class="cls-11" points="75.13 290.14 75.37 286.8 33.53 288.23 32.96 291.46 75.13 290.14"/>
          <line class="cls-19" x1="63.54" y1="272.83" x2="55.06" y2="273.16"/>
          <line class="cls-19" x1="63.66" y1="275.9" x2="54.92" y2="276.35"/>
          <path class="cls-20" d="m59.91,280.03s-3.3-2.03-6.1-1.82"/>
        </g>
        <g>
          <path class="cls-7" d="m101.31,286.8l-.03-17.18,20.35.44.56,8.14s18.35-2.42,20.97,10.03l-41.84-1.43Z"/>
          <polygon class="cls-11" points="101.55 290.14 101.31 286.8 143.15 288.23 143.72 291.46 101.55 290.14"/>
          <line class="cls-19" x1="113.14" y1="272.83" x2="121.62" y2="273.16"/>
          <line class="cls-19" x1="113.02" y1="275.9" x2="121.76" y2="276.35"/>
          <path class="cls-20" d="m116.77,280.03s3.3-2.03,6.1-1.82"/>
          <polygon class="cls-11" points="101.9 269.67 101.21 259.19 120.41 260.24 120.8 270.18 101.9 269.67"/>
        </g>
        <g>
          <g>
            <path class="cls-23" d="m68.03,62.29c0,5.79-4.69,10.49-10.47,10.49s-10.49-4.69-10.49-10.49c0-1.93.53-3.73,1.44-5.29l18.74,1.34c.51,1.22.78,2.55.78,3.95Z"/>
            <line class="cls-16" x1="43.54" y1="56.63" x2="67.11" y2="58.34"/>
          </g>
          <path class="cls-3" d="m51.89,56.94c.19.21.42.38.7.42,1.63.2,3.24.45,4.87.64.47.06.88-.11,1.17-.42.51.08,1.02.16,1.53.25,1.54.27,3.08.5,4.62.74.23.61.38,1.26.44,1.95.34,4.04-2.66,7.58-6.7,7.92-4.04.34-7.58-2.66-7.92-6.7-.15-1.78.35-3.46,1.3-4.81Z"/>
        </g>
        <g>
          <g>
            <path class="cls-23" d="m95,62.29c0,5.79,4.69,10.49,10.47,10.49s10.49-4.69,10.49-10.49c0-1.93-.53-3.73-1.44-5.29l-18.74,1.34c-.51,1.22-.78,2.55-.78,3.95Z"/>
            <line class="cls-16" x1="119.49" y1="56.63" x2="95.92" y2="58.34"/>
          </g>
          <path class="cls-3" d="m111.14,56.94c-.19.21-.42.38-.7.42-1.63.2-3.24.45-4.87.64-.47.06-.88-.11-1.17-.42-.51.08-1.02.16-1.53.25-1.54.27-3.08.5-4.62.74-.23.61-.38,1.26-.44,1.95-.34,4.04,2.66,7.58,6.7,7.92,4.04.34,7.58-2.66,7.92-6.7.15-1.78-.35-3.46-1.3-4.81Z"/>
        </g>
        <path class="cls-3" d="m75.22,70.28s-4,.64-3.42,4.03c.58,3.39,5.45,6.91,9.4,7.05,3.95.15,12.13-4.18,10.36-8.07-1.77-3.89-7.05-1.48-9.6-1.54s-4.79-1.74-6.73-1.48Z"/>
        <g>
          <path class="cls-17" d="m75.27,85.99s2.01,5.03,7.41,4.69c5.4-.34,6.18-5.18,6.18-5.18"/>
          <line class="cls-17" x1="82.29" y1="82.77" x2="82.3" y2="90.46"/>
        </g>
        <g>
          <line class="cls-14" x1="138.53" y1="76.48" x2="147.3" y2="73.83"/>
          <line class="cls-14" x1="138.86" y1="83.1" x2="150.44" y2="82.76"/>
          <line class="cls-14" x1="140.02" y1="89.88" x2="150.44" y2="92.69"/>
          <path class="cls-14" d="m30.14,73.66s-10.43-3.81-11.25-4.3"/>
          <path class="cls-14" d="m29.32,80.28s-12.91-.66-14.4-.99"/>
          <path class="cls-14" d="m29.48,87.56s-11.42,3.48-12.41,3.14"/>
        </g>
        <path class="cls-2" d="m73.72,20.47c-.04,4.04-.54,23.33-5.81,22.72-4.77-.56-5.48-14.91-5.57-20.27,2.58-.84,5.25-1.49,7.99-1.96,1.1-.18,2.23-.35,3.4-.49Z"/>
        <path class="cls-2" d="m82.42,41.62c-6.57.13-5.21-18.17-4.91-21.53,3.62-.29,7.44-.34,11.38-.05.05,4.72-.25,21.47-6.47,21.58Z"/>
        <path class="cls-2" d="m105.36,23.45c-.71,3.55-3.81,17.6-8.85,16.5-4.93-1.06-2.44-15.04-1.58-19.18.18.03.36.06.54.09,2.92.52,5.94,1.27,8.96,2.28.31.1.62.21.93.31Z"/>
        <g>
          <line class="cls-18" x1="114.62" y1="84.49" x2="114.47" y2="80.81"/>
          <line class="cls-18" x1="121.6" y1="80.64" x2="120.95" y2="77.16"/>
          <line class="cls-18" x1="122.2" y1="73.35" x2="120.91" y2="70.94"/>
          <line class="cls-18" x1="129.67" y1="80.68" x2="127.97" y2="77.68"/>
          <line class="cls-18" x1="130.84" y1="74.74" x2="128.14" y2="71.88"/>
          <line class="cls-18" x1="108.13" y1="79.05" x2="108.15" y2="75.91"/>
        </g>
        <g>
          <line class="cls-18" x1="36.47" y1="80.59" x2="38.67" y2="77.63"/>
          <line class="cls-18" x1="44.33" y1="81.97" x2="46.01" y2="78.86"/>
          <line class="cls-18" x1="43.01" y1="74.67" x2="43.84" y2="72.45"/>
          <line class="cls-18" x1="49.37" y1="76.69" x2="49.89" y2="74.01"/>
          <line class="cls-18" x1="50.58" y1="87.08" x2="51.14" y2="83.68"/>
          <line class="cls-18" x1="34.85" y1="72.28" x2="36.84" y2="69.84"/>
        </g>
        <path class="cls-4" d="m51.35,123s-26.66,17.17-26.88,38.79c-.22,21.62,15.89,29.34,25.15,30.23,9.27.88,4.63-15,4.63-15,0,0-17.65-7.72-13.46-18.09,4.19-10.37,15.44-23.17,15.44-23.17l.08-5.14-4.96-7.61Z"/>
        <path class="cls-8" d="m55.21,189.61s-2.99-9.82,1.15-13.89c4.14-4.07,13.27-8.04,15.81-4.7s-3.23,6.12-3.23,6.12c0,0,12.53-.06,13.28,2.39.75,2.46-4.76,4.07-8.77,3.89,0,0,9.48.18,9.71,4.98.23,4.8-11.76,1.4-11.76,1.4,0,0,7.45,1.84,5.96,5.49-1.49,3.66-20.33.78-22.14-5.68Z"/>
        <path class="cls-22" d="m79.7,158.3s-8.44,3.97-8.11.17c.33-3.81,18.04-13.24,21.02-8.6,2.98,4.63-.66,15.22-8.6,16.55s-.99-5.79,5.13-6.95c6.12-1.16,9.93,8.77,4.47,12.08s-12.91,1.32-12.91,1.32"/>
      </g>
      <polyline class="cls-15" points="62.66 196.86 59.4 217.01 71.6 211.75 79.21 219.37"/>
      <path class="cls-15" d="m46.66,147.88s-7.17,8.38-6.73,14.78c.44,6.4,11.91,13.13,13.57,14.56"/>
    </g>
  </g>
</svg>