<?xml version="1.0" encoding="UTF-8"?>
<svg id="_Слой_2" data-name="Слой 2" xmlns="http://www.w3.org/2000/svg" viewBox="0 0 184.93 234.87">
  <defs>
    <style>
      .cls-1 {
        stroke-width: 2.4px;
      }

      .cls-1, .cls-2, .cls-3, .cls-4, .cls-5, .cls-6, .cls-7, .cls-8 {
        fill: none;
        stroke-linecap: round;
      }

      .cls-1, .cls-2, .cls-4, .cls-7 {
        stroke-linejoin: round;
      }

      .cls-1, .cls-7 {
        stroke: #1a7170;
      }

      .cls-9 {
        fill: #181919;
      }

      .cls-9, .cls-10, .cls-11, .cls-12, .cls-13, .cls-14, .cls-15 {
        stroke-width: 0px;
      }

      .cls-2 {
        stroke-width: 3.01px;
      }

      .cls-2, .cls-4, .cls-6, .cls-8 {
        stroke: #000;
      }

      .cls-10 {
        fill: #1f4d4c;
      }

      .cls-11 {
        fill: #e6e7e8;
      }

      .cls-13 {
        fill: #6182b2;
      }

      .cls-3 {
        stroke: #ebebeb;
      }

      .cls-3, .cls-4, .cls-5 {
        stroke-width: 4.71px;
      }

      .cls-3, .cls-5, .cls-6, .cls-8 {
        stroke-miterlimit: 10;
      }

      .cls-14 {
        fill: #1a7170;
      }

      .cls-5 {
        stroke: #fff;
      }

      .cls-6, .cls-7 {
        stroke-width: 2.35px;
      }

      .cls-15 {
        fill: #ebebeb;
      }

      .cls-8 {
        stroke-width: 2.69px;
      }
    </style>
  </defs>
  <g id="_стена_2" data-name="стена 2">
    <g id="_5" data-name="5">
      <g>
        <rect class="cls-10" x="39.74" y="177.03" width="60.35" height="37.22"/>
        <rect class="cls-10" x="42.26" y="152.22" width="57.82" height="46.26"/>
        <g>
          <path class="cls-11" d="m106.49,34.34S100.36,2.31,93.39.47s-11.25,23.82-11.25,23.82c0,0,17.68,5.14,24.35,10.05Z"/>
          <path class="cls-14" d="m74.49,23.29S80.77-1.25,91.95.05l1.12.34s-7.19.47-10.69,24.14l-7.89-1.24Z"/>
          <path class="cls-14" d="m169.53,230.85h-.01c-2.19.79-4.56,1.48-7.09,2.08-5.88,1.35-12.61,2.08-19.86,1.93-30.91-.63-21.45-11.14-16.19-11.56,5.15-.41,45.95,1.4,41.2-5.99-.1-.16-.22-.32-.36-.48-.51-.59-1.15-1.1-1.9-1.54-.86-.52-1.89-.94-3.04-1.28h-.01c-1.17-.36-2.46-.64-3.87-.85-2.54-.4-5.42-.61-8.47-.73-2.35-.09-4.78-.14-7.25-.19-7.98-.16-16.21-.35-22.15-2.31-1.37-.44-2.61-1-3.71-1.66-1.35-.82-2.61-1.64-3.78-2.46-.84-.58-1.63-1.16-2.38-1.74-1.3-1-2.47-1.98-3.52-2.93-2.03-1.8-3.61-3.47-4.78-4.83-1.1-1.27-1.84-2.27-2.26-2.88-.28-.41-.42-.63-.42-.63l.42-4.26.32-3.3.42-4.21s.53.63,1.52,1.68c.42.44.91.96,1.49,1.54,2.12,2.12,5.25,5.02,9.08,7.84,1.14.84,2.33,1.67,3.58,2.46,3.93,2.53,8.39,4.78,13.09,6.04.4.12.79.22,1.19.31.8.19,1.59.35,2.4.47,3.31.57,6.67.74,10.04.75,3.59.04,7.2-.11,10.8-.11h.01c8.12-.05,16.12.54,23.58,5.15.79.49,1.58,1.03,2.37,1.62,1.21.91,2.2,1.85,2.95,2.8,5.5,6.93-.8,14.68-13.4,19.27Z"/>
          <path class="cls-10" d="m39.4,117.22s-13.86,11.37-15.81,18.12l18.83,8.17-1.24,9.95,58.8.71-1.42-11.19,18.12-7.28s-12.97-17.23-14.92-17.77-62.36-.71-62.36-.71Z"/>
          <path class="cls-13" d="m47.68,122.04l-8.52,34.77s58.03-.71,58.66-.71,3,.39,3,.39l-7.1-36.67-7.1,1.1,1.26,13.25-32.17,2.05-.79-13.72-7.25-.47Z"/>
          <g>
            <path class="cls-11" d="m43.38,29.99s-5.54-23.7-11.84-23.25-10.33,25.58-10.79,30.67c-.46,5.08.18,12.14.18,12.14,0,0,15.04-16.79,22.45-19.56Z"/>
            <path class="cls-14" d="m50.23,27.23S44.31.36,30.42,7.02c0,0,4.31.48,6.29,5.08,1.53,3.55,6.67,17.89,6.67,17.89l6.85-2.76Z"/>
            <path class="cls-14" d="m36.04,34.02s-.13-10.32-3.3-9.26c-3.17,1.06-2.4,5.39-2.4,5.39,0,0-2.62-1.97-3.85,1.33-1.23,3.3,3.9,7.49,3.9,7.49l5.55-4.62.11-.33Z"/>
          </g>
          <path class="cls-14" d="m125.89,80.47c-3.77,21.68-22.78,40.05-48.05,44.06-26.92,4.29-52.09-9.07-61.17-30.81-1.41-3.31-2.41-6.84-3-10.52-4.27-26.94,15.9-52.71,45.45-58.71.9-.19,1.82-.35,2.73-.49,2.1-.33,4.2-.57,6.29-.69,28.52-1.69,53.76,16.16,57.87,42.04.82,5.13.74,10.22-.11,15.13Z"/>
          <g>
            <path class="cls-2" d="m4.7,70.86s6.79,2.18,10.76,1.63"/>
            <path class="cls-2" d="m1.51,80.75s9.8-.37,14.24-1.47"/>
            <path class="cls-2" d="m4.95,90.39s10.3-2.75,13.28-5.05"/>
          </g>
          <path class="cls-11" d="m125.89,80.47c-3.77,21.68-22.78,40.05-48.06,44.07-26.91,4.28-52.09-9.08-61.18-30.81,1.75.02,8.89-.18,16.46-5.25,8.73-5.85,16.3-23.59,29.1-25.74,12.81-2.14,15.69,1.97,24.82,8.68,9.13,6.71,24.47,13.82,38.43,8.95l.41.1Z"/>
          <path class="cls-4" d="m22.73,60.55s2.14,11.43,13.29,8.55,6.87-13.82,6.87-13.82"/>
          <path class="cls-12" d="m58.7,59.35c-2.55-.12-4.31,2.5-3.22,4.81,1.22,2.59,4.03,6.16,10.11,5.45,9.37-1.09,9.71-8.94,7.49-10.9-2.22-1.95-6.65,1.22-10.42,1.02-1.52-.08-2.83-.33-3.97-.39Z"/>
          <path class="cls-11" d="m43.35,29.83s1.49,15,5.79,14c4.3-1,2.14-17.2,2.14-17.2l-7.93,3.2Z"/>
          <path class="cls-11" d="m63.18,43.58c-6.05.27-4.35-16.64-4.08-19.1.9-.19,1.82-.35,2.73-.49,2.1-.33,4.2-.57,6.29-.69.23,4.27.7,20.02-4.94,20.28Z"/>
          <path class="cls-11" d="m74.73,23.32s-5.28,12.82-1.28,15.26c3.99,2.44,8.15-14.77,8.15-14.77l-6.87-.5Z"/>
          <path class="cls-14" d="m86.24,25.39s-2.72-8.1.33-8.91c3.05-.8,4.01,4.56,4.01,4.56,0,0,2.55-2.63,4.31-1.27,1.75,1.36-2.08,7.6-2.08,7.6l-6.57-1.98Z"/>
          <path class="cls-4" d="m82.29,49.13s2.91,10.99,12.33,8.86c9.42-2.13,7.86-13.23,7.86-13.23"/>
          <path class="cls-3" d="m48.06,47.39s.71,3.12.84,3.31"/>
          <line class="cls-3" x1="54.45" y1="47.23" x2="55.38" y2="50.74"/>
          <line class="cls-3" x1="63.81" y1="47.06" x2="64.02" y2="51.06"/>
          <line class="cls-3" x1="60.38" y1="54.18" x2="60.81" y2="57.56"/>
          <line class="cls-3" x1="67.84" y1="53.05" x2="67.72" y2="56.62"/>
          <line class="cls-3" x1="76.48" y1="48.02" x2="74.7" y2="52.17"/>
          <line class="cls-3" x1="72.25" y1="43.44" x2="71.7" y2="46.98"/>
          <line class="cls-3" x1="49.94" y1="55.53" x2="50.82" y2="59.05"/>
          <g>
            <path class="cls-2" d="m117.11,59.11s5.52-1.3,9.52-4.16"/>
            <path class="cls-2" d="m118.29,65.18s7.82-.18,11.86-1.46"/>
            <path class="cls-2" d="m120.69,71.59s8.86,1.03,11.48.83"/>
          </g>
          <path class="cls-9" d="m53.59,145.47h0c8.71,0,15.77,7.07,15.77,15.77v55.89h-31.55v-55.89c0-8.71,7.07-15.77,15.77-15.77Z"/>
          <path class="cls-9" d="m38.06,201.21s-.16,11.51-2.52,16.09c-2.37,4.57-4.88,5.32-3.31,5.99,29.33,12.62,77.27,1.73,77.27,1.73,0,0-5.99-8.75-7.37-16.09-2.84-4.26-31.11-4.02-31.11-4.02l-.79,13.33-1.18-12.77-30.99-4.26Z"/>
          <path class="cls-9" d="m86.57,145.47h0c8.71,0,15.77,7.07,15.77,15.77v55.89h-31.55v-55.89c0-8.71,7.07-15.77,15.77-15.77Z"/>
          <path class="cls-14" d="m61.49,182.28c-4.74,1.99-11.71,3.82-18.88,3.82-9.93,0-20.28-3.5-25.77-14.86-7.05-14.59.25-27.26,8.49-35.14l12.3,5.35c-4.62,3.29-15.74,12.77-10.03,24.6,6.89,14.29,28.36,5.6,29.26,5.21l4.62,11.03Z"/>
          <path class="cls-14" d="m118.12,171.23c-5.48,11.36-15.84,14.86-25.77,14.86-7.18,0-14.13-1.83-18.88-3.82l4.62-11.02c.9.37,22.36,9.07,29.26-5.23,5.06-10.51-3.16-19.17-8.29-23.27l12.28-4.93c7.47,7.93,13.32,19.84,6.77,33.4Z"/>
          <path class="cls-2" d="m64.95,69.69s1.5,5.13,3.63,6.31"/>
          <path class="cls-12" d="m66.67,77.78c-.11,1.13.28,2.24.95,3.16,1.11,1.52,3.25,3.84,6.09,4.05,4.26.32,7.57-6.15,3.15-8.04-3.94-1.69-9.77-3.51-10.19.84Z"/>
          <path class="cls-15" d="m52.11,209.77h1.15c8.39,0,15.2,6.81,15.2,15.2h0c0,3.6-2.92,6.52-6.52,6.52h-18.51c-3.6,0-6.52-2.92-6.52-6.52h0c0-8.39,6.81-15.2,15.2-15.2Z"/>
          <path class="cls-15" d="m87.37,209.77h1.15c8.39,0,15.2,6.81,15.2,15.2h0c0,3.6-2.92,6.52-6.52,6.52h-18.51c-3.6,0-6.52-2.92-6.52-6.52h0c0-8.39,6.81-15.2,15.2-15.2Z"/>
        </g>
        <g>
          <path class="cls-14" d="m87.25,173.08s.84-3.44-1.17-5.71c-2.01-2.27-5.06-2.47-5.06-2.47l-.58.52s-8.89-2.73-9.41,1.82c0,0-.32,1.62.45,2.53,0,0-2.47,2.86-2.01,4.87s1.23,3.38,1.23,3.38c0,0-3.05,2.34-1.88,5.52,1.17,3.18,4.48,5.58,7.99,5.45,3.51-.13,7.27-3.83,7.27-3.83l3.77.65.89-11.77-1.48-.95Z"/>
          <g>
            <path class="cls-8" d="m81.44,165.84s-5.78-1.56-8.18-1.3-2.6,3.77-1.95,5.13,6.75,1.95,6.75,1.95"/>
            <path class="cls-8" d="m72.15,170.58s-3.44,1.75-2.53,4.93c.91,3.18,6.69,3.83,6.69,3.83"/>
            <path class="cls-8" d="m71.57,178.04s-3.12,1.43-2.66,4.35c.45,2.92,2.14,3.77,2.14,3.77"/>
          </g>
        </g>
        <g>
          <path class="cls-14" d="m51.63,173.08s-.84-3.44,1.17-5.71,5.06-2.47,5.06-2.47l.58.52s8.89-2.73,9.41,1.82c0,0,.32,1.62-.45,2.53,0,0,2.47,2.86,2.01,4.87s-1.23,3.38-1.23,3.38c0,0,3.05,2.34,1.88,5.52s-4.48,5.58-7.99,5.45-7.27-3.83-7.27-3.83l-4.06.25-.67-11.71,1.55-.61Z"/>
          <g>
            <path class="cls-8" d="m57.44,165.84s5.78-1.56,8.18-1.3,2.6,3.77,1.95,5.13-6.75,1.95-6.75,1.95"/>
            <path class="cls-8" d="m66.73,170.58s3.44,1.75,2.53,4.93c-.91,3.18-6.69,3.83-6.69,3.83"/>
            <path class="cls-8" d="m67.31,178.04s3.12,1.43,2.66,4.35-2.14,3.77-2.14,3.77"/>
          </g>
        </g>
        <polygon class="cls-13" points="22.5 136.02 42.37 145.07 42.42 143.51 24.29 133.82 22.5 136.02"/>
        <polygon class="cls-13" points="117.49 136.1 97.62 145.15 97.57 143.59 115.7 133.9 117.49 136.1"/>
        <g>
          <path class="cls-5" d="m41.75,6.87s.39,1.5-.71,3.47"/>
          <path class="cls-5" d="m45.41,11.8s-.75,4.93-1.54,6.15"/>
          <path class="cls-5" d="m48.01,18.47s-.55,4.1-1.42,5.32"/>
        </g>
        <g>
          <path class="cls-5" d="m83.16,3.09s-.39,1.5.71,3.47"/>
          <path class="cls-5" d="m79.49,8.02s.75,4.93,1.54,6.15"/>
          <path class="cls-5" d="m76.89,14.68s.55,4.1,1.42,5.32"/>
        </g>
      </g>
      <path class="cls-15" d="m116.5,194.55l-5.86,9.51c-1.3-1-2.47-1.98-3.52-2.93l5.79-9.04c1.14.84,2.33,1.67,3.58,2.46Z"/>
      <path class="cls-15" d="m121.38,207.78c-.4,1.09-.68,1.74-.86,2.14-1.37-.44-2.61-1-3.71-1.66-1.35-.82-2.61-1.64-3.78-2.46,1.83-1.74,5.53-4.99,7.35-4.81,2.47.27,1.94,4.21,1,6.78Z"/>
      <path class="cls-15" d="m133.18,201.36c-.48,1.21-1.72,4.01-3.03,5.31-1.68,1.68-2.41,1.68-2.83,0-.26-1.06,1.17-4.04,2.27-6.09.4.12.79.22,1.19.31.8.19,1.59.35,2.4.47Z"/>
      <path class="cls-15" d="m154.02,202.01l-4.1,10.4c-2.35-.09-4.78-.14-7.25-.19l.56-10.1c3.59.04,7.2-.11,10.8-.11Z"/>
      <path class="cls-15" d="m162.27,213.99h-.01c-1.17-.36-2.46-.64-3.87-.85.67-1.87,2.29-5.46,4.78-5.62,2.5-.16.36,4.22-.9,6.47Z"/>
      <path class="cls-15" d="m182.94,211.58l-15.37,5.72c-.1-.16-.22-.32-.36-.48-.51-.59-1.15-1.1-1.9-1.54,2.15-1.4,9.4-6.19,12.3-8.12.79.49,1.58,1.03,2.37,1.62,1.21.91,2.2,1.85,2.95,2.8Z"/>
      <path class="cls-15" d="m169.52,230.85c-2.19.79-4.56,1.48-7.09,2.08-1.27-3.56-.64-8.45,2.16-7.16,2.25,1.01,4.2,3.74,4.93,5.09Z"/>
      <line class="cls-6" x1="41.5" y1="229.4" x2="64.11" y2="229.4"/>
      <line class="cls-6" x1="77.3" y1="229.4" x2="99.9" y2="229.4"/>
      <path class="cls-7" d="m50.47,212.25s-4.52-1.47-4.1-5.15,4.42.21,5.26,2.94c0,0-.32-6.83,3.57-7.04s2.52,6.26-1.16,8.73"/>
      <path class="cls-1" d="m86.24,212.68s-4.5-2.29-3.52-5.87,4.6,1.04,5.07,3.9c0,0,.67-6.84,4.74-6.33,4.07.51,1.73,6.67-2.47,8.43"/>
    </g>
  </g>
</svg>