<?xml version="1.0" encoding="UTF-8"?>
<svg id="_Слой_2" data-name="Слой 2" xmlns="http://www.w3.org/2000/svg" viewBox="0 0 214.57 281.72">
  <defs>
    <style>
      .cls-1 {
        fill: #1e4d4c;
      }

      .cls-1, .cls-2, .cls-3, .cls-4, .cls-5, .cls-6, .cls-7, .cls-8 {
        stroke-width: 0px;
      }

      .cls-9 {
        stroke-width: 3px;
      }

      .cls-9, .cls-10, .cls-11, .cls-12 {
        fill: none;
        stroke-linecap: round;
      }

      .cls-9, .cls-10, .cls-12, .cls-13 {
        stroke: #000;
      }

      .cls-9, .cls-12 {
        stroke-linejoin: round;
      }

      .cls-2 {
        fill: #6083b3;
      }

      .cls-3, .cls-13 {
        fill: #ececec;
      }

      .cls-4 {
        fill: #e6e7e8;
      }

      .cls-10 {
        stroke-width: 2px;
      }

      .cls-10, .cls-11, .cls-13 {
        stroke-miterlimit: 10;
      }

      .cls-11 {
        stroke: #ececec;
        stroke-width: 4px;
      }

      .cls-12 {
        stroke-width: 2.78px;
      }

      .cls-6 {
        fill: #174442;
      }

      .cls-7 {
        fill: #85d7df;
      }

      .cls-8 {
        fill: #fbb616;
      }

      .cls-13 {
        stroke-width: 2.6px;
      }
    </style>
  </defs>
  <g id="_стена_2" data-name="стена 2">
    <g>
      <g>
        <g>
          <path class="cls-2" d="m55.58,140.22s-1.96,15.89-11.38,21.51c-9.43,5.62-20.41-7.07-20.41-7.07l-5.41,14.54s14.94,9.73,27.37,7.12c12.43-2.61,22.61-19.1,24.01-29.33l-14.19-6.77Z"/>
          <polygon class="cls-2" points="123.91 227.35 118.7 269.46 127.92 270.67 138.15 225.35 123.91 227.35"/>
          <path class="cls-2" d="m73.23,214.52c-.4,1.8-5.11,22.81-5.11,24.22s5.87,28.73,5.87,28.73l10.83-.2s-4.81-26.87-3.01-29.88c1.8-3.01,5.21-20.86,5.21-20.86l-13.79-2.01Z"/>
          <g>
            <path class="cls-2" d="m214.41,148.35c-2.33,7.93-12.94,7.93-15.29,12.64-2.71,6.79-1.96,15.12-1.26,23.35v.06c.25,2.83.47,5.66.55,8.39.18,5.54-.28,10.75-2.54,15.08-1.44,2.77-3.62,5.17-6.85,7.07-.87.51-1.83.99-2.86,1.43-2.36.79-5,1.08-7.79.98-5.23-.2-11.02-1.84-16.52-4.37-2.72-1.26-5.38-2.73-7.86-4.36-1.11-.73-2.18-1.48-3.2-2.26-4.44-3.38-8.07-7.23-10.18-11.09-3.53-7.07-2.33-12.82,1.2-21.07,4.15,2.07,13.35,11.43,17.02,16.14,2.32,2.97,4.62,5.87,6.99,7.96.28.25.57.49.85.72,1.66,1.34,3.38,2.23,5.17,2.4.52.07,1.04.07,1.56,0,2.69.47,5.02-.16,6.72-1.77h.01c1.17-1.08,2.01-2.6,2.5-4.5.19-.95.33-1.92.42-2.89.44-4.44-.06-9-.77-13.55-.55-3.57-1.23-7.13-1.7-10.62-.31-2.3-.52-4.56-.53-6.79-.07-6.54,1.52-12.69,7.28-18,7.07-4.71,16.49-5.89,24.99-1.07,1.78,1.56,2.62,3.63,2.09,6.1Z"/>
            <path class="cls-4" d="m180.58,168.11c-.31-2.3-.52-4.56-.53-6.79,3.05-.44,9.33-1,11.13,1.65,2.2,3.26-8.9,4.9-10.6,5.14Z"/>
            <path class="cls-4" d="m198.41,192.8c-.05,2.2-.25,4.45-.68,6.77l-14.68-7.29c.44-4.44-.06-9-.77-13.55,4.39,1.19,12.26,3.33,15.35,4.18.08.47.15.95.22,1.44v.06c.38,2.64.61,5.45.55,8.39Z"/>
            <path class="cls-4" d="m195.86,207.88c-1.44,2.77-3.62,5.17-6.85,7.07-.26-.46-.57-1-.9-1.6-1.54-2.78-4.41-14.46-.95-13.12,2.5.98,6.63,5.35,8.69,7.66Z"/>
            <path class="cls-4" d="m180.11,199.66c-.38,3.96-1.59,12.54-4.92,10.9-3.32-1.63-3.45-6.85-3.35-9.13.52.07,1.04.07,1.56,0,2.69.47,5.02-.16,6.72-1.77Z"/>
            <path class="cls-4" d="m165.82,198.31c-1.12,3.86-2.78,10.16-3.97,14.67-2.72-1.26-5.38-2.73-7.86-4.36-1.11-.73-2.18-1.48-3.2-2.26,1.89-4.58,6.07-11.88,8.05-16.01,2.32,2.97,4.62,5.87,6.99,7.96Z"/>
          </g>
          <path class="cls-1" d="m84.68,195.87c11.26,1.31,22.53,2.59,33.86,2.99,9.72.35,24.03-2.39,24.03-2.39l-6.82-78.81-55.75-4.41-12.86,80.68s11.7,1.26,17.54,1.94Z"/>
          <path class="cls-1" d="m67.36,111.24l-16.34,26.76s17.05,10.34,23.18,10.92c0,0,10.11-28.71,9.15-30.81s-15.99-6.87-15.99-6.87Z"/>
          <path class="cls-1" d="m147.24,115.16l16.86,23.94s-19.41,9.76-25.54,10.34c0,0-6.44-25.08-5.49-27.19s14.17-7.09,14.17-7.09Z"/>
          <path class="cls-6" d="m87.46,110.98s-6.9,29.88,19.15,32.18c26.05,2.3,21.61-30.72,21.61-30.72l-40.76-1.46Z"/>
          <path class="cls-2" d="m141.87,119.17c-21.3,7.78-82.02,4.27-92.72-26.23-.59-1.63-1.02-3.28-1.35-4.94-5.9-29.01,23.73-58.65,23.73-58.65,5.68-3.99,9.88-7.38,17.93-9.51h.03c3.09-.8,6.75-1.42,11.27-1.81h.04c1.2-.1,2.45-.19,3.79-.26,2.27-.11,4.73-.19,7.44-.2,1.24-.01,2.47.05,3.71.18,2.04.19,4.08.54,6.1,1.06,3.39.87,6.73,2.16,9.95,3.81,17.64,9.08,32.01,29.07,34.88,49.24.38,2.64.65,5.14.8,7.49,1.56,22.2-6.34,32.79-25.6,39.83Z"/>
          <g>
            <line class="cls-11" x1="120.98" y1="46.21" x2="120.3" y2="49.52"/>
            <line class="cls-11" x1="114.96" y1="46.89" x2="114.06" y2="50.4"/>
            <line class="cls-11" x1="107.29" y1="48.54" x2="106.92" y2="52"/>
            <line class="cls-11" x1="111.2" y1="54.71" x2="111.28" y2="57.04"/>
            <line class="cls-11" x1="104.66" y1="55.24" x2="105.19" y2="57.87"/>
            <line class="cls-11" x1="99.7" y1="46.21" x2="100.45" y2="49.52"/>
            <line class="cls-11" x1="96.91" y1="51.48" x2="98.64" y2="54.94"/>
            <line class="cls-11" x1="119.53" y1="53.86" x2="118.62" y2="56.82"/>
          </g>
          <path class="cls-4" d="m141.88,119.17c-21.3,7.79-82.03,4.28-92.73-26.23-.58-1.64-1.03-3.29-1.36-4.94,3.36,1.4,10.1,3.01,19-.86,13.02-5.65,20.89-26.53,42.89-24.67,22.01,1.85,23.78,16.83,38.44,21.54,10.46,3.36,16.67-1.56,19.35-4.66,1.55,22.19-6.34,32.78-25.59,39.82Z"/>
          <g>
            <path class="cls-2" d="m88.38,22.19S72.22.33,63.55,0c0,0-3.18-.25-5.15,2.22,0,0,4.24.14,8.63,4.97,4.39,4.83,11.54,18.67,11.54,18.67l9.81-3.67Z"/>
            <path class="cls-4" d="m59.69,44.56s-8.14-36.26-1.29-42.33c6.85-6.07,20.17,23.63,20.17,23.63,0,0-15.86,11.31-18.88,18.7Z"/>
            <path class="cls-2" d="m73.18,28.72s-1.68-7.61-4.51-6.91c-2.83.69-.97,5.91-.97,5.91,0,0-3.6-1.52-3.95.48-.35,2,4.43,7.34,4.43,7.34l5.21-5.17-.22-1.64Z"/>
          </g>
          <g>
            <path class="cls-2" d="m130.46,22.85c-.31.28,9.03,5.29,9.03,5.29,0,0,16.69-19.65,25.19-19.58,0,0-6.84-10.23-34.22,14.29Z"/>
            <path class="cls-4" d="m157.9,52.28s13.94-37.02,6.43-43.84c0,0-10.9.96-24.84,19.7,0,0,15.39,12.89,18.42,24.14Z"/>
            <path class="cls-2" d="m142.71,31.82s2.42-7.77,5.22-6.58c2.8,1.19.52,7.45.52,7.45,0,0,4.89-2.77,5.63.57.74,3.34-3.97,6.61-3.97,6.61l-7.39-8.05Z"/>
          </g>
          <path class="cls-4" d="m100.77,18.02c-.27,4.59-1.67,22.55-6.68,21.75-4.6-.74-4.74-14.48-4.62-19.93h.03c3.09-.8,6.75-1.42,11.27-1.81Z"/>
          <path class="cls-4" d="m115.74,17.74c-.05,2.49-.66,22.04-7.33,21.88-6.94-.18-3.96-20.85-3.82-21.86,2.27-.12,4.74-.19,7.43-.2,1.24-.01,2.47.05,3.71.18Z"/>
          <path class="cls-4" d="m131.78,22.62c-.79,3.24-4.49,17.3-9.46,15.98-5.23-1.38-1.11-17.5-.48-19.79,3.39.86,6.73,2.16,9.94,3.82Z"/>
          <g>
            <circle class="cls-13" cx="136.4" cy="56.81" r="9.92"/>
            <circle class="cls-5" cx="135.36" cy="59.01" r="7.25"/>
            <ellipse class="cls-3" cx="140.32" cy="53.78" rx="2.71" ry="2.69" transform="translate(23.81 148.68) rotate(-60.13)"/>
          </g>
          <g>
            <circle class="cls-13" cx="80.5" cy="57.27" r="9.92"/>
            <circle class="cls-5" cx="82.11" cy="59.08" r="7.25"/>
            <ellipse class="cls-3" cx="86.28" cy="54.7" rx="2.69" ry="2.71" transform="translate(-15.55 62.83) rotate(-36.94)"/>
          </g>
          <path class="cls-8" d="m101.46,60.04s-3.94.63-3.37,3.97c.57,3.34,5.37,6.79,9.25,6.94,3.88.14,11.93-4.11,10.19-7.94-1.74-3.83-6.94-1.46-9.45-1.51s-4.71-1.71-6.62-1.46Z"/>
          <g>
            <line class="cls-11" x1="70.83" y1="2.37" x2="73.72" y2="8.1"/>
            <line class="cls-11" x1="76.99" y1="6.79" x2="78.08" y2="12.58"/>
            <line class="cls-11" x1="80.97" y1="11.98" x2="80.96" y2="17.9"/>
          </g>
          <g>
            <line class="cls-11" x1="150.89" y1="8.07" x2="146.73" y2="12.95"/>
            <line class="cls-11" x1="143.86" y1="10.91" x2="141.45" y2="16.28"/>
            <line class="cls-11" x1="138.78" y1="15.03" x2="137.4" y2="20.78"/>
          </g>
          <g>
            <path class="cls-9" d="m101.51,75.5s2.2,6.31,7.51,5.98c5.31-.34,5.85-6.46,5.85-6.46"/>
            <line class="cls-9" x1="108.41" y1="72.33" x2="108.81" y2="81.13"/>
          </g>
          <g>
            <path class="cls-2" d="m20.07,168.78s7.55-5.48,6.78-10.71c-.77-5.22-5.22-13.1-8.89-12.08s-1.01,6.21-1.01,6.21c0,0-9.05-6.91-10.94-5.54-1.89,1.37,1.22,5.56,4.23,7.63,0,0-6.97-5.06-9.77-1.71-2.8,3.35,7.76,7.46,7.76,7.46,0,0-6.41-2.75-7.33.72-.92,3.47,14.32,11.71,19.17,8.01Z"/>
            <path class="cls-10" d="m7.77,162.78s2.49-6.96,4.68-8.99"/>
            <path class="cls-10" d="m18.51,157.4c-.1-.24-4.78-9.17-1.12-11.3s7.86,5.02,9.35,10.34"/>
          </g>
          <g>
            <path class="cls-3" d="m74.77,266.61s-1.23-8.06-6.91-9.25c0,0-2.66-.65-3.54-.23,0,0,5.31,12.6,4.95,12.63s-8.11-5.19-16.24-3.69-11.66,14.57-11.66,14.57l46.09.73.68-15.06s-5.37-6.27-13.37.3Z"/>
            <polygon class="cls-5" points="86.77 279.06 41.74 279.44 41.02 280.94 87.75 281.72 87.58 279.01 86.77 279.06"/>
            <path class="cls-10" d="m87.84,268.78s-8.84.46-10.86,4.3c-2.02,3.84-.73,7.19-.73,7.19"/>
            <polyline class="cls-10" points="63.41 267.23 65.58 275.78 44.01 273.69"/>
            <line class="cls-10" x1="72.94" y1="272.06" x2="69.27" y2="269.76"/>
            <line class="cls-10" x1="73.08" y1="268.43" x2="68.57" y2="267.27"/>
            <path class="cls-10" d="m88.14,266.31s-4.42-4.07-8.37-2.28-4.87,3.11-4.87,3.11"/>
            <path class="cls-5" d="m66.95,263.62l5.3-1.29s-3.77-2.39-5.31-2.38h-1.54s1.55,3.67,1.55,3.67Z"/>
          </g>
          <g>
            <path class="cls-3" d="m126.32,266.61s1.23-8.06,6.91-9.25c0,0,2.66-.65,3.54-.23,0,0-5.31,12.6-4.95,12.63s8.11-5.19,16.24-3.69c8.14,1.51,11.66,14.57,11.66,14.57l-46.09.73-.68-15.06s5.37-6.27,13.37.3Z"/>
            <polygon class="cls-5" points="114.33 279.06 159.35 279.44 160.07 280.94 113.35 281.72 113.51 279.01 114.33 279.06"/>
            <path class="cls-10" d="m113.25,268.78s8.84.46,10.86,4.3c2.02,3.84.73,7.19.73,7.19"/>
            <polyline class="cls-10" points="137.68 267.23 135.52 275.78 157.09 273.69"/>
            <line class="cls-10" x1="128.15" y1="272.06" x2="131.83" y2="269.76"/>
            <line class="cls-10" x1="128.02" y1="268.43" x2="132.52" y2="267.27"/>
            <path class="cls-10" d="m112.95,266.31s4.42-4.07,8.37-2.28c3.96,1.79,4.87,3.11,4.87,3.11"/>
            <path class="cls-5" d="m134.12,263.45l-5.27-1.12s3.77-2.39,5.31-2.38h1.54s-1.57,3.5-1.57,3.5Z"/>
          </g>
          <path class="cls-7" d="m67.13,193.47l-3.38,34.08,36.85,2.16,6.02-16.39,1.2,16.09,35.8,2.86-1.25-36.2s-70.44-.98-75.23-2.6Z"/>
          <path class="cls-2" d="m108.57,105.92s4.21,55.65,21.66,60.16c17.45,4.51,29.18-7.82,30.38-17.15.83-3.76-.15-7.82-.15-7.82l-14.59,5.87s-4.51,10.08-10.53,3.16c-6.02-6.92-12.63-37.3-12.63-37.3l-14.14-6.92Z"/>
          <g>
            <path class="cls-2" d="m109.17,108.73s-2.41-3.21,0-12.03c0,0,2.76-3.41,4.96-2.56,2.21.85,3.11,5.26,3.11,5.26,0,0,4.66-.35,5.57-1.15s4.66-5.77,6.47-4.66c1.8,1.1,2.11,2.06,2.11,2.06,0,0,1.91-.6,3.16.65,1.25,1.25,1,3.26,1,3.26,0,0,1.91.75,2.06,2.86.15,2.11-7.72,10.73-14.09,11.28s-5.67,3.91-5.67,3.91l-8.67-8.87Z"/>
            <path class="cls-10" d="m121.26,104.87c0-.15-3.66-4.11-4.41-4.96-.75-.85.25-6.87-4.01-5.77s-4.11,11.71-4.11,11.71"/>
            <path class="cls-10" d="m123.06,100.51s4.56,5.67,6.17,6.02"/>
            <path class="cls-10" d="m123.46,96.9c.2-.2,4.11-4.56,6.02-3.76,1.91.8,1.8,3.01,1.8,3.01,0,0-5.82,5.72-6.77,5.77"/>
            <path class="cls-10" d="m131.78,95.65s3.16-.65,3.86,1.75c.7,2.41-1.4,3.71-1.4,3.71l-5.92,4.71"/>
          </g>
        </g>
        <path class="cls-10" d="m80.19,140.12c0,.3-6,8.8-6,8.8l-3.63,23.68"/>
      </g>
      <g>
        <line class="cls-12" x1="161.13" y1="72.84" x2="169.76" y2="70.23"/>
        <line class="cls-12" x1="161.46" y1="79.35" x2="172.85" y2="79.02"/>
        <line class="cls-12" x1="162.6" y1="86.02" x2="172.85" y2="88.79"/>
        <path class="cls-12" d="m54.49,70.07s-10.26-3.74-11.07-4.23"/>
        <path class="cls-12" d="m53.67,76.58s-12.7-.65-14.16-.98"/>
        <path class="cls-12" d="m53.84,83.74s-11.23,3.42-12.21,3.09"/>
      </g>
    </g>
  </g>
</svg>