<?xml version="1.0" encoding="UTF-8"?>
<svg id="_Слой_2" data-name="Слой 2" xmlns="http://www.w3.org/2000/svg" viewBox="0 0 238.05 289.49">
  <defs>
    <style>
      .cls-1 {
        fill: #1f4d4c;
      }

      .cls-1, .cls-2, .cls-3, .cls-4, .cls-5, .cls-6, .cls-7, .cls-8 {
        stroke-width: 0px;
      }

      .cls-2 {
        fill: #e6e7e8;
      }

      .cls-4 {
        fill: #6182b2;
      }

      .cls-9 {
        stroke-width: 1.78px;
      }

      .cls-9, .cls-10 {
        stroke-linejoin: round;
      }

      .cls-9, .cls-10, .cls-11 {
        stroke: #000;
      }

      .cls-9, .cls-10, .cls-12 {
        fill: none;
        stroke-linecap: round;
      }

      .cls-5 {
        fill: #153f3d;
      }

      .cls-6 {
        fill: #85d7df;
      }

      .cls-7 {
        fill: #1a7170;
      }

      .cls-10 {
        stroke-width: 2.67px;
      }

      .cls-8, .cls-11 {
        fill: #ebebeb;
      }

      .cls-11 {
        stroke-width: 2.32px;
      }

      .cls-11, .cls-12 {
        stroke-miterlimit: 10;
      }

      .cls-12 {
        stroke: #ebebeb;
        stroke-width: 3.56px;
      }
    </style>
  </defs>
  <g id="_стена_2" data-name="стена 2">
    <g id="_1" data-name="1">
      <path class="cls-3" d="m72.66,267.07s-5.99,11.94-28.9,5.01c0,0-.36.24.51,2s11.51,9.75,24.75,10.03,20.68-7.72,21.88-7.66.28,8.71.28,8.71l9.88.47.78-16.66-29.18-1.89Z"/>
      <g>
        <path class="cls-6" d="m209.36,264.27c-3.11.27-6.29.3-9.47,0-3.06-.27-6.1-.82-9.05-1.7-.48-.12-.97-.28-1.44-.43-1.02-.34-2.03-.7-3-1.07-.55-.2-1.09-.42-1.64-.62h-.01c-1.22-.49-2.38-.97-3.5-1.48-3.4-1.55-6.31-3.25-8.76-5.11h-.02c-2.82-2.13-5.04-4.45-6.72-7.01-2.39-3.6-3.69-7.65-4.07-12.27-.11-1.31-.15-2.67-.11-4.06.02-.92.08-1.85.17-2.81.21-2.41.78-4.76,1.62-7.04.36-.97.76-1.93,1.21-2.88.18-.35.34-.71.53-1.07.71-1.36,1.47-2.69,2.29-3.97,1.78-2.81,3.79-5.44,5.81-7.88,1.46-1.8,2.92-3.5,4.27-5.08,2.87-3.42,5.19-6.31,5.83-8.57.42-1.5.13-2.71-1.2-3.63-5.34-3.67-16.11,6.57-22.03,13-2.53,2.74-4.18,4.77-4.18,4.77l-.68-5.69-.61-4.9v-.25s-.69-5.58-.69-5.58l1.75-3.47,3.38-6.69s.61-.36,1.69-.92c.55-.3,1.21-.63,1.99-1.03.29-.14.58-.28.89-.44,5.42-2.64,14.85-6.62,23.52-7.39,4.95-.44,9.65.15,13.26,2.63.61.42,1.14.88,1.58,1.38,4.67,5.19.35,14.21-5.2,23.82-.83,1.47-1.7,2.93-2.57,4.41-.23.38-.45.77-.68,1.16-.19.31-.37.63-.56.95-1.38,2.34-2.72,4.69-3.94,6.98v.04c-.04.05-.07.09-.09.15-1.34,2.54-2.5,5.04-3.33,7.39-.04.11-.08.23-.11.34-.59,1.75-.98,3.4-1.15,4.95-.17,1.7-.32,3.29-.41,4.77-.41,5.97-.12,10.22,2.17,12.82,1.44,1.61,3.66,2.57,6.98,2.89h.02c2.15.2,4.75.13,7.88-.21.56-.07,1.15-.13,1.74-.21,2.56-.34,5.03-.78,7.41-1.29,15.76-3.33,27.21-8.86,27.91,3.17.55,9.73-13.03,17.76-28.67,19.13Z"/>
        <path class="cls-2" d="m186.09,240.79l-16.9,5.03-3.45,1.03c-2.39-3.6-3.69-7.65-4.07-12.27-.11-1.31-.15-2.67-.11-4.06l3.73-.13,18.63-2.42c-.41,5.97-.12,10.22,2.17,12.82Z"/>
        <path class="cls-2" d="m188.91,210.51c-1.33,2.55-2.49,5.04-3.33,7.39-.04.11-.08.23-.1.34-2.48-1.66-11.17-7.53-12.19-9.07-1.2-1.82.76-3.65,3.49-3.31,2.48.31,10.39,3.85,12.13,4.65Z"/>
        <path class="cls-2" d="m194.18,201.24c-.04.4-.18.84-.46,1.3-.2.34-.45.6-.77.8-3.61,2.44-14.38-2.99-15.49-3.56,2.87-3.43,5.19-6.32,5.82-8.58.46.48,1.13,1.23,2.09,2.39,2.06,2.51,9.2,4.16,8.81,7.64Z"/>
        <path class="cls-2" d="m209.36,264.27c-3.11.28-6.29.3-9.47,0-3.06-.26-6.1-.81-9.04-1.7,1.35-3.57,7.32-14.46,10.13-19.11.55-.06,1.14-.13,1.74-.21,2.56-.34,5.03-.78,7.41-1.29.4.93-.39,15.7-.76,22.3Z"/>
        <path class="cls-2" d="m189.17,255.48c-.56,1.66-1.87,4.05-2.77,5.59-.55-.21-1.1-.42-1.64-.63h-.01c-1.22-.49-2.38-.97-3.49-1.49l.14-.41s2.58-6.12,5.08-7.29c2.51-1.17,3.57,1.57,2.68,4.22Z"/>
        <path class="cls-2" d="m201.95,173.02l-12.02,6.74c-2.27,1.27-4.97-.73-4.42-3.27l1.61-7.49c4.94-.44,9.65.15,13.26,2.64.61.42,1.14.88,1.58,1.38Z"/>
        <path class="cls-2" d="m175.63,221.23c-1,.74-8.8-2.48-11.07-3.44.17-.35.34-.72.53-1.07.7-1.35,1.47-2.68,2.29-3.97,2.88,1.42,8.21,4.21,8.75,5.71.75,2.08.68,1.92-.5,2.77Z"/>
      </g>
      <g>
        <path class="cls-6" d="m62.96,66.47s-11.91,18.69-1.27,43.81c10.63,25.12,42.6,26.24,74.63,10.71,32.03-15.52,19.04-60.95,9.74-75.94-7.86-12.68-43.91-16.03-61.35-2.3-18.84,14.83-21.75,23.72-21.75,23.72Z"/>
        <path class="cls-2" d="m83.22,46.92s.26,13.57,4.39,13.9,5.31-8.95,4.06-14.2c-1.26-5.25-1.82-5.15-1.82-5.15l-6.62,5.45Z"/>
        <path class="cls-2" d="m97.68,36.71s-.6,21.4,6.64,20.84c3.98-.31,5.79-4,6.61-7.26.6-2.37.7-4.83.48-7.26l-.76-8.1s-10.98,1.09-12.96,1.78Z"/>
        <path class="cls-2" d="m117.87,35.54s-3.75,17.64,2.3,18.33c6.05.7,8.25-15.51,7.58-16.67-.67-1.16-7.38-1.98-9.89-1.66Z"/>
        <path class="cls-2" d="m61.16,109.62c.48-.26,7.59-2.54,15.25-6.66,7.66-4.12,17.03-15.52,29.83-17.21,12.8-1.69,19.88.92,32.11,7,12.22,6.08,20.13,4.37,20.13,4.37,0,0-11.3,28.49-46.21,33.49-34.91,5-51.11-20.99-51.11-20.99Z"/>
        <g>
          <path class="cls-2" d="m48.54,63.99s4.23-19.21,12.33-25.85c0,0-14.62-18.61-22.16-17.83-7.54.78,6.26,41.15,9.84,43.67Z"/>
          <path class="cls-6" d="m68.13,32.47s-19.78-15.92-25.01-14.84-6.29,4.39-6.29,4.39c0,0,.95-1.58,6.45-.09s16.85,15.91,16.85,15.91l8-5.37Z"/>
          <path class="cls-6" d="m56.71,43.64s-4.01-5.5-5.88-4.22c-1.87,1.28.29,6.23.29,6.23,0,0-2.65-1.2-3.26.83-.61,2.03,3.56,5.93,3.56,5.93l5.29-8.77Z"/>
          <g>
            <line class="cls-12" x1="46.77" y1="15.19" x2="50.96" y2="21.22"/>
            <line class="cls-12" x1="54.45" y1="19.21" x2="56.6" y2="25.59"/>
            <line class="cls-12" x1="59.78" y1="24.46" x2="60.71" y2="31.16"/>
          </g>
        </g>
        <g>
          <path class="cls-2" d="m164.96,39.27s.15-35.79-7.47-38.68c-7.62-2.9-15.26,24.63-15.26,24.63,0,0,14.38,3.95,22.73,14.05Z"/>
          <path class="cls-6" d="m135.52,22.13l7.33,2.68s7.48-22.14,13.98-24.41c0,0-8.94-5.14-21.3,21.73Z"/>
          <path class="cls-6" d="m146.71,26.27s.69-7.12,3.32-5.92c2.63,1.19,2.61,5.04,2.61,5.04,0,0,2.14-2.21,4.28-.21s-2.15,6.41-2.15,6.41l-8.4-4.22.35-1.09Z"/>
          <line class="cls-12" x1="137.46" y1="14.08" x2="138.59" y2="19.25"/>
          <line class="cls-12" x1="141.24" y1="9.75" x2="141.63" y2="16.12"/>
          <line class="cls-12" x1="144.97" y1="2.15" x2="145.24" y2="10.41"/>
        </g>
        <g>
          <path class="cls-3" d="m106.24,94.32s-14.1-.35-12.87-7.28c1.23-6.94,9.46-2.56,12.27-3.22s6.02-4.3,9.34-1.97c3.32,2.33-.07,11.28-8.74,12.47Z"/>
          <g>
            <path class="cls-10" d="m99.2,98.07s1.85,6.78,8.72,5.5,5.95-7.91,5.95-7.91"/>
            <line class="cls-10" x1="106.15" y1="91.94" x2="107.64" y2="103.45"/>
          </g>
        </g>
        <g>
          <circle class="cls-11" cx="130.47" cy="68.79" r="11.35"/>
          <circle class="cls-3" cx="131.88" cy="66.39" r="8.3"/>
          <ellipse class="cls-8" cx="137.28" cy="62.75" rx="3.1" ry="3.07" transform="translate(6.91 138.82) rotate(-54.83)"/>
        </g>
        <g>
          <circle class="cls-11" cx="77.12" cy="78.1" r="11.35"/>
          <circle class="cls-3" cx="78.53" cy="75.71" r="8.3"/>
          <ellipse class="cls-8" cx="83.92" cy="72.07" rx="3.1" ry="3.07" transform="translate(-23.33 99.16) rotate(-54.83)"/>
        </g>
        <path class="cls-7" d="m75.13,153.97s-.21,37.04.14,39.07c.1.58,3.43,1.05,8.15,1.43,11.86.95,77.25.14,77.25.14,0,0,.65-35.49-1.78-43.45,0,0-71.24,6.57-83.76,2.81Z"/>
        <path class="cls-9" d="m78.15,189.69c.43,0,41.3,1.09,41.3,1.09"/>
        <path class="cls-1" d="m62.15,264.9s20.74-45.09,18.77-70.11l77.88-.31s5.41,45.29,12.2,58.54c6.79,13.25,14.09,19.9,14.09,19.9l-63.99-2.18,2.3-60.44-17.38,60.72s-33.55-1.17-43.87-6.13Z"/>
        <path class="cls-3" d="m129.89,270.82l-.8,16.95,10.42.49.74-8.46s.49-.67,2.04.56,7.39,8.84,20.69,9.12c13.3.28,24.71-8.13,24.65-9.28s-9.1,3.24-17.21-.12c-8.11-3.37-10.86-8.32-10.86-8.32l-29.68-.94Z"/>
        <path class="cls-4" d="m173.98,51.61c-7.15-16.58-21.97-26-37.83-30.81-3.8-1.04-7.71-1.81-11.66-2.29-19.79-2.43-40.93,2.08-57.13,13.35-2.47,1.71-4.82,3.58-7.03,5.62-.09.07-.19.16-.28.26-1.55,1.43-3.04,2.95-4.43,4.54-2.24,2.51-4.27,5.21-6.08,8.11-1.23,1.94-2.34,3.96-3.35,6.08-.31.57-.62,1.13-.93,1.72-1.36,2.57-2.64,5.29-3.81,8.15-4.26,10.48-6.82,22.68-4.86,35.7.82,5.55,2.2,10.76,4.04,15.63h0c5.6,14.93,15.65,26.48,28.25,33.54.07.04.13.07.19.11,1.31.73,2.65,1.4,4.01,2.03.5.23,1.01.44,1.52.67h.03c.13.07.27.13.4.18.04.03.07.04.11.04,3.15,1.32,6.41,2.38,9.78,3.17,13.21,4.27,26.69.23,38.81-2.47,1.35,6.74-1.35,14.82-2.28,21-.81,3.87-1.85,8-3.17,12.18-.69,2.17-1.47,4.34-2.32,6.49-.05.12-.09.23-.15.35-5.75,14.27-15.41,27.33-31.58,29.12-1.47.16-2.87.24-4.26.24-34.23.08-47.2-46.33-63.65-45.71-17.12.62-24.27,23.74-4.01,43.97,12.61,12.58,32.3,27.71,56.91,30.75,13.71,1.72,28.94-.34,45.32-8.66h.01c1.5-.75,2.98-1.56,4.49-2.42,1.41-.81,2.79-1.66,4.12-2.56,14.37-9.67,24.57-24.49,31.79-40.06.75-1.64,1.48-3.3,2.17-4.96.04-.07.07-.13.09-.22.4-.93.78-1.87,1.16-2.82.85-2.11,1.64-4.15,2.37-6.25v-.08c1.01-2.84,1.93-5.66,2.76-8.42.03-.15.07-.31.09-.46.07-.31.13-.61.19-.92h0c.01-.07.03-.12.04-.18.86-4.15,1.78-8.34,2.69-12.55.78-3.58,1.56-7.19,2.34-10.82,1.95-9.12,3.83-18.33,5.29-27.59v-.03c3.44-20.61,8.82-42.16,2.75-63.65-.78-2.94-1.76-5.96-2.93-9.09Zm-90.74-4.17c2.32-1.74,4.77-3.33,7.3-4.73,2.3-1.31,4.7-2.47,7.14-3.48,3.45-1.43,7-2.57,10.61-3.41.81-.13,1.6-.26,2.4-.32,2.68-.31,5.27-.3,7.8-.01h.15c1.23.12,2.44.31,3.62.57,1.93.4,3.79.97,5.59,1.67,28.19,10.78,33.58,48.49,18.41,72.8-2.9,3.73-6.76,6.94-11.8,9.36-18.83,10.79-45.77,16.18-63.73-.98-3.26-3.15-5.71-6.52-7.48-10.06-.24-.48-.47-.98-.69-1.48-1.81-4.07-2.75-8.34-2.98-12.72-.16-2.91-.01-5.89.4-8.86,2.03-15.98,11.03-29.26,23.24-38.34Z"/>
        <path class="cls-6" d="m175.68,111.73s23.08,12.45,18.67,33.28c-4.42,20.84-32.45,31.28-32.45,31.28l.66-20.36s15.95-9.5,14.56-15.37c-1.46-6.16-4.87-5.56-4.87-5.56l3.44-23.27Z"/>
        <path class="cls-6" d="m155.33,158.93s-5.54-4.43-8.49-4.03-3.31,2.58-3.31,2.58l1.42,5.49s-10.19,1.21-8.64,5.63c1.55,4.43,2.02,3.9,2.02,3.9,0,0-2,1.35-.33,4.53,1.67,3.18,2.74,3.55,2.74,3.55,0,0-2.24,3.18.34,5.2s3.37,3.33,9.37,1.84c6-1.49,9.22-5.51,11.1-8.85,1.88-3.34,2.78-3.95,2.78-3.95l6.01-3.3-6.99-15.96-8.03,3.38Z"/>
        <g>
          <path class="cls-9" d="m140.06,164.01s-3.98,1.96-3.28,5.05,2.74,3.35,2.74,3.35l6.53-1.63"/>
          <path class="cls-9" d="m147.58,178.98c-.16.03-6.48,1.23-6.48,1.23,0,0-3.8-1.78-3.64-4.41.15-2.63,2.07-3.4,2.07-3.4"/>
          <path class="cls-9" d="m143.45,187.72s-4.94-1.31-2.35-7.51"/>
        </g>
        <path class="cls-6" d="m75.15,154.09s-16.37,12.96-29.43,4.75c-13.06-8.21-11.24-29.93-8.03-35.61,3.21-5.67,9-19.24,14.02-18.49,5.02.76,2.95,7.63,2.95,7.63,0,0,4.32-2.14,6.47,3.53,2.15,5.68-.75,6.64-.75,6.64,0,0,6.03-.11,6.59,4.44.56,4.56-11.37,8.25-11.37,8.25,0,0-2.96,1.96-2.43,2.75,4.7,6.98,19.69,16.25,21.99,16.09Z"/>
      </g>
      <path class="cls-5" d="m80.75,194.3s.14,4.67.37,4.61,33.17-.23,33.17-.23l1.89-4.3-35.43-.09Z"/>
      <g>
        <line class="cls-12" x1="101.31" y1="75.47" x2="102.14" y2="78.29"/>
        <line class="cls-12" x1="108.32" y1="75.15" x2="109.18" y2="78.25"/>
        <line class="cls-12" x1="114.22" y1="71.42" x2="113.6" y2="76.16"/>
        <line class="cls-12" x1="111.4" y1="63.35" x2="111.2" y2="67.38"/>
        <line class="cls-12" x1="103.4" y1="67.77" x2="104.36" y2="71.53"/>
        <line class="cls-12" x1="93.82" y1="68.69" x2="96.15" y2="71.93"/>
        <line class="cls-12" x1="93.49" y1="77.21" x2="94.54" y2="79.81"/>
      </g>
      <path class="cls-9" d="m41.83,115.11s6.08-12.04,10.43-10.32c4.36,1.72,2.29,8.03,2.29,8.03l-3.78,4.24"/>
      <path class="cls-9" d="m55.59,126.34l4.78-3.79s3.59-4.35.03-7.91c-3.55-3.55-6.29-1.53-6.29-1.53"/>
      <path class="cls-9" d="m60.29,133.34s8.48-3.32,6.19-7.22c-2.29-3.9-6.11-3.56-6.11-3.56"/>
      <path class="cls-6" d="m38.05,109.95s-1.72,4.13-1.15,7.45,1.48,5.3,1.48,5.3c0,0,2.77-4.39,2.54-4.84s-2.87-7.91-2.87-7.91Z"/>
      <g>
        <line class="cls-9" x1="148.34" y1="78.89" x2="157.62" y2="76.83"/>
        <line class="cls-9" x1="148.62" y1="85.67" x2="159.56" y2="86.54"/>
        <line class="cls-9" x1="149.17" y1="92.3" x2="158.74" y2="95.56"/>
      </g>
      <g>
        <line class="cls-9" x1="55.88" y1="92.7" x2="67.31" y2="92.62"/>
        <path class="cls-9" d="m57.43,103.01s8.39-2.48,10.8-3.86"/>
        <path class="cls-9" d="m61.38,109.98c.92-.46,7.39-3.53,9.2-5.59"/>
      </g>
      <path class="cls-9" d="m74.79,27.18s-34.22,17.02-38.86,61.74"/>
      <path class="cls-9" d="m64.48,148.41s18.92,12.21,35.43,10.66c16.51-1.55,24.42-4.3,24.42-4.3,0,0,.09,12.19-2.88,21.14"/>
    </g>
  </g>
</svg>